# https://github.com/mikedh/trimesh
v -0.01296324 -0.01141249 0.10955198
v -0.01415528 -0.01141249 0.10933318
v -0.01412674 -0.01326585 0.10931898
v -0.01296324 -0.01326585 0.10952925
v -0.01111137 -0.01141249 0.10950084
v -0.01111137 -0.00992341 0.10932182
v -0.01296324 -0.00983713 0.10934455
v -0.01401761 -0.01020461 0.10926783
v -0.01508037 -0.01141249 0.10878192
v -0.01505183 -0.01326585 0.10878476
v -0.01397899 -0.01449291 0.10925077
v -0.01282556 -0.01510963 0.10930477
v -0.01211705 -0.01607146 0.10921384
v -0.01200792 -0.01607146 0.10921384
v -0.01162009 -0.01511283 0.10929624
v -0.01098041 -0.01336811 0.10941559
v -0.01006539 -0.01281849 0.10927919
v -0.01005364 -0.01141249 0.10928203
v -0.01013255 -0.01032284 0.10923657
v -0.01111137 -0.00899992 0.10913712
v -0.01296324 -0.00891045 0.10914279
v -0.01296324 -0.00771216 0.10873361
v -0.01436011 -0.00623266 0.10766233
v -0.01491080 -0.00769298 0.10794649
v -0.01470597 -0.00957830 0.10868530
v -0.01621198 -0.01141249 0.10785556
v -0.01623380 -0.01326585 0.10785840
v -0.01605248 -0.00956232 0.10768791
v -0.01614482 -0.01511283 0.10774190
v -0.01600883 -0.01696299 0.10760266
v -0.01586948 -0.01850000 0.10747195
v -0.01468247 -0.01510963 0.10874782
v -0.01481174 -0.01696299 0.10838409
v -0.01499643 -0.01899530 0.10791239
v -0.01296324 -0.01881316 0.10862563
v -0.01334939 -0.01572635 0.10915985
v -0.01282556 -0.01680002 0.10902913
v -0.01111137 -0.01881316 0.10844661
v -0.01127926 -0.01680002 0.10890410
v -0.01069499 -0.01511283 0.10908596
v -0.01027694 -0.01405194 0.10918542
v -0.00926118 -0.01511283 0.10834715
v -0.00937367 -0.01336811 0.10871656
v -0.00797176 -0.01326585 0.10768222
v -0.00912854 -0.01141249 0.10863415
v -0.00941396 -0.00964860 0.10860005
v -0.00917388 -0.00774092 0.10790671
v -0.00973296 -0.00621668 0.10765665
v -0.01111137 -0.00771216 0.10872224
v -0.00808425 -0.00956232 0.10758845
v -0.01106268 -0.00570541 0.10779304
v -0.01298506 -0.00571180 0.10779589
v -0.01361802 -0.00499602 0.10731566
v -0.01559413 -0.00706348 0.10722189
v -0.01491080 -0.00571180 0.10691215
v -0.01587115 -0.00829693 0.10749752
v -0.01713875 -0.01141249 0.10683543
v -0.01715890 -0.01326585 0.10686669
v -0.01706991 -0.01511283 0.10677576
v -0.01697757 -0.00956232 0.10664788
v -0.01693392 -0.01696299 0.10664220
v -0.01759374 -0.01976540 0.10551125
v -0.01573516 -0.01973345 0.10735544
v -0.01447932 -0.02066652 0.10767370
v -0.01406294 -0.02171783 0.10743785
v -0.01296324 -0.02066652 0.10803458
v -0.01096530 -0.02082949 0.10777599
v -0.01025007 -0.02155486 0.10734123
v -0.00983034 -0.02032141 0.10757140
v -0.00951134 -0.01881316 0.10778736
v -0.00812286 -0.01511283 0.10754298
v -0.00912015 -0.01697258 0.10789534
v -0.00840828 -0.01759889 0.10729861
v -0.00826221 -0.01636544 0.10742080
v -0.00719777 -0.01511283 0.10669051
v -0.00704666 -0.01326585 0.10679281
v -0.00794993 -0.01141249 0.10770780
v -0.00824039 -0.00838001 0.10744637
v -0.00849894 -0.00714656 0.10721620
v -0.00917388 -0.00570541 0.10695478
v -0.01041125 -0.00498324 0.10732702
v -0.00702484 -0.01141249 0.10678712
v -0.00715915 -0.00956232 0.10665357
v -0.01164527 -0.00487140 0.10740091
v -0.01238568 -0.00487140 0.10740091
v -0.01298506 -0.00415562 0.10673029
v -0.01296324 -0.00290939 0.10567890
v -0.01396556 -0.00302443 0.10556524
v -0.01467407 -0.00415881 0.10591760
v -0.01736541 -0.00729675 0.10518447
v -0.01661828 -0.00779524 0.10638930
v -0.01577881 -0.00487779 0.10555672
v -0.01606423 -0.00586199 0.10590623
v -0.01762900 -0.00853019 0.10555956
v -0.01789427 -0.01141249 0.10590907
v -0.01793457 -0.01326585 0.10594033
v -0.01774988 -0.00956232 0.10572153
v -0.01788252 -0.01511283 0.10585224
v -0.01777507 -0.01696299 0.10571585
v -0.01765586 -0.01881316 0.10558229
v -0.01851716 -0.01881316 0.10457921
v -0.01937509 -0.01881316 0.10356761
v -0.01924582 -0.02066652 0.10340280
v -0.01817801 -0.02049716 0.10468435
v -0.01744096 -0.02099885 0.10536917
v -0.01620694 -0.02216199 0.10588634
v -0.01540609 -0.02066652 0.10717642
v -0.01296324 -0.02181689 0.10750320
v -0.01566129 -0.02339544 0.10546863
v -0.01442727 -0.02364788 0.10572721
v -0.01296324 -0.02274357 0.10680417
v -0.01148409 -0.02176576 0.10746910
v -0.01096530 -0.02243680 0.10688942
v -0.00976654 -0.02364468 0.10569880
v -0.00853252 -0.02328040 0.10540611
v -0.00802380 -0.02204696 0.10575847
v -0.00923264 -0.02082949 0.10701729
v -0.00858625 -0.01881316 0.10717074
v -0.00737406 -0.01712276 0.10646318
v -0.00648590 -0.01788009 0.10550273
v -0.00635830 -0.01664664 0.10562776
v -0.00774342 -0.02066652 0.10601705
v -0.00751676 -0.01881316 0.10624722
v -0.00624245 -0.01511283 0.10576415
v -0.00618705 -0.01326585 0.10586645
v -0.00642042 -0.00844072 0.10558798
v -0.00744625 -0.00779204 0.10640351
v -0.00665379 -0.00720728 0.10528961
v -0.00792139 -0.00586199 0.10594886
v -0.00823199 -0.00478193 0.10562207
v -0.00935184 -0.00410449 0.10599148
v -0.01003013 -0.00297969 0.10560787
v -0.01106268 -0.00415562 0.10676439
v -0.00621559 -0.01141249 0.10586077
v -0.00631800 -0.00956232 0.10573005
v -0.01111137 -0.00287744 0.10571300
v -0.01232692 -0.00118065 0.10372674
v -0.01295148 -0.00187407 0.10443713
v -0.01355926 -0.00129888 0.10354772
v -0.01467407 -0.00271447 0.10440019
v -0.01574523 -0.00307556 0.10366422
v -0.01519958 -0.00364115 0.10490031
v -0.01702122 -0.00583004 0.10457069
v -0.01775324 -0.00642759 0.10394838
v -0.01744096 -0.00519414 0.10336301
v -0.01604744 -0.00415881 0.10440019
v -0.01791106 -0.00783358 0.10457069
v -0.01834591 -0.00956232 0.10457921
v -0.01866994 -0.01141249 0.10457921
v -0.01946744 -0.01394968 0.10370116
v -0.01949766 -0.01511283 0.10373810
v -0.01948926 -0.01657634 0.10372105
v -0.01943218 -0.01780979 0.10364433
v -0.01989053 -0.02066652 0.10247928
v -0.01970584 -0.02219714 0.10219228
v -0.01799669 -0.02251669 0.10409614
v -0.01769280 -0.02354563 0.10376084
v -0.01666361 -0.02388754 0.10417002
v -0.01675427 -0.02486854 0.10277196
v -0.01495110 -0.02422945 0.10474402
v -0.01481174 -0.02519767 0.10347384
v -0.01387826 -0.02529354 0.10365286
v -0.01296324 -0.02379168 0.10588066
v -0.01111137 -0.02378848 0.10585793
v -0.00999152 -0.02533827 0.10372674
v -0.00875750 -0.02517211 0.10346531
v -0.00740931 -0.02385558 0.10408193
v -0.00643049 -0.02349769 0.10370400
v -0.00681833 -0.02066652 0.10521004
v -0.00617697 -0.02251669 0.10395691
v -0.00659167 -0.01881316 0.10540611
v -0.00585965 -0.02066652 0.10428369
v -0.00568672 -0.01881316 0.10447976
v -0.00476163 -0.01881316 0.10349373
v -0.00466257 -0.01765321 0.10361591
v -0.00458870 -0.01641977 0.10371253
v -0.00458702 -0.01511283 0.10371821
v -0.00607120 -0.00777926 0.10463604
v -0.00623742 -0.00620710 0.10405636
v -0.00567497 -0.00956232 0.10457921
v -0.00650604 -0.00497365 0.10361876
v -0.00690731 -0.00569902 0.10463604
v -0.00783073 -0.00410449 0.10450817
v -0.00819338 -0.00291578 0.10384608
v -0.00879611 -0.00354848 0.10507933
v -0.00948952 -0.00233101 0.10436894
v -0.01018124 -0.00123178 0.10365854
v -0.00461556 -0.01402957 0.10368127
v -0.00543153 -0.01141249 0.10457921
v -0.01111137 -0.00195076 0.10463604
v -0.01111137 -0.00063423 0.10272934
v -0.01212041 0.00063437 0.09999574
v -0.01295148 -0.00080039 0.10284869
v -0.01111137 -0.00119343 0.10370969
v -0.01282724 0.00020937 0.10072034
v -0.01426105 -0.00095697 0.10231163
v -0.01485204 -0.00177820 0.10284869
v -0.01697086 -0.00405336 0.10273787
v -0.01600211 -0.00279116 0.10272934
v -0.01863804 -0.00771216 0.10272934
v -0.01798829 -0.00583004 0.10273787
v -0.01772134 -0.00469885 0.10212977
v -0.01912661 -0.00959428 0.10264978
v -0.01929115 -0.01141249 0.10324083
v -0.01939524 -0.01271943 0.10354488
v -0.02005842 -0.01511283 0.10272934
v -0.01994761 -0.01710040 0.10290836
v -0.01997615 -0.01881316 0.10264125
v -0.02088949 -0.02056746 0.10070897
v -0.02014573 -0.02269564 0.10105849
v -0.01943386 -0.02343059 0.10179446
v -0.01902252 -0.02269564 0.10277765
v -0.02125382 -0.02112028 0.09982240
v -0.01812596 -0.02392908 0.10272934
v -0.01743256 -0.02522324 0.10164386
v -0.01619855 -0.02545651 0.10218091
v -0.01481174 -0.02558113 0.10254748
v -0.01314120 -0.02560669 0.10291404
v -0.01264592 -0.02533508 0.10373242
v -0.01314120 -0.02483339 0.10443997
v -0.01111137 -0.02471516 0.10469288
v -0.01111137 -0.02535745 0.10376652
v -0.01111137 -0.02576327 0.10272934
v -0.00440234 -0.02935176 0.09167558
v -0.00933002 -0.02561628 0.10280038
v -0.00779715 -0.02550444 0.10222922
v -0.00656313 -0.02525200 0.10172910
v -0.00727164 -0.02485896 0.10280038
v -0.00598557 -0.02391630 0.10272934
v -0.00463907 -0.02342739 0.10179446
v -0.00513100 -0.02269244 0.10272650
v -0.00493288 -0.02066652 0.10328913
v -0.00440234 -0.02066652 0.10257305
v -0.00440234 -0.01734006 0.10326356
v -0.00440234 -0.01881316 0.10297656
v -0.00440234 -0.01665623 0.10338006
v -0.00440234 -0.01598518 0.10338575
v -0.00440234 -0.01511283 0.10339143
v -0.00507055 -0.00782080 0.10258442
v -0.00586805 -0.00569902 0.10289415
v -0.00491777 -0.00956232 0.10300497
v -0.00468272 -0.01279932 0.10354772
v -0.00477506 -0.01141249 0.10333744
v -0.00619880 -0.00444960 0.10238551
v -0.00657992 -0.00321616 0.10160123
v -0.00684015 -0.00390318 0.10289415
v -0.00783744 -0.00250037 0.10272934
v -0.00834280 -0.00124137 0.10178878
v -0.00880115 -0.00157369 0.10272934
v -0.00972624 -0.00096975 0.10272934
v -0.01051870 0.00059921 0.09986218
v -0.01112648 0.00031162 0.10072034
v -0.00440234 -0.01358859 0.10314137
v -0.01282724 0.00071745 0.09886763
v -0.01335275 0.00050016 0.09937911
v -0.01175272 0.00063437 0.09999574
v -0.01112648 0.00077816 0.09915747
v -0.02155100 0.00252607 0.08052520
v -0.01549507 -0.00146824 0.10120341
v -0.01735533 -0.00341747 0.10087663
v -0.02155100 0.00228322 0.08105089
v -0.02155100 0.00158342 0.08236939
v -0.01919713 -0.00766742 0.10090788
v -0.02155100 -0.00955274 0.09542363
v -0.02155100 -0.01124313 0.09710869
v -0.02155100 -0.01204839 0.09779919
v -0.02155100 -0.00040735 0.08534168
v -0.01858264 -0.00586199 0.10087663
v -0.02155100 0.00084526 0.08365662
v -0.02155100 0.00018700 0.08458014
v -0.02134281 -0.01577428 0.10008951
v -0.02095497 -0.01513839 0.10077433
v -0.02096169 -0.01696299 0.10104144
v -0.02090125 -0.01881316 0.10095619
v -0.02130083 -0.01988683 0.09997869
v -0.02103220 -0.02254545 0.09913474
v -0.01977132 -0.02382683 0.10056121
v -0.01866155 -0.02452343 0.10110396
v -0.02149055 -0.02056746 0.09913474
v -0.02142004 -0.02194790 0.09858915
v -0.01919209 -0.02511140 0.09902676
v -0.01788756 -0.02545651 0.10041061
v -0.01675427 -0.02567060 0.10096756
v -0.01481174 -0.02606364 0.10087663
v -0.00440234 -0.02977676 0.08977455
v -0.00440234 -0.02905459 0.09238029
v -0.01059090 -0.02903861 0.09078332
v -0.00535765 -0.02456817 0.10114658
v -0.00440234 -0.02395145 0.10061804
v -0.00440234 -0.02318773 0.10155292
v -0.00442081 -0.02219395 0.10210703
v -0.00440234 -0.02203098 0.10213545
v -0.00460381 -0.00851102 0.10187402
v -0.00475324 -0.00727758 0.10146768
v -0.00499164 -0.00589394 0.10086242
v -0.00451147 -0.00956232 0.10208146
v -0.00440234 -0.01141249 0.10250201
v -0.00440234 -0.01319555 0.10305328
v -0.00592849 -0.00390318 0.10094198
v -0.00631465 -0.00286785 0.10036798
v -0.00732872 -0.00205301 0.10107838
v -0.00807585 -0.00097295 0.10055553
v -0.00907986 -0.00050961 0.10105565
v -0.00928972 0.00027328 0.09915747
v -0.00992604 0.00072384 0.09862893
v -0.00440234 0.00286799 0.08052520
v -0.01111137 0.00100823 0.09717688
v -0.02114637 0.00253566 0.08052520
v -0.02155100 -0.02712773 0.08052520
v -0.02155100 -0.01326585 0.09832773
v -0.02155100 -0.01514478 0.09909780
v -0.02155100 -0.01656995 0.09937627
v -0.02155100 -0.01696299 0.09939900
v -0.02135456 -0.01696299 0.10011508
v -0.02132434 -0.01881316 0.10002984
v -0.02155100 -0.01972067 0.09908359
v -0.02155100 -0.01881316 0.09925124
v -0.02155100 -0.02714051 0.08988538
v -0.02155100 -0.02735780 0.08942504
v -0.02155100 -0.02058344 0.09879374
v -0.02155100 -0.02188079 0.09717688
v -0.02155100 -0.02685931 0.09031446
v -0.01851380 -0.02790742 0.08977455
v -0.01666361 -0.02613714 0.09902676
v -0.01666361 -0.02824933 0.08977455
v -0.01182492 -0.02896831 0.09034856
v -0.00555912 -0.02966811 0.08977455
v -0.00926118 -0.02933578 0.08792469
v -0.00740931 -0.02950834 0.08792469
v -0.00440234 -0.02977356 0.08908121
v -0.00740931 -0.02948917 0.08977455
v -0.00440234 -0.02220354 0.10207293
v -0.00440234 -0.02216838 0.10208998
v -0.00440234 -0.00788791 0.10095903
v -0.00440234 -0.00778885 0.10089652
v -0.00440234 -0.00956232 0.10182288
v -0.00453329 -0.00653304 0.10023443
v -0.00475659 -0.00524207 0.09902676
v -0.00532239 -0.00400863 0.09902676
v -0.00440234 -0.01092039 0.10232299
v -0.01921224 0.00257720 0.08052520
v -0.00440234 0.00245577 0.08141461
v -0.00440234 -0.02916962 0.08052520
v -0.02050838 -0.02731306 0.08052520
v -0.02155100 -0.02716607 0.08108783
v -0.02155100 -0.01834982 0.09929955
v -0.02155100 -0.02754314 0.08792469
v -0.02036567 -0.02776682 0.08792469
v -0.01851380 -0.02810554 0.08792469
v -0.01666361 -0.02842508 0.08792469
v -0.01481174 -0.02855290 0.08977455
v -0.01286250 -0.02885966 0.08974898
v -0.01217917 -0.02901304 0.08911531
v -0.01117013 -0.02908654 0.08974898
v -0.00926118 -0.02929425 0.08977455
v -0.01111137 -0.02914406 0.08792469
v -0.01220939 -0.02900985 0.08680226
v -0.00555912 -0.02966492 0.08792469
v -0.00926118 -0.02923034 0.08607197
v -0.00440234 -0.02975439 0.08792469
v -0.00440234 -0.00764186 0.10077433
v -0.00440234 -0.00623586 0.09925977
v -0.00440234 -0.00609206 0.09902676
v -0.00465250 -0.00498004 0.09797821
v -0.00440234 0.00205634 0.08226425
v -0.00440234 -0.02932300 0.08236939
v -0.00744625 -0.02892677 0.08052520
v -0.02041604 -0.02732904 0.08052520
v -0.01851380 -0.02778279 0.08236939
v -0.01851380 -0.02790742 0.08422210
v -0.02155100 -0.02724916 0.08236939
v -0.02155100 -0.02749840 0.08673690
v -0.02155100 -0.02746964 0.08607197
v -0.01666361 -0.02835159 0.08607197
v -0.01851380 -0.02801926 0.08607197
v -0.01481174 -0.02865516 0.08607197
v -0.01481174 -0.02870628 0.08792469
v -0.01319661 -0.02891718 0.08792469
v -0.01227319 -0.02901944 0.08792469
v -0.01107611 -0.02906417 0.08614017
v -0.01288097 -0.02889162 0.08614017
v -0.00740931 -0.02938691 0.08607197
v -0.00555912 -0.02953710 0.08607197
v -0.01043476 -0.02901944 0.08486430
v -0.00865341 -0.02902583 0.08293770
v -0.00806746 -0.02897470 0.08170161
v -0.00440234 -0.02962657 0.08607197
v -0.00440234 -0.02947639 0.08422210
v -0.00926118 -0.02876699 0.08052520
v -0.01851380 -0.02764859 0.08052520
v -0.01666361 -0.02822377 0.08422210
v -0.02036567 -0.02757829 0.08422210
v -0.02155100 -0.02737378 0.08433292
v -0.02155100 -0.02741532 0.08503195
v -0.01666361 -0.02807678 0.08236939
v -0.01481174 -0.02850497 0.08422210
v -0.01296324 -0.02856249 0.08236939
v -0.01111137 -0.02858805 0.08052520
v -0.01111137 -0.02874463 0.08236939
v -0.01666361 -0.02792020 0.08052520
v -0.01481174 -0.02817583 0.08052520
v -0.01296324 -0.02839952 0.08052520
f 1 2 3
f 1 3 4
f 1 4 5
f 1 5 6
f 1 6 7
f 1 7 8
f 1 8 2
f 2 8 9
f 2 9 10
f 2 10 3
f 3 10 11
f 3 11 4
f 4 11 12
f 4 12 13
f 4 13 14
f 4 14 15
f 4 15 16
f 4 16 5
f 5 16 17
f 5 17 18
f 5 18 19
f 5 19 6
f 6 19 20
f 6 20 7
f 7 20 21
f 7 21 8
f 8 21 22
f 8 22 23
f 8 23 24
f 8 24 25
f 8 25 9
f 9 26 27
f 9 27 10
f 9 25 28
f 9 28 26
f 10 27 29
f 10 29 30
f 10 30 31
f 10 31 32
f 10 32 11
f 11 32 33
f 11 33 34
f 11 34 35
f 11 35 36
f 11 36 12
f 12 36 13
f 13 37 35
f 13 35 14
f 13 36 37
f 14 35 38
f 14 38 39
f 14 39 40
f 14 40 41
f 14 41 15
f 15 41 16
f 16 41 17
f 17 41 42
f 17 42 43
f 17 43 44
f 17 44 45
f 17 45 18
f 18 45 19
f 19 46 47
f 19 47 48
f 19 48 49
f 19 49 20
f 19 45 50
f 19 50 46
f 20 49 21
f 21 49 22
f 22 49 51
f 22 51 52
f 22 52 53
f 22 53 23
f 23 54 24
f 23 53 55
f 23 55 54
f 24 54 56
f 24 56 25
f 25 56 28
f 26 57 58
f 26 58 27
f 26 28 57
f 27 58 59
f 27 59 29
f 28 60 57
f 28 56 60
f 29 59 61
f 29 61 30
f 30 61 62
f 30 62 31
f 31 33 32
f 31 62 63
f 31 63 33
f 33 63 34
f 34 63 64
f 34 64 35
f 35 37 36
f 35 64 65
f 35 65 66
f 35 66 38
f 38 66 67
f 38 67 68
f 38 68 69
f 38 69 70
f 38 70 41
f 38 41 40
f 38 40 39
f 41 70 42
f 42 71 43
f 42 70 72
f 42 72 73
f 42 73 74
f 42 74 71
f 43 71 44
f 44 71 75
f 44 75 76
f 44 76 77
f 44 77 45
f 45 77 50
f 46 50 78
f 46 78 47
f 47 78 79
f 47 79 48
f 48 79 80
f 48 80 81
f 48 81 49
f 49 81 51
f 50 77 82
f 50 82 83
f 50 83 78
f 51 81 84
f 51 84 85
f 51 85 52
f 52 85 53
f 53 85 86
f 53 86 87
f 53 87 88
f 53 88 89
f 53 89 55
f 54 90 91
f 54 91 56
f 54 55 92
f 54 92 93
f 54 93 90
f 55 89 92
f 56 91 94
f 56 94 60
f 57 95 96
f 57 96 58
f 57 60 97
f 57 97 95
f 58 96 98
f 58 98 59
f 59 98 99
f 59 99 100
f 59 100 62
f 59 62 61
f 60 94 97
f 62 100 101
f 62 101 102
f 62 102 103
f 62 103 104
f 62 104 105
f 62 105 63
f 63 105 106
f 63 106 107
f 63 107 64
f 64 107 65
f 65 108 66
f 65 107 106
f 65 106 109
f 65 109 110
f 65 110 111
f 65 111 108
f 66 108 112
f 66 112 67
f 67 112 68
f 68 112 113
f 68 113 114
f 68 114 115
f 68 115 116
f 68 116 117
f 68 117 69
f 69 117 118
f 69 118 70
f 70 118 73
f 70 73 72
f 71 74 119
f 71 119 120
f 71 120 121
f 71 121 75
f 73 118 122
f 73 122 123
f 73 123 74
f 74 123 119
f 75 121 124
f 75 124 76
f 76 124 125
f 76 125 82
f 76 82 77
f 78 126 127
f 78 127 79
f 78 83 126
f 79 127 128
f 79 128 129
f 79 129 130
f 79 130 80
f 80 130 131
f 80 131 81
f 81 131 132
f 81 132 133
f 81 133 84
f 82 125 134
f 82 134 135
f 82 135 83
f 83 135 126
f 84 133 136
f 84 136 85
f 85 136 87
f 85 87 86
f 87 136 137
f 87 137 138
f 87 138 88
f 88 138 139
f 88 139 140
f 88 140 141
f 88 141 142
f 88 142 92
f 88 92 89
f 90 93 143
f 90 143 144
f 90 144 94
f 90 94 91
f 92 145 143
f 92 143 93
f 92 142 141
f 92 141 146
f 92 146 145
f 94 144 147
f 94 147 148
f 94 148 97
f 95 149 150
f 95 150 151
f 95 151 96
f 95 97 149
f 96 151 152
f 96 152 98
f 97 148 149
f 98 152 153
f 98 153 101
f 98 101 99
f 99 101 100
f 101 153 102
f 102 154 103
f 102 153 154
f 103 105 104
f 103 154 155
f 103 155 156
f 103 156 105
f 105 156 106
f 106 156 157
f 106 157 109
f 108 111 112
f 109 157 158
f 109 158 159
f 109 159 160
f 109 160 110
f 110 160 161
f 110 161 162
f 110 162 163
f 110 163 111
f 111 163 164
f 111 164 112
f 112 164 113
f 113 164 114
f 114 164 165
f 114 165 166
f 114 166 115
f 115 166 167
f 115 167 168
f 115 168 116
f 116 169 122
f 116 122 117
f 116 168 170
f 116 170 169
f 117 122 118
f 119 123 120
f 120 123 171
f 120 171 172
f 120 172 121
f 121 172 173
f 121 173 174
f 121 174 175
f 121 175 124
f 122 169 123
f 123 169 171
f 124 175 176
f 124 176 125
f 125 176 177
f 125 177 134
f 126 178 179
f 126 179 128
f 126 128 127
f 126 135 180
f 126 180 178
f 128 179 181
f 128 181 182
f 128 182 129
f 129 182 130
f 130 182 181
f 130 181 183
f 130 183 184
f 130 184 185
f 130 185 131
f 131 185 132
f 132 184 186
f 132 186 187
f 132 187 136
f 132 136 133
f 132 185 184
f 134 177 188
f 134 188 135
f 135 188 189
f 135 189 180
f 136 187 190
f 136 190 137
f 137 191 192
f 137 192 193
f 137 193 139
f 137 139 138
f 137 190 194
f 137 194 191
f 139 193 195
f 139 195 196
f 139 196 140
f 140 196 197
f 140 197 141
f 141 198 145
f 141 145 146
f 141 197 199
f 141 199 198
f 143 145 144
f 144 200 147
f 144 145 201
f 144 201 200
f 145 198 202
f 145 202 201
f 147 200 148
f 148 203 204
f 148 204 205
f 148 205 149
f 148 200 203
f 149 205 150
f 150 205 206
f 150 206 151
f 151 206 207
f 151 207 152
f 152 207 208
f 152 208 153
f 153 208 154
f 154 208 209
f 154 209 155
f 155 210 211
f 155 211 212
f 155 212 156
f 155 209 213
f 155 213 210
f 156 212 157
f 157 212 211
f 157 211 214
f 157 214 215
f 157 215 159
f 157 159 158
f 159 215 216
f 159 216 161
f 159 161 160
f 161 216 217
f 161 217 162
f 162 217 218
f 162 218 219
f 162 219 220
f 162 220 163
f 163 220 221
f 163 221 164
f 164 221 165
f 165 221 222
f 165 222 223
f 165 223 224
f 165 224 225
f 165 225 166
f 166 225 226
f 166 226 227
f 166 227 228
f 166 228 167
f 167 228 168
f 168 228 227
f 168 227 229
f 168 229 230
f 168 230 231
f 168 231 170
f 169 172 171
f 169 170 172
f 170 231 232
f 170 232 172
f 172 232 174
f 172 174 173
f 174 232 233
f 174 233 175
f 175 234 176
f 175 233 235
f 175 235 234
f 176 234 236
f 176 236 237
f 176 237 177
f 177 237 238
f 177 238 188
f 178 239 179
f 178 180 239
f 179 239 240
f 179 240 181
f 180 241 239
f 180 189 242
f 180 242 243
f 180 243 241
f 181 244 245
f 181 245 246
f 181 246 184
f 181 184 183
f 181 240 244
f 184 246 245
f 184 245 247
f 184 247 248
f 184 248 249
f 184 249 187
f 184 187 186
f 187 249 248
f 187 248 250
f 187 250 251
f 187 251 252
f 187 252 191
f 187 191 194
f 187 194 190
f 188 238 253
f 188 253 242
f 188 242 189
f 191 252 192
f 192 254 255
f 192 255 195
f 192 195 193
f 192 252 256
f 192 256 257
f 192 257 258
f 192 258 254
f 195 255 196
f 196 259 197
f 196 255 258
f 196 258 259
f 197 259 199
f 198 199 260
f 198 260 202
f 199 259 261
f 199 261 262
f 199 262 260
f 200 263 264
f 200 264 265
f 200 265 266
f 200 266 203
f 200 201 263
f 201 202 267
f 201 267 268
f 201 268 263
f 202 260 269
f 202 269 270
f 202 270 267
f 203 266 204
f 204 266 271
f 204 271 272
f 204 272 205
f 205 272 206
f 206 272 271
f 206 271 273
f 206 273 207
f 207 273 274
f 207 274 208
f 208 274 209
f 209 274 275
f 209 275 213
f 210 213 276
f 210 276 277
f 210 277 211
f 211 277 278
f 211 278 215
f 211 215 214
f 213 275 279
f 213 279 280
f 213 280 276
f 215 278 281
f 215 281 282
f 215 282 283
f 215 283 216
f 216 283 284
f 216 284 217
f 217 284 218
f 218 223 219
f 218 284 224
f 218 224 223
f 219 223 222
f 219 222 220
f 220 222 221
f 224 285 330
f 224 330 360
f 224 360 387
f 224 387 388
f 224 388 366
f 224 366 343
f 224 343 306
f 224 306 342
f 224 342 365
f 224 365 363
f 224 363 362
f 224 362 361
f 224 361 335
f 224 335 334
f 224 334 336
f 224 336 340
f 224 340 297
f 224 297 298
f 224 298 253
f 224 253 238
f 224 238 237
f 224 237 236
f 224 236 234
f 224 234 235
f 224 235 233
f 224 233 292
f 224 292 333
f 224 333 332
f 224 332 290
f 224 290 289
f 224 289 286
f 224 286 225
f 224 284 287
f 224 287 285
f 225 286 226
f 226 286 227
f 227 288 230
f 227 230 229
f 227 286 288
f 230 288 289
f 230 289 290
f 230 290 291
f 230 291 231
f 231 291 232
f 232 291 292
f 232 292 233
f 239 241 293
f 239 293 294
f 239 294 240
f 240 295 244
f 240 294 295
f 241 296 293
f 241 243 297
f 241 297 296
f 242 253 298
f 242 298 243
f 243 298 297
f 244 295 299
f 244 299 245
f 245 300 301
f 245 301 248
f 245 248 247
f 245 299 300
f 248 301 302
f 248 302 303
f 248 303 250
f 250 303 251
f 251 256 252
f 251 303 304
f 251 304 305
f 251 305 257
f 251 257 256
f 254 258 255
f 257 305 306
f 257 306 307
f 257 307 258
f 258 261 259
f 258 307 308
f 258 308 341
f 258 341 306
f 258 306 343
f 258 343 367
f 258 367 389
f 258 389 398
f 258 398 402
f 258 402 401
f 258 401 400
f 258 400 390
f 258 390 368
f 258 368 344
f 258 344 309
f 258 309 345
f 258 345 371
f 258 371 393
f 258 393 394
f 258 394 373
f 258 373 372
f 258 372 347
f 258 347 319
f 258 319 318
f 258 318 322
f 258 322 321
f 258 321 320
f 258 320 316
f 258 316 317
f 258 317 346
f 258 346 313
f 258 313 312
f 258 312 311
f 258 311 310
f 258 310 266
f 258 266 265
f 258 265 264
f 258 264 267
f 258 267 270
f 258 270 269
f 258 269 262
f 258 262 261
f 260 262 269
f 263 268 267
f 263 267 264
f 266 310 271
f 271 311 312
f 271 312 313
f 271 313 314
f 271 314 273
f 271 310 311
f 273 314 315
f 273 315 275
f 273 275 274
f 275 316 279
f 275 315 317
f 275 317 316
f 276 280 318
f 276 318 277
f 277 318 319
f 277 319 281
f 277 281 278
f 279 316 320
f 279 320 280
f 280 320 321
f 280 321 322
f 280 322 318
f 281 319 282
f 282 319 283
f 283 319 323
f 283 323 324
f 283 324 284
f 284 324 323
f 284 323 325
f 284 325 326
f 284 326 287
f 285 327 328
f 285 328 329
f 285 329 330
f 285 287 327
f 286 289 288
f 287 326 331
f 287 331 327
f 290 332 291
f 291 332 333
f 291 333 292
f 293 334 335
f 293 335 294
f 293 296 336
f 293 336 334
f 294 335 337
f 294 337 295
f 295 338 339
f 295 339 299
f 295 337 338
f 296 297 340
f 296 340 336
f 299 339 300
f 300 339 306
f 300 306 302
f 300 302 301
f 302 306 304
f 302 304 303
f 304 306 305
f 306 341 307
f 306 339 342
f 307 341 308
f 309 344 345
f 313 346 314
f 314 346 315
f 315 346 317
f 319 347 323
f 323 347 348
f 323 348 325
f 325 348 349
f 325 349 350
f 325 350 351
f 325 351 326
f 326 351 352
f 326 352 353
f 326 353 354
f 326 354 355
f 326 355 331
f 327 331 328
f 328 331 353
f 328 353 356
f 328 356 357
f 328 357 329
f 329 358 330
f 329 357 359
f 329 359 358
f 330 358 360
f 331 355 353
f 335 361 337
f 337 361 362
f 337 362 338
f 338 363 364
f 338 364 365
f 338 365 339
f 338 362 363
f 339 365 342
f 343 366 367
f 344 368 369
f 344 369 370
f 344 370 345
f 345 370 371
f 347 372 348
f 348 372 373
f 348 373 349
f 349 374 350
f 349 373 375
f 349 375 374
f 350 374 376
f 350 376 377
f 350 377 353
f 350 353 352
f 350 352 351
f 353 377 378
f 353 378 379
f 353 379 356
f 353 355 354
f 356 379 357
f 357 380 359
f 357 379 378
f 357 378 376
f 357 376 381
f 357 381 380
f 358 359 382
f 358 382 383
f 358 383 387
f 358 387 360
f 359 380 384
f 359 384 385
f 359 385 386
f 359 386 382
f 363 365 364
f 366 388 383
f 366 383 386
f 366 386 367
f 367 386 389
f 368 390 369
f 369 390 391
f 369 391 374
f 369 374 370
f 370 374 392
f 370 392 371
f 371 392 393
f 373 394 375
f 374 375 394
f 374 394 393
f 374 393 392
f 374 391 376
f 376 378 377
f 376 391 390
f 376 390 395
f 376 395 396
f 376 396 381
f 380 381 384
f 381 396 397
f 381 397 398
f 381 398 399
f 381 399 384
f 382 386 383
f 383 388 387
f 384 399 389
f 384 389 385
f 385 389 386
f 389 399 398
f 390 400 395
f 395 400 396
f 396 401 402
f 396 402 397
f 396 400 401
f 397 402 398

