# https://github.com/mikedh/trimesh
v -0.00440066 -0.02917008 0.08051438
v -0.00440066 0.00286390 0.08051438
v -0.00741345 -0.02892853 0.08051438
v -0.00555914 -0.02692930 0.05459800
v -0.00440066 -0.02686763 0.05274626
v -0.00440066 0.00341382 0.07933310
v -0.02962447 0.00267888 0.08051438
v -0.00926036 -0.02876407 0.08051438
v -0.00926036 -0.02845571 0.07681090
v -0.00740975 -0.02815762 0.07125568
v -0.00682496 -0.02717599 0.05885221
v -0.00623647 -0.02712460 0.05761506
v -0.00440066 -0.02527441 0.03353446
v -0.00440066 0.00404083 0.07798420
v -0.03147138 0.00261721 0.08051438
v -0.00440066 0.00449823 0.07697851
v -0.00440066 0.00465242 0.07662732
v -0.00440066 0.00506871 0.07557375
v -0.00440066 0.00529998 0.07495916
v -0.00440066 0.00574197 0.07359430
v -0.00440066 0.00592699 0.07301962
v -0.01111467 -0.02858933 0.08051438
v -0.00740975 -0.02630229 0.04905076
v -0.00500026 -0.02532580 0.03477959
v -0.00440066 -0.02471421 0.02684585
v -0.01550432 0.01540408 0.03879436
v -0.03246330 0.00249386 0.08051438
v -0.00440066 0.00702683 0.06941192
v -0.00440066 0.00907231 0.06269936
v -0.00440066 0.00954000 0.06113496
v -0.00440066 0.00971474 0.06054432
v -0.00440066 0.00988434 0.05996964
v -0.00440066 0.01071179 0.05714414
v -0.00440066 0.01197094 0.05283406
v -0.00440066 0.01705897 0.03539418
v -0.00440066 0.01847231 0.03054933
v -0.00440066 0.02106771 0.02164980
v -0.00440066 0.02153540 0.02004549
v -0.00440066 0.02203906 0.01828155
v -0.00555914 0.02162791 0.01943889
v -0.00483370 0.02287679 0.01500110
v -0.01296528 -0.02839917 0.08051438
v -0.01111467 -0.02796746 0.07310742
v -0.00740975 -0.02583460 0.04349554
v -0.00623276 -0.02526927 0.03544207
v -0.00555914 -0.02476561 0.02869759
v -0.00440066 -0.02341394 0.01140138
v -0.02499424 0.00987406 0.05552387
v -0.02142627 0.01174481 0.05005645
v -0.03076074 0.00620966 0.06679394
v -0.03298517 0.00442628 0.07257265
v -0.03421768 0.00431322 0.07216558
v -0.03517259 0.00315171 0.07495916
v -0.03338861 0.00214952 0.08051438
v -0.00440066 0.02247591 0.01666926
v -0.00440066 0.02289221 0.01507293
v -0.00440066 0.02298986 0.01457807
v -0.00440066 0.02319029 0.01294184
v -0.00512980 0.02295902 0.01388367
v -0.00926036 0.02168444 0.01573541
v -0.00740975 0.02213671 0.01573541
v -0.01057429 0.02107285 0.01758715
v -0.01023378 0.02099062 0.01856889
v -0.00910121 0.02107799 0.01928724
v -0.00837577 0.02098548 0.02040467
v -0.01064091 0.01922266 0.02628713
v -0.01481589 -0.02817304 0.08051438
v -0.01296528 -0.02808053 0.07681090
v -0.01111467 -0.02765396 0.06941192
v -0.00926036 -0.02674428 0.05644974
v -0.00482630 -0.02347047 0.01262257
v -0.00549252 -0.02330601 0.01201596
v -0.00555914 -0.02311071 0.01018817
v -0.00440066 -0.02290514 0.00648469
v -0.01111467 -0.02749463 0.06756018
v -0.01205108 -0.02714515 0.06475862
v -0.01991247 0.01367209 0.04300068
v -0.02962077 0.00751507 0.06200496
v -0.03199324 0.00609145 0.06627514
v -0.03141586 0.00633815 0.06567651
v -0.03348854 0.00462158 0.07143127
v -0.03386976 0.00607603 0.06432762
v -0.03432501 0.00620452 0.06309844
v -0.03459890 0.00445712 0.07092843
v -0.03519850 0.00409736 0.07143127
v -0.03517259 0.00368621 0.07310742
v -0.03332199 0.00511496 0.06941192
v -0.03263356 0.00623022 0.06504596
v -0.03230415 0.00800332 0.05728781
v -0.03277050 0.00813694 0.05605864
v -0.03610900 0.00247330 0.07590897
v -0.03508376 0.00266860 0.07664328
v -0.03530954 0.00127582 0.08051438
v -0.03564265 0.00227287 0.07713814
v -0.00440066 0.02325196 0.01203193
v -0.00605510 0.02272261 0.01388367
v -0.01222504 0.02102660 0.01516871
v -0.00536298 0.02302583 0.01203193
v -0.01898716 0.01901709 0.01758715
v -0.01666650 0.01958756 0.01758715
v -0.01296528 0.02049210 0.01758715
v -0.01481589 0.01974174 0.01943889
v -0.02147438 0.01732108 0.02432365
v -0.02687446 0.01543491 0.02781961
v -0.02641181 0.01532699 0.02905676
v -0.02776645 0.01474109 0.03054933
v -0.02517560 0.01546575 0.02981502
v -0.02221833 0.01632917 0.02869759
v -0.00960827 0.02086214 0.01980604
v -0.01111467 0.02022999 0.02129063
v -0.01376844 0.01910446 0.02395649
v -0.01296528 0.01863677 0.02684585
v -0.01296528 0.01823075 0.02869759
v -0.01666650 -0.02792121 0.08051438
v -0.01481589 -0.02784412 0.07681090
v -0.01296528 -0.02759742 0.07125568
v -0.00740975 -0.02422597 0.02499411
v -0.01211400 -0.02530524 0.04428573
v -0.00645114 -0.02343450 0.01486541
v -0.00614023 -0.02338824 0.01388367
v -0.00881251 -0.02535664 0.03979206
v -0.00555914 -0.02290000 0.00833643
v -0.00440066 -0.02269956 0.00463295
v -0.00740605 -0.02332657 0.01558376
v -0.00991548 -0.02338824 0.02087558
v -0.01296528 -0.02677512 0.06200496
v -0.01111467 -0.02587058 0.04905076
v -0.02917662 0.00812152 0.05967432
v -0.03147138 0.00673388 0.06385670
v -0.03244850 0.00988948 0.04821269
v -0.03583141 0.00420529 0.06974715
v -0.03210798 0.01164202 0.04034280
v -0.03251142 0.01177565 0.03911362
v -0.03432872 0.00806499 0.05388763
v -0.03632367 0.00262235 0.07495916
v -0.03032400 0.01167800 0.04236215
v -0.03087548 0.01181162 0.04112500
v -0.03052756 0.01356930 0.03330299
v -0.03147138 0.01233070 0.03794830
v -0.02962077 0.00873825 0.05644974
v -0.02871397 0.01357958 0.03519464
v -0.03794110 0.00061283 0.07771282
v -0.03773383 0.00045351 0.07866264
v -0.03680853 0.00108566 0.07866264
v -0.03643471 0.00082355 0.08012328
v -0.03560563 0.00112678 0.08051438
v -0.00440066 0.02329822 0.01096239
v -0.00740975 0.02237312 0.01388367
v -0.01236938 0.02106771 0.01388367
v -0.01934618 0.01910446 0.01573541
v -0.02036772 0.01865733 0.01758715
v -0.00440066 0.02331364 0.01018817
v -0.00541109 0.02304125 0.01018817
v -0.00740975 0.02247077 0.01203193
v -0.01481589 0.02040473 0.01388367
v -0.02221833 0.01790697 0.01943889
v -0.02311772 0.01726968 0.02217659
v -0.02036772 0.01838494 0.01943889
v -0.01840237 0.01887832 0.01935907
v -0.02036772 0.01808685 0.02129063
v -0.02187041 0.01741873 0.02314237
v -0.02962077 0.01426826 0.03054933
v -0.02279572 0.01719259 0.02314237
v -0.02342492 0.01736733 0.02093943
v -0.02710764 0.01550686 0.02684585
v -0.02776645 0.01437619 0.03239309
v -0.02591584 0.01476679 0.03239309
v -0.02036772 0.01671463 0.02869759
v -0.01851711 0.01668893 0.03054933
v -0.01836166 0.01553256 0.03596886
v -0.01836166 0.01513169 0.03779665
v -0.01851711 -0.02764882 0.08051438
v -0.01974591 -0.02719141 0.07718603
v -0.01939800 -0.02713488 0.07595686
v -0.01907229 -0.02709376 0.07495916
v -0.01296528 -0.02594767 0.05274626
v -0.00926036 -0.02496604 0.03609656
v -0.01172537 -0.02524871 0.04304857
v -0.00835356 -0.02344477 0.01847311
v -0.00801675 -0.02338310 0.01724394
v -0.01407565 -0.02532580 0.04778168
v -0.01296528 -0.02473477 0.03979206
v -0.01008943 -0.02527955 0.04086958
v -0.00555914 -0.02267900 0.00648469
v -0.00440066 -0.02247342 0.00278121
v -0.01210290 -0.02346019 0.02576833
v -0.01851711 -0.02462170 0.04905076
v -0.02036772 -0.02464226 0.05274626
v -0.02221833 -0.02466282 0.05644974
v -0.03044244 -0.02527441 0.07792833
v -0.03205246 -0.02522301 0.08051438
v -0.03610900 0.00432349 0.06851798
v -0.03669379 0.00289474 0.07310742
v -0.03147138 0.01271616 0.03609656
v -0.03147138 0.01308620 0.03424483
v -0.03277790 0.01189385 0.03794830
v -0.03337010 0.01201720 0.03593693
v -0.03429540 0.00989976 0.04455710
v -0.02962077 0.01278811 0.03794830
v -0.02944681 0.01326094 0.03592895
v -0.03008342 0.01347166 0.03424483
v -0.02915811 0.01368237 0.03424483
v -0.03084217 0.01367723 0.03206584
v -0.03146397 0.01338429 0.03256868
v -0.02608980 0.01348193 0.03809996
v -0.03761910 0.00217522 0.07310742
v -0.03783377 0.00236024 0.07171063
v -0.03810766 0.00078244 0.07648365
v -0.03860362 -0.00047158 0.07866264
v -0.03827421 -0.00087760 0.08051438
v -0.03708612 0.00016057 0.08051438
v -0.03688626 0.00031475 0.08051438
v -0.02036772 0.01879095 0.01573541
v -0.02221833 0.01811255 0.01758715
v -0.01666650 0.01989079 0.01388367
v -0.01843938 0.01938198 0.01388367
v -0.01936839 0.01910446 0.01388367
v -0.00644373 0.02282025 0.00463295
v -0.00544811 0.02305153 0.00833643
v -0.00440066 0.02333420 0.00648469
v -0.00648815 0.02283053 0.00195112
v -0.00646964 0.02282539 0.00318029
v -0.01111467 0.02148914 0.01018817
v -0.00926036 0.02196711 0.01203193
v -0.01244711 0.02109341 0.01203193
v -0.02368401 0.01746498 0.01943889
v -0.02962077 0.01452010 0.02869759
v -0.02591584 0.01633431 0.02314237
v -0.02803294 0.01523448 0.02684585
v -0.02041954 -0.02733017 0.08051438
v -0.02101543 -0.02709890 0.07866264
v -0.02009013 -0.02725308 0.07866264
v -0.02036402 -0.02704237 0.07666723
v -0.01945722 -0.02529496 0.05735166
v -0.02161133 -0.02535664 0.06200496
v -0.02036772 -0.02687790 0.07495916
v -0.02036772 -0.02651814 0.07125568
v -0.01682935 -0.02549026 0.05445433
v -0.02406523 -0.02639480 0.07681090
v -0.01850601 -0.02539775 0.05661736
v -0.00555914 -0.02243745 0.00463295
v -0.01396461 -0.02346019 0.02946382
v -0.00555914 -0.02218048 0.00278121
v -0.00669171 -0.02165112 0.00173562
v -0.00440066 -0.02233980 0.00230231
v -0.02478697 -0.02525385 0.06701743
v -0.02922473 -0.02539775 0.07681090
v -0.02974290 -0.02547998 0.07859080
v -0.03111976 -0.02540289 0.08051438
v -0.03332199 -0.02491465 0.08051438
v -0.03147138 -0.02491979 0.07681090
v -0.03624595 0.00441600 0.06756018
v -0.03713794 0.00300266 0.07115990
v -0.03425839 0.01172939 0.03521859
v -0.03605718 0.00614799 0.05911561
v -0.03332199 0.01234098 0.03424483
v -0.03402151 0.01160605 0.03645574
v -0.03110125 0.01379544 0.03054933
v -0.03202656 0.01343054 0.03054933
v -0.03742663 0.00388664 0.06570844
v -0.03797441 0.00249900 0.07047348
v -0.03846668 0.00125012 0.07310742
v -0.03828902 0.00099315 0.07495916
v -0.03871096 -0.00012724 0.07698649
v -0.03952893 -0.00165879 0.07866264
v -0.03922543 -0.00219843 0.08051438
v -0.03993606 -0.00284599 0.07989181
v -0.02221833 0.01816394 0.01573541
v -0.02382466 0.01754721 0.01758715
v -0.02460931 0.01714120 0.01943889
v -0.01337241 0.02083644 0.01203193
v -0.01481589 0.02043043 0.01203193
v -0.01340943 0.02084158 0.01018817
v -0.01248782 0.02110883 0.00833643
v -0.01666650 0.01989593 0.01203193
v -0.01341313 0.02083644 0.00833643
v -0.01242490 0.02110883 0.00648469
v -0.01335021 0.02079018 0.00648469
v -0.01922034 0.01904278 0.01203193
v -0.02036772 0.01874470 0.01388367
v -0.00641042 0.02280998 0.00648469
v -0.00440066 0.02331364 0.00463295
v -0.00648815 0.02283053 0.00185534
v -0.01111467 0.02150456 0.00648469
v -0.01111467 0.02149942 0.00833643
v -0.01248412 0.02110369 0.01018817
v -0.02837715 0.01531670 0.02499411
v -0.02745185 0.01563535 0.02499411
v -0.02962077 0.01469484 0.02684585
v -0.02201846 -0.02704751 0.08051438
v -0.02123750 -0.02713488 0.07974016
v -0.02221833 -0.02688818 0.07866264
v -0.02221833 -0.02672886 0.07681090
v -0.02406523 -0.02601962 0.07310742
v -0.02221833 -0.02654898 0.07495916
v -0.02406523 -0.02655412 0.07866264
v -0.02591584 -0.02621492 0.07866264
v -0.02591584 -0.02604018 0.07681090
v -0.01784719 -0.02351673 0.03794830
v -0.01578931 -0.02345505 0.03322318
v -0.01111467 -0.02263275 0.01758715
v -0.03332199 -0.02467823 0.07866264
v -0.03147138 -0.02444696 0.07310742
v -0.00753189 -0.02185669 0.00457708
v -0.00823142 -0.02155861 0.00392259
v -0.00702482 -0.02174877 0.00278121
v -0.00926036 -0.02239633 0.01203193
v -0.00740975 -0.02215992 0.00648469
v -0.01216952 -0.01981121 0.00172764
v -0.01111467 -0.02002706 0.00146424
v -0.00555914 -0.02182072 0.00150415
v -0.00926036 -0.02108064 0.00278121
v -0.01111467 -0.02047419 0.00278121
v -0.00440066 -0.02197490 0.00135250
v -0.02962077 -0.02568042 0.08051438
v -0.03517259 -0.02439043 0.08051438
v -0.03650133 0.00459074 0.06570844
v -0.03623484 0.00626619 0.05787845
v -0.03332199 0.01258768 0.03239309
v -0.03434722 0.01179621 0.03424483
v -0.03616082 0.00993060 0.03739757
v -0.03604608 0.00982781 0.03863473
v -0.03616452 0.00807013 0.04841223
v -0.03600167 0.00796220 0.04964939
v -0.03126781 0.01389823 0.02869759
v -0.03219311 0.01347679 0.02869759
v -0.03332199 0.01272644 0.03054933
v -0.03672710 0.00477062 0.06385670
v -0.03765241 0.00406138 0.06385670
v -0.03807065 0.00260179 0.06941192
v -0.03849258 0.00166128 0.07115990
v -0.03782266 0.00420529 0.06234817
v -0.03795591 0.00432349 0.06111900
v -0.03939198 -0.00005529 0.07310742
v -0.03932166 -0.00043047 0.07507888
v -0.03970658 -0.00139668 0.07681090
v -0.04006930 -0.00258388 0.07866264
v -0.04021735 -0.00399208 0.08051438
v -0.04070592 -0.00400750 0.07866264
v -0.02221833 0.01802004 0.01388367
v -0.02376544 0.01755235 0.01573541
v -0.02474996 0.01717718 0.01758715
v -0.02591584 0.01662212 0.01943889
v -0.02855481 0.01536810 0.02314237
v -0.02762951 0.01573300 0.02314237
v -0.01111467 0.02145831 0.00463295
v -0.00926036 0.02199281 0.00278121
v -0.01225465 0.02106257 0.00463295
v -0.01806556 0.01932031 0.01018817
v -0.00440066 0.02326224 0.00273332
v -0.00555914 0.02292304 0.00167975
v -0.00926036 0.02146859 0.00128066
v -0.01067793 0.02118592 0.00153608
v -0.01191413 0.02091867 0.00225442
v -0.02962077 0.01481304 0.02499411
v -0.02591584 -0.02635368 0.08051438
v -0.02776645 -0.02601962 0.08051438
v -0.01111467 -0.02211367 0.01388367
v -0.02190743 -0.02362465 0.04719902
v -0.01973481 -0.02352701 0.04196307
v -0.03332199 -0.02442126 0.07681090
v -0.02308441 -0.02342422 0.04824462
v -0.00976743 -0.02146610 0.00648469
v -0.01111467 -0.02106009 0.00648469
v -0.01243231 -0.01993969 0.00278121
v -0.01335761 -0.01943603 0.00278121
v -0.01604840 -0.01805867 0.00320424
v -0.01567087 -0.01784281 0.00197507
v -0.01792491 -0.01623931 0.00158397
v -0.01443837 -0.01821799 0.00148021
v -0.01285795 -0.01882444 0.00128066
v -0.01111467 -0.01881416 0.00077782
v -0.00926036 -0.02034057 0.00121681
v -0.01111467 -0.02078256 0.00463295
v -0.01944241 -0.02158944 0.02777172
v -0.02121530 -0.02156375 0.03161887
v -0.00440066 -0.02154319 0.00109709
v -0.03525402 -0.02436473 0.08051438
v -0.03517259 -0.02412318 0.07866264
v -0.03332199 -0.02389190 0.07310742
v -0.03641250 0.00639468 0.05644974
v -0.03447306 0.01189899 0.03239309
v -0.03623114 0.01000769 0.03609656
v -0.03779305 0.00779774 0.03979206
v -0.03768572 0.00768981 0.04164380
v -0.03805954 0.00629703 0.04905076
v -0.03798922 0.00620966 0.05024801
v -0.03788929 0.00611201 0.05148516
v -0.03629776 0.00817292 0.04719902
v -0.03775974 0.00599380 0.05274626
v -0.03134183 0.01396504 0.02684585
v -0.03226714 0.01350249 0.02684585
v -0.03451007 0.01194525 0.03054933
v -0.03822610 0.00278167 0.06756018
v -0.03885160 0.00154307 0.06941192
v -0.03818168 0.00456505 0.05830148
v -0.03837045 0.00295641 0.06570844
v -0.03978431 -0.00126305 0.07577329
v -0.03953263 0.00013487 0.07125568
v -0.04018404 -0.00232177 0.07681090
v -0.04083176 -0.00585769 0.08051438
v -0.04088728 -0.00400750 0.07681090
v -0.04169414 -0.00665430 0.07795227
v -0.04136473 -0.00596562 0.07860677
v -0.01899086 0.01892972 0.01018817
v -0.02350635 0.01744956 0.01388367
v -0.02469074 0.01713606 0.01573541
v -0.02591584 0.01664268 0.01758715
v -0.02769613 0.01582551 0.01943889
v -0.02862144 0.01539380 0.02129063
v -0.01122201 0.02127843 0.00283708
v -0.01210660 0.02100604 0.00349158
v -0.00440066 0.02302583 0.00152011
v -0.00555914 0.02190544 0.00099333
v -0.00926036 0.02005011 0.00060223
v -0.01296528 0.01971605 0.00128066
v -0.01426811 0.01935629 0.00154406
v -0.01550432 0.01897597 0.00232626
v -0.01485660 0.01951561 0.00287699
v -0.01606690 0.01929975 0.00463295
v -0.01760291 0.01913529 0.00737864
v -0.01776946 0.01920724 0.00833643
v -0.02102653 -0.02336254 0.04349554
v -0.03147138 -0.02392274 0.06941192
v -0.02644142 -0.02332143 0.05459800
v -0.01425701 -0.02170251 0.01758715
v -0.01187342 -0.02154319 0.01144927
v -0.01216952 -0.02163056 0.01268643
v -0.01285795 -0.02133247 0.01205587
v -0.01551542 -0.02152263 0.01899192
v -0.01412376 -0.01986260 0.00648469
v -0.01392019 -0.01975467 0.00548699
v -0.01366481 -0.01962105 0.00424983
v -0.01640001 -0.01824368 0.00463295
v -0.02323986 -0.02163570 0.03679097
v -0.02498314 -0.02158431 0.04073390
v -0.01732532 -0.01773488 0.00463295
v -0.01953124 -0.01609541 0.00354745
v -0.01666280 -0.01750361 0.00266149
v -0.01851711 -0.01705134 0.00463295
v -0.01982734 -0.01628043 0.00463295
v -0.01853191 -0.01645517 0.00286901
v -0.01916112 -0.01584358 0.00231029
v -0.01990877 -0.01461012 0.00145626
v -0.01853191 -0.01518059 0.00117690
v -0.01666650 -0.01661963 0.00130461
v -0.00555914 -0.02066435 0.00081773
v -0.01666650 -0.01510864 0.00062617
v -0.01296528 -0.01696397 0.00054635
v -0.00740975 -0.01510864 -0.00089035
v -0.00926036 -0.01881416 0.00053039
v -0.03217831 -0.02337282 0.06708926
v -0.03427320 -0.02345505 0.07211769
v -0.03628666 -0.02353214 0.07728181
v -0.00440066 -0.02066435 0.00066608
v -0.03707132 -0.02372230 0.08051438
v -0.03656055 -0.02364007 0.07866264
v -0.02585292 -0.02322378 0.05267443
v -0.02969479 -0.02367091 0.06390459
v -0.03539837 0.01105099 0.03239309
v -0.03629406 0.01008478 0.03424483
v -0.03832233 0.00675958 0.04164380
v -0.03829272 0.00665679 0.04349554
v -0.03823720 0.00654886 0.04534728
v -0.03815577 0.00642038 0.04719902
v -0.03784857 0.00785427 0.03794830
v -0.03852219 0.00539763 0.05087856
v -0.03855551 0.00506871 0.05274626
v -0.03844817 0.00489397 0.05459800
v -0.03831863 0.00472951 0.05644974
v -0.02962077 0.01487472 0.02314237
v -0.03223753 0.01347679 0.02499411
v -0.03332199 0.01273672 0.02684585
v -0.03448787 0.01193497 0.02869759
v -0.02862144 0.01538866 0.01943889
v -0.03543908 0.01104071 0.03054933
v -0.03965477 0.00034045 0.06941192
v -0.03929575 0.00164586 0.06570844
v -0.03924393 0.00136833 0.06742449
v -0.03849999 0.00313629 0.06385670
v -0.03985833 -0.00112943 0.07453613
v -0.04020625 -0.00199285 0.07507888
v -0.04113526 -0.00770788 0.08051438
v -0.04158310 -0.00770788 0.07928521
v -0.04164972 -0.00865353 0.07958053
v -0.04045423 -0.00215731 0.07310742
v -0.04043572 -0.00030712 0.06385670
v -0.04102422 -0.00400750 0.07495916
v -0.04142765 -0.00558530 0.07681090
v -0.04179407 -0.00770788 0.07835933
v -0.04173855 -0.00651040 0.07681090
v -0.04195693 -0.00770788 0.07681090
v -0.02327318 0.01734164 0.01268643
v -0.02443166 0.01697674 0.01388367
v -0.02591584 0.01650391 0.01573541
v -0.02758880 0.01581523 0.01758715
v -0.00440066 0.02190544 0.00084167
v -0.01296528 0.01819992 0.00060223
v -0.00440066 0.01634973 -0.00085043
v -0.00555914 0.01634973 -0.00073869
v -0.00926036 0.01449954 -0.00078658
v -0.01485660 0.01829757 0.00113700
v -0.01764362 0.01731594 0.00179149
v -0.01666650 0.01765514 0.00148819
v -0.01581522 0.01917127 0.00355543
v -0.01793232 0.01751124 0.00278121
v -0.01956825 0.01736219 0.00533533
v -0.02113757 0.01717203 0.00771386
v -0.02145588 0.01737247 0.00895102
v -0.01733642 0.01898625 0.00614946
v -0.01619274 -0.01998081 0.01203193
v -0.01851711 -0.01874735 0.01203193
v -0.01780277 -0.01800213 0.00689176
v -0.01845789 -0.01753445 0.00635698
v -0.02892864 -0.02171279 0.05089452
v -0.02043804 -0.01646031 0.00658047
v -0.02110056 -0.01590011 0.00602175
v -0.02075264 -0.01562258 0.00463295
v -0.02114127 -0.01403450 0.00210277
v -0.02189632 -0.01469749 0.00463295
v -0.02151139 -0.01438912 0.00333992
v -0.02174827 -0.01280104 0.00146424
v -0.02046395 -0.01335096 0.00110507
v -0.01851711 -0.01325845 0.00053039
v -0.01111467 -0.01325845 -0.00075466
v -0.00926036 -0.01325845 -0.00100209
v -0.00555914 -0.01510864 -0.00101007
v -0.00440066 -0.01627015 -0.00081851
v -0.00440066 -0.01698967 -0.00060300
v -0.03720456 -0.02366577 0.08051438
v -0.03775974 -0.02334713 0.08005144
v -0.03748585 -0.02319808 0.07866264
v -0.03348114 -0.02209825 0.06373698
v -0.03630887 0.01012590 0.03239309
v -0.03834084 0.00687264 0.03979206
v -0.03956224 0.00379927 0.05089452
v -0.03879609 0.00524345 0.04905076
v -0.03712684 0.00894897 0.03424483
v -0.03786338 0.00785427 0.03609656
v -0.03948081 0.00372732 0.05274626
v -0.03937348 0.00360911 0.05459800
v -0.03905887 0.00339326 0.05830148
v -0.03881459 0.00339326 0.06015322
v -0.03122339 0.01400101 0.02314237
v -0.03110125 0.01397018 0.02129063
v -0.03214870 0.01338429 0.02314237
v -0.03441384 0.01188358 0.02684585
v -0.03541317 0.01094306 0.02869759
v -0.02851410 0.01531670 0.01758715
v -0.02962077 0.01476679 0.01943889
v -0.03628296 0.01011562 0.03054933
v -0.03942529 0.00182060 0.06385670
v -0.03954743 0.00200562 0.06200496
v -0.03973989 0.00049977 0.06795128
v -0.03993236 -0.00098038 0.07310742
v -0.03980652 0.00063339 0.06671413
v -0.04002489 -0.00079023 0.07125568
v -0.04010632 -0.00058465 0.06941192
v -0.04133142 -0.00929596 0.08051438
v -0.04190511 -0.00938333 0.07884622
v -0.04171264 -0.00988699 0.07973218
v -0.04134252 -0.00939361 0.08051438
v -0.04011002 -0.00019405 0.06742449
v -0.04029508 -0.00030712 0.06570844
v -0.04056157 -0.00030712 0.06200496
v -0.04009151 0.00126554 0.06015322
v -0.04113896 -0.00400750 0.07310742
v -0.04085026 -0.00215731 0.06756018
v -0.04217530 -0.00955807 0.07681090
v -0.04159050 -0.00525638 0.07125568
v -0.04175706 -0.00639733 0.07495916
v -0.04095390 -0.00215731 0.06570844
v -0.04066150 -0.00030712 0.06015322
v -0.04072072 -0.00030712 0.05830148
v -0.04197173 -0.00770788 0.07495916
v -0.04160901 -0.00520498 0.06941192
v -0.02299188 0.01718745 0.01144927
v -0.02705212 0.01556854 0.01440248
v -0.02732971 0.01572272 0.01573541
v -0.01851711 0.01449954 0.00069801
v -0.01666650 0.01634973 0.00080177
v -0.00440066 0.01449954 -0.00101007
v -0.00555914 0.01449954 -0.00101007
v -0.00740975 0.01449954 -0.00099410
v -0.01111467 0.01264935 -0.00086640
v -0.01922404 0.01711036 0.00409818
v -0.01836536 0.01625208 0.00144030
v -0.01959786 0.01556854 0.00167975
v -0.01995688 0.01587176 0.00278121
v -0.02319175 0.01546575 0.00733075
v -0.02514599 0.01554284 0.01084267
v -0.02673381 0.01533726 0.01317330
v -0.01765843 -0.01977523 0.01464991
v -0.02985394 -0.02122455 0.05089452
v -0.02054908 -0.01843898 0.01555982
v -0.01902418 -0.01766807 0.00833643
v -0.02109316 -0.01778114 0.01388367
v -0.02071193 -0.01757556 0.01203193
v -0.02024558 -0.01742138 0.01022010
v -0.02036772 -0.01691772 0.00833643
v -0.03072003 -0.02168195 0.05510084
v -0.02156691 -0.01621361 0.00833643
v -0.02135224 -0.01607999 0.00725891
v -0.02249222 -0.01558661 0.00833643
v -0.02376174 -0.01466151 0.00833643
v -0.02342122 -0.01441996 0.00685185
v -0.02311402 -0.01415271 0.00561469
v -0.02282163 -0.01385976 0.00463295
v -0.02224794 -0.01328929 0.00273332
v -0.02298078 -0.01216889 0.00212672
v -0.02355077 -0.01093543 0.00146424
v -0.02230716 -0.01149563 0.00111305
v -0.02221833 -0.00955807 0.00053837
v -0.02036772 -0.01140826 0.00053039
v -0.01296528 -0.01140826 -0.00077860
v -0.01481589 -0.00585769 -0.00101007
v -0.01481589 -0.00770788 -0.00092227
v -0.00440066 -0.01510864 -0.00101007
v -0.03855921 -0.02292055 0.08051438
v -0.03872946 -0.02281263 0.08051438
v -0.03901816 -0.02220103 0.07859080
v -0.03861843 -0.02206227 0.07681090
v -0.03830012 -0.02184128 0.07495916
v -0.03807805 -0.02168195 0.07365815
v -0.03636809 -0.02175905 0.06941192
v -0.03420287 -0.02156375 0.06303459
v -0.03245960 -0.02162542 0.05906772
v -0.03903667 0.00524345 0.04349554
v -0.03961035 0.00380955 0.04905076
v -0.03832603 0.00692918 0.03794830
v -0.03995087 0.00280223 0.05274626
v -0.03991015 0.00268402 0.05459800
v -0.03785597 0.00780288 0.03424483
v -0.03708612 0.00894897 0.03239309
v -0.03985093 0.00256581 0.05612249
v -0.03979911 0.00246302 0.05735965
v -0.03975100 0.00237052 0.05830148
v -0.03965477 0.00219064 0.06015322
v -0.03091249 0.01387767 0.01943889
v -0.03432501 0.01180135 0.02551292
v -0.03202656 0.01323524 0.02129063
v -0.03620523 0.01001797 0.02869759
v -0.03071262 0.01372863 0.01801017
v -0.02825501 0.01509571 0.01573541
v -0.03697879 0.00894897 0.03054933
v -0.03994346 0.00089550 0.06385670
v -0.04208277 -0.01140826 0.07866264
v -0.04178297 -0.01140826 0.07990777
v -0.04153128 -0.01140826 0.08051438
v -0.04002119 0.00108052 0.06200496
v -0.04014703 0.00144542 0.05830148
v -0.04221231 -0.01140826 0.07681090
v -0.04196063 -0.00770788 0.07310742
v -0.04193842 -0.00770788 0.07125568
v -0.04213829 -0.00955807 0.07495916
v -0.04106494 -0.00215731 0.06200496
v -0.04013963 0.00172295 0.05662534
v -0.04030988 0.00154307 0.05459800
v -0.04033949 0.00154307 0.05274626
v -0.04074293 -0.00030712 0.05644974
v -0.04174596 -0.00613008 0.06941192
v -0.04173855 -0.00615578 0.06756018
v -0.04108714 -0.00215731 0.06015322
v -0.04140544 -0.00400750 0.06385670
v -0.04160531 -0.00523068 0.06756018
v -0.02899896 0.01386739 0.01424284
v -0.02036772 0.01264935 0.00068204
v -0.02027519 0.01441731 0.00136048
v -0.01296528 0.00894897 -0.00101007
v -0.01296528 0.01079916 -0.00087438
v -0.02146328 0.01374918 0.00165580
v -0.02088219 0.01503404 0.00278121
v -0.02120789 0.01534240 0.00385075
v -0.02281422 0.01511627 0.00609359
v -0.02866585 0.01354361 0.01301367
v -0.02478697 0.01524475 0.00961349
v -0.02641181 0.01504946 0.01203193
v -0.02185561 -0.01818715 0.01758715
v -0.02302889 -0.01782225 0.01879238
v -0.02192593 -0.01643975 0.01018817
v -0.02278091 -0.01768349 0.01758715
v -0.02500164 -0.01789421 0.02404429
v -0.02573819 -0.01726720 0.02330998
v -0.02357297 -0.01632154 0.01388367
v -0.02331019 -0.01615194 0.01252679
v -0.02870656 -0.01604401 0.02588805
v -0.02542728 -0.01452275 0.01203193
v -0.02420958 -0.01485167 0.01010037
v -0.02516450 -0.01432231 0.01066707
v -0.03238187 -0.01602860 0.03521060
v -0.02615272 -0.01556091 0.01758715
v -0.02492022 -0.01412187 0.00942991
v -0.02468704 -0.01385462 0.00833643
v -0.02519041 -0.01257491 0.00700350
v -0.02488691 -0.01221001 0.00577432
v -0.02459451 -0.01187081 0.00463295
v -0.02366921 -0.01292953 0.00463295
v -0.02333610 -0.01254407 0.00335589
v -0.02702991 -0.01253893 0.01072294
v -0.02406153 -0.01138770 0.00281314
v -0.02478697 -0.01013369 0.00226240
v -0.02412816 -0.00953237 0.00123277
v -0.02512749 -0.00890023 0.00166378
v -0.02406523 -0.00770788 0.00071397
v -0.02406523 -0.00585769 0.00051442
v -0.01666650 -0.00215731 -0.00090631
v -0.01666650 -0.00030712 -0.00094622
v -0.01481589 0.00524345 -0.00101007
v -0.03999528 -0.02187725 0.08051438
v -0.03991755 -0.02169223 0.07916548
v -0.03973249 -0.02152777 0.07792833
v -0.03785968 -0.02152777 0.07242898
v -0.03616082 -0.02163056 0.06831843
v -0.03786338 -0.01967244 0.06502202
v -0.03620153 -0.01796616 0.05336883
v -0.03432872 -0.01609541 0.04048647
v -0.03619783 -0.01980607 0.06079175
v -0.03904407 0.00524345 0.04164380
v -0.03962516 0.00376844 0.04719902
v -0.03995827 0.00287418 0.05089452
v -0.03828902 0.00692918 0.03609656
v -0.03903667 0.00524345 0.03979206
v -0.03822980 0.00687778 0.03424483
v -0.03780046 0.00763842 0.03239309
v -0.03420657 0.01167800 0.02428374
v -0.03490240 0.01095334 0.02493824
v -0.03604978 0.00979183 0.02627915
v -0.03546499 0.01063984 0.02687777
v -0.03183779 0.01296799 0.01943889
v -0.03293706 0.01231015 0.02129063
v -0.03613121 0.00992032 0.02750832
v -0.03680113 0.00894897 0.02869759
v -0.03050536 0.01352819 0.01677302
v -0.02935428 0.01417062 0.01573541
v -0.04204946 -0.01325845 0.07866264
v -0.04177557 -0.01510864 0.08008337
v -0.04180888 -0.01325845 0.08007539
v -0.04165713 -0.01325845 0.08051438
v -0.04209017 -0.00955807 0.07310742
v -0.04203095 -0.00955807 0.07125568
v -0.04213459 -0.01140826 0.07495916
v -0.04208277 -0.01325845 0.07681090
v -0.04194212 -0.01510864 0.07866264
v -0.04172005 -0.00621745 0.06570844
v -0.04190141 -0.00770788 0.06941192
v -0.04185699 -0.00770788 0.06756018
v -0.04073553 -0.00030712 0.05459800
v -0.03994346 0.00288446 0.04905076
v -0.04032099 0.00154307 0.05089452
v -0.04160531 -0.00529235 0.06570844
v -0.04160161 -0.00546196 0.06385670
v -0.04106864 -0.00215731 0.05830148
v -0.04139064 -0.00400750 0.06200496
v -0.03027958 0.01324552 0.01573541
v -0.02221833 0.00894897 0.00049846
v -0.02221833 0.01079916 0.00075388
v -0.02213690 0.01253114 0.00139241
v -0.01481589 0.00709364 -0.00097015
v -0.02323986 0.01183218 0.00173562
v -0.02276241 0.01314273 0.00278121
v -0.02308071 0.01350763 0.00381084
v -0.02183710 0.01410380 0.00278121
v -0.02233307 0.01461261 0.00444139
v -0.02345453 0.01388281 0.00504001
v -0.02879539 0.01185788 0.01093046
v -0.02911000 0.01226389 0.01203193
v -0.02968739 0.01274700 0.01375596
v -0.02506827 0.01364639 0.00728286
v -0.02667830 0.01339970 0.00952569
v -0.02684855 0.01172939 0.00740258
v -0.02611201 -0.01744194 0.02499411
v -0.03278901 -0.01998081 0.05274626
v -0.03425469 -0.01974439 0.05550791
v -0.02962077 -0.01706162 0.03239309
v -0.03066451 -0.01611597 0.03116391
v -0.02604169 -0.01657851 0.02125072
v -0.03135664 -0.01546326 0.03054933
v -0.02908779 -0.01449191 0.02129063
v -0.02883981 -0.01430175 0.01999760
v -0.02688186 -0.01421952 0.01471376
v -0.03383275 -0.01575621 0.03794830
v -0.03326647 -0.01560202 0.03593693
v -0.03409184 -0.01593609 0.03926527
v -0.02966888 -0.01286272 0.01775476
v -0.02908779 -0.01267770 0.01573541
v -0.02883240 -0.01246184 0.01450624
v -0.02855852 -0.01218431 0.01326908
v -0.02591214 -0.01140312 0.00649267
v -0.02537547 -0.01094571 0.00463295
v -0.02826982 -0.01183483 0.01203193
v -0.03062009 -0.01057568 0.01465789
v -0.02905078 -0.01090974 0.01203193
v -0.02509417 -0.01060651 0.00349956
v -0.03245220 -0.01054484 0.01839329
v -0.02670791 -0.00835545 0.00394653
v -0.03050536 -0.00857130 0.01118588
v -0.02862884 -0.00850449 0.00753029
v -0.02540878 -0.00770788 0.00140039
v -0.02635629 -0.00772330 0.00279717
v -0.02667089 -0.00585769 0.00215066
v -0.02574559 -0.00585769 0.00120085
v -0.02591584 -0.00215731 0.00087360
v -0.02406523 -0.00400750 0.00049048
v -0.01666650 0.00154307 -0.00092227
v -0.02406523 0.00339326 0.00049048
v -0.02406523 0.00524345 0.00049846
v -0.04005080 -0.02183100 0.08051438
v -0.04036910 -0.02081339 0.07859080
v -0.04013223 -0.02018125 0.07495916
v -0.03995827 -0.01993969 0.07310742
v -0.03984723 -0.01979579 0.07197402
v -0.03802993 -0.01797130 0.05890808
v -0.03806695 -0.01983176 0.06625917
v -0.03617932 -0.01610569 0.04598581
v -0.03596835 -0.01965703 0.05956258
v -0.03527993 -0.02022750 0.06016918
v -0.03517259 -0.02073116 0.06200496
v -0.03598316 -0.01594123 0.04475664
v -0.03332199 -0.01699995 0.04164380
v -0.03405853 -0.01777086 0.04675205
v -0.03472845 -0.01457414 0.03609656
v -0.03962886 0.00368621 0.04534728
v -0.03897745 0.00524345 0.03794830
v -0.03961775 0.00353202 0.04349554
v -0.03887011 0.00524345 0.03609656
v -0.03814837 0.00670818 0.03239309
v -0.03771903 0.00739686 0.03054933
v -0.03408443 0.01152382 0.02314237
v -0.03480247 0.01059872 0.02314237
v -0.03593504 0.00959653 0.02499411
v -0.03643471 0.00867144 0.02499411
v -0.03649763 0.00908259 0.02687777
v -0.03266317 0.01204290 0.01943889
v -0.03386236 0.01121031 0.02129063
v -0.03738592 0.00709364 0.02684585
v -0.03247441 0.01182190 0.01832146
v -0.03099762 0.01232043 0.01573541
v -0.04168674 -0.01801241 0.07974814
v -0.04173115 -0.01696397 0.07993970
v -0.04159791 -0.01696397 0.08051438
v -0.04166453 -0.01510864 0.08051438
v -0.04180147 -0.00770788 0.06570844
v -0.04173485 -0.00770788 0.06385670
v -0.04195322 -0.00955807 0.06941192
v -0.04204946 -0.01140826 0.07310742
v -0.04179037 -0.00955807 0.06570844
v -0.04193842 -0.01510864 0.07681090
v -0.04176816 -0.01708732 0.07859080
v -0.04168674 -0.00638705 0.06385670
v -0.04166453 -0.00659777 0.06271533
v -0.04069111 -0.00030712 0.05274626
v -0.03991015 0.00284334 0.04719902
v -0.03987684 0.00276111 0.04534728
v -0.04026177 0.00154307 0.04905076
v -0.04134252 -0.00400750 0.06015322
v -0.04158680 -0.00593478 0.06206083
v -0.04102422 -0.00215731 0.05644974
v -0.03070522 0.01195039 0.01450624
v -0.02406523 0.00709364 0.00062617
v -0.02420958 0.00905690 0.00114498
v -0.02362479 0.01079916 0.00143232
v -0.01666650 0.00339326 -0.00084245
v -0.02492392 0.00974558 0.00196708
v -0.02455380 0.01087111 0.00266149
v -0.02485359 0.01153923 0.00392259
v -0.02523482 0.01201206 0.00515974
v -0.02356927 0.01221764 0.00278121
v -0.02415406 0.01276241 0.00448130
v -0.02469074 0.01324552 0.00605368
v -0.03006121 0.01082486 0.01198404
v -0.03037951 0.01146214 0.01326908
v -0.02843637 0.01132338 0.00970129
v -0.02687816 0.00993060 0.00549497
v -0.02912850 0.01074262 0.01026001
v -0.02528664 0.01030577 0.00319626
v -0.03213759 -0.01772974 0.04164380
v -0.03349224 -0.01491848 0.03409317
v -0.03445826 -0.01435829 0.03460400
v -0.03251142 -0.01427606 0.02932814
v -0.03422508 -0.01416813 0.03337483
v -0.03166384 -0.01356682 0.02499411
v -0.03227454 -0.01223057 0.02252778
v -0.03203026 -0.01202499 0.02129063
v -0.03055717 -0.01234363 0.01848109
v -0.03031659 -0.01211750 0.01724394
v -0.03266687 -0.01076069 0.01943889
v -0.02878059 -0.01058595 0.01093844
v -0.03031659 -0.01020564 0.01342073
v -0.03215610 -0.01019536 0.01716412
v -0.03265576 -0.00896190 0.01612651
v -0.03081256 -0.00897218 0.01242303
v -0.03393268 -0.01008743 0.02129063
v -0.03368470 -0.00950668 0.01935109
v -0.03418437 -0.00851991 0.01867265
v -0.03291855 -0.00956835 0.01769889
v -0.02700400 -0.00712199 0.00342772
v -0.02834384 -0.00781581 0.00641285
v -0.02892864 -0.00726589 0.00698754
v -0.03235226 -0.00857130 0.01489734
v -0.03210428 -0.00816529 0.01388367
v -0.03242629 -0.00683932 0.01290193
v -0.02681154 -0.00481953 0.00190323
v -0.02697809 -0.00358607 0.00166378
v -0.02722608 -0.00585769 0.00307653
v -0.02880279 -0.00523582 0.00538322
v -0.03041283 -0.00439810 0.00763405
v -0.02608240 -0.00412571 0.00119287
v -0.02705952 -0.00215731 0.00156002
v -0.02706322 -0.00030712 0.00156002
v -0.02591584 -0.00030712 0.00087360
v -0.02591584 0.00154307 0.00090553
v -0.02591584 0.00339326 0.00094544
v -0.04070221 -0.02066435 0.08051438
v -0.04111305 -0.01881416 0.07681090
v -0.04082435 -0.01881416 0.07495916
v -0.03982872 -0.01794046 0.06647468
v -0.03792260 -0.01414243 0.04639288
v -0.03792260 -0.01600290 0.05192415
v -0.03609790 -0.01418868 0.03886619
v -0.03591284 -0.01399339 0.03762904
v -0.03939198 0.00339326 0.03794830
v -0.03949561 0.00339326 0.03979206
v -0.03873317 0.00524345 0.03424483
v -0.03805214 0.00647177 0.03054933
v -0.03766351 0.00698057 0.02868162
v -0.03798922 0.00628675 0.02929621
v -0.03572777 0.00923164 0.02314237
v -0.03454339 0.01028522 0.02129063
v -0.03624965 0.00830654 0.02314237
v -0.03711944 0.00709364 0.02499411
v -0.03791149 0.00600408 0.02805906
v -0.03222272 0.01145700 0.01708431
v -0.03286303 0.01082486 0.01765898
v -0.03434722 0.01002311 0.02010136
v -0.04168674 -0.01801241 0.07916548
v -0.04136843 -0.01870109 0.08042658
v -0.04134623 -0.01870623 0.08051438
v -0.04136103 -0.01861886 0.08051438
v -0.04157200 -0.01728775 0.08051438
v -0.04167193 -0.00770788 0.06248386
v -0.04166823 -0.00891564 0.06254771
v -0.04196063 -0.01140826 0.07125568
v -0.04170154 -0.00954265 0.06384872
v -0.04170894 -0.01625987 0.07533429
v -0.04175706 -0.01659393 0.07681090
v -0.04190511 -0.01325845 0.07310742
v -0.04167193 -0.01061165 0.06446330
v -0.04169784 -0.01441482 0.07169467
v -0.04088357 -0.00215731 0.05274626
v -0.04118707 -0.00400750 0.05644974
v -0.04109454 -0.00400750 0.05459800
v -0.04098351 -0.00400750 0.05274626
v -0.04137583 -0.00585769 0.05830148
v -0.04162381 -0.00770788 0.06155799
v -0.04096500 -0.00215731 0.05459800
v -0.04062819 -0.00030712 0.05089452
v -0.03983243 0.00260693 0.04349554
v -0.03980652 0.00249386 0.04247389
v -0.04017664 0.00154307 0.04719902
v -0.04127220 -0.00400750 0.05830148
v -0.03231895 0.00972502 0.01496917
v -0.03197104 0.01082486 0.01564761
v -0.03109385 0.01082486 0.01388367
v -0.02603058 0.00523317 0.00123277
v -0.02554202 0.00709364 0.00130461
v -0.02522742 0.00851212 0.00156002
v -0.02653025 0.00725296 0.00271736
v -0.02566786 0.00905690 0.00266149
v -0.02878059 0.00819861 0.00725891
v -0.02846969 0.00943207 0.00779368
v -0.02882500 0.01008992 0.00903083
v -0.03075704 0.01022868 0.01257468
v -0.03041653 0.00962223 0.01133753
v -0.03565375 -0.01374156 0.03609656
v -0.03421398 -0.01230252 0.02785153
v -0.03167124 -0.01168579 0.01943889
v -0.03413995 -0.01034954 0.02252778
v -0.03440274 -0.00885911 0.01990980
v -0.03479137 -0.00782609 0.01935109
v -0.03576849 -0.00586797 0.01936706
v -0.03449897 -0.00728645 0.01793036
v -0.03423248 -0.00675195 0.01670119
v -0.03267057 -0.00724019 0.01388367
v -0.03050536 -0.00669028 0.00933413
v -0.03121229 -0.00598618 0.01004450
v -0.03077554 -0.00545682 0.00887120
v -0.03333679 -0.00585769 0.01388367
v -0.03263726 -0.00585769 0.01251082
v -0.03213019 -0.00585769 0.01158496
v -0.03453968 -0.00551849 0.01607862
v -0.02743705 -0.00412571 0.00262158
v -0.02841047 -0.00400750 0.00417002
v -0.03056458 -0.00316464 0.00737864
v -0.02914331 -0.00215731 0.00483249
v -0.02856592 -0.00215731 0.00390662
v -0.02785898 -0.00215731 0.00278121
v -0.03235597 -0.00479897 0.01118588
v -0.03254103 -0.00356551 0.01086661
v -0.03093100 -0.00386874 0.00828056
v -0.02995017 -0.00386874 0.00664433
v -0.02897305 -0.00400750 0.00509589
v -0.02787749 -0.00030712 0.00278121
v -0.02700770 0.00339326 0.00162387
v -0.02694108 0.00460616 0.00171167
v -0.04139804 -0.01870109 0.07859080
v -0.04163492 -0.01779142 0.07792833
v -0.04068741 -0.01696397 0.06941192
v -0.03978801 -0.01600804 0.06115891
v -0.03816688 -0.01271367 0.04349554
v -0.03803363 -0.01247726 0.04216261
v -0.03780416 -0.01396255 0.04534728
v -0.03645321 -0.01281646 0.03609656
v -0.03622744 -0.01249782 0.03424483
v -0.03609790 -0.01233336 0.03331895
v -0.03925134 0.00339326 0.03609656
v -0.03959925 0.00154307 0.03794830
v -0.03976950 0.00217522 0.04123674
v -0.03908478 0.00339326 0.03424483
v -0.03855921 0.00524345 0.03239309
v -0.03836674 0.00524345 0.03054933
v -0.03549460 0.00879479 0.02141833
v -0.03612751 0.00807527 0.02212072
v -0.03676782 0.00709364 0.02314237
v -0.03736742 0.00524345 0.02314237
v -0.03813357 0.00533082 0.02868162
v -0.03783377 0.00561863 0.02684585
v -0.03261505 0.01022354 0.01620633
v -0.03411034 0.00963251 0.01886421
v -0.03469884 0.00899008 0.01946283
v -0.04153499 -0.00770788 0.06015322
v -0.04139804 -0.00770788 0.05830148
v -0.04157570 -0.00954265 0.06195707
v -0.04162752 -0.01014910 0.06322615
v -0.04186810 -0.01140826 0.06941192
v -0.04164232 -0.01598234 0.07410512
v -0.04163492 -0.01218945 0.06683385
v -0.04163862 -0.01409104 0.07045751
v -0.04053936 -0.00030712 0.04905076
v -0.04078734 -0.00215731 0.05089452
v -0.04067260 -0.00215731 0.04905076
v -0.04086507 -0.00400750 0.05089452
v -0.04126110 -0.00585769 0.05644974
v -0.03205617 0.00904148 0.01379587
v -0.03264096 0.00849156 0.01435458
v -0.03418807 0.00790053 0.01679697
v -0.02672271 0.00583962 0.00206286
v -0.02708543 0.00673902 0.00329203
v -0.02755549 0.00725296 0.00446534
v -0.02682264 0.00797248 0.00373901
v -0.02847709 0.00709364 0.00592598
v -0.02901747 0.00709364 0.00685185
v -0.03037211 0.00761272 0.00955762
v -0.03072373 0.00838363 0.01079478
v -0.03007231 0.00897981 0.01018019
v -0.03110125 0.00897981 0.01198404
v -0.03434352 -0.01060137 0.02376494
v -0.03615342 -0.00873062 0.02572044
v -0.03557602 -0.00758453 0.02135448
v -0.03596095 -0.01026217 0.02823465
v -0.03597946 -0.00648984 0.02077980
v -0.03603868 -0.00473730 0.01870458
v -0.03490610 -0.00602215 0.01742752
v -0.03422878 -0.00488120 0.01484147
v -0.03579440 -0.00407431 0.01757917
v -0.03267427 -0.00215731 0.01064312
v -0.03211909 -0.00215731 0.00971726
v -0.03063860 -0.00215731 0.00725891
v -0.03006861 -0.00215731 0.00633304
v -0.03277420 -0.00030712 0.01049946
v -0.03219681 -0.00030712 0.00957359
v -0.03069782 -0.00030712 0.00717111
v -0.03010562 -0.00030712 0.00624524
v -0.02918032 -0.00030712 0.00480057
v -0.02858442 -0.00030712 0.00387470
v -0.03396970 -0.00416168 0.01384376
v -0.03295556 -0.00411029 0.01189624
v -0.03443605 -0.00364774 0.01443440
v -0.03413625 -0.00215731 0.01318129
v -0.03348854 -0.00215731 0.01203193
v -0.02855852 0.00154307 0.00391461
v -0.02782567 0.00154307 0.00278121
v -0.02915441 0.00154307 0.00484047
v -0.02775165 0.00339326 0.00278121
v -0.02733341 0.00523317 0.00271736
v -0.02851040 0.00339326 0.00400240
v -0.03061639 0.00288960 0.00729882
v -0.03009822 0.00346007 0.00659644
v -0.03050906 0.00412306 0.00746643
v -0.02891753 0.00489911 0.00518368
v -0.03981022 -0.01050886 0.04804508
v -0.03987314 -0.01253893 0.05317727
v -0.04006190 -0.01487737 0.06015322
v -0.03992126 -0.01450219 0.05830148
v -0.03973989 -0.01401908 0.05592295
v -0.03963626 -0.01375183 0.05459800
v -0.03908108 -0.01140826 0.04534728
v -0.03874057 -0.01140826 0.04349554
v -0.03794110 -0.01046775 0.03705436
v -0.03790409 -0.01223571 0.04093344
v -0.03687515 -0.01140826 0.03424483
v -0.03644951 -0.01142368 0.03258464
v -0.03629406 -0.01078125 0.03054933
v -0.03613861 -0.01054998 0.02947181
v -0.03945120 0.00154307 0.03609656
v -0.03982872 0.00094176 0.04031087
v -0.03972879 0.00155335 0.03974417
v -0.04041722 -0.00030712 0.04719902
v -0.03927354 0.00154307 0.03424483
v -0.03888862 0.00339326 0.03239309
v -0.03867395 0.00339326 0.03054933
v -0.03802623 0.00469353 0.02684585
v -0.03592764 0.00763842 0.02088356
v -0.03634218 0.00705252 0.02141833
v -0.03691217 0.00524345 0.02129063
v -0.03771163 0.00339326 0.02314237
v -0.03795961 0.00436975 0.02584016
v -0.03771163 0.00508927 0.02512980
v -0.03731560 0.00339326 0.02129063
v -0.03389197 0.00899008 0.01748339
v -0.03445086 0.00839905 0.01803412
v -0.04113526 -0.00585769 0.05459800
v -0.04099091 -0.00585769 0.05274626
v -0.04083176 -0.00585769 0.05089452
v -0.04123519 -0.00770788 0.05644974
v -0.04106864 -0.00770788 0.05459800
v -0.04140544 -0.00955807 0.06015322
v -0.04148687 -0.01130033 0.06384872
v -0.04121298 -0.00955807 0.05830148
v -0.04126480 -0.01140826 0.06200496
v -0.04127590 -0.01325845 0.06570844
v -0.04082435 -0.01140826 0.05830148
v -0.04014333 -0.00030712 0.04349554
v -0.04053196 -0.00215731 0.04719902
v -0.04072442 -0.00400750 0.04905076
v -0.03230785 0.00782344 0.01311743
v -0.03392898 0.00720671 0.01566357
v -0.03479507 0.00720671 0.01748339
v -0.03566855 0.00705252 0.01946283
v -0.03446936 0.00666707 0.01623027
v -0.02868066 0.00613771 0.00558277
v -0.03062750 0.00637926 0.00911065
v -0.03257434 0.00658998 0.01264652
v -0.03630147 -0.00899787 0.02684585
v -0.03615342 -0.00688557 0.02201696
v -0.03621634 -0.00525638 0.01994173
v -0.03621264 -0.00350384 0.01819375
v -0.03639400 -0.00407431 0.01936706
v -0.03483208 -0.00416168 0.01557578
v -0.03543168 -0.00215731 0.01573541
v -0.03422138 -0.00091871 0.01300569
v -0.03379574 -0.00030198 0.01219156
v -0.03426950 0.00031989 0.01291789
v -0.03426950 0.00084925 0.01291789
v -0.03067191 0.00154307 0.00721102
v -0.03007971 0.00154307 0.00628515
v -0.03462851 -0.00215731 0.01409917
v -0.03275570 0.00154307 0.01053936
v -0.03376983 0.00149681 0.01219156
v -0.03420657 0.00208785 0.01302964
v -0.03333679 0.00339326 0.01203193
v -0.03406593 0.00339326 0.01328505
v -0.03245590 0.00447768 0.01100230
v -0.03031289 0.00524345 0.00780166
v -0.02938389 0.00540791 0.00630909
v -0.04057267 -0.00955807 0.05274626
v -0.04035060 -0.00955807 0.05089452
v -0.04012852 -0.00955807 0.04905076
v -0.03991755 -0.00953751 0.04733471
v -0.03972879 -0.01014396 0.04681590
v -0.03945490 -0.01123866 0.04733471
v -0.03873317 -0.00955807 0.03979206
v -0.03805214 -0.00892592 0.03458804
v -0.03794110 -0.00861242 0.03335886
v -0.03785227 -0.01022620 0.03609656
v -0.03728229 -0.01140826 0.03609656
v -0.03737112 -0.00955807 0.03239309
v -0.03693807 -0.00955807 0.03054933
v -0.03647172 -0.00960947 0.02878539
v -0.03950302 -0.00030712 0.03609656
v -0.03967697 -0.00030712 0.03794830
v -0.03978061 -0.00030712 0.03909766
v -0.03986204 -0.00030712 0.04001555
v -0.03999898 -0.00030712 0.04164380
v -0.03932166 -0.00030712 0.03424483
v -0.03905887 0.00154307 0.03239309
v -0.03912180 -0.00030712 0.03239309
v -0.03844447 0.00339326 0.02869759
v -0.03619783 0.00640496 0.02009338
v -0.03631997 0.00511496 0.01946283
v -0.03669749 0.00339326 0.01943889
v -0.03779305 0.00154307 0.02314237
v -0.03794480 0.00154307 0.02410016
v -0.03808175 0.00154307 0.02502603
v -0.03833714 0.00154307 0.02684585
v -0.03789299 0.00339326 0.02449126
v -0.03742293 0.00154307 0.02129063
v -0.03820389 0.00339326 0.02684585
v -0.03688626 0.00154307 0.01943889
v -0.04055046 -0.00400750 0.04719902
v -0.04065780 -0.00585769 0.04905076
v -0.04087247 -0.00770788 0.05274626
v -0.04066520 -0.00770788 0.05089452
v -0.04079104 -0.00955807 0.05459800
v -0.04037280 -0.00215731 0.04534728
v -0.04020625 -0.00215731 0.04349554
v -0.04003599 -0.00215731 0.04164380
v -0.03295926 0.00716045 0.01379587
v -0.03596465 0.00564432 0.01886421
v -0.03414365 0.00591157 0.01500110
v -0.03438423 0.00467811 0.01455413
v -0.03470624 0.00527429 0.01566357
v -0.03084957 0.00524345 0.00872753
v -0.03221902 0.00571114 0.01141734
v -0.03278901 0.00515608 0.01203193
v -0.03380314 0.00527429 0.01391559
v -0.03675671 -0.00585769 0.02314237
v -0.03635328 -0.00586797 0.02135448
v -0.03731190 -0.00770788 0.02869759
v -0.03688256 -0.00400750 0.02129063
v -0.03629406 -0.00215731 0.01791439
v -0.03597576 -0.00215731 0.01698853
v -0.03717865 -0.00215731 0.02129063
v -0.03671970 -0.00215731 0.01943889
v -0.03562044 -0.00030712 0.01573541
v -0.03465812 -0.00030198 0.01373202
v -0.03463962 0.00149681 0.01374000
v -0.03456559 0.00339326 0.01420293
v -0.04044683 -0.00770788 0.04905076
v -0.04022476 -0.00770788 0.04719902
v -0.03985463 -0.00891050 0.04585811
v -0.03977321 -0.00847879 0.04462894
v -0.03923283 -0.00770788 0.03979206
v -0.03894784 -0.00770788 0.03794830
v -0.03864804 -0.00770788 0.03609656
v -0.03904407 -0.00955807 0.04164380
v -0.03801513 -0.00700892 0.03106015
v -0.03791149 -0.00662860 0.02983098
v -0.03785597 -0.00832461 0.03239309
v -0.03772273 -0.00954779 0.03408519
v -0.03987314 -0.00215731 0.03997564
v -0.03966217 -0.00215731 0.03794830
v -0.03978061 -0.00215731 0.03905775
v -0.03882200 0.00154307 0.03054933
v -0.03889232 -0.00030712 0.03054933
v -0.03905147 -0.00215731 0.03239309
v -0.03926244 -0.00215731 0.03424483
v -0.03612010 0.00441086 0.01845715
v -0.03622374 0.00339326 0.01818577
v -0.03600907 0.00154307 0.01690073
v -0.03633848 0.00154307 0.01782660
v -0.03772273 -0.00030712 0.02314237
v -0.03793000 -0.00030712 0.02418796
v -0.03808175 -0.00030712 0.02511383
v -0.03835194 -0.00030712 0.02684585
v -0.03863323 -0.00030712 0.02869759
v -0.03858141 0.00154307 0.02869759
v -0.03731560 -0.00030712 0.02129063
v -0.03683074 -0.00030712 0.01943889
v -0.03604608 -0.00030712 0.01682091
v -0.03633478 -0.00030712 0.01774678
v -0.04036540 -0.00400750 0.04534728
v -0.03997307 -0.00400750 0.04164380
v -0.03983613 -0.00400750 0.04036674
v -0.04045793 -0.00585769 0.04719902
v -0.04002859 -0.00585769 0.04349554
v -0.03980282 -0.00680848 0.04252977
v -0.03565375 0.00511496 0.01773880
v -0.03526142 0.00339326 0.01573541
v -0.03714904 -0.00585769 0.02499411
v -0.03728969 -0.00400750 0.02314237
v -0.03770422 -0.00766163 0.03048547
v -0.03798922 -0.00324687 0.02568053
v -0.03760799 -0.00215731 0.02314237
v -0.03555752 0.00154307 0.01573541
v -0.03986574 -0.00714768 0.04349554
v -0.03969548 -0.00807278 0.04349554
v -0.03955854 -0.00753828 0.04180344
v -0.03906258 -0.00585769 0.03609656
v -0.03878498 -0.00585769 0.03424483
v -0.03849629 -0.00585769 0.03239309
v -0.03817058 -0.00595020 0.03048547
v -0.03795591 -0.00495315 0.02773979
v -0.03780046 -0.00622259 0.02869759
v -0.03881829 -0.00215731 0.03054933
v -0.03934387 -0.00400750 0.03609656
v -0.03956594 -0.00400750 0.03794830
v -0.03973619 -0.00400750 0.03944885
v -0.03586842 0.00339326 0.01725990
v -0.03788188 -0.00215731 0.02445136
v -0.03803734 -0.00215731 0.02537723
v -0.03827051 -0.00215731 0.02684585
v -0.03855180 -0.00215731 0.02869759
v -0.03980282 -0.00494287 0.04070197
v -0.03910329 -0.00400750 0.03424483
v -0.03932536 -0.00585769 0.03794830
v -0.03760799 -0.00568295 0.02700548
v -0.03769682 -0.00392013 0.02503402
v -0.03884050 -0.00400750 0.03239309
f 1 2 7
f 1 7 15
f 1 15 27
f 1 27 54
f 1 54 93
f 1 93 146
f 1 146 212
f 1 212 211
f 1 211 210
f 1 210 266
f 1 266 338
f 1 338 401
f 1 401 483
f 1 483 559
f 1 559 562
f 1 562 649
f 1 649 738
f 1 738 841
f 1 841 840
f 1 840 939
f 1 939 938
f 1 938 937
f 1 937 913
f 1 913 807
f 1 807 709
f 1 709 620
f 1 620 619
f 1 619 530
f 1 530 456
f 1 456 378
f 1 378 316
f 1 316 250
f 1 250 191
f 1 191 249
f 1 249 315
f 1 315 357
f 1 357 356
f 1 356 290
f 1 290 230
f 1 230 172
f 1 172 114
f 1 114 67
f 1 67 42
f 1 42 22
f 1 22 8
f 1 8 3
f 1 3 4
f 1 4 5
f 1 5 13
f 1 13 25
f 1 25 47
f 1 47 74
f 1 74 123
f 1 123 185
f 1 185 245
f 1 245 314
f 1 314 377
f 1 377 455
f 1 455 529
f 1 529 528
f 1 528 618
f 1 618 582
f 1 582 499
f 1 499 497
f 1 497 413
f 1 413 350
f 1 350 282
f 1 282 220
f 1 220 152
f 1 152 147
f 1 147 95
f 1 95 58
f 1 58 57
f 1 57 56
f 1 56 55
f 1 55 39
f 1 39 38
f 1 38 37
f 1 37 36
f 1 36 35
f 1 35 34
f 1 34 33
f 1 33 32
f 1 32 31
f 1 31 30
f 1 30 29
f 1 29 28
f 1 28 21
f 1 21 20
f 1 20 19
f 1 19 18
f 1 18 17
f 1 17 16
f 1 16 14
f 1 14 6
f 1 6 2
f 2 6 7
f 3 8 9
f 3 9 10
f 3 10 11
f 3 11 12
f 3 12 4
f 4 12 13
f 4 13 5
f 6 14 7
f 7 14 16
f 7 16 17
f 7 17 18
f 7 18 19
f 7 19 20
f 7 20 21
f 7 21 15
f 8 22 9
f 9 22 23
f 9 23 11
f 9 11 10
f 11 23 24
f 11 24 12
f 12 24 13
f 13 24 25
f 15 26 27
f 15 21 28
f 15 28 29
f 15 29 30
f 15 30 31
f 15 31 32
f 15 32 33
f 15 33 34
f 15 34 35
f 15 35 36
f 15 36 37
f 15 37 38
f 15 38 39
f 15 39 40
f 15 40 41
f 15 41 26
f 22 42 43
f 22 43 23
f 23 43 44
f 23 44 45
f 23 45 46
f 23 46 24
f 24 46 25
f 25 46 47
f 26 48 49
f 26 49 27
f 26 41 48
f 27 50 51
f 27 51 52
f 27 52 53
f 27 53 54
f 27 49 48
f 27 48 50
f 39 55 40
f 40 55 41
f 41 55 56
f 41 56 57
f 41 57 58
f 41 58 59
f 41 59 60
f 41 60 61
f 41 61 62
f 41 62 63
f 41 63 64
f 41 64 65
f 41 65 66
f 41 66 48
f 42 67 68
f 42 68 75
f 42 75 69
f 42 69 43
f 43 69 70
f 43 70 44
f 44 70 47
f 44 47 46
f 44 46 45
f 47 71 72
f 47 72 73
f 47 73 74
f 47 70 69
f 47 69 75
f 47 75 76
f 47 76 71
f 48 77 78
f 48 78 79
f 48 79 80
f 48 80 50
f 48 66 65
f 48 65 77
f 50 80 79
f 50 79 52
f 50 52 81
f 50 81 51
f 51 81 52
f 52 82 83
f 52 83 84
f 52 84 85
f 52 85 86
f 52 86 53
f 52 79 87
f 52 87 88
f 52 88 89
f 52 89 90
f 52 90 82
f 53 86 91
f 53 91 92
f 53 92 54
f 54 92 91
f 54 91 94
f 54 94 93
f 58 95 59
f 59 96 97
f 59 97 60
f 59 95 98
f 59 98 96
f 60 99 100
f 60 100 101
f 60 101 61
f 60 97 99
f 61 101 62
f 62 101 102
f 62 102 63
f 63 102 103
f 63 103 104
f 63 104 105
f 63 105 106
f 63 106 107
f 63 107 108
f 63 108 109
f 63 109 64
f 64 109 65
f 65 109 110
f 65 110 111
f 65 111 112
f 65 112 113
f 65 113 77
f 67 114 115
f 67 115 76
f 67 76 116
f 67 116 68
f 68 116 76
f 68 76 75
f 71 117 118
f 71 118 119
f 71 119 120
f 71 120 72
f 71 76 121
f 71 121 117
f 72 120 73
f 73 122 123
f 73 123 74
f 73 120 119
f 73 119 124
f 73 124 125
f 73 125 122
f 76 115 126
f 76 126 127
f 76 127 121
f 77 128 78
f 77 113 128
f 78 129 79
f 78 128 129
f 79 129 88
f 79 88 87
f 82 90 130
f 82 130 83
f 83 131 84
f 83 130 132
f 83 132 133
f 83 133 134
f 83 134 131
f 84 131 85
f 85 131 86
f 86 135 91
f 86 131 135
f 88 129 89
f 89 136 137
f 89 137 138
f 89 138 139
f 89 139 130
f 89 130 90
f 89 129 140
f 89 140 141
f 89 141 136
f 91 142 143
f 91 143 144
f 91 144 145
f 91 145 146
f 91 146 93
f 91 93 94
f 91 135 142
f 95 147 98
f 96 148 97
f 96 98 148
f 97 148 149
f 97 149 150
f 97 150 151
f 97 151 99
f 98 147 152
f 98 152 153
f 98 153 154
f 98 154 155
f 98 155 149
f 98 149 148
f 99 151 156
f 99 156 157
f 99 157 158
f 99 158 100
f 100 158 159
f 100 159 101
f 101 159 102
f 102 159 160
f 102 160 161
f 102 161 104
f 102 104 103
f 104 162 138
f 104 138 106
f 104 106 105
f 104 161 163
f 104 163 157
f 104 157 164
f 104 164 165
f 104 165 162
f 106 138 166
f 106 166 107
f 107 166 108
f 108 166 167
f 108 167 109
f 109 167 168
f 109 168 110
f 110 168 111
f 111 168 169
f 111 169 112
f 112 169 170
f 112 170 113
f 113 170 171
f 113 171 128
f 114 172 173
f 114 173 174
f 114 174 175
f 114 175 176
f 114 176 126
f 114 126 115
f 117 177 176
f 117 176 178
f 117 178 118
f 117 121 177
f 118 178 175
f 118 175 119
f 119 179 180
f 119 180 124
f 119 175 181
f 119 181 182
f 119 182 179
f 121 127 183
f 121 183 177
f 122 184 123
f 122 125 184
f 123 184 185
f 124 180 125
f 125 186 184
f 125 180 179
f 125 179 187
f 125 187 188
f 125 188 189
f 125 189 190
f 125 190 191
f 125 191 186
f 126 176 127
f 127 176 183
f 128 140 129
f 128 171 140
f 130 139 132
f 131 192 193
f 131 193 135
f 131 134 192
f 132 139 194
f 132 194 133
f 133 194 195
f 133 195 196
f 133 196 134
f 134 196 197
f 134 197 198
f 134 198 192
f 135 193 142
f 136 141 199
f 136 199 138
f 136 138 137
f 138 195 194
f 138 194 139
f 138 199 200
f 138 200 201
f 138 201 202
f 138 202 166
f 138 162 203
f 138 203 204
f 138 204 195
f 140 171 170
f 140 170 169
f 140 169 205
f 140 205 141
f 141 202 200
f 141 200 199
f 141 205 169
f 141 169 168
f 141 168 167
f 141 167 166
f 141 166 202
f 142 193 206
f 142 206 207
f 142 207 208
f 142 208 209
f 142 209 143
f 143 209 210
f 143 210 211
f 143 211 212
f 143 212 145
f 143 145 144
f 145 212 146
f 149 155 150
f 150 213 214
f 150 214 151
f 150 155 215
f 150 215 216
f 150 216 217
f 150 217 213
f 151 214 156
f 152 218 219
f 152 219 153
f 152 220 221
f 152 221 222
f 152 222 218
f 153 219 223
f 153 223 154
f 154 223 224
f 154 224 155
f 155 224 225
f 155 225 271
f 155 271 215
f 156 214 226
f 156 226 164
f 156 164 157
f 157 163 160
f 157 160 158
f 158 160 159
f 160 163 161
f 162 165 227
f 162 227 203
f 164 226 228
f 164 228 229
f 164 229 165
f 165 229 227
f 172 230 231
f 172 231 232
f 172 232 173
f 173 233 174
f 173 232 231
f 173 231 233
f 174 233 175
f 175 233 181
f 175 178 176
f 176 177 183
f 179 182 234
f 179 234 235
f 179 235 187
f 181 233 236
f 181 236 237
f 181 237 182
f 182 237 238
f 182 238 239
f 182 239 240
f 182 240 234
f 184 241 185
f 184 186 242
f 184 242 241
f 185 243 244
f 185 244 245
f 185 241 243
f 186 191 242
f 187 235 188
f 188 235 246
f 188 246 247
f 188 247 189
f 189 247 190
f 190 247 248
f 190 248 191
f 191 248 249
f 191 250 251
f 191 251 242
f 192 252 253
f 192 253 193
f 192 198 254
f 192 254 255
f 192 255 252
f 193 253 207
f 193 207 206
f 195 204 256
f 195 256 196
f 196 256 197
f 197 256 254
f 197 254 257
f 197 257 198
f 198 257 254
f 200 202 201
f 203 227 258
f 203 258 204
f 204 258 259
f 204 259 256
f 207 253 252
f 207 252 260
f 207 260 261
f 207 261 262
f 207 262 263
f 207 263 208
f 208 263 209
f 209 263 264
f 209 264 265
f 209 265 210
f 210 265 267
f 210 267 266
f 213 217 268
f 213 268 214
f 214 268 269
f 214 269 270
f 214 270 226
f 215 271 272
f 215 272 216
f 216 272 273
f 216 273 274
f 216 274 275
f 216 275 217
f 217 275 276
f 217 276 277
f 217 277 278
f 217 278 279
f 217 279 280
f 217 280 268
f 218 223 281
f 218 281 219
f 218 222 223
f 219 281 223
f 220 282 283
f 220 283 221
f 221 283 284
f 221 284 285
f 221 285 223
f 221 223 222
f 223 285 286
f 223 286 272
f 223 272 271
f 223 271 225
f 223 225 224
f 226 270 287
f 226 287 288
f 226 288 228
f 227 229 228
f 227 228 288
f 227 288 287
f 227 287 289
f 227 289 258
f 230 290 291
f 230 291 231
f 231 291 292
f 231 292 233
f 233 292 293
f 233 293 236
f 234 240 239
f 234 239 294
f 234 294 235
f 235 294 248
f 235 248 247
f 235 247 246
f 236 293 295
f 236 295 237
f 237 295 238
f 238 295 239
f 239 295 293
f 239 293 292
f 239 292 296
f 239 296 297
f 239 297 249
f 239 249 248
f 239 248 298
f 239 298 294
f 241 242 243
f 242 299 300
f 242 300 301
f 242 301 243
f 242 251 250
f 242 250 302
f 242 302 303
f 242 303 299
f 243 304 305
f 243 305 306
f 243 306 244
f 243 301 307
f 243 307 308
f 243 308 304
f 244 309 310
f 244 310 311
f 244 311 245
f 244 306 312
f 244 312 313
f 244 313 309
f 245 311 314
f 248 294 298
f 249 297 315
f 250 316 302
f 252 317 260
f 252 255 318
f 252 318 317
f 254 256 319
f 254 319 320
f 254 320 321
f 254 321 322
f 254 322 323
f 254 323 324
f 254 324 255
f 255 324 318
f 256 259 319
f 258 289 325
f 258 325 259
f 259 325 326
f 259 326 327
f 259 327 319
f 260 317 328
f 260 328 329
f 260 329 261
f 261 330 331
f 261 331 262
f 261 329 332
f 261 332 333
f 261 333 330
f 262 334 335
f 262 335 336
f 262 336 263
f 262 331 334
f 263 336 265
f 263 265 264
f 265 337 267
f 265 336 337
f 266 267 338
f 267 337 339
f 267 339 338
f 268 280 340
f 268 340 341
f 268 341 269
f 269 341 342
f 269 342 343
f 269 343 270
f 270 343 344
f 270 344 345
f 270 345 287
f 272 286 273
f 273 286 285
f 273 285 284
f 273 284 274
f 274 284 275
f 275 284 276
f 276 284 277
f 277 346 278
f 277 284 283
f 277 283 347
f 277 347 346
f 278 346 348
f 278 348 279
f 279 340 280
f 279 348 349
f 279 349 340
f 282 350 283
f 283 350 351
f 283 351 352
f 283 352 353
f 283 353 354
f 283 354 347
f 287 345 344
f 287 344 289
f 289 344 355
f 289 355 325
f 290 356 291
f 291 356 292
f 292 356 357
f 292 357 296
f 296 357 315
f 296 315 297
f 299 358 301
f 299 301 300
f 299 303 359
f 299 359 360
f 299 360 358
f 301 358 307
f 302 316 361
f 302 361 303
f 303 361 362
f 303 362 359
f 304 308 358
f 304 358 305
f 305 312 306
f 305 358 363
f 305 363 364
f 305 364 312
f 307 358 308
f 309 313 365
f 309 365 366
f 309 366 367
f 309 367 368
f 309 368 369
f 309 369 370
f 309 370 371
f 309 371 310
f 310 371 372
f 310 372 373
f 310 373 311
f 311 373 314
f 312 364 374
f 312 374 313
f 313 374 375
f 313 375 376
f 313 376 365
f 314 373 377
f 316 378 379
f 316 379 380
f 316 380 361
f 317 318 328
f 318 324 323
f 318 323 381
f 318 381 329
f 318 329 328
f 319 327 382
f 319 382 320
f 320 382 321
f 321 382 383
f 321 383 384
f 321 384 385
f 321 385 386
f 321 386 387
f 321 387 388
f 321 388 322
f 322 388 389
f 322 389 323
f 323 389 388
f 323 388 390
f 323 390 333
f 323 333 332
f 323 332 329
f 323 329 381
f 325 355 391
f 325 391 326
f 326 391 392
f 326 392 327
f 327 393 382
f 327 392 393
f 330 394 331
f 330 333 394
f 331 394 395
f 331 395 334
f 333 390 388
f 333 388 396
f 333 396 397
f 333 397 394
f 334 398 336
f 334 336 335
f 334 395 399
f 334 399 398
f 336 398 337
f 337 398 400
f 337 400 339
f 338 339 401
f 339 400 402
f 339 402 403
f 339 403 404
f 339 404 401
f 340 349 405
f 340 405 406
f 340 406 341
f 341 406 407
f 341 407 342
f 342 407 408
f 342 408 409
f 342 409 410
f 342 410 343
f 343 410 344
f 344 391 355
f 344 410 471
f 344 471 391
f 346 347 348
f 347 354 411
f 347 411 348
f 348 411 412
f 348 412 349
f 349 412 405
f 350 413 351
f 351 413 352
f 352 414 415
f 352 415 416
f 352 416 353
f 352 413 414
f 353 417 354
f 353 416 417
f 354 412 411
f 354 417 418
f 354 418 419
f 354 419 420
f 354 420 421
f 354 421 422
f 354 422 412
f 358 360 359
f 358 359 423
f 358 423 362
f 358 362 363
f 359 362 423
f 361 380 424
f 361 424 362
f 362 424 425
f 362 425 426
f 362 426 427
f 362 427 428
f 362 428 363
f 363 428 427
f 363 427 364
f 364 427 429
f 364 429 430
f 364 430 375
f 364 375 374
f 365 431 432
f 365 432 433
f 365 433 434
f 365 434 366
f 365 376 435
f 365 435 436
f 365 436 431
f 366 434 437
f 366 437 367
f 367 438 439
f 367 439 368
f 367 437 440
f 367 440 441
f 367 441 438
f 368 439 442
f 368 442 443
f 368 443 369
f 369 443 444
f 369 444 445
f 369 445 446
f 369 446 370
f 370 446 371
f 371 446 372
f 372 447 373
f 372 446 448
f 372 448 449
f 372 449 450
f 372 450 451
f 372 451 447
f 373 447 377
f 375 430 452
f 375 452 453
f 375 453 376
f 376 453 454
f 376 454 435
f 377 447 455
f 378 456 457
f 378 457 379
f 379 457 454
f 379 454 453
f 379 453 380
f 380 458 459
f 380 459 424
f 380 453 452
f 380 452 430
f 380 430 458
f 382 393 460
f 382 460 383
f 383 460 461
f 383 461 384
f 384 462 463
f 384 463 464
f 384 464 465
f 384 465 385
f 384 461 466
f 384 466 462
f 385 465 386
f 386 465 467
f 386 467 387
f 387 467 468
f 387 468 469
f 387 469 470
f 387 470 388
f 388 470 396
f 391 471 392
f 392 472 473
f 392 473 474
f 392 474 393
f 392 471 410
f 392 410 475
f 392 475 472
f 393 474 476
f 393 476 460
f 394 397 395
f 395 477 399
f 395 397 478
f 395 478 479
f 395 479 477
f 396 470 480
f 396 480 397
f 397 480 478
f 398 399 477
f 398 477 481
f 398 481 400
f 400 481 482
f 400 482 402
f 401 404 484
f 401 484 485
f 401 485 483
f 402 482 486
f 402 486 487
f 402 487 488
f 402 488 489
f 402 489 403
f 403 490 484
f 403 484 404
f 403 489 491
f 403 491 492
f 403 492 490
f 405 422 406
f 405 412 422
f 406 422 421
f 406 421 493
f 406 493 494
f 406 494 407
f 407 494 495
f 407 495 496
f 407 496 408
f 408 496 475
f 408 475 409
f 409 475 410
f 413 497 414
f 414 497 415
f 415 498 416
f 415 497 499
f 415 499 500
f 415 500 584
f 415 584 501
f 415 501 498
f 416 498 502
f 416 502 417
f 417 503 418
f 417 502 504
f 417 504 503
f 418 505 419
f 418 503 506
f 418 506 507
f 418 507 508
f 418 508 509
f 418 509 505
f 419 505 420
f 420 510 421
f 420 505 510
f 421 510 493
f 424 459 458
f 424 458 425
f 425 458 426
f 426 430 429
f 426 429 427
f 426 458 430
f 431 436 432
f 432 511 433
f 432 436 511
f 433 511 512
f 433 512 513
f 433 513 514
f 433 514 434
f 434 514 437
f 435 454 436
f 436 454 515
f 436 515 511
f 437 514 516
f 437 516 440
f 438 443 442
f 438 442 439
f 438 441 517
f 438 517 518
f 438 518 443
f 440 516 441
f 441 516 517
f 443 519 444
f 443 518 520
f 443 520 521
f 443 521 519
f 444 522 523
f 444 523 445
f 444 519 522
f 445 523 448
f 445 448 446
f 447 451 455
f 448 523 524
f 448 524 525
f 448 525 450
f 448 450 449
f 450 525 526
f 450 526 527
f 450 527 528
f 450 528 529
f 450 529 451
f 451 529 455
f 454 457 530
f 454 530 531
f 454 531 532
f 454 532 533
f 454 533 515
f 456 530 457
f 460 476 534
f 460 534 461
f 461 534 466
f 462 466 535
f 462 535 536
f 462 536 463
f 463 537 464
f 463 536 537
f 464 537 465
f 465 537 467
f 466 534 538
f 466 538 539
f 466 539 535
f 467 540 541
f 467 541 468
f 467 537 540
f 468 541 469
f 469 541 542
f 469 542 543
f 469 543 470
f 470 543 480
f 472 544 545
f 472 545 546
f 472 546 547
f 472 547 474
f 472 474 473
f 472 475 544
f 474 548 476
f 474 547 548
f 475 496 549
f 475 549 550
f 475 550 545
f 475 545 544
f 476 548 551
f 476 551 534
f 477 479 478
f 477 478 552
f 477 552 553
f 477 553 554
f 477 554 481
f 478 480 552
f 480 553 552
f 480 543 553
f 481 555 482
f 481 554 556
f 481 556 555
f 482 555 557
f 482 557 558
f 482 558 486
f 483 485 559
f 484 490 485
f 485 490 560
f 485 560 561
f 485 561 562
f 485 562 559
f 486 558 563
f 486 563 564
f 486 564 487
f 487 565 488
f 487 564 566
f 487 566 565
f 488 567 491
f 488 491 489
f 488 565 568
f 488 568 567
f 490 492 569
f 490 569 560
f 491 570 571
f 491 571 492
f 491 567 572
f 491 572 573
f 491 573 574
f 491 574 570
f 492 575 569
f 492 571 576
f 492 576 575
f 493 577 494
f 493 510 577
f 494 577 578
f 494 578 579
f 494 579 495
f 495 579 549
f 495 549 496
f 498 580 581
f 498 581 502
f 498 501 580
f 499 582 583
f 499 583 584
f 499 584 500
f 501 584 585
f 501 585 580
f 502 581 504
f 503 586 506
f 503 504 587
f 503 587 588
f 503 588 589
f 503 589 590
f 503 590 591
f 503 591 586
f 504 581 587
f 505 509 577
f 505 577 510
f 506 586 507
f 507 592 508
f 507 586 592
f 508 592 578
f 508 578 509
f 509 578 577
f 511 593 512
f 511 515 594
f 511 594 593
f 512 595 513
f 512 593 594
f 512 594 595
f 513 595 596
f 513 596 514
f 514 596 597
f 514 597 598
f 514 598 599
f 514 599 600
f 514 600 516
f 515 601 594
f 515 533 601
f 516 600 602
f 516 602 603
f 516 603 517
f 517 603 604
f 517 604 605
f 517 605 606
f 517 606 518
f 518 606 607
f 518 607 520
f 519 521 607
f 519 607 608
f 519 608 609
f 519 609 610
f 519 610 522
f 520 607 521
f 522 611 612
f 522 612 523
f 522 610 611
f 523 612 613
f 523 613 614
f 523 614 524
f 524 614 615
f 524 615 525
f 525 615 526
f 526 616 527
f 526 615 617
f 526 617 616
f 527 618 528
f 527 616 708
f 527 708 669
f 527 669 583
f 527 583 582
f 527 582 618
f 530 619 531
f 531 619 620
f 531 620 621
f 531 621 622
f 531 622 623
f 531 623 624
f 531 624 532
f 532 624 625
f 532 625 626
f 532 626 533
f 533 626 627
f 533 627 601
f 534 551 538
f 535 628 629
f 535 629 536
f 535 539 630
f 535 630 628
f 536 631 632
f 536 632 540
f 536 540 537
f 536 629 631
f 538 633 539
f 538 551 634
f 538 634 633
f 539 633 630
f 540 632 635
f 540 635 636
f 540 636 541
f 541 636 637
f 541 637 638
f 541 638 542
f 542 638 553
f 542 553 543
f 545 550 549
f 545 549 639
f 545 639 546
f 546 640 547
f 546 639 641
f 546 641 640
f 547 640 642
f 547 642 548
f 548 642 551
f 549 643 639
f 549 579 644
f 549 644 643
f 551 642 645
f 551 645 634
f 553 556 554
f 553 638 556
f 555 556 557
f 556 638 637
f 556 637 636
f 556 636 646
f 556 646 563
f 556 563 558
f 556 558 557
f 560 647 648
f 560 648 561
f 560 569 647
f 561 648 562
f 562 648 649
f 563 646 650
f 563 650 564
f 564 650 566
f 565 572 568
f 565 566 651
f 565 651 573
f 565 573 572
f 566 636 635
f 566 635 632
f 566 632 651
f 566 650 636
f 567 568 572
f 569 652 647
f 569 575 653
f 569 653 654
f 569 654 655
f 569 655 652
f 570 656 576
f 570 576 571
f 570 574 656
f 573 651 657
f 573 657 658
f 573 658 574
f 574 658 659
f 574 659 660
f 574 660 663
f 574 663 656
f 575 576 661
f 575 661 662
f 575 662 653
f 576 656 663
f 576 663 664
f 576 664 665
f 576 665 661
f 578 592 666
f 578 666 644
f 578 644 579
f 580 667 668
f 580 668 581
f 580 585 667
f 581 668 587
f 583 669 584
f 584 670 585
f 584 669 670
f 585 670 667
f 586 591 592
f 587 668 588
f 588 671 672
f 588 672 589
f 588 668 671
f 589 672 673
f 589 673 590
f 590 674 675
f 590 675 676
f 590 676 591
f 590 673 674
f 591 676 592
f 592 676 677
f 592 677 666
f 594 601 627
f 594 627 626
f 594 626 678
f 594 678 595
f 595 678 596
f 596 678 597
f 597 678 626
f 597 626 679
f 597 679 598
f 598 600 599
f 598 679 600
f 600 680 602
f 600 679 681
f 600 681 680
f 602 680 682
f 602 682 683
f 602 683 684
f 602 684 685
f 602 685 603
f 603 685 686
f 603 686 604
f 604 687 688
f 604 688 689
f 604 689 605
f 604 686 690
f 604 690 691
f 604 691 687
f 605 692 606
f 605 689 692
f 606 692 693
f 606 693 607
f 607 694 695
f 607 695 696
f 607 696 697
f 607 697 698
f 607 698 610
f 607 610 608
f 607 693 699
f 607 699 694
f 608 610 609
f 610 698 700
f 610 700 701
f 610 701 611
f 611 702 612
f 611 701 703
f 611 703 702
f 612 702 613
f 613 702 704
f 613 704 705
f 613 705 617
f 613 617 615
f 613 615 614
f 616 617 706
f 616 706 707
f 616 707 708
f 617 705 706
f 620 709 710
f 620 710 621
f 621 710 622
f 622 710 711
f 622 711 623
f 623 711 624
f 624 712 713
f 624 713 625
f 624 711 714
f 624 714 715
f 624 715 716
f 624 716 717
f 624 717 712
f 625 713 626
f 626 713 682
f 626 682 679
f 628 630 718
f 628 718 629
f 629 718 719
f 629 719 720
f 629 720 631
f 630 633 721
f 630 721 722
f 630 722 718
f 631 658 632
f 631 720 659
f 631 659 658
f 632 658 657
f 632 657 651
f 633 723 721
f 633 634 645
f 633 645 724
f 633 724 723
f 636 650 646
f 639 643 641
f 640 725 726
f 640 726 727
f 640 727 728
f 640 728 642
f 640 641 725
f 641 643 729
f 641 729 730
f 641 730 725
f 642 728 731
f 642 731 732
f 642 732 645
f 643 733 729
f 643 644 733
f 644 666 734
f 644 734 733
f 645 732 724
f 647 735 736
f 647 736 737
f 647 737 648
f 647 652 735
f 648 737 738
f 648 738 649
f 652 655 739
f 652 739 740
f 652 740 741
f 652 741 742
f 652 742 743
f 652 743 735
f 653 662 654
f 654 662 744
f 654 744 745
f 654 745 655
f 655 745 746
f 655 746 739
f 659 747 660
f 659 720 748
f 659 748 749
f 659 749 747
f 660 747 663
f 661 665 750
f 661 750 662
f 662 750 751
f 662 751 744
f 663 747 752
f 663 752 753
f 663 753 664
f 664 753 750
f 664 750 665
f 666 754 733
f 666 733 734
f 666 677 675
f 666 675 754
f 667 755 756
f 667 756 757
f 667 757 668
f 667 670 755
f 668 757 671
f 669 708 758
f 669 758 670
f 670 758 755
f 671 759 760
f 671 760 761
f 671 761 762
f 671 762 672
f 671 757 759
f 672 763 674
f 672 674 673
f 672 762 764
f 672 764 763
f 674 763 675
f 675 765 766
f 675 766 767
f 675 767 754
f 675 677 676
f 675 763 768
f 675 768 769
f 675 769 770
f 675 770 765
f 679 682 680
f 679 680 681
f 682 771 683
f 682 713 772
f 682 772 773
f 682 773 771
f 683 771 774
f 683 774 775
f 683 775 776
f 683 776 684
f 684 776 775
f 684 775 685
f 685 775 690
f 685 690 686
f 687 689 688
f 687 691 777
f 687 777 778
f 687 778 779
f 687 779 689
f 689 779 780
f 689 780 692
f 690 781 782
f 690 782 777
f 690 777 691
f 690 775 774
f 690 774 716
f 690 716 783
f 690 783 781
f 692 780 784
f 692 784 785
f 692 785 786
f 692 786 787
f 692 787 693
f 693 787 699
f 694 788 789
f 694 789 695
f 694 699 790
f 694 790 791
f 694 791 792
f 694 792 788
f 695 789 793
f 695 793 696
f 696 793 700
f 696 700 698
f 696 698 697
f 699 787 794
f 699 794 790
f 700 793 701
f 701 795 703
f 701 793 796
f 701 796 797
f 701 797 795
f 702 703 798
f 702 798 704
f 703 795 799
f 703 799 800
f 703 800 798
f 704 798 801
f 704 801 705
f 705 801 802
f 705 802 803
f 705 803 707
f 705 707 706
f 707 804 708
f 707 803 805
f 707 805 806
f 707 806 804
f 708 804 758
f 709 807 710
f 710 807 808
f 710 808 809
f 710 809 810
f 710 810 811
f 710 811 812
f 710 812 711
f 711 813 714
f 711 812 814
f 711 814 813
f 712 717 713
f 713 717 815
f 713 815 816
f 713 816 817
f 713 817 772
f 714 813 814
f 714 814 715
f 715 814 818
f 715 818 716
f 716 819 820
f 716 820 815
f 716 815 717
f 716 818 821
f 716 821 783
f 716 774 819
f 718 722 719
f 719 822 748
f 719 748 720
f 719 722 822
f 721 823 722
f 721 723 823
f 722 824 822
f 722 823 824
f 723 825 823
f 723 724 826
f 723 826 825
f 724 732 827
f 724 827 826
f 725 828 829
f 725 829 726
f 725 730 828
f 726 829 830
f 726 830 727
f 727 830 831
f 727 831 832
f 727 832 732
f 727 732 731
f 727 731 728
f 729 833 730
f 729 733 833
f 730 834 828
f 730 833 834
f 732 832 831
f 732 831 835
f 732 835 827
f 733 836 833
f 733 754 837
f 733 837 836
f 735 743 838
f 735 838 839
f 735 839 736
f 736 839 840
f 736 840 841
f 736 841 737
f 737 841 738
f 739 746 842
f 739 842 740
f 740 842 843
f 740 843 844
f 740 844 741
f 741 845 742
f 741 844 846
f 741 846 845
f 742 845 942
f 742 942 946
f 742 946 847
f 742 847 743
f 743 847 848
f 743 848 838
f 744 751 849
f 744 849 745
f 745 849 746
f 746 849 850
f 746 850 842
f 747 749 851
f 747 851 857
f 747 857 752
f 748 822 852
f 748 852 749
f 749 852 853
f 749 853 854
f 749 854 851
f 750 753 751
f 751 753 855
f 751 855 856
f 751 856 849
f 752 857 753
f 753 857 855
f 754 767 858
f 754 858 837
f 755 859 756
f 755 758 859
f 756 859 860
f 756 860 861
f 756 861 757
f 757 861 759
f 758 804 862
f 758 862 806
f 758 806 859
f 759 863 864
f 759 864 865
f 759 865 866
f 759 866 867
f 759 867 760
f 759 861 863
f 760 867 866
f 760 866 868
f 760 868 761
f 761 868 869
f 761 869 769
f 761 769 768
f 761 768 764
f 761 764 762
f 763 764 768
f 765 870 871
f 765 871 766
f 765 770 872
f 765 872 870
f 766 871 858
f 766 858 767
f 769 869 866
f 769 866 770
f 770 873 874
f 770 874 872
f 770 866 865
f 770 865 875
f 770 875 863
f 770 863 873
f 771 773 774
f 772 817 773
f 773 817 816
f 773 816 820
f 773 820 876
f 773 876 774
f 774 876 819
f 777 782 778
f 778 782 877
f 778 877 878
f 778 878 779
f 779 878 879
f 779 879 880
f 779 880 780
f 780 880 881
f 780 881 784
f 781 878 877
f 781 877 782
f 781 783 878
f 783 821 878
f 784 881 880
f 784 880 882
f 784 882 883
f 784 883 884
f 784 884 785
f 785 884 885
f 785 885 786
f 786 885 886
f 786 886 794
f 786 794 787
f 788 792 789
f 789 792 887
f 789 887 888
f 789 888 793
f 790 794 791
f 791 888 887
f 791 887 792
f 791 794 889
f 791 889 890
f 791 890 888
f 793 888 890
f 793 890 891
f 793 891 796
f 794 886 892
f 794 892 893
f 794 893 894
f 794 894 895
f 794 895 889
f 795 896 799
f 795 797 897
f 795 897 898
f 795 898 896
f 796 891 899
f 796 899 900
f 796 900 901
f 796 901 797
f 797 901 897
f 798 800 902
f 798 902 903
f 798 903 801
f 799 896 800
f 800 896 904
f 800 904 905
f 800 905 906
f 800 906 902
f 801 903 907
f 801 907 802
f 802 907 903
f 802 903 908
f 802 908 909
f 802 909 910
f 802 910 805
f 802 805 803
f 804 806 862
f 805 910 806
f 806 910 911
f 806 911 912
f 806 912 859
f 807 913 808
f 808 914 809
f 808 913 914
f 809 915 810
f 809 914 915
f 810 915 811
f 811 915 916
f 811 916 917
f 811 917 918
f 811 918 812
f 812 918 919
f 812 919 814
f 814 919 818
f 815 820 816
f 818 919 821
f 819 876 820
f 821 920 878
f 821 919 920
f 822 824 852
f 823 825 921
f 823 921 922
f 823 922 824
f 824 922 853
f 824 853 852
f 825 826 923
f 825 923 921
f 826 827 924
f 826 924 923
f 827 835 925
f 827 925 926
f 827 926 924
f 828 834 829
f 829 927 830
f 829 834 928
f 829 928 927
f 830 927 929
f 830 929 831
f 831 929 930
f 831 930 835
f 833 836 834
f 834 836 928
f 835 930 931
f 835 931 926
f 835 926 925
f 836 837 932
f 836 932 933
f 836 933 934
f 836 934 928
f 837 858 932
f 838 848 935
f 838 935 913
f 838 913 936
f 838 936 937
f 838 937 938
f 838 938 939
f 838 939 839
f 839 939 840
f 842 850 843
f 843 850 940
f 843 940 941
f 843 941 844
f 844 941 846
f 845 846 942
f 846 941 943
f 846 943 942
f 847 944 945
f 847 945 935
f 847 935 848
f 847 946 947
f 847 947 948
f 847 948 944
f 849 856 850
f 850 856 949
f 850 949 950
f 850 950 951
f 850 951 952
f 850 952 953
f 850 953 954
f 850 954 940
f 851 955 857
f 851 854 956
f 851 956 955
f 853 922 957
f 853 957 854
f 854 957 958
f 854 958 959
f 854 959 956
f 855 857 955
f 855 955 960
f 855 960 856
f 856 960 949
f 858 961 962
f 858 962 932
f 858 871 963
f 858 963 961
f 859 912 964
f 859 964 965
f 859 965 860
f 860 965 966
f 860 966 861
f 861 966 863
f 863 875 864
f 863 966 967
f 863 967 968
f 863 968 969
f 863 969 970
f 863 970 873
f 864 875 865
f 866 869 868
f 870 872 874
f 870 874 971
f 870 971 972
f 870 972 871
f 871 972 963
f 873 970 973
f 873 973 971
f 873 971 874
f 878 920 974
f 878 974 880
f 878 880 879
f 880 974 975
f 880 975 882
f 882 975 883
f 883 886 976
f 883 976 884
f 883 975 886
f 884 976 885
f 885 976 886
f 886 977 892
f 886 975 977
f 889 895 890
f 890 895 894
f 890 894 899
f 890 899 891
f 892 978 893
f 892 977 978
f 893 978 894
f 894 978 979
f 894 979 980
f 894 980 981
f 894 981 982
f 894 982 983
f 894 983 899
f 896 898 984
f 896 984 985
f 896 985 986
f 896 986 905
f 896 905 904
f 897 901 898
f 898 901 984
f 899 983 900
f 900 983 901
f 901 987 988
f 901 988 989
f 901 989 984
f 901 983 982
f 901 982 990
f 901 990 987
f 902 991 903
f 902 906 991
f 903 991 992
f 903 992 993
f 903 993 994
f 903 994 995
f 903 995 996
f 903 996 908
f 905 986 906
f 906 986 997
f 906 997 998
f 906 998 999
f 906 999 993
f 906 993 1000
f 906 1000 1001
f 906 1001 992
f 906 992 991
f 908 996 1002
f 908 1002 909
f 909 1002 1003
f 909 1003 912
f 909 912 911
f 909 911 910
f 912 1003 1004
f 912 1004 964
f 913 937 936
f 913 935 1005
f 913 1005 914
f 914 1005 1006
f 914 1006 1007
f 914 1007 1008
f 914 1008 915
f 915 1008 916
f 916 1008 1009
f 916 1009 1010
f 916 1010 917
f 917 1010 1011
f 917 1011 1012
f 917 1012 918
f 918 1012 919
f 919 1012 1013
f 919 1013 920
f 920 1013 1014
f 920 1014 974
f 921 923 1015
f 921 1015 1016
f 921 1016 1017
f 921 1017 958
f 921 958 922
f 922 958 957
f 923 1018 1015
f 923 924 926
f 923 926 1019
f 923 1019 1018
f 926 931 1020
f 926 1020 1019
f 927 928 1021
f 927 1021 1022
f 927 1022 929
f 928 934 1021
f 929 1022 1023
f 929 1023 930
f 930 1023 1024
f 930 1024 931
f 931 1025 1020
f 931 1024 1026
f 931 1026 1025
f 932 1027 933
f 932 962 1027
f 933 1027 1028
f 933 1028 934
f 934 1028 1029
f 934 1029 1021
f 935 945 944
f 935 944 1006
f 935 1006 1005
f 940 954 941
f 941 954 1030
f 941 1030 1031
f 941 1031 1032
f 941 1032 1033
f 941 1033 947
f 941 947 943
f 942 943 947
f 942 947 1034
f 942 1034 946
f 944 1035 1006
f 944 948 1035
f 946 1034 947
f 947 1033 1036
f 947 1036 948
f 948 1036 1037
f 948 1037 1035
f 949 951 950
f 949 960 955
f 949 955 956
f 949 956 1038
f 949 1038 1039
f 949 1039 951
f 951 1039 952
f 952 1039 1040
f 952 1040 1041
f 952 1041 1042
f 952 1042 953
f 953 1042 954
f 954 1042 1030
f 956 959 1038
f 958 1017 1038
f 958 1038 959
f 961 963 972
f 961 972 1043
f 961 1043 1044
f 961 1044 1045
f 961 1045 1027
f 961 1027 962
f 964 1004 965
f 965 1004 966
f 966 1004 1046
f 966 1046 967
f 967 1046 1047
f 967 1047 1048
f 967 1048 1049
f 967 1049 968
f 968 1049 969
f 969 1050 1051
f 969 1051 1052
f 969 1052 1053
f 969 1053 1054
f 969 1054 970
f 969 1049 1050
f 970 1054 973
f 971 973 972
f 972 973 1043
f 973 1053 1055
f 973 1055 1043
f 973 1054 1053
f 974 1014 975
f 975 1014 1056
f 975 1056 977
f 977 1056 1014
f 977 1014 978
f 978 1057 1058
f 978 1058 979
f 978 1014 1059
f 978 1059 1057
f 979 1058 1060
f 979 1060 980
f 980 1060 1061
f 980 1061 1062
f 980 1062 981
f 981 1062 982
f 982 1062 990
f 984 989 985
f 985 989 997
f 985 997 986
f 987 1063 988
f 987 990 1063
f 988 997 989
f 988 1063 997
f 990 1062 1061
f 990 1061 1064
f 990 1064 1063
f 992 1001 1000
f 992 1000 993
f 993 999 998
f 993 998 1065
f 993 1065 1066
f 993 1066 1067
f 993 1067 1068
f 993 1068 994
f 994 1068 1069
f 994 1069 1070
f 994 1070 995
f 995 1070 1071
f 995 1071 996
f 996 1071 1072
f 996 1072 1073
f 996 1073 1074
f 996 1074 1002
f 997 1063 1075
f 997 1075 1076
f 997 1076 998
f 998 1076 1077
f 998 1077 1078
f 998 1078 1079
f 998 1079 1065
f 1002 1074 1080
f 1002 1080 1081
f 1002 1081 1003
f 1003 1081 1080
f 1003 1080 1082
f 1003 1082 1083
f 1003 1083 1004
f 1004 1084 1046
f 1004 1083 1085
f 1004 1085 1086
f 1004 1086 1087
f 1004 1087 1088
f 1004 1088 1089
f 1004 1089 1084
f 1006 1035 1090
f 1006 1090 1091
f 1006 1091 1007
f 1007 1091 1092
f 1007 1092 1093
f 1007 1093 1008
f 1008 1093 1094
f 1008 1094 1095
f 1008 1095 1096
f 1008 1096 1009
f 1009 1096 1010
f 1010 1096 1097
f 1010 1097 1098
f 1010 1098 1099
f 1010 1099 1012
f 1010 1012 1011
f 1012 1099 1013
f 1013 1100 1014
f 1013 1099 1100
f 1014 1100 1101
f 1014 1101 1102
f 1014 1102 1103
f 1014 1103 1059
f 1015 1104 1016
f 1015 1018 1104
f 1016 1104 1105
f 1016 1105 1106
f 1016 1106 1017
f 1017 1106 1105
f 1017 1105 1107
f 1017 1107 1038
f 1018 1108 1104
f 1018 1019 1020
f 1018 1020 1109
f 1018 1109 1108
f 1020 1110 1109
f 1020 1025 1111
f 1020 1111 1110
f 1021 1029 1112
f 1021 1112 1022
f 1022 1112 1113
f 1022 1113 1023
f 1023 1113 1114
f 1023 1114 1024
f 1024 1115 1116
f 1024 1116 1117
f 1024 1117 1026
f 1024 1114 1118
f 1024 1118 1115
f 1025 1026 1111
f 1026 1117 1116
f 1026 1116 1111
f 1027 1045 1119
f 1027 1119 1028
f 1028 1119 1120
f 1028 1120 1029
f 1029 1120 1112
f 1030 1042 1041
f 1030 1041 1121
f 1030 1121 1031
f 1031 1121 1122
f 1031 1122 1123
f 1031 1123 1124
f 1031 1124 1032
f 1032 1124 1125
f 1032 1125 1126
f 1032 1126 1033
f 1033 1127 1036
f 1033 1126 1128
f 1033 1128 1127
f 1035 1037 1129
f 1035 1129 1130
f 1035 1130 1131
f 1035 1131 1090
f 1036 1127 1129
f 1036 1129 1037
f 1038 1107 1040
f 1038 1040 1039
f 1040 1107 1105
f 1040 1105 1132
f 1040 1132 1133
f 1040 1133 1041
f 1041 1133 1134
f 1041 1134 1121
f 1043 1055 1044
f 1044 1055 1135
f 1044 1135 1136
f 1044 1136 1045
f 1045 1137 1138
f 1045 1138 1120
f 1045 1120 1119
f 1045 1136 1139
f 1045 1139 1137
f 1046 1084 1089
f 1046 1089 1140
f 1046 1140 1047
f 1047 1140 1048
f 1048 1140 1050
f 1048 1050 1049
f 1050 1140 1051
f 1051 1140 1052
f 1052 1140 1141
f 1052 1141 1142
f 1052 1142 1135
f 1052 1135 1053
f 1053 1135 1055
f 1057 1143 1144
f 1057 1144 1058
f 1057 1059 1103
f 1057 1103 1102
f 1057 1102 1143
f 1058 1144 1060
f 1060 1145 1061
f 1060 1144 1145
f 1061 1146 1064
f 1061 1145 1147
f 1061 1147 1146
f 1063 1148 1077
f 1063 1077 1075
f 1063 1064 1148
f 1064 1146 1149
f 1064 1149 1077
f 1064 1077 1148
f 1065 1079 1150
f 1065 1150 1066
f 1066 1150 1151
f 1066 1151 1067
f 1067 1151 1069
f 1067 1069 1068
f 1069 1151 1152
f 1069 1152 1153
f 1069 1153 1070
f 1070 1153 1071
f 1071 1153 1154
f 1071 1154 1155
f 1071 1155 1072
f 1072 1155 1082
f 1072 1082 1073
f 1073 1082 1080
f 1073 1080 1074
f 1075 1077 1076
f 1077 1149 1156
f 1077 1156 1078
f 1078 1150 1079
f 1078 1156 1150
f 1082 1155 1083
f 1083 1155 1154
f 1083 1154 1157
f 1083 1157 1086
f 1083 1086 1085
f 1086 1157 1158
f 1086 1158 1159
f 1086 1159 1087
f 1087 1159 1088
f 1088 1159 1160
f 1088 1160 1161
f 1088 1161 1162
f 1088 1162 1089
f 1089 1162 1163
f 1089 1163 1164
f 1089 1164 1140
f 1090 1131 1129
f 1090 1129 1165
f 1090 1165 1166
f 1090 1166 1167
f 1090 1167 1168
f 1090 1168 1169
f 1090 1169 1096
f 1090 1096 1170
f 1090 1170 1091
f 1091 1170 1095
f 1091 1095 1094
f 1091 1094 1093
f 1091 1093 1092
f 1095 1170 1096
f 1096 1169 1171
f 1096 1171 1172
f 1096 1172 1098
f 1096 1098 1097
f 1098 1172 1173
f 1098 1173 1174
f 1098 1174 1175
f 1098 1175 1099
f 1099 1175 1100
f 1100 1175 1176
f 1100 1176 1177
f 1100 1177 1102
f 1100 1102 1101
f 1102 1177 1178
f 1102 1178 1143
f 1104 1108 1179
f 1104 1179 1180
f 1104 1180 1181
f 1104 1181 1182
f 1104 1182 1183
f 1104 1183 1105
f 1105 1183 1133
f 1105 1133 1132
f 1108 1184 1179
f 1108 1109 1185
f 1108 1185 1186
f 1108 1186 1184
f 1109 1110 1185
f 1110 1187 1185
f 1110 1111 1116
f 1110 1116 1187
f 1112 1120 1138
f 1112 1138 1188
f 1112 1188 1113
f 1113 1188 1114
f 1114 1188 1189
f 1114 1189 1190
f 1114 1190 1118
f 1115 1191 1192
f 1115 1192 1193
f 1115 1193 1194
f 1115 1194 1195
f 1115 1195 1116
f 1115 1118 1196
f 1115 1196 1191
f 1116 1197 1187
f 1116 1195 1197
f 1118 1190 1198
f 1118 1198 1196
f 1121 1134 1122
f 1122 1134 1123
f 1123 1125 1124
f 1123 1134 1199
f 1123 1199 1200
f 1123 1200 1125
f 1125 1200 1201
f 1125 1201 1128
f 1125 1128 1126
f 1127 1128 1129
f 1128 1201 1202
f 1128 1202 1203
f 1128 1203 1129
f 1129 1203 1165
f 1129 1131 1130
f 1133 1204 1134
f 1133 1183 1182
f 1133 1182 1204
f 1134 1204 1205
f 1134 1205 1206
f 1134 1206 1199
f 1135 1142 1207
f 1135 1207 1139
f 1135 1139 1136
f 1137 1139 1188
f 1137 1188 1138
f 1139 1208 1188
f 1139 1207 1209
f 1139 1209 1210
f 1139 1210 1211
f 1139 1211 1208
f 1140 1164 1163
f 1140 1163 1212
f 1140 1212 1141
f 1141 1212 1213
f 1141 1213 1142
f 1142 1213 1214
f 1142 1214 1215
f 1142 1215 1209
f 1142 1209 1207
f 1143 1178 1177
f 1143 1177 1144
f 1144 1216 1217
f 1144 1217 1145
f 1144 1177 1176
f 1144 1176 1218
f 1144 1218 1216
f 1145 1217 1216
f 1145 1216 1219
f 1145 1219 1147
f 1146 1220 1221
f 1146 1221 1149
f 1146 1147 1219
f 1146 1219 1222
f 1146 1222 1223
f 1146 1223 1220
f 1149 1224 1225
f 1149 1225 1156
f 1149 1221 1224
f 1150 1156 1225
f 1150 1225 1152
f 1150 1152 1151
f 1152 1225 1224
f 1152 1224 1153
f 1153 1159 1158
f 1153 1158 1157
f 1153 1157 1154
f 1153 1224 1226
f 1153 1226 1159
f 1159 1226 1227
f 1159 1227 1161
f 1159 1161 1160
f 1161 1227 1210
f 1161 1210 1162
f 1162 1210 1214
f 1162 1214 1212
f 1162 1212 1163
f 1165 1203 1202
f 1165 1202 1228
f 1165 1228 1229
f 1165 1229 1166
f 1166 1229 1167
f 1167 1229 1230
f 1167 1230 1168
f 1168 1230 1169
f 1169 1230 1231
f 1169 1231 1232
f 1169 1232 1233
f 1169 1233 1234
f 1169 1234 1235
f 1169 1235 1171
f 1171 1235 1172
f 1172 1235 1173
f 1173 1236 1237
f 1173 1237 1238
f 1173 1238 1239
f 1173 1239 1174
f 1173 1235 1236
f 1174 1239 1176
f 1174 1176 1175
f 1176 1238 1218
f 1176 1239 1238
f 1179 1184 1240
f 1179 1240 1206
f 1179 1206 1180
f 1180 1206 1205
f 1180 1205 1181
f 1181 1205 1204
f 1181 1204 1182
f 1184 1241 1242
f 1184 1242 1240
f 1184 1186 1246
f 1184 1246 1241
f 1185 1187 1243
f 1185 1243 1244
f 1185 1244 1186
f 1186 1244 1245
f 1186 1245 1246
f 1187 1197 1256
f 1187 1256 1243
f 1188 1208 1189
f 1189 1208 1247
f 1189 1247 1190
f 1190 1247 1248
f 1190 1248 1249
f 1190 1249 1250
f 1190 1250 1198
f 1191 1251 1252
f 1191 1252 1253
f 1191 1253 1192
f 1191 1196 1251
f 1192 1253 1254
f 1192 1254 1255
f 1192 1255 1193
f 1193 1255 1194
f 1194 1197 1195
f 1194 1255 1244
f 1194 1244 1256
f 1194 1256 1197
f 1196 1257 1251
f 1196 1198 1258
f 1196 1258 1257
f 1198 1250 1259
f 1198 1259 1260
f 1198 1260 1258
f 1199 1261 1200
f 1199 1206 1240
f 1199 1240 1261
f 1200 1261 1262
f 1200 1262 1263
f 1200 1263 1264
f 1200 1264 1201
f 1201 1264 1202
f 1202 1264 1265
f 1202 1265 1266
f 1202 1266 1228
f 1208 1211 1267
f 1208 1267 1247
f 1209 1215 1210
f 1210 1227 1268
f 1210 1268 1211
f 1210 1215 1214
f 1211 1268 1267
f 1212 1214 1213
f 1216 1269 1270
f 1216 1270 1219
f 1216 1218 1269
f 1218 1238 1271
f 1218 1271 1237
f 1218 1237 1269
f 1219 1270 1272
f 1219 1272 1273
f 1219 1273 1222
f 1220 1260 1259
f 1220 1259 1221
f 1220 1223 1258
f 1220 1258 1260
f 1221 1259 1224
f 1222 1273 1257
f 1222 1257 1223
f 1223 1257 1258
f 1224 1259 1274
f 1224 1274 1226
f 1226 1274 1227
f 1227 1274 1268
f 1228 1266 1229
f 1229 1266 1275
f 1229 1275 1230
f 1230 1275 1266
f 1230 1266 1231
f 1231 1266 1276
f 1231 1276 1232
f 1232 1276 1277
f 1232 1277 1278
f 1232 1278 1279
f 1232 1279 1233
f 1233 1279 1280
f 1233 1280 1237
f 1233 1237 1236
f 1233 1236 1234
f 1234 1236 1235
f 1237 1271 1238
f 1237 1280 1281
f 1237 1281 1282
f 1237 1282 1283
f 1237 1283 1269
f 1240 1242 1261
f 1241 1246 1263
f 1241 1263 1262
f 1241 1262 1242
f 1242 1262 1261
f 1243 1256 1244
f 1244 1255 1284
f 1244 1284 1245
f 1245 1284 1285
f 1245 1285 1286
f 1245 1286 1246
f 1246 1286 1287
f 1246 1287 1263
f 1247 1267 1268
f 1247 1268 1288
f 1247 1288 1248
f 1248 1288 1249
f 1249 1259 1250
f 1249 1288 1274
f 1249 1274 1259
f 1251 1273 1289
f 1251 1289 1252
f 1251 1257 1273
f 1252 1289 1290
f 1252 1290 1253
f 1253 1290 1291
f 1253 1291 1254
f 1254 1291 1292
f 1254 1292 1255
f 1255 1292 1284
f 1263 1287 1264
f 1264 1287 1293
f 1264 1293 1265
f 1265 1293 1266
f 1266 1277 1276
f 1266 1293 1285
f 1266 1285 1294
f 1266 1294 1295
f 1266 1295 1278
f 1266 1278 1277
f 1268 1274 1288
f 1269 1283 1296
f 1269 1296 1270
f 1270 1296 1297
f 1270 1297 1272
f 1272 1291 1290
f 1272 1290 1289
f 1272 1289 1273
f 1272 1297 1282
f 1272 1282 1280
f 1272 1280 1279
f 1272 1279 1278
f 1272 1278 1298
f 1272 1298 1294
f 1272 1294 1284
f 1272 1284 1292
f 1272 1292 1291
f 1278 1295 1294
f 1278 1294 1298
f 1280 1282 1281
f 1282 1297 1283
f 1283 1297 1296
f 1284 1294 1285
f 1285 1293 1286
f 1286 1293 1287

