# https://github.com/mikedh/trimesh
v -0.03147246 -0.00851319 0.10366783
v -0.03147246 -0.00758940 0.10356815
v -0.03241166 -0.00859745 0.10365877
v -0.03147246 -0.00888770 0.10366783
v -0.03050371 -0.00851319 0.10366557
v -0.03147246 -0.00586043 0.10325096
v -0.03314610 -0.00943385 0.10334385
v -0.03241166 -0.00872853 0.10365877
v -0.03332134 -0.00586043 0.10279557
v -0.03314610 -0.00787341 0.10327815
v -0.03147246 -0.00981460 0.10362026
v -0.03050371 -0.00888145 0.10366557
v -0.02978109 -0.00782347 0.10338690
v -0.02962161 -0.00586043 0.10304479
v -0.02962161 -0.00400974 0.10246480
v -0.03147246 -0.00400974 0.10263925
v -0.03489063 -0.00956181 0.10236284
v -0.03484928 -0.01141250 0.10228355
v -0.03332134 -0.01141250 0.10309690
v -0.03332134 -0.01326007 0.10283862
v -0.03147246 -0.01141250 0.10342088
v -0.03456180 -0.00586043 0.10209097
v -0.03480399 -0.00771112 0.10231073
v -0.03267157 -0.00284877 0.10193917
v -0.03330165 -0.00407216 0.10217706
v -0.03435112 -0.00473067 0.10189839
v -0.02962161 -0.01141250 0.10305612
v -0.02978109 -0.00952436 0.10338690
v -0.02155268 -0.01696457 0.09939942
v -0.02792040 -0.00771112 0.10242855
v -0.02805232 -0.00586043 0.10230394
v -0.02839689 -0.00400974 0.10202753
v -0.02865483 -0.00303290 0.10183042
v -0.02962161 -0.00282692 0.10195050
v -0.03147246 -0.00268648 0.10203206
v -0.03581605 -0.00956181 0.10150418
v -0.03577470 -0.01141250 0.10148152
v -0.03566838 -0.01326007 0.10140676
v -0.03474295 -0.01326007 0.10217480
v -0.03459528 -0.01511076 0.10204566
v -0.03442004 -0.01639969 0.10191652
v -0.03332134 -0.01511076 0.10254409
v -0.03147246 -0.01326007 0.10308557
v -0.03548723 -0.00586043 0.10114168
v -0.03572942 -0.00771112 0.10140676
v -0.03390613 -0.00349791 0.10156761
v -0.03147246 -0.00176270 0.10145886
v -0.03147246 -0.00054243 0.10053223
v -0.03292557 -0.00080770 0.10031473
v -0.03341585 -0.00209039 0.10094004
v -0.03459331 -0.00256477 0.10033286
v -0.03508950 -0.00416578 0.10078824
v -0.03614881 -0.00483053 0.10001114
v -0.03147246 -0.01511076 0.10272081
v -0.02962161 -0.01326007 0.10264831
v -0.02155268 -0.01972344 0.09908224
v -0.02155268 -0.01881526 0.09925216
v -0.02155268 -0.01835025 0.09929974
v -0.02155268 -0.01657134 0.09937677
v -0.02712689 -0.00586043 0.10153136
v -0.02155268 -0.01514197 0.09909810
v -0.02747147 -0.00400974 0.10124590
v -0.02673900 -0.00286749 0.10007458
v -0.02787314 -0.00233382 0.10077239
v -0.02832601 -0.00087636 0.10023770
v -0.02962161 -0.00190002 0.10139996
v -0.03664106 -0.00956181 0.10057981
v -0.03663515 -0.01141250 0.10055489
v -0.03657805 -0.01326007 0.10048238
v -0.03651505 -0.01511076 0.10039629
v -0.03552070 -0.01511076 0.10132293
v -0.03639100 -0.01696457 0.10023996
v -0.03623151 -0.01810994 0.10007004
v -0.03385887 -0.01763556 0.10171714
v -0.03327409 -0.01699578 0.10206151
v -0.03632208 -0.00586043 0.10021504
v -0.03654655 -0.00771112 0.10048012
v -0.03416013 -0.00133201 0.09986387
v -0.02962161 -0.00059548 0.10047332
v -0.02962161 0.00032830 0.09967356
v -0.03147246 0.00038136 0.09970755
v -0.03285272 0.00094936 0.09851584
v -0.03350643 -0.00017104 0.09919099
v -0.03523520 -0.00204982 0.09912302
v -0.03582787 -0.00359778 0.09961466
v -0.03628270 -0.00277075 0.09837990
v -0.03648748 -0.00413145 0.09900974
v -0.03706833 -0.00586043 0.09902786
v -0.03262629 -0.01796638 0.10184855
v -0.03133660 -0.01713622 0.10211816
v -0.03062973 -0.01786963 0.10179644
v -0.03008038 -0.01663688 0.10201394
v -0.02155268 -0.02058481 0.09879451
v -0.02650469 -0.00400974 0.10031926
v -0.02155268 -0.01326007 0.09833006
v -0.02547688 -0.00387242 0.09898482
v -0.02502007 -0.00316398 0.09805592
v -0.02627038 -0.00221523 0.09905279
v -0.02709145 -0.00163474 0.09968942
v -0.02768215 -0.00023970 0.09907997
v -0.02827284 0.00092751 0.09847052
v -0.03756649 -0.00956181 0.09939716
v -0.03829304 -0.01141250 0.09855435
v -0.03756058 -0.01141250 0.09948099
v -0.03830289 -0.01326007 0.09852490
v -0.03750348 -0.01326007 0.09944927
v -0.03744047 -0.01511076 0.09938583
v -0.03818672 -0.01696457 0.09837084
v -0.03731642 -0.01696457 0.09929747
v -0.03807842 -0.01818796 0.09824623
v -0.03512691 -0.01876220 0.10041895
v -0.03777126 -0.01942071 0.09791998
v -0.03571170 -0.01934581 0.09971661
v -0.03447714 -0.01987324 0.10008364
v -0.03327409 -0.01867482 0.10123910
v -0.03754680 -0.00761437 0.09895536
v -0.03818672 -0.00956181 0.09847052
v -0.03408728 0.00046562 0.09788146
v -0.03464450 -0.00076713 0.09862912
v -0.03587906 -0.00153799 0.09775685
v -0.02962161 0.00115846 0.09874919
v -0.03147246 0.00117407 0.09878318
v -0.03147246 0.00210097 0.09751217
v -0.03252784 0.00255038 0.09639975
v -0.03330756 0.00151736 0.09714061
v -0.03623742 -0.00103553 0.09652210
v -0.03654655 -0.00215593 0.09715420
v -0.03745229 -0.00416578 0.09701600
v -0.03777126 -0.00586043 0.09760733
v -0.03791697 -0.00693402 0.09801513
v -0.03186232 -0.01796638 0.10184855
v -0.03332134 -0.02003553 0.10023770
v -0.03147246 -0.02013228 0.10031246
v -0.03133660 -0.01867482 0.10134558
v -0.03147246 -0.02105606 0.09929974
v -0.02962161 -0.02173018 0.09829834
v -0.02155268 -0.02187998 0.09717686
v -0.02155268 -0.01204292 0.09779990
v -0.02478182 -0.00215905 0.09671694
v -0.02496691 -0.00118845 0.09630007
v -0.02528195 -0.00215905 0.09764131
v -0.02658542 -0.00083579 0.09845466
v -0.02703829 0.00039696 0.09785654
v -0.02777863 0.00152673 0.09713381
v -0.02851700 0.00256286 0.09641108
v -0.03983673 -0.01212718 0.09631366
v -0.03923029 -0.01326007 0.09726749
v -0.03918303 -0.01511076 0.09725162
v -0.03825760 -0.01511076 0.09845920
v -0.03924210 -0.01704571 0.09701600
v -0.03978948 -0.01771671 0.09623210
v -0.03860021 -0.01880902 0.09725162
v -0.03959061 -0.01881526 0.09591944
v -0.03829895 -0.02012291 0.09668522
v -0.03653867 -0.02011667 0.09848412
v -0.03500089 -0.02061289 0.09891911
v -0.03429008 -0.02160534 0.09812389
v -0.03805677 -0.00816677 0.09829154
v -0.03448895 0.00085261 0.09664671
v -0.03518401 -0.00028339 0.09720178
v -0.02962161 0.00208537 0.09752123
v -0.02962161 0.00266897 0.09659686
v -0.03147246 0.00265961 0.09658780
v -0.03377421 0.00209161 0.09532585
v -0.03147246 0.00322449 0.09532585
v -0.03147246 0.00382370 0.09347485
v -0.03284878 0.00277196 0.09532585
v -0.03574911 0.00021907 0.09532585
v -0.03643432 -0.00070471 0.09532585
v -0.03721601 -0.00215905 0.09532585
v -0.03780473 -0.00351352 0.09532585
v -0.03796422 -0.00488983 0.09629327
v -0.03811190 -0.00586043 0.09668069
v -0.03914365 -0.00771112 0.09532585
v -0.03996669 -0.00993632 0.09483195
v -0.03972647 -0.01089755 0.09606444
v -0.03332134 -0.02095931 0.09915700
v -0.03147246 -0.02177387 0.09837310
v -0.02155268 -0.02685780 0.09031659
v -0.02155268 -0.01124397 0.09710889
v -0.02155268 -0.00040511 0.08534131
v -0.02155268 0.00018786 0.08458006
v -0.02155268 0.00084325 0.08365570
v -0.02478576 -0.00087012 0.09532585
v -0.02538433 0.00005678 0.09532585
v -0.02662677 0.00089318 0.09662405
v -0.02598881 -0.00039574 0.09707944
v -0.02155268 -0.00955245 0.09542554
v -0.02425216 -0.00215905 0.09532585
v -0.02728244 0.00212906 0.09563624
v -0.02684336 0.00246924 0.09440375
v -0.02784951 0.00274075 0.09514234
v -0.02777075 0.00325882 0.09347485
v -0.02962161 0.00388612 0.09347485
v -0.02962161 0.00326194 0.09532585
v -0.04011239 -0.01147492 0.09539836
v -0.04034473 -0.01326007 0.09532585
v -0.03985642 -0.01326007 0.09634085
v -0.03984855 -0.01511076 0.09632726
v -0.03982886 -0.01648395 0.09629327
v -0.04022069 -0.01704571 0.09549804
v -0.04112052 -0.01696457 0.09347485
v -0.04012618 -0.01881526 0.09499508
v -0.03990762 -0.01988885 0.09459406
v -0.03880892 -0.02062226 0.09521937
v -0.03761374 -0.02135567 0.09584241
v -0.03707621 -0.02073773 0.09721991
v -0.03552464 -0.02134942 0.09775459
v -0.03332134 -0.02167400 0.09823037
v -0.03637918 -0.02173330 0.09652210
v -0.03501270 -0.02185189 0.09715420
v -0.02155268 -0.02735715 0.08942394
v -0.02155268 -0.02713868 0.08988386
v -0.03482368 0.00116470 0.09532585
v -0.03410106 0.00234752 0.09390305
v -0.03064154 0.00433865 0.09092151
v -0.03134447 0.00414516 0.09157174
v -0.03332134 0.00327131 0.09162611
v -0.03341979 0.00295922 0.09336157
v -0.03600901 0.00050619 0.09404352
v -0.03657411 -0.00018977 0.09344540
v -0.03765312 -0.00216841 0.09365836
v -0.03811584 -0.00278947 0.09316446
v -0.03794847 -0.00308596 0.09439696
v -0.03813159 -0.00444042 0.09532585
v -0.03859036 -0.00586043 0.09532585
v -0.03978160 -0.00870356 0.09433125
v -0.04078382 -0.01141250 0.09347485
v -0.02511458 0.00044065 0.09399141
v -0.02155268 0.00158290 0.08237109
v -0.02641609 0.00152360 0.09514234
v -0.02155268 0.00228198 0.08105024
v -0.02155268 0.00252541 0.08052462
v -0.02777075 0.00359900 0.09162611
v -0.02971611 0.00420757 0.09157174
v -0.03039542 0.00433865 0.09092151
v -0.04105160 -0.01326007 0.09347485
v -0.04112445 -0.01511076 0.09347485
v -0.04035852 -0.01511076 0.09532585
v -0.04153794 -0.01687718 0.09152190
v -0.04076610 -0.01881526 0.09347485
v -0.04012421 -0.02019470 0.09347485
v -0.03929920 -0.02111848 0.09347485
v -0.03808433 -0.02168336 0.09460766
v -0.03700729 -0.02192679 0.09526469
v -0.03517219 -0.02246046 0.09532585
v -0.02221820 -0.02729473 0.08919964
v -0.02155268 -0.02754440 0.08792411
v -0.02326767 -0.02717926 0.08891644
v -0.03428024 0.00249732 0.09267056
v -0.03514463 0.00151424 0.09335704
v -0.03064154 0.00433865 0.09059979
v -0.03134447 0.00408898 0.08989972
v -0.03332134 0.00323073 0.08977511
v -0.03432159 0.00252853 0.08977511
v -0.03433537 0.00254102 0.09162611
v -0.03615078 0.00068408 0.09281103
v -0.03770825 -0.00164410 0.09162611
v -0.03825169 -0.00256789 0.09162611
v -0.03842497 -0.00382561 0.09365836
v -0.03891524 -0.00400974 0.09162611
v -0.03916728 -0.00586043 0.09347485
v -0.04019312 -0.00941513 0.09361758
v -0.03995290 -0.00812932 0.09309649
v -0.04111264 -0.01141250 0.09162611
v -0.04065387 -0.00956181 0.09162611
v -0.02962554 0.00268146 0.08052462
v -0.03039542 0.00433865 0.09059979
v -0.02155268 -0.02712932 0.08052462
v -0.04137058 -0.01326007 0.09162611
v -0.04153401 -0.01520751 0.09152190
v -0.04134892 -0.01870915 0.08052462
v -0.04110673 -0.01881526 0.09162611
v -0.04166593 -0.01588474 0.09083542
v -0.04166593 -0.01620307 0.09083542
v -0.04028172 -0.02039755 0.09162611
v -0.03950398 -0.02132134 0.09162611
v -0.03837377 -0.02184877 0.09347485
v -0.03702304 -0.02240429 0.09347485
v -0.02155268 -0.02750071 0.08673693
v -0.02221820 -0.02741644 0.08792411
v -0.02591990 -0.02666119 0.08607310
v -0.02417537 -0.02699200 0.08607310
v -0.02324995 -0.02716365 0.08607310
v -0.03248452 -0.02530984 0.08521217
v -0.02777075 -0.02629292 0.08607310
v -0.02334052 -0.02718862 0.08792411
v -0.03526080 0.00167653 0.09162611
v -0.03147639 0.00261592 0.08052462
v -0.03246483 0.00249420 0.08052462
v -0.03339222 0.00214466 0.08052462
v -0.03531002 0.00127705 0.08052462
v -0.03560734 0.00112725 0.08052462
v -0.03688718 0.00031582 0.08052462
v -0.03708802 0.00016290 0.08052462
v -0.03823988 -0.00084515 0.08052462
v -0.03827532 -0.00087636 0.08052462
v -0.03689112 -0.00030836 0.09162611
v -0.03620591 0.00075274 0.09162611
v -0.03922635 -0.00219962 0.08052462
v -0.04021872 -0.00400038 0.08052462
v -0.03983279 -0.00486486 0.08723989
v -0.03975010 -0.00510205 0.08847465
v -0.03966346 -0.00539542 0.08977511
v -0.03957092 -0.00594157 0.09166689
v -0.03976782 -0.00689345 0.09231033
v -0.04083895 -0.00956181 0.08977511
v -0.04083108 -0.00586043 0.08052462
v -0.04113430 -0.00771112 0.08052462
v -0.04006317 -0.00759253 0.09166689
v -0.04035458 -0.00771112 0.08977511
v -0.04054951 -0.00771112 0.08792411
v -0.02155268 -0.02715429 0.08090524
v -0.02406905 -0.02668303 0.08052462
v -0.04133317 -0.00929965 0.08052462
v -0.04157142 -0.01728914 0.08052462
v -0.04070112 -0.02066595 0.08052462
v -0.04000804 -0.02182380 0.08237109
v -0.04165805 -0.01326007 0.08052462
v -0.04166593 -0.01511076 0.08052462
v -0.04134301 -0.00939640 0.08052462
v -0.04153204 -0.01141250 0.08052462
v -0.04166593 -0.01620307 0.09036417
v -0.03802723 -0.02349036 0.08355601
v -0.03857855 -0.02199545 0.09162611
v -0.03712149 -0.02379309 0.08419264
v -0.03517219 -0.02459516 0.08422210
v -0.02155268 -0.02746950 0.08607310
v -0.02314559 -0.02714493 0.08513740
v -0.02962161 -0.02590281 0.08422210
v -0.03147246 -0.02553766 0.08422210
v -0.03250027 -0.02531608 0.08290351
v -0.02777075 -0.02624923 0.08422210
v -0.03346508 -0.02511635 0.08422210
v -0.03253965 -0.02532232 0.08422210
v -0.04002969 -0.00577617 0.08788333
v -0.03985249 -0.00661569 0.09107784
v -0.02155268 -0.02737587 0.08433311
v -0.02777075 -0.02614624 0.08237109
v -0.02777075 -0.02602140 0.08052462
v -0.04159898 -0.01696457 0.08052462
v -0.04005332 -0.02183004 0.08052462
v -0.03896644 -0.02275071 0.08237109
v -0.03804101 -0.02349972 0.08237109
v -0.03702304 -0.02393040 0.08237109
v -0.03517219 -0.02459203 0.08237109
v -0.02155268 -0.02741644 0.08503092
v -0.03161422 -0.02545028 0.08232125
v -0.02962161 -0.02581542 0.08237109
v -0.03319926 -0.02511946 0.08232125
v -0.03232700 -0.02527863 0.08167102
v -0.02962161 -0.02568123 0.08052462
v -0.03999425 -0.02187686 0.08052462
v -0.03799376 -0.02346851 0.08129493
v -0.03709590 -0.02372755 0.08061298
v -0.03332134 -0.02491661 0.08052462
v -0.03525489 -0.02436421 0.08052462
v -0.03517219 -0.02439230 0.08052462
v -0.03205134 -0.02522558 0.08052462
v -0.03113182 -0.02540035 0.08052462
v -0.03879120 -0.02276943 0.08052462
v -0.03871638 -0.02284121 0.08061298
v -0.03856083 -0.02292236 0.08052462
v -0.03720419 -0.02366513 0.08052462
v -0.03707030 -0.02372443 0.08052462
v -0.03873016 -0.02281000 0.08052462
f 1 2 3
f 1 3 8
f 1 8 4
f 1 4 12
f 1 12 5
f 1 5 2
f 2 5 6
f 2 6 3
f 3 7 8
f 3 6 9
f 3 9 10
f 3 10 7
f 4 8 11
f 4 11 12
f 5 12 28
f 5 28 13
f 5 13 14
f 5 14 6
f 6 14 15
f 6 15 16
f 6 16 9
f 7 10 17
f 7 17 18
f 7 18 19
f 7 19 8
f 8 19 20
f 8 20 21
f 8 21 11
f 9 22 23
f 9 23 10
f 9 16 24
f 9 24 25
f 9 25 26
f 9 26 22
f 10 23 17
f 11 21 12
f 12 21 27
f 12 27 28
f 13 28 29
f 13 29 30
f 13 30 31
f 13 31 14
f 14 31 32
f 14 32 33
f 14 33 15
f 15 33 34
f 15 34 16
f 16 34 35
f 16 35 24
f 17 23 36
f 17 36 37
f 17 37 18
f 18 37 38
f 18 38 39
f 18 39 19
f 19 39 40
f 19 40 20
f 20 40 41
f 20 41 42
f 20 42 21
f 21 42 43
f 21 43 27
f 22 44 45
f 22 45 23
f 22 26 44
f 23 45 36
f 24 46 25
f 24 35 47
f 24 47 48
f 24 48 49
f 24 49 50
f 24 50 46
f 25 46 26
f 26 46 51
f 26 51 52
f 26 52 53
f 26 53 44
f 27 43 54
f 27 54 55
f 27 55 56
f 27 56 57
f 27 57 28
f 28 57 58
f 28 58 29
f 29 58 57
f 29 57 56
f 29 56 93
f 29 93 137
f 29 137 179
f 29 179 213
f 29 213 212
f 29 212 248
f 29 248 280
f 29 280 328
f 29 328 347
f 29 347 338
f 29 338 313
f 29 313 269
f 29 269 233
f 29 233 232
f 29 232 230
f 29 230 183
f 29 183 182
f 29 182 181
f 29 181 188
f 29 188 180
f 29 180 138
f 29 138 95
f 29 95 61
f 29 61 59
f 29 59 30
f 30 59 31
f 31 60 32
f 31 59 61
f 31 61 60
f 32 60 62
f 32 62 33
f 33 63 64
f 33 64 65
f 33 65 66
f 33 66 34
f 33 62 63
f 34 66 35
f 35 66 47
f 36 45 67
f 36 67 68
f 36 68 37
f 37 68 69
f 37 69 70
f 37 70 38
f 38 70 71
f 38 71 39
f 39 71 40
f 40 71 41
f 41 72 73
f 41 73 74
f 41 74 75
f 41 75 42
f 41 71 72
f 42 54 43
f 42 75 54
f 44 76 45
f 44 53 76
f 45 77 67
f 45 76 77
f 46 50 78
f 46 78 51
f 47 66 79
f 47 79 48
f 48 79 80
f 48 80 81
f 48 81 49
f 49 81 82
f 49 82 83
f 49 83 78
f 49 78 50
f 51 84 85
f 51 85 52
f 51 78 84
f 52 85 53
f 53 85 86
f 53 86 87
f 53 87 88
f 53 88 76
f 54 75 89
f 54 89 90
f 54 90 91
f 54 91 92
f 54 92 55
f 55 92 56
f 56 92 91
f 56 91 93
f 60 94 62
f 60 61 94
f 61 95 94
f 62 94 63
f 63 94 96
f 63 96 97
f 63 97 98
f 63 98 99
f 63 99 64
f 64 99 65
f 65 99 100
f 65 100 101
f 65 101 80
f 65 80 79
f 65 79 66
f 67 77 102
f 67 102 103
f 67 103 104
f 67 104 68
f 68 104 105
f 68 105 106
f 68 106 107
f 68 107 69
f 69 107 70
f 70 107 108
f 70 108 109
f 70 109 72
f 70 72 71
f 72 109 110
f 72 110 73
f 73 111 74
f 73 110 112
f 73 112 113
f 73 113 111
f 74 111 114
f 74 114 115
f 74 115 89
f 74 89 75
f 76 88 116
f 76 116 77
f 77 116 117
f 77 117 102
f 78 83 118
f 78 118 119
f 78 119 120
f 78 120 84
f 80 101 121
f 80 121 81
f 81 121 122
f 81 122 82
f 82 122 123
f 82 123 124
f 82 124 125
f 82 125 118
f 82 118 83
f 84 86 85
f 84 120 86
f 86 120 126
f 86 126 127
f 86 127 128
f 86 128 87
f 87 128 129
f 87 129 88
f 88 129 130
f 88 130 116
f 89 131 90
f 89 115 132
f 89 132 133
f 89 133 131
f 90 131 91
f 91 131 134
f 91 134 93
f 93 134 133
f 93 133 135
f 93 135 136
f 93 136 137
f 94 95 138
f 94 138 96
f 96 138 97
f 97 139 140
f 97 140 141
f 97 141 142
f 97 142 98
f 97 138 139
f 98 142 99
f 99 142 143
f 99 143 100
f 100 143 101
f 101 143 144
f 101 144 145
f 101 145 121
f 102 117 103
f 103 146 147
f 103 147 105
f 103 105 104
f 103 117 146
f 105 147 148
f 105 148 149
f 105 149 106
f 106 149 107
f 107 149 108
f 108 150 151
f 108 151 110
f 108 110 109
f 108 149 150
f 110 151 152
f 110 152 112
f 111 113 114
f 112 152 153
f 112 153 154
f 112 154 155
f 112 155 113
f 113 155 114
f 114 155 156
f 114 156 157
f 114 157 132
f 114 132 115
f 116 130 158
f 116 158 117
f 117 158 146
f 118 125 159
f 118 159 160
f 118 160 119
f 119 160 120
f 120 160 126
f 121 145 161
f 121 161 122
f 122 161 123
f 123 161 162
f 123 162 163
f 123 163 124
f 124 164 159
f 124 159 125
f 124 163 165
f 124 165 166
f 124 166 167
f 124 167 164
f 126 160 159
f 126 159 168
f 126 168 169
f 126 169 170
f 126 170 127
f 127 170 171
f 127 171 128
f 128 172 129
f 128 171 172
f 129 172 173
f 129 173 174
f 129 174 175
f 129 175 130
f 130 175 176
f 130 176 158
f 131 133 134
f 132 157 177
f 132 177 135
f 132 135 133
f 135 177 178
f 135 178 136
f 136 178 179
f 136 179 137
f 138 180 139
f 139 180 140
f 140 181 182
f 140 182 183
f 140 183 184
f 140 184 185
f 140 185 186
f 140 186 187
f 140 187 142
f 140 142 141
f 140 180 188
f 140 188 189
f 140 189 181
f 142 187 143
f 143 186 144
f 143 187 186
f 144 190 145
f 144 186 190
f 145 190 191
f 145 191 192
f 145 192 193
f 145 193 194
f 145 194 195
f 145 195 162
f 145 162 161
f 146 196 197
f 146 197 198
f 146 198 147
f 146 158 176
f 146 176 196
f 147 198 199
f 147 199 148
f 148 199 200
f 148 200 150
f 148 150 149
f 150 200 151
f 151 200 201
f 151 201 202
f 151 202 203
f 151 203 153
f 151 153 152
f 153 203 204
f 153 204 154
f 154 204 205
f 154 205 206
f 154 206 207
f 154 207 155
f 155 207 208
f 155 208 156
f 156 208 157
f 157 209 177
f 157 208 210
f 157 210 211
f 157 211 212
f 157 212 213
f 157 213 209
f 159 164 214
f 159 214 168
f 162 195 163
f 163 195 165
f 164 167 215
f 164 215 214
f 165 195 194
f 165 194 166
f 166 194 216
f 166 216 217
f 166 217 218
f 166 218 219
f 166 219 167
f 167 219 215
f 168 214 220
f 168 220 169
f 169 220 221
f 169 221 222
f 169 222 223
f 169 223 170
f 170 223 224
f 170 224 171
f 171 224 225
f 171 225 172
f 172 226 174
f 172 174 173
f 172 225 226
f 174 227 175
f 174 226 227
f 175 227 228
f 175 228 196
f 175 196 176
f 177 209 178
f 178 209 213
f 178 213 179
f 181 189 188
f 183 229 184
f 183 230 229
f 184 229 185
f 185 229 231
f 185 231 186
f 186 231 191
f 186 191 190
f 191 232 233
f 191 233 193
f 191 193 192
f 191 231 229
f 191 229 232
f 193 234 194
f 193 233 234
f 194 234 235
f 194 235 236
f 194 236 216
f 196 228 237
f 196 237 197
f 197 237 238
f 197 238 239
f 197 239 198
f 198 239 199
f 199 239 201
f 199 201 200
f 201 239 202
f 202 240 241
f 202 241 203
f 202 239 238
f 202 238 240
f 203 241 204
f 204 242 243
f 204 243 244
f 204 244 205
f 204 241 242
f 205 244 206
f 206 244 210
f 206 210 207
f 207 210 208
f 210 245 246
f 210 246 211
f 210 244 245
f 211 246 212
f 212 247 248
f 212 246 249
f 212 249 247
f 214 215 220
f 215 219 250
f 215 250 251
f 215 251 220
f 216 236 268
f 216 268 252
f 216 252 217
f 217 252 253
f 217 253 254
f 217 254 218
f 218 254 255
f 218 255 256
f 218 256 250
f 218 250 219
f 220 251 257
f 220 257 221
f 221 258 259
f 221 259 223
f 221 223 222
f 221 257 258
f 223 260 224
f 223 259 261
f 223 261 260
f 224 260 225
f 225 260 262
f 225 262 226
f 226 262 227
f 227 263 228
f 227 262 264
f 227 264 263
f 228 265 237
f 228 263 264
f 228 264 266
f 228 266 265
f 229 230 232
f 233 267 268
f 233 268 235
f 233 235 234
f 233 269 314
f 233 314 340
f 233 340 352
f 233 352 360
f 233 360 359
f 233 359 356
f 233 356 358
f 233 358 357
f 233 357 365
f 233 365 364
f 233 364 363
f 233 363 366
f 233 366 361
f 233 361 353
f 233 353 342
f 233 342 317
f 233 317 272
f 233 272 316
f 233 316 341
f 233 341 320
f 233 320 319
f 233 319 322
f 233 322 321
f 233 321 315
f 233 315 309
f 233 309 308
f 233 308 301
f 233 301 300
f 233 300 297
f 233 297 296
f 233 296 295
f 233 295 294
f 233 294 293
f 233 293 292
f 233 292 291
f 233 291 290
f 233 290 289
f 233 289 267
f 235 268 236
f 237 270 271
f 237 271 238
f 237 265 270
f 238 271 240
f 240 272 273
f 240 273 241
f 240 271 274
f 240 274 275
f 240 275 272
f 241 273 242
f 242 273 276
f 242 276 277
f 242 277 243
f 243 277 278
f 243 278 244
f 244 278 279
f 244 279 245
f 245 279 246
f 246 279 249
f 247 249 248
f 248 249 281
f 248 281 282
f 248 282 283
f 248 283 284
f 248 284 280
f 249 285 286
f 249 286 287
f 249 287 281
f 249 279 285
f 250 256 288
f 250 288 257
f 250 257 251
f 252 268 267
f 252 267 289
f 252 289 290
f 252 290 253
f 253 290 291
f 253 291 254
f 254 291 292
f 254 292 293
f 254 293 294
f 254 294 255
f 255 294 295
f 255 295 256
f 256 295 296
f 256 296 297
f 256 297 288
f 257 298 258
f 257 288 299
f 257 299 300
f 257 300 298
f 258 298 300
f 258 300 259
f 259 300 301
f 259 301 302
f 259 302 261
f 260 261 262
f 261 302 303
f 261 303 304
f 261 304 305
f 261 305 306
f 261 306 262
f 262 306 264
f 264 306 266
f 265 266 307
f 265 307 308
f 265 308 309
f 265 309 270
f 266 306 310
f 266 310 311
f 266 311 312
f 266 312 308
f 266 308 307
f 269 313 314
f 270 274 271
f 270 309 315
f 270 315 274
f 272 317 273
f 272 275 316
f 273 317 318
f 273 318 276
f 274 319 320
f 274 320 323
f 274 323 275
f 274 315 321
f 274 321 322
f 274 322 319
f 275 323 316
f 276 318 277
f 277 318 324
f 277 324 325
f 277 325 278
f 278 325 324
f 278 324 326
f 278 326 327
f 278 327 279
f 279 327 285
f 280 284 329
f 280 329 328
f 281 287 286
f 281 286 331
f 281 331 282
f 282 330 283
f 282 331 332
f 282 332 330
f 283 330 332
f 283 332 333
f 283 333 329
f 283 329 284
f 285 327 334
f 285 334 335
f 285 335 286
f 286 335 331
f 288 297 299
f 297 300 299
f 301 308 302
f 302 336 303
f 302 308 336
f 303 336 311
f 303 311 304
f 304 311 337
f 304 337 305
f 305 337 306
f 306 337 310
f 308 312 311
f 308 311 336
f 310 337 311
f 313 338 339
f 313 339 314
f 314 339 349
f 314 349 340
f 316 323 341
f 317 342 318
f 318 342 343
f 318 343 324
f 320 341 323
f 324 343 344
f 324 344 345
f 324 345 327
f 324 327 326
f 327 345 346
f 327 346 334
f 328 329 347
f 329 338 347
f 329 333 332
f 329 332 348
f 329 348 349
f 329 349 339
f 329 339 338
f 331 335 332
f 332 335 334
f 332 334 350
f 332 350 351
f 332 351 348
f 334 346 350
f 340 349 351
f 340 351 352
f 342 353 344
f 342 344 343
f 344 353 354
f 344 354 345
f 345 355 346
f 345 354 355
f 346 356 350
f 346 355 357
f 346 357 358
f 346 358 356
f 348 351 349
f 350 356 351
f 351 356 359
f 351 359 360
f 351 360 352
f 353 361 362
f 353 362 354
f 354 362 363
f 354 363 364
f 354 364 365
f 354 365 355
f 355 365 357
f 361 366 362
f 362 366 363

