# https://github.com/mikedh/trimesh
v 0.00554869 -0.03046209 0.08976347
v 0.00369714 -0.03041921 0.08976347
v 0.00554869 -0.03040849 0.08791733
v 0.00740024 -0.03034952 0.08791733
v 0.00740024 -0.03039240 0.08976347
v 0.00740024 -0.03021015 0.09162066
v 0.00554869 -0.03027448 0.09162066
v 0.00369714 -0.03024231 0.09162066
v 0.00184996 -0.03029592 0.08976347
v 0.00369714 -0.03034952 0.08791733
v 0.00184996 -0.03012438 0.09162066
v 0.00369714 -0.03021551 0.08607119
v 0.00554869 -0.03025839 0.08607119
v 0.00925179 -0.03023159 0.08791733
v 0.00740024 -0.03018871 0.08607119
v 0.01110334 -0.02996357 0.08607119
v 0.00925179 -0.03026912 0.08976347
v 0.00925179 -0.03009222 0.09162066
v 0.01193063 -0.02713865 0.10361505
v 0.01069626 -0.02717617 0.10376982
v 0.00925179 -0.02720833 0.10389142
v 0.00740024 -0.02724585 0.10399092
v 0.00554869 -0.02720297 0.10384721
v -0.00000159 -0.03015119 0.08976347
v -0.00440066 -0.02975452 0.08791733
v -0.00370469 -0.02980812 0.08791733
v -0.00000159 -0.03008686 0.08791733
v 0.00184996 -0.03022087 0.08791733
v 0.00184996 -0.03009758 0.08607119
v -0.00000159 -0.02993141 0.09162066
v -0.00440066 -0.02977596 0.08976347
v -0.00370469 -0.02984028 0.08976347
v -0.00185314 -0.03000110 0.08976347
v 0.00184996 -0.02995285 0.08421399
v 0.00151730 -0.02896118 0.07259546
v 0.00369714 -0.03006006 0.08421399
v 0.00369714 -0.02974916 0.08051065
v 0.00369714 -0.02959371 0.07866451
v 0.00369714 -0.02943289 0.07680732
v 0.00554869 -0.02993141 0.08236785
v 0.01295489 -0.02997429 0.08791733
v 0.01295489 -0.02984564 0.08607119
v 0.00554869 -0.02976524 0.08051065
v 0.00554869 -0.02959907 0.07866451
v 0.00740024 -0.03001718 0.08421399
v 0.00740024 -0.02966875 0.08051065
v 0.01110334 -0.02943825 0.08051065
v 0.01175116 -0.02897726 0.07606665
v 0.01295489 -0.03001182 0.08976347
v 0.01295489 -0.02982420 0.09162066
v 0.03146164 -0.02457638 0.10087348
v 0.03140911 -0.02383128 0.10281911
v 0.01123028 -0.02690815 0.10446627
v 0.00925179 -0.02693495 0.10482002
v 0.01480644 -0.02963123 0.09162066
v 0.00740024 -0.02695103 0.10490846
v 0.00554869 -0.02682238 0.10477580
v 0.00460759 -0.02714937 0.10367033
v -0.00440066 -0.02970627 0.08722088
v -0.00185314 -0.02982420 0.08607119
v -0.00440066 -0.02977060 0.08907807
v -0.00000159 -0.02996357 0.08607119
v -0.00000159 -0.02982420 0.08421399
v -0.00185314 -0.02970091 0.09162066
v -0.00440066 -0.02935249 0.09166488
v -0.00000159 -0.02951866 0.08051065
v 0.00069439 -0.02900942 0.07383359
v -0.00000159 -0.02643107 0.04349939
v -0.00000159 -0.02627562 0.04165325
v 0.00184996 -0.02761036 0.05644449
v 0.00369714 -0.02811424 0.06200502
v 0.00490524 -0.02900942 0.07200956
v -0.00000159 -0.02611481 0.03980711
v 0.01480644 -0.02975452 0.08791733
v 0.01480644 -0.02985100 0.08976347
v 0.01295489 -0.02947578 0.08236785
v 0.01360271 -0.02896118 0.07805650
v 0.01480644 -0.02960443 0.08607119
v 0.01012285 -0.02713865 0.05556011
v 0.00554869 -0.02942753 0.07680732
v 0.00613961 -0.02897726 0.07238542
v 0.00740024 -0.02774437 0.06014782
v 0.00740024 -0.02581999 0.03980711
v 0.00740024 -0.02533755 0.03471087
v 0.03349265 -0.02399745 0.10105036
v 0.03299365 -0.02368655 0.10225532
v 0.03330881 -0.02461926 0.09902734
v 0.03199566 -0.02332741 0.10349345
v 0.03076129 -0.02349358 0.10372560
v 0.01120839 -0.02587359 0.10658878
v 0.00925179 -0.02621130 0.10642296
v 0.01665799 -0.02953474 0.08976347
v 0.01802805 -0.02911127 0.09104582
v 0.00740024 -0.02620594 0.10642296
v 0.00625341 -0.02538580 0.10746211
v 0.00560121 -0.02583071 0.10648929
v 0.00413486 -0.02561093 0.10590339
v 0.00375404 -0.02623274 0.10452154
v -0.00440066 -0.02905231 0.09237239
v -0.00440066 -0.02962587 0.08607119
v -0.00185314 -0.02967947 0.08421399
v -0.00185314 -0.02768541 0.06014782
v -0.00124909 -0.02717081 0.05337127
v -0.00126659 -0.02531611 0.03117336
v -0.00185314 -0.02444773 0.02129042
v -0.00000159 -0.02562165 0.03424657
v -0.00000159 -0.02479615 0.02499376
v 0.00369714 -0.02794806 0.06014782
v 0.00553556 -0.02907375 0.07304870
v -0.00000159 -0.02446381 0.02129042
v 0.00369714 -0.02777653 0.05830168
v 0.00369714 -0.02742811 0.05460940
v 0.00369714 -0.02480687 0.02683990
v 0.00466012 -0.02344533 0.01293304
v -0.00185314 -0.02379376 0.01388375
v 0.01665799 -0.02941681 0.08791733
v 0.00838510 -0.02530003 0.03506462
v 0.01404919 -0.02902550 0.07928358
v 0.01480644 -0.02941145 0.08421399
v 0.01681995 -0.02920240 0.08592747
v 0.00554869 -0.02383128 0.01758708
v 0.00554869 -0.02365439 0.01574094
v 0.00671302 -0.02716009 0.05352604
v 0.00631032 -0.02528395 0.03342852
v 0.03422802 -0.02343461 0.10179102
v 0.03468325 -0.02369727 0.10055289
v 0.03330881 -0.02485512 0.09717014
v 0.03516036 -0.02429764 0.09717014
v 0.03524790 -0.02390097 0.09903839
v 0.03330881 -0.02200875 0.10405724
v 0.03210071 -0.02138694 0.10538381
v 0.03086634 -0.02173537 0.10562702
v 0.03349265 -0.02303258 0.10281911
v 0.01066124 -0.02541260 0.10750632
v 0.00925179 -0.02549301 0.10760582
v 0.01813310 -0.02911127 0.08791733
v 0.01906107 -0.02891830 0.08791733
v 0.02035234 -0.02862884 0.08791733
v 0.02220389 -0.02820536 0.08791733
v 0.01828193 -0.02915951 0.08976347
v 0.01920551 -0.02893974 0.08976347
v 0.00740024 -0.02547156 0.10757265
v 0.00740024 -0.02452277 0.10850125
v 0.00644601 -0.02346141 0.10921981
v 0.00501905 -0.02504809 0.10714152
v -0.00440066 -0.02318804 0.10154782
v -0.00440066 -0.02394921 0.10060816
v -0.00440066 -0.02947578 0.08421399
v -0.00440066 -0.02880573 0.07612192
v -0.00440066 -0.02748171 0.06014782
v -0.00370469 -0.02569670 0.03794991
v -0.00370469 -0.02477471 0.02683990
v -0.00185314 -0.02645788 0.04535658
v -0.00313565 -0.02347750 0.01069998
v -0.00185314 -0.02491408 0.02683990
v -0.00185314 -0.02341317 0.00959451
v -0.00185314 -0.02330060 0.00833427
v -0.00185314 -0.02296826 0.00463093
v -0.00185314 -0.02280209 0.00278479
v -0.00000159 -0.02411538 0.01758708
v -0.00000159 -0.02338637 0.00985982
v 0.00184996 -0.02489800 0.02683990
v 0.00369714 -0.02305939 0.00833427
v 0.00369714 -0.02253407 0.00278479
v 0.01783545 -0.02904695 0.08644705
v 0.02035234 -0.02849482 0.08607119
v 0.00658170 -0.02346141 0.01461336
v 0.01439061 -0.02909519 0.08051065
v 0.01754656 -0.02898798 0.08520892
v 0.01847015 -0.02887005 0.08592747
v 0.00538673 -0.02349358 0.01396113
v 0.00589011 -0.02339709 0.01338628
v 0.03608395 -0.02158528 0.10179102
v 0.03473578 -0.02209451 0.10271962
v 0.03428930 -0.02164960 0.10370349
v 0.03591762 -0.02330596 0.09966851
v 0.03538360 -0.02275384 0.10117196
v 0.03624153 -0.02356326 0.09843038
v 0.02035234 -0.02865028 0.08976347
v 0.02961009 -0.02636675 0.08791733
v 0.03146164 -0.02587359 0.08791733
v 0.03298053 -0.02546084 0.08791733
v 0.03390411 -0.02519282 0.08791733
v 0.03635534 -0.02365975 0.09717014
v 0.03516036 -0.02459246 0.08791733
v 0.03267412 -0.02015405 0.10571545
v 0.03147477 -0.02072761 0.10600288
v 0.02961009 -0.02066329 0.10656667
v 0.01040737 -0.02355790 0.10928613
v 0.00925179 -0.02459246 0.10853441
v 0.02220389 -0.02810352 0.08607119
v 0.02405544 -0.02770149 0.08607119
v 0.02573628 -0.02732090 0.08607119
v 0.02405544 -0.02776581 0.08791733
v 0.02665986 -0.02710648 0.08607119
v 0.02577567 -0.02734234 0.08791733
v 0.02670364 -0.02711184 0.08791733
v 0.00925179 -0.02366511 0.10937457
v 0.00740024 -0.02359543 0.10931930
v 0.00740024 -0.02251262 0.10992731
v 0.00747903 -0.02056144 0.11073431
v 0.00607395 -0.02251262 0.10946301
v 0.00515036 -0.02251262 0.10887711
v 0.00430119 -0.02381520 0.10761687
v -0.00440066 -0.02216956 0.10208950
v -0.00440066 -0.02527323 0.03353907
v -0.00370469 -0.02431372 0.02129042
v -0.00370469 -0.02369191 0.01388375
v -0.00373533 -0.02353110 0.01201549
v -0.00440066 -0.02341317 0.01140748
v -0.00370469 -0.02321484 0.00833427
v -0.00370469 -0.02304330 0.00648812
v -0.00370469 -0.02285569 0.00463093
v -0.00370469 -0.02265200 0.00278479
v -0.00370469 -0.02206771 0.00127029
v -0.00185314 -0.02215348 0.00120396
v -0.00000159 -0.02211060 0.00122607
v 0.00369714 -0.02201947 0.00127029
v -0.00000159 -0.02271632 0.00278479
v 0.00184996 -0.02262519 0.00278479
v 0.00554869 -0.02186938 0.00143611
v 0.00554869 -0.02226605 0.00278479
v 0.00554869 -0.02249654 0.00463093
v 0.00554869 -0.02270560 0.00648812
v 0.02035234 -0.02831257 0.08421399
v 0.00740024 -0.02299506 0.01203760
v 0.00727768 -0.02324164 0.01396113
v 0.00814436 -0.02340245 0.01697907
v 0.00847265 -0.02347214 0.01821720
v 0.01193063 -0.02527323 0.04090152
v 0.01542800 -0.02708504 0.06385116
v 0.01110334 -0.02571814 0.04349939
v 0.01110334 -0.02612017 0.04720273
v 0.01295489 -0.02756748 0.06385116
v 0.01480644 -0.02861275 0.07680732
v 0.01727080 -0.02893438 0.08421399
v 0.01850079 -0.02869316 0.08421399
v 0.03646914 -0.02206771 0.10056395
v 0.03797489 -0.02164960 0.09818718
v 0.03774290 -0.02066329 0.09950269
v 0.03680181 -0.02084554 0.10106141
v 0.03630281 -0.02035239 0.10207845
v 0.03557182 -0.02084554 0.10270856
v 0.03452129 -0.02066329 0.10393564
v 0.03697252 -0.02247510 0.09892785
v 0.03728330 -0.02263591 0.09717014
v 0.02775854 -0.02684382 0.08791733
v 0.02775854 -0.02682238 0.08607119
v 0.02961009 -0.02631314 0.08607119
v 0.03146164 -0.02578247 0.08607119
v 0.03275291 -0.02540188 0.08607119
v 0.03368087 -0.02512314 0.08607119
v 0.03516036 -0.02451741 0.08607119
v 0.03640786 -0.02376160 0.08607119
v 0.03291049 -0.01881395 0.10594761
v 0.03137410 -0.01878179 0.10689831
v 0.03070439 -0.01813854 0.10742894
v 0.02961009 -0.01939824 0.10724101
v 0.00925179 -0.02251262 0.11002680
v 0.02220389 -0.02792126 0.08421399
v 0.02540799 -0.02723513 0.08421399
v 0.02633157 -0.02703144 0.08421399
v 0.02775854 -0.02666693 0.08421399
v 0.00814874 -0.01987531 0.11108805
v 0.00691437 -0.01921598 0.11094435
v 0.00543488 -0.02063649 0.10973938
v 0.00473891 -0.02123685 0.10912031
v -0.00440066 -0.02203019 0.10213372
v -0.00440066 -0.02471039 0.02683990
v -0.00440066 -0.02424403 0.02129042
v -0.00440066 -0.02309691 0.00833427
v -0.00440066 -0.02270024 0.00463093
v -0.00440066 -0.02290393 0.00648812
v -0.00440066 -0.02247510 0.00278479
v -0.00440066 -0.02233573 0.00229838
v -0.00440066 -0.02154239 0.00109341
v -0.00370469 -0.02066329 0.00058489
v -0.00440066 -0.02197123 0.00135872
v -0.00185314 -0.02066329 0.00051857
v 0.00184996 -0.02066329 0.00056278
v 0.00369714 -0.02066329 0.00058489
v 0.00554869 -0.02066329 0.00075071
v 0.00925179 -0.02032022 0.00123712
v 0.00676117 -0.02169248 0.00166826
v 0.00711134 -0.02181577 0.00278479
v 0.00740024 -0.02227141 0.00648812
v 0.00740024 -0.02252335 0.00833427
v 0.00740024 -0.02276456 0.01019146
v 0.01569939 -0.02713865 0.06483503
v 0.02035234 -0.02790518 0.08051065
v 0.01003530 -0.02340781 0.02063819
v 0.00935246 -0.02362759 0.02126831
v 0.01110334 -0.02429228 0.03054323
v 0.01295489 -0.02472647 0.03794991
v 0.01665799 -0.02621130 0.05830168
v 0.01850079 -0.02747099 0.07310398
v 0.01412360 -0.02719225 0.06249143
v 0.01295489 -0.02676342 0.05644449
v 0.03812372 -0.02066329 0.09858515
v 0.03801429 -0.02171393 0.09717014
v 0.03838197 -0.02066329 0.09717014
v 0.03790048 -0.01881395 0.09986750
v 0.03732269 -0.01881395 0.10087348
v 0.03643412 -0.01881395 0.10225532
v 0.03568562 -0.01881395 0.10318392
v 0.03475766 -0.01881395 0.10420095
v 0.03383845 -0.01881395 0.10512955
v 0.02961009 -0.02613625 0.08421399
v 0.03251216 -0.02533219 0.08479989
v 0.03056869 -0.02530539 0.07948256
v 0.03169363 -0.02506953 0.08051065
v 0.03320376 -0.02503737 0.08420293
v 0.03330881 -0.02474791 0.08236785
v 0.03516036 -0.02424403 0.08421399
v 0.03604456 -0.02341853 0.08158296
v 0.03617587 -0.02350966 0.08281004
v 0.03630281 -0.02361687 0.08421399
v 0.03801429 -0.02169248 0.08236785
v 0.03303743 -0.01696462 0.10611343
v 0.03207007 -0.01510992 0.10714152
v 0.03185121 -0.01696462 0.10704202
v 0.03092325 -0.01696462 0.10753949
v 0.02961009 -0.01326059 0.10845703
v 0.02961009 -0.01510992 0.10818066
v 0.02961009 -0.01696462 0.10788218
v 0.00983833 -0.01945184 0.11101067
v 0.00923428 -0.02056144 0.11081169
v 0.02961009 -0.01847089 0.10753949
v 0.00860834 -0.01987531 0.11108805
v 0.02220389 -0.02750851 0.08051065
v 0.02322815 -0.02716545 0.07940518
v 0.02478205 -0.02710112 0.08181511
v 0.01944188 -0.02529467 0.05549378
v 0.02405544 -0.02669373 0.07680732
v 0.02590699 -0.02646860 0.07866451
v 0.02775854 -0.02644716 0.08236785
v 0.02961009 -0.02570206 0.08051065
v 0.02961009 -0.02592184 0.08236785
v 0.00925179 -0.01510992 0.11178451
v 0.00740024 -0.01510992 0.11176240
v 0.00740024 -0.01696462 0.11145286
v 0.00747903 -0.01868530 0.11117649
v 0.00644601 -0.01798309 0.11107700
v 0.00571502 -0.01868530 0.11040266
v 0.00535609 -0.01696462 0.11052427
v -0.00440066 -0.02066329 0.10256486
v -0.00440066 -0.02066329 0.00067333
v -0.00370469 -0.01696462 -0.00069745
v -0.00185314 -0.01696462 -0.00081905
v -0.00000159 -0.01839048 -0.00034371
v 0.00184996 -0.01836904 -0.00032160
v 0.00184996 -0.01696462 -0.00083011
v 0.00369714 -0.01696462 -0.00070850
v 0.00925179 -0.01881395 0.00055173
v 0.01110334 -0.01881395 0.00086126
v 0.01110334 -0.01996644 0.00154666
v 0.01207070 -0.01976274 0.00181197
v 0.00925179 -0.02104388 0.00278479
v 0.00803493 -0.02148343 0.00278479
v 0.00826692 -0.02156920 0.00384604
v 0.01110334 -0.02212668 0.01388375
v 0.01756844 -0.02343461 0.03705448
v 0.00925179 -0.02273776 0.01388375
v 0.01577817 -0.02345605 0.03320743
v 0.01369026 -0.02338637 0.02817752
v 0.01101142 -0.02322556 0.02126831
v 0.00925179 -0.02298434 0.01574094
v 0.02102642 -0.02709040 0.07451898
v 0.01215824 -0.02347750 0.02562388
v 0.02035234 -0.02603977 0.06385116
v 0.01543676 -0.02523034 0.04720273
v 0.03871464 -0.01881395 0.09717014
v 0.03825941 -0.01881395 0.09893890
v 0.03838635 -0.02066329 0.08236785
v 0.03881094 -0.01881395 0.09532400
v 0.03890286 -0.01881395 0.08236785
v 0.03789173 -0.01696462 0.09983433
v 0.03733582 -0.01696462 0.10087348
v 0.03645163 -0.01510992 0.10232165
v 0.03645163 -0.01696462 0.10229954
v 0.03577317 -0.01510992 0.10325025
v 0.03573815 -0.01696462 0.10322814
v 0.03481019 -0.01696462 0.10427834
v 0.03396101 -0.01696462 0.10520694
v 0.03076567 -0.02536435 0.08051065
v 0.03031919 -0.02523034 0.07825549
v 0.02999528 -0.02513922 0.07680732
v 0.03146164 -0.02461926 0.07680732
v 0.03330881 -0.02447453 0.08051065
v 0.03494588 -0.02377232 0.08051065
v 0.03532232 -0.02386880 0.08226836
v 0.03711259 -0.02223388 0.08066542
v 0.03794863 -0.02160672 0.08138398
v 0.03688060 -0.02276456 0.08226836
v 0.03460884 -0.02361687 0.07866451
v 0.03436809 -0.02350430 0.07736005
v 0.03586946 -0.02331132 0.08051065
v 0.03608395 -0.02158528 0.07405468
v 0.03667925 -0.02216956 0.07866451
v 0.03861834 -0.01881395 0.07680732
v 0.03878030 -0.01881395 0.07866451
v 0.03221014 -0.01326059 0.10721890
v 0.03128217 -0.01326059 0.10780480
v 0.03114648 -0.01510992 0.10768320
v 0.02961009 -0.01141125 0.10861180
v 0.00925179 -0.01696462 0.11149708
v 0.00923428 -0.01883004 0.11119860
v 0.02392850 -0.02694031 0.07874189
v 0.01665799 -0.02406178 0.03980711
v 0.02154293 -0.02536435 0.06051263
v 0.02590699 -0.02578247 0.07310398
v 0.02775854 -0.02621666 0.08051065
v 0.02590699 -0.02624346 0.07680732
v 0.02906732 -0.02539652 0.07680732
v 0.00925179 -0.01326059 0.11191717
v 0.00740024 -0.01326059 0.11189506
v 0.00600392 -0.01510992 0.11133126
v 0.00627968 -0.01696462 0.11116544
v 0.00507595 -0.01510992 0.11071220
v -0.00440066 -0.01881395 0.10297388
v -0.00440066 -0.01698606 -0.00059797
v -0.00440066 -0.01626777 -0.00081905
v -0.00440066 -0.01510992 -0.00100699
v -0.00000159 -0.01696462 -0.00085222
v 0.00554869 -0.01510992 -0.00101804
v 0.00740024 -0.01510992 -0.00089644
v 0.01295489 -0.01696462 0.00057384
v 0.01486772 -0.01706647 0.00112658
v 0.01279293 -0.01878179 0.00135872
v 0.01552868 -0.01774724 0.00238682
v 0.01486772 -0.01829936 0.00291744
v 0.01319126 -0.01931247 0.00278479
v 0.01376905 -0.01967698 0.00582484
v 0.01400979 -0.01981635 0.00706297
v 0.01226329 -0.01986995 0.00278479
v 0.01110334 -0.02035775 0.00278479
v 0.01429431 -0.01814390 0.00152455
v 0.01110334 -0.02066865 0.00463093
v 0.01110334 -0.02096347 0.00648812
v 0.01003968 -0.02154239 0.00772625
v 0.01665799 -0.02216420 0.02683990
v 0.01480644 -0.02253943 0.02499376
v 0.02163048 -0.02356862 0.04720273
v 0.02850704 -0.02524643 0.07440844
v 0.02220389 -0.02467286 0.05644449
v 0.03866649 -0.01696462 0.09717014
v 0.03823315 -0.01696462 0.09890574
v 0.03980018 -0.01246725 0.07795701
v 0.04008908 -0.00955655 0.07310398
v 0.04029918 -0.00770722 0.06941169
v 0.03888973 -0.01881395 0.08051065
v 0.03927054 -0.01696462 0.08051065
v 0.03925303 -0.01696462 0.08236785
v 0.03950691 -0.01510992 0.08051065
v 0.03729643 -0.01510992 0.10087348
v 0.03785671 -0.01510992 0.09972379
v 0.03635534 -0.01326059 0.10222216
v 0.03575566 -0.01326059 0.10315076
v 0.03483208 -0.01326059 0.10437783
v 0.03405731 -0.01326059 0.10529538
v 0.03484521 -0.01510992 0.10433361
v 0.03401354 -0.01510992 0.10526221
v 0.03313372 -0.01326059 0.10629030
v 0.02590699 -0.02404570 0.06014782
v 0.02961009 -0.02443165 0.07125784
v 0.03146164 -0.02431908 0.07496117
v 0.03330881 -0.02417971 0.07866451
v 0.02491774 -0.02341853 0.05382451
v 0.03800116 -0.01983243 0.07553602
v 0.03810183 -0.01999324 0.07680732
v 0.03822002 -0.02023982 0.07866451
v 0.03606644 -0.01971450 0.06671434
v 0.03602267 -0.01780620 0.05950665
v 0.03609708 -0.01604799 0.05364764
v 0.03640786 -0.01645002 0.05644449
v 0.03793987 -0.01788661 0.06848310
v 0.03413610 -0.02339709 0.07613298
v 0.03427617 -0.02161744 0.06836149
v 0.03433307 -0.01981635 0.06073373
v 0.03416674 -0.01782764 0.05206681
v 0.03895539 -0.01696462 0.07310398
v 0.03982644 -0.01242972 0.06451445
v 0.03875404 -0.01696462 0.07125784
v 0.03224516 -0.01141125 0.10721890
v 0.03131719 -0.01141125 0.10789324
v 0.02961009 -0.00955655 0.10851230
v 0.02669488 -0.02525715 0.07062772
v 0.02775854 -0.02598616 0.07866451
v 0.00925179 -0.01141125 0.11175134
v 0.00740024 -0.01141125 0.11175134
v 0.00596014 -0.01141125 0.11134231
v 0.00586822 -0.01326059 0.11140864
v 0.00494026 -0.01326059 0.11080063
v -0.00440066 -0.01665372 0.10337185
v -0.00440066 -0.01733985 0.10326130
v -0.00440066 -0.01441843 -0.00101804
v -0.00370469 -0.01510992 -0.00101804
v 0.00740024 -0.01326059 -0.00101804
v 0.01295489 -0.00955655 -0.00100699
v 0.00925179 -0.01326059 -0.00099593
v 0.01110334 -0.01326059 -0.00076378
v 0.01480644 -0.01510992 0.00050751
v 0.01680681 -0.01526537 0.00107130
v 0.01629468 -0.01651434 0.00142505
v 0.01724891 -0.01767219 0.00648812
v 0.01576504 -0.01790805 0.00361389
v 0.01752905 -0.01598367 0.00195568
v 0.01787047 -0.01626241 0.00319381
v 0.01938060 -0.01599975 0.00568113
v 0.01962572 -0.01617664 0.00691926
v 0.01865836 -0.01669124 0.00637758
v 0.01990586 -0.01636961 0.00833427
v 0.01688998 -0.01742561 0.00463093
v 0.03067375 -0.01613376 0.03481036
v 0.01480644 -0.01875499 0.00463093
v 0.01966512 -0.01803670 0.01420433
v 0.02308808 -0.01785980 0.02232956
v 0.01571252 -0.01973058 0.01115323
v 0.01594888 -0.01986995 0.01239136
v 0.02312747 -0.02159064 0.03887851
v 0.01939811 -0.02157992 0.02969202
v 0.01765599 -0.02162280 0.02573442
v 0.01537110 -0.02146199 0.01944428
v 0.01323503 -0.02136014 0.01388375
v 0.01231144 -0.02169248 0.01388375
v 0.02314936 -0.02345069 0.04993325
v 0.03849578 -0.01510992 0.09717014
v 0.03817187 -0.01510992 0.09879519
v 0.04016349 -0.00770722 0.07125784
v 0.03981769 -0.01260126 0.07680732
v 0.04022914 -0.00955655 0.06941169
v 0.04018100 -0.00955655 0.07125784
v 0.04031669 -0.00770722 0.06755450
v 0.04012847 -0.00585788 0.06941169
v 0.03920051 -0.01696462 0.07680732
v 0.03924866 -0.01696462 0.07866451
v 0.03985709 -0.01253693 0.06570836
v 0.03954630 -0.01510992 0.07680732
v 0.03953317 -0.01510992 0.07866451
v 0.03973890 -0.01375374 0.07125784
v 0.03705568 -0.01326059 0.10087348
v 0.03807119 -0.01369478 0.09851882
v 0.03620651 -0.01189905 0.10201212
v 0.03453005 -0.00955655 0.10413463
v 0.03471827 -0.01141125 0.10433361
v 0.03405293 -0.01141125 0.10526221
v 0.03312497 -0.01141125 0.10629030
v 0.02715448 -0.02357398 0.06014782
v 0.03146164 -0.02400281 0.07310398
v 0.03343575 -0.02380448 0.07677415
v 0.02691812 -0.02347750 0.05900919
v 0.03850453 -0.01696462 0.06941169
v 0.03428055 -0.01608551 0.04609725
v 0.03441186 -0.01624096 0.04720273
v 0.03577754 -0.01564060 0.05090606
v 0.03600954 -0.01408073 0.04661682
v 0.03614523 -0.01426834 0.04785495
v 0.03786546 -0.01590862 0.06148545
v 0.03797052 -0.01608551 0.06272358
v 0.03829443 -0.01522249 0.06206029
v 0.03338322 -0.02199803 0.06766505
v 0.03150103 -0.02369727 0.07142366
v 0.03239398 -0.02344533 0.07215327
v 0.03264348 -0.01989675 0.05644449
v 0.03230206 -0.01783836 0.04649522
v 0.03413610 -0.01966626 0.05949559
v 0.03238085 -0.01603191 0.03888956
v 0.03412297 -0.01590862 0.04485912
v 0.03987897 -0.01135228 0.06387327
v 0.04001466 -0.01141125 0.06570836
v 0.03908670 -0.01510992 0.06755450
v 0.03945001 -0.01313194 0.06387327
v 0.03913485 -0.01326059 0.06200502
v 0.03885909 -0.01326059 0.06014782
v 0.03794425 -0.01234396 0.05180150
v 0.03797052 -0.01058575 0.04788812
v 0.03788735 -0.01025876 0.04664999
v 0.03800991 -0.00894011 0.04535658
v 0.03793987 -0.00865065 0.04440588
v 0.03795301 -0.00688708 0.04241602
v 0.03885033 -0.01510992 0.06570836
v 0.03300241 -0.00955655 0.10616870
v 0.03211822 -0.00955655 0.10708624
v 0.03119025 -0.00955655 0.10783796
v 0.03088823 -0.00770722 0.10761687
v 0.02961009 -0.00770722 0.10811433
v 0.00925617 -0.00944399 0.11129810
v 0.00736084 -0.00942254 0.11129810
v 0.00671740 -0.00871497 0.11103278
v 0.00620089 -0.00994786 0.11120966
v 0.00503656 -0.01141125 0.11073431
v -0.00440066 -0.01510992 0.10338290
v -0.00440066 -0.01598367 0.10338290
v -0.00440066 0.01450089 -0.00101804
v 0.01480644 -0.00585788 -0.00101804
v 0.01480644 -0.00770722 -0.00091855
v 0.01295489 -0.01141125 -0.00077483
v 0.01665799 -0.01326059 0.00050751
v 0.01866274 -0.01341604 0.00106025
v 0.01815061 -0.01475077 0.00142505
v 0.01747652 -0.01782228 0.00767098
v 0.01771727 -0.01797237 0.00890911
v 0.01938498 -0.01413969 0.00193357
v 0.02097827 -0.01388775 0.00422190
v 0.02133720 -0.01424154 0.00546004
v 0.01914423 -0.01577997 0.00463093
v 0.02515411 -0.01248333 0.00896439
v 0.02289548 -0.01397888 0.00792524
v 0.02669051 -0.01221531 0.01141854
v 0.02317562 -0.01422010 0.00915232
v 0.02874778 -0.01238684 0.01650372
v 0.02493087 -0.01415041 0.01308780
v 0.02760971 -0.01353933 0.01767552
v 0.02861647 -0.01413969 0.02238484
v 0.02967574 -0.01466501 0.02696150
v 0.02616086 -0.01556556 0.02129042
v 0.02156044 -0.01623560 0.01203760
v 0.02523728 -0.01621416 0.02129042
v 0.02699253 -0.01614984 0.02551333
v 0.02871277 -0.01605871 0.02954831
v 0.03042862 -0.01596758 0.03358329
v 0.03057307 -0.01422010 0.02765795
v 0.03164110 -0.01665908 0.03961918
v 0.02961009 -0.01708791 0.03610377
v 0.02479081 -0.01777404 0.02641982
v 0.01924491 -0.01777404 0.01203760
v 0.01786172 -0.01990747 0.01758708
v 0.03146164 -0.02060433 0.05644449
v 0.03065624 -0.02349358 0.06818462
v 0.03816311 -0.01315338 0.09721436
v 0.03980018 -0.00852736 0.07601137
v 0.03993587 -0.00574531 0.07134627
v 0.03977392 -0.00505382 0.07203167
v 0.03994901 -0.00752496 0.07329191
v 0.03983082 -0.01271919 0.07496117
v 0.04001028 -0.01141125 0.07125784
v 0.04004093 -0.01141125 0.06755450
v 0.04022914 -0.00955655 0.06755450
v 0.04013285 -0.00585788 0.06755450
v 0.04015036 -0.00955655 0.06570836
v 0.04018975 -0.00770722 0.06570836
v 0.03988772 -0.00437305 0.06941169
v 0.03983958 -0.00458211 0.07079354
v 0.03970826 -0.01370014 0.06941169
v 0.03986584 -0.01266558 0.06755450
v 0.03973890 -0.01372694 0.07310398
v 0.03973015 -0.01364117 0.07496117
v 0.03649540 -0.01133084 0.10098403
v 0.03604018 -0.01066079 0.10166942
v 0.03773415 -0.01315338 0.09909367
v 0.03790048 -0.01246189 0.09786659
v 0.03435496 -0.00821109 0.10386932
v 0.03393037 -0.00955655 0.10506323
v 0.03859645 -0.01510992 0.06385116
v 0.03471827 -0.01477758 0.04349939
v 0.03482332 -0.01521713 0.04543397
v 0.03544050 -0.01497591 0.04722484
v 0.03586509 -0.01388239 0.04535658
v 0.03604456 -0.01226891 0.04092363
v 0.03617587 -0.01246189 0.04215071
v 0.03797489 -0.01425762 0.05714094
v 0.03822002 -0.01475614 0.06014782
v 0.03618025 -0.01063399 0.03655701
v 0.03159733 -0.01841192 0.04714745
v 0.03036734 -0.01779012 0.04116684
v 0.02955318 -0.01751138 0.03779514
v 0.03059496 -0.01239756 0.02202003
v 0.03254718 -0.01435947 0.03424657
v 0.03282732 -0.01465965 0.03610377
v 0.03308557 -0.01495983 0.03794991
v 0.03393913 -0.01570493 0.04349939
v 0.03400916 -0.01391991 0.03794991
v 0.03432432 -0.01429514 0.04037090
v 0.03448628 -0.01449348 0.04165325
v 0.03998840 -0.00955655 0.06385116
v 0.03923990 -0.00955655 0.05644449
v 0.03981331 -0.01069832 0.06266830
v 0.03784795 -0.01208130 0.05056337
v 0.03678868 -0.00955655 0.03794991
v 0.03706882 -0.00955655 0.03980711
v 0.03700316 -0.00770722 0.03610377
v 0.03726141 -0.00770722 0.03794991
v 0.03750216 -0.00770722 0.03980711
v 0.03680181 -0.00585788 0.03240043
v 0.03703818 -0.00585788 0.03424657
v 0.03725266 -0.00585788 0.03610377
v 0.03745839 -0.00585788 0.03794991
v 0.03795301 -0.00657617 0.04241602
v 0.03932307 -0.00770722 0.05644449
v 0.03895976 -0.00770722 0.05276326
v 0.03877592 -0.00770722 0.05090606
v 0.03944125 -0.00955655 0.05830168
v 0.03273102 -0.00770722 0.10587022
v 0.03181181 -0.00770722 0.10679882
v 0.03063873 -0.00661906 0.10742894
v 0.02961009 -0.00620631 0.10759476
v 0.00987335 -0.00875249 0.11101067
v 0.00863898 -0.00854880 0.11108805
v 0.00795176 -0.00854880 0.11108805
v 0.00736084 -0.00784123 0.11069009
v 0.00740024 -0.00604013 0.10969516
v 0.00601705 -0.00633496 0.10949618
v 0.00546114 -0.00768042 0.10982782
v 0.00557057 -0.00942254 0.11061270
v 0.00425304 -0.00955655 0.10959567
v -0.00440066 -0.01319090 0.10305126
v -0.00440066 -0.01358757 0.10313970
v 0.00554869 0.01450089 -0.00101804
v -0.00440066 0.01635023 -0.00085222
v -0.00370469 0.01635023 -0.00091855
v -0.00185314 0.01635023 -0.00099593
v 0.01480644 0.00524349 -0.00101804
v 0.01665799 -0.00030987 -0.00095171
v 0.01665799 -0.00215921 -0.00090749
v 0.01665799 -0.00400319 -0.00079694
v 0.02220389 -0.00585788 0.00054068
v 0.02035234 -0.00955655 0.00059595
v 0.01850079 -0.01141125 0.00050751
v 0.02048365 -0.01150774 0.00113763
v 0.01995401 -0.01290680 0.00142505
v 0.02118838 -0.01219387 0.00199990
v 0.02159983 -0.01265486 0.00323803
v 0.02319751 -0.01240292 0.00544898
v 0.02479081 -0.01214562 0.00773731
v 0.02859896 -0.01038741 0.01126377
v 0.02888785 -0.01070904 0.01250190
v 0.02817437 -0.01191513 0.01388375
v 0.02697064 -0.01244581 0.01265667
v 0.02725078 -0.01265486 0.01388375
v 0.02848515 -0.01216170 0.01526559
v 0.02913735 -0.01098778 0.01388375
v 0.03016599 -0.01193121 0.01944428
v 0.03039361 -0.01218315 0.02079296
v 0.02983770 -0.01554411 0.03054323
v 0.03966887 -0.00398174 0.07134627
v 0.03987022 -0.00453386 0.06755450
v 0.03972139 -0.00345106 0.06941169
v 0.03983958 -0.00653329 0.06232561
v 0.03990523 -0.00622239 0.06385116
v 0.03996214 -0.00573995 0.06568625
v 0.03977829 -0.00770722 0.06119802
v 0.03723077 -0.01141125 0.09902734
v 0.03626779 -0.00992106 0.10043129
v 0.03590448 -0.00940646 0.10098403
v 0.03417550 -0.00697820 0.10350451
v 0.03607519 -0.00681739 0.09802136
v 0.03923115 -0.00215921 0.07125784
v 0.03373778 -0.00763753 0.10452154
v 0.03435934 -0.01248333 0.03467771
v 0.03476204 -0.01299257 0.03794991
v 0.03552367 -0.01315338 0.04158692
v 0.03420176 -0.01229571 0.03345063
v 0.03556306 -0.01131476 0.03600428
v 0.03605331 -0.01040350 0.03532994
v 0.03642537 -0.00969592 0.03600428
v 0.03221452 -0.01214026 0.02646404
v 0.03240711 -0.01236004 0.02769111
v 0.03256469 -0.01252621 0.02869709
v 0.03285796 -0.01282639 0.03054323
v 0.03984395 -0.00955655 0.06236983
v 0.03950253 -0.00770722 0.05830168
v 0.03962509 -0.00955655 0.06014782
v 0.03618025 -0.00885434 0.03279840
v 0.03607082 -0.00856488 0.03157133
v 0.03673177 -0.00770722 0.03424657
v 0.03667049 -0.00400319 0.03240043
v 0.03649978 -0.00585788 0.03054323
v 0.03610146 -0.00501630 0.02771322
v 0.03610146 -0.00482333 0.02771322
v 0.03620651 -0.00439985 0.02869709
v 0.03765536 -0.00585788 0.03980711
v 0.03249903 -0.00657081 0.10562702
v 0.03139598 -0.00597581 0.10635663
v 0.03091887 -0.00442130 0.10587022
v 0.03037610 -0.00318841 0.10540592
v 0.02961009 -0.00528432 0.10715257
v 0.02775854 -0.00498950 0.10732945
v 0.02775854 -0.00591149 0.10771636
v 0.00925617 -0.00784123 0.11066798
v 0.00925179 -0.00607766 0.10967305
v 0.00740024 -0.00511279 0.10906504
v 0.00554869 -0.00454995 0.10771636
v 0.00546114 -0.00577212 0.10866707
v 0.00478268 -0.00704789 0.10905399
v 0.00447190 -0.00828078 0.10936352
v -0.00440066 -0.01141125 0.10249853
v -0.00440066 -0.01158278 0.10255380
v 0.00925179 0.01264620 -0.00101804
v 0.00184996 0.01635023 -0.00097382
v 0.00740024 0.01450089 -0.00098488
v -0.00440066 0.02190360 0.00083915
v -0.00370469 0.02190360 0.00075071
v -0.00185314 0.02190360 0.00065122
v -0.00000159 0.02190360 0.00062911
v 0.00184996 0.02190360 0.00062911
v 0.01480644 0.00709283 -0.00097382
v 0.01665799 0.00154482 -0.00092960
v 0.02405544 0.00154482 0.00058489
v 0.02405544 -0.00030987 0.00067333
v 0.02405544 -0.00215921 0.00077282
v 0.02405544 -0.00400319 0.00098287
v 0.02220389 -0.00770722 0.00081704
v 0.02219951 -0.00944935 0.00133662
v 0.02158233 -0.01096098 0.00154666
v 0.02321064 -0.00875785 0.00175670
v 0.02281669 -0.00999075 0.00226521
v 0.02459821 -0.00955655 0.00419979
v 0.02500529 -0.01051070 0.00552636
v 0.02531607 -0.01082697 0.00648812
v 0.02700128 -0.01065543 0.00897544
v 0.02828380 -0.01006579 0.01019146
v 0.02879593 -0.00878466 0.00908599
v 0.02902792 -0.00913844 0.01019146
v 0.02934746 -0.00968520 0.01193811
v 0.03012222 -0.00952975 0.01380636
v 0.03035859 -0.01019444 0.01574094
v 0.03051617 -0.01045710 0.01672481
v 0.03070876 -0.01070904 0.01796294
v 0.03094075 -0.01100386 0.01944428
v 0.03198690 -0.01185616 0.02499376
v 0.03967324 -0.00361188 0.06755450
v 0.03795738 -0.00485549 0.04419584
v 0.03936246 -0.00215921 0.06941169
v 0.03790486 -0.00533792 0.04295771
v 0.03627217 -0.00805028 0.09866253
v 0.03607082 -0.00868817 0.09990066
v 0.03540111 -0.00770722 0.10087348
v 0.03396539 -0.00575067 0.10281911
v 0.03266099 -0.00453922 0.10400197
v 0.03295426 -0.00591685 0.10459893
v 0.03441186 -0.00629207 0.10226638
v 0.03418863 -0.00505918 0.10165837
v 0.03581256 -0.00591149 0.09731385
v 0.03460884 -0.00426584 0.09902734
v 0.03536171 -0.00585788 0.09902734
v 0.03467887 -0.00575067 0.10097297
v 0.03593950 -0.00754641 0.09918210
v 0.03840824 -0.00012226 0.07144577
v 0.03793987 0.00061747 0.07218643
v 0.03865774 -0.00030987 0.06941169
v 0.03405731 -0.01211346 0.03240043
v 0.03474891 -0.01119147 0.03240043
v 0.03491086 -0.01157206 0.03413602
v 0.03449941 -0.01085377 0.03054323
v 0.03477517 -0.00965840 0.02870815
v 0.03459133 -0.00914916 0.02683990
v 0.03530481 -0.00955655 0.03054323
v 0.03378155 -0.01177576 0.03054323
v 0.03524790 -0.00770722 0.02683990
v 0.03597014 -0.00818965 0.03054323
v 0.03611021 -0.00687636 0.02951514
v 0.03620651 -0.00726230 0.03054323
v 0.03636847 -0.00785195 0.03226777
v 0.03685433 -0.00400319 0.03424657
v 0.03636847 -0.00383165 0.03037741
v 0.03608395 -0.00309728 0.02965886
v 0.03615836 -0.00292039 0.03088593
v 0.03672739 0.00154482 0.05090606
v 0.03619338 -0.00572387 0.02881870
v 0.03598765 -0.00624919 0.02827701
v 0.03578630 -0.00572387 0.02699466
v 0.03524353 -0.00585788 0.02499376
v 0.03453442 -0.00411039 0.02115776
v 0.03506844 -0.00400319 0.02314762
v 0.03545801 -0.00400319 0.02499376
v 0.03483208 -0.00215921 0.02314762
v 0.03586071 -0.00412647 0.02699466
v 0.03602267 -0.00347251 0.02869709
v 0.03215323 -0.00533792 0.10522905
v 0.03156231 -0.00386381 0.10469842
v 0.02914173 -0.00283998 0.10570440
v 0.02969763 -0.00388526 0.10621292
v 0.03097139 -0.00260948 0.10416779
v 0.03031919 -0.00137659 0.10344923
v 0.02908483 -0.00102817 0.10389142
v 0.02775854 -0.00400319 0.10669933
v 0.00925179 -0.00515031 0.10903188
v 0.00740024 -0.00412647 0.10813644
v 0.00462072 -0.00492517 0.10736261
v 0.00740024 -0.00319913 0.10720784
v 0.00595139 -0.00274349 0.10598077
v 0.00541737 -0.00356899 0.10652245
v -0.00440066 -0.00778762 0.10089559
v -0.00440066 -0.00788411 0.10095086
v -0.00440066 -0.00955655 0.10181313
v -0.00440066 -0.01091273 0.10232165
v 0.01110334 0.01264620 -0.00088538
v 0.01295489 0.01079686 -0.00087433
v 0.00369714 0.01635023 -0.00090749
v 0.00369714 0.02190360 0.00068439
v 0.00554869 0.01635023 -0.00074167
v 0.00925179 0.02005426 0.00052962
v 0.00925179 0.01450089 -0.00078589
v -0.00440066 0.02302392 0.00152455
v -0.00370469 0.02308825 0.00143611
v -0.00185314 0.02317937 0.00133662
v -0.00000159 0.02321154 0.00130345
v 0.00184996 0.02320617 0.00131451
v 0.01665799 0.00339416 -0.00084116
v 0.02035234 0.01264620 0.00065122
v 0.02220389 0.00894753 0.00056278
v 0.02405544 0.00339416 0.00061806
v 0.02560059 0.00154482 0.00127029
v 0.02549116 -0.00030987 0.00135872
v 0.02536859 -0.00215921 0.00145822
v 0.02515411 -0.00400319 0.00166826
v 0.02411234 -0.00569171 0.00134767
v 0.02349078 -0.00770722 0.00150244
v 0.02476454 -0.00620095 0.00211045
v 0.02528980 -0.00729983 0.00334858
v 0.02701004 -0.00707469 0.00533843
v 0.02492212 -0.00853808 0.00377971
v 0.02531169 -0.00955655 0.00512839
v 0.02834508 -0.00807708 0.00784786
v 0.02663360 -0.01023732 0.00773731
v 0.02871714 -0.00684419 0.00736145
v 0.02895789 -0.00756249 0.00841165
v 0.02967574 -0.00770722 0.01019146
v 0.03047240 -0.00847375 0.01314308
v 0.03067812 -0.00889186 0.01438121
v 0.03232832 -0.00852200 0.01868150
v 0.03417987 -0.00851128 0.02424203
v 0.03437685 -0.00884362 0.02546911
v 0.03394350 -0.01007115 0.02683990
v 0.03413610 -0.01034453 0.02808908
v 0.03432432 -0.01061255 0.02932721
v 0.03272665 -0.01093417 0.02499376
v 0.03848702 -0.00215921 0.05830168
v 0.03864461 -0.00215921 0.06014782
v 0.03895976 -0.00215921 0.06385116
v 0.03910859 -0.00215921 0.06570836
v 0.03925303 -0.00215921 0.06755450
v 0.03796176 -0.00300079 0.04972321
v 0.03718700 -0.00400319 0.03794991
v 0.03735333 -0.00400319 0.03980711
v 0.03751529 -0.00400319 0.04165325
v 0.03771664 -0.00414256 0.04354361
v 0.03856581 -0.00030987 0.06755450
v 0.03303305 -0.00395494 0.10276384
v 0.03220576 -0.00330633 0.10340501
v 0.03439436 -0.00462499 0.10042024
v 0.03387785 -0.00400855 0.10097297
v 0.03409671 -0.00334386 0.09902734
v 0.03804930 0.00079973 0.07094830
v 0.03750654 0.00146978 0.07144577
v 0.03330443 -0.00215921 0.09902734
v 0.03809308 0.00088549 0.06941169
v 0.03797052 0.00068180 0.06385116
v 0.03801867 0.00077829 0.06570836
v 0.03806244 0.00084261 0.06755450
v 0.03577317 -0.00757857 0.02881870
v 0.03426742 -0.00686028 0.02209741
v 0.03699441 -0.00215921 0.04165325
v 0.03716949 -0.00215921 0.04349939
v 0.03509470 -0.00215921 0.02499376
v 0.03533107 -0.00215921 0.02683990
v 0.03584758 0.00335128 0.04890516
v 0.03618025 0.00270803 0.04941367
v 0.03729643 -0.00030987 0.05090606
v 0.03712572 -0.00030987 0.04905992
v 0.03625904 0.00290636 0.05090606
v 0.03778230 0.00013504 0.05830168
v 0.03807995 -0.00078695 0.05830168
v 0.03800116 -0.00103889 0.05644449
v 0.03475766 -0.00585788 0.02314762
v 0.03421489 -0.00479652 0.02043921
v 0.03431557 -0.00356363 0.02016284
v 0.03437685 -0.00585788 0.02172155
v 0.03431557 -0.00267381 0.02016284
v 0.03446439 -0.00209488 0.02129042
v 0.03419738 -0.00144092 0.02068241
v 0.03427179 -0.00115146 0.02192054
v 0.02775854 -0.00180542 0.10493057
v 0.02775854 -0.00272741 0.10580389
v 0.03151416 -0.00208952 0.10280806
v 0.03081819 -0.00097456 0.10222216
v 0.02966699 -0.00058861 0.10278595
v 0.02918112 0.00087477 0.10055289
v 0.02775854 0.00061211 0.10179102
v 0.02775854 -0.00000969 0.10271962
v 0.02775854 -0.00092632 0.10401303
v 0.00925179 -0.00416400 0.10810328
v 0.00471702 -0.00316696 0.10536170
v -0.00440066 -0.00623311 0.09925949
v -0.00440066 -0.00763753 0.10077399
v 0.00740024 -0.00252908 0.10629030
v 0.00554869 -0.00216993 0.10455471
v 0.00638473 -0.00118898 0.10374771
v 0.01665799 0.01635023 0.00062911
v 0.01850079 0.01450089 0.00060700
v 0.00369714 0.02315793 0.00136978
v 0.00554869 0.02190360 0.00082810
v 0.01110334 0.02005426 0.00073966
v 0.01295489 0.01819957 0.00051857
v -0.00440066 0.02325978 0.00274057
v -0.00370469 0.02339915 0.00278479
v -0.00185314 0.02363501 0.00278479
v -0.00000159 0.02374757 0.00278479
v 0.00184996 0.02376902 0.00278479
v 0.00369714 0.02370469 0.00278479
v 0.02036985 0.01449017 0.00125923
v 0.02216449 0.01250683 0.00140294
v 0.02220389 0.01079686 0.00087232
v 0.02405544 0.00709283 0.00101603
v 0.02405544 0.00524349 0.00078388
v 0.02556119 0.00339416 0.00130345
v 0.02652855 0.00154482 0.00220994
v 0.02641912 -0.00030987 0.00232049
v 0.02629656 -0.00215921 0.00246420
v 0.02499653 -0.00496806 0.00184514
v 0.02697064 -0.00347251 0.00354756
v 0.02549991 -0.00569171 0.00275162
v 0.02654168 -0.00585788 0.00406714
v 0.02729893 -0.00585788 0.00499573
v 0.02767975 -0.00757857 0.00658762
v 0.02822252 -0.00585788 0.00616754
v 0.02850704 -0.00441594 0.00580273
v 0.02886159 -0.00585788 0.00709613
v 0.02943062 -0.00585788 0.00833427
v 0.03046364 -0.00645289 0.01129694
v 0.03239836 -0.00681739 0.01662532
v 0.03257782 -0.00718726 0.01758708
v 0.03289736 -0.00782515 0.01935584
v 0.03370276 -0.00756785 0.02141202
v 0.03809746 -0.00252372 0.05276326
v 0.03733582 -0.00215921 0.04535658
v 0.03795301 -0.00118898 0.05538323
v 0.03815873 -0.00057253 0.06014782
v 0.03845638 -0.00030987 0.06570836
v 0.03784795 0.00035482 0.06014782
v 0.03790048 0.00050491 0.06166232
v 0.03793987 0.00062284 0.06288940
v 0.03261722 -0.00280246 0.10216688
v 0.03279668 -0.00217529 0.10068555
v 0.03751091 0.00180748 0.06941169
v 0.03628092 0.00268123 0.07271706
v 0.03252092 -0.00108713 0.09902734
v 0.03647352 0.00290100 0.07125784
v 0.03238522 -0.00123186 0.09994488
v 0.03599640 0.00413925 0.05644449
v 0.03600954 0.00418214 0.05830168
v 0.03601829 0.00420894 0.06014782
v 0.03593950 0.00397308 0.05276326
v 0.03597452 0.00407493 0.05460940
v 0.03410108 -0.00585788 0.02080401
v 0.03505531 0.00524349 0.04905992
v 0.03589135 0.00382835 0.05090606
v 0.03632469 0.00304573 0.05276326
v 0.03397852 -0.00411039 0.01949955
v 0.03363272 -0.00585788 0.01944428
v 0.03295426 -0.00585788 0.01758708
v 0.03059496 -0.00521999 0.01095424
v 0.03345326 -0.00215921 0.01758708
v 0.03189060 -0.00400319 0.01388375
v 0.03238522 -0.00307048 0.01481234
v 0.03272665 -0.00233610 0.01555301
v 0.03244213 -0.00183759 0.01466863
v 0.03244213 -0.00079767 0.01466863
v 0.03267412 -0.00022947 0.01560828
v 0.03321251 -0.00030987 0.01758708
v 0.03252967 0.00094982 0.01612786
v 0.03051617 0.00421966 0.01124166
v 0.03266537 0.00125000 0.01758708
v 0.03205256 -0.00156957 0.10118301
v 0.03144413 -0.00075479 0.10068555
v 0.03041111 0.00053707 0.09966851
v 0.02971952 0.00034945 0.10105036
v 0.02775854 0.00101950 0.10086243
v 0.02971952 0.00107847 0.09903839
v 0.02775854 0.00167883 0.09902734
v 0.00740024 -0.00113001 0.10386932
v 0.00740024 -0.00160173 0.10479791
v -0.00440066 -0.00608838 0.09902734
v 0.00740024 -0.00071726 0.10271962
v -0.00440066 0.00988560 0.05997095
v -0.00440066 0.00954253 0.06113170
v -0.00440066 0.00907082 0.06270147
v -0.00440066 0.00682481 0.07007498
v -0.00440066 0.00617620 0.07219749
v -0.00440066 0.00592426 0.07301554
v -0.00440066 0.00574201 0.07359039
v -0.00440066 0.00530246 0.07496117
v -0.00440066 0.00506660 0.07558024
v -0.00440066 0.00465385 0.07663044
v -0.00440066 0.00423574 0.07755904
v -0.00440066 0.00245609 0.08140609
v -0.00440066 0.00205406 0.08225730
v 0.01480644 0.01819957 0.00079493
v 0.01850079 0.01636631 0.00124818
v 0.00554869 0.02304536 0.00151349
v 0.00925179 0.02166774 0.00121502
v 0.01110334 0.02133540 0.00142505
v 0.01291112 0.02012395 0.00123712
v -0.00440066 0.02331338 0.00463093
v -0.00370469 0.02347419 0.00463093
v -0.00185314 0.02390303 0.00648812
v -0.00185314 0.02380118 0.00463093
v -0.00000159 0.02419249 0.00648812
v -0.00000159 0.02401023 0.00463093
v 0.00184996 0.02410672 0.00463093
v 0.00369714 0.02410136 0.00463093
v 0.00554869 0.02350636 0.00278479
v 0.00554869 0.02392447 0.00463093
v 0.01976579 0.01576059 0.00155771
v 0.02151667 0.01386837 0.00161299
v 0.02318000 0.01179390 0.00180092
v 0.02345138 0.01079686 0.00154666
v 0.02409921 0.00878671 0.00135872
v 0.02535984 0.00524349 0.00146927
v 0.02648478 0.00339416 0.00226521
v 0.02732520 0.00154482 0.00312748
v 0.02724203 -0.00030987 0.00323803
v 0.02711509 -0.00215921 0.00339280
v 0.02675178 -0.00471076 0.00380182
v 0.02871277 -0.00317768 0.00551531
v 0.02774103 -0.00394422 0.00466409
v 0.02898853 -0.00387990 0.00644390
v 0.02976767 -0.00400319 0.00833427
v 0.03020538 -0.00584716 0.01027990
v 0.03084445 -0.00584716 0.01196022
v 0.03597452 0.00417142 0.06385116
v 0.03660483 0.00313686 0.06755450
v 0.03658295 0.00305645 0.06941169
v 0.03600954 0.00420358 0.06200502
v 0.03550616 0.00382835 0.07125784
v 0.03133908 -0.00005257 0.09903839
v 0.03571627 0.00398380 0.06941169
v 0.03527855 0.00524349 0.05276326
v 0.03449065 0.00656215 0.05090606
v 0.03449941 0.00654607 0.05276326
v 0.03521727 0.00524349 0.05090606
v 0.03431994 0.00631557 0.04754542
v 0.03442062 0.00648175 0.04905992
v 0.03059496 0.00444480 0.01246874
v 0.03033232 -0.00400319 0.00979349
v 0.03119025 -0.00400319 0.01203760
v 0.03213135 -0.00233610 0.01398324
v 0.03138723 -0.00215921 0.01203760
v 0.03077880 -0.00215921 0.01048994
v 0.02992525 -0.00215921 0.00833427
v 0.02997339 -0.00030987 0.00833427
v 0.03043738 -0.00030987 0.00950607
v 0.03038485 0.00154482 0.00967189
v 0.03072189 0.00154482 0.01060049
v 0.03122965 0.00154482 0.01203760
v 0.03236334 0.00043522 0.01490078
v 0.03079631 -0.00030987 0.01043467
v 0.02918988 0.00154482 0.00648812
v 0.02873027 0.00268659 0.00544898
v 0.03061684 0.00298677 0.01087686
v 0.03031044 0.00352281 0.01022463
v 0.02880469 0.00524349 0.00709613
v 0.02868650 0.00617620 0.00740567
v 0.02882219 0.00644422 0.00833427
v 0.02903668 0.00681945 0.01019146
v 0.03017475 0.00513629 0.01192706
v 0.03064310 0.00070324 0.09843038
v 0.03330881 0.00529174 0.07125784
v 0.03224953 0.00611724 0.07006393
v 0.02840636 0.01161700 0.05132614
v 0.02777605 0.01197079 0.05078446
v 0.02717199 0.01185286 0.05239845
v 0.02590699 0.01257115 0.05090606
v -0.00185314 0.02233243 0.01758708
v -0.00370469 0.02269158 0.01611680
v -0.00370469 0.02228419 0.01758708
v 0.02407732 0.01340738 0.04910414
v 0.02285171 0.01353066 0.04975637
v 0.02162172 0.01362715 0.05017645
v 0.02035234 0.01401846 0.04905992
v 0.01850079 0.01458130 0.04720273
v 0.01665799 0.01465099 0.04720273
v 0.01047302 0.01728830 0.03707659
v 0.00184996 0.02105130 0.02250644
v -0.00185314 0.02270230 0.01610575
v -0.00440066 0.02203761 0.01828353
v -0.00440066 0.02153373 0.02004123
v -0.00440066 0.02106738 0.02165523
v -0.00440066 0.01307503 0.04905992
v -0.00440066 0.01197079 0.05284064
v 0.01480644 0.01949678 0.00148033
v 0.01653105 0.01816740 0.00136978
v 0.01789236 0.01752416 0.00159088
v 0.00686622 0.02292207 0.00169037
v 0.00810059 0.02276662 0.00202201
v 0.01226767 0.02108882 0.00169037
v -0.00440066 0.02332946 0.00648812
v -0.00370469 0.02350636 0.00648812
v -0.00185314 0.02394055 0.00833427
v 0.00184996 0.02429970 0.00648812
v -0.00000159 0.02418177 0.00833427
v 0.00369714 0.02420857 0.00648812
v 0.00744839 0.02313649 0.00269635
v 0.00740024 0.02355996 0.00463093
v 0.00554869 0.02395663 0.00648812
v 0.01911797 0.01699884 0.00219889
v 0.02100016 0.01510126 0.00217678
v 0.02325003 0.01372900 0.00353651
v 0.02275103 0.01303215 0.00230943
v 0.02474703 0.00930131 0.00212150
v 0.02355206 0.01250683 0.00287322
v 0.02525041 0.01035731 0.00335963
v 0.02500091 0.00806306 0.00183408
v 0.02512785 0.00709283 0.00170142
v 0.02628780 0.00524349 0.00247526
v 0.02726829 0.00339416 0.00318276
v 0.02824878 0.00154482 0.00446511
v 0.02816562 -0.00030987 0.00446511
v 0.02875216 -0.00215921 0.00544898
v 0.02804305 -0.00215921 0.00452038
v 0.02918988 -0.00215921 0.00648812
v 0.03592199 0.00411781 0.06570836
v 0.03449503 0.00650855 0.05460940
v 0.03446877 0.00645494 0.05644449
v 0.03583883 0.00405885 0.06755450
v 0.03479268 0.00474498 0.06941169
v 0.03457820 0.00456272 0.07125784
v 0.03430244 0.00623517 0.06161810
v 0.03422364 0.00616012 0.06284518
v 0.03382970 0.00740373 0.04905992
v 0.03385158 0.00748950 0.05090606
v 0.02852017 0.00774680 0.01019146
v 0.03245964 0.00812739 0.04204016
v 0.02923803 -0.00030987 0.00648812
v 0.02876091 0.00154482 0.00539371
v 0.02965824 0.00339416 0.00833427
v 0.02824440 0.00334055 0.00475253
v 0.02680431 0.00789153 0.00377971
v 0.02859896 0.00392484 0.00576957
v 0.02896227 0.00334055 0.00642179
v 0.02844138 0.00524349 0.00617859
v 0.02702317 0.00832036 0.00500679
v 0.02834508 0.00736621 0.00833427
v 0.03320376 0.00574201 0.06943380
v 0.03251654 0.00623517 0.06883685
v 0.02872590 0.01174565 0.05008801
v 0.02590699 0.01293566 0.04905992
v -0.00370469 0.02292207 0.01518820
v -0.00440066 0.02289527 0.01507766
v -0.00440066 0.02247716 0.01666954
v 0.02471202 0.01351458 0.04757859
v 0.02347765 0.01364859 0.04851824
v 0.02222577 0.01377188 0.04910414
v 0.02035234 0.01442585 0.04720273
v 0.01850079 0.01498333 0.04535658
v 0.01665799 0.01592140 0.04165325
v 0.01665799 0.01557297 0.04324513
v 0.01665799 0.01536928 0.04417373
v 0.01665799 0.01509590 0.04535658
v 0.01480644 0.01562658 0.04341095
v 0.01295489 0.01654857 0.03980711
v 0.00694501 0.01915372 0.02973624
v 0.00184996 0.02133540 0.02129042
v -0.00000159 0.02227347 0.01758708
v -0.00185314 0.02320617 0.01388375
v 0.01583070 0.01919124 0.00176775
v 0.01706507 0.01875705 0.00240893
v 0.01837385 0.01810844 0.00291744
v 0.00887535 0.02297568 0.00326014
v 0.00939624 0.02262725 0.00269635
v 0.01110334 0.02206441 0.00278479
v 0.01350204 0.02078864 0.00222100
v 0.01291112 0.02134076 0.00281795
v -0.00440066 0.02332410 0.00833427
v -0.00370469 0.02351172 0.00833427
v -0.00370469 0.02350100 0.01019146
v -0.00370469 0.02341523 0.01203760
v -0.00185314 0.02384942 0.01019146
v 0.00184996 0.02415496 0.00833427
v -0.00185314 0.02358140 0.01203760
v -0.00000159 0.02390303 0.01019146
v 0.00369714 0.02396199 0.00833427
v 0.01017975 0.02283095 0.00557058
v 0.01017975 0.02283095 0.00552636
v 0.00939624 0.02303464 0.00479675
v 0.01010972 0.02280951 0.00428823
v 0.00740024 0.02353852 0.00648812
v 0.00554869 0.02367253 0.00833427
v 0.00743526 0.02300248 0.01015830
v 0.00807432 0.02277734 0.01075525
v 0.00740024 0.02328658 0.00833427
v 0.01963885 0.01745447 0.00343702
v 0.02032170 0.01632879 0.00280690
v 0.02150354 0.01565874 0.00341491
v 0.02212948 0.01441513 0.00286217
v 0.02261534 0.01481716 0.00463093
v 0.02338135 0.01389517 0.00463093
v 0.02490461 0.01159556 0.00414452
v 0.02619150 0.00720540 0.00289533
v 0.02693125 0.00665864 0.00358073
v 0.02707570 0.00524349 0.00340385
v 0.02877842 -0.00030987 0.00539371
v 0.03442500 0.00637990 0.05830168
v 0.03436809 0.00630485 0.06014782
v 0.03379030 0.00746806 0.05276326
v 0.03292362 0.00860446 0.05090606
v 0.03365023 0.00581706 0.06755450
v 0.03412734 0.00609044 0.06385116
v 0.03241149 0.00804162 0.05934083
v 0.03286672 0.00849725 0.05276326
v 0.03198690 0.00953181 0.05090606
v 0.03266537 0.00825068 0.05644449
v 0.03251216 0.00811667 0.05830168
v 0.03290173 0.00863126 0.04905992
v 0.03256031 0.00826140 0.04349939
v 0.03268287 0.00841149 0.04535658
v 0.03279668 0.00854014 0.04720273
v 0.02500966 0.01176709 0.00537160
v 0.02508845 0.01189038 0.00648812
v 0.02444501 0.01281237 0.00648812
v 0.02457632 0.01300535 0.00833427
v 0.02470764 0.01319832 0.01019146
v 0.02684371 0.01174029 0.01841619
v 0.02721577 0.00858302 0.00648812
v 0.03272665 0.00635846 0.06755450
v 0.03223203 0.00793441 0.06057896
v 0.03048991 0.00985343 0.05542745
v 0.03068250 0.00996600 0.05418932
v 0.02944813 0.01122570 0.05078446
v 0.03106331 0.01025546 0.05090606
v 0.02974578 0.01126322 0.04905992
v 0.02881782 0.01179390 0.04905992
v 0.02775854 0.01225489 0.04905992
v 0.02573190 0.01324120 0.04705901
v 0.02500091 0.01357891 0.04634046
v -0.00370469 0.02317401 0.01388375
v -0.00440066 0.02299176 0.01458019
v 0.02114461 0.01539608 0.04052566
v 0.02220389 0.01442585 0.04535658
v 0.02145539 0.01548185 0.03928753
v 0.01204881 0.02098161 0.01670270
v 0.02220389 0.01413639 0.04720273
v 0.01946377 0.01543360 0.04261501
v 0.01585259 0.01729902 0.03529677
v 0.01850079 0.01549257 0.04288032
v 0.01665799 0.01630735 0.03980711
v 0.01850079 0.01530495 0.04380892
v 0.00925179 0.02004890 0.02499376
v 0.00184996 0.02377974 0.01019146
v 0.00740024 0.02058494 0.02314762
v 0.01295489 0.01743303 0.03587162
v 0.01295489 0.01722933 0.03680022
v 0.00332508 0.02101377 0.02237378
v -0.00000159 0.02309361 0.01388375
v -0.00000159 0.02350100 0.01203760
v -0.00000159 0.02265405 0.01587360
v 0.01475829 0.02040805 0.00281795
v 0.01653105 0.01943246 0.00292850
v 0.01762972 0.01915908 0.00364706
v 0.01411047 0.02109418 0.00345913
v -0.00440066 0.02331338 0.01019146
v -0.00440066 0.02330266 0.01096529
v -0.00440066 0.02324906 0.01203760
v -0.00440066 0.02319009 0.01294409
v 0.00369714 0.02360820 0.01019146
v 0.00184996 0.02338307 0.01203760
v 0.00622277 0.02279878 0.01277827
v 0.00554869 0.02335627 0.01019146
v 0.01372527 0.02092265 0.01203760
v 0.01385221 0.02096553 0.01095424
v 0.01091950 0.02248252 0.00630019
v 0.01295489 0.02165166 0.00648812
v 0.01295489 0.02172135 0.00463093
v 0.01091950 0.02253613 0.00479675
v 0.00930869 0.02301856 0.00630019
v 0.00996527 0.02276662 0.00679766
v 0.01582632 0.01915908 0.02250644
v 0.01935434 0.01725078 0.02936038
v 0.01950754 0.01730974 0.02812225
v 0.00845952 0.02286847 0.00951712
v 0.00873090 0.02294888 0.00833427
v 0.00683996 0.02290599 0.01154014
v 0.01042487 0.02103522 0.01884732
v 0.01757720 0.01727758 0.03331798
v 0.01980519 0.01758848 0.00463093
v 0.02072877 0.01676834 0.00463093
v 0.02168738 0.01584099 0.00463093
v 0.02274666 0.01498333 0.00648812
v 0.02352142 0.01405598 0.00648812
v 0.02439686 0.01249075 0.00470831
v 0.03206131 0.00955861 0.04905992
v 0.03086634 0.01009465 0.05276326
v 0.03113335 0.01034123 0.04905992
v 0.03200441 0.00946212 0.04720273
v 0.03047240 0.00978375 0.03567263
v 0.03054681 0.00989096 0.03691076
v 0.03060371 0.00996064 0.03794991
v 0.03070876 0.01007321 0.03980711
v 0.03192562 0.00933348 0.04535658
v 0.02483020 0.01336985 0.01203760
v 0.02690936 0.01183142 0.01944428
v 0.02983770 0.01126322 0.04720273
v 0.02890974 0.01185822 0.04720273
v 0.02775854 0.01241034 0.04720273
v 0.02533358 0.01372364 0.04349939
v 0.02512785 0.01363251 0.04535658
v 0.01558120 0.01908939 0.02373352
v 0.01981394 0.01550865 0.04165325
v 0.01222828 0.02104058 0.01574094
v 0.00965449 0.02268086 0.00833427
v 0.00983833 0.02093337 0.02008545
v 0.01222390 0.01915908 0.02792326
v 0.00925179 0.02042949 0.02314762
v 0.01480644 0.01735798 0.03555103
v 0.00554869 0.02230027 0.01574094
v 0.00369714 0.02293816 0.01346366
v 0.00369714 0.02323298 0.01203760
v 0.00554869 0.02114778 0.02113565
v 0.00455944 0.02097625 0.02219691
v 0.00166612 0.02262189 0.01555301
v 0.00093075 0.02283095 0.01481234
v 0.00166612 0.02297032 0.01397218
v 0.01514786 0.02067071 0.00463093
v 0.01665799 0.01981305 0.00463093
v 0.01768225 0.01919124 0.00463093
v 0.01860146 0.01851583 0.00463093
v 0.01421990 0.02114778 0.00463093
v 0.00498841 0.02287383 0.01318730
v 0.01394851 0.02100841 0.00971611
v 0.01962135 0.01736335 0.02683990
v 0.02301804 0.01538000 0.03424657
v 0.01404919 0.02105666 0.00833427
v 0.01416299 0.02111562 0.00648812
v 0.01990586 0.01765817 0.00648812
v 0.02091699 0.01697740 0.00833427
v 0.02082945 0.01688091 0.00648812
v 0.02314936 0.01544432 0.01277827
v 0.02307495 0.01536928 0.01155119
v 0.02181869 0.01595356 0.00648812
v 0.02298740 0.01527279 0.01019146
v 0.02286484 0.01513342 0.00833427
v 0.02378405 0.01434544 0.01019146
v 0.02365274 0.01420607 0.00833427
v 0.03107645 0.01034123 0.04720273
v 0.02872152 0.01176173 0.03478825
v 0.02877405 0.01180462 0.03610377
v 0.02892287 0.01190110 0.04165325
v 0.02894038 0.01190110 0.04349939
v 0.02866024 0.01169741 0.03355012
v 0.02491774 0.01349314 0.01345261
v 0.02499653 0.01359499 0.01469074
v 0.02849828 0.01149907 0.03054323
v 0.02893600 0.01188502 0.04535658
v 0.02332007 0.01553009 0.02869709
v 0.02325003 0.01548721 0.03054323
v 0.02640599 0.01337521 0.04165325
v 0.02658108 0.01343418 0.03794991
v 0.02103956 0.01714357 0.01758708
v 0.02547802 0.01379868 0.04165325
v 0.01508658 0.02065999 0.00648812
v 0.01665799 0.01978624 0.00833427
v 0.01665799 0.01982377 0.00648812
v 0.01771727 0.01921268 0.00648812
v 0.02108770 0.01715429 0.01388375
v 0.02106144 0.01712213 0.01203760
v 0.01999341 0.01770105 0.00833427
v 0.02310559 0.01541216 0.03315215
v 0.01743713 0.01906259 0.01574094
v 0.01752905 0.01910011 0.01430382
v 0.01759033 0.01913228 0.01306569
v 0.02100016 0.01705780 0.01019146
v 0.02515411 0.01377188 0.01758708
v 0.02318875 0.01548185 0.01388375
v 0.02887910 0.01187966 0.03980711
v 0.02882657 0.01185286 0.03794991
v 0.02325003 0.01553545 0.01574094
v 0.02331132 0.01557833 0.01758708
v 0.02664236 0.01345026 0.03424657
v 0.02335946 0.01560514 0.01944428
v 0.02662485 0.01345026 0.03610377
v 0.02339886 0.01559442 0.02499376
v 0.02097827 0.01711677 0.01944428
v 0.02011597 0.01764209 0.01758708
v 0.01763410 0.01915372 0.01203760
v 0.02318438 0.01544968 0.03191402
v 0.02107895 0.01715965 0.01574094
v 0.01772165 0.01921268 0.00833427
v 0.01769101 0.01919124 0.01019146
v 0.02340324 0.01561050 0.02314762
v 0.02338573 0.01561050 0.02129042
f 1 2 3
f 1 3 4
f 1 4 5
f 1 5 6
f 1 6 7
f 1 7 8
f 1 8 2
f 2 9 10
f 2 10 3
f 2 8 11
f 2 11 9
f 3 10 12
f 3 12 13
f 3 13 4
f 4 14 5
f 4 13 15
f 4 15 16
f 4 16 42
f 4 42 14
f 5 14 17
f 5 17 18
f 5 18 6
f 6 18 19
f 6 19 20
f 6 20 21
f 6 21 7
f 7 21 22
f 7 22 8
f 8 22 23
f 8 23 11
f 9 24 25
f 9 25 26
f 9 26 27
f 9 27 28
f 9 28 10
f 9 11 24
f 10 28 29
f 10 29 12
f 11 30 31
f 11 31 32
f 11 32 33
f 11 33 24
f 11 23 30
f 12 29 34
f 12 34 35
f 12 35 36
f 12 36 13
f 13 36 37
f 13 37 38
f 13 38 39
f 13 39 40
f 13 40 15
f 14 41 49
f 14 49 17
f 14 42 41
f 15 40 43
f 15 43 44
f 15 44 80
f 15 80 45
f 15 45 16
f 16 45 46
f 16 46 47
f 16 47 48
f 16 48 42
f 17 49 18
f 18 49 50
f 18 50 19
f 19 51 52
f 19 52 53
f 19 53 54
f 19 54 20
f 19 50 55
f 19 55 51
f 20 54 21
f 21 54 22
f 22 54 56
f 22 56 23
f 23 56 57
f 23 57 58
f 23 58 30
f 24 33 25
f 25 59 60
f 25 60 26
f 25 33 61
f 25 61 31
f 25 31 65
f 25 65 99
f 25 99 147
f 25 147 146
f 25 146 205
f 25 205 268
f 25 268 346
f 25 346 420
f 25 420 495
f 25 495 494
f 25 494 593
f 25 593 592
f 25 592 707
f 25 707 706
f 25 706 787
f 25 787 786
f 25 786 886
f 25 886 885
f 25 885 884
f 25 884 883
f 25 883 985
f 25 985 984
f 25 984 1073
f 25 1073 1087
f 25 1087 1086
f 25 1086 1085
f 25 1085 1084
f 25 1084 1083
f 25 1083 1082
f 25 1082 1081
f 25 1081 1080
f 25 1080 1079
f 25 1079 1078
f 25 1078 1077
f 25 1077 1076
f 25 1076 1075
f 25 1075 1180
f 25 1180 1179
f 25 1179 1178
f 25 1178 1177
f 25 1177 1176
f 25 1176 1240
f 25 1240 1239
f 25 1239 1327
f 25 1327 1354
f 25 1354 1353
f 25 1353 1352
f 25 1352 1351
f 25 1351 1264
f 25 1264 1187
f 25 1187 1094
f 25 1094 995
f 25 995 894
f 25 894 791
f 25 791 709
f 25 709 594
f 25 594 496
f 25 496 423
f 25 423 422
f 25 422 421
f 25 421 347
f 25 347 276
f 25 276 278
f 25 278 275
f 25 275 274
f 25 274 272
f 25 272 273
f 25 273 271
f 25 271 210
f 25 210 270
f 25 270 269
f 25 269 206
f 25 206 150
f 25 150 149
f 25 149 148
f 25 148 100
f 25 100 59
f 26 60 62
f 26 62 27
f 27 62 29
f 27 29 28
f 29 62 63
f 29 63 34
f 30 64 31
f 30 58 64
f 31 61 32
f 31 64 65
f 32 61 33
f 34 63 66
f 34 66 67
f 34 67 35
f 35 37 36
f 35 67 68
f 35 68 37
f 37 68 69
f 37 69 38
f 38 69 39
f 39 70 71
f 39 71 72
f 39 72 40
f 39 69 73
f 39 73 70
f 40 72 43
f 41 74 75
f 41 75 49
f 41 42 74
f 42 76 77
f 42 77 78
f 42 78 74
f 42 48 79
f 42 79 76
f 43 72 44
f 44 72 80
f 45 80 46
f 46 80 81
f 46 81 82
f 46 82 47
f 47 82 48
f 48 82 83
f 48 83 84
f 48 84 79
f 49 75 50
f 50 75 55
f 51 85 86
f 51 86 52
f 51 55 87
f 51 87 85
f 52 88 89
f 52 89 90
f 52 90 53
f 52 86 88
f 53 90 91
f 53 91 54
f 54 91 56
f 55 75 92
f 55 92 93
f 55 93 87
f 56 91 94
f 56 94 57
f 57 94 95
f 57 95 96
f 57 96 58
f 58 96 97
f 58 97 98
f 58 98 99
f 58 99 65
f 58 65 64
f 59 100 60
f 60 100 63
f 60 63 62
f 63 100 101
f 63 101 66
f 66 101 102
f 66 102 103
f 66 103 67
f 67 103 68
f 68 103 104
f 68 104 69
f 69 104 105
f 69 105 73
f 70 73 106
f 70 106 107
f 70 107 71
f 71 107 108
f 71 108 72
f 72 109 80
f 72 108 110
f 72 110 111
f 72 111 112
f 72 112 113
f 72 113 114
f 72 114 109
f 73 105 115
f 73 115 106
f 74 116 92
f 74 92 75
f 74 78 116
f 76 79 117
f 76 117 77
f 77 118 78
f 77 117 118
f 78 118 119
f 78 119 120
f 78 120 116
f 79 84 121
f 79 121 122
f 79 122 117
f 80 109 81
f 81 109 114
f 81 114 123
f 81 123 82
f 82 123 124
f 82 124 83
f 83 124 84
f 84 124 121
f 85 125 86
f 85 87 126
f 85 126 125
f 86 125 88
f 87 93 127
f 87 127 128
f 87 128 129
f 87 129 126
f 88 130 131
f 88 131 132
f 88 132 89
f 88 125 133
f 88 133 130
f 89 132 134
f 89 134 90
f 90 134 91
f 91 134 135
f 91 135 94
f 92 116 136
f 92 136 137
f 92 137 138
f 92 138 139
f 92 139 140
f 92 140 93
f 93 140 141
f 93 141 127
f 94 135 142
f 94 142 95
f 95 142 143
f 95 143 144
f 95 144 145
f 95 145 97
f 95 97 96
f 97 145 146
f 97 146 147
f 97 147 99
f 97 99 98
f 100 148 101
f 101 148 149
f 101 149 102
f 102 149 150
f 102 150 151
f 102 151 152
f 102 152 103
f 103 152 153
f 103 153 154
f 103 154 155
f 103 155 104
f 104 155 154
f 104 154 105
f 105 154 115
f 106 115 156
f 106 156 107
f 107 156 157
f 107 157 158
f 107 158 110
f 107 110 108
f 110 158 159
f 110 159 160
f 110 160 111
f 111 160 161
f 111 161 112
f 112 161 162
f 112 162 113
f 113 162 161
f 113 161 163
f 113 163 114
f 114 163 164
f 114 164 122
f 114 122 121
f 114 121 124
f 114 124 123
f 115 154 156
f 116 120 165
f 116 165 166
f 116 166 136
f 117 122 167
f 117 167 118
f 118 168 119
f 118 167 168
f 119 169 120
f 119 168 169
f 120 169 170
f 120 170 165
f 122 164 171
f 122 171 172
f 122 172 167
f 125 173 174
f 125 174 175
f 125 175 133
f 125 126 176
f 125 176 177
f 125 177 173
f 126 129 178
f 126 178 176
f 127 141 179
f 127 179 180
f 127 180 181
f 127 181 182
f 127 182 183
f 127 183 128
f 128 184 178
f 128 178 129
f 128 183 185
f 128 185 184
f 130 133 175
f 130 175 131
f 131 186 187
f 131 187 132
f 131 175 186
f 132 187 188
f 132 188 189
f 132 189 134
f 134 189 190
f 134 190 135
f 135 190 142
f 136 166 137
f 137 166 191
f 137 191 192
f 137 192 138
f 138 192 193
f 138 193 139
f 139 194 140
f 139 193 195
f 139 195 194
f 140 194 141
f 141 194 196
f 141 196 197
f 141 197 179
f 142 190 143
f 143 190 198
f 143 198 199
f 143 199 144
f 144 199 200
f 144 200 201
f 144 201 202
f 144 202 203
f 144 203 204
f 144 204 145
f 145 204 146
f 146 204 205
f 150 206 152
f 150 152 151
f 152 206 207
f 152 207 153
f 153 207 154
f 154 207 208
f 154 208 209
f 154 209 210
f 154 210 211
f 154 211 212
f 154 212 159
f 154 159 158
f 154 158 157
f 154 157 156
f 159 212 213
f 159 213 214
f 159 214 215
f 159 215 216
f 159 216 217
f 159 217 218
f 159 218 219
f 159 219 161
f 159 161 160
f 161 219 220
f 161 220 164
f 161 164 163
f 164 220 218
f 164 218 221
f 164 221 222
f 164 222 223
f 164 223 224
f 164 224 167
f 164 167 172
f 164 172 171
f 165 170 166
f 166 170 225
f 166 225 260
f 166 260 191
f 167 224 223
f 167 223 226
f 167 226 227
f 167 227 228
f 167 228 229
f 167 229 230
f 167 230 231
f 167 231 232
f 167 232 233
f 167 233 234
f 167 234 168
f 168 234 235
f 168 235 236
f 168 236 169
f 169 236 237
f 169 237 170
f 170 237 225
f 173 177 176
f 173 176 238
f 173 238 239
f 173 239 240
f 173 240 241
f 173 241 242
f 173 242 243
f 173 243 175
f 173 175 174
f 175 244 186
f 175 243 244
f 176 178 245
f 176 245 238
f 178 246 239
f 178 239 245
f 178 184 246
f 179 197 247
f 179 247 180
f 180 247 195
f 180 195 248
f 180 248 181
f 181 248 182
f 182 248 249
f 182 249 250
f 182 250 183
f 183 250 251
f 183 251 252
f 183 252 253
f 183 253 185
f 184 185 254
f 184 254 246
f 185 253 254
f 186 255 256
f 186 256 187
f 186 244 255
f 187 256 257
f 187 257 258
f 187 258 188
f 188 258 189
f 189 259 198
f 189 198 190
f 189 258 259
f 191 260 261
f 191 261 192
f 192 261 262
f 192 262 193
f 193 262 195
f 194 195 196
f 195 262 263
f 195 263 248
f 195 247 197
f 195 197 196
f 198 259 199
f 199 259 200
f 200 259 264
f 200 264 201
f 201 264 265
f 201 265 202
f 202 266 267
f 202 267 203
f 202 265 266
f 203 267 205
f 203 205 204
f 205 267 268
f 206 269 208
f 206 208 207
f 208 210 209
f 208 269 270
f 208 270 210
f 210 271 213
f 210 213 212
f 210 212 211
f 213 272 214
f 213 271 273
f 213 273 272
f 214 274 275
f 214 275 215
f 214 272 274
f 215 276 277
f 215 277 216
f 215 275 278
f 215 278 276
f 216 277 279
f 216 279 280
f 216 280 281
f 216 281 217
f 217 281 218
f 218 281 282
f 218 282 221
f 218 220 219
f 221 282 283
f 221 283 284
f 221 284 222
f 222 284 285
f 222 285 286
f 222 286 287
f 222 287 288
f 222 288 226
f 222 226 223
f 225 237 289
f 225 289 290
f 225 290 260
f 226 288 291
f 226 291 228
f 226 228 227
f 228 291 229
f 229 291 292
f 229 292 230
f 230 292 293
f 230 293 294
f 230 294 295
f 230 295 290
f 230 290 296
f 230 296 289
f 230 289 231
f 231 289 236
f 231 236 235
f 231 235 297
f 231 297 298
f 231 298 232
f 232 298 234
f 232 234 233
f 234 298 297
f 234 297 235
f 236 289 237
f 238 245 239
f 239 299 240
f 239 246 300
f 239 300 301
f 239 301 299
f 240 299 302
f 240 302 303
f 240 303 241
f 241 303 242
f 242 303 304
f 242 304 305
f 242 305 306
f 242 306 244
f 242 244 243
f 244 306 307
f 244 307 255
f 246 254 300
f 248 263 249
f 249 263 308
f 249 308 250
f 250 308 251
f 251 308 309
f 251 309 252
f 252 309 310
f 252 310 311
f 252 311 312
f 252 312 313
f 252 313 253
f 253 313 389
f 253 389 314
f 253 314 315
f 253 315 316
f 253 316 317
f 253 317 254
f 254 317 318
f 254 318 300
f 255 319 320
f 255 320 321
f 255 321 256
f 255 307 319
f 256 321 257
f 257 322 323
f 257 323 324
f 257 324 325
f 257 325 326
f 257 326 327
f 257 327 328
f 257 328 258
f 257 321 322
f 258 328 327
f 258 327 259
f 259 327 329
f 259 329 264
f 260 290 261
f 261 290 330
f 261 330 331
f 261 331 332
f 261 332 333
f 261 333 334
f 261 334 262
f 262 335 336
f 262 336 263
f 262 334 333
f 262 333 335
f 263 336 337
f 263 337 338
f 263 338 308
f 264 329 339
f 264 339 340
f 264 340 341
f 264 341 342
f 264 342 265
f 265 342 343
f 265 343 266
f 266 343 267
f 267 343 344
f 267 344 345
f 267 345 346
f 267 346 268
f 276 347 277
f 277 347 348
f 277 348 349
f 277 349 279
f 279 349 350
f 279 350 280
f 280 350 281
f 281 350 351
f 281 351 352
f 281 352 353
f 281 353 282
f 282 353 354
f 282 354 355
f 282 355 283
f 283 356 284
f 283 355 356
f 284 356 357
f 284 357 358
f 284 358 359
f 284 359 285
f 285 359 360
f 285 360 361
f 285 361 362
f 285 362 286
f 286 363 287
f 286 362 364
f 286 364 365
f 286 365 363
f 287 363 365
f 287 365 366
f 287 366 367
f 287 367 288
f 288 367 291
f 289 296 290
f 290 295 368
f 290 368 331
f 290 331 330
f 291 367 366
f 291 366 369
f 291 369 333
f 291 333 294
f 291 294 292
f 292 294 293
f 294 333 370
f 294 370 371
f 294 371 295
f 295 331 368
f 295 371 331
f 299 301 372
f 299 372 373
f 299 373 302
f 300 318 374
f 300 374 301
f 301 375 372
f 301 374 376
f 301 376 375
f 302 377 378
f 302 378 303
f 302 373 377
f 303 378 379
f 303 379 380
f 303 380 304
f 304 380 381
f 304 381 382
f 304 382 305
f 305 382 383
f 305 383 306
f 306 383 384
f 306 384 307
f 307 384 319
f 308 338 310
f 308 310 385
f 308 385 309
f 309 385 310
f 310 338 337
f 310 337 386
f 310 386 311
f 311 313 312
f 311 386 387
f 311 387 388
f 311 388 313
f 313 388 389
f 314 389 390
f 314 390 391
f 314 391 315
f 315 392 393
f 315 393 394
f 315 394 316
f 315 391 390
f 315 390 395
f 315 395 396
f 315 396 397
f 315 397 398
f 315 398 399
f 315 399 392
f 316 394 317
f 317 394 393
f 317 393 318
f 318 393 400
f 318 400 401
f 318 401 374
f 319 402 320
f 319 384 402
f 320 402 403
f 320 403 404
f 320 404 321
f 321 404 322
f 322 404 323
f 323 404 403
f 323 403 405
f 323 405 339
f 323 339 324
f 324 339 326
f 324 326 325
f 326 339 406
f 326 406 407
f 326 407 329
f 326 329 327
f 329 407 406
f 329 406 339
f 331 371 370
f 331 370 408
f 331 408 332
f 332 408 370
f 332 370 333
f 333 369 409
f 333 409 410
f 333 410 411
f 333 411 412
f 333 412 413
f 333 413 335
f 335 413 336
f 336 413 412
f 336 412 414
f 336 414 386
f 336 386 337
f 339 415 416
f 339 416 340
f 339 405 415
f 340 416 417
f 340 417 418
f 340 418 343
f 340 343 341
f 341 343 342
f 343 419 345
f 343 345 344
f 343 418 419
f 345 419 420
f 345 420 346
f 347 421 348
f 348 421 422
f 348 422 349
f 349 422 423
f 349 423 424
f 349 424 350
f 350 424 352
f 350 352 351
f 352 424 425
f 352 425 426
f 352 426 353
f 353 426 354
f 354 427 355
f 354 426 427
f 355 427 428
f 355 428 429
f 355 429 356
f 356 429 357
f 357 430 431
f 357 431 432
f 357 432 433
f 357 433 434
f 357 434 435
f 357 435 436
f 357 436 358
f 357 429 437
f 357 437 430
f 358 436 438
f 358 438 360
f 358 360 359
f 360 438 439
f 360 439 440
f 360 440 361
f 361 440 441
f 361 441 442
f 361 442 362
f 362 442 443
f 362 443 387
f 362 387 364
f 364 387 444
f 364 444 365
f 365 409 369
f 365 369 366
f 365 444 445
f 365 445 409
f 372 446 447
f 372 447 373
f 372 375 448
f 372 448 449
f 372 449 450
f 372 450 446
f 373 447 377
f 374 401 451
f 374 451 376
f 375 376 452
f 375 452 453
f 375 453 454
f 375 454 448
f 376 451 452
f 377 455 378
f 377 447 456
f 377 456 455
f 378 455 379
f 379 455 457
f 379 457 458
f 379 458 381
f 379 381 380
f 381 458 459
f 381 459 460
f 381 460 461
f 381 461 382
f 382 461 383
f 383 461 462
f 383 462 384
f 384 462 463
f 384 463 402
f 386 414 387
f 387 464 465
f 387 465 388
f 387 414 444
f 387 443 464
f 388 466 467
f 388 467 389
f 388 465 468
f 388 468 466
f 389 467 390
f 390 467 395
f 392 399 393
f 393 469 470
f 393 470 471
f 393 471 400
f 393 399 398
f 393 398 472
f 393 472 473
f 393 473 474
f 393 474 475
f 393 475 476
f 393 476 469
f 395 467 396
f 396 467 477
f 396 477 397
f 397 477 478
f 397 478 479
f 397 479 398
f 398 479 480
f 398 480 472
f 400 481 482
f 400 482 401
f 400 471 483
f 400 483 481
f 401 482 451
f 402 463 484
f 402 484 485
f 402 485 403
f 403 485 405
f 405 485 486
f 405 486 415
f 409 445 411
f 409 411 410
f 411 445 487
f 411 487 488
f 411 488 412
f 412 488 414
f 414 488 444
f 415 489 490
f 415 490 416
f 415 486 489
f 416 490 491
f 416 491 492
f 416 492 417
f 417 492 493
f 417 493 419
f 417 419 418
f 419 493 494
f 419 494 495
f 419 495 420
f 423 496 497
f 423 497 424
f 424 497 425
f 425 497 496
f 425 496 594
f 425 594 708
f 425 708 788
f 425 788 712
f 425 712 595
f 425 595 498
f 425 498 499
f 425 499 500
f 425 500 426
f 426 500 501
f 426 501 427
f 427 501 502
f 427 502 503
f 427 503 428
f 428 504 437
f 428 437 429
f 428 503 504
f 430 505 506
f 430 506 431
f 430 437 507
f 430 507 508
f 430 508 509
f 430 509 510
f 430 510 511
f 430 511 512
f 430 512 513
f 430 513 514
f 430 514 505
f 431 506 515
f 431 515 432
f 432 515 516
f 432 516 517
f 432 517 433
f 433 517 434
f 434 517 625
f 434 625 518
f 434 518 519
f 434 519 520
f 434 520 435
f 435 520 521
f 435 521 522
f 435 522 436
f 436 522 438
f 437 504 507
f 438 523 524
f 438 524 439
f 438 522 523
f 439 524 440
f 440 524 525
f 440 525 441
f 441 526 443
f 441 443 442
f 441 525 524
f 441 524 523
f 441 523 526
f 443 526 464
f 444 488 487
f 444 487 445
f 446 527 528
f 446 528 447
f 446 450 529
f 446 529 527
f 447 528 456
f 448 454 530
f 448 530 531
f 448 531 532
f 448 532 449
f 449 532 450
f 450 532 531
f 450 531 533
f 450 533 534
f 450 534 529
f 451 535 536
f 451 536 452
f 451 482 537
f 451 537 535
f 452 538 539
f 452 539 453
f 452 536 540
f 452 540 538
f 453 539 454
f 454 539 530
f 455 456 541
f 455 541 457
f 456 528 542
f 456 542 541
f 457 541 543
f 457 543 544
f 457 544 545
f 457 545 458
f 458 545 546
f 458 546 459
f 459 546 460
f 460 546 547
f 460 547 463
f 460 463 462
f 460 462 461
f 463 547 484
f 464 526 468
f 464 468 465
f 466 548 549
f 466 549 467
f 466 468 548
f 467 549 550
f 467 550 477
f 468 526 522
f 468 522 521
f 468 521 551
f 468 551 548
f 469 476 552
f 469 552 470
f 470 552 483
f 470 483 471
f 472 480 553
f 472 553 554
f 472 554 473
f 473 554 553
f 473 553 474
f 474 553 555
f 474 555 556
f 474 556 557
f 474 557 475
f 475 557 476
f 476 557 558
f 476 558 559
f 476 559 560
f 476 560 552
f 477 561 478
f 477 550 562
f 477 562 563
f 477 563 521
f 477 521 520
f 477 520 561
f 478 561 564
f 478 564 565
f 478 565 566
f 478 566 479
f 479 566 567
f 479 567 480
f 480 567 568
f 480 568 553
f 481 483 482
f 482 569 570
f 482 570 537
f 482 483 571
f 482 571 572
f 482 572 573
f 482 573 574
f 482 574 575
f 482 575 576
f 482 576 577
f 482 577 578
f 482 578 579
f 482 579 580
f 482 580 569
f 483 552 581
f 483 581 571
f 484 547 582
f 484 582 583
f 484 583 584
f 484 584 485
f 485 584 486
f 486 584 585
f 486 585 586
f 486 586 489
f 489 587 588
f 489 588 490
f 489 586 587
f 490 588 589
f 490 589 590
f 490 590 491
f 491 590 591
f 491 591 493
f 491 493 492
f 493 591 592
f 493 592 593
f 493 593 494
f 498 595 499
f 499 595 596
f 499 596 597
f 499 597 500
f 500 597 501
f 501 597 502
f 502 598 599
f 502 599 503
f 502 597 598
f 503 599 600
f 503 600 504
f 504 600 507
f 505 514 506
f 506 514 601
f 506 601 602
f 506 602 515
f 507 600 603
f 507 603 604
f 507 604 605
f 507 605 508
f 508 606 509
f 508 605 607
f 508 607 608
f 508 608 606
f 509 606 608
f 509 608 609
f 509 609 610
f 509 610 611
f 509 611 612
f 509 612 510
f 510 612 613
f 510 613 614
f 510 614 615
f 510 615 616
f 510 616 617
f 510 617 512
f 510 512 511
f 512 617 618
f 512 618 513
f 513 618 514
f 514 619 620
f 514 620 621
f 514 621 622
f 514 622 567
f 514 567 623
f 514 623 624
f 514 624 625
f 514 625 517
f 514 517 516
f 514 516 626
f 514 626 601
f 514 618 619
f 515 602 516
f 516 602 626
f 518 627 520
f 518 520 519
f 518 625 627
f 520 627 628
f 520 628 561
f 521 563 629
f 521 629 549
f 521 549 551
f 522 526 523
f 527 630 542
f 527 542 528
f 527 529 631
f 527 631 632
f 527 632 633
f 527 633 630
f 529 534 632
f 529 632 634
f 529 634 631
f 530 539 635
f 530 635 531
f 531 635 636
f 531 636 637
f 531 637 638
f 531 638 533
f 533 639 534
f 533 638 640
f 533 640 641
f 533 641 639
f 534 642 643
f 534 643 632
f 534 639 642
f 535 537 644
f 535 644 536
f 536 644 540
f 537 570 645
f 537 645 540
f 537 540 644
f 538 646 539
f 538 540 646
f 539 646 647
f 539 647 636
f 539 636 635
f 540 645 637
f 540 637 646
f 541 648 649
f 541 649 543
f 541 542 650
f 541 650 648
f 542 630 651
f 542 651 650
f 543 649 652
f 543 652 544
f 544 652 653
f 544 653 545
f 545 653 546
f 546 653 582
f 546 582 547
f 548 551 549
f 549 562 550
f 549 629 562
f 552 560 654
f 552 654 581
f 553 568 655
f 553 655 656
f 553 656 555
f 555 656 657
f 555 657 556
f 556 657 655
f 556 655 658
f 556 658 659
f 556 659 660
f 556 660 557
f 557 660 558
f 558 661 662
f 558 662 560
f 558 560 559
f 558 660 663
f 558 663 661
f 560 573 654
f 560 662 573
f 561 628 564
f 562 629 563
f 564 628 664
f 564 664 565
f 565 664 665
f 565 665 666
f 565 666 624
f 565 624 623
f 565 623 567
f 565 567 566
f 567 622 667
f 567 667 668
f 567 668 669
f 567 669 670
f 567 670 671
f 567 671 568
f 568 671 672
f 568 672 673
f 568 673 674
f 568 674 655
f 569 675 640
f 569 640 570
f 569 580 676
f 569 676 677
f 569 677 675
f 570 640 638
f 570 638 637
f 570 637 645
f 571 581 572
f 572 581 654
f 572 654 573
f 573 662 574
f 574 662 661
f 574 661 575
f 575 663 678
f 575 678 576
f 575 661 663
f 576 678 679
f 576 679 577
f 577 679 680
f 577 680 681
f 577 681 682
f 577 682 578
f 578 682 579
f 579 682 683
f 579 683 580
f 580 683 684
f 580 684 685
f 580 685 686
f 580 686 687
f 580 687 688
f 580 688 689
f 580 689 690
f 580 690 691
f 580 691 692
f 580 692 676
f 582 693 583
f 582 653 693
f 583 693 694
f 583 694 585
f 583 585 584
f 585 695 586
f 585 694 695
f 586 695 696
f 586 696 697
f 586 697 587
f 587 697 698
f 587 698 588
f 588 699 589
f 588 698 699
f 589 699 700
f 589 700 701
f 589 701 702
f 589 702 703
f 589 703 704
f 589 704 590
f 590 704 591
f 591 704 705
f 591 705 706
f 591 706 707
f 591 707 592
f 594 709 710
f 594 710 711
f 594 711 708
f 595 712 713
f 595 713 714
f 595 714 596
f 596 714 715
f 596 715 716
f 596 716 717
f 596 717 597
f 597 717 718
f 597 718 598
f 598 718 599
f 599 718 717
f 599 717 719
f 599 719 720
f 599 720 600
f 600 720 603
f 601 626 602
f 603 720 721
f 603 721 722
f 603 722 723
f 603 723 604
f 604 723 724
f 604 724 605
f 605 724 607
f 607 724 725
f 607 725 726
f 607 726 609
f 607 609 608
f 609 726 727
f 609 727 728
f 609 728 610
f 610 728 729
f 610 729 611
f 611 613 612
f 611 729 730
f 611 730 726
f 611 726 731
f 611 731 732
f 611 732 733
f 611 733 667
f 611 667 622
f 611 622 613
f 613 622 614
f 614 622 615
f 615 622 734
f 615 734 616
f 616 734 618
f 616 618 617
f 618 734 620
f 618 620 619
f 620 734 621
f 621 734 622
f 624 666 625
f 625 666 628
f 625 628 627
f 628 666 665
f 628 665 664
f 630 633 735
f 630 735 651
f 631 634 632
f 632 643 633
f 633 643 735
f 636 647 646
f 636 646 637
f 639 736 737
f 639 737 642
f 639 641 738
f 639 738 739
f 639 739 740
f 639 740 736
f 640 675 641
f 641 675 741
f 641 741 738
f 642 737 643
f 643 737 735
f 648 650 742
f 648 742 743
f 648 743 649
f 649 743 744
f 649 744 745
f 649 745 652
f 650 651 742
f 651 746 742
f 651 735 747
f 651 747 746
f 652 745 748
f 652 748 653
f 653 748 693
f 655 674 749
f 655 749 750
f 655 750 751
f 655 751 658
f 655 657 656
f 658 751 659
f 659 751 749
f 659 749 752
f 659 752 753
f 659 753 663
f 659 663 660
f 663 753 754
f 663 754 755
f 663 755 679
f 663 679 678
f 667 733 756
f 667 756 757
f 667 757 758
f 667 758 759
f 667 759 668
f 668 759 669
f 669 752 670
f 669 759 752
f 670 752 672
f 670 672 671
f 672 752 673
f 673 752 749
f 673 749 674
f 675 677 760
f 675 760 689
f 675 689 761
f 675 761 741
f 676 692 677
f 677 692 762
f 677 762 760
f 679 755 763
f 679 763 764
f 679 764 765
f 679 765 680
f 680 765 681
f 681 765 684
f 681 684 682
f 682 684 683
f 684 766 685
f 684 765 767
f 684 767 768
f 684 768 769
f 684 769 770
f 684 770 766
f 685 766 686
f 686 766 687
f 687 766 771
f 687 771 688
f 688 771 738
f 688 738 741
f 688 741 761
f 688 761 689
f 689 760 762
f 689 762 690
f 690 762 691
f 691 762 692
f 693 748 772
f 693 772 694
f 694 772 695
f 695 772 773
f 695 773 774
f 695 774 775
f 695 775 776
f 695 776 696
f 696 776 777
f 696 777 778
f 696 778 697
f 697 778 698
f 698 778 777
f 698 777 779
f 698 779 780
f 698 780 701
f 698 701 699
f 699 701 700
f 701 780 781
f 701 781 702
f 702 781 782
f 702 782 783
f 702 783 784
f 702 784 703
f 703 784 785
f 703 785 704
f 704 785 705
f 705 785 786
f 705 786 787
f 705 787 706
f 708 711 789
f 708 789 790
f 708 790 788
f 709 791 792
f 709 792 710
f 710 792 793
f 710 793 711
f 711 793 794
f 711 794 795
f 711 795 789
f 712 788 796
f 712 796 797
f 712 797 713
f 713 797 798
f 713 798 714
f 714 798 799
f 714 799 716
f 714 716 715
f 716 799 800
f 716 800 801
f 716 801 802
f 716 802 717
f 717 802 719
f 719 803 804
f 719 804 720
f 719 802 803
f 720 804 721
f 721 804 805
f 721 805 806
f 721 806 807
f 721 807 808
f 721 808 722
f 722 808 809
f 722 809 723
f 723 809 810
f 723 810 724
f 724 810 725
f 725 810 811
f 725 811 812
f 725 812 813
f 725 813 726
f 726 813 814
f 726 814 815
f 726 815 816
f 726 816 817
f 726 817 731
f 726 730 727
f 727 730 728
f 728 730 729
f 731 817 732
f 732 817 818
f 732 818 733
f 733 818 819
f 733 819 820
f 733 820 756
f 735 737 747
f 736 821 737
f 736 740 822
f 736 822 821
f 737 823 747
f 737 821 823
f 738 740 739
f 738 771 824
f 738 824 822
f 738 822 740
f 742 746 825
f 742 825 826
f 742 826 743
f 743 826 744
f 744 826 827
f 744 827 745
f 745 828 829
f 745 829 830
f 745 830 748
f 745 827 831
f 745 831 832
f 745 832 828
f 746 833 834
f 746 834 835
f 746 835 832
f 746 832 836
f 746 836 837
f 746 837 825
f 746 747 838
f 746 838 839
f 746 839 833
f 747 823 840
f 747 840 838
f 748 830 772
f 749 751 750
f 752 759 841
f 752 841 842
f 752 842 843
f 752 843 753
f 753 843 754
f 754 763 755
f 754 843 842
f 754 842 844
f 754 844 845
f 754 845 846
f 754 846 847
f 754 847 764
f 754 764 763
f 756 820 848
f 756 848 757
f 757 848 841
f 757 841 758
f 758 841 759
f 764 847 846
f 764 846 849
f 764 849 850
f 764 850 851
f 764 851 852
f 764 852 853
f 764 853 765
f 765 853 852
f 765 852 767
f 766 854 824
f 766 824 771
f 766 770 855
f 766 855 856
f 766 856 857
f 766 857 858
f 766 858 854
f 767 852 851
f 767 851 859
f 767 859 768
f 768 859 860
f 768 860 861
f 768 861 862
f 768 862 863
f 768 863 864
f 768 864 769
f 769 864 865
f 769 865 866
f 769 866 867
f 769 867 770
f 770 867 866
f 770 866 868
f 770 868 855
f 772 830 869
f 772 869 773
f 773 869 774
f 774 869 870
f 774 870 775
f 775 871 872
f 775 872 776
f 775 870 873
f 775 873 874
f 775 874 875
f 775 875 871
f 776 872 871
f 776 871 777
f 777 780 779
f 777 871 876
f 777 876 780
f 780 877 781
f 780 876 877
f 781 878 782
f 781 877 982
f 781 982 878
f 782 879 783
f 782 878 880
f 782 880 881
f 782 881 882
f 782 882 879
f 783 879 784
f 784 879 883
f 784 883 884
f 784 884 885
f 784 885 785
f 785 885 886
f 785 886 786
f 788 790 887
f 788 887 888
f 788 888 796
f 789 889 790
f 789 795 890
f 789 890 889
f 790 889 891
f 790 891 892
f 790 892 893
f 790 893 887
f 791 894 895
f 791 895 792
f 792 895 896
f 792 896 793
f 793 896 897
f 793 897 794
f 794 897 795
f 795 897 898
f 795 898 890
f 796 899 797
f 796 888 900
f 796 900 901
f 796 901 899
f 797 899 902
f 797 902 798
f 798 902 903
f 798 903 799
f 799 903 800
f 800 903 904
f 800 904 905
f 800 905 801
f 801 905 906
f 801 906 907
f 801 907 802
f 802 907 908
f 802 908 803
f 803 908 804
f 804 908 805
f 805 908 909
f 805 909 910
f 805 910 911
f 805 911 912
f 805 912 807
f 805 807 806
f 807 913 808
f 807 912 914
f 807 914 913
f 808 913 914
f 808 914 812
f 808 812 915
f 808 915 809
f 809 915 810
f 810 812 811
f 810 915 812
f 812 914 916
f 812 916 917
f 812 917 918
f 812 918 919
f 812 919 813
f 813 919 815
f 813 815 814
f 815 919 920
f 815 920 921
f 815 921 922
f 815 922 816
f 816 922 923
f 816 923 817
f 817 923 846
f 817 846 924
f 817 924 925
f 817 925 926
f 817 926 818
f 818 926 927
f 818 927 819
f 819 927 848
f 819 848 820
f 821 928 929
f 821 929 930
f 821 930 931
f 821 931 932
f 821 932 823
f 821 822 933
f 821 933 928
f 822 824 854
f 822 854 934
f 822 934 935
f 822 935 936
f 822 936 937
f 822 937 933
f 823 932 938
f 823 938 840
f 825 837 826
f 826 837 827
f 827 837 836
f 827 836 831
f 828 939 829
f 828 832 939
f 829 939 940
f 829 940 870
f 829 870 869
f 829 869 830
f 831 836 832
f 832 835 941
f 832 941 942
f 832 942 939
f 833 839 834
f 834 943 941
f 834 941 835
f 834 839 943
f 838 840 944
f 838 944 839
f 839 944 945
f 839 945 946
f 839 946 943
f 840 947 944
f 840 938 948
f 840 948 949
f 840 949 950
f 840 950 947
f 841 848 844
f 841 844 842
f 844 848 926
f 844 926 845
f 845 926 846
f 846 923 849
f 846 926 925
f 846 925 924
f 848 927 926
f 849 860 951
f 849 951 850
f 849 923 922
f 849 922 952
f 849 952 860
f 850 951 851
f 851 951 860
f 851 860 859
f 854 858 953
f 854 953 954
f 854 954 934
f 855 868 856
f 856 868 866
f 856 866 955
f 856 955 956
f 856 956 957
f 856 957 958
f 856 958 857
f 857 958 858
f 858 959 960
f 858 960 953
f 858 958 961
f 858 961 962
f 858 962 963
f 858 963 964
f 858 964 959
f 860 952 861
f 861 952 862
f 862 952 965
f 862 965 863
f 863 966 967
f 863 967 864
f 863 965 968
f 863 968 966
f 864 967 969
f 864 969 865
f 865 969 970
f 865 970 866
f 866 970 971
f 866 971 972
f 866 972 955
f 870 940 873
f 871 973 974
f 871 974 876
f 871 875 973
f 873 940 975
f 873 975 874
f 874 975 976
f 874 976 977
f 874 977 875
f 875 977 978
f 875 978 979
f 875 979 980
f 875 980 981
f 875 981 973
f 876 974 877
f 877 974 982
f 878 982 880
f 879 882 983
f 879 983 984
f 879 984 985
f 879 985 883
f 880 973 981
f 880 981 986
f 880 986 881
f 880 982 973
f 881 987 983
f 881 983 882
f 881 986 988
f 881 988 987
f 887 893 989
f 887 989 990
f 887 990 888
f 888 990 900
f 889 890 892
f 889 892 891
f 890 898 991
f 890 991 992
f 890 992 892
f 892 992 993
f 892 993 893
f 893 993 994
f 893 994 989
f 894 995 996
f 894 996 997
f 894 997 895
f 895 997 896
f 896 997 998
f 896 998 897
f 897 998 999
f 897 999 898
f 898 999 1000
f 898 1000 991
f 899 901 902
f 900 990 1001
f 900 1001 1002
f 900 1002 1003
f 900 1003 901
f 901 1003 1004
f 901 1004 1005
f 901 1005 902
f 902 1005 1006
f 902 1006 903
f 903 1006 1007
f 903 1007 904
f 904 1007 1008
f 904 1008 905
f 905 1008 1009
f 905 1009 906
f 906 1010 907
f 906 1009 1011
f 906 1011 1010
f 907 1010 908
f 908 1010 909
f 909 1010 1012
f 909 1012 1013
f 909 1013 910
f 910 1013 1014
f 910 1014 911
f 911 1014 916
f 911 916 1015
f 911 1015 912
f 912 1015 914
f 914 1015 916
f 916 1014 1016
f 916 1016 1017
f 916 1017 1018
f 916 1018 1019
f 916 1019 917
f 917 1019 918
f 918 1019 1020
f 918 1020 1021
f 918 1021 919
f 919 1021 1022
f 919 1022 1023
f 919 1023 921
f 919 921 920
f 921 1023 922
f 922 1023 1024
f 922 1024 952
f 928 964 929
f 928 933 1025
f 928 1025 1026
f 928 1026 1027
f 928 1027 964
f 929 964 930
f 930 964 963
f 930 963 931
f 931 963 1028
f 931 1028 932
f 932 1029 938
f 932 1028 962
f 932 962 1030
f 932 1030 1031
f 932 1031 1032
f 932 1032 1029
f 933 937 936
f 933 936 935
f 933 935 934
f 933 934 954
f 933 954 1026
f 933 1026 1025
f 938 1029 1032
f 938 1032 948
f 939 942 1033
f 939 1033 940
f 940 1033 975
f 941 943 942
f 942 1034 1033
f 942 943 1034
f 943 946 1034
f 944 947 1035
f 944 1035 945
f 945 1036 1037
f 945 1037 946
f 945 1035 1038
f 945 1038 1036
f 946 1037 1039
f 946 1039 1034
f 947 950 1040
f 947 1040 1041
f 947 1041 1042
f 947 1042 1035
f 948 1032 1043
f 948 1043 949
f 949 1043 1044
f 949 1044 950
f 950 1044 1040
f 952 1024 1023
f 952 1023 1022
f 952 1022 1021
f 952 1021 1045
f 952 1045 968
f 952 968 965
f 953 960 954
f 954 960 959
f 954 959 1027
f 954 1027 1026
f 955 957 956
f 955 972 957
f 957 1046 1047
f 957 1047 958
f 957 972 1046
f 958 1047 961
f 959 964 1027
f 961 1047 1048
f 961 1048 1032
f 961 1032 1031
f 961 1031 1030
f 961 1030 962
f 962 1028 963
f 966 1049 967
f 966 968 1045
f 966 1045 1050
f 966 1050 1051
f 966 1051 1052
f 966 1052 1049
f 967 1053 969
f 967 1049 1054
f 967 1054 1055
f 967 1055 1056
f 967 1056 1057
f 967 1057 1053
f 969 971 970
f 969 1053 1058
f 969 1058 1059
f 969 1059 1060
f 969 1060 971
f 971 1060 1061
f 971 1061 1062
f 971 1062 1063
f 971 1063 972
f 972 1063 1046
f 973 982 974
f 975 1033 976
f 976 1033 1064
f 976 1064 1039
f 976 1039 1065
f 976 1065 1066
f 976 1066 1067
f 976 1067 977
f 977 1067 978
f 978 1068 979
f 978 1067 1066
f 978 1066 1069
f 978 1069 1070
f 978 1070 1068
f 979 1068 1071
f 979 1071 1072
f 979 1072 986
f 979 986 980
f 980 986 981
f 983 987 1073
f 983 1073 984
f 986 1072 988
f 987 988 1073
f 988 1072 1071
f 988 1071 1074
f 988 1074 1075
f 988 1075 1076
f 988 1076 1077
f 988 1077 1078
f 988 1078 1079
f 988 1079 1080
f 988 1080 1081
f 988 1081 1082
f 988 1082 1083
f 988 1083 1084
f 988 1084 1085
f 988 1085 1086
f 988 1086 1087
f 988 1087 1073
f 989 994 1088
f 989 1088 1089
f 989 1089 990
f 990 1089 1001
f 991 1090 992
f 991 1000 1090
f 992 1090 1091
f 992 1091 993
f 993 1091 1092
f 993 1092 1093
f 993 1093 1088
f 993 1088 994
f 995 1094 1095
f 995 1095 996
f 996 1095 1096
f 996 1096 1097
f 996 1097 997
f 997 1097 1098
f 997 1098 1099
f 997 1099 998
f 998 1099 1100
f 998 1100 999
f 999 1100 1101
f 999 1101 1000
f 1000 1102 1090
f 1000 1101 1103
f 1000 1103 1102
f 1001 1089 1104
f 1001 1104 1105
f 1001 1105 1002
f 1002 1105 1106
f 1002 1106 1107
f 1002 1107 1003
f 1003 1107 1108
f 1003 1108 1004
f 1004 1108 1109
f 1004 1109 1006
f 1004 1006 1005
f 1006 1109 1110
f 1006 1110 1007
f 1007 1110 1111
f 1007 1111 1112
f 1007 1112 1008
f 1008 1112 1009
f 1009 1112 1113
f 1009 1113 1011
f 1010 1011 1114
f 1010 1114 1012
f 1011 1113 1115
f 1011 1115 1116
f 1011 1116 1114
f 1012 1114 1013
f 1013 1114 1017
f 1013 1017 1014
f 1014 1017 1016
f 1017 1114 1116
f 1017 1116 1115
f 1017 1115 1018
f 1018 1115 1117
f 1018 1117 1019
f 1019 1118 1052
f 1019 1052 1119
f 1019 1119 1020
f 1019 1117 1118
f 1020 1119 1120
f 1020 1120 1021
f 1021 1051 1050
f 1021 1050 1045
f 1021 1120 1052
f 1021 1052 1051
f 1032 1048 1047
f 1032 1047 1043
f 1033 1034 1039
f 1033 1039 1064
f 1035 1121 1122
f 1035 1122 1123
f 1035 1123 1038
f 1035 1042 1124
f 1035 1124 1121
f 1036 1038 1125
f 1036 1125 1037
f 1037 1126 1039
f 1037 1125 1126
f 1038 1123 1127
f 1038 1127 1125
f 1039 1126 1066
f 1039 1066 1065
f 1040 1044 1128
f 1040 1128 1129
f 1040 1129 1041
f 1041 1129 1042
f 1042 1129 1130
f 1042 1130 1124
f 1043 1047 1131
f 1043 1131 1044
f 1044 1131 1128
f 1046 1132 1133
f 1046 1133 1131
f 1046 1131 1047
f 1046 1063 1134
f 1046 1134 1132
f 1049 1052 1054
f 1052 1120 1119
f 1052 1118 1135
f 1052 1135 1136
f 1052 1136 1055
f 1052 1055 1054
f 1053 1057 1058
f 1055 1136 1135
f 1055 1135 1118
f 1055 1118 1137
f 1055 1137 1057
f 1055 1057 1056
f 1057 1137 1138
f 1057 1138 1139
f 1057 1139 1140
f 1057 1140 1141
f 1057 1141 1142
f 1057 1142 1058
f 1058 1143 1144
f 1058 1144 1145
f 1058 1145 1146
f 1058 1146 1059
f 1058 1142 1147
f 1058 1147 1148
f 1058 1148 1149
f 1058 1149 1143
f 1059 1146 1060
f 1060 1146 1062
f 1060 1062 1061
f 1062 1146 1150
f 1062 1150 1151
f 1062 1151 1152
f 1062 1152 1153
f 1062 1153 1154
f 1062 1154 1155
f 1062 1155 1156
f 1062 1156 1134
f 1062 1134 1063
f 1066 1126 1157
f 1066 1157 1069
f 1068 1070 1071
f 1069 1157 1158
f 1069 1158 1159
f 1069 1159 1160
f 1069 1160 1161
f 1069 1161 1162
f 1069 1162 1163
f 1069 1163 1070
f 1070 1164 1165
f 1070 1165 1166
f 1070 1166 1074
f 1070 1074 1071
f 1070 1163 1167
f 1070 1167 1168
f 1070 1168 1169
f 1070 1169 1170
f 1070 1170 1171
f 1070 1171 1172
f 1070 1172 1173
f 1070 1173 1174
f 1070 1174 1175
f 1070 1175 1164
f 1074 1166 1176
f 1074 1176 1177
f 1074 1177 1178
f 1074 1178 1179
f 1074 1179 1180
f 1074 1180 1075
f 1088 1093 1181
f 1088 1181 1182
f 1088 1182 1089
f 1089 1182 1183
f 1089 1183 1104
f 1090 1184 1091
f 1090 1102 1184
f 1091 1184 1092
f 1092 1181 1093
f 1092 1184 1185
f 1092 1185 1186
f 1092 1186 1181
f 1094 1187 1188
f 1094 1188 1095
f 1095 1188 1189
f 1095 1189 1096
f 1096 1189 1098
f 1096 1098 1097
f 1098 1190 1099
f 1098 1189 1191
f 1098 1191 1190
f 1099 1190 1100
f 1100 1190 1101
f 1101 1190 1192
f 1101 1192 1103
f 1102 1103 1193
f 1102 1193 1184
f 1103 1194 1193
f 1103 1192 1195
f 1103 1195 1194
f 1104 1183 1196
f 1104 1196 1197
f 1104 1197 1105
f 1105 1197 1198
f 1105 1198 1199
f 1105 1199 1106
f 1106 1200 1107
f 1106 1199 1201
f 1106 1201 1202
f 1106 1202 1200
f 1107 1200 1203
f 1107 1203 1108
f 1108 1203 1204
f 1108 1204 1109
f 1109 1204 1205
f 1109 1205 1110
f 1110 1205 1206
f 1110 1206 1111
f 1111 1206 1207
f 1111 1207 1208
f 1111 1208 1209
f 1111 1209 1115
f 1111 1115 1112
f 1112 1115 1210
f 1112 1210 1113
f 1113 1210 1115
f 1115 1209 1211
f 1115 1211 1118
f 1115 1118 1117
f 1118 1140 1139
f 1118 1139 1138
f 1118 1138 1137
f 1118 1211 1140
f 1121 1212 1123
f 1121 1123 1122
f 1121 1124 1213
f 1121 1213 1214
f 1121 1214 1212
f 1123 1212 1215
f 1123 1215 1127
f 1124 1130 1213
f 1125 1127 1216
f 1125 1216 1217
f 1125 1217 1157
f 1125 1157 1126
f 1127 1215 1218
f 1127 1218 1219
f 1127 1219 1216
f 1128 1131 1129
f 1129 1131 1133
f 1129 1133 1220
f 1129 1220 1221
f 1129 1221 1130
f 1130 1221 1213
f 1132 1134 1156
f 1132 1156 1155
f 1132 1155 1222
f 1132 1222 1133
f 1133 1223 1220
f 1133 1222 1223
f 1140 1211 1224
f 1140 1224 1141
f 1141 1224 1225
f 1141 1225 1142
f 1142 1225 1148
f 1142 1148 1147
f 1143 1149 1144
f 1144 1149 1226
f 1144 1226 1151
f 1144 1151 1150
f 1144 1150 1145
f 1145 1150 1146
f 1148 1225 1149
f 1149 1225 1207
f 1149 1207 1227
f 1149 1227 1228
f 1149 1228 1229
f 1149 1229 1230
f 1149 1230 1226
f 1151 1226 1152
f 1152 1226 1229
f 1152 1229 1231
f 1152 1231 1153
f 1153 1231 1228
f 1153 1228 1232
f 1153 1232 1154
f 1154 1233 1155
f 1154 1232 1233
f 1155 1233 1222
f 1157 1217 1158
f 1158 1217 1234
f 1158 1234 1159
f 1159 1234 1235
f 1159 1235 1236
f 1159 1236 1160
f 1160 1236 1161
f 1161 1236 1237
f 1161 1237 1163
f 1161 1163 1162
f 1163 1237 1167
f 1164 1175 1165
f 1165 1175 1238
f 1165 1238 1239
f 1165 1239 1240
f 1165 1240 1176
f 1165 1176 1166
f 1167 1237 1241
f 1167 1241 1242
f 1167 1242 1168
f 1168 1242 1243
f 1168 1243 1169
f 1169 1243 1244
f 1169 1244 1170
f 1170 1244 1171
f 1171 1244 1245
f 1171 1245 1246
f 1171 1246 1247
f 1171 1247 1248
f 1171 1248 1249
f 1171 1249 1172
f 1172 1249 1250
f 1172 1250 1173
f 1173 1250 1251
f 1173 1251 1252
f 1173 1252 1175
f 1173 1175 1174
f 1175 1252 1253
f 1175 1253 1254
f 1175 1254 1255
f 1175 1255 1238
f 1181 1186 1256
f 1181 1256 1182
f 1182 1256 1183
f 1183 1256 1257
f 1183 1257 1258
f 1183 1258 1196
f 1184 1193 1185
f 1185 1193 1259
f 1185 1259 1260
f 1185 1260 1261
f 1185 1261 1186
f 1186 1262 1256
f 1186 1261 1263
f 1186 1263 1262
f 1187 1264 1265
f 1187 1265 1188
f 1188 1265 1189
f 1189 1265 1266
f 1189 1266 1267
f 1189 1267 1268
f 1189 1268 1191
f 1190 1191 1269
f 1190 1269 1192
f 1191 1268 1270
f 1191 1270 1271
f 1191 1271 1269
f 1192 1269 1272
f 1192 1272 1195
f 1193 1194 1259
f 1194 1273 1274
f 1194 1274 1275
f 1194 1275 1276
f 1194 1276 1259
f 1194 1195 1277
f 1194 1277 1273
f 1195 1272 1278
f 1195 1278 1279
f 1195 1279 1280
f 1195 1280 1281
f 1195 1281 1277
f 1196 1258 1282
f 1196 1282 1283
f 1196 1283 1197
f 1197 1283 1284
f 1197 1284 1285
f 1197 1285 1198
f 1198 1286 1287
f 1198 1287 1288
f 1198 1288 1202
f 1198 1202 1201
f 1198 1201 1199
f 1198 1285 1284
f 1198 1284 1286
f 1200 1202 1228
f 1200 1228 1203
f 1202 1288 1228
f 1203 1228 1289
f 1203 1289 1204
f 1204 1289 1205
f 1205 1289 1290
f 1205 1290 1291
f 1205 1291 1206
f 1206 1291 1227
f 1206 1227 1207
f 1207 1225 1292
f 1207 1292 1209
f 1207 1209 1208
f 1209 1292 1211
f 1211 1292 1224
f 1212 1214 1293
f 1212 1293 1294
f 1212 1294 1215
f 1213 1221 1214
f 1214 1221 1295
f 1214 1295 1296
f 1214 1296 1293
f 1215 1294 1218
f 1216 1297 1217
f 1216 1219 1298
f 1216 1298 1299
f 1216 1299 1297
f 1217 1297 1234
f 1218 1294 1300
f 1218 1300 1301
f 1218 1301 1219
f 1219 1301 1302
f 1219 1302 1303
f 1219 1303 1298
f 1220 1304 1221
f 1220 1223 1305
f 1220 1305 1306
f 1220 1306 1307
f 1220 1307 1304
f 1221 1304 1296
f 1221 1296 1295
f 1222 1233 1288
f 1222 1288 1308
f 1222 1308 1309
f 1222 1309 1310
f 1222 1310 1311
f 1222 1311 1312
f 1222 1312 1313
f 1222 1313 1305
f 1222 1305 1223
f 1224 1292 1225
f 1226 1230 1229
f 1227 1291 1290
f 1227 1290 1228
f 1228 1290 1289
f 1228 1288 1232
f 1228 1231 1229
f 1232 1288 1314
f 1232 1314 1233
f 1233 1314 1288
f 1234 1315 1235
f 1234 1297 1316
f 1234 1316 1315
f 1235 1315 1316
f 1235 1316 1317
f 1235 1317 1236
f 1236 1317 1318
f 1236 1318 1319
f 1236 1319 1320
f 1236 1320 1321
f 1236 1321 1322
f 1236 1322 1323
f 1236 1323 1237
f 1237 1323 1324
f 1237 1324 1325
f 1237 1325 1241
f 1238 1255 1270
f 1238 1270 1326
f 1238 1326 1327
f 1238 1327 1239
f 1241 1328 1329
f 1241 1329 1242
f 1241 1325 1330
f 1241 1330 1331
f 1241 1331 1328
f 1242 1329 1332
f 1242 1332 1243
f 1243 1332 1244
f 1244 1332 1333
f 1244 1333 1334
f 1244 1334 1335
f 1244 1335 1336
f 1244 1336 1337
f 1244 1337 1245
f 1245 1337 1336
f 1245 1336 1246
f 1246 1336 1338
f 1246 1338 1339
f 1246 1339 1340
f 1246 1340 1341
f 1246 1341 1247
f 1247 1341 1342
f 1247 1342 1248
f 1248 1252 1249
f 1248 1342 1343
f 1248 1343 1252
f 1249 1252 1251
f 1249 1251 1250
f 1252 1343 1254
f 1252 1254 1253
f 1254 1343 1255
f 1255 1344 1345
f 1255 1345 1271
f 1255 1271 1270
f 1255 1343 1346
f 1255 1346 1344
f 1256 1262 1347
f 1256 1347 1348
f 1256 1348 1349
f 1256 1349 1257
f 1257 1349 1258
f 1258 1349 1282
f 1259 1276 1261
f 1259 1261 1260
f 1261 1276 1350
f 1261 1350 1263
f 1262 1263 1350
f 1262 1350 1347
f 1264 1351 1266
f 1264 1266 1265
f 1266 1351 1352
f 1266 1352 1267
f 1267 1353 1354
f 1267 1354 1327
f 1267 1327 1326
f 1267 1326 1268
f 1267 1352 1353
f 1268 1326 1270
f 1269 1271 1339
f 1269 1339 1355
f 1269 1355 1272
f 1271 1345 1356
f 1271 1356 1339
f 1272 1355 1357
f 1272 1357 1358
f 1272 1358 1278
f 1273 1359 1360
f 1273 1360 1361
f 1273 1361 1362
f 1273 1362 1363
f 1273 1363 1364
f 1273 1364 1274
f 1273 1277 1365
f 1273 1365 1366
f 1273 1366 1367
f 1273 1367 1325
f 1273 1325 1368
f 1273 1368 1369
f 1273 1369 1359
f 1274 1364 1276
f 1274 1276 1275
f 1276 1364 1363
f 1276 1363 1350
f 1277 1281 1370
f 1277 1370 1371
f 1277 1371 1365
f 1278 1358 1372
f 1278 1372 1373
f 1278 1373 1279
f 1279 1373 1280
f 1280 1370 1281
f 1280 1373 1374
f 1280 1374 1370
f 1282 1284 1283
f 1282 1349 1375
f 1282 1375 1376
f 1282 1376 1284
f 1284 1376 1377
f 1284 1377 1286
f 1286 1377 1378
f 1286 1378 1379
f 1286 1379 1287
f 1287 1379 1312
f 1287 1312 1311
f 1287 1311 1310
f 1287 1310 1380
f 1287 1380 1288
f 1288 1380 1308
f 1293 1296 1294
f 1294 1296 1300
f 1296 1304 1381
f 1296 1381 1301
f 1296 1301 1300
f 1297 1299 1316
f 1298 1303 1299
f 1299 1303 1320
f 1299 1320 1382
f 1299 1382 1318
f 1299 1318 1316
f 1301 1381 1383
f 1301 1383 1320
f 1301 1320 1302
f 1302 1320 1303
f 1304 1307 1384
f 1304 1384 1381
f 1305 1385 1306
f 1305 1313 1385
f 1306 1385 1386
f 1306 1386 1307
f 1307 1386 1387
f 1307 1387 1388
f 1307 1388 1389
f 1307 1389 1384
f 1308 1380 1310
f 1308 1310 1309
f 1312 1390 1313
f 1312 1379 1390
f 1313 1390 1391
f 1313 1391 1385
f 1316 1318 1317
f 1318 1382 1319
f 1319 1382 1320
f 1320 1383 1321
f 1321 1383 1392
f 1321 1392 1393
f 1321 1393 1322
f 1322 1393 1394
f 1322 1394 1323
f 1323 1394 1395
f 1323 1395 1324
f 1324 1395 1396
f 1324 1396 1325
f 1325 1397 1330
f 1325 1396 1368
f 1325 1367 1397
f 1328 1374 1329
f 1328 1331 1370
f 1328 1370 1374
f 1329 1398 1333
f 1329 1333 1332
f 1329 1374 1398
f 1330 1397 1331
f 1331 1399 1400
f 1331 1400 1371
f 1331 1371 1370
f 1331 1397 1399
f 1333 1398 1374
f 1333 1374 1373
f 1333 1373 1372
f 1333 1372 1401
f 1333 1401 1357
f 1333 1357 1334
f 1334 1402 1403
f 1334 1403 1404
f 1334 1404 1336
f 1334 1336 1335
f 1334 1357 1355
f 1334 1355 1402
f 1336 1404 1338
f 1338 1404 1405
f 1338 1405 1406
f 1338 1406 1339
f 1339 1406 1407
f 1339 1407 1355
f 1339 1356 1340
f 1340 1356 1408
f 1340 1408 1341
f 1341 1408 1342
f 1342 1408 1409
f 1342 1409 1343
f 1343 1409 1410
f 1343 1410 1411
f 1343 1411 1344
f 1343 1344 1346
f 1344 1411 1345
f 1345 1411 1410
f 1345 1410 1412
f 1345 1412 1356
f 1347 1350 1349
f 1347 1349 1348
f 1349 1350 1413
f 1349 1413 1414
f 1349 1414 1415
f 1349 1415 1416
f 1349 1416 1375
f 1350 1363 1417
f 1350 1417 1413
f 1355 1407 1418
f 1355 1418 1402
f 1356 1412 1408
f 1357 1401 1358
f 1358 1401 1372
f 1359 1369 1360
f 1360 1419 1362
f 1360 1362 1361
f 1360 1369 1420
f 1360 1420 1421
f 1360 1421 1419
f 1362 1419 1422
f 1362 1422 1423
f 1362 1423 1363
f 1363 1423 1417
f 1365 1371 1400
f 1365 1400 1366
f 1366 1400 1399
f 1366 1399 1367
f 1367 1399 1397
f 1368 1396 1369
f 1369 1396 1395
f 1369 1395 1420
f 1375 1416 1424
f 1375 1424 1425
f 1375 1425 1426
f 1375 1426 1376
f 1376 1426 1427
f 1376 1427 1428
f 1376 1428 1429
f 1376 1429 1377
f 1377 1429 1428
f 1377 1428 1430
f 1377 1430 1431
f 1377 1431 1378
f 1378 1431 1432
f 1378 1432 1433
f 1378 1433 1379
f 1379 1433 1390
f 1381 1434 1383
f 1381 1384 1435
f 1381 1435 1436
f 1381 1436 1434
f 1383 1434 1437
f 1383 1437 1438
f 1383 1438 1392
f 1384 1389 1439
f 1384 1439 1435
f 1385 1391 1440
f 1385 1440 1441
f 1385 1441 1386
f 1386 1441 1387
f 1387 1441 1442
f 1387 1442 1439
f 1387 1439 1388
f 1388 1439 1389
f 1390 1433 1440
f 1390 1440 1391
f 1392 1438 1443
f 1392 1443 1393
f 1393 1444 1445
f 1393 1445 1446
f 1393 1446 1394
f 1393 1443 1447
f 1393 1447 1448
f 1393 1448 1444
f 1394 1446 1449
f 1394 1449 1395
f 1395 1449 1420
f 1402 1418 1403
f 1403 1418 1405
f 1403 1405 1404
f 1405 1418 1407
f 1405 1407 1406
f 1408 1412 1409
f 1409 1412 1410
f 1413 1417 1450
f 1413 1450 1451
f 1413 1451 1452
f 1413 1452 1414
f 1414 1452 1453
f 1414 1453 1415
f 1415 1453 1454
f 1415 1454 1455
f 1415 1455 1456
f 1415 1456 1416
f 1416 1456 1424
f 1417 1423 1450
f 1419 1421 1422
f 1420 1449 1421
f 1421 1449 1457
f 1421 1457 1422
f 1422 1458 1423
f 1422 1457 1458
f 1423 1458 1459
f 1423 1459 1460
f 1423 1460 1450
f 1424 1456 1455
f 1424 1455 1461
f 1424 1461 1425
f 1425 1461 1427
f 1425 1427 1426
f 1427 1462 1441
f 1427 1441 1428
f 1427 1461 1463
f 1427 1463 1436
f 1427 1436 1435
f 1427 1435 1439
f 1427 1439 1462
f 1428 1441 1430
f 1430 1441 1432
f 1430 1432 1431
f 1432 1441 1440
f 1432 1440 1433
f 1434 1464 1437
f 1434 1436 1465
f 1434 1465 1464
f 1436 1463 1466
f 1436 1466 1467
f 1436 1467 1465
f 1437 1468 1438
f 1437 1464 1469
f 1437 1469 1468
f 1438 1468 1470
f 1438 1470 1443
f 1439 1442 1441
f 1439 1441 1462
f 1443 1470 1471
f 1443 1471 1447
f 1444 1448 1472
f 1444 1472 1473
f 1444 1473 1474
f 1444 1474 1445
f 1445 1475 1446
f 1445 1474 1460
f 1445 1460 1459
f 1445 1459 1475
f 1446 1475 1457
f 1446 1457 1449
f 1447 1471 1448
f 1448 1476 1477
f 1448 1477 1478
f 1448 1478 1472
f 1448 1471 1476
f 1450 1460 1474
f 1450 1474 1478
f 1450 1478 1451
f 1451 1477 1452
f 1451 1478 1477
f 1452 1477 1453
f 1453 1477 1454
f 1454 1477 1476
f 1454 1476 1479
f 1454 1479 1468
f 1454 1468 1480
f 1454 1480 1469
f 1454 1469 1455
f 1455 1469 1467
f 1455 1467 1466
f 1455 1466 1463
f 1455 1463 1461
f 1457 1475 1458
f 1458 1475 1459
f 1464 1465 1467
f 1464 1467 1469
f 1468 1479 1476
f 1468 1476 1470
f 1468 1469 1480
f 1470 1476 1471
f 1472 1478 1473
f 1473 1478 1474

