# https://github.com/mikedh/trimesh
v 0.02435208 0.01057327 0.00518189
v 0.01159214 0.00615776 -0.00130437
v 0.02385626 0.01055296 0.00518189
v 0.01369692 0.00980349 0.00554039
v 0.01451356 0.00981478 0.00556260
v 0.01288028 0.00937684 0.00593537
v 0.01369692 0.00939490 0.00594013
v 0.02437638 0.01025498 0.00543093
v 0.02515413 0.00993442 0.00568791
v 0.02566939 0.00993442 0.00568791
v 0.02515413 0.01034076 0.00536431
v 0.02515413 0.01056650 0.00518189
v 0.03176500 0.00615776 -0.00130437
v 0.00654649 -0.01021081 -0.00171204
v -0.00556695 0.00099052 0.00567839
v -0.00478920 0.00262940 0.00564984
v -0.00383159 0.00410124 0.00576881
v -0.00328717 0.00431344 0.00563874
v -0.00229554 0.00501550 0.00567839
v 0.00736313 0.00943779 0.00518189
v 0.00792213 0.00969965 0.00518189
v 0.00799991 0.00972448 0.00518189
v 0.00876308 0.00984864 0.00518348
v 0.00960402 0.00989830 0.00518189
v 0.01288028 0.01005407 0.00518189
v 0.01444550 0.01012630 0.00518189
v 0.04154519 -0.00045423 -0.00756855
v 0.04072369 -0.00051518 -0.00758759
v 0.03826892 -0.00125562 -0.00769863
v 0.03826892 -0.00195316 -0.00783505
v 0.01288028 0.00978543 0.00551659
v 0.00878252 0.00927300 0.00584812
v 0.01124215 0.00933621 0.00590047
v 0.00876308 0.00878765 0.00626690
v 0.00878252 0.00839486 0.00659843
v 0.01288028 0.00883957 0.00634463
v 0.02515413 0.00951454 0.00599723
v 0.02595132 0.00959355 0.00594013
v 0.02620895 0.00991411 0.00567363
v 0.02591730 0.01046717 0.00518189
v 0.03460378 0.00585978 -0.00130437
v 0.03418574 0.00591395 -0.00130437
v 0.00637150 -0.01096028 -0.00171204
v -0.00557181 0.00050291 0.00566888
v -0.00558639 -0.00031427 0.00565777
v -0.00573708 -0.00031427 0.00609400
v -0.00568847 0.00050291 0.00609400
v -0.00560584 0.00112596 0.00609400
v -0.00549890 0.00153907 0.00609400
v -0.00523640 0.00214180 0.00609400
v -0.00489128 0.00278742 0.00609400
v -0.00397742 0.00425249 0.00631449
v -0.00312190 0.00502001 0.00645884
v -0.00284483 0.00485974 0.00591316
v -0.00312190 0.00502001 0.00657146
v -0.00273789 0.00516675 0.00687285
v -0.00248998 0.00515320 0.00743122
v 0.00747007 0.00917593 0.00576405
v 0.00796102 0.00923688 0.00582116
v 0.00876308 0.00967482 0.00539921
v 0.00960402 0.00970191 0.00541983
v 0.01205879 0.00976512 0.00549280
v 0.04072369 -0.00113146 -0.00773035
v 0.04154519 -0.00012465 -0.00701177
v 0.04202156 -0.00058065 -0.00747496
v 0.04161324 -0.00119467 -0.00758759
v 0.04072369 -0.00188544 -0.00756538
v 0.03826892 -0.00275455 -0.00753048
v 0.00732910 -0.01231021 -0.00171204
v 0.00713952 -0.01218831 -0.00171204
v 0.00692564 -0.01201901 -0.00171204
v 0.00672149 -0.01180004 -0.00171204
v 0.00656593 -0.01161041 -0.00171204
v 0.00824782 0.00836777 0.00657939
v 0.00878252 0.00787565 0.00694582
v 0.02597563 0.00895470 0.00640966
v 0.02679227 0.00893890 0.00640173
v 0.02679227 0.00944908 0.00599247
v 0.02679227 0.00985767 0.00561494
v 0.02679227 0.01025498 0.00520568
v 0.02679227 0.01027303 0.00518189
v 0.02741446 0.01004052 0.00518189
v 0.03467183 0.00592750 -0.00002108
v 0.04219655 -0.00041134 -0.00619326
v 0.04212364 -0.00046101 -0.00701177
v -0.00558153 -0.00158295 0.00566253
v -0.00559611 -0.00112695 0.00565143
v -0.00572736 -0.00112695 0.00609400
v -0.00583430 -0.00049938 0.00691093
v -0.00583430 -0.00031427 0.00691093
v -0.00561556 0.00112145 0.00667933
v -0.00474059 0.00337661 0.00732494
v -0.00474059 0.00337661 0.00729004
v -0.00471628 0.00333372 0.00674437
v -0.00397256 0.00424120 0.00691093
v -0.00392881 0.00419831 0.00732970
v -0.00304412 0.00495229 0.00711714
v -0.00187264 0.00460013 0.00765171
v -0.00187264 0.00523447 0.00748674
v -0.00351077 0.00435633 0.00741060
v -0.00273789 0.00464754 0.00752005
v 0.04361108 -0.00478848 -0.00272725
v 0.04202156 -0.00096441 -0.00747496
v 0.04193406 -0.00151297 -0.00740517
v 0.04138478 -0.00172742 -0.00750034
v 0.04072369 -0.00229403 -0.00739248
v 0.03826892 -0.00278841 -0.00751621
v 0.00765964 -0.01236439 -0.00171204
v 0.00726105 -0.01234408 -0.00127740
v 0.00685273 -0.01208222 -0.00127740
v -0.00396284 -0.00403902 0.00565460
v 0.00960402 0.00736773 0.00729004
v 0.02597563 0.00854159 0.00664443
v 0.02679227 0.00852805 0.00662857
v 0.02731238 0.00843549 0.00657305
v 0.02742419 0.00930009 0.00588302
v 0.02762835 0.00992088 0.00518189
v 0.03468642 0.00594556 0.00035963
v 0.04219655 -0.00041134 0.00609241
v 0.04382496 -0.00522642 0.00035487
v 0.04362567 -0.00476591 -0.00209592
v -0.00563500 -0.00166196 0.00609400
v -0.00402117 -0.00411577 0.00609400
v -0.00582458 -0.00112695 0.00691093
v -0.00568361 -0.00112695 0.00743915
v -0.00567875 -0.00031427 0.00743915
v -0.00560098 0.00025008 0.00737253
v -0.00567389 0.00051646 0.00693472
v -0.00480378 0.00296125 0.00738522
v -0.00432741 0.00296125 0.00755178
v -0.00425450 0.00369942 0.00739474
v -0.00351077 0.00378069 0.00757557
v -0.00351077 0.00296125 0.00765171
v 0.01124215 0.00214180 0.00795469
v 0.01124215 0.00296350 0.00793248
v 0.01042551 0.00377843 0.00789441
v 0.01042551 0.00460013 0.00785952
v 0.01042551 0.00541958 0.00773737
v 0.00960402 0.00623676 0.00757716
v 0.00960402 0.00695462 0.00740743
v 0.04378122 -0.00522642 -0.00045889
v 0.04373261 -0.00522642 -0.00127899
v 0.04361108 -0.00499391 -0.00272725
v 0.04352845 -0.00525126 -0.00296678
v 0.04309583 -0.00529415 -0.00380909
v 0.04198753 -0.00407062 -0.00583476
v 0.04157921 -0.00359882 -0.00637885
v 0.04132645 -0.00333019 -0.00668659
v 0.04286250 -0.00506615 -0.00426911
v 0.04275070 -0.00561244 -0.00413269
v 0.04072369 -0.00277261 -0.00715136
v 0.03826892 -0.00356948 -0.00717198
v 0.03826892 -0.00351981 -0.00719419
v 0.00796588 -0.01239374 -0.00171204
v 0.00796588 -0.01245920 -0.00127740
v 0.00719299 -0.01235311 -0.00045889
v 0.00678468 -0.01215445 -0.00045889
v 0.00796588 -0.01248855 -0.00045889
v 0.02597563 0.00684627 0.00737729
v 0.02597563 0.00725712 0.00725832
v 0.02597563 0.00787791 0.00699024
v 0.02679227 0.00787791 0.00694900
v 0.04154519 -0.00058968 0.00738522
v 0.04195351 -0.00072287 0.00732177
v 0.02786653 0.00976963 0.00518189
v 0.03468642 0.00594330 0.00117973
v 0.04207503 -0.00056485 0.00691251
v 0.04231808 -0.00113146 0.00609241
v 0.04363539 -0.00476365 0.00174761
v 0.04365483 -0.00473882 0.00117338
v 0.03463295 0.00589138 0.00181265
v 0.04378608 -0.00522642 0.00117338
v 0.04372289 -0.00587205 0.00117338
v 0.04372775 -0.00608650 0.00028666
v 0.04370344 -0.00611359 -0.00042875
v 0.04368400 -0.00590591 -0.00127899
v -0.00443435 -0.00358754 0.00691093
v -0.00565445 -0.00168904 0.00691093
v -0.00354966 -0.00456274 0.00691093
v -0.00404548 -0.00415415 0.00691093
v -0.00561069 -0.00162132 0.00737412
v -0.00515377 -0.00191704 0.00748357
v -0.00514891 -0.00112695 0.00760413
v -0.00527043 -0.00049938 0.00756606
v -0.00514891 -0.00031427 0.00760254
v -0.00490586 0.00214180 0.00746612
v -0.00432741 0.00214180 0.00762951
v -0.00432741 0.00132461 0.00765171
v -0.00432741 -0.00194865 0.00765171
v 0.03416144 -0.00031653 0.00837029
v 0.02597563 0.00541958 0.00768344
v 0.03416144 0.00050291 0.00832429
v 0.02597563 0.00623902 0.00752164
v 0.04364025 -0.00574563 -0.00191033
v 0.04364997 -0.00525126 -0.00214985
v 0.04357706 -0.00554021 -0.00245759
v 0.04295486 -0.00583593 -0.00358701
v 0.04209933 -0.00495779 -0.00511459
v 0.04154519 -0.00466658 -0.00569199
v 0.04154519 -0.00425573 -0.00597594
v 0.04113201 -0.00481783 -0.00578400
v 0.04072369 -0.00389229 -0.00654382
v 0.04072369 -0.00348144 -0.00677066
v 0.04240557 -0.00606619 -0.00375992
v 0.04220141 -0.00575015 -0.00427545
v 0.04154519 -0.00511130 -0.00528115
v 0.03995566 -0.00365977 -0.00682776
v 0.03908556 -0.00418801 -0.00671038
v 0.03826892 -0.00430765 -0.00678969
v 0.03826892 -0.00471625 -0.00647720
v 0.03908556 -0.00514741 -0.00606159
v 0.01019705 -0.01220637 -0.00171204
v 0.01070259 -0.01217928 -0.00150424
v 0.00960888 -0.01230119 -0.00127740
v 0.01042065 -0.01227635 -0.00045889
v 0.00960888 -0.01235085 -0.00045889
v 0.00878252 -0.01242083 -0.00045889
v 0.00720758 -0.01233956 -0.00002108
v 0.00681870 -0.01214994 0.00036121
v 0.00797074 -0.01243437 0.00036121
v 0.00751868 -0.01221089 0.00328154
v 0.00746035 -0.01223346 0.00281517
v 0.00738257 -0.01226507 0.00199666
v 0.00722702 -0.01232602 0.00036121
v 0.01206365 -0.01214317 0.00036121
v 0.01042065 -0.01227861 0.00036121
v 0.00960888 -0.01233505 0.00036121
v 0.02679227 0.00680789 0.00736618
v 0.02679227 0.00721649 0.00723294
v 0.03464753 0.00102438 0.00818946
v 0.03494404 0.00045325 0.00824657
v 0.03498293 -0.00031653 0.00832112
v 0.03625650 -0.00069352 0.00815456
v 0.04154519 -0.00091023 0.00738522
v 0.04195351 -0.00072513 0.00732177
v 0.04209447 -0.00105019 0.00689189
v 0.04366455 -0.00522642 0.00180631
v 0.04364511 -0.00574337 0.00171906
v 0.04343609 -0.00628290 0.00117497
v 0.04352359 -0.00638900 0.00051667
v 0.04359650 -0.00645898 -0.00002584
v 0.04359650 -0.00645898 -0.00013846
v 0.04357706 -0.00643189 -0.00068414
v -0.00399201 -0.00409320 0.00739315
v -0.00311704 -0.00482460 0.00732970
v -0.00487670 -0.00259427 0.00742805
v -0.00415242 -0.00358754 0.00745819
v -0.00351077 -0.00358754 0.00762475
v -0.00351077 -0.00276583 0.00765330
v -0.00268928 -0.00358754 0.00765330
v -0.00187264 -0.00440698 0.00765171
v 0.03252330 -0.00112695 0.00831795
v 0.03334480 -0.00112695 0.00832746
v 0.03416144 -0.00112695 0.00830684
v 0.02679227 0.00623902 0.00749467
v 0.03416144 0.00113273 0.00819898
v 0.04346526 -0.00631676 -0.00127899
v 0.04303749 -0.00608650 -0.00283829
v 0.04302777 -0.00610230 -0.00282402
v 0.04260487 -0.00638448 -0.00305879
v 0.04058759 -0.00493070 -0.00587917
v 0.04080633 -0.00448825 -0.00612187
v 0.04154519 -0.00552215 -0.00484017
v 0.04108826 -0.00561696 -0.00494327
v 0.03990705 -0.00547474 -0.00561427
v 0.03990705 -0.00506615 -0.00597276
v 0.03995566 -0.00437312 -0.00642009
v 0.04026190 -0.00397807 -0.00659300
v 0.03971748 -0.00407740 -0.00664852
v 0.04206045 -0.00649961 -0.00338556
v 0.04154519 -0.00628290 -0.00390903
v 0.04154519 -0.00587205 -0.00443091
v 0.03908556 -0.00459886 -0.00647085
v 0.01205879 -0.01200998 -0.00171204
v 0.01119354 -0.01214542 -0.00125044
v 0.01813981 -0.01136210 -0.00159466
v 0.02106123 -0.01107541 -0.00127740
v 0.01205879 -0.01205287 -0.00127740
v 0.01205879 -0.01210479 -0.00045889
v 0.00689648 -0.01210479 0.00117973
v 0.00836934 -0.01232150 0.00158106
v 0.00797074 -0.01231473 0.00199666
v 0.00960888 -0.01227635 0.00117973
v 0.00757701 -0.01136436 0.00485670
v -0.00147891 -0.00564405 0.00733287
v 0.00774714 -0.01221089 0.00328154
v 0.00845198 -0.01132598 0.00518189
v 0.00812143 -0.01141853 0.00497568
v 0.01288028 -0.01205738 0.00036121
v 0.01206365 -0.01209350 0.00117973
v 0.01105257 -0.01220186 0.00095131
v 0.01072203 -0.01218380 0.00149857
v 0.03579957 -0.00098473 0.00818946
v 0.03625650 -0.00082671 0.00815456
v 0.04054384 -0.00165970 0.00736936
v 0.04108826 -0.00151522 0.00731225
v 0.03663079 -0.00195091 0.00791503
v 0.04197781 -0.00403451 0.00570536
v 0.04284306 -0.00495779 0.00422537
v 0.04116117 -0.00320603 0.00651912
v 0.04352845 -0.00522642 0.00221715
v 0.04285764 -0.00572983 0.00336878
v 0.04299861 -0.00590365 0.00281200
v 0.04322221 -0.00609553 0.00205059
v 0.04275556 -0.00644769 0.00238212
v 0.04290625 -0.00654024 0.00183803
v 0.04302777 -0.00660571 0.00117497
v 0.04236182 -0.00696915 0.00117497
v 0.04184657 -0.00722876 0.00117497
v 0.04236182 -0.00704139 0.00035487
v 0.04325624 -0.00662151 -0.00042875
v 0.04305694 -0.00660120 -0.00127899
v 0.04277500 -0.00645898 -0.00251311
v -0.00343786 -0.00437989 0.00743598
v -0.00268928 -0.00492167 0.00740901
v -0.00268928 -0.00440698 0.00757557
v -0.00105114 -0.00522417 0.00755336
v -0.00023451 -0.00522417 0.00758826
v 0.00904987 -0.00899180 0.00735032
v 0.00960402 -0.00850194 0.00742805
v 0.03170667 -0.00194639 0.00823863
v 0.03252330 -0.00194639 0.00824657
v 0.03334480 -0.00194639 0.00823863
v 0.03504126 -0.00119918 0.00822594
v 0.03410310 -0.00194413 0.00819105
v 0.04113687 -0.00727842 -0.00250994
v 0.04053898 -0.00572080 -0.00506542
v 0.03990705 -0.00582013 -0.00520342
v 0.02486734 -0.01056749 -0.00171204
v 0.01762941 -0.01140273 -0.00171204
v 0.04072369 -0.00736420 -0.00264477
v 0.04072369 -0.00711589 -0.00305561
v 0.04154519 -0.00658314 -0.00350135
v 0.04088896 -0.00638222 -0.00404386
v 0.02187300 -0.01098511 -0.00127740
v 0.02106123 -0.01114313 -0.00045889
v 0.00878252 -0.01226507 0.00199666
v 0.00799991 -0.01224024 0.00285483
v 0.00810685 -0.01075485 0.00592902
v -0.00105114 -0.00569371 0.00738681
v -0.00179973 -0.00522191 0.00745977
v 0.00819921 -0.00996475 0.00669202
v 0.00878252 -0.01005054 0.00677768
v 0.00925403 -0.01219734 0.00244557
v 0.00828670 -0.01218154 0.00315464
v 0.02986437 -0.00975933 0.00247730
v 0.00960888 -0.01185873 0.00363369
v 0.00878252 -0.01196032 0.00363369
v 0.00878252 -0.01163299 0.00445221
v 0.00878252 -0.01141628 0.00496933
v 0.00878252 -0.01132372 0.00518189
v 0.00878252 -0.01123342 0.00538017
v 0.00878252 -0.01082483 0.00601151
v 0.02268964 -0.01096479 0.00035963
v 0.01288028 -0.01200546 0.00117973
v 0.01129076 -0.01216348 0.00120670
v 0.03579957 -0.00139332 0.00811808
v 0.04077716 -0.00193962 0.00720597
v 0.03639260 -0.00218793 0.00789124
v 0.03498293 -0.00358528 0.00774213
v 0.03498293 -0.00427605 0.00747564
v 0.04072369 -0.00277261 0.00685541
v 0.03639260 -0.00195091 0.00794359
v 0.04215767 -0.00496231 0.00498202
v 0.04154519 -0.00414963 0.00578309
v 0.04154519 -0.00456049 0.00551342
v 0.04238613 -0.00523320 0.00445696
v 0.04261945 -0.00550409 0.00391446
v 0.04072369 -0.00330987 0.00658257
v 0.04072369 -0.00372072 0.00631925
v 0.04235210 -0.00587205 0.00363845
v 0.04243474 -0.00631902 0.00285642
v 0.04157921 -0.00626935 0.00364479
v 0.04100076 -0.00638900 0.00392874
v 0.04132645 -0.00654024 0.00338147
v 0.04072369 -0.00665763 0.00364479
v 0.04157921 -0.00669601 0.00285642
v 0.04098618 -0.00721747 0.00228219
v 0.04129242 -0.00734840 0.00173651
v 0.04243474 -0.00670504 0.00206328
v 0.04143825 -0.00742064 0.00117497
v 0.04190490 -0.00725359 0.00035487
v 0.04236182 -0.00703462 -0.00045889
v 0.04236182 -0.00693304 -0.00127899
v 0.04163755 -0.00712266 -0.00209592
v 0.04236182 -0.00676599 -0.00209592
v 0.00878252 -0.00928978 0.00718376
v 0.00960402 -0.00941394 0.00713935
v 0.00960402 -0.00900535 0.00735667
v 0.03252330 -0.00245205 0.00816566
v 0.03334480 -0.00241368 0.00815456
v 0.03378228 -0.00237079 0.00814504
v 0.04122923 -0.00731680 -0.00209592
v 0.04072369 -0.00751771 -0.00209592
v 0.04034454 -0.00646349 -0.00415648
v 0.03990705 -0.00594203 -0.00503369
v 0.03149765 -0.00976384 -0.00171204
v 0.02539718 -0.01053137 -0.00153914
v 0.02269450 -0.01089030 -0.00127740
v 0.03007339 -0.01000990 -0.00127740
v 0.03547389 -0.00895117 -0.00171204
v 0.03498293 -0.00907081 -0.00171204
v 0.03454545 -0.00915885 -0.00171204
v 0.03191083 -0.00968483 -0.00171204
v 0.04066050 -0.00665989 -0.00375674
v 0.02187300 -0.01105057 -0.00045889
v 0.02568883 -0.01056749 -0.00099346
v 0.00878252 -0.01046139 0.00642077
v 0.00960402 -0.00997378 0.00673009
v 0.03231428 -0.00649961 0.00653815
v 0.01124215 -0.01205061 0.00199666
v 0.02268964 -0.01089481 0.00117973
v 0.02106609 -0.01092416 0.00199666
v 0.02760890 -0.01014986 0.00199666
v 0.02376391 -0.01053362 0.00232026
v 0.03040394 -0.00972547 0.00236626
v 0.03088517 -0.00949295 0.00281517
v 0.02797347 -0.00972772 0.00321016
v 0.03136640 -0.00892860 0.00406516
v 0.03088517 -0.00864642 0.00451883
v 0.03088031 -0.00823783 0.00504071
v 0.03006367 -0.00824911 0.00518189
v 0.03006367 -0.00795565 0.00553246
v 0.02351600 -0.01086998 0.00035963
v 0.02577633 -0.01057877 0.00091165
v 0.03579957 -0.00194639 0.00801338
v 0.03498293 -0.00276583 0.00793248
v 0.03416144 -0.00358528 0.00783413
v 0.03418574 -0.00447245 0.00750419
v 0.03447253 -0.00479300 0.00730432
v 0.03498293 -0.00468690 0.00724246
v 0.03894945 -0.00411577 0.00657305
v 0.04207017 -0.00570048 0.00413971
v 0.04154519 -0.00501197 0.00518189
v 0.04154033 -0.00511807 0.00510258
v 0.04108826 -0.00561922 0.00484560
v 0.04154033 -0.00552666 0.00472029
v 0.04066536 -0.00442730 0.00587033
v 0.04089868 -0.00471173 0.00561018
v 0.03949388 -0.00399613 0.00650008
v 0.04035426 -0.00483363 0.00569426
v 0.04045634 -0.00651767 0.00412861
v 0.04044176 -0.00732131 0.00250427
v 0.04071883 -0.00707751 0.00279138
v 0.04071883 -0.00744547 0.00200300
v 0.04072369 -0.00769604 0.00117497
v 0.04149658 -0.00743870 0.00035487
v 0.04147713 -0.00742290 -0.00002108
v 0.04145283 -0.00740484 -0.00045889
v 0.04136533 -0.00737098 -0.00127899
v 0.04177365 -0.00719715 -0.00127899
v 0.01013386 -0.00895117 0.00734080
v 0.03393297 -0.00485846 0.00734874
v 0.03334480 -0.00440472 0.00759144
v 0.03334480 -0.00282001 0.00805463
v 0.04072369 -0.00761252 -0.00127899
v 0.03559055 -0.00899632 -0.00127740
v 0.03498293 -0.00915660 -0.00127740
v 0.03990705 -0.00622872 -0.00462602
v 0.03200804 -0.00971418 -0.00151852
v 0.03088517 -0.00991058 -0.00127740
v 0.03088517 -0.00997604 -0.00045889
v 0.02269450 -0.01095576 -0.00045889
v 0.02760890 -0.01037335 -0.00045889
v 0.03311147 -0.00730100 0.00571012
v 0.03170667 -0.00741161 0.00581798
v 0.03170667 -0.00695561 0.00622724
v 0.03365590 -0.00725585 0.00566729
v 0.03416144 -0.00720844 0.00561811
v 0.03285871 -0.00643415 0.00648739
v 0.02351600 -0.01079774 0.00117973
v 0.02480414 -0.01056071 0.00162389
v 0.02679227 -0.01040721 0.00117973
v 0.02924703 -0.00994895 0.00199666
v 0.03088517 -0.00978190 0.00181582
v 0.03138584 -0.00975030 0.00166196
v 0.03088517 -0.00969161 0.00222667
v 0.03170667 -0.00936879 0.00281517
v 0.03088517 -0.00916788 0.00363210
v 0.03166292 -0.00904147 0.00365907
v 0.03306773 -0.00893988 0.00328471
v 0.03191569 -0.00887216 0.00394936
v 0.03535236 -0.00808658 0.00403026
v 0.03480794 -0.00814527 0.00412068
v 0.03416144 -0.00794210 0.00463463
v 0.03334480 -0.00802789 0.00476629
v 0.03282954 -0.00807981 0.00484084
v 0.03228998 -0.00812270 0.00489953
v 0.03089003 -0.00811818 0.00518189
v 0.02432777 -0.01077517 0.00035963
v 0.02760890 -0.01038689 0.00035963
v 0.03088517 -0.00998733 0.00035963
v 0.03088517 -0.00990155 0.00117973
v 0.02842554 -0.01020630 0.00117973
v 0.02511038 -0.01060812 0.00118132
v 0.02514927 -0.01067810 0.00035963
v 0.03334480 -0.00490813 0.00737412
v 0.03481766 -0.00572757 0.00656988
v 0.03504612 -0.00530092 0.00680623
v 0.03416144 -0.00624452 0.00635732
v 0.03916819 -0.00439569 0.00633194
v 0.04154033 -0.00583819 0.00430944
v 0.04116117 -0.00516773 0.00518189
v 0.04079661 -0.00530995 0.00518189
v 0.04067508 -0.00535510 0.00518189
v 0.04054384 -0.00571854 0.00492809
v 0.03990705 -0.00491716 0.00575929
v 0.03990705 -0.00532575 0.00543411
v 0.03429754 -0.00751094 0.00518189
v 0.03500238 -0.00876606 0.00278345
v 0.03528917 -0.00889022 0.00228695
v 0.04072369 -0.00772991 0.00035487
v 0.03543014 -0.00893988 0.00174127
v 0.03498293 -0.00911596 0.00117973
v 0.03498293 -0.00918369 0.00035963
v 0.03498293 -0.00920400 -0.00002108
v 0.03498293 -0.00922432 -0.00045889
v 0.03416144 -0.00939137 -0.00045889
v 0.03334966 -0.00955390 -0.00045889
v 0.03217332 -0.00974353 -0.00097125
v 0.03334966 -0.00948166 -0.00127740
v 0.03172125 -0.00978867 -0.00125837
v 0.03247955 -0.00965323 -0.00125837
v 0.03170667 -0.00985640 -0.00045889
v 0.03007339 -0.01008440 -0.00002108
v 0.03170667 -0.00986317 -0.00002108
v 0.02586383 -0.01059006 -0.00002108
v 0.03416144 -0.00679759 0.00594647
v 0.03411283 -0.00756060 0.00518189
v 0.03416144 -0.00754931 0.00518189
v 0.03498293 -0.00664634 0.00583067
v 0.03167750 -0.00979093 0.00115276
v 0.03193027 -0.00970289 0.00140815
v 0.03334480 -0.00933042 0.00199666
v 0.03167750 -0.00963066 0.00196017
v 0.03473989 -0.00894891 0.00248999
v 0.03252330 -0.00922432 0.00281517
v 0.03416144 -0.00883153 0.00303091
v 0.03504126 -0.00831909 0.00370824
v 0.03170667 -0.00986543 0.00035963
v 0.03218790 -0.00975030 0.00086248
v 0.03504612 -0.00601878 0.00628911
v 0.03416144 -0.00917691 0.00199666
v 0.03500238 -0.00900309 0.00200618
v 0.03416144 -0.00929656 0.00117973
v 0.03416144 -0.00936428 0.00035963
v 0.03334480 -0.00954036 0.00035963
v 0.03267885 -0.00968258 0.00035963
v 0.03226567 -0.00976384 0.00035963
v 0.03245525 -0.00972772 -0.00002108
v 0.03266913 -0.00968258 -0.00045889
v 0.03225595 -0.00975933 -0.00045889
v 0.03334480 -0.00946586 0.00117973
f 1 2 3
f 1 3 4
f 1 4 5
f 1 5 6
f 1 6 7
f 1 7 8
f 1 8 9
f 1 9 10
f 1 10 11
f 1 11 12
f 1 12 13
f 1 13 2
f 2 14 15
f 2 15 16
f 2 16 17
f 2 17 18
f 2 18 19
f 2 19 20
f 2 20 21
f 2 21 22
f 2 22 23
f 2 23 24
f 2 24 25
f 2 25 26
f 2 26 3
f 2 13 27
f 2 27 28
f 2 28 29
f 2 29 30
f 2 30 14
f 3 26 4
f 4 26 31
f 4 31 32
f 4 32 33
f 4 33 6
f 4 6 5
f 6 33 34
f 6 34 35
f 6 35 7
f 7 35 36
f 7 36 9
f 7 9 8
f 9 37 38
f 9 38 10
f 9 36 37
f 10 12 11
f 10 38 39
f 10 39 12
f 12 39 40
f 12 40 41
f 12 41 42
f 12 42 13
f 13 42 27
f 14 43 15
f 14 30 43
f 15 44 45
f 15 45 46
f 15 46 47
f 15 47 48
f 15 48 49
f 15 49 50
f 15 50 16
f 15 43 44
f 16 50 51
f 16 51 17
f 17 51 52
f 17 52 53
f 17 53 54
f 17 54 19
f 17 19 18
f 19 54 53
f 19 53 20
f 20 53 21
f 21 53 55
f 21 55 56
f 21 56 57
f 21 57 22
f 22 57 58
f 22 58 59
f 22 59 23
f 23 59 60
f 23 60 24
f 24 60 61
f 24 61 62
f 24 62 31
f 24 31 25
f 25 31 26
f 27 63 28
f 27 42 41
f 27 41 64
f 27 64 65
f 27 65 66
f 27 66 63
f 28 63 29
f 29 63 30
f 30 63 67
f 30 67 68
f 30 68 69
f 30 69 70
f 30 70 71
f 30 71 72
f 30 72 73
f 30 73 43
f 31 62 32
f 32 61 60
f 32 60 59
f 32 59 34
f 32 34 33
f 32 62 61
f 34 59 74
f 34 74 35
f 35 74 75
f 35 75 76
f 35 76 36
f 36 76 37
f 37 76 38
f 38 76 77
f 38 77 39
f 39 77 78
f 39 78 79
f 39 79 40
f 40 79 80
f 40 80 81
f 40 81 41
f 41 81 82
f 41 82 83
f 41 83 84
f 41 84 85
f 41 85 64
f 43 73 86
f 43 86 87
f 43 87 45
f 43 45 44
f 45 87 46
f 46 88 89
f 46 89 90
f 46 90 47
f 46 87 88
f 47 90 48
f 48 91 49
f 48 90 91
f 49 91 92
f 49 92 93
f 49 93 50
f 50 93 94
f 50 94 51
f 51 94 52
f 52 95 55
f 52 55 53
f 52 94 93
f 52 93 92
f 52 92 95
f 55 95 96
f 55 96 97
f 55 97 56
f 56 97 57
f 57 98 99
f 57 99 59
f 57 59 58
f 57 97 96
f 57 96 100
f 57 100 101
f 57 101 98
f 59 99 74
f 63 66 67
f 64 85 65
f 65 85 102
f 65 102 143
f 65 143 103
f 65 103 66
f 66 103 104
f 66 104 105
f 66 105 67
f 67 105 106
f 67 106 107
f 67 107 68
f 68 107 108
f 68 108 69
f 69 109 110
f 69 110 70
f 69 108 109
f 70 110 71
f 71 110 111
f 71 111 72
f 72 111 73
f 73 111 86
f 74 99 75
f 75 112 76
f 75 99 112
f 76 112 113
f 76 113 77
f 77 114 115
f 77 115 116
f 77 116 78
f 77 113 114
f 78 116 79
f 79 82 80
f 79 116 82
f 80 82 81
f 82 116 117
f 82 117 118
f 82 118 83
f 83 118 84
f 84 119 120
f 84 120 121
f 84 121 102
f 84 102 85
f 84 118 119
f 86 122 88
f 86 88 87
f 86 111 123
f 86 123 122
f 88 124 89
f 88 122 124
f 89 124 125
f 89 125 90
f 90 125 126
f 90 126 127
f 90 127 128
f 90 128 91
f 91 128 127
f 91 127 92
f 92 129 130
f 92 130 131
f 92 131 96
f 92 96 95
f 92 127 129
f 96 131 100
f 98 101 132
f 98 132 133
f 98 133 134
f 98 134 135
f 98 135 136
f 98 136 137
f 98 137 138
f 98 138 139
f 98 139 140
f 98 140 99
f 99 140 112
f 100 131 132
f 100 132 101
f 102 121 120
f 102 120 141
f 102 141 142
f 102 142 143
f 103 143 144
f 103 144 145
f 103 145 104
f 104 146 147
f 104 147 148
f 104 148 105
f 104 145 149
f 104 149 150
f 104 150 146
f 105 148 151
f 105 151 106
f 106 151 152
f 106 152 153
f 106 153 107
f 107 153 108
f 108 153 152
f 108 152 154
f 108 154 155
f 108 155 109
f 109 156 157
f 109 157 110
f 109 155 158
f 109 158 156
f 110 157 123
f 110 123 111
f 112 140 159
f 112 159 160
f 112 160 161
f 112 161 113
f 113 161 114
f 114 161 162
f 114 162 115
f 115 162 163
f 115 163 164
f 115 164 116
f 116 164 117
f 117 164 165
f 117 165 166
f 117 166 118
f 118 166 119
f 119 167 168
f 119 168 169
f 119 169 170
f 119 170 120
f 119 166 171
f 119 171 165
f 119 165 167
f 120 172 173
f 120 173 174
f 120 174 175
f 120 175 176
f 120 176 141
f 120 170 169
f 120 169 172
f 122 177 178
f 122 178 124
f 122 123 177
f 123 157 179
f 123 179 180
f 123 180 177
f 124 178 181
f 124 181 125
f 125 181 182
f 125 182 183
f 125 183 184
f 125 184 126
f 126 184 185
f 126 185 186
f 126 186 129
f 126 129 127
f 129 186 130
f 130 187 132
f 130 132 131
f 130 186 187
f 132 187 133
f 133 187 188
f 133 188 134
f 134 188 189
f 134 189 190
f 134 190 135
f 135 190 136
f 136 190 137
f 137 191 138
f 137 190 192
f 137 192 191
f 138 191 193
f 138 193 139
f 139 193 140
f 140 193 159
f 141 176 142
f 142 176 194
f 142 194 195
f 142 195 143
f 143 196 144
f 143 195 194
f 143 194 196
f 144 196 197
f 144 197 145
f 145 197 150
f 145 150 149
f 146 198 199
f 146 199 200
f 146 200 147
f 146 150 198
f 147 200 148
f 148 201 202
f 148 202 203
f 148 203 151
f 148 200 201
f 150 197 204
f 150 204 205
f 150 205 206
f 150 206 198
f 151 203 207
f 151 207 208
f 151 208 152
f 152 208 209
f 152 209 154
f 154 209 210
f 154 210 211
f 154 211 212
f 154 212 155
f 155 212 213
f 155 213 214
f 155 214 215
f 155 215 216
f 155 216 217
f 155 217 158
f 156 158 218
f 156 218 219
f 156 219 157
f 157 219 179
f 158 220 221
f 158 221 222
f 158 222 223
f 158 223 224
f 158 224 218
f 158 217 225
f 158 225 226
f 158 226 227
f 158 227 220
f 159 193 228
f 159 228 160
f 160 228 229
f 160 229 162
f 160 162 161
f 162 229 230
f 162 230 163
f 163 230 231
f 163 231 232
f 163 232 233
f 163 233 294
f 163 294 234
f 163 234 235
f 163 235 164
f 164 235 236
f 164 236 167
f 164 167 165
f 165 171 166
f 167 236 237
f 167 237 168
f 168 237 169
f 169 237 172
f 172 237 238
f 172 238 173
f 173 238 239
f 173 239 240
f 173 240 241
f 173 241 174
f 174 241 242
f 174 242 175
f 175 242 243
f 175 243 176
f 176 243 194
f 177 180 244
f 177 244 181
f 177 181 178
f 179 219 245
f 179 245 244
f 179 244 180
f 181 246 182
f 181 244 246
f 182 246 247
f 182 247 248
f 182 248 183
f 183 189 188
f 183 188 185
f 183 185 184
f 183 248 189
f 185 188 187
f 185 187 186
f 189 248 249
f 189 249 190
f 190 249 250
f 190 250 251
f 190 251 252
f 190 252 253
f 190 253 254
f 190 254 232
f 190 232 192
f 191 255 193
f 191 192 255
f 192 256 255
f 192 232 231
f 192 231 230
f 192 230 256
f 193 255 228
f 194 243 257
f 194 257 197
f 194 197 196
f 197 257 258
f 197 258 259
f 197 259 260
f 197 260 204
f 198 206 201
f 198 201 199
f 199 201 200
f 201 261 262
f 201 262 202
f 201 206 263
f 201 263 264
f 201 264 265
f 201 265 261
f 202 262 266
f 202 266 267
f 202 267 268
f 202 268 203
f 203 268 269
f 203 269 207
f 204 260 270
f 204 270 205
f 205 270 271
f 205 271 272
f 205 272 264
f 205 264 263
f 205 263 206
f 207 269 208
f 208 269 273
f 208 273 209
f 209 273 211
f 209 211 210
f 211 273 266
f 211 266 265
f 211 265 212
f 212 265 274
f 212 274 213
f 213 275 215
f 213 215 214
f 213 274 276
f 213 276 277
f 213 277 278
f 213 278 275
f 215 275 279
f 215 279 225
f 215 225 216
f 216 225 217
f 218 224 219
f 219 224 223
f 219 223 222
f 219 222 280
f 219 280 245
f 220 281 282
f 220 282 221
f 220 227 283
f 220 283 281
f 221 284 285
f 221 285 245
f 221 245 280
f 221 280 222
f 221 282 286
f 221 286 287
f 221 287 288
f 221 288 284
f 225 279 289
f 225 289 290
f 225 290 291
f 225 291 226
f 226 291 227
f 227 291 292
f 227 292 283
f 228 255 256
f 228 256 230
f 228 230 229
f 232 254 293
f 232 293 294
f 232 294 233
f 234 295 296
f 234 296 235
f 234 294 297
f 234 297 295
f 235 298 299
f 235 299 236
f 235 296 300
f 235 300 298
f 236 299 301
f 236 301 237
f 237 301 238
f 238 301 299
f 238 299 302
f 238 302 303
f 238 303 304
f 238 304 239
f 239 304 305
f 239 305 306
f 239 306 240
f 240 306 307
f 240 307 241
f 241 307 308
f 241 308 309
f 241 309 310
f 241 310 311
f 241 311 242
f 242 311 243
f 243 311 312
f 243 312 313
f 243 313 257
f 244 245 314
f 244 314 248
f 244 248 247
f 244 247 246
f 245 285 315
f 245 315 314
f 248 314 316
f 248 316 251
f 248 251 250
f 248 250 249
f 251 316 317
f 251 317 318
f 251 318 319
f 251 319 320
f 251 320 253
f 251 253 252
f 253 320 321
f 253 321 322
f 253 322 323
f 253 323 254
f 254 324 293
f 254 323 325
f 254 325 324
f 257 313 259
f 257 259 258
f 259 313 260
f 260 313 326
f 260 326 270
f 261 265 266
f 261 266 262
f 264 272 327
f 264 327 265
f 265 327 328
f 265 328 329
f 265 329 330
f 265 330 274
f 266 273 267
f 267 273 268
f 268 273 269
f 270 326 331
f 270 331 332
f 270 332 333
f 270 333 271
f 271 333 334
f 271 334 328
f 271 328 327
f 271 327 272
f 274 330 276
f 275 278 279
f 276 330 335
f 276 335 277
f 277 335 336
f 277 336 278
f 278 336 279
f 279 336 289
f 281 283 282
f 282 283 337
f 282 337 338
f 282 338 286
f 283 292 337
f 284 288 339
f 284 339 285
f 285 340 341
f 285 341 315
f 285 339 342
f 285 342 343
f 285 343 340
f 286 338 344
f 286 344 345
f 286 345 346
f 286 346 347
f 286 347 348
f 286 348 349
f 286 349 350
f 286 350 351
f 286 351 352
f 286 352 287
f 287 352 353
f 287 353 288
f 288 353 339
f 289 354 355
f 289 355 290
f 289 336 354
f 290 356 291
f 290 355 344
f 290 344 292
f 290 292 356
f 291 356 292
f 292 344 337
f 293 357 297
f 293 297 294
f 293 324 325
f 293 325 357
f 295 358 296
f 295 297 359
f 295 359 360
f 295 360 361
f 295 361 358
f 296 358 362
f 296 362 300
f 297 357 363
f 297 363 359
f 298 364 299
f 298 300 365
f 298 365 366
f 298 366 364
f 299 364 367
f 299 367 368
f 299 368 302
f 300 362 369
f 300 369 370
f 300 370 365
f 302 368 371
f 302 371 305
f 302 305 303
f 303 305 304
f 305 371 372
f 305 372 373
f 305 373 374
f 305 374 375
f 305 375 376
f 305 376 377
f 305 377 378
f 305 378 379
f 305 379 380
f 305 380 306
f 306 380 379
f 306 379 309
f 306 309 308
f 306 308 307
f 309 379 381
f 309 381 310
f 310 381 382
f 310 382 311
f 311 382 383
f 311 383 384
f 311 384 312
f 312 384 385
f 312 385 386
f 312 386 313
f 313 386 326
f 314 315 316
f 315 341 316
f 316 341 317
f 317 340 319
f 317 319 318
f 317 341 340
f 319 387 343
f 319 343 388
f 319 388 389
f 319 389 320
f 319 340 387
f 320 389 322
f 320 322 321
f 322 389 323
f 323 389 390
f 323 390 391
f 323 391 392
f 323 392 325
f 325 392 357
f 326 393 394
f 326 394 331
f 326 386 385
f 326 385 393
f 328 334 395
f 328 395 396
f 328 396 397
f 328 397 329
f 329 398 399
f 329 399 335
f 329 335 330
f 329 397 400
f 329 400 398
f 331 394 401
f 331 401 402
f 331 402 403
f 331 403 404
f 331 404 332
f 332 395 405
f 332 405 333
f 332 404 397
f 332 397 395
f 333 405 395
f 333 395 334
f 335 406 336
f 335 399 407
f 335 407 406
f 336 406 354
f 337 344 338
f 339 353 408
f 339 408 342
f 340 343 387
f 342 408 343
f 343 408 409
f 343 409 410
f 343 410 388
f 344 355 411
f 344 411 412
f 344 412 345
f 345 412 413
f 345 413 414
f 345 414 415
f 345 415 416
f 345 416 346
f 346 416 417
f 346 417 418
f 346 418 347
f 347 349 348
f 347 418 349
f 349 418 350
f 350 418 419
f 350 419 351
f 351 419 352
f 352 419 353
f 353 419 420
f 353 420 421
f 353 421 422
f 353 422 423
f 353 423 408
f 354 406 424
f 354 424 425
f 354 425 355
f 355 425 412
f 355 412 411
f 357 426 363
f 357 392 426
f 358 361 362
f 359 363 427
f 359 427 360
f 360 427 428
f 360 428 429
f 360 429 361
f 361 429 430
f 361 430 431
f 361 431 432
f 361 432 369
f 361 369 362
f 363 426 427
f 364 433 367
f 364 366 434
f 364 434 435
f 364 435 436
f 364 436 437
f 364 437 433
f 365 370 366
f 366 370 438
f 366 438 439
f 366 439 434
f 367 433 368
f 368 433 371
f 369 432 440
f 369 440 370
f 370 440 441
f 370 441 438
f 371 433 373
f 371 373 372
f 373 433 374
f 374 442 375
f 374 433 442
f 375 442 376
f 376 442 443
f 376 443 444
f 376 444 377
f 377 444 378
f 378 444 443
f 378 443 445
f 378 445 379
f 379 445 446
f 379 446 381
f 381 446 447
f 381 447 382
f 382 447 383
f 383 447 448
f 383 448 449
f 383 449 450
f 383 450 451
f 383 451 384
f 384 451 393
f 384 393 385
f 388 452 389
f 388 410 453
f 388 453 452
f 389 454 428
f 389 428 455
f 389 455 391
f 389 391 390
f 389 452 429
f 389 429 454
f 391 455 428
f 391 428 392
f 392 428 427
f 392 427 426
f 393 450 394
f 393 451 450
f 394 450 456
f 394 456 457
f 394 457 458
f 394 458 401
f 395 459 396
f 395 397 459
f 396 459 397
f 397 404 460
f 397 460 461
f 397 461 400
f 398 400 399
f 399 400 407
f 400 461 462
f 400 462 407
f 401 458 402
f 402 458 460
f 402 460 403
f 403 460 404
f 406 407 463
f 406 463 424
f 407 464 463
f 407 462 464
f 408 423 465
f 408 465 466
f 408 466 467
f 408 467 409
f 409 467 410
f 410 467 465
f 410 465 468
f 410 468 469
f 410 469 470
f 410 470 430
f 410 430 453
f 412 471 472
f 412 472 413
f 412 425 471
f 413 472 414
f 414 472 473
f 414 473 474
f 414 474 416
f 414 416 415
f 416 475 476
f 416 476 477
f 416 477 478
f 416 478 417
f 416 474 475
f 417 419 479
f 417 479 418
f 417 478 419
f 418 479 419
f 419 478 480
f 419 480 481
f 419 481 482
f 419 482 483
f 419 483 484
f 419 484 485
f 419 485 486
f 419 486 487
f 419 487 488
f 419 488 421
f 419 421 420
f 421 488 468
f 421 468 489
f 421 489 422
f 422 489 423
f 423 489 468
f 423 468 465
f 424 463 490
f 424 490 425
f 425 491 492
f 425 492 493
f 425 493 494
f 425 494 473
f 425 473 495
f 425 495 471
f 425 490 496
f 425 496 491
f 428 454 429
f 429 452 497
f 429 497 453
f 429 453 430
f 430 498 499
f 430 499 431
f 430 470 500
f 430 500 498
f 431 499 501
f 431 501 432
f 432 501 440
f 433 437 502
f 433 502 442
f 434 439 441
f 434 441 435
f 435 441 503
f 435 503 436
f 436 442 437
f 436 503 504
f 436 504 505
f 436 505 506
f 436 506 469
f 436 469 442
f 437 442 502
f 438 441 439
f 440 501 441
f 441 504 503
f 441 501 507
f 441 507 508
f 441 508 504
f 442 509 483
f 442 483 443
f 442 469 509
f 443 483 510
f 443 510 511
f 443 511 445
f 445 511 446
f 446 512 447
f 446 511 513
f 446 513 514
f 446 514 515
f 446 515 516
f 446 516 517
f 446 517 512
f 447 512 448
f 448 512 449
f 449 512 456
f 449 456 450
f 452 453 497
f 456 512 517
f 456 517 457
f 457 517 458
f 458 517 518
f 458 518 519
f 458 519 520
f 458 520 521
f 458 521 460
f 460 520 522
f 460 522 461
f 460 521 523
f 460 523 520
f 461 522 524
f 461 524 462
f 462 492 525
f 462 525 464
f 462 524 526
f 462 526 492
f 463 464 527
f 463 527 490
f 464 491 527
f 464 525 491
f 465 467 466
f 468 488 487
f 468 487 469
f 469 528 470
f 469 487 529
f 469 529 530
f 469 530 509
f 469 506 531
f 469 531 528
f 470 528 500
f 471 495 472
f 472 495 473
f 473 494 476
f 473 476 474
f 474 476 475
f 476 494 493
f 476 493 532
f 476 532 533
f 476 533 534
f 476 534 535
f 476 535 477
f 477 535 536
f 477 536 478
f 478 537 480
f 478 536 537
f 480 537 481
f 481 537 536
f 481 536 538
f 481 538 482
f 482 538 539
f 482 539 483
f 483 509 530
f 483 530 485
f 483 485 484
f 483 539 510
f 485 530 529
f 485 529 486
f 486 529 487
f 490 527 496
f 491 496 527
f 491 525 492
f 492 540 541
f 492 541 493
f 492 526 540
f 493 541 532
f 498 542 507
f 498 507 501
f 498 501 499
f 498 500 528
f 498 528 542
f 504 508 505
f 505 508 506
f 506 508 531
f 507 542 531
f 507 531 508
f 510 539 538
f 510 538 536
f 510 536 511
f 511 536 543
f 511 543 544
f 511 544 513
f 513 544 514
f 514 544 545
f 514 545 546
f 514 546 515
f 515 546 516
f 516 546 517
f 517 546 547
f 517 547 548
f 517 548 518
f 518 548 519
f 519 548 549
f 519 549 550
f 519 550 551
f 519 551 520
f 520 552 524
f 520 524 522
f 520 523 521
f 520 551 552
f 524 552 526
f 526 552 550
f 526 550 540
f 528 531 542
f 532 541 533
f 533 541 543
f 533 543 534
f 534 543 536
f 534 536 535
f 540 550 549
f 540 549 541
f 541 549 548
f 541 548 547
f 541 547 546
f 541 546 545
f 541 545 553
f 541 553 544
f 541 544 543
f 544 553 545
f 550 552 551

