# https://github.com/mikedh/trimesh
v -0.00123011 0.00406062 -0.00848508
v -0.00123011 0.00325103 -0.00847521
v -0.00203866 0.00244269 -0.00843077
v -0.00203866 0.00325103 -0.00843900
v -0.00212039 0.00414133 -0.00833860
v -0.00190147 0.00458089 -0.00826783
v -0.00123011 0.00467278 -0.00832543
v -0.00042156 0.00470382 -0.00831062
v -0.00042156 0.00406062 -0.00844887
v 0.00794414 -0.00753685 -0.00798144
v -0.00123011 0.00244269 -0.00845875
v -0.00203866 0.00163310 -0.00840114
v -0.00285012 0.00082227 -0.00827441
v -0.00285012 0.00163310 -0.00829416
v -0.00285012 0.00244269 -0.00830404
v -0.00285012 0.00325103 -0.00830074
v -0.00326461 0.00366948 -0.00817401
v -0.00285012 0.00386567 -0.00822997
v -0.00123011 0.00491863 -0.00775925
v -0.00244439 0.00446293 -0.00815591
v -0.00042156 0.00501673 -0.00775925
v 0.00038991 0.00492112 -0.00775925
v 0.00038991 0.00460572 -0.00823820
v 0.01514517 -0.00753685 -0.00738399
v 0.01449717 -0.00753685 -0.00748109
v 0.01359813 -0.00753685 -0.00760289
v 0.01333251 -0.00753685 -0.00763581
v 0.01278958 -0.00753685 -0.00769177
v 0.01197812 -0.00753685 -0.00776419
v 0.01116665 -0.00753685 -0.00781850
v 0.02224696 -0.00758776 -0.00027871
v 0.00713559 -0.00753685 -0.00799296
v -0.00123011 0.00163310 -0.00841596
v 0.00147284 -0.00365405 -0.00816743
v 0.00093575 -0.00355596 -0.00816084
v -0.00231012 -0.00196410 -0.00816084
v -0.00257574 -0.00142396 -0.00818060
v -0.00273628 -0.00079442 -0.00820528
v -0.00291726 0.00001020 -0.00822833
v -0.00329380 0.00001144 -0.00817237
v -0.00331715 0.00018652 -0.00817566
v -0.00335802 0.00082227 -0.00818553
v -0.00337553 0.00163310 -0.00819376
v -0.00336969 0.00244269 -0.00819541
v -0.00331423 0.00325103 -0.00818553
v -0.00334050 0.00373654 -0.00775925
v -0.00447014 0.00082227 -0.00783661
v -0.00451392 0.00161571 -0.00766379
v -0.00490798 0.00133509 -0.00742020
v -0.00426873 0.00244269 -0.00761606
v -0.00412570 0.00292943 -0.00748439
v -0.00123011 0.00495588 -0.00694947
v -0.00042156 0.00509371 -0.00694947
v -0.00212039 0.00462187 -0.00783661
v -0.00341056 0.00379862 -0.00694947
v -0.00246774 0.00447907 -0.00761606
v 0.00038991 0.00509620 -0.00694947
v 0.00119846 0.00495961 -0.00694947
v 0.00182311 0.00459703 -0.00751566
v 0.00113716 0.00468147 -0.00777571
v 0.00082775 0.00449646 -0.00817730
v 0.01533490 -0.00753685 -0.00734449
v 0.01594496 -0.00753685 -0.00714040
v 0.01689654 -0.00753685 -0.00679805
v 0.01732271 -0.00753685 -0.00662853
v 0.01783644 -0.00753685 -0.00641785
v 0.01849612 -0.00753685 -0.00608539
v 0.01891645 -0.00753685 -0.00586977
v 0.01948272 -0.00753685 -0.00549451
v 0.02026500 -0.00753685 -0.00493327
v 0.02069117 -0.00753685 -0.00461232
v 0.02078457 -0.00753685 -0.00453167
v 0.02096847 -0.00753685 -0.00436379
v 0.02111150 -0.00753685 -0.00420579
v 0.02126912 -0.00753685 -0.00384534
v 0.02132750 -0.00753685 -0.00371038
v 0.02198718 -0.00753685 -0.00128105
v 0.01135346 0.00288225 -0.00188015
v 0.01141184 0.00293192 -0.00128105
v 0.01147314 0.00298034 -0.00047128
v 0.01188179 0.00260783 0.00033191
v 0.01226709 0.00222663 0.00114169
v 0.01220579 0.00213599 0.00195311
v 0.02213313 -0.00758776 0.00032862
v -0.00157454 -0.00758776 -0.00027871
v 0.00632704 -0.00753685 -0.00794853
v 0.00606142 -0.00727112 -0.00796992
v -0.00123011 -0.00322319 -0.00805222
v -0.00203866 -0.00322319 -0.00792877
v -0.00279758 -0.00246327 -0.00796005
v -0.00284720 -0.00241360 -0.00796169
v -0.00284720 -0.00165740 -0.00812134
v -0.00314202 -0.00079442 -0.00814932
v -0.00292018 -0.00004692 -0.00822503
v -0.00323834 -0.00035238 -0.00816084
v -0.00365867 -0.00079442 -0.00806867
v -0.00354191 0.00001020 -0.00813122
v -0.00362364 0.00001020 -0.00811476
v -0.00376375 0.00082227 -0.00810324
v -0.00378127 0.00163310 -0.00809501
v -0.00381337 0.00337644 -0.00694947
v -0.00447014 0.00001268 -0.00787281
v -0.00498971 0.00001268 -0.00752883
v -0.00495760 0.00082227 -0.00749262
v -0.00478830 0.00179204 -0.00694947
v -0.00447597 0.00244269 -0.00694947
v -0.00733654 -0.00519004 -0.00335487
v -0.00733362 -0.00517141 -0.00335487
v -0.00743578 -0.00500006 -0.00290060
v -0.00750000 -0.00477158 -0.00214679
v -0.00415781 0.00297165 -0.00694947
v -0.00123011 0.00495588 0.00114333
v -0.00203866 0.00468147 -0.00694947
v -0.00123011 0.00495340 0.00681175
v -0.00042156 0.00508999 0.00114333
v -0.00381921 0.00337768 -0.00371038
v -0.00341348 0.00380110 -0.00209083
v -0.00288223 0.00420341 -0.00694947
v -0.00247942 0.00448652 -0.00694947
v 0.00038991 0.00508378 0.00600198
v 0.00928977 0.00378496 -0.00047128
v 0.00982102 0.00370053 -0.00047128
v 0.00928977 0.00376882 -0.00128105
v 0.00931604 0.00372660 -0.00202499
v 0.00906209 0.00371170 -0.00271133
v 0.00931604 0.00357636 -0.00294833
v 0.01038729 0.00282637 -0.00404943
v 0.01089227 0.00230113 -0.00455307
v 0.01115497 0.00191621 -0.00484439
v 0.01089227 0.00164055 -0.00511596
v 0.01034059 0.00108178 -0.00566239
v 0.01008372 0.00081606 -0.00591092
v 0.01007497 -0.00001712 -0.00632404
v 0.01090103 -0.00080808 -0.00634708
v 0.01062373 -0.00108871 -0.00659232
v 0.01116665 -0.00135815 -0.00648369
v 0.01146146 -0.00023690 -0.00581217
v 0.01118125 0.00030200 -0.00567556
v 0.01141184 0.00137607 -0.00499910
v 0.01146146 0.00218193 -0.00430619
v 0.01156071 0.00229120 -0.00371038
v 0.01128341 0.00282885 -0.00242165
v 0.01090686 0.00320509 -0.00128105
v 0.01147898 0.00296047 0.00033191
v 0.01090686 0.00328332 -0.00047128
v 0.01182925 0.00263142 0.00114169
v 0.01166871 0.00257803 0.00193994
v 0.01213574 0.00205155 0.00239585
v 0.02133042 -0.00758776 0.00356936
v 0.02147053 -0.00758776 0.00306408
v -0.00151908 -0.00758776 0.00486797
v -0.00527868 -0.00720283 0.00033356
v -0.00192190 -0.00753685 -0.00370379
v -0.00187228 -0.00753685 -0.00451850
v -0.00183141 -0.00753685 -0.00515052
v -0.00181390 -0.00753685 -0.00527397
v -0.00161541 -0.00753685 -0.00558668
v -0.00117465 -0.00753685 -0.00608045
v -0.00102286 -0.00753685 -0.00619072
v -0.00063172 -0.00753685 -0.00645406
v -0.00019388 -0.00753685 -0.00664499
v 0.00038991 -0.00753685 -0.00687541
v 0.00068180 -0.00753685 -0.00698733
v 0.00128018 -0.00753685 -0.00720952
v 0.00143197 -0.00753685 -0.00726219
v 0.00163630 -0.00753685 -0.00733132
v 0.00212084 -0.00753685 -0.00745311
v 0.00230473 -0.00753685 -0.00748439
v 0.00306074 -0.00753685 -0.00759960
v 0.00389848 -0.00753685 -0.00769671
v 0.00551849 -0.00753685 -0.00786952
v 0.00038991 -0.00565195 -0.00773785
v -0.00042156 -0.00484112 -0.00781027
v -0.00123011 -0.00403153 -0.00787611
v -0.00007420 -0.00518755 -0.00778065
v -0.00041572 -0.00565195 -0.00761606
v -0.00088567 -0.00518755 -0.00763745
v -0.00123011 -0.00484112 -0.00765391
v -0.00203866 -0.00403153 -0.00768025
v -0.00285012 -0.00322319 -0.00769671
v -0.00365867 -0.00241360 -0.00770164
v -0.00365867 -0.00160277 -0.00794523
v -0.00361489 -0.00004692 -0.00811476
v -0.00446722 -0.00079442 -0.00784154
v -0.00447014 0.00001144 -0.00787281
v -0.00501014 -0.00079442 -0.00751895
v -0.00566690 -0.00241360 -0.00644583
v -0.00478830 0.00179079 -0.00613970
v -0.00447306 0.00244269 0.00600198
v -0.00447597 0.00244269 0.00114333
v -0.00738908 -0.00424510 -0.00128270
v -0.00739492 -0.00417557 -0.00047292
v -0.00723146 -0.00377077 -0.00047292
v -0.00723146 -0.00376581 0.00033191
v -0.00416073 0.00297786 0.00438243
v -0.00416073 0.00297662 0.00033356
v -0.00733654 -0.00530427 -0.00335487
v -0.00737449 -0.00519004 -0.00318369
v -0.00743578 -0.00544334 -0.00290060
v -0.00757297 -0.00484112 -0.00128270
v -0.00203866 0.00468147 -0.00452180
v -0.00203866 0.00467898 0.00681175
v -0.00123011 0.00491118 0.00762153
v -0.00042156 0.00508378 0.00681175
v -0.00211163 0.00461814 0.00764786
v -0.00381921 0.00338265 0.00438243
v -0.00341348 0.00380110 -0.00128105
v -0.00288223 0.00420714 -0.00209083
v -0.00247942 0.00448652 -0.00371038
v 0.00038991 0.00508129 0.00681175
v 0.00977431 0.00368314 0.00033191
v 0.01022675 0.00355525 -0.00047128
v 0.00976264 0.00367942 -0.00128105
v 0.00119846 0.00495216 0.00681175
v 0.00970426 0.00365955 -0.00171063
v 0.00960210 0.00362230 -0.00225212
v 0.01010124 0.00329201 -0.00290060
v 0.01063248 0.00290708 -0.00351122
v 0.01090686 0.00271462 -0.00375317
v 0.01090978 0.00081606 -0.00553895
v 0.01090978 0.00002510 -0.00593561
v 0.01118416 0.00277794 -0.00290060
v 0.01078135 0.00297662 -0.00290060
v 0.01097108 0.00303249 -0.00212704
v 0.01002242 0.00347702 -0.00202499
v 0.01016837 0.00352545 -0.00128105
v 0.01142644 0.00290460 0.00114169
v 0.01090686 0.00323986 0.00033191
v 0.01136514 0.00287231 0.00166343
v 0.01173584 0.00226016 0.00270363
v 0.01125422 0.00280650 0.00220164
v 0.01146730 0.00215337 0.00357266
v 0.01201898 0.00194104 0.00293405
v 0.01217661 0.00128915 0.00412732
v 0.02117863 -0.00758776 0.00389196
v 0.01207444 0.00114759 0.00466552
v -0.00142568 -0.00758776 0.00521360
v -0.00614269 -0.00709232 0.00034837
v -0.00527868 -0.00719165 -0.00047292
v -0.00614561 -0.00707245 -0.00050255
v -0.00593253 -0.00698801 -0.00128270
v -0.00578366 -0.00691351 -0.00187357
v -0.00612226 -0.00624672 -0.00369886
v -0.00587415 -0.00616601 -0.00432264
v -0.00262536 -0.00695325 -0.00584179
v -0.00159498 -0.00684149 -0.00652319
v -0.00106081 -0.00702030 -0.00664992
v -0.00037486 -0.00728230 -0.00675855
v 0.00038991 -0.00723511 -0.00709267
v 0.00054753 -0.00705879 -0.00727700
v 0.00065553 -0.00694207 -0.00739715
v 0.00114008 -0.00705879 -0.00744488
v 0.00038991 -0.00649382 -0.00750414
v 0.00120429 -0.00646153 -0.00764239
v 0.00282723 -0.00727112 -0.00764239
v 0.00038991 -0.00567926 -0.00773127
v -0.00042156 -0.00518755 -0.00772798
v -0.00039529 -0.00567926 -0.00761276
v -0.00085064 -0.00607661 -0.00736424
v -0.00120092 -0.00519004 -0.00755187
v -0.00120384 -0.00518755 -0.00755187
v -0.00116589 -0.00559110 -0.00743336
v -0.00248525 -0.00447854 -0.00736917
v -0.00360321 -0.00397814 -0.00715027
v -0.00157454 -0.00518755 -0.00743666
v -0.00167087 -0.00527944 -0.00736917
v -0.00453143 -0.00409362 -0.00677007
v -0.00441468 -0.00316979 -0.00714863
v -0.00464819 -0.00257005 -0.00727042
v -0.00446722 -0.00160277 -0.00767695
v -0.00496636 -0.00160277 -0.00743995
v -0.00561144 -0.00322319 -0.00638494
v -0.00566690 -0.00246327 -0.00644090
v -0.00478246 0.00177093 0.00600198
v -0.00447014 0.00244269 0.00681175
v -0.00416073 0.00297786 0.00681175
v -0.00740076 -0.00417060 0.00033191
v -0.00739784 -0.00423393 0.00195311
v -0.00477955 0.00176968 0.00681175
v -0.00658345 -0.00541106 -0.00422883
v -0.00641415 -0.00595120 -0.00395890
v -0.00707967 -0.00584814 -0.00290060
v -0.00574863 -0.00454187 -0.00581381
v -0.00747957 -0.00569417 -0.00205626
v -0.00754671 -0.00565195 -0.00128270
v -0.00721686 -0.00599217 -0.00230315
v -0.00732487 -0.00607785 -0.00176330
v -0.00753211 -0.00565195 -0.00047292
v -0.00752335 -0.00518755 -0.00001537
v -0.00751460 -0.00484112 0.00033191
v -0.00740076 -0.00420661 0.00114333
v -0.00247650 0.00448404 0.00681175
v -0.00246482 0.00447783 0.00739440
v -0.00188979 0.00457841 0.00812517
v -0.00123011 0.00466781 0.00818113
v -0.00042156 0.00500183 0.00762153
v -0.00242688 0.00444306 0.00793425
v -0.00381921 0.00338265 0.00681175
v -0.00341348 0.00379986 0.00357266
v -0.00287931 0.00420341 0.00681175
v -0.00341348 0.00379862 0.00681175
v 0.00038991 0.00490622 0.00762153
v 0.00971302 0.00366328 0.00080757
v 0.01010124 0.00341245 0.00195311
v 0.01017713 0.00353041 0.00033191
v 0.00182311 0.00459579 0.00737629
v 0.01010124 0.00329077 0.00275959
v 0.01090686 0.00314424 0.00114169
v 0.01095357 0.00302752 0.00193994
v 0.01071421 0.00298034 0.00275959
v 0.01111995 0.00270965 0.00275959
v 0.01057702 0.00289715 0.00328956
v 0.01135054 0.00206397 0.00404502
v 0.01171249 0.00162565 0.00435610
v 0.02106479 -0.00758776 0.00412074
v 0.01153444 0.00142201 0.00504243
v -0.00123011 -0.00758776 0.00576168
v -0.00592085 -0.00701906 0.00114333
v -0.00656010 -0.00691227 0.00008832
v -0.00656010 -0.00691227 -0.00025238
v -0.00121843 -0.00758776 0.00578966
v -0.00114254 -0.00758776 0.00594273
v -0.00645502 -0.00684522 -0.00079058
v -0.00633826 -0.00678313 -0.00128270
v -0.00606680 -0.00670242 -0.00212210
v -0.00655426 -0.00609523 -0.00341905
v -0.00560561 -0.00599217 -0.00486085
v -0.00506560 -0.00616849 -0.00503860
v -0.00371121 -0.00619209 -0.00584015
v -0.00283553 -0.00645036 -0.00613805
v -0.00226341 -0.00661302 -0.00633062
v -0.00208828 -0.00661178 -0.00642608
v -0.00303985 -0.00589905 -0.00643102
v -0.00250277 -0.00609896 -0.00657092
v -0.00122427 -0.00645905 -0.00694618
v -0.00042448 -0.00661178 -0.00719965
v 0.00011553 -0.00678562 -0.00730169
v 0.00028191 -0.00705879 -0.00717661
v -0.00041572 -0.00621320 -0.00742843
v -0.00340180 -0.00535891 -0.00661371
v -0.00483792 -0.00440528 -0.00652977
v -0.00505976 -0.00386639 -0.00663840
v -0.00489046 -0.00203115 -0.00736259
v -0.00520571 -0.00322319 -0.00675361
v -0.00412570 0.00293440 0.00732362
v -0.00489922 0.00131895 0.00725943
v -0.00747957 -0.00484112 0.00114333
v -0.00734822 -0.00433078 0.00275959
v -0.00582745 -0.00545203 -0.00508140
v -0.00611934 -0.00570162 -0.00454648
v -0.00550344 -0.00508077 -0.00562125
v -0.00736865 -0.00613373 -0.00128270
v -0.00738616 -0.00617470 -0.00047292
v -0.00667686 -0.00616725 -0.00290060
v -0.00692789 -0.00624300 -0.00205626
v -0.00740368 -0.00485850 0.00195311
v -0.00734822 -0.00613373 0.00011136
v -0.00738324 -0.00545452 0.00114333
v -0.00268666 0.00390292 0.00808896
v -0.00211163 0.00412767 0.00818278
v -0.00123011 0.00406062 0.00832926
v -0.00042156 0.00469264 0.00816632
v -0.00335802 0.00375019 0.00746517
v 0.00038991 0.00459827 0.00809554
v 0.00114008 0.00467774 0.00763634
v 0.01090686 0.00221546 0.00421620
v 0.01010124 0.00302504 0.00343440
v 0.00083067 0.00449646 0.00804123
v 0.01121043 0.00120968 0.00558393
v 0.02033506 -0.00758776 0.00494039
v 0.01978629 -0.00758776 0.00552797
v -0.00577491 -0.00692096 0.00169800
v -0.00632659 -0.00674216 0.00114333
v -0.00644918 -0.00683156 0.00062817
v -0.00691621 -0.00648264 0.00036977
v -0.00081270 -0.00758776 0.00631964
v -0.00573112 -0.00608778 0.00404009
v -0.00546258 -0.00519004 -0.00556693
v -0.00528452 -0.00565443 -0.00532993
v -0.00460733 -0.00585559 -0.00557845
v -0.00406732 -0.00605922 -0.00573646
v -0.00371121 -0.00616849 -0.00585825
v -0.00371121 -0.00559855 -0.00628618
v -0.00392429 -0.00518755 -0.00646888
v -0.00394473 -0.00515030 -0.00648369
v -0.00371121 -0.00524095 -0.00653965
v -0.00453143 -0.00486471 -0.00636848
v -0.00496344 -0.00531545 -0.00578913
v -0.00503933 -0.00519004 -0.00583357
v -0.00426873 0.00244269 0.00743719
v -0.00321499 0.00325103 0.00800667
v -0.00568442 -0.00119549 0.00641016
v -0.00494884 0.00082227 0.00731375
v -0.00451100 0.00160578 0.00746517
v -0.00730443 -0.00442639 0.00317106
v -0.00651924 -0.00276500 0.00483011
v -0.00734822 -0.00456298 0.00275959
v -0.00734238 -0.00532166 0.00168318
v -0.00727524 -0.00598969 0.00065121
v -0.00662432 -0.00619333 0.00195146
v -0.00653091 -0.00609896 0.00246004
v -0.00281218 0.00325103 0.00811365
v -0.00203866 0.00325103 0.00825684
v -0.00123011 0.00325103 0.00830786
v 0.00266668 -0.00536884 0.00803794
v 0.01009832 -0.00758776 0.00784702
v -0.00042156 0.00406062 0.00828811
v 0.01043108 0.00036532 0.00638547
v 0.01576107 -0.00758776 0.00729071
v 0.01605296 -0.00758776 0.00723475
v 0.01626021 -0.00758776 0.00718537
v 0.01662508 -0.00758776 0.00709155
v 0.01815169 -0.00758776 0.00666033
v 0.01875591 -0.00758776 0.00648587
v 0.01916456 -0.00758776 0.00616163
v -0.00586247 -0.00617594 0.00357101
v -0.00073389 -0.00758776 0.00639041
v -0.00487587 -0.00605798 0.00478732
v -0.00541588 -0.00585683 0.00457829
v -0.00572528 -0.00531669 0.00483669
v -0.00589166 -0.00561345 0.00433799
v -0.00647837 -0.00519376 0.00394792
v -0.00630323 -0.00567802 0.00363355
v -0.00641415 -0.00596486 0.00299989
v -0.00438841 -0.00561221 -0.00589282
v -0.00447014 -0.00519004 -0.00616274
v -0.00416948 -0.00519004 -0.00633227
v -0.00366159 0.00163310 0.00788322
v -0.00319456 0.00244269 0.00801490
v -0.00447014 0.00082227 0.00759684
v -0.00447014 0.00001268 0.00762976
v -0.00568442 -0.00131345 0.00641016
v -0.00499847 -0.00079442 0.00733185
v -0.00498095 0.00001268 0.00734831
v -0.00730443 -0.00444129 0.00317106
v -0.00651924 -0.00291524 0.00483011
v -0.00705632 -0.00561594 0.00195146
v -0.00727816 -0.00519004 0.00207655
v -0.00672064 -0.00567802 0.00274313
v -0.00315369 0.00163310 0.00800667
v -0.00279174 0.00244269 0.00809719
v -0.00274796 0.00163310 0.00808238
v -0.00203866 0.00163310 0.00820417
v -0.00123011 0.00082227 0.00823051
v -0.00123011 0.00244269 0.00828317
v 0.00119846 -0.00403153 0.00808402
v 0.00200700 -0.00484112 0.00805604
v 0.00200992 -0.00534152 0.00803794
v 0.00524995 -0.00727112 0.00794248
v 0.00606434 -0.00758776 0.00791285
v 0.01090103 -0.00758776 0.00780587
v 0.01171249 -0.00758776 0.00772687
v 0.01497879 -0.00758776 0.00739275
v -0.00484668 -0.00522356 0.00557734
v -0.00519987 -0.00561345 0.00496837
v -0.00031064 -0.00758776 0.00668173
v -0.00475327 -0.00426621 0.00632786
v -0.00491674 -0.00372607 0.00645624
v -0.00559101 -0.00241360 0.00629495
v -0.00661264 -0.00542472 0.00340807
v -0.00447014 0.00001144 0.00762976
v -0.00366159 0.00082227 0.00787335
v -0.00567858 -0.00185359 0.00639864
v -0.00496636 -0.00144135 0.00728577
v -0.00446722 -0.00079442 0.00757051
v -0.00498095 0.00001144 0.00734831
v -0.00723438 -0.00519004 0.00219341
v -0.00714973 -0.00496777 0.00275959
v -0.00701838 -0.00519004 0.00275465
v -0.00308072 0.00082227 0.00799679
v -0.00366159 0.00001268 0.00784866
v -0.00203866 0.00082227 0.00817455
v -0.00123011 0.00001020 0.00819430
v 0.00058548 -0.00403153 0.00805933
v 0.00127435 -0.00479890 0.00804452
v 0.00200992 -0.00567926 0.00799350
v 0.00282723 -0.00646153 0.00793754
v 0.00443848 -0.00727112 0.00792108
v 0.00160419 -0.00525088 0.00802642
v 0.00524995 -0.00758776 0.00790297
v -0.00481457 -0.00519004 0.00562507
v 0.00038991 -0.00758776 0.00701091
v -0.00059378 -0.00671608 0.00712118
v -0.00149865 -0.00592388 0.00714587
v -0.00421327 -0.00456174 0.00650233
v -0.00334926 -0.00533035 0.00646941
v -0.00447597 -0.00401042 0.00662742
v -0.00501890 -0.00322319 0.00656652
v -0.00484960 -0.00198149 0.00720677
v -0.00517944 -0.00246327 0.00671629
v -0.00518820 -0.00241360 0.00672617
v -0.00453143 -0.00166858 0.00737465
v -0.00206493 -0.00485229 0.00732198
v -0.00041572 -0.00565195 0.00755734
v -0.00042156 -0.00518755 0.00764622
v 0.00038991 -0.00565195 0.00774168
v 0.00041326 -0.00518755 0.00783549
v 0.00073726 -0.00450089 0.00803629
v -0.00365867 -0.00079442 0.00774003
v -0.00209995 0.00001144 0.00809390
v -0.00256698 0.00025357 0.00804617
v 0.00201284 -0.00616974 0.00791614
v 0.00201284 -0.00646153 0.00786841
v 0.00362993 -0.00727112 0.00785854
v 0.00443848 -0.00758776 0.00785360
v 0.00128310 -0.00557372 0.00792437
v -0.00399727 -0.00519004 0.00615669
v -0.00389218 -0.00510187 0.00629330
v 0.00084818 -0.00758776 0.00717056
v 0.00038991 -0.00744372 0.00709814
v -0.00096448 -0.00616974 0.00726766
v -0.00005377 -0.00689365 0.00722323
v -0.00235682 -0.00513043 0.00718208
v -0.00361197 -0.00400049 0.00706193
v -0.00439716 -0.00315613 0.00699116
v -0.00385132 -0.00338212 0.00716562
v -0.00312158 -0.00425007 0.00717879
v -0.00258450 -0.00459030 0.00724627
v -0.00190438 -0.00519004 0.00728577
v -0.00181098 -0.00538374 0.00726437
v -0.00121551 -0.00567926 0.00734008
v 0.00120429 -0.00646153 0.00772028
v 0.00122764 -0.00616974 0.00778776
v 0.00127435 -0.00567926 0.00790133
v 0.00201284 -0.00661178 0.00782233
v 0.00282723 -0.00727112 0.00776143
v 0.00362993 -0.00758776 0.00776801
v 0.00092991 -0.00758776 0.00719525
v -0.00024934 -0.00661178 0.00728906
v -0.00035734 -0.00645284 0.00732362
v 0.00038991 -0.00646153 0.00751784
v 0.00045120 -0.00705879 0.00729564
v 0.00120429 -0.00661178 0.00766432
v 0.00201576 -0.00727112 0.00761988
v 0.00280387 -0.00758776 0.00763634
v 0.00135024 -0.00758776 0.00730881
v 0.00119262 -0.00731210 0.00739440
v 0.00038991 -0.00661178 0.00746023
v 0.00201576 -0.00758776 0.00747834
f 1 2 3
f 1 3 4
f 1 4 5
f 1 5 6
f 1 6 7
f 1 7 8
f 1 8 9
f 1 9 10
f 1 10 2
f 2 11 3
f 2 10 11
f 3 11 12
f 3 12 13
f 3 13 14
f 3 14 15
f 3 15 4
f 4 15 16
f 4 16 5
f 5 16 17
f 5 17 18
f 5 18 6
f 6 19 7
f 6 18 20
f 6 20 19
f 7 19 21
f 7 21 8
f 8 21 22
f 8 22 23
f 8 23 9
f 9 23 24
f 9 24 25
f 9 25 26
f 9 26 27
f 9 27 28
f 9 28 29
f 9 29 30
f 9 30 10
f 10 30 31
f 10 31 32
f 10 32 11
f 11 33 12
f 11 32 34
f 11 34 33
f 12 33 34
f 12 34 35
f 12 35 36
f 12 36 37
f 12 37 38
f 12 38 39
f 12 39 13
f 13 39 40
f 13 40 41
f 13 41 42
f 13 42 14
f 14 42 43
f 14 43 15
f 15 43 44
f 15 44 16
f 16 44 45
f 16 45 17
f 17 46 20
f 17 20 18
f 17 45 47
f 17 47 48
f 17 48 49
f 17 49 50
f 17 50 51
f 17 51 46
f 19 52 53
f 19 53 21
f 19 20 54
f 19 54 52
f 20 46 55
f 20 55 56
f 20 56 54
f 21 53 57
f 21 57 22
f 22 57 58
f 22 58 59
f 22 59 60
f 22 60 23
f 23 60 61
f 23 61 24
f 24 61 62
f 24 62 31
f 24 31 25
f 25 31 26
f 26 31 27
f 27 31 28
f 28 31 29
f 29 31 30
f 31 62 63
f 31 63 64
f 31 64 65
f 31 65 66
f 31 66 67
f 31 67 68
f 31 68 69
f 31 69 70
f 31 70 71
f 31 71 72
f 31 72 73
f 31 73 74
f 31 74 75
f 31 75 76
f 31 76 77
f 31 77 78
f 31 78 79
f 31 79 80
f 31 80 81
f 31 81 82
f 31 82 83
f 31 83 84
f 31 84 150
f 31 150 149
f 31 149 235
f 31 235 315
f 31 315 370
f 31 370 371
f 31 371 415
f 31 415 414
f 31 414 413
f 31 413 412
f 31 412 411
f 31 411 410
f 31 410 409
f 31 409 453
f 31 453 452
f 31 452 451
f 31 451 406
f 31 406 450
f 31 450 480
f 31 480 505
f 31 505 527
f 31 527 535
f 31 535 539
f 31 539 536
f 31 536 528
f 31 528 509
f 31 509 482
f 31 482 456
f 31 456 417
f 31 417 376
f 31 376 322
f 31 322 321
f 31 321 317
f 31 317 237
f 31 237 151
f 31 151 85
f 31 85 32
f 32 85 86
f 32 86 87
f 32 87 35
f 32 35 34
f 35 87 88
f 35 88 36
f 36 88 89
f 36 89 90
f 36 90 91
f 36 91 92
f 36 92 37
f 37 92 93
f 37 93 38
f 38 93 94
f 38 94 39
f 39 94 40
f 40 94 95
f 40 95 96
f 40 96 97
f 40 97 41
f 41 97 42
f 42 97 98
f 42 98 99
f 42 99 43
f 43 99 44
f 44 99 100
f 44 100 45
f 45 100 47
f 46 101 55
f 46 51 101
f 47 102 103
f 47 103 104
f 47 104 48
f 47 100 102
f 48 104 49
f 49 105 106
f 49 106 51
f 49 51 50
f 49 104 107
f 49 107 108
f 49 108 109
f 49 109 110
f 49 110 105
f 51 106 111
f 51 111 101
f 52 112 53
f 52 54 113
f 52 113 201
f 52 201 112
f 53 112 114
f 53 114 115
f 53 115 57
f 54 56 113
f 55 101 116
f 55 116 117
f 55 117 118
f 55 118 56
f 56 119 113
f 56 118 119
f 57 120 121
f 57 121 122
f 57 122 123
f 57 123 58
f 57 115 120
f 58 123 124
f 58 124 125
f 58 125 126
f 58 126 59
f 59 61 60
f 59 126 127
f 59 127 128
f 59 128 129
f 59 129 61
f 61 130 131
f 61 131 132
f 61 132 133
f 61 133 134
f 61 134 135
f 61 135 65
f 61 65 64
f 61 64 63
f 61 63 62
f 61 129 130
f 65 135 66
f 66 135 136
f 66 136 134
f 66 134 137
f 66 137 138
f 66 138 139
f 66 139 67
f 67 139 68
f 68 139 129
f 68 129 69
f 69 129 70
f 70 129 71
f 71 129 72
f 72 129 73
f 73 129 140
f 73 140 74
f 74 140 75
f 75 140 76
f 76 140 141
f 76 141 77
f 77 141 78
f 78 141 142
f 78 142 143
f 78 143 79
f 79 143 80
f 80 144 81
f 80 143 145
f 80 145 144
f 81 144 146
f 81 146 82
f 82 146 83
f 83 146 147
f 83 147 148
f 83 148 149
f 83 149 150
f 83 150 84
f 85 151 152
f 85 152 153
f 85 153 154
f 85 154 155
f 85 155 156
f 85 156 157
f 85 157 158
f 85 158 159
f 85 159 160
f 85 160 161
f 85 161 162
f 85 162 163
f 85 163 164
f 85 164 165
f 85 165 166
f 85 166 167
f 85 167 168
f 85 168 169
f 85 169 170
f 85 170 171
f 85 171 86
f 86 171 172
f 86 172 88
f 86 88 87
f 88 173 174
f 88 174 89
f 88 172 175
f 88 175 173
f 89 174 176
f 89 176 177
f 89 177 178
f 89 178 90
f 90 178 91
f 91 178 179
f 91 179 180
f 91 180 181
f 91 181 182
f 91 182 92
f 92 182 96
f 92 96 93
f 93 95 94
f 93 96 95
f 96 183 97
f 96 182 184
f 96 184 183
f 97 183 98
f 98 183 184
f 98 184 185
f 98 185 99
f 99 185 102
f 99 102 100
f 101 111 116
f 102 185 186
f 102 186 103
f 103 186 187
f 103 187 104
f 104 187 107
f 105 188 189
f 105 189 190
f 105 190 106
f 105 110 191
f 105 191 192
f 105 192 193
f 105 193 194
f 105 194 188
f 106 190 276
f 106 276 195
f 106 195 196
f 106 196 111
f 107 197 198
f 107 198 109
f 107 109 108
f 107 187 197
f 109 198 199
f 109 199 110
f 110 199 200
f 110 200 191
f 111 196 116
f 112 201 202
f 112 202 114
f 113 119 209
f 113 209 201
f 114 203 204
f 114 204 115
f 114 202 205
f 114 205 203
f 115 204 120
f 116 206 117
f 116 196 206
f 117 207 208
f 117 208 118
f 117 206 298
f 117 298 207
f 118 208 119
f 119 208 209
f 120 210 121
f 120 204 210
f 121 210 122
f 122 211 212
f 122 212 213
f 122 213 123
f 122 210 214
f 122 214 211
f 123 213 124
f 124 213 215
f 124 215 216
f 124 216 125
f 125 216 126
f 126 216 217
f 126 217 218
f 126 218 127
f 127 218 219
f 127 219 140
f 127 140 128
f 128 140 129
f 129 139 138
f 129 138 220
f 129 220 130
f 130 220 131
f 131 220 138
f 131 138 132
f 132 138 221
f 132 221 133
f 133 221 134
f 134 221 137
f 134 136 135
f 137 221 138
f 140 219 141
f 141 219 222
f 141 222 142
f 142 222 223
f 142 223 224
f 142 224 143
f 143 225 226
f 143 226 145
f 143 224 225
f 144 227 146
f 144 145 228
f 144 228 227
f 145 226 212
f 145 212 228
f 146 227 229
f 146 229 147
f 147 230 148
f 147 229 231
f 147 231 230
f 148 230 232
f 148 232 233
f 148 233 234
f 148 234 149
f 149 234 236
f 149 236 235
f 151 237 238
f 151 238 152
f 152 238 239
f 152 239 155
f 152 155 154
f 152 154 153
f 155 239 156
f 156 239 240
f 156 240 241
f 156 241 242
f 156 242 157
f 157 242 243
f 157 243 244
f 157 244 158
f 158 244 245
f 158 245 159
f 159 245 160
f 160 245 246
f 160 246 247
f 160 247 248
f 160 248 161
f 161 248 162
f 162 248 249
f 162 249 163
f 163 249 250
f 163 250 164
f 164 250 251
f 164 251 165
f 165 251 166
f 166 251 167
f 167 251 252
f 167 252 168
f 168 252 253
f 168 253 254
f 168 254 169
f 169 254 255
f 169 255 170
f 170 255 171
f 171 255 172
f 172 255 254
f 172 254 256
f 172 256 175
f 173 257 174
f 173 175 257
f 174 257 176
f 175 256 258
f 175 258 257
f 176 257 258
f 176 258 259
f 176 259 177
f 177 259 260
f 177 260 261
f 177 261 178
f 178 261 179
f 179 261 262
f 179 262 180
f 180 263 264
f 180 264 181
f 180 262 265
f 180 265 266
f 180 266 263
f 181 264 267
f 181 267 268
f 181 268 269
f 181 269 270
f 181 270 182
f 182 270 184
f 184 270 271
f 184 271 186
f 184 186 185
f 186 271 272
f 186 272 273
f 186 273 187
f 187 273 197
f 188 274 189
f 188 194 274
f 189 274 275
f 189 275 276
f 189 276 190
f 191 200 192
f 192 200 277
f 192 277 193
f 193 277 194
f 194 277 278
f 194 278 279
f 194 279 274
f 195 276 298
f 195 298 206
f 195 206 196
f 197 280 281
f 197 281 282
f 197 282 199
f 197 199 198
f 197 273 272
f 197 272 283
f 197 283 280
f 199 284 285
f 199 285 200
f 199 282 286
f 199 286 287
f 199 287 284
f 200 285 288
f 200 288 289
f 200 289 290
f 200 290 278
f 200 278 291
f 200 291 277
f 201 209 202
f 202 209 292
f 202 292 293
f 202 293 205
f 203 205 294
f 203 294 295
f 203 295 296
f 203 296 204
f 204 296 210
f 205 293 297
f 205 297 294
f 207 298 299
f 207 299 208
f 208 300 292
f 208 292 209
f 208 299 301
f 208 301 300
f 210 302 214
f 210 296 302
f 211 303 304
f 211 304 305
f 211 305 212
f 211 214 303
f 212 226 213
f 212 305 228
f 213 226 215
f 214 302 306
f 214 306 307
f 214 307 304
f 214 304 303
f 215 226 225
f 215 225 216
f 216 225 217
f 217 223 218
f 217 225 224
f 217 224 223
f 218 223 222
f 218 222 219
f 227 228 229
f 228 305 304
f 228 304 308
f 228 308 229
f 229 308 309
f 229 309 310
f 229 310 231
f 230 231 311
f 230 311 232
f 231 310 312
f 231 312 311
f 232 311 313
f 232 313 233
f 233 313 314
f 233 314 234
f 234 314 236
f 235 236 315
f 236 314 316
f 236 316 315
f 237 317 238
f 238 318 319
f 238 319 320
f 238 320 240
f 238 240 239
f 238 317 321
f 238 321 322
f 238 322 318
f 240 320 323
f 240 323 324
f 240 324 241
f 241 324 242
f 242 324 325
f 242 325 243
f 243 325 326
f 243 326 244
f 244 326 281
f 244 281 327
f 244 327 328
f 244 328 245
f 245 329 330
f 245 330 331
f 245 331 246
f 245 328 329
f 246 332 333
f 246 333 334
f 246 334 335
f 246 335 247
f 246 331 332
f 247 335 259
f 247 259 336
f 247 336 248
f 248 337 338
f 248 338 249
f 248 336 337
f 249 338 250
f 250 338 337
f 250 337 251
f 251 337 259
f 251 259 339
f 251 339 253
f 251 253 252
f 253 339 258
f 253 258 254
f 254 258 256
f 258 339 259
f 259 266 262
f 259 262 261
f 259 261 260
f 259 337 336
f 259 335 334
f 259 334 340
f 259 340 341
f 259 341 267
f 259 267 266
f 262 266 265
f 263 266 264
f 264 266 267
f 267 341 342
f 267 342 269
f 267 269 268
f 269 342 343
f 269 343 270
f 270 343 271
f 271 343 344
f 271 344 272
f 272 344 283
f 274 279 275
f 275 345 276
f 275 279 346
f 275 346 345
f 276 345 298
f 277 291 278
f 278 290 347
f 278 347 348
f 278 348 346
f 278 346 279
f 280 349 350
f 280 350 281
f 280 283 349
f 281 350 327
f 281 326 282
f 282 326 286
f 283 344 342
f 283 342 341
f 283 341 351
f 283 351 349
f 284 287 352
f 284 352 285
f 285 352 353
f 285 353 288
f 286 326 354
f 286 354 287
f 287 354 355
f 287 355 323
f 287 323 320
f 287 320 352
f 288 356 347
f 288 347 289
f 288 353 357
f 288 357 358
f 288 358 356
f 289 347 290
f 292 300 293
f 293 300 301
f 293 301 297
f 294 297 359
f 294 359 360
f 294 360 361
f 294 361 295
f 295 361 362
f 295 362 296
f 296 362 302
f 297 301 363
f 297 363 345
f 297 345 359
f 298 363 301
f 298 301 299
f 298 345 363
f 302 364 365
f 302 365 306
f 302 362 364
f 304 307 309
f 304 309 308
f 306 366 312
f 306 312 367
f 306 367 307
f 306 365 368
f 306 368 369
f 306 369 316
f 306 316 366
f 307 367 312
f 307 312 310
f 307 310 309
f 311 312 313
f 312 366 313
f 313 316 314
f 313 366 316
f 315 316 370
f 316 369 371
f 316 371 370
f 318 372 373
f 318 373 374
f 318 374 319
f 318 322 372
f 319 375 357
f 319 357 353
f 319 353 320
f 319 374 375
f 320 353 352
f 322 376 377
f 322 377 372
f 323 355 354
f 323 354 324
f 324 354 326
f 324 326 325
f 327 351 378
f 327 378 379
f 327 379 380
f 327 380 381
f 327 381 329
f 327 329 328
f 327 350 349
f 327 349 351
f 329 382 330
f 329 381 382
f 330 382 383
f 330 383 331
f 331 383 333
f 331 333 332
f 333 383 384
f 333 384 334
f 334 384 385
f 334 385 386
f 334 386 340
f 340 386 341
f 341 386 385
f 341 385 384
f 341 384 387
f 341 387 388
f 341 388 389
f 341 389 351
f 342 344 343
f 345 346 390
f 345 390 391
f 345 391 359
f 346 392 393
f 346 393 394
f 346 394 391
f 346 391 390
f 346 348 395
f 346 395 396
f 346 396 392
f 347 356 397
f 347 397 348
f 348 397 435
f 348 435 395
f 351 389 378
f 356 358 398
f 356 398 397
f 357 399 398
f 357 398 358
f 357 375 400
f 357 400 401
f 357 401 399
f 359 391 402
f 359 402 360
f 360 403 361
f 360 402 403
f 361 403 404
f 361 404 405
f 361 405 406
f 361 406 407
f 361 407 362
f 362 407 364
f 364 368 365
f 364 407 368
f 368 408 369
f 368 407 409
f 368 409 410
f 368 410 411
f 368 411 412
f 368 412 413
f 368 413 414
f 368 414 408
f 369 414 415
f 369 415 371
f 369 408 414
f 372 377 416
f 372 416 373
f 373 416 401
f 373 401 374
f 374 401 400
f 374 400 375
f 376 417 377
f 377 417 418
f 377 418 419
f 377 419 420
f 377 420 421
f 377 421 422
f 377 422 423
f 377 423 424
f 377 424 401
f 377 401 416
f 378 389 388
f 378 388 379
f 379 388 380
f 380 388 381
f 381 388 382
f 382 388 425
f 382 425 383
f 383 425 426
f 383 426 427
f 383 427 384
f 384 427 387
f 387 427 426
f 387 426 388
f 388 426 425
f 391 428 429
f 391 429 402
f 391 394 393
f 391 393 430
f 391 430 431
f 391 431 428
f 392 432 433
f 392 433 434
f 392 434 393
f 392 396 436
f 392 436 432
f 393 434 430
f 395 435 436
f 395 436 396
f 397 398 435
f 398 399 437
f 398 437 438
f 398 438 435
f 399 401 439
f 399 439 437
f 401 424 439
f 402 429 440
f 402 440 441
f 402 441 403
f 403 441 442
f 403 442 443
f 403 443 444
f 403 444 445
f 403 445 404
f 404 445 446
f 404 446 405
f 405 446 447
f 405 447 448
f 405 448 449
f 405 449 406
f 406 449 450
f 406 451 407
f 407 451 452
f 407 452 453
f 407 453 409
f 417 454 455
f 417 455 418
f 417 456 454
f 418 455 419
f 419 455 420
f 420 455 454
f 420 454 457
f 420 457 458
f 420 458 459
f 420 459 422
f 420 422 421
f 422 435 460
f 422 460 423
f 422 459 435
f 423 460 424
f 424 460 439
f 428 461 462
f 428 462 429
f 428 431 461
f 429 462 440
f 430 434 431
f 431 434 466
f 431 466 461
f 432 436 463
f 432 463 433
f 433 463 464
f 433 464 465
f 433 465 461
f 433 461 466
f 433 466 434
f 435 438 467
f 435 467 468
f 435 468 469
f 435 469 460
f 435 459 463
f 435 463 436
f 437 439 438
f 438 439 467
f 439 469 467
f 439 460 469
f 440 470 442
f 440 442 441
f 440 462 471
f 440 471 470
f 442 470 443
f 443 472 444
f 443 470 472
f 444 472 473
f 444 473 446
f 444 446 445
f 446 474 475
f 446 475 448
f 446 448 447
f 446 473 474
f 448 476 477
f 448 477 478
f 448 478 449
f 448 475 479
f 448 479 476
f 449 478 480
f 449 480 450
f 454 481 457
f 454 456 481
f 456 482 483
f 456 483 484
f 456 484 485
f 456 485 486
f 456 486 481
f 457 481 485
f 457 485 487
f 457 487 458
f 458 488 459
f 458 487 489
f 458 489 488
f 459 488 490
f 459 490 491
f 459 491 463
f 461 465 471
f 461 471 462
f 463 491 464
f 464 491 489
f 464 489 492
f 464 492 465
f 465 492 493
f 465 493 494
f 465 494 495
f 465 495 496
f 465 496 497
f 465 497 498
f 465 498 499
f 465 499 471
f 467 469 468
f 470 471 472
f 471 499 498
f 471 498 500
f 471 500 501
f 471 501 472
f 472 501 500
f 472 500 498
f 472 498 474
f 472 474 473
f 474 498 475
f 475 498 479
f 476 502 477
f 476 479 502
f 477 502 503
f 477 503 504
f 477 504 478
f 478 504 505
f 478 505 480
f 479 498 506
f 479 506 503
f 479 503 502
f 481 486 507
f 481 507 508
f 481 508 485
f 482 509 510
f 482 510 483
f 483 511 484
f 483 510 512
f 483 512 511
f 484 511 513
f 484 513 485
f 485 513 487
f 485 508 486
f 486 508 507
f 487 513 514
f 487 514 515
f 487 515 489
f 488 489 490
f 489 515 514
f 489 514 516
f 489 516 517
f 489 517 492
f 489 491 490
f 492 517 518
f 492 518 493
f 493 518 513
f 493 513 519
f 493 519 494
f 494 519 520
f 494 520 521
f 494 521 511
f 494 511 522
f 494 522 496
f 494 496 495
f 496 522 523
f 496 523 524
f 496 524 506
f 496 506 498
f 496 498 497
f 503 525 526
f 503 526 504
f 503 506 524
f 503 524 523
f 503 523 522
f 503 522 525
f 504 527 505
f 504 526 527
f 509 528 512
f 509 512 510
f 511 521 520
f 511 520 513
f 511 512 529
f 511 529 530
f 511 530 531
f 511 531 522
f 512 528 532
f 512 532 529
f 513 520 519
f 513 518 517
f 513 517 514
f 514 517 516
f 522 533 534
f 522 534 525
f 522 531 533
f 525 534 526
f 526 534 535
f 526 535 527
f 528 536 537
f 528 537 532
f 529 532 537
f 529 537 538
f 529 538 530
f 530 538 531
f 531 538 534
f 531 534 533
f 534 538 537
f 534 537 539
f 534 539 535
f 536 539 537

