# https://github.com/mikedh/trimesh
v 0.02433517 0.01268293 -0.00046140
v 0.02433517 0.01263629 0.00035676
v 0.02515510 0.01260683 0.00035676
v 0.02515510 0.01262401 -0.00002291
v 0.02515510 0.01264365 -0.00046140
v 0.02433517 0.01257000 -0.00127957
v 0.02351523 0.01257491 -0.00127957
v 0.02351523 0.01265347 -0.00046140
v 0.02307937 0.01262401 -0.00002291
v 0.02269530 0.01259701 0.00035676
v 0.02351523 0.01262401 0.00035676
v 0.02433517 0.01250863 0.00117627
v 0.02269530 0.01249881 0.00117627
v 0.02351523 0.01250863 0.00117627
v 0.02515510 0.01247917 0.00117627
v 0.02556507 0.01238588 0.00158669
v 0.02588872 0.01241534 0.00113215
v 0.02644542 0.01239324 0.00082601
v 0.02597503 0.01249635 0.00035676
v 0.02575495 0.01243252 -0.00127957
v 0.02515510 0.01251845 -0.00127957
v 0.02603545 0.01248162 -0.00048547
v 0.02433517 0.01243007 -0.00185175
v 0.02351523 0.01245216 -0.00193330
v 0.02269530 0.01244480 -0.00193464
v 0.02269530 0.01254054 -0.00127957
v 0.02269530 0.01260683 -0.00046140
v 0.02225513 0.01257491 -0.00002291
v 0.02187968 0.01254545 0.00035676
v 0.02187968 0.01246198 0.00117627
v 0.02433517 0.01234660 0.00217224
v 0.02515510 0.01233432 0.00208267
v 0.02351523 0.01241534 0.00176449
v 0.02187968 0.01240061 0.00166021
v 0.02269530 0.01241534 0.00174577
v 0.02588872 0.01227786 0.00191556
v 0.02610881 0.01235151 0.00137279
v 0.02515510 0.01218702 0.00281393
v 0.02647994 0.01240306 0.00035676
v 0.02675181 0.01228768 0.00113215
v 0.02688991 0.01231959 0.00035676
v 0.02557801 0.01238588 -0.00169400
v 0.02616060 0.01235396 -0.00127957
v 0.02679065 0.01211828 -0.00209774
v 0.02515510 0.01240061 -0.00175015
v 0.02644542 0.01240061 -0.00022745
v 0.02634616 0.01237606 -0.00077423
v 0.02679065 0.01221648 -0.00127957
v 0.02515510 0.01229013 -0.00216057
v 0.02433517 0.01231714 -0.00226217
v 0.02351523 0.01233678 -0.00234238
v 0.02269530 0.01234414 -0.00234372
v 0.02187968 0.01231959 -0.00222340
v 0.02187968 0.01241043 -0.00181298
v 0.02142225 0.01238833 -0.00170871
v 0.02187968 0.01247426 -0.00127957
v 0.02187968 0.01254545 -0.00046140
v 0.02143951 0.01250617 -0.00002291
v 0.02105543 0.01247180 0.00035676
v 0.02112880 0.01240797 0.00111343
v 0.02145245 0.01238588 0.00159337
v 0.02433517 0.01219439 0.00281393
v 0.02351523 0.01234660 0.00217625
v 0.02269530 0.01233432 0.00215486
v 0.02187968 0.01230486 0.00207063
v 0.02597503 0.01204463 0.00281393
v 0.02519394 0.01178441 0.00371098
v 0.02597503 0.01174267 0.00354119
v 0.02679065 0.01206182 0.00199443
v 0.02747681 0.01175249 0.00199443
v 0.02767100 0.01182123 0.00112413
v 0.02761490 0.01195625 0.00035676
v 0.02722651 0.01214283 -0.00002291
v 0.02761490 0.01187033 -0.00127957
v 0.02674750 0.01229995 -0.00048547
v 0.02590167 0.01226804 -0.00202020
v 0.02765805 0.01175986 -0.00204025
v 0.02742502 0.01171812 -0.00291590
v 0.02679065 0.01191943 -0.00291590
v 0.02597503 0.01198817 -0.00291590
v 0.02351523 0.01210846 -0.00291590
v 0.02515510 0.01203236 -0.00291590
v 0.02433517 0.01207409 -0.00291590
v 0.02269530 0.01211092 -0.00291590
v 0.02187968 0.01207409 -0.00291590
v 0.02105975 0.01200781 -0.00291590
v 0.00714246 0.01082942 -0.00276082
v 0.02087419 0.01236378 -0.00145470
v 0.00714246 0.01096199 -0.00209774
v 0.02111154 0.01240797 -0.00122075
v 0.02105975 0.01246935 -0.00046140
v 0.02105975 0.01247180 -0.00002291
v 0.02061094 0.01238833 0.00079659
v 0.00714246 0.01111910 -0.00046140
v 0.00713815 0.01111174 0.00035676
v 0.00713815 0.01104791 0.00117627
v 0.00713815 0.01097672 0.00199443
v 0.02112880 0.01227786 0.00191689
v 0.00713815 0.01084169 0.00265217
v 0.02430064 0.01178195 0.00370964
v 0.02351523 0.01216247 0.00281393
v 0.02269530 0.01211583 0.00281393
v 0.02105543 0.01198326 0.00281393
v 0.02187968 0.01205200 0.00281393
v 0.00803144 0.01084906 0.00286073
v 0.02657919 0.01163465 0.00338211
v 0.02682949 0.01175495 0.00285270
v 0.02549170 0.01156100 0.00403584
v 0.02455094 0.01158064 0.00406658
v 0.02494796 0.01158064 0.00406658
v 0.02597503 0.01151927 0.00395161
v 0.02682949 0.01142598 0.00364814
v 0.02733871 0.01163956 0.00260672
v 0.02761490 0.01137688 0.00285270
v 0.02811118 0.01083678 0.00342890
v 0.02788677 0.01145298 0.00199443
v 0.02798171 0.01152172 0.00136209
v 0.02802918 0.01157573 0.00081531
v 0.02806371 0.01161010 0.00035676
v 0.02783499 0.01180405 -0.00002291
v 0.02761490 0.01193661 -0.00046140
v 0.02806371 0.01159783 -0.00127957
v 0.02803350 0.01157573 -0.00173010
v 0.02728693 0.01162483 -0.00341456
v 0.02796013 0.01148735 -0.00227688
v 0.03458002 0.00502583 -0.00418860
v 0.02679065 0.01167393 -0.00350012
v 0.02597503 0.01170094 -0.00357231
v 0.02515510 0.01171567 -0.00364717
v 0.02433517 0.01173285 -0.00371000
v 0.02351523 0.01174513 -0.00371936
v 0.02433517 0.01155364 -0.00412042
v 0.02351523 0.01155855 -0.00413112
v 0.02269530 0.01174267 -0.00369129
v 0.02187968 0.01173040 -0.00364049
v 0.02105975 0.01170339 -0.00357899
v 0.01041788 0.01066248 -0.00393460
v 0.00796240 0.01054955 -0.00373674
v 0.00796240 0.01072385 -0.00326483
v 0.00714246 0.01067230 -0.00316991
v 0.00665913 0.01079014 -0.00264318
v 0.02061094 0.01238833 -0.00090792
v 0.00714246 0.01105282 -0.00127957
v 0.01230804 0.01158064 -0.00098947
v 0.00659009 0.01083433 -0.00209774
v 0.00652967 0.01088097 -0.00127957
v 0.00648652 0.01091289 -0.00046140
v 0.00648220 0.01091289 -0.00002291
v 0.00678860 0.01100863 -0.00002291
v 0.00648220 0.01091043 0.00035676
v 0.00651241 0.01087852 0.00117627
v 0.00655556 0.01084415 0.00199443
v 0.00663324 0.01079750 0.00252250
v 0.00713815 0.01065511 0.00306259
v 0.00780272 0.01072385 0.00316420
v 0.02351523 0.01178932 0.00359601
v 0.01172114 0.01074104 0.00403049
v 0.00877801 0.01001682 0.00497833
v 0.00835079 0.01074840 0.00322837
v 0.01041788 0.01083678 0.00347034
v 0.01123781 0.01072140 0.00397701
v 0.02712294 0.01153891 0.00315083
v 0.02519394 0.01131305 0.00438610
v 0.02576358 0.01079750 0.00491550
v 0.02600956 0.01106755 0.00452246
v 0.00959795 0.01004382 0.00501042
v 0.02430064 0.01131796 0.00438610
v 0.02433517 0.01085151 0.00495962
v 0.02515510 0.01084415 0.00495560
v 0.02679065 0.01100127 0.00435802
v 0.02742070 0.01087115 0.00420829
v 0.02766237 0.01102336 0.00367488
v 0.02818885 0.01093989 0.00281393
v 0.02797308 0.01070176 0.00397434
v 0.03460591 0.00585807 -0.00131032
v 0.02807665 0.01161747 -0.00002291
v 0.02808960 0.01162729 -0.00046140
v 0.03458002 0.00583352 -0.00175550
v 0.02734734 0.01087606 -0.00431962
v 0.02693306 0.01066002 -0.00486774
v 0.02638932 0.01074595 -0.00496666
v 0.02679065 0.01139161 -0.00390920
v 0.03391112 0.00507002 -0.00513377
v 0.03379029 0.00421569 -0.00663642
v 0.03826972 -0.00094960 -0.00701342
v 0.03826972 -0.00125157 -0.00769923
v 0.02597503 0.01146280 -0.00398273
v 0.02515510 0.01151927 -0.00405759
v 0.02433517 0.01119766 -0.00455624
v 0.02351523 0.01119766 -0.00455624
v 0.02269530 0.01154136 -0.00410037
v 0.02187968 0.01150945 -0.00404957
v 0.00796240 0.01016412 -0.00453218
v 0.00714246 0.01041452 -0.00373674
v -0.00252843 0.00507493 -0.00748400
v -0.00305923 0.00497919 -0.00701342
v -0.00299450 0.00490799 -0.00619525
v 0.00658577 0.01010274 0.00348906
v 0.00674113 0.00992107 0.00403584
v 0.00728487 0.01004628 0.00424706
v 0.00767758 0.00988670 0.00479251
v 0.00795377 0.01013220 0.00449438
v -0.00393095 0.00419850 -0.00656423
v -0.00383170 0.00410030 -0.00601745
v -0.00469047 0.00331471 -0.00619525
v -0.00491487 0.00276970 -0.00570729
v 0.00877801 0.01029668 0.00445428
v 0.00877801 0.01061583 0.00368825
v 0.00822132 0.00997508 0.00492753
v 0.00877801 0.00985479 0.00518287
v 0.02592325 0.01047099 0.00518287
v 0.02679065 0.01027459 0.00518287
v 0.02631164 0.01072876 0.00484464
v 0.00922682 0.00988179 0.00518287
v 0.00959795 0.00990143 0.00518287
v 0.02351523 0.01082696 0.00494090
v 0.01184197 0.01000945 0.00518287
v 0.01358541 0.01009047 0.00518287
v 0.01445281 0.01012975 0.00518287
v 0.02386047 0.01055446 0.00518287
v 0.02435243 0.01057164 0.00518287
v 0.02515510 0.01056673 0.00518287
v 0.02679065 0.01066493 0.00476711
v 0.02761490 0.01010029 0.00504384
v 0.02805939 0.00997508 0.00491283
v 0.03826108 -0.00094715 -0.00002425
v 0.03826972 -0.00093733 -0.00503618
v 0.03826972 -0.00093733 -0.00619792
v 0.02739050 0.01011256 -0.00511907
v 0.02723514 0.01029668 -0.00503618
v 0.02738187 0.00921404 -0.00586371
v 0.02681654 0.01050781 -0.00503618
v 0.02648857 0.01063056 -0.00503618
v 0.02596640 0.00983024 -0.00572066
v 0.02596640 0.01033596 -0.00532361
v 0.02515510 0.00987688 -0.00574873
v 0.02597503 0.01068948 -0.00503618
v 0.02597503 0.01075822 -0.00497870
v 0.02679065 0.00974431 -0.00565515
v 0.03376440 0.00337854 -0.00742918
v 0.03826972 -0.00194878 -0.00783158
v 0.03631482 -0.00066237 -0.00827943
v 0.03465769 0.00103648 -0.00830484
v 0.02515510 0.01078032 -0.00499608
v 0.02433517 0.01079996 -0.00501212
v 0.02351523 0.01079505 -0.00500677
v 0.02269530 0.01114856 -0.00455624
v 0.00847162 0.00986706 -0.00503618
v 0.00840689 0.00992598 -0.00496132
v 0.00796240 0.00991125 -0.00494260
v 0.00714246 0.01008065 -0.00439181
v -0.00187249 0.00513631 -0.00752678
v -0.00276147 0.00466986 -0.00755218
v -0.00325774 0.00444155 -0.00750004
v 0.00760421 0.00908883 -0.00577948
v 0.00085055 0.00585562 -0.00745191
v -0.00381012 0.00407084 -0.00718053
v -0.00352530 0.00449801 -0.00694925
v -0.00393095 0.00419850 -0.00663374
v 0.00673681 0.00908883 0.00485133
v 0.00716836 0.00928278 0.00518287
v 0.00725035 0.00937361 0.00518287
v 0.00736255 0.00943989 0.00518287
v 0.00792356 0.00970258 0.00518287
v 0.00799692 0.00972958 0.00518287
v -0.00501413 0.00290718 -0.00619525
v -0.00541978 0.00214368 -0.00615247
v -0.00551903 0.00132371 -0.00583697
v 0.00687491 0.00883597 0.00518287
v 0.02691148 0.01023286 0.00518287
v 0.02762785 0.00992353 0.00518287
v 0.02786951 0.00977132 0.00518287
v 0.02741639 0.01004137 0.00518287
v 0.02813707 0.00942271 0.00518287
v 0.03012649 0.00609621 0.00518287
v 0.03826108 -0.00278102 -0.00002425
v 0.03826972 -0.00521882 -0.00503618
v 0.02718767 0.00827869 -0.00660032
v 0.02679065 0.00933924 -0.00595194
v 0.02671729 0.01036297 -0.00519126
v 0.02596640 0.00886543 -0.00642920
v 0.02515510 0.00946690 -0.00605221
v 0.02515510 0.01033596 -0.00537040
v 0.02433085 0.00990389 -0.00576879
v 0.02515510 0.01073613 -0.00503618
v 0.02683381 0.00703892 -0.00732357
v 0.02686401 0.00794972 -0.00687973
v 0.03826972 -0.00274911 -0.00752945
v 0.03744115 -0.00276629 -0.00769255
v 0.03662122 -0.00276629 -0.00784763
v 0.03615515 -0.00276629 -0.00792516
v 0.03744115 -0.00194633 -0.00796794
v 0.03618104 -0.00151179 -0.00823799
v 0.03631482 -0.00096924 -0.00827943
v 0.03498135 -0.00031622 -0.00843719
v 0.03495546 0.00045956 -0.00835697
v 0.03416573 0.00050129 -0.00845991
v 0.03416573 0.00117151 -0.00833692
v 0.02433517 0.01077541 -0.00503618
v 0.02433085 0.01077541 -0.00503618
v 0.02351523 0.01076068 -0.00503618
v 0.00828605 0.00832533 -0.00663776
v 0.00878665 0.00916248 -0.00584365
v 0.00856224 0.00915266 -0.00583563
v 0.00815659 0.00984251 -0.00503618
v 0.00815228 0.00913548 -0.00581825
v 0.00794945 0.00982533 -0.00503618
v -0.00187249 0.00459866 -0.00764041
v 0.00057868 0.00546282 -0.00753212
v -0.00351235 0.00296119 -0.00765110
v -0.00352530 0.00379097 -0.00755886
v -0.00269242 0.00377870 -0.00765378
v -0.00403452 0.00352584 -0.00749603
v 0.00878665 0.00787607 -0.00686636
v 0.00960226 0.00651846 -0.00737838
v 0.00960226 0.00610848 -0.00751875
v -0.00478972 0.00262731 -0.00746662
v -0.00460847 0.00320669 -0.00701342
v -0.00414672 0.00379097 -0.00694925
v -0.00492350 0.00279671 -0.00701342
v -0.00562260 0.00187118 -0.00685700
v -0.00562260 0.00187118 -0.00639712
v -0.00567870 0.00132371 -0.00624605
v -0.00555356 0.00090391 -0.00578884
v 0.00683175 0.00869849 0.00518287
v 0.03600843 -0.00843240 -0.00002558
v 0.03744978 -0.00488985 -0.00002425
v 0.00786746 0.00609621 0.00518287
v 0.03605158 -0.00843240 -0.00046408
v 0.03605158 -0.00843240 -0.00053359
v 0.03826972 -0.00521146 -0.00537307
v 0.02663961 0.00838425 -0.00667519
v 0.02596640 0.00845545 -0.00671930
v 0.02515510 0.00887525 -0.00646129
v 0.02433085 0.00949636 -0.00605889
v 0.02433085 0.01033596 -0.00540650
v 0.02351523 0.00989652 -0.00576344
v 0.02351523 0.01033596 -0.00539714
v 0.02658351 0.00675414 -0.00744523
v 0.02596640 0.00714448 -0.00733828
v 0.02596640 0.00787607 -0.00704416
v 0.03826972 -0.00351506 -0.00719523
v 0.03683699 -0.00390049 -0.00738507
v 0.03659101 -0.00360590 -0.00754282
v 0.03580129 -0.00358380 -0.00769522
v 0.03498135 -0.00358380 -0.00784094
v 0.03580129 -0.00276629 -0.00797998
v 0.03662122 -0.00194633 -0.00808693
v 0.03615515 -0.00154616 -0.00823532
v 0.03586602 -0.00119756 -0.00831419
v 0.03498135 -0.00112636 -0.00838104
v 0.03416573 -0.00031622 -0.00847462
v 0.02679065 0.00459866 -0.00785565
v 0.02679065 0.00541617 -0.00771260
v -0.00105255 0.00459866 -0.00765378
v 0.01042651 0.00541617 -0.00765378
v 0.00856224 0.00833024 -0.00664043
v -0.00433229 0.00132371 -0.00765512
v -0.00433229 0.00209458 -0.00763239
v -0.00433229 0.00214122 -0.00762971
v -0.00431934 0.00292436 -0.00754014
v 0.00878665 0.00833024 -0.00664310
v 0.02596640 0.00541617 -0.00771795
v -0.00497529 0.00214122 -0.00751474
v -0.00565281 0.00116905 -0.00749870
v -0.00554492 0.00171406 -0.00740378
v -0.00536799 0.00214368 -0.00708293
v -0.00570891 0.00139491 -0.00708293
v -0.00581680 0.00050375 -0.00701342
v -0.00569165 0.00059213 -0.00611771
v -0.00569165 0.00057985 -0.00611504
v -0.00558376 0.00035645 -0.00576344
v 0.00683175 0.00857820 0.00518287
v -0.00560534 -0.00031131 -0.00573938
v 0.03454981 -0.00915662 -0.00171539
v 0.03497272 -0.00906824 -0.00171539
v 0.03547763 -0.00894794 -0.00171539
v 0.01311934 -0.00843240 -0.00002558
v 0.00796240 -0.01239720 -0.00171539
v 0.01019348 -0.01220325 -0.00171539
v 0.01206206 -0.01200931 -0.00171539
v 0.01762898 -0.01140047 -0.00171539
v 0.02487028 -0.01056578 -0.00171539
v 0.03149448 -0.00976300 -0.00171539
v 0.00730645 0.00710029 0.00518287
v 0.00656419 -0.01160669 -0.00171539
v 0.00671955 -0.01180064 -0.00171539
v 0.00692238 -0.01201667 -0.00171539
v 0.00713815 -0.01218607 -0.00171539
v 0.00733234 -0.01230636 -0.00171539
v 0.00766032 -0.01236283 -0.00171539
v 0.03565456 -0.00876382 -0.00171539
v 0.03598253 -0.00843240 -0.00135176
v 0.03826972 -0.00501015 -0.00606691
v 0.03826972 -0.00430311 -0.00678882
v 0.03580129 -0.00454370 -0.00730619
v 0.03629325 -0.00403061 -0.00743721
v 0.03498135 -0.00276629 -0.00809762
v 0.03580129 -0.00413372 -0.00748132
v 0.03498135 -0.00430066 -0.00755084
v 0.03450665 -0.00479656 -0.00741581
v 0.03416573 -0.00358380 -0.00793720
v 0.03586602 -0.00193651 -0.00818719
v 0.03563298 -0.00165909 -0.00826339
v 0.03498135 -0.00180394 -0.00828345
v 0.03441171 -0.00231457 -0.00823665
v 0.03415279 -0.00200525 -0.00828879
v 0.03416573 -0.00112636 -0.00840510
v 0.03334149 -0.00112636 -0.00841580
v 0.03252155 -0.00112636 -0.00840911
v -0.00187249 -0.00440622 -0.00765244
v -0.00351235 -0.00276875 -0.00765378
v -0.00433229 -0.00195124 -0.00765110
v -0.00433229 -0.00112882 -0.00765378
v -0.00514790 0.00050375 -0.00762704
v -0.00522127 0.00139491 -0.00756153
v -0.00565713 0.00059213 -0.00750940
v -0.00572617 -0.00031131 -0.00619525
v -0.00565713 0.00050375 -0.00751073
v -0.00560102 -0.00007072 -0.00746528
v -0.00568733 -0.00033095 -0.00704817
v -0.00562260 -0.00094960 -0.00679818
v -0.00562260 -0.00118528 -0.00613509
v 0.00684038 0.00797181 0.00518287
v -0.00558808 -0.00112882 -0.00575408
v 0.03497272 -0.00899459 -0.00209640
v 0.03145996 -0.00976054 -0.00178491
v 0.03416142 -0.00915907 -0.00210041
v 0.03544742 -0.00893812 -0.00181967
v 0.01015895 -0.01220325 -0.00177956
v 0.00750064 -0.01222289 -0.00266056
v 0.00796240 -0.01233582 -0.00210041
v 0.00858813 -0.01220816 -0.00262847
v 0.01206206 -0.01197003 -0.00210041
v 0.01759445 -0.01139802 -0.00178357
v 0.02596209 -0.01036201 -0.00210041
v -0.00474225 -0.00317627 -0.00578750
v -0.00402158 -0.00408462 -0.00571665
v -0.00410357 -0.00414599 -0.00619525
v -0.00313259 -0.00484075 -0.00639311
v -0.00313259 -0.00484075 -0.00674872
v 0.00739707 -0.01227690 -0.00210041
v 0.03564161 -0.00836857 -0.00291858
v 0.03551215 -0.00822127 -0.00356295
v 0.03533090 -0.00806660 -0.00410973
v 0.03826972 -0.00471309 -0.00647867
v 0.03557688 -0.00573928 -0.00666984
v 0.03582718 -0.00527774 -0.00687706
v 0.03498135 -0.00522128 -0.00710031
v 0.03498135 -0.00471064 -0.00737705
v 0.03498135 -0.00221392 -0.00821660
v 0.03415279 -0.00269755 -0.00817917
v 0.03420889 -0.00516236 -0.00723935
v 0.03396291 -0.00484812 -0.00744122
v 0.03420889 -0.00447742 -0.00757624
v 0.03334149 -0.00440377 -0.00766046
v 0.00960226 -0.00932356 -0.00708293
v 0.00960226 -0.00849868 -0.00733159
v 0.03334149 -0.00358380 -0.00796393
v 0.03387229 -0.00237840 -0.00824601
v 0.03334149 -0.00194633 -0.00831954
v 0.03252155 -0.00194633 -0.00832623
v -0.00187249 -0.00510098 -0.00753881
v -0.00351235 -0.00358871 -0.00763239
v -0.00433229 -0.00276875 -0.00761635
v -0.00556219 -0.00154125 -0.00578349
v -0.00483288 -0.00276875 -0.00750138
v -0.00477246 -0.00324010 -0.00745592
v -0.00555356 -0.00149706 -0.00636904
v -0.00556219 -0.00154125 -0.00582226
v 0.03470516 -0.00894058 -0.00258970
v 0.03525322 -0.00887675 -0.00236645
v 0.03088169 -0.00979982 -0.00193196
v 0.03037246 -0.00971881 -0.00246404
v 0.03008333 -0.00963779 -0.00288649
v 0.03088169 -0.00951259 -0.00291858
v 0.03170162 -0.00937757 -0.00291858
v 0.03171888 -0.00962797 -0.00207501
v 0.00960658 -0.01216397 -0.00234639
v 0.01123781 -0.01205350 -0.00210041
v -0.00274421 -0.00501751 -0.00701876
v -0.00305060 -0.00476465 -0.00729550
v 0.00738413 -0.01149622 -0.00439181
v 0.00796240 -0.01194793 -0.00373674
v 0.00796240 -0.01214188 -0.00312044
v 0.00796240 -0.01223026 -0.00271136
v 0.00882980 -0.01214188 -0.00290788
v 0.00960658 -0.01206577 -0.00291858
v 0.01123781 -0.01188411 -0.00291858
v 0.02382163 -0.01053877 -0.00245468
v 0.02353250 -0.01063452 -0.00214854
v 0.02761058 -0.01016071 -0.00210041
v -0.00479835 -0.00328429 -0.00633429
v -0.00456532 -0.00356907 -0.00611504
v -0.00409494 -0.00412390 -0.00701342
v -0.00450922 -0.00371391 -0.00701342
v 0.03502019 -0.00843485 -0.00358701
v 0.03502882 -0.00833665 -0.00379690
v 0.03479147 -0.00816235 -0.00426748
v 0.03502882 -0.00787020 -0.00454689
v 0.03542584 -0.00731538 -0.00501345
v 0.03547763 -0.00654942 -0.00589980
v 0.03498135 -0.00666481 -0.00601210
v 0.03498135 -0.00624500 -0.00642252
v 0.03498135 -0.00583257 -0.00673668
v 0.03334149 -0.00280557 -0.00817115
v 0.03416573 -0.00590622 -0.00678749
v 0.00960226 -0.00994712 -0.00674471
v 0.00878233 -0.00995940 -0.00672866
v 0.00878233 -0.00932356 -0.00700406
v 0.03334149 -0.00240050 -0.00825002
v -0.00250254 -0.00494386 -0.00750004
v -0.00274421 -0.00446023 -0.00756153
v -0.00079794 -0.00564353 -0.00743453
v -0.00133737 -0.00561162 -0.00735165
v -0.00351235 -0.00420737 -0.00751742
v -0.00400863 -0.00405270 -0.00747196
v -0.00430208 -0.00354452 -0.00751742
v -0.00480698 -0.00330393 -0.00701342
v -0.00500549 -0.00276875 -0.00701342
v 0.03497272 -0.00876136 -0.00288649
v 0.03416142 -0.00899213 -0.00274344
v 0.03367378 -0.00889884 -0.00328622
v 0.03416142 -0.00884729 -0.00315386
v 0.02924614 -0.00967953 -0.00314050
v 0.02678202 -0.01006005 -0.00291858
v 0.02761058 -0.00995694 -0.00291858
v 0.03088169 -0.00920326 -0.00373674
v 0.03252155 -0.00900932 -0.00354423
v 0.03313435 -0.00895040 -0.00341322
v 0.03252155 -0.00923272 -0.00291858
v 0.00760421 -0.01135137 -0.00493859
v 0.00791493 -0.01157478 -0.00462175
v 0.00814796 -0.01142257 -0.00506960
v 0.00878665 -0.01163861 -0.00455491
v 0.00878665 -0.01194303 -0.00373674
v 0.02327788 -0.01057069 -0.00258436
v 0.03469653 -0.00843485 -0.00377417
v 0.03416142 -0.00858706 -0.00373674
v 0.03416142 -0.00843485 -0.00402818
v 0.03416142 -0.00824582 -0.00438512
v 0.03416142 -0.00796840 -0.00479554
v 0.03498998 -0.00750441 -0.00503484
v 0.03534816 -0.00733502 -0.00503484
v 0.03498135 -0.00742585 -0.00513645
v 0.03498135 -0.00707479 -0.00554687
v 0.03416573 -0.00755597 -0.00528083
v 0.03416573 -0.00718281 -0.00568991
v 0.03416573 -0.00677283 -0.00609632
v 0.03416573 -0.00631865 -0.00650540
v 0.03334149 -0.00638003 -0.00655487
v 0.00960226 -0.01035465 -0.00640380
v 0.00878233 -0.01037183 -0.00648535
v 0.03171025 -0.00742831 -0.00592654
v 0.00813501 -0.01072781 -0.00599606
v 0.02870671 -0.00971390 -0.00326750
v 0.02815864 -0.00975072 -0.00337044
v 0.02207388 -0.01052404 -0.00323942
v 0.03005744 -0.00932356 -0.00373674
v 0.03135207 -0.00892339 -0.00416187
v 0.03190013 -0.00887429 -0.00407764
v 0.03165847 -0.00905351 -0.00377818
v 0.03252155 -0.00881537 -0.00395331
v 0.03337601 -0.00876136 -0.00370733
v 0.00878233 -0.01077936 -0.00607627
v 0.00878233 -0.01118689 -0.00547468
v 0.00878233 -0.01142011 -0.00506559
v 0.00900242 -0.01140784 -0.00503484
v 0.02153013 -0.01055596 -0.00333969
v 0.03334149 -0.00804205 -0.00489848
v 0.03416142 -0.00776710 -0.00503484
v 0.03308256 -0.00797331 -0.00503484
v 0.03256902 -0.00782356 -0.00531960
v 0.03306961 -0.00729819 -0.00581424
v 0.03252155 -0.00735220 -0.00586504
v 0.03088169 -0.00789230 -0.00556157
v 0.03171025 -0.00783584 -0.00548403
v 0.03088169 -0.00896267 -0.00421267
v 0.03088169 -0.00823354 -0.00515249
v 0.03088169 -0.00843485 -0.00489848
v 0.03286247 -0.00808133 -0.00495062
v 0.03279343 -0.00802487 -0.00503484
v 0.03207275 -0.00814516 -0.00503618
v 0.03171025 -0.00817217 -0.00507361
v 0.03170162 -0.00820408 -0.00503484
f 1 2 3
f 1 3 4
f 1 4 5
f 1 5 6
f 1 6 7
f 1 7 8
f 1 8 9
f 1 9 10
f 1 10 11
f 1 11 2
f 2 12 15
f 2 15 3
f 2 11 13
f 2 13 14
f 2 14 12
f 3 15 16
f 3 16 17
f 3 17 18
f 3 18 19
f 3 19 4
f 4 19 5
f 5 20 21
f 5 21 6
f 5 19 22
f 5 22 20
f 6 21 23
f 6 23 24
f 6 24 7
f 7 24 25
f 7 25 26
f 7 26 8
f 8 26 27
f 8 27 9
f 9 27 10
f 10 13 11
f 10 27 28
f 10 28 29
f 10 29 30
f 10 30 13
f 12 31 32
f 12 32 15
f 12 14 33
f 12 33 31
f 13 30 34
f 13 34 35
f 13 35 14
f 14 35 33
f 15 32 16
f 16 36 37
f 16 37 17
f 16 32 38
f 16 38 36
f 17 37 18
f 18 39 19
f 18 37 40
f 18 40 41
f 18 41 39
f 19 39 22
f 20 42 21
f 20 22 43
f 20 43 44
f 20 44 42
f 21 45 23
f 21 42 45
f 22 39 41
f 22 41 46
f 22 46 47
f 22 47 48
f 22 48 44
f 22 44 43
f 23 45 49
f 23 49 50
f 23 50 24
f 24 51 52
f 24 52 25
f 24 50 51
f 25 52 53
f 25 53 54
f 25 54 26
f 26 54 55
f 26 55 56
f 26 56 57
f 26 57 27
f 27 57 28
f 28 57 29
f 29 57 58
f 29 58 59
f 29 59 60
f 29 60 61
f 29 61 30
f 30 61 34
f 31 62 38
f 31 38 32
f 31 33 63
f 31 63 62
f 33 35 63
f 34 64 35
f 34 61 65
f 34 65 64
f 35 64 63
f 36 38 66
f 36 66 40
f 36 40 37
f 38 62 67
f 38 67 68
f 38 68 66
f 40 69 70
f 40 70 71
f 40 71 72
f 40 72 41
f 40 66 69
f 41 73 74
f 41 74 48
f 41 48 75
f 41 75 46
f 41 72 73
f 42 44 76
f 42 76 49
f 42 49 45
f 44 48 74
f 44 74 77
f 44 77 78
f 44 78 79
f 44 79 76
f 46 75 47
f 47 75 48
f 49 76 79
f 49 79 80
f 49 80 50
f 50 80 51
f 51 81 52
f 51 80 82
f 51 82 83
f 51 83 81
f 52 84 85
f 52 85 86
f 52 86 53
f 52 81 84
f 53 86 87
f 53 87 54
f 54 87 55
f 55 88 56
f 55 87 89
f 55 89 88
f 56 88 90
f 56 90 91
f 56 91 57
f 57 91 92
f 57 92 58
f 58 92 59
f 59 93 60
f 59 92 94
f 59 94 95
f 59 95 96
f 59 96 97
f 59 97 93
f 60 93 97
f 60 97 61
f 61 98 65
f 61 97 99
f 61 99 98
f 62 100 67
f 62 63 64
f 62 64 101
f 62 101 100
f 64 65 102
f 64 102 101
f 65 103 104
f 65 104 102
f 65 98 99
f 65 99 105
f 65 105 103
f 66 68 106
f 66 106 107
f 66 107 69
f 67 108 68
f 67 100 109
f 67 109 110
f 67 110 108
f 68 108 111
f 68 111 112
f 68 112 106
f 69 107 113
f 69 113 70
f 70 114 115
f 70 115 116
f 70 116 71
f 70 113 114
f 71 116 117
f 71 117 118
f 71 118 119
f 71 119 72
f 72 119 120
f 72 120 121
f 72 121 73
f 73 121 74
f 74 121 122
f 74 122 123
f 74 123 77
f 77 123 78
f 78 124 79
f 78 123 125
f 78 125 126
f 78 126 124
f 79 124 127
f 79 127 80
f 80 128 129
f 80 129 130
f 80 130 82
f 80 127 128
f 81 131 84
f 81 83 130
f 81 130 132
f 81 132 131
f 82 130 83
f 84 131 133
f 84 133 134
f 84 134 135
f 84 135 85
f 85 135 136
f 85 136 86
f 86 136 137
f 86 137 138
f 86 138 139
f 86 139 87
f 87 139 138
f 87 138 140
f 87 140 141
f 87 141 89
f 88 142 90
f 88 89 143
f 88 143 144
f 88 144 142
f 89 141 143
f 90 142 91
f 91 142 144
f 91 144 94
f 91 94 92
f 94 144 143
f 94 143 145
f 94 145 146
f 94 146 147
f 94 147 148
f 94 148 149
f 94 149 95
f 95 149 150
f 95 150 151
f 95 151 152
f 95 152 96
f 96 152 97
f 97 152 153
f 97 153 99
f 99 153 154
f 99 154 155
f 99 155 105
f 100 101 102
f 100 102 156
f 100 156 157
f 100 157 158
f 100 158 109
f 102 104 157
f 102 157 156
f 103 105 155
f 103 155 159
f 103 159 160
f 103 160 161
f 103 161 104
f 104 161 157
f 106 112 162
f 106 162 107
f 107 162 113
f 108 110 163
f 108 163 164
f 108 164 165
f 108 165 111
f 109 158 166
f 109 166 167
f 109 167 168
f 109 168 110
f 110 168 169
f 110 169 163
f 111 165 170
f 111 170 112
f 112 171 162
f 112 170 171
f 113 162 172
f 113 172 114
f 114 172 115
f 115 173 116
f 115 172 174
f 115 174 175
f 115 175 173
f 116 173 175
f 116 175 117
f 117 175 118
f 118 175 119
f 119 176 120
f 119 175 176
f 120 176 177
f 120 177 121
f 121 177 122
f 122 177 175
f 122 175 178
f 122 178 123
f 123 178 125
f 124 179 180
f 124 180 181
f 124 181 182
f 124 182 127
f 124 126 183
f 124 183 184
f 124 184 179
f 125 178 126
f 126 178 185
f 126 185 186
f 126 186 184
f 126 184 183
f 127 182 181
f 127 181 187
f 127 187 188
f 127 188 132
f 127 132 128
f 128 132 129
f 129 132 130
f 131 132 133
f 132 188 181
f 132 181 189
f 132 189 133
f 133 190 191
f 133 191 134
f 133 189 190
f 134 191 135
f 135 191 192
f 135 192 136
f 136 192 193
f 136 193 137
f 137 193 138
f 138 193 194
f 138 194 140
f 140 194 141
f 141 145 143
f 141 194 195
f 141 195 196
f 141 196 145
f 145 196 146
f 146 196 147
f 147 196 148
f 148 150 149
f 148 196 150
f 150 196 151
f 151 196 152
f 152 196 197
f 152 197 153
f 153 198 199
f 153 199 200
f 153 200 201
f 153 201 202
f 153 202 154
f 153 197 203
f 153 203 204
f 153 204 205
f 153 205 206
f 153 206 198
f 154 202 207
f 154 207 155
f 155 207 208
f 155 208 159
f 157 161 207
f 157 207 158
f 158 207 209
f 158 209 210
f 158 210 166
f 159 208 161
f 159 161 160
f 161 208 207
f 162 171 172
f 163 169 164
f 164 169 211
f 164 211 212
f 164 212 213
f 164 213 165
f 165 213 170
f 166 210 214
f 166 214 215
f 166 215 216
f 166 216 167
f 167 216 168
f 168 216 215
f 168 215 217
f 168 217 218
f 168 218 219
f 168 219 220
f 168 220 221
f 168 221 222
f 168 222 169
f 169 222 211
f 170 223 171
f 170 213 223
f 171 223 224
f 171 224 225
f 171 225 174
f 171 174 172
f 174 225 175
f 175 226 227
f 175 227 228
f 175 228 185
f 175 185 178
f 175 177 176
f 175 225 226
f 179 229 230
f 179 230 180
f 179 184 229
f 180 230 231
f 180 231 232
f 180 232 233
f 180 233 181
f 181 234 235
f 181 235 236
f 181 236 237
f 181 237 238
f 181 238 189
f 181 188 187
f 181 233 239
f 181 239 234
f 184 186 240
f 184 240 229
f 185 228 227
f 185 227 277
f 185 277 331
f 185 331 394
f 185 394 446
f 185 446 395
f 185 395 342
f 185 342 288
f 185 288 241
f 185 241 186
f 186 241 242
f 186 242 243
f 186 243 240
f 189 238 244
f 189 244 245
f 189 245 190
f 190 246 247
f 190 247 191
f 190 245 246
f 191 247 248
f 191 248 249
f 191 249 250
f 191 250 193
f 191 193 192
f 193 250 251
f 193 251 194
f 194 251 195
f 195 252 253
f 195 253 254
f 195 254 196
f 195 251 250
f 195 250 255
f 195 255 256
f 195 256 252
f 196 254 257
f 196 257 258
f 196 258 259
f 196 259 203
f 196 203 197
f 198 206 199
f 199 206 260
f 199 260 261
f 199 261 262
f 199 262 263
f 199 263 201
f 199 201 200
f 201 263 264
f 201 264 265
f 201 265 209
f 201 209 202
f 202 209 207
f 203 259 205
f 203 205 204
f 205 266 206
f 205 259 266
f 206 266 267
f 206 267 268
f 206 268 269
f 206 269 260
f 209 265 210
f 210 265 264
f 210 264 263
f 210 263 262
f 210 262 261
f 210 261 269
f 210 269 325
f 210 325 373
f 210 373 424
f 210 424 385
f 210 385 328
f 210 328 275
f 210 275 274
f 210 274 272
f 210 272 271
f 210 271 273
f 210 273 270
f 210 270 212
f 210 212 211
f 210 211 222
f 210 222 221
f 210 221 220
f 210 220 219
f 210 219 218
f 210 218 217
f 210 217 215
f 210 215 214
f 212 270 223
f 212 223 213
f 223 270 224
f 224 271 272
f 224 272 225
f 224 270 273
f 224 273 271
f 225 272 274
f 225 274 275
f 225 275 226
f 226 276 277
f 226 277 227
f 226 275 276
f 229 231 230
f 229 240 231
f 231 278 279
f 231 279 239
f 231 239 280
f 231 280 232
f 231 240 278
f 232 280 233
f 233 280 239
f 234 239 281
f 234 281 282
f 234 282 236
f 234 236 235
f 236 283 237
f 236 282 284
f 236 284 283
f 237 283 285
f 237 285 238
f 238 285 244
f 239 279 281
f 240 243 286
f 240 286 287
f 240 287 278
f 241 288 289
f 241 289 290
f 241 290 291
f 241 291 292
f 241 292 293
f 241 293 294
f 241 294 242
f 242 294 295
f 242 295 296
f 242 296 243
f 243 296 297
f 243 297 298
f 243 298 286
f 244 285 299
f 244 299 245
f 245 299 300
f 245 300 246
f 246 301 302
f 246 302 303
f 246 303 248
f 246 248 247
f 246 300 301
f 248 303 304
f 248 304 305
f 248 305 250
f 248 250 249
f 250 305 306
f 250 306 307
f 250 307 255
f 252 308 253
f 252 256 309
f 252 309 308
f 253 310 311
f 253 311 254
f 253 308 312
f 253 312 310
f 254 311 313
f 254 313 257
f 255 307 306
f 255 306 302
f 255 302 256
f 256 302 314
f 256 314 315
f 256 315 316
f 256 316 309
f 257 313 317
f 257 317 318
f 257 318 319
f 257 319 259
f 257 259 258
f 259 319 318
f 259 318 320
f 259 320 266
f 260 269 261
f 266 320 321
f 266 321 322
f 266 322 267
f 267 322 268
f 268 322 323
f 268 323 324
f 268 324 325
f 268 325 269
f 275 326 327
f 275 327 276
f 275 328 378
f 275 378 326
f 276 327 277
f 277 327 326
f 277 326 329
f 277 329 330
f 277 330 331
f 278 287 332
f 278 332 279
f 279 332 281
f 281 333 282
f 281 332 333
f 282 333 334
f 282 334 335
f 282 335 284
f 283 284 285
f 284 336 285
f 284 335 337
f 284 337 338
f 284 338 336
f 285 336 299
f 286 339 340
f 286 340 341
f 286 341 287
f 286 298 339
f 287 341 332
f 288 342 343
f 288 343 289
f 289 343 344
f 289 344 290
f 290 344 345
f 290 345 346
f 290 346 291
f 291 347 292
f 291 346 347
f 292 348 349
f 292 349 293
f 292 347 348
f 293 349 350
f 293 350 294
f 294 350 295
f 295 350 351
f 295 351 352
f 295 352 297
f 295 297 296
f 297 353 354
f 297 354 298
f 297 352 312
f 297 312 308
f 297 308 355
f 297 355 356
f 297 356 353
f 298 354 339
f 299 336 300
f 300 336 338
f 300 338 301
f 301 338 302
f 302 306 304
f 302 304 303
f 302 338 337
f 302 337 357
f 302 357 314
f 304 306 305
f 308 309 355
f 309 316 356
f 309 356 355
f 310 312 352
f 310 352 358
f 310 358 359
f 310 359 360
f 310 360 311
f 311 360 361
f 311 361 313
f 313 361 317
f 314 357 362
f 314 362 341
f 314 341 340
f 314 340 315
f 315 340 316
f 316 340 339
f 316 339 363
f 316 363 356
f 317 364 365
f 317 365 366
f 317 366 318
f 317 361 364
f 318 366 320
f 320 367 321
f 320 366 367
f 321 367 366
f 321 366 368
f 321 368 322
f 322 368 369
f 322 369 323
f 323 369 370
f 323 370 324
f 324 370 371
f 324 371 372
f 324 372 325
f 325 372 374
f 325 374 373
f 326 375 376
f 326 376 377
f 326 377 329
f 326 378 379
f 326 379 380
f 326 380 381
f 326 381 382
f 326 382 383
f 326 383 384
f 326 384 375
f 328 385 386
f 328 386 387
f 328 387 388
f 328 388 389
f 328 389 390
f 328 390 391
f 328 391 379
f 328 379 378
f 329 377 330
f 330 377 392
f 330 392 393
f 330 393 331
f 331 393 392
f 331 392 377
f 331 377 394
f 332 341 333
f 333 341 362
f 333 362 334
f 334 362 335
f 335 362 357
f 335 357 337
f 339 354 363
f 342 395 343
f 343 395 396
f 343 396 397
f 343 397 344
f 344 397 345
f 345 397 346
f 346 398 347
f 346 397 399
f 346 399 400
f 346 400 401
f 346 401 402
f 346 402 398
f 347 398 348
f 348 398 403
f 348 403 349
f 349 403 404
f 349 404 350
f 350 404 351
f 351 405 406
f 351 406 407
f 351 407 408
f 351 408 352
f 351 404 405
f 352 408 409
f 352 409 410
f 352 410 411
f 352 411 412
f 352 412 413
f 352 413 414
f 352 414 358
f 353 363 354
f 353 356 363
f 358 414 415
f 358 415 359
f 359 415 360
f 360 415 416
f 360 416 361
f 361 416 364
f 364 416 365
f 365 417 369
f 365 369 368
f 365 368 366
f 365 416 415
f 365 415 417
f 369 418 371
f 369 371 370
f 369 417 419
f 369 419 420
f 369 420 421
f 369 421 422
f 369 422 423
f 369 423 418
f 371 418 374
f 371 374 372
f 373 374 424
f 374 418 425
f 374 425 424
f 375 426 376
f 375 384 427
f 375 427 428
f 375 428 426
f 376 426 429
f 376 429 377
f 377 429 394
f 379 430 380
f 379 391 431
f 379 431 432
f 379 432 433
f 379 433 430
f 380 430 381
f 381 430 434
f 381 434 435
f 381 435 382
f 382 435 383
f 383 436 427
f 383 427 384
f 383 435 436
f 385 424 437
f 385 437 386
f 386 437 438
f 386 438 387
f 387 438 388
f 388 438 439
f 388 439 389
f 389 439 440
f 389 440 441
f 389 441 442
f 389 442 390
f 390 442 391
f 391 442 431
f 394 443 444
f 394 444 445
f 394 445 446
f 394 429 443
f 395 446 447
f 395 447 448
f 395 448 396
f 396 399 397
f 396 448 447
f 396 447 449
f 396 449 450
f 396 450 399
f 398 451 403
f 398 402 452
f 398 452 451
f 399 450 400
f 400 450 401
f 401 449 453
f 401 453 454
f 401 454 455
f 401 455 402
f 401 450 449
f 402 456 457
f 402 457 458
f 402 458 459
f 402 459 452
f 402 455 456
f 403 451 404
f 404 451 405
f 405 451 406
f 406 451 452
f 406 452 460
f 406 460 407
f 407 460 461
f 407 461 408
f 408 461 409
f 409 461 462
f 409 462 410
f 410 462 411
f 411 458 463
f 411 463 464
f 411 464 412
f 411 462 458
f 412 464 413
f 413 464 465
f 413 465 415
f 413 415 414
f 415 465 419
f 415 419 417
f 418 423 466
f 418 466 425
f 419 465 467
f 419 467 420
f 420 422 421
f 420 467 468
f 420 468 422
f 422 468 469
f 422 469 423
f 423 469 470
f 423 470 466
f 424 425 466
f 424 466 437
f 426 428 471
f 426 471 472
f 426 472 429
f 427 436 473
f 427 473 474
f 427 474 475
f 427 475 476
f 427 476 477
f 427 477 478
f 427 478 471
f 427 471 428
f 429 472 444
f 429 444 443
f 430 433 479
f 430 479 480
f 430 480 434
f 431 442 441
f 431 441 481
f 431 481 482
f 431 482 483
f 431 483 484
f 431 484 485
f 431 485 486
f 431 486 432
f 432 486 433
f 433 487 479
f 433 486 487
f 434 480 488
f 434 488 489
f 434 489 490
f 434 490 435
f 435 490 491
f 435 491 436
f 436 490 492
f 436 492 473
f 436 491 490
f 437 466 493
f 437 493 494
f 437 494 438
f 438 494 439
f 439 495 441
f 439 441 440
f 439 494 496
f 439 496 495
f 441 482 481
f 441 495 482
f 444 472 445
f 445 472 497
f 445 497 498
f 445 498 499
f 445 499 500
f 445 500 501
f 445 501 446
f 446 501 502
f 446 502 503
f 446 503 447
f 447 503 504
f 447 504 505
f 447 505 449
f 449 505 453
f 452 459 458
f 452 458 506
f 452 506 460
f 453 505 507
f 453 507 508
f 453 508 454
f 454 456 455
f 454 508 457
f 454 457 456
f 457 508 509
f 457 509 510
f 457 510 463
f 457 463 458
f 458 462 511
f 458 511 506
f 460 506 511
f 460 511 461
f 461 511 462
f 463 512 513
f 463 513 464
f 463 510 514
f 463 514 515
f 463 515 512
f 464 516 517
f 464 517 518
f 464 518 465
f 464 513 516
f 465 468 467
f 465 518 468
f 466 470 519
f 466 519 493
f 468 519 520
f 468 520 469
f 468 518 517
f 468 517 496
f 468 496 519
f 469 520 519
f 469 519 470
f 471 521 472
f 471 478 522
f 471 522 523
f 471 523 524
f 471 524 521
f 472 521 497
f 473 525 474
f 473 492 526
f 473 526 527
f 473 527 525
f 474 525 475
f 475 525 476
f 476 525 528
f 476 528 529
f 476 529 477
f 477 529 530
f 477 530 531
f 477 531 478
f 478 531 522
f 479 487 480
f 480 487 488
f 482 495 517
f 482 517 512
f 482 512 515
f 482 515 532
f 482 532 483
f 483 532 484
f 484 532 533
f 484 533 534
f 484 534 535
f 484 535 536
f 484 536 485
f 485 536 487
f 485 487 486
f 487 536 488
f 488 536 489
f 489 537 490
f 489 536 537
f 490 526 492
f 490 537 526
f 493 519 496
f 493 496 494
f 495 496 517
f 497 521 538
f 497 538 498
f 498 538 499
f 499 538 539
f 499 539 540
f 499 540 541
f 499 541 542
f 499 542 500
f 500 543 501
f 500 542 543
f 501 543 544
f 501 544 502
f 502 544 545
f 502 545 546
f 502 546 503
f 503 546 547
f 503 547 548
f 503 548 549
f 503 549 504
f 504 549 550
f 504 550 505
f 505 550 507
f 507 550 551
f 507 551 508
f 508 552 553
f 508 553 509
f 508 551 550
f 508 550 554
f 508 554 552
f 509 553 515
f 509 515 514
f 509 514 510
f 512 517 516
f 512 516 513
f 515 553 555
f 515 555 532
f 521 524 539
f 521 539 538
f 522 531 523
f 523 530 539
f 523 539 524
f 523 531 530
f 525 527 556
f 525 556 528
f 526 557 527
f 526 537 558
f 526 558 557
f 527 557 556
f 528 556 559
f 528 559 560
f 528 560 561
f 528 561 562
f 528 562 529
f 529 562 561
f 529 561 563
f 529 563 530
f 530 564 539
f 530 563 564
f 532 555 534
f 532 534 533
f 534 555 565
f 534 565 566
f 534 566 567
f 534 567 535
f 535 567 568
f 535 568 557
f 535 557 536
f 536 557 569
f 536 569 558
f 536 558 537
f 539 564 563
f 539 563 540
f 540 563 541
f 541 563 561
f 541 561 560
f 541 560 542
f 542 560 570
f 542 570 571
f 542 571 545
f 542 545 543
f 543 545 544
f 545 571 547
f 545 547 546
f 547 571 570
f 547 570 572
f 547 572 573
f 547 573 574
f 547 574 548
f 548 574 549
f 549 574 575
f 549 575 550
f 550 575 554
f 552 565 553
f 552 554 576
f 552 576 565
f 553 565 555
f 554 575 577
f 554 577 576
f 556 557 559
f 557 558 569
f 557 568 559
f 559 568 578
f 559 578 560
f 560 578 570
f 565 576 577
f 565 577 579
f 565 579 580
f 565 580 578
f 565 578 566
f 566 578 567
f 567 578 568
f 570 581 582
f 570 582 572
f 570 578 581
f 572 582 573
f 573 582 577
f 573 577 574
f 574 577 575
f 577 582 583
f 577 583 584
f 577 584 579
f 578 580 585
f 578 585 583
f 578 583 581
f 579 584 580
f 580 584 585
f 581 583 582
f 583 585 584

