# https://github.com/mikedh/trimesh
v 0.02434214 0.01268293 -0.00046063
v 0.02434214 0.01256959 -0.00128029
v 0.02352128 0.01257698 -0.00128029
v 0.02352128 0.01265336 -0.00046063
v 0.02308473 0.01262380 -0.00002282
v 0.02352128 0.01263858 -0.00002282
v 0.02390559 0.01265090 -0.00002282
v 0.02434214 0.01265829 -0.00002282
v 0.02515927 0.01262626 -0.00002282
v 0.02515927 0.01264597 -0.00046063
v 0.02434214 0.01242915 -0.00185405
v 0.02352128 0.01245379 -0.00193454
v 0.02515927 0.01251785 -0.00128029
v 0.02270415 0.01244639 -0.00193650
v 0.02270415 0.01254249 -0.00128029
v 0.02270415 0.01260901 -0.00046063
v 0.02226760 0.01257698 -0.00002282
v 0.02600625 0.01249074 -0.00002282
v 0.02575626 0.01243407 -0.00128029
v 0.02603983 0.01248089 -0.00048468
v 0.02434214 0.01231827 -0.00226388
v 0.02515927 0.01240204 -0.00175196
v 0.02352128 0.01233798 -0.00234437
v 0.02270415 0.01234291 -0.00234633
v 0.02558090 0.01238726 -0.00169650
v 0.02188329 0.01232073 -0.00222412
v 0.02188329 0.01241190 -0.00181478
v 0.02142808 0.01238972 -0.00171073
v 0.02188329 0.01247350 -0.00128029
v 0.02188329 0.01254741 -0.00046063
v 0.02188329 0.01254741 -0.00002282
v 0.02628609 0.01243654 -0.00002282
v 0.02616669 0.01235523 -0.00128029
v 0.02679726 0.01211869 -0.00209945
v 0.02646146 0.01240204 -0.00002282
v 0.02645026 0.01240204 -0.00022798
v 0.02635325 0.01237740 -0.00077426
v 0.02515927 0.01229117 -0.00216179
v 0.02597640 0.01199057 -0.00291862
v 0.02352128 0.01210884 -0.00291862
v 0.02434214 0.01207434 -0.00291862
v 0.02270415 0.01211130 -0.00291862
v 0.02188329 0.01207680 -0.00291862
v 0.02590551 0.01226899 -0.00202142
v 0.02106616 0.01200781 -0.00291862
v 0.00713763 0.01083006 -0.00276205
v 0.00713763 0.01096311 -0.00209945
v 0.02088333 0.01236508 -0.00145502
v 0.00713763 0.01105427 -0.00128029
v 0.02061842 0.01238972 -0.00090874
v 0.02106616 0.01247103 -0.00046063
v 0.02144674 0.01250799 -0.00002282
v 0.02742783 0.01171954 -0.00291862
v 0.02679726 0.01191911 -0.00291862
v 0.02679726 0.01221725 -0.00128029
v 0.02765917 0.01176142 -0.00204252
v 0.02660324 0.01237248 -0.00002282
v 0.02683084 0.01231088 -0.00002282
v 0.02675249 0.01230102 -0.00048468
v 0.02679726 0.01167272 -0.00350122
v 0.02597640 0.01170229 -0.00357435
v 0.02515927 0.01171707 -0.00365043
v 0.02434214 0.01173432 -0.00371178
v 0.02352128 0.01174664 -0.00372208
v 0.02434214 0.01155445 -0.00412161
v 0.02352128 0.01155938 -0.00413191
v 0.02270415 0.01174417 -0.00369264
v 0.02188329 0.01172939 -0.00364208
v 0.02106616 0.01170475 -0.00358122
v 0.00795476 0.01055163 -0.00373779
v 0.00795476 0.01072657 -0.00326710
v 0.00713763 0.01067237 -0.00317188
v 0.00665631 0.01079063 -0.00264475
v 0.00658541 0.01083498 -0.00209945
v 0.01230533 0.01158156 -0.00098923
v 0.00713763 0.01112080 -0.00046063
v 0.02106616 0.01247103 -0.00002282
v 0.02729351 0.01162344 -0.00341680
v 0.02803602 0.01157663 -0.00173085
v 0.02796513 0.01148793 -0.00227713
v 0.04219961 -0.00040792 -0.00503697
v 0.02723008 0.01214333 -0.00002282
v 0.02761439 0.01186983 -0.00128029
v 0.02679726 0.01139183 -0.00391056
v 0.02639056 0.01074875 -0.00496777
v 0.02597640 0.01146329 -0.00398418
v 0.02515927 0.01151749 -0.00406025
v 0.02434214 0.01119965 -0.00455696
v 0.02352128 0.01119718 -0.00455696
v 0.02270415 0.01154213 -0.00410197
v 0.02188329 0.01151010 -0.00405142
v 0.00795476 0.01016233 -0.00453438
v 0.01041362 0.01066251 -0.00393608
v 0.00713763 0.01041612 -0.00373779
v 0.00713763 0.01008102 -0.00439352
v 0.00668616 0.00998493 -0.00423057
v 0.00660407 0.01012045 -0.00373779
v 0.00648840 0.01037423 -0.00291813
v 0.00616379 0.01027321 -0.00204497
v 0.00583171 0.01005146 -0.00128029
v 0.00611529 0.01046047 -0.00128029
v 0.00607051 0.01055163 -0.00046063
v 0.00652572 0.01088180 -0.00128029
v 0.00648094 0.01091629 -0.00046063
v 0.00678317 0.01100992 -0.00002282
v 0.00713763 0.01111587 -0.00002282
v 0.02735321 0.01087687 -0.00432235
v 0.02693532 0.01066251 -0.00486863
v 0.02806587 0.01159880 -0.00128029
v 0.04219961 -0.00040792 -0.00002282
v 0.04365477 -0.00474936 -0.00002282
v 0.04374059 -0.00500560 -0.00002282
v 0.04362866 -0.00476660 -0.00209945
v 0.04361373 -0.00478878 -0.00273015
v 0.04225931 -0.00070851 -0.00503697
v 0.02724127 0.01029785 -0.00503697
v 0.02809572 0.01162837 -0.00046063
v 0.02761439 0.01193882 -0.00046063
v 0.02761439 0.01194868 -0.00002282
v 0.02597640 0.01075860 -0.00497955
v 0.02682338 0.01050975 -0.00503697
v 0.02649131 0.01063048 -0.00503697
v 0.02597640 0.01068961 -0.00503697
v 0.02515927 0.01078078 -0.00499869
v 0.02434214 0.01080295 -0.00501391
v 0.02352128 0.01079556 -0.00500851
v 0.02270415 0.01115037 -0.00455696
v 0.00840251 0.00992580 -0.00496384
v 0.00795476 0.00991101 -0.00494372
v 0.00794730 0.00982477 -0.00503697
v 0.00720852 0.00946011 -0.00503697
v 0.00711524 0.00927778 -0.00503697
v 0.00688018 0.00871847 -0.00503697
v 0.00676078 0.00869876 -0.00487108
v 0.00665258 0.00951925 -0.00434689
v 0.00645109 0.00951925 -0.00373779
v 0.00589515 0.00995783 -0.00173576
v 0.00577202 0.00951925 -0.00128029
v 0.00568993 0.00951925 -0.00046063
v 0.00577202 0.01014262 -0.00046063
v 0.00607051 0.01054671 -0.00002282
v 0.00629065 0.01074382 -0.00002282
v 0.00648094 0.01091383 -0.00002282
v 0.02808079 0.01161851 -0.00002282
v 0.04380775 -0.00522736 -0.00002282
v 0.04378536 -0.00522736 -0.00046063
v 0.04373313 -0.00522736 -0.00128029
v 0.04361373 -0.00499575 -0.00273015
v 0.04352791 -0.00525200 -0.00296918
v 0.04288988 -0.00440933 -0.00435425
v 0.04234139 -0.00112985 -0.00503697
v 0.02783827 0.01180331 -0.00002282
v 0.02515927 0.01073643 -0.00503697
v 0.02434214 0.01077585 -0.00503697
v 0.02352128 0.01076353 -0.00503697
v 0.02439438 0.01077339 -0.00503697
v 0.00846967 0.00986666 -0.00503697
v 0.00815252 0.00984202 -0.00503697
v 0.00686152 0.00843019 -0.00503697
v 0.00663765 -0.01071452 -0.00435916
v 0.00663019 0.00869876 -0.00446125
v 0.00599216 0.00951925 -0.00221234
v 0.00587649 0.00951925 -0.00180300
v 0.00622722 -0.01096338 -0.00046063
v 0.00587649 0.00906096 -0.00179466
v 0.00618618 -0.01096338 -0.00002282
v 0.00570485 0.00951925 -0.00002282
v 0.00574590 0.00984695 -0.00002282
v 0.00578321 0.01013769 -0.00002282
v 0.04371820 -0.00609959 -0.00002282
v 0.04370328 -0.00611437 -0.00043265
v 0.04368835 -0.00590740 -0.00128029
v 0.04364358 -0.00574725 -0.00191442
v 0.04358015 -0.00554274 -0.00246069
v 0.04295704 -0.00583841 -0.00358907
v 0.04309883 -0.00529388 -0.00381239
v 0.04286749 -0.00506720 -0.00427327
v 0.04263989 -0.00440933 -0.00476408
v 0.04248691 -0.00404467 -0.00503697
v 0.00705555 -0.01014289 -0.00503697
v 0.00660780 -0.01097816 -0.00366859
v 0.00651079 -0.01096338 -0.00291862
v 0.00641005 -0.01096338 -0.00209945
v 0.00631677 -0.01096338 -0.00128029
v 0.00723837 -0.01087961 -0.00503697
v 0.00707047 -0.01103483 -0.00464972
v 0.00683541 -0.01125905 -0.00389534
v 0.00671974 -0.01137978 -0.00334907
v 0.00643617 -0.01174691 -0.00046063
v 0.00628319 -0.01132804 -0.00002282
v 0.04359881 -0.00645439 -0.00002282
v 0.04359881 -0.00646179 -0.00002773
v 0.04359881 -0.00646179 -0.00014062
v 0.04357642 -0.00643468 -0.00068689
v 0.04346821 -0.00631641 -0.00128029
v 0.04304286 -0.00608480 -0.00284107
v 0.04260631 -0.00638540 -0.00306243
v 0.04240482 -0.00606756 -0.00376233
v 0.04275182 -0.00561173 -0.00413535
v 0.04229289 -0.00475182 -0.00503697
v 0.04244587 -0.00439209 -0.00503697
v 0.00659288 -0.01155226 -0.00209945
v 0.00651452 -0.01167546 -0.00128029
v 0.00749209 -0.01115803 -0.00503697
v 0.00759284 -0.01135761 -0.00494028
v 0.00738016 -0.01149805 -0.00439401
v 0.00711898 -0.01159415 -0.00366859
v 0.00697719 -0.01196373 -0.00209945
v 0.00684287 -0.01208447 -0.00128029
v 0.00748463 -0.01222737 -0.00265947
v 0.00640259 -0.01174445 -0.00002282
v 0.00677571 -0.01215592 -0.00046063
v 0.04359134 -0.00646179 -0.00002282
v 0.04236378 -0.00703834 -0.00002282
v 0.04325553 -0.00662194 -0.00043265
v 0.04306151 -0.00660223 -0.00128029
v 0.04277794 -0.00645932 -0.00251665
v 0.04206156 -0.00650121 -0.00338980
v 0.04113995 -0.00727734 -0.00251419
v 0.04220707 -0.00574971 -0.00427719
v 0.04154665 -0.00534316 -0.00503697
v 0.04214737 -0.00500560 -0.00503697
v 0.00764881 -0.01129355 -0.00503697
v 0.00799954 -0.01140689 -0.00503697
v 0.00812267 -0.01143645 -0.00503697
v 0.00790252 -0.01157690 -0.00462322
v 0.00795476 -0.01195388 -0.00373779
v 0.00725330 -0.01234564 -0.00128029
v 0.00738389 -0.01228158 -0.00209945
v 0.00795476 -0.01214607 -0.00312035
v 0.00795476 -0.01223230 -0.00271052
v 0.00795476 -0.01234072 -0.00209945
v 0.00795476 -0.01245898 -0.00128029
v 0.00679063 -0.01215346 -0.00002282
v 0.00718614 -0.01235550 -0.00046063
v 0.00698092 -0.01224709 -0.00002282
v 0.04236378 -0.00703588 -0.00046063
v 0.04166978 -0.00734634 -0.00002282
v 0.04236378 -0.00693486 -0.00128029
v 0.04163993 -0.00712458 -0.00209945
v 0.04236378 -0.00676731 -0.00209945
v 0.04072579 -0.00736605 -0.00264917
v 0.04072579 -0.00711719 -0.00305900
v 0.03479693 -0.00816682 -0.00426934
v 0.04154665 -0.00658498 -0.00350465
v 0.04154665 -0.00628192 -0.00391399
v 0.04122950 -0.00731677 -0.00209945
v 0.04072579 -0.00751881 -0.00209945
v 0.04154665 -0.00587291 -0.00443327
v 0.04108771 -0.00561912 -0.00494519
v 0.04154665 -0.00552303 -0.00484310
v 0.04131159 -0.00544172 -0.00503697
v 0.00818236 -0.01143892 -0.00503697
v 0.00877562 -0.01164096 -0.00455696
v 0.00877562 -0.01194649 -0.00373779
v 0.00795476 -0.01248855 -0.00046063
v 0.00882040 -0.01214607 -0.00290733
v 0.00857787 -0.01221013 -0.00262708
v 0.00882040 -0.01226187 -0.00216130
v 0.00959275 -0.01222984 -0.00193601
v 0.01015243 -0.01220520 -0.00177797
v 0.00877562 -0.01238260 -0.00128029
v 0.00959275 -0.01235304 -0.00046063
v 0.00720106 -0.01234072 -0.00002282
v 0.04147949 -0.00742518 -0.00002282
v 0.04186380 -0.00724039 -0.00046063
v 0.04136756 -0.00737097 -0.00128029
v 0.04177425 -0.00719850 -0.00128029
v 0.03525960 -0.00887890 -0.00236548
v 0.03471485 -0.00894296 -0.00258978
v 0.03498722 -0.00876556 -0.00288525
v 0.03503946 -0.00833683 -0.00379718
v 0.03417009 -0.00859062 -0.00373779
v 0.03417009 -0.00824567 -0.00438714
v 0.03417009 -0.00796971 -0.00479697
v 0.04011761 -0.00588030 -0.00503697
v 0.04055416 -0.00573985 -0.00503697
v 0.04072579 -0.00761490 -0.00128029
v 0.03559914 -0.00899470 -0.00128029
v 0.03499095 -0.00915732 -0.00128029
v 0.03545735 -0.00894050 -0.00181920
v 0.04103921 -0.00555260 -0.00503697
v 0.00877562 -0.01143645 -0.00503697
v 0.00899576 -0.01140935 -0.00503697
v 0.02817034 -0.00975359 -0.00336919
v 0.01123448 -0.01188735 -0.00291862
v 0.01041362 -0.01197852 -0.00291862
v 0.00959275 -0.01206722 -0.00291862
v 0.02153256 -0.01055930 -0.00333974
v 0.02207731 -0.01052727 -0.00323814
v 0.02328995 -0.01057408 -0.00258389
v 0.01003303 -0.01231361 -0.00002282
v 0.00921217 -0.01237521 -0.00002282
v 0.00839504 -0.01243435 -0.00002282
v 0.00795476 -0.01245898 -0.00002282
v 0.00912262 -0.01218795 -0.00247591
v 0.01123448 -0.01205736 -0.00209945
v 0.01042108 -0.01213621 -0.00207050
v 0.01069719 -0.01218056 -0.00150704
v 0.00959275 -0.01230376 -0.00128029
v 0.01041362 -0.01227665 -0.00046063
v 0.01176431 -0.01215592 -0.00002282
v 0.01080539 -0.01224462 -0.00002282
v 0.04145710 -0.00740547 -0.00046063
v 0.04072579 -0.00770360 -0.00002282
v 0.03498722 -0.00899717 -0.00209504
v 0.03417009 -0.00884933 -0.00315225
v 0.03417009 -0.00916225 -0.00209945
v 0.03201346 -0.00971663 -0.00152128
v 0.03146871 -0.00976098 -0.00178435
v 0.03172990 -0.00963040 -0.00207442
v 0.03253210 -0.00923370 -0.00291862
v 0.03339027 -0.00905876 -0.00297458
v 0.03368877 -0.00889861 -0.00328526
v 0.03314028 -0.00895282 -0.00341434
v 0.03339027 -0.00876309 -0.00370736
v 0.03253210 -0.00881730 -0.00395473
v 0.03191272 -0.00887890 -0.00407694
v 0.03136797 -0.00892571 -0.00416234
v 0.03335296 -0.00804363 -0.00489955
v 0.03417009 -0.00776767 -0.00503697
v 0.03499842 -0.00750649 -0.00503697
v 0.03499095 -0.00922631 -0.00046063
v 0.03417009 -0.00939386 -0.00046063
v 0.03218137 -0.00974620 -0.00097500
v 0.03417009 -0.00931994 -0.00128029
v 0.03089411 -0.00832944 -0.00503697
v 0.03089411 -0.00864975 -0.00462175
v 0.03089411 -0.00896514 -0.00421241
v 0.03007325 -0.00932487 -0.00373779
v 0.02761439 -0.00979055 -0.00343987
v 0.02871509 -0.00971663 -0.00326710
v 0.02679726 -0.01006405 -0.00291862
v 0.01205161 -0.01197359 -0.00209945
v 0.02383470 -0.01054205 -0.00245333
v 0.01118224 -0.01214853 -0.00125231
v 0.01042108 -0.01222491 -0.00125231
v 0.01813718 -0.01136500 -0.00159637
v 0.01614845 -0.01161139 -0.00128029
v 0.01287247 -0.01196620 -0.00128029
v 0.01205161 -0.01205490 -0.00128029
v 0.01143223 -0.01217070 -0.00046063
v 0.01205161 -0.01212635 -0.00002282
v 0.03499095 -0.00920414 -0.00002282
v 0.03172990 -0.00979055 -0.00126115
v 0.03089411 -0.00991128 -0.00128029
v 0.03248733 -0.00965504 -0.00126115
v 0.03007325 -0.01001230 -0.00128029
v 0.02485705 -0.01056669 -0.00175147
v 0.02679726 -0.01026609 -0.00209945
v 0.03089411 -0.00980041 -0.00193111
v 0.03038667 -0.00972156 -0.00246364
v 0.03089411 -0.00968460 -0.00234094
v 0.03089411 -0.00951459 -0.00291862
v 0.03171124 -0.00937908 -0.00291862
v 0.03253210 -0.00901195 -0.00354490
v 0.03167019 -0.00905630 -0.00377755
v 0.03089411 -0.00920414 -0.00373779
v 0.03287537 -0.00808551 -0.00495255
v 0.03309924 -0.00797464 -0.00503697
v 0.03417009 -0.00937908 -0.00002282
v 0.03335296 -0.00954909 -0.00002282
v 0.03335296 -0.00955648 -0.00046063
v 0.03171124 -0.00985708 -0.00046063
v 0.03267762 -0.00968460 -0.00046063
v 0.03226719 -0.00976098 -0.00046063
v 0.03171124 -0.00820625 -0.00503697
v 0.03207690 -0.00814958 -0.00503697
v 0.02925612 -0.00968214 -0.00313998
v 0.02761439 -0.00996056 -0.00291862
v 0.02843526 -0.01006405 -0.00209945
v 0.01758869 -0.01140196 -0.00178288
v 0.02434214 -0.01051248 -0.00230903
v 0.02354740 -0.01063814 -0.00214805
v 0.02188329 -0.01098802 -0.00128029
v 0.02106616 -0.01114325 -0.00046063
v 0.01248816 -0.01207954 -0.00002282
v 0.03089411 -0.00997781 -0.00046063
v 0.02570029 -0.01056915 -0.00099660
v 0.02270415 -0.01089193 -0.00128029
v 0.02540180 -0.01053466 -0.00154238
v 0.02984191 -0.00975852 -0.00259174
v 0.03009937 -0.00964025 -0.00288623
v 0.03280448 -0.00802638 -0.00503697
v 0.03246121 -0.00972649 -0.00002282
v 0.03227092 -0.00976345 -0.00002282
v 0.03171124 -0.00986200 -0.00002282
v 0.03133066 -0.00991868 -0.00002282
v 0.02188329 -0.01105208 -0.00046063
v 0.02232357 -0.01100773 -0.00002282
v 0.03089411 -0.00998274 -0.00002282
v 0.03007325 -0.01008376 -0.00002282
v 0.02969267 -0.01013057 -0.00002282
v 0.02925612 -0.01017739 -0.00046063
v 0.02761439 -0.01037450 -0.00046063
v 0.02583835 -0.01058640 -0.00046063
v 0.02434214 -0.01076380 -0.00046063
v 0.02270415 -0.01095599 -0.00046063
v 0.02270415 -0.01096338 -0.00002282
v 0.02843526 -0.01028334 -0.00002282
v 0.02761439 -0.01038189 -0.00002282
v 0.02434214 -0.01077119 -0.00002282
v 0.02653981 -0.01051002 -0.00002282
f 1 2 3
f 1 3 4
f 1 4 5
f 1 5 6
f 1 6 7
f 1 7 8
f 1 8 9
f 1 9 10
f 1 10 2
f 2 11 12
f 2 12 3
f 2 10 13
f 2 13 11
f 3 12 14
f 3 14 15
f 3 15 4
f 4 15 16
f 4 16 5
f 5 16 17
f 5 17 31
f 5 31 52
f 5 52 77
f 5 77 106
f 5 106 105
f 5 105 143
f 5 143 142
f 5 142 141
f 5 141 169
f 5 169 168
f 5 168 167
f 5 167 166
f 5 166 190
f 5 190 211
f 5 211 234
f 5 234 236
f 5 236 264
f 5 264 295
f 5 295 294
f 5 294 293
f 5 293 292
f 5 292 303
f 5 303 302
f 5 302 343
f 5 343 377
f 5 377 390
f 5 390 399
f 5 399 402
f 5 402 403
f 5 403 401
f 5 401 400
f 5 400 393
f 5 393 392
f 5 392 391
f 5 391 388
f 5 388 387
f 5 387 386
f 5 386 385
f 5 385 362
f 5 362 361
f 5 361 344
f 5 344 305
f 5 305 265
f 5 265 238
f 5 238 214
f 5 214 213
f 5 213 191
f 5 191 170
f 5 170 145
f 5 145 112
f 5 112 111
f 5 111 110
f 5 110 144
f 5 144 152
f 5 152 119
f 5 119 82
f 5 82 58
f 5 58 57
f 5 57 35
f 5 35 32
f 5 32 18
f 5 18 9
f 5 9 8
f 5 8 7
f 5 7 6
f 9 18 10
f 10 19 13
f 10 18 20
f 10 20 19
f 11 21 12
f 11 13 22
f 11 22 38
f 11 38 21
f 12 23 24
f 12 24 14
f 12 21 23
f 13 19 25
f 13 25 22
f 14 24 26
f 14 26 27
f 14 27 15
f 15 27 28
f 15 28 29
f 15 29 30
f 15 30 16
f 16 30 17
f 17 30 31
f 18 32 20
f 19 20 33
f 19 33 34
f 19 34 25
f 20 32 35
f 20 35 36
f 20 36 37
f 20 37 34
f 20 34 33
f 21 38 39
f 21 39 23
f 22 25 38
f 23 40 24
f 23 39 41
f 23 41 40
f 24 40 42
f 24 42 43
f 24 43 26
f 25 34 44
f 25 44 38
f 26 43 45
f 26 45 46
f 26 46 27
f 27 46 47
f 27 47 28
f 28 48 29
f 28 47 49
f 28 49 48
f 29 48 30
f 30 48 50
f 30 50 51
f 30 51 52
f 30 52 31
f 34 53 54
f 34 54 44
f 34 37 55
f 34 55 56
f 34 56 53
f 35 57 36
f 36 57 58
f 36 58 59
f 36 59 37
f 37 59 55
f 38 44 39
f 39 54 60
f 39 60 61
f 39 61 62
f 39 62 63
f 39 63 41
f 39 44 54
f 40 64 42
f 40 41 63
f 40 63 65
f 40 65 64
f 42 64 66
f 42 66 67
f 42 67 43
f 43 67 68
f 43 68 69
f 43 69 70
f 43 70 45
f 45 70 71
f 45 71 46
f 46 71 70
f 46 70 72
f 46 72 73
f 46 73 47
f 47 73 74
f 47 74 49
f 48 49 75
f 48 75 50
f 49 74 76
f 49 76 75
f 50 75 51
f 51 75 76
f 51 76 52
f 52 76 77
f 53 78 54
f 53 56 79
f 53 79 80
f 53 80 81
f 53 81 78
f 54 78 60
f 55 58 82
f 55 82 83
f 55 83 56
f 55 59 58
f 56 83 79
f 60 84 85
f 60 85 86
f 60 86 87
f 60 87 65
f 60 65 61
f 60 78 84
f 61 65 62
f 62 65 63
f 64 65 66
f 65 88 66
f 65 87 85
f 65 85 88
f 66 89 90
f 66 90 67
f 66 88 89
f 67 90 68
f 68 90 69
f 69 90 91
f 69 91 92
f 69 92 93
f 69 93 70
f 70 93 92
f 70 92 94
f 70 94 72
f 72 94 73
f 73 94 95
f 73 95 96
f 73 96 97
f 73 97 98
f 73 98 99
f 73 99 100
f 73 100 101
f 73 101 74
f 74 101 102
f 74 102 103
f 74 103 76
f 76 103 104
f 76 104 105
f 76 105 106
f 76 106 77
f 78 107 108
f 78 108 85
f 78 85 84
f 78 81 107
f 79 83 109
f 79 109 81
f 79 81 80
f 81 110 111
f 81 111 112
f 81 112 113
f 81 113 114
f 81 114 115
f 81 115 151
f 81 151 179
f 81 179 201
f 81 201 200
f 81 200 222
f 81 222 221
f 81 221 252
f 81 252 282
f 81 282 277
f 81 277 276
f 81 276 322
f 81 322 321
f 81 321 360
f 81 360 384
f 81 384 368
f 81 368 367
f 81 367 327
f 81 327 284
f 81 284 283
f 81 283 253
f 81 253 225
f 81 225 224
f 81 224 223
f 81 223 204
f 81 204 185
f 81 185 180
f 81 180 159
f 81 159 133
f 81 133 132
f 81 132 131
f 81 131 130
f 81 130 158
f 81 158 157
f 81 157 155
f 81 155 154
f 81 154 156
f 81 156 153
f 81 153 123
f 81 123 122
f 81 122 121
f 81 121 116
f 81 116 107
f 81 109 117
f 81 117 110
f 82 118 83
f 82 119 118
f 83 118 109
f 85 120 88
f 85 87 86
f 85 108 121
f 85 121 122
f 85 122 123
f 85 123 120
f 88 124 125
f 88 125 89
f 88 120 124
f 89 126 127
f 89 127 90
f 89 125 126
f 90 127 128
f 90 128 129
f 90 129 92
f 90 92 91
f 92 129 95
f 92 95 94
f 95 129 130
f 95 130 131
f 95 131 96
f 96 131 132
f 96 132 133
f 96 133 134
f 96 134 135
f 96 135 136
f 96 136 137
f 96 137 97
f 97 137 98
f 98 137 99
f 99 137 100
f 100 137 138
f 100 138 139
f 100 139 140
f 100 140 101
f 101 140 102
f 102 141 142
f 102 142 143
f 102 143 104
f 102 104 103
f 102 140 141
f 104 143 105
f 107 116 108
f 108 116 121
f 109 118 117
f 110 117 144
f 112 145 113
f 113 145 114
f 114 145 146
f 114 146 147
f 114 147 148
f 114 148 149
f 114 149 150
f 114 150 151
f 114 151 115
f 117 118 119
f 117 119 152
f 117 152 144
f 120 123 153
f 120 153 124
f 124 153 125
f 125 154 155
f 125 155 126
f 125 153 156
f 125 156 154
f 126 155 157
f 126 157 127
f 127 157 128
f 128 157 129
f 129 157 158
f 129 158 130
f 133 159 134
f 134 159 160
f 134 160 161
f 134 161 136
f 134 136 135
f 136 161 162
f 136 162 137
f 137 162 163
f 137 163 138
f 138 164 139
f 138 163 165
f 138 165 160
f 138 160 164
f 139 166 167
f 139 167 168
f 139 168 169
f 139 169 140
f 139 164 166
f 140 169 141
f 145 170 171
f 145 171 172
f 145 172 146
f 146 172 147
f 147 172 173
f 147 173 148
f 148 173 174
f 148 174 149
f 149 174 175
f 149 175 176
f 149 176 150
f 150 176 177
f 150 177 178
f 150 178 179
f 150 179 151
f 159 180 160
f 160 181 182
f 160 182 183
f 160 183 184
f 160 184 164
f 160 165 163
f 160 163 162
f 160 162 161
f 160 180 185
f 160 185 186
f 160 186 187
f 160 187 188
f 160 188 181
f 164 184 189
f 164 189 190
f 164 190 166
f 170 191 192
f 170 192 193
f 170 193 171
f 171 193 194
f 171 194 172
f 172 194 173
f 173 194 195
f 173 195 175
f 173 175 174
f 175 195 196
f 175 196 197
f 175 197 198
f 175 198 199
f 175 199 176
f 176 199 177
f 177 199 200
f 177 200 201
f 177 201 178
f 178 201 179
f 181 188 202
f 181 202 203
f 181 203 182
f 182 203 183
f 183 203 189
f 183 189 184
f 185 204 205
f 185 205 186
f 186 205 206
f 186 206 187
f 187 206 207
f 187 207 188
f 188 208 209
f 188 209 203
f 188 203 202
f 188 207 210
f 188 210 208
f 189 211 190
f 189 203 209
f 189 209 212
f 189 212 211
f 191 213 192
f 192 213 214
f 192 214 193
f 193 214 215
f 193 215 194
f 194 215 216
f 194 216 217
f 194 217 195
f 195 217 196
f 196 217 197
f 197 218 198
f 197 217 219
f 197 219 218
f 198 218 220
f 198 220 199
f 199 220 221
f 199 221 222
f 199 222 200
f 204 223 205
f 205 223 224
f 205 224 225
f 205 225 226
f 205 226 227
f 205 227 210
f 205 210 206
f 206 210 207
f 208 210 209
f 209 228 212
f 209 210 229
f 209 229 228
f 210 227 230
f 210 230 231
f 210 231 232
f 210 232 233
f 210 233 229
f 211 212 234
f 212 228 235
f 212 235 236
f 212 236 234
f 214 237 215
f 214 238 237
f 215 237 239
f 215 239 216
f 216 239 240
f 216 240 241
f 216 241 217
f 217 241 219
f 218 219 242
f 218 242 243
f 218 243 244
f 218 244 245
f 218 245 246
f 218 246 220
f 219 240 247
f 219 247 248
f 219 248 242
f 219 241 240
f 220 246 249
f 220 249 250
f 220 250 251
f 220 251 221
f 221 251 252
f 225 253 227
f 225 227 226
f 227 253 254
f 227 254 255
f 227 255 230
f 228 229 233
f 228 233 256
f 228 256 235
f 230 255 257
f 230 257 231
f 231 257 232
f 232 257 258
f 232 258 259
f 232 259 233
f 233 259 260
f 233 260 261
f 233 261 262
f 233 262 301
f 233 301 263
f 233 263 256
f 235 256 264
f 235 264 236
f 237 238 265
f 237 265 266
f 237 266 267
f 237 267 268
f 237 268 239
f 239 268 247
f 239 247 240
f 242 248 269
f 242 269 270
f 242 270 271
f 242 271 272
f 242 272 244
f 242 244 243
f 244 272 273
f 244 273 274
f 244 274 275
f 244 275 246
f 244 246 245
f 246 276 277
f 246 277 249
f 246 275 276
f 247 268 267
f 247 267 248
f 248 267 278
f 248 278 279
f 248 279 280
f 248 280 281
f 248 281 269
f 249 277 250
f 250 277 282
f 250 282 252
f 250 252 251
f 253 283 254
f 254 283 284
f 254 284 285
f 254 285 255
f 255 286 287
f 255 287 288
f 255 288 257
f 255 285 289
f 255 289 290
f 255 290 291
f 255 291 286
f 256 263 292
f 256 292 293
f 256 293 294
f 256 294 295
f 256 295 264
f 257 296 258
f 257 288 297
f 257 297 298
f 257 298 296
f 258 296 259
f 259 296 260
f 260 296 261
f 261 296 298
f 261 298 297
f 261 297 299
f 261 299 262
f 262 299 300
f 262 300 301
f 263 301 302
f 263 302 303
f 263 303 292
f 265 304 266
f 265 305 304
f 266 304 267
f 267 304 278
f 269 281 306
f 269 306 270
f 270 307 271
f 270 306 308
f 270 308 309
f 270 309 310
f 270 310 311
f 270 311 312
f 270 312 313
f 270 313 314
f 270 314 307
f 271 307 273
f 271 273 272
f 273 307 314
f 273 314 315
f 273 315 316
f 273 316 317
f 273 317 274
f 274 317 318
f 274 318 319
f 274 319 275
f 275 319 320
f 275 320 321
f 275 321 322
f 275 322 276
f 278 304 305
f 278 305 323
f 278 323 279
f 279 323 280
f 280 306 281
f 280 323 324
f 280 324 325
f 280 325 326
f 280 326 309
f 280 309 306
f 284 327 328
f 284 328 329
f 284 329 330
f 284 330 331
f 284 331 285
f 285 330 332
f 285 332 333
f 285 333 290
f 285 290 289
f 285 331 330
f 286 334 287
f 286 291 335
f 286 335 334
f 287 334 288
f 288 334 297
f 290 333 291
f 291 333 335
f 297 334 299
f 299 336 337
f 299 337 300
f 299 334 338
f 299 338 339
f 299 339 340
f 299 340 341
f 299 341 336
f 300 337 301
f 301 337 336
f 301 336 342
f 301 342 343
f 301 343 302
f 305 344 323
f 306 309 308
f 309 325 345
f 309 345 346
f 309 346 310
f 309 326 347
f 309 347 325
f 310 346 348
f 310 348 349
f 310 349 350
f 310 350 351
f 310 351 352
f 310 352 353
f 310 353 354
f 310 354 311
f 311 354 355
f 311 355 312
f 312 355 315
f 312 315 314
f 312 314 313
f 315 355 356
f 315 356 317
f 315 317 316
f 317 356 318
f 318 356 357
f 318 357 358
f 318 358 319
f 319 358 330
f 319 330 329
f 319 329 359
f 319 359 320
f 320 359 360
f 320 360 321
f 323 344 361
f 323 361 362
f 323 362 324
f 324 362 363
f 324 363 325
f 325 364 345
f 325 347 326
f 325 363 365
f 325 365 366
f 325 366 364
f 327 367 328
f 328 367 329
f 329 367 368
f 329 368 359
f 330 358 332
f 332 358 369
f 332 369 370
f 332 370 333
f 333 350 335
f 333 370 351
f 333 351 371
f 333 371 350
f 334 335 372
f 334 372 338
f 335 350 373
f 335 373 374
f 335 374 372
f 336 341 342
f 338 372 375
f 338 375 339
f 339 375 376
f 339 376 340
f 340 376 341
f 341 376 342
f 342 376 343
f 343 376 377
f 345 364 378
f 345 378 346
f 346 378 348
f 348 378 379
f 348 379 380
f 348 380 381
f 348 381 349
f 349 374 373
f 349 373 350
f 349 381 380
f 349 380 375
f 349 375 372
f 349 372 374
f 350 371 351
f 351 382 352
f 351 370 382
f 352 382 369
f 352 369 383
f 352 383 353
f 353 383 354
f 354 358 356
f 354 356 355
f 354 383 369
f 354 369 358
f 356 358 357
f 359 384 360
f 359 368 384
f 362 385 363
f 363 385 386
f 363 386 365
f 364 387 388
f 364 388 378
f 364 366 387
f 365 386 366
f 366 386 387
f 369 382 370
f 375 380 379
f 375 379 389
f 375 389 376
f 376 389 390
f 376 390 377
f 378 388 391
f 378 391 392
f 378 392 393
f 378 393 394
f 378 394 379
f 379 395 396
f 379 396 397
f 379 397 398
f 379 398 389
f 379 394 395
f 389 398 399
f 389 399 390
f 393 400 394
f 394 400 401
f 394 401 395
f 395 401 396
f 396 402 397
f 396 401 403
f 396 403 402
f 397 402 399
f 397 399 398

