# https://github.com/mikedh/trimesh
v 0.02434240 0.01265728 -0.00002282
v 0.02434240 0.01263761 0.00035884
v 0.02515967 0.01260811 0.00035884
v 0.02472305 0.01264253 -0.00002282
v 0.02390578 0.01264991 -0.00002282
v 0.02352140 0.01262532 0.00035884
v 0.02434240 0.01250975 0.00117822
v 0.02270414 0.01249991 0.00117822
v 0.02270414 0.01241631 0.00174791
v 0.02515967 0.01262532 -0.00002282
v 0.02515967 0.01233516 0.00208422
v 0.02556644 0.01238680 0.00158842
v 0.02589484 0.01241631 0.00113236
v 0.02645461 0.01239418 0.00082866
v 0.02597694 0.01249745 0.00035884
v 0.02352140 0.01263761 -0.00002282
v 0.02270414 0.01259827 0.00035884
v 0.02434240 0.01234746 0.00217288
v 0.02352140 0.01241385 0.00176727
v 0.02352140 0.01234746 0.00217696
v 0.02188314 0.01246303 0.00117822
v 0.02188314 0.01240155 0.00166179
v 0.02270414 0.01233516 0.00215760
v 0.02600679 0.01249007 -0.00002282
v 0.02515967 0.01218762 0.00281646
v 0.02589484 0.01228106 0.00191606
v 0.02611501 0.01235237 0.00137491
v 0.02675315 0.01228844 0.00113236
v 0.02689123 0.01232041 0.00035884
v 0.02648446 0.01240401 0.00035884
v 0.02308478 0.01262286 -0.00002282
v 0.02270414 0.01260319 -0.00002282
v 0.02226751 0.01257614 -0.00002282
v 0.02188314 0.01254663 0.00035884
v 0.02434240 0.01219746 0.00281646
v 0.02146144 0.01238680 0.00159453
v 0.02188314 0.01230565 0.00207148
v 0.02270414 0.01211631 0.00281646
v 0.02352140 0.01216303 0.00281646
v 0.02660388 0.01237450 -0.00002282
v 0.02519699 0.01178436 0.00371329
v 0.02597694 0.01174255 0.00354361
v 0.02597694 0.01204500 0.00281646
v 0.02679794 0.01206222 0.00199760
v 0.02748086 0.01175485 0.00199760
v 0.02767491 0.01182370 0.00112573
v 0.02761520 0.01195648 0.00035884
v 0.02723083 0.01214336 -0.00002282
v 0.02682779 0.01231057 -0.00002282
v 0.02188314 0.01254663 -0.00002282
v 0.02144651 0.01250729 -0.00002282
v 0.02106587 0.01247286 0.00035884
v 0.02113677 0.01240893 0.00111452
v 0.02430508 0.01178190 0.00371227
v 0.02113677 0.01227861 0.00191963
v 0.00713500 0.01097782 0.00199760
v 0.00713500 0.01084257 0.00265340
v 0.02106587 0.01198599 0.00281646
v 0.02188314 0.01205238 0.00281646
v 0.00802691 0.01084995 0.00286232
v 0.02352140 0.01179173 0.00359813
v 0.01171767 0.01074176 0.00403279
v 0.02549926 0.01156059 0.00403789
v 0.02455512 0.01158026 0.00406795
v 0.02495069 0.01158026 0.00406795
v 0.02597694 0.01151879 0.00395330
v 0.02683152 0.01142781 0.00364858
v 0.02658522 0.01163682 0.00338412
v 0.02683152 0.01175485 0.00285468
v 0.02713007 0.01153846 0.00315328
v 0.02734278 0.01164174 0.00260703
v 0.02761520 0.01137863 0.00285468
v 0.02811527 0.01083766 0.00342947
v 0.02789136 0.01145240 0.00199760
v 0.02807048 0.01161223 0.00035884
v 0.04219540 -0.00040715 0.00518287
v 0.02783911 0.01180403 -0.00002282
v 0.02761520 0.01194665 -0.00002282
v 0.02106587 0.01247040 -0.00002282
v 0.02062178 0.01238926 0.00079910
v 0.00713500 0.01111552 -0.00002282
v 0.00713500 0.01111060 0.00035884
v 0.00713500 0.01104913 0.00117822
v 0.00877327 0.01001636 0.00498058
v 0.00655284 0.01084503 0.00199760
v 0.00663121 0.01079831 0.00252346
v 0.00713500 0.01065815 0.00306309
v 0.00780300 0.01072454 0.00316551
v 0.00834784 0.01074913 0.00323023
v 0.00877327 0.01061881 0.00368985
v 0.01123254 0.01072209 0.00397878
v 0.00877327 0.01029669 0.00445522
v 0.00959427 0.01035816 0.00445522
v 0.02519699 0.01131469 0.00438694
v 0.02576796 0.01079831 0.00491688
v 0.02601799 0.01106880 0.00452503
v 0.02430508 0.01131961 0.00438694
v 0.02434240 0.01085241 0.00496121
v 0.00959427 0.01004341 0.00501115
v 0.02679794 0.01100241 0.00435891
v 0.02742861 0.01087208 0.00421063
v 0.02766745 0.01102454 0.00367559
v 0.02797346 0.01070241 0.00397572
v 0.02808168 0.01161960 -0.00002282
v 0.04231482 -0.00104894 0.00518287
v 0.04363588 -0.00476443 0.00175097
v 0.04365827 -0.00473984 0.00117822
v 0.04382621 -0.00522671 0.00035884
v 0.04219913 -0.00040715 0.00281646
v 0.02806302 0.00997456 0.00491433
v 0.02787270 0.00977047 0.00518287
v 0.00678421 0.01100978 -0.00002282
v 0.00647820 0.01091143 0.00035884
v 0.00650806 0.01087946 0.00117822
v 0.00821723 0.00997456 0.00492962
v 0.00877327 0.00985407 0.00518287
v 0.00606771 0.01054258 0.00035884
v 0.00609756 0.01042947 0.00117822
v 0.00613115 0.01025734 0.00191810
v 0.00645208 0.01036062 0.00280423
v 0.00658270 0.01010243 0.00349214
v 0.00673570 0.00992047 0.00403840
v 0.00728055 0.01004587 0.00424833
v 0.00767239 0.00988604 0.00479459
v 0.00794854 0.01013194 0.00449496
v 0.02515967 0.01084503 0.00495612
v 0.02592469 0.01047127 0.00518287
v 0.02679794 0.01027701 0.00518287
v 0.02631653 0.01072946 0.00484503
v 0.02352140 0.01082782 0.00494185
v 0.02386846 0.01055488 0.00518287
v 0.02436106 0.01057209 0.00518287
v 0.02515967 0.01056717 0.00518287
v 0.00959427 0.00990325 0.00518287
v 0.01041527 0.00994260 0.00518287
v 0.01357985 0.01009013 0.00518287
v 0.01444563 0.01012948 0.00518287
v 0.02679794 0.01066553 0.00476860
v 0.02761520 0.01009997 0.00504529
v 0.04219913 -0.00040715 -0.00002282
v 0.04232975 -0.00113009 0.00518287
v 0.04366574 -0.00522671 0.00181008
v 0.04378889 -0.00522671 0.00117822
v 0.04372545 -0.00587342 0.00117822
v 0.04372918 -0.00608980 0.00029107
v 0.04371798 -0.00609964 -0.00002282
v 0.04380755 -0.00522671 -0.00002282
v 0.04374411 -0.00500540 -0.00002282
v 0.02763386 0.00992292 0.00518287
v 0.00647820 0.01091388 -0.00002282
v 0.00628788 0.01074422 -0.00002282
v 0.00791869 0.00970408 0.00518287
v 0.00799332 0.00972867 0.00518287
v 0.00607144 0.01054750 -0.00002282
v 0.00578036 0.01013685 -0.00002282
v 0.00579155 0.01013194 0.00035884
v 0.00586246 0.01001882 0.00117822
v 0.00590724 0.00993030 0.00159198
v 0.00613488 0.00951720 0.00281646
v 0.00645581 0.00959588 0.00371329
v 0.00660136 0.00937458 0.00430592
v 0.00673570 0.00908934 0.00485217
v 0.00716486 0.00928114 0.00518287
v 0.00725069 0.00937212 0.00518287
v 0.00735891 0.00944097 0.00518287
v 0.02741742 0.01004095 0.00518287
v 0.04225884 -0.00434640 0.00518287
v 0.04284474 -0.00495868 0.00422846
v 0.04284474 -0.00455787 0.00422846
v 0.04352766 -0.00522671 0.00221976
v 0.04365081 -0.00574555 0.00172141
v 0.04343810 -0.00628160 0.00117822
v 0.04352393 -0.00638980 0.00051884
v 0.04359857 -0.00645619 -0.00002282
v 0.00574304 0.00984670 -0.00002282
v 0.00571318 0.00951720 0.00035884
v 0.00581021 0.00951720 0.00117822
v 0.00588858 0.00951720 0.00168065
v 0.00597441 0.00951720 0.00209034
v 0.00588485 0.00906721 0.00170765
v 0.00664987 0.00816231 0.00499281
v 0.00664987 0.00854099 0.00499281
v 0.00687378 0.00883607 0.00518287
v 0.04219167 -0.00452837 0.00518287
v 0.04238946 -0.00523409 0.00445980
v 0.04262083 -0.00550457 0.00391814
v 0.04285967 -0.00573080 0.00337189
v 0.04215809 -0.00496360 0.00498516
v 0.04300148 -0.00590538 0.00281646
v 0.04322165 -0.00609718 0.00205467
v 0.04275518 -0.00644881 0.00238741
v 0.04290818 -0.00654225 0.00184116
v 0.04302760 -0.00660864 0.00117822
v 0.04359110 -0.00646357 -0.00002282
v 0.00570199 0.00951720 -0.00002282
v 0.00617220 -0.01096346 0.00117822
v 0.00631400 -0.01096346 0.00199760
v 0.00669838 -0.01062166 0.00413215
v 0.00717232 -0.01020364 0.00518287
v 0.00693722 0.00219442 0.00518287
v 0.00682900 0.00857787 0.00518287
v 0.00682900 0.00869836 0.00518287
v 0.04154607 -0.00501524 0.00518287
v 0.04207225 -0.00570129 0.00414438
v 0.04235214 -0.00587342 0.00364145
v 0.04154607 -0.00511852 0.00510593
v 0.04109079 -0.00562014 0.00484860
v 0.04154607 -0.00552916 0.00472223
v 0.04243424 -0.00632095 0.00285876
v 0.04157965 -0.00626931 0.00364909
v 0.04187820 -0.00641930 0.00315991
v 0.04132962 -0.00653979 0.00338514
v 0.04072880 -0.00665782 0.00364909
v 0.04221033 -0.00656192 0.00261366
v 0.04098630 -0.00721847 0.00228601
v 0.04129604 -0.00734879 0.00173976
v 0.04243424 -0.00670454 0.00206791
v 0.04184834 -0.00722830 0.00117822
v 0.04236333 -0.00697011 0.00117822
v 0.04236333 -0.00704388 0.00035884
v 0.04236333 -0.00703896 -0.00002282
v 0.00614981 -0.01096346 0.00035884
v 0.00618339 -0.01096346 -0.00002282
v 0.00637372 -0.01174049 0.00035884
v 0.00640357 -0.01169869 0.00117822
v 0.00653045 -0.01162492 0.00199760
v 0.00653418 -0.01103968 0.00289188
v 0.00662748 -0.01080362 0.00363584
v 0.00672824 -0.01136427 0.00321494
v 0.00681034 -0.01121181 0.00363584
v 0.00709396 -0.01099542 0.00449547
v 0.00737011 -0.01079625 0.00518287
v 0.00732906 -0.01068314 0.00518287
v 0.00722084 -0.01037331 0.00518287
v 0.04116542 -0.00517015 0.00518287
v 0.04154607 -0.00583899 0.00431254
v 0.04045638 -0.00651766 0.00413215
v 0.04100122 -0.00638980 0.00393139
v 0.04079970 -0.00531031 0.00518287
v 0.04067656 -0.00535703 0.00518287
v 0.04054221 -0.00572096 0.00493166
v 0.04044145 -0.00732174 0.00250716
v 0.04071761 -0.00707830 0.00279455
v 0.04157965 -0.00669963 0.00285876
v 0.04071761 -0.00744715 0.00200677
v 0.04072507 -0.00769550 0.00117822
v 0.04143785 -0.00742010 0.00117822
v 0.04190805 -0.00725535 0.00035884
v 0.04149755 -0.00743977 0.00035884
v 0.04166922 -0.00734633 -0.00002282
v 0.00628415 -0.01132738 -0.00002282
v 0.00640357 -0.01174295 -0.00002282
v 0.00679168 -0.01215359 -0.00002282
v 0.00680661 -0.01215113 0.00035884
v 0.00688497 -0.01210687 0.00117822
v 0.00695961 -0.01203556 0.00199760
v 0.00664240 -0.01150689 0.00266869
v 0.00750819 -0.01221261 0.00328220
v 0.00726189 -0.01180196 0.00358743
v 0.00738130 -0.01154377 0.00431203
v 0.00756416 -0.01136673 0.00485828
v 0.00735518 -0.01082084 0.00513243
v 0.00774702 -0.01115526 0.00518287
v 0.03498927 -0.00729469 0.00518287
v 0.03430261 -0.00751354 0.00518287
v 0.03536245 -0.00808648 0.00403177
v 0.03990780 -0.00562014 0.00518287
v 0.03501166 -0.00876761 0.00278385
v 0.03529528 -0.00888810 0.00228805
v 0.04072507 -0.00772993 0.00035884
v 0.03544082 -0.00893974 0.00174179
v 0.03498927 -0.00911678 0.00117822
v 0.03498927 -0.00918563 0.00035884
v 0.03498927 -0.00920284 -0.00002282
v 0.04147889 -0.00742502 -0.00002282
v 0.00698200 -0.01224703 -0.00002282
v 0.00721710 -0.01232572 0.00035884
v 0.00737011 -0.01226670 0.00199760
v 0.00744848 -0.01223720 0.00281646
v 0.00795600 -0.01243637 0.00035884
v 0.00795600 -0.01231588 0.00199760
v 0.00773956 -0.01221261 0.00328220
v 0.00844860 -0.01132738 0.00518287
v 0.00810901 -0.01142082 0.00497752
v 0.00794481 -0.01120935 0.00518287
v 0.03417200 -0.00755042 0.00518287
v 0.03504898 -0.00832008 0.00370973
v 0.03412349 -0.00756272 0.00518287
v 0.03417200 -0.00794140 0.00463713
v 0.03481760 -0.00814549 0.00412247
v 0.03137687 -0.00892990 0.00406744
v 0.03417200 -0.00883154 0.00303252
v 0.03475043 -0.00894957 0.00248983
v 0.03417200 -0.00917579 0.00199760
v 0.03501166 -0.00900367 0.00200830
v 0.04072507 -0.00770288 -0.00002282
v 0.03417200 -0.00929628 0.00117822
v 0.03417200 -0.00936513 0.00035884
v 0.03335100 -0.00954218 0.00035884
v 0.03417200 -0.00937743 -0.00002282
v 0.00720218 -0.01234047 -0.00002282
v 0.00795600 -0.01245850 -0.00002282
v 0.00839263 -0.01243391 -0.00002282
v 0.00877327 -0.01238719 0.00035884
v 0.00877327 -0.01226670 0.00199760
v 0.00798959 -0.01224211 0.00285519
v 0.00959427 -0.01186098 0.00363584
v 0.00877327 -0.01196179 0.00363584
v 0.00877327 -0.01163475 0.00445522
v 0.00877327 -0.01141836 0.00497191
v 0.00877327 -0.01132492 0.00518287
v 0.00924721 -0.01219785 0.00244601
v 0.00828440 -0.01218310 0.00315430
v 0.02986922 -0.00976103 0.00247760
v 0.03192172 -0.00887088 0.00395177
v 0.03417200 -0.00854384 0.00363584
v 0.03320173 -0.00773239 0.00518287
v 0.03284348 -0.00807910 0.00484249
v 0.03335100 -0.00802992 0.00476758
v 0.03417200 -0.00821680 0.00422744
v 0.02798092 -0.00972906 0.00321086
v 0.03089174 -0.00917088 0.00363584
v 0.03089174 -0.00949546 0.00281646
v 0.03171274 -0.00936759 0.00281646
v 0.03167542 -0.00904055 0.00366132
v 0.03307485 -0.00893974 0.00328628
v 0.03229863 -0.00812336 0.00490058
v 0.03171274 -0.00817254 0.00496019
v 0.03089174 -0.00823893 0.00504325
v 0.03007447 -0.00829795 0.00512376
v 0.03417200 -0.00900367 0.00262283
v 0.03253374 -0.00922497 0.00281646
v 0.03089174 -0.00969463 0.00222741
v 0.03168661 -0.00963316 0.00195989
v 0.03253374 -0.00947333 0.00199760
v 0.03335100 -0.00932825 0.00199760
v 0.03194038 -0.00970201 0.00140752
v 0.03219414 -0.00975119 0.00086127
v 0.03268674 -0.00968234 0.00035884
v 0.03335100 -0.00954956 -0.00002282
v 0.00921363 -0.01237490 -0.00002282
v 0.01041527 -0.01227900 0.00035884
v 0.00959427 -0.01233555 0.00035884
v 0.01104222 -0.01220523 0.00095095
v 0.01043020 -0.01222490 0.00120573
v 0.01071381 -0.01218556 0.00149720
v 0.02925347 -0.00980037 0.00258257
v 0.03007447 -0.00824877 0.00518287
v 0.01205354 -0.01209458 0.00117822
v 0.01287080 -0.01200605 0.00117822
v 0.01123254 -0.01205277 0.00199760
v 0.00877327 -0.01215605 0.00299634
v 0.02270414 -0.01089461 0.00117822
v 0.02106587 -0.01092657 0.00199760
v 0.02377890 -0.01053560 0.00232117
v 0.02323032 -0.01056757 0.00245314
v 0.03041780 -0.00972414 0.00236703
v 0.03011552 -0.00961349 0.00277672
v 0.03245164 -0.00786025 0.00518287
v 0.03335100 -0.00906022 0.00285825
v 0.03089174 -0.00812090 0.00518287
v 0.03022001 -0.00822664 0.00518287
v 0.03011552 -0.00982988 0.00205569
v 0.03089174 -0.00978316 0.00181772
v 0.03139553 -0.00974873 0.00166128
v 0.03168661 -0.00979053 0.00115172
v 0.03089174 -0.00990365 0.00117822
v 0.03089174 -0.00998725 0.00035884
v 0.03171274 -0.00986676 0.00035884
v 0.03227624 -0.00976595 0.00035884
v 0.03246283 -0.00972660 -0.00002282
v 0.01003089 -0.01231342 -0.00002282
v 0.01115044 -0.01221998 0.00035884
v 0.01205354 -0.01214376 0.00035884
v 0.01128105 -0.01216343 0.00120573
v 0.01287080 -0.01205769 0.00035884
v 0.02270414 -0.01096592 0.00035884
v 0.02577915 -0.01057986 0.00090968
v 0.02434240 -0.01070281 0.00117822
v 0.02434240 -0.01058970 0.00175453
v 0.02679794 -0.01024790 0.00199760
v 0.02761520 -0.01014954 0.00199760
v 0.02843620 -0.01004873 0.00199760
v 0.03007447 -0.01000446 0.00117822
v 0.02679794 -0.01040773 0.00117822
v 0.03089174 -0.00998233 -0.00002282
v 0.03133209 -0.00991840 -0.00002282
v 0.03007447 -0.01008807 0.00035884
v 0.03171274 -0.00986184 -0.00002282
v 0.03227251 -0.00976349 -0.00002282
v 0.01080711 -0.01224703 -0.00002282
v 0.01176246 -0.01215605 -0.00002282
v 0.01205354 -0.01212654 -0.00002282
v 0.01249016 -0.01207982 -0.00002282
v 0.02232349 -0.01100772 -0.00002282
v 0.02352140 -0.01087248 0.00035884
v 0.02602172 -0.01050117 0.00118127
v 0.02434240 -0.01077658 0.00035884
v 0.02515967 -0.01068068 0.00035884
v 0.02679794 -0.01048642 0.00035884
v 0.02843620 -0.01028970 0.00035884
v 0.02535746 -0.01052822 0.00145593
v 0.02481261 -0.01056019 0.00162358
v 0.03007447 -0.01008315 -0.00002282
v 0.02352140 -0.01086756 -0.00002282
v 0.02396176 -0.01081592 -0.00002282
v 0.02606277 -0.01056757 -0.00002282
v 0.02723456 -0.01042740 -0.00002282
v 0.02805556 -0.01032905 -0.00002282
v 0.02925347 -0.01018397 -0.00002282
f 1 2 3
f 1 3 4
f 1 4 10
f 1 10 24
f 1 24 40
f 1 40 49
f 1 49 48
f 1 48 78
f 1 78 77
f 1 77 104
f 1 104 140
f 1 140 148
f 1 148 147
f 1 147 146
f 1 146 174
f 1 174 194
f 1 194 221
f 1 221 250
f 1 250 275
f 1 275 296
f 1 296 274
f 1 274 300
f 1 300 340
f 1 340 371
f 1 371 390
f 1 390 389
f 1 389 387
f 1 387 386
f 1 386 404
f 1 404 410
f 1 410 409
f 1 409 408
f 1 408 407
f 1 407 406
f 1 406 405
f 1 405 395
f 1 395 394
f 1 394 393
f 1 393 392
f 1 392 391
f 1 391 372
f 1 372 341
f 1 341 303
f 1 303 302
f 1 302 301
f 1 301 276
f 1 276 253
f 1 253 252
f 1 252 251
f 1 251 223
f 1 223 195
f 1 195 175
f 1 175 155
f 1 155 154
f 1 154 151
f 1 151 150
f 1 150 112
f 1 112 81
f 1 81 79
f 1 79 51
f 1 51 50
f 1 50 33
f 1 33 32
f 1 32 31
f 1 31 16
f 1 16 5
f 1 5 6
f 1 6 2
f 2 7 3
f 2 6 8
f 2 8 9
f 2 9 7
f 3 10 4
f 3 7 11
f 3 11 12
f 3 12 13
f 3 13 14
f 3 14 15
f 3 15 10
f 5 16 6
f 6 16 17
f 6 17 8
f 7 18 11
f 7 9 19
f 7 19 20
f 7 20 18
f 8 17 21
f 8 21 22
f 8 22 9
f 9 22 23
f 9 23 20
f 9 20 19
f 10 15 24
f 11 18 25
f 11 25 12
f 12 26 27
f 12 27 13
f 12 25 26
f 13 27 14
f 14 28 29
f 14 29 30
f 14 30 15
f 14 27 28
f 15 30 24
f 16 31 17
f 17 32 33
f 17 33 34
f 17 34 21
f 17 31 32
f 18 35 25
f 18 20 35
f 20 23 35
f 21 34 36
f 21 36 22
f 22 36 37
f 22 37 23
f 23 37 38
f 23 38 39
f 23 39 35
f 24 30 40
f 25 35 41
f 25 41 42
f 25 42 43
f 25 43 26
f 26 43 28
f 26 28 27
f 28 43 44
f 28 44 45
f 28 45 46
f 28 46 47
f 28 47 29
f 29 48 49
f 29 49 40
f 29 40 30
f 29 47 48
f 33 50 34
f 34 50 51
f 34 51 52
f 34 52 53
f 34 53 36
f 35 54 41
f 35 39 54
f 36 55 37
f 36 53 56
f 36 56 57
f 36 57 55
f 37 58 59
f 37 59 38
f 37 55 57
f 37 57 60
f 37 60 58
f 38 61 39
f 38 59 62
f 38 62 61
f 39 61 54
f 41 63 42
f 41 54 64
f 41 64 65
f 41 65 63
f 42 63 66
f 42 66 67
f 42 67 68
f 42 68 43
f 43 68 69
f 43 69 44
f 44 69 70
f 44 70 71
f 44 71 45
f 45 71 72
f 45 72 73
f 45 73 74
f 45 74 46
f 46 75 47
f 46 74 76
f 46 76 75
f 47 75 77
f 47 77 78
f 47 78 48
f 51 79 52
f 52 80 53
f 52 79 81
f 52 81 82
f 52 82 83
f 52 83 56
f 52 56 80
f 53 80 56
f 54 61 84
f 54 84 64
f 56 83 85
f 56 85 86
f 56 86 57
f 57 86 87
f 57 87 88
f 57 88 60
f 58 60 89
f 58 89 90
f 58 90 91
f 58 91 62
f 58 62 59
f 60 88 89
f 61 62 84
f 62 91 92
f 62 92 93
f 62 93 84
f 63 65 94
f 63 94 95
f 63 95 96
f 63 96 66
f 64 97 98
f 64 98 65
f 64 84 99
f 64 99 97
f 65 98 94
f 66 96 100
f 66 100 67
f 67 100 101
f 67 101 70
f 67 70 68
f 68 70 69
f 70 101 102
f 70 102 71
f 71 102 72
f 72 102 73
f 73 102 103
f 73 103 76
f 73 76 74
f 75 104 77
f 75 76 104
f 76 105 106
f 76 106 107
f 76 107 108
f 76 108 109
f 76 109 104
f 76 103 110
f 76 110 111
f 76 111 149
f 76 149 166
f 76 166 128
f 76 128 127
f 76 127 133
f 76 133 132
f 76 132 131
f 76 131 137
f 76 137 136
f 76 136 135
f 76 135 134
f 76 134 116
f 76 116 153
f 76 153 152
f 76 152 165
f 76 165 164
f 76 164 163
f 76 163 183
f 76 183 202
f 76 202 201
f 76 201 200
f 76 200 199
f 76 199 234
f 76 234 233
f 76 233 232
f 76 232 263
f 76 263 285
f 76 285 283
f 76 283 311
f 76 311 348
f 76 348 362
f 76 362 361
f 76 361 359
f 76 359 317
f 76 317 288
f 76 288 286
f 76 286 265
f 76 265 264
f 76 264 267
f 76 267 240
f 76 240 239
f 76 239 235
f 76 235 203
f 76 203 184
f 76 184 167
f 76 167 141
f 76 141 105
f 81 112 82
f 82 112 113
f 82 113 114
f 82 114 85
f 82 85 83
f 84 93 92
f 84 92 115
f 84 115 116
f 84 116 99
f 85 114 117
f 85 117 118
f 85 118 119
f 85 119 86
f 86 119 120
f 86 120 121
f 86 121 122
f 86 122 123
f 86 123 124
f 86 124 125
f 86 125 87
f 87 125 92
f 87 92 88
f 88 92 90
f 88 90 89
f 90 92 91
f 92 125 115
f 94 126 95
f 94 98 126
f 95 126 127
f 95 127 128
f 95 128 129
f 95 129 96
f 96 129 100
f 97 130 98
f 97 99 130
f 98 131 132
f 98 132 133
f 98 133 126
f 98 130 134
f 98 134 135
f 98 135 136
f 98 136 137
f 98 137 131
f 99 116 134
f 99 134 130
f 100 138 101
f 100 129 138
f 101 138 139
f 101 139 110
f 101 110 103
f 101 103 102
f 104 109 140
f 105 141 106
f 106 142 143
f 106 143 107
f 106 141 142
f 107 143 108
f 108 143 144
f 108 144 145
f 108 145 146
f 108 146 147
f 108 147 148
f 108 148 140
f 108 140 109
f 110 139 149
f 110 149 111
f 112 150 113
f 113 150 151
f 113 151 117
f 113 117 114
f 115 125 124
f 115 124 152
f 115 152 153
f 115 153 116
f 117 151 154
f 117 154 155
f 117 155 156
f 117 156 118
f 118 156 157
f 118 157 119
f 119 157 158
f 119 158 159
f 119 159 120
f 120 160 121
f 120 159 160
f 121 161 122
f 121 160 161
f 122 161 162
f 122 162 163
f 122 163 164
f 122 164 165
f 122 165 124
f 122 124 123
f 124 165 152
f 126 133 127
f 128 166 139
f 128 139 138
f 128 138 129
f 139 166 149
f 141 167 168
f 141 168 169
f 141 169 142
f 142 169 170
f 142 170 171
f 142 171 143
f 143 171 144
f 144 171 172
f 144 172 173
f 144 173 174
f 144 174 145
f 145 174 146
f 155 175 156
f 156 175 176
f 156 176 157
f 157 176 177
f 157 177 158
f 158 177 178
f 158 178 179
f 158 179 159
f 159 161 160
f 159 179 180
f 159 180 181
f 159 181 182
f 159 182 161
f 161 182 162
f 162 182 183
f 162 183 163
f 167 184 168
f 168 185 186
f 168 186 187
f 168 187 171
f 168 171 170
f 168 170 169
f 168 184 188
f 168 188 185
f 171 189 190
f 171 190 172
f 171 187 189
f 172 190 191
f 172 191 192
f 172 192 173
f 173 192 193
f 173 193 194
f 173 194 174
f 175 195 176
f 176 195 196
f 176 196 177
f 177 196 180
f 177 180 178
f 178 180 179
f 180 196 197
f 180 197 198
f 180 198 181
f 181 198 199
f 181 199 200
f 181 200 201
f 181 201 202
f 181 202 182
f 182 202 183
f 184 203 188
f 185 188 204
f 185 204 186
f 186 204 205
f 186 205 187
f 187 205 191
f 187 191 189
f 188 203 206
f 188 206 207
f 188 207 208
f 188 208 204
f 189 191 190
f 191 205 209
f 191 209 210
f 191 210 211
f 191 211 212
f 191 212 213
f 191 213 214
f 191 214 215
f 191 215 216
f 191 216 217
f 191 217 192
f 192 217 216
f 192 216 218
f 192 218 219
f 192 219 193
f 193 219 194
f 194 219 218
f 194 218 220
f 194 220 221
f 195 222 196
f 195 223 222
f 196 222 224
f 196 224 225
f 196 225 197
f 197 225 226
f 197 226 227
f 197 227 228
f 197 228 198
f 198 229 230
f 198 230 231
f 198 231 232
f 198 232 233
f 198 233 234
f 198 234 199
f 198 228 229
f 203 235 206
f 204 208 236
f 204 236 237
f 204 237 238
f 204 238 210
f 204 210 205
f 205 210 209
f 206 235 207
f 207 235 239
f 207 239 240
f 207 240 241
f 207 241 237
f 207 237 208
f 208 237 236
f 210 238 211
f 211 238 212
f 212 238 237
f 212 237 213
f 213 237 242
f 213 242 243
f 213 243 215
f 213 215 244
f 213 244 214
f 214 244 215
f 215 243 242
f 215 242 245
f 215 245 216
f 216 245 246
f 216 246 247
f 216 247 218
f 218 247 220
f 220 248 221
f 220 247 248
f 221 248 249
f 221 249 250
f 222 223 251
f 222 251 252
f 222 252 224
f 224 253 254
f 224 254 225
f 224 252 253
f 225 254 255
f 225 255 256
f 225 256 226
f 226 257 227
f 226 256 258
f 226 258 257
f 227 257 228
f 228 257 229
f 229 257 259
f 229 259 260
f 229 260 230
f 230 260 231
f 231 260 261
f 231 261 262
f 231 262 232
f 232 262 261
f 232 261 263
f 237 241 264
f 237 264 265
f 237 265 266
f 237 266 242
f 240 267 241
f 241 267 264
f 242 266 268
f 242 268 245
f 245 268 269
f 245 269 246
f 246 270 249
f 246 249 247
f 246 269 271
f 246 271 272
f 246 272 273
f 246 273 274
f 246 274 270
f 247 249 248
f 249 270 275
f 249 275 250
f 253 276 254
f 254 276 277
f 254 277 278
f 254 278 279
f 254 279 255
f 255 279 258
f 255 258 256
f 257 258 259
f 258 261 260
f 258 260 259
f 258 279 280
f 258 280 281
f 258 281 282
f 258 282 283
f 258 283 284
f 258 284 261
f 261 284 263
f 263 284 285
f 265 286 266
f 266 287 268
f 266 286 288
f 266 288 289
f 266 289 290
f 266 290 291
f 266 291 287
f 268 287 292
f 268 292 293
f 268 293 269
f 269 293 294
f 269 294 295
f 269 295 271
f 270 296 275
f 270 274 296
f 271 295 272
f 272 295 297
f 272 297 298
f 272 298 273
f 273 298 274
f 274 298 299
f 274 299 300
f 276 301 277
f 277 301 302
f 277 302 278
f 278 302 279
f 279 302 280
f 280 302 303
f 280 303 304
f 280 304 305
f 280 305 281
f 281 305 306
f 281 306 282
f 282 307 308
f 282 308 309
f 282 309 310
f 282 310 311
f 282 311 283
f 282 306 312
f 282 312 313
f 282 313 314
f 282 314 307
f 283 285 284
f 287 291 315
f 287 315 316
f 287 316 292
f 288 317 318
f 288 318 319
f 288 319 289
f 289 319 291
f 289 291 320
f 289 320 290
f 290 320 291
f 291 321 322
f 291 322 323
f 291 323 324
f 291 324 325
f 291 325 326
f 291 326 292
f 291 292 315
f 291 319 318
f 291 318 327
f 291 327 328
f 291 328 329
f 291 329 330
f 291 330 311
f 291 311 310
f 291 310 321
f 292 316 315
f 292 326 293
f 293 326 331
f 293 331 332
f 293 332 324
f 293 324 333
f 293 333 334
f 293 334 335
f 293 335 336
f 293 336 294
f 294 336 337
f 294 337 338
f 294 338 295
f 295 338 297
f 297 338 298
f 298 338 299
f 299 338 339
f 299 339 300
f 300 339 340
f 303 341 342
f 303 342 343
f 303 343 304
f 304 343 344
f 304 344 345
f 304 345 305
f 305 345 346
f 305 346 312
f 305 312 306
f 307 309 308
f 307 314 347
f 307 347 321
f 307 321 309
f 309 321 310
f 311 330 348
f 312 346 349
f 312 349 350
f 312 350 351
f 312 351 352
f 312 352 313
f 313 352 353
f 313 353 354
f 313 354 355
f 313 355 356
f 313 356 314
f 314 356 357
f 314 357 323
f 314 323 358
f 314 358 321
f 314 321 347
f 317 359 327
f 317 327 318
f 321 358 323
f 321 323 322
f 323 357 324
f 324 357 333
f 324 332 325
f 325 332 326
f 326 332 360
f 326 360 331
f 327 359 328
f 328 361 329
f 328 359 361
f 329 361 362
f 329 362 330
f 330 362 348
f 331 360 332
f 333 357 363
f 333 363 364
f 333 364 365
f 333 365 334
f 334 365 336
f 334 336 335
f 336 365 337
f 337 365 366
f 337 366 338
f 338 366 367
f 338 367 368
f 338 368 369
f 338 369 370
f 338 370 339
f 339 370 340
f 340 370 371
f 341 372 342
f 342 372 373
f 342 373 344
f 342 344 343
f 344 346 345
f 344 373 374
f 344 374 349
f 344 349 375
f 344 375 346
f 346 375 349
f 349 374 376
f 349 376 350
f 350 376 377
f 350 377 378
f 350 378 353
f 350 353 351
f 351 353 352
f 353 378 379
f 353 379 354
f 354 379 380
f 354 380 381
f 354 381 355
f 355 381 382
f 355 382 357
f 355 357 356
f 357 382 363
f 363 382 383
f 363 383 364
f 364 384 367
f 364 367 365
f 364 383 382
f 364 382 385
f 364 385 384
f 365 367 366
f 367 384 378
f 367 378 368
f 368 386 387
f 368 387 369
f 368 378 388
f 368 388 404
f 368 404 386
f 369 387 389
f 369 389 390
f 369 390 370
f 370 390 371
f 372 391 374
f 372 374 373
f 374 392 393
f 374 393 376
f 374 391 392
f 376 393 394
f 376 394 395
f 376 395 377
f 377 395 396
f 377 396 378
f 378 385 397
f 378 397 379
f 378 396 398
f 378 398 399
f 378 399 400
f 378 400 401
f 378 401 388
f 378 384 385
f 379 397 402
f 379 402 403
f 379 403 380
f 380 403 381
f 381 403 402
f 381 402 382
f 382 402 397
f 382 397 385
f 388 401 404
f 395 405 398
f 395 398 396
f 398 405 406
f 398 406 399
f 399 406 407
f 399 407 400
f 400 407 408
f 400 408 409
f 400 409 401
f 401 409 410
f 401 410 404

