# https://github.com/mikedh/trimesh
v 0.02348603 -0.00807763 -0.00047421
v 0.02964694 -0.01019977 -0.00128333
v 0.02342283 -0.00807763 -0.00084006
v 0.02346256 -0.00807763 0.00033338
v 0.03277253 -0.01124146 0.00033338
v 0.03034573 -0.01049981 -0.00209244
v 0.02949346 -0.01020652 -0.00213646
v 0.02919372 -0.01008853 -0.00189813
v 0.03399135 -0.01172522 -0.00091293
v 0.02332172 -0.00807763 -0.00128333
v 0.02325852 -0.00807763 0.00114249
v 0.03277253 -0.01128192 0.00114249
v 0.03365550 -0.01160218 0.00112883
v 0.03358327 -0.01154992 0.00033338
v 0.03034573 -0.01059083 -0.00290155
v 0.03393899 -0.01174545 -0.00145335
v 0.02953679 -0.01031439 -0.00290155
v 0.02911246 -0.01011381 -0.00243855
v 0.03399677 -0.01172185 -0.00047270
v 0.03440124 -0.01191064 -0.00047270
v 0.03431276 -0.01188198 -0.00122109
v 0.02324949 -0.00807763 -0.00146245
v 0.02902760 -0.01014415 -0.00290155
v 0.02313754 -0.00807763 0.00153111
v 0.02953679 -0.01033462 0.00276223
v 0.03034573 -0.01060431 0.00276223
v 0.03397149 -0.01173365 0.00139145
v 0.03041434 -0.01062791 0.00276223
v 0.03399496 -0.01172354 0.00084951
v 0.03399857 -0.01172185 0.00033338
v 0.02833242 -0.01010538 -0.00412357
v 0.02844256 -0.01006998 -0.00371066
v 0.03098493 -0.01082681 -0.00290003
v 0.03086395 -0.01087569 -0.00343134
v 0.03510725 -0.01238092 -0.00209244
v 0.03439221 -0.01207751 -0.00209244
v 0.03138940 -0.01098694 -0.00290003
v 0.03440304 -0.01191232 0.00033338
v 0.03519934 -0.01230338 -0.00047270
v 0.03526976 -0.01235563 -0.00127118
v 0.03551172 -0.01257644 -0.00209244
v 0.02313754 -0.00807763 -0.00167498
v 0.02823311 -0.01000425 -0.00371066
v 0.02313754 -0.00812314 0.00194553
v 0.03088743 -0.01086726 0.00338463
v 0.02313754 -0.00820573 0.00268026
v 0.02313754 -0.00821585 0.00276223
v 0.03346952 -0.01162072 0.00195160
v 0.03387398 -0.01178085 0.00195160
v 0.03439221 -0.01202526 0.00195160
v 0.03508378 -0.01237754 0.00195160
v 0.03526254 -0.01236237 0.00109240
v 0.03431456 -0.01188198 0.00112883
v 0.03041434 -0.01092795 -0.00408410
v 0.03041434 -0.01104257 -0.00439681
v 0.03041434 -0.01109313 -0.00453040
v 0.02980945 -0.01096166 -0.00480972
v 0.02926956 -0.01087232 -0.00500706
v 0.02345714 -0.00929967 -0.00573268
v 0.02313754 -0.00904684 -0.00541086
v 0.02313754 -0.00874343 -0.00459719
v 0.02313754 -0.00871646 -0.00451826
v 0.02313754 -0.00854116 -0.00385184
v 0.02313754 -0.00845183 -0.00345260
v 0.02313754 -0.00815685 -0.00208637
v 0.03521559 -0.01265567 -0.00293343
v 0.03203402 -0.01149093 -0.00377594
v 0.03114202 -0.01108639 -0.00370459
v 0.03600827 -0.01300964 -0.00290003
v 0.03519934 -0.01230675 0.00033338
v 0.03562186 -0.01252756 -0.00047270
v 0.03561644 -0.01253093 -0.00099186
v 0.03558936 -0.01254779 -0.00153228
v 0.03600827 -0.01284782 -0.00209244
v 0.02313754 -0.00834564 0.00356983
v 0.03041434 -0.01074927 0.00361841
v 0.03071589 -0.01093132 0.00392353
v 0.03331062 -0.01167129 0.00257855
v 0.03493932 -0.01246520 0.00259525
v 0.03358147 -0.01186344 0.00281233
v 0.03653191 -0.01327596 0.00256489
v 0.03600827 -0.01287816 0.00195160
v 0.03557491 -0.01255622 0.00132921
v 0.03561283 -0.01253430 0.00079183
v 0.03115466 -0.01138979 -0.00451977
v 0.03157719 -0.01172185 -0.00493875
v 0.03115466 -0.01163252 -0.00510270
v 0.03041434 -0.01153138 -0.00543059
v 0.03065449 -0.01176568 -0.00568714
v 0.02313754 -0.00924068 -0.00579492
v 0.03642899 -0.01333664 -0.00332356
v 0.03404191 -0.01251239 -0.00418429
v 0.03235001 -0.01173702 -0.00409017
v 0.03176136 -0.01164263 -0.00451977
v 0.03650844 -0.01328776 -0.00290003
v 0.03561644 -0.01253093 0.00033338
v 0.03602633 -0.01274500 -0.00047270
v 0.03676484 -0.01314785 -0.00047270
v 0.03593605 -0.01272477 -0.00127118
v 0.03671970 -0.01316977 -0.00128181
v 0.03662761 -0.01321528 -0.00209244
v 0.02313754 -0.00835575 0.00362144
v 0.02340297 -0.00851082 0.00387192
v 0.03017600 -0.01083187 0.00420740
v 0.02989070 -0.01093300 0.00475086
v 0.03041434 -0.01101054 0.00442448
v 0.03216042 -0.01182636 0.00455959
v 0.03241140 -0.01171005 0.00401917
v 0.03258113 -0.01162746 0.00357135
v 0.03315172 -0.01174208 0.00311897
v 0.03446082 -0.01229664 0.00282144
v 0.03424595 -0.01240957 0.00357135
v 0.03520656 -0.01266578 0.00282144
v 0.03637302 -0.01337204 0.00310379
v 0.03680818 -0.01354734 0.00280474
v 0.03745822 -0.01398222 0.00276223
v 0.03798366 -0.01419629 0.00218690
v 0.03767851 -0.01392322 0.00193035
v 0.03702486 -0.01347486 0.00195160
v 0.03662039 -0.01322202 0.00195160
v 0.03606425 -0.01310403 0.00280474
v 0.03593243 -0.01274669 0.00109240
v 0.03714223 -0.01339564 0.00033338
v 0.03216583 -0.01181625 -0.00451977
v 0.03277253 -0.01207751 -0.00451977
v 0.03355980 -0.01240789 -0.00447879
v 0.03327631 -0.01249385 -0.00498126
v 0.03172886 -0.01243485 -0.00582073
v 0.03115466 -0.01228821 -0.00593306
v 0.03041434 -0.01208594 -0.00602415
v 0.03041434 -0.01172354 -0.00573268
v 0.02313754 -0.00962331 -0.00605299
v 0.03011280 -0.01167466 -0.00578581
v 0.02761738 -0.01168983 -0.00657367
v 0.02710638 -0.01160049 -0.00662984
v 0.02633897 -0.01148082 -0.00669967
v 0.03733363 -0.01407492 -0.00343438
v 0.03800533 -0.01498682 -0.00408258
v 0.03709528 -0.01424854 -0.00397328
v 0.03740405 -0.01483175 -0.00451977
v 0.03722167 -0.01496828 -0.00492509
v 0.03617800 -0.01351531 -0.00386398
v 0.03563992 -0.01332316 -0.00415241
v 0.03381801 -0.01264050 -0.00472319
v 0.03800172 -0.01417774 -0.00236720
v 0.03892983 -0.01490254 -0.00265867
v 0.03877635 -0.01502054 -0.00319757
v 0.03703208 -0.01347317 -0.00209244
v 0.03716931 -0.01338047 -0.00047270
v 0.03712236 -0.01340912 -0.00128181
v 0.02313754 -0.00861364 0.00433947
v 0.02958735 -0.01111673 0.00517439
v 0.03008571 -0.01165612 0.00566623
v 0.03035115 -0.01144879 0.00522752
v 0.03161872 -0.01170331 0.00482069
v 0.02313754 -0.00863893 0.00439867
v 0.02438164 -0.00925416 0.00484498
v 0.03384329 -0.01261016 0.00463701
v 0.03357786 -0.01237417 0.00437287
v 0.03408163 -0.01249216 0.00409962
v 0.03298741 -0.01181119 0.00357135
v 0.03358327 -0.01208594 0.00357135
v 0.03465042 -0.01261353 0.00357135
v 0.03620148 -0.01348834 0.00357135
v 0.03731557 -0.01409347 0.00329051
v 0.03579521 -0.01323888 0.00357135
v 0.03563089 -0.01333158 0.00400702
v 0.03818770 -0.01484692 0.00357135
v 0.03786268 -0.01427888 0.00276223
v 0.03837369 -0.01442890 0.00193035
v 0.03806492 -0.01413561 0.00164648
v 0.03896414 -0.01487558 0.00195160
v 0.03708445 -0.01343103 0.00114249
v 0.03810825 -0.01410526 0.00114249
v 0.03762614 -0.01371590 0.00033338
v 0.03479487 -0.01334844 -0.00492357
v 0.03425678 -0.01318157 -0.00507993
v 0.03226695 -0.01260004 -0.00567500
v 0.03277253 -0.01316134 -0.00590726
v 0.03218569 -0.01345632 -0.00646438
v 0.03164400 -0.01330630 -0.00657216
v 0.02990876 -0.01255285 -0.00653572
v 0.02313754 -0.01030428 -0.00647956
v 0.02629564 -0.01147407 -0.00670271
v 0.02936887 -0.01244328 -0.00660555
v 0.02872605 -0.01232192 -0.00667083
v 0.02710638 -0.01213145 -0.00688639
v 0.02633897 -0.01213145 -0.00700783
v 0.03823646 -0.01481321 -0.00354368
v 0.03811186 -0.01569982 -0.00499947
v 0.03780851 -0.01512841 -0.00451977
v 0.03754669 -0.01540485 -0.00509663
v 0.03681901 -0.01483006 -0.00505109
v 0.03574284 -0.01406650 -0.00500706
v 0.03627912 -0.01424517 -0.00480972
v 0.03519934 -0.01348160 -0.00475052
v 0.03768934 -0.01391985 -0.00209547
v 0.03806492 -0.01413392 -0.00182678
v 0.03837369 -0.01439687 -0.00209547
v 0.03899483 -0.01485029 -0.00209244
v 0.03940110 -0.01522955 -0.00209244
v 0.03970626 -0.01569814 -0.00262375
v 0.03925485 -0.01535765 -0.00290914
v 0.03899844 -0.01560543 -0.00371066
v 0.03885218 -0.01576556 -0.00412812
v 0.03840438 -0.01557341 -0.00444691
v 0.03815520 -0.01406987 0.00033338
v 0.03762614 -0.01368893 -0.00047270
v 0.03762614 -0.01375466 -0.00128181
v 0.02872605 -0.01103582 0.00543701
v 0.02953679 -0.01155835 0.00576794
v 0.02953679 -0.01200335 0.00617174
v 0.03005321 -0.01249216 0.00643588
v 0.03059491 -0.01262027 0.00634631
v 0.03115466 -0.01232866 0.00581045
v 0.03170719 -0.01246351 0.00567079
v 0.03358688 -0.01294221 0.00519261
v 0.03330520 -0.01248542 0.00485105
v 0.03062380 -0.01179096 0.00552506
v 0.02313754 -0.00906032 0.00506661
v 0.02386703 -0.00916988 0.00494213
v 0.03486168 -0.01330293 0.00483890
v 0.03436693 -0.01276860 0.00437287
v 0.03711153 -0.01423000 0.00382941
v 0.03683346 -0.01390805 0.00356527
v 0.03805408 -0.01495143 0.00399791
v 0.03539977 -0.01349003 0.00454896
v 0.03515961 -0.01320179 0.00431974
v 0.03859397 -0.01514527 0.00357135
v 0.03875829 -0.01503402 0.00296110
v 0.03846758 -0.01472893 0.00271821
v 0.03908873 -0.01478624 0.00114249
v 0.03851272 -0.01438339 0.00114249
v 0.03886844 -0.01494637 0.00242068
v 0.03937041 -0.01525989 0.00195160
v 0.03949139 -0.01512841 0.00114249
v 0.03449694 -0.01368387 -0.00539113
v 0.03378551 -0.01347991 -0.00561883
v 0.03324562 -0.01330461 -0.00577215
v 0.03519934 -0.01388782 -0.00516494
v 0.03519934 -0.01434799 -0.00557025
v 0.03283392 -0.01373612 -0.00635052
v 0.03314630 -0.01418280 -0.00652965
v 0.03260461 -0.01399570 -0.00662832
v 0.03193651 -0.01373612 -0.00669056
v 0.03115466 -0.01375129 -0.00685906
v 0.03115466 -0.01321359 -0.00662681
v 0.02313754 -0.01072062 -0.00671941
v 0.02313754 -0.01184659 -0.00732207
v 0.02313754 -0.01132237 -0.00705793
v 0.02872605 -0.01294390 -0.00696533
v 0.02823311 -0.01294221 -0.00704578
v 0.02633897 -0.01217528 -0.00702605
v 0.02629564 -0.01213145 -0.00701390
v 0.03865356 -0.01604537 -0.00466702
v 0.03884135 -0.01658475 -0.00492509
v 0.03840438 -0.01626112 -0.00508600
v 0.03761711 -0.01617684 -0.00553534
v 0.03710070 -0.01590378 -0.00567803
v 0.03622676 -0.01511998 -0.00563098
v 0.03568867 -0.01491266 -0.00577367
v 0.03598480 -0.01457891 -0.00531826
v 0.03811006 -0.01410021 -0.00128181
v 0.03851272 -0.01440698 -0.00128181
v 0.03903817 -0.01481152 -0.00128181
v 0.03944444 -0.01518404 -0.00128181
v 0.03975140 -0.01563409 -0.00209244
v 0.04045922 -0.01658812 -0.00166891
v 0.04061451 -0.01711740 -0.00209244
v 0.04051158 -0.01728933 -0.00262375
v 0.03984530 -0.01617010 -0.00289548
v 0.03958167 -0.01589198 -0.00316113
v 0.03940472 -0.01617010 -0.00371673
v 0.03896233 -0.01626112 -0.00444691
v 0.03815701 -0.01406144 -0.00047270
v 0.03856147 -0.01435979 0.00033338
v 0.02818074 -0.01095660 0.00554783
v 0.02823311 -0.01174882 0.00637060
v 0.02324768 -0.01017449 0.00633265
v 0.02521043 -0.01087738 0.00644195
v 0.02953679 -0.01294390 0.00673645
v 0.03033128 -0.01291019 0.00656795
v 0.03115466 -0.01375129 0.00677440
v 0.03115466 -0.01317988 0.00649508
v 0.02823311 -0.01177242 0.00638882
v 0.02770224 -0.01167129 0.00645106
v 0.02313754 -0.01122124 0.00707497
v 0.02313754 -0.01162240 0.00726472
v 0.03162955 -0.01331136 0.00642677
v 0.03216944 -0.01345969 0.00633113
v 0.03494474 -0.01407998 0.00566775
v 0.03332868 -0.01327090 0.00567079
v 0.03386857 -0.01340743 0.00553416
v 0.03439221 -0.01316640 0.00498160
v 0.02313754 -0.00940418 0.00547192
v 0.02386703 -0.00951037 0.00534745
v 0.02511654 -0.01009695 0.00560855
v 0.03548463 -0.01421988 0.00551139
v 0.03578798 -0.01402941 0.00497249
v 0.03632787 -0.01421651 0.00469317
v 0.03894066 -0.01567960 0.00408444
v 0.03725598 -0.01494300 0.00481310
v 0.03906525 -0.01554981 0.00357135
v 0.03951667 -0.01510144 0.00033338
v 0.03910859 -0.01476601 0.00033338
v 0.03966473 -0.01575882 0.00239942
v 0.03973154 -0.01566274 0.00195160
v 0.03982002 -0.01553127 0.00114249
v 0.03473890 -0.01419797 -0.00570232
v 0.03419900 -0.01401761 -0.00585109
v 0.03401483 -0.01494468 -0.00655698
v 0.03432540 -0.01540990 -0.00665868
v 0.03358327 -0.01476770 -0.00663743
v 0.03656080 -0.01566106 -0.00579948
v 0.03439221 -0.01618190 -0.00696988
v 0.03358327 -0.01537114 -0.00688943
v 0.03283392 -0.01449632 -0.00676039
v 0.03196540 -0.01456206 -0.00698506
v 0.03041434 -0.01375129 -0.00699569
v 0.02313754 -0.01188536 -0.00733421
v 0.02548670 -0.01213145 -0.00712472
v 0.02500459 -0.01256633 -0.00734787
v 0.02946998 -0.01382546 -0.00718544
v 0.02915760 -0.01414403 -0.00735850
v 0.02791531 -0.01294221 -0.00709588
v 0.02711541 -0.01299447 -0.00722795
v 0.03954375 -0.01757082 -0.00479606
v 0.03970626 -0.01810852 -0.00496456
v 0.03896233 -0.01699098 -0.00501314
v 0.03974237 -0.01724382 -0.00425715
v 0.03837188 -0.01704323 -0.00543515
v 0.03788255 -0.01681062 -0.00565678
v 0.03734265 -0.01644485 -0.00579341
v 0.03572117 -0.01647351 -0.00660252
v 0.03907789 -0.01478118 -0.00047270
v 0.03948055 -0.01514021 -0.00047270
v 0.03979113 -0.01558689 -0.00128181
v 0.04024796 -0.01624427 -0.00135164
v 0.04048089 -0.01655610 -0.00113000
v 0.04067590 -0.01690839 -0.00135164
v 0.04052422 -0.01804952 -0.00349358
v 0.04103884 -0.01779669 -0.00128181
v 0.04085466 -0.01779669 -0.00209244
v 0.04040325 -0.01751182 -0.00316113
v 0.04026421 -0.01700952 -0.00289548
v 0.03973154 -0.01643305 -0.00345260
v 0.04030032 -0.01778657 -0.00374406
v 0.03957084 -0.01670443 -0.00399150
v 0.02467596 -0.01003122 0.00568293
v 0.02386703 -0.00991323 0.00582107
v 0.02313754 -0.00985929 0.00600475
v 0.02313754 -0.01002447 0.00619603
v 0.02313754 -0.01031271 0.00647231
v 0.02467596 -0.01079478 0.00651026
v 0.02755779 -0.01332821 0.00722222
v 0.03041434 -0.01375298 0.00691558
v 0.02527724 -0.01245677 0.00724954
v 0.03196540 -0.01456206 0.00693076
v 0.03277253 -0.01456206 0.00674404
v 0.03192748 -0.01373949 0.00656946
v 0.02386703 -0.01067342 0.00659679
v 0.02313754 -0.01115044 0.00703398
v 0.02313754 -0.01212976 0.00740135
v 0.02467596 -0.01234889 0.00728901
v 0.03277253 -0.01403447 0.00647383
v 0.03318964 -0.01415246 0.00640855
v 0.03372773 -0.01430922 0.00631595
v 0.03520837 -0.01451823 0.00588331
v 0.03600827 -0.01480478 0.00572240
v 0.03642357 -0.01495817 0.00560399
v 0.03603716 -0.01438844 0.00521993
v 0.03949861 -0.01616842 0.00363207
v 0.03809923 -0.01571162 0.00483890
v 0.03864092 -0.01599143 0.00462183
v 0.03966293 -0.01737529 0.00479640
v 0.03963765 -0.01661004 0.00394478
v 0.03957987 -0.01588861 0.00293984
v 0.03984530 -0.01550598 0.00033338
v 0.03982363 -0.01554644 -0.00047270
v 0.03981821 -0.01616842 0.00270607
v 0.04004753 -0.01618190 0.00195160
v 0.04044297 -0.01662015 0.00129733
v 0.04026060 -0.01625944 0.00107266
v 0.04024977 -0.01615156 0.00033338
v 0.03488154 -0.01570657 -0.00658430
v 0.03516864 -0.01619538 -0.00670271
v 0.03541963 -0.01593412 -0.00645982
v 0.03519934 -0.01699098 -0.00697292
v 0.03439221 -0.01699098 -0.00717482
v 0.03358327 -0.01618190 -0.00715356
v 0.03277253 -0.01537114 -0.00707311
v 0.02446470 -0.01248205 -0.00737368
v 0.02313754 -0.01225113 -0.00742226
v 0.02739167 -0.01340406 -0.00734028
v 0.02685178 -0.01329956 -0.00737216
v 0.03216042 -0.01591052 -0.00732055
v 0.03041434 -0.01494974 -0.00736002
v 0.03012002 -0.01485872 -0.00738279
v 0.02946998 -0.01457891 -0.00740404
v 0.02872605 -0.01456206 -0.00746780
v 0.02872605 -0.01406818 -0.00738127
v 0.02791531 -0.01351194 -0.00730537
v 0.03988321 -0.01782366 -0.00452433
v 0.04043033 -0.01836304 -0.00403400
v 0.04023712 -0.01862262 -0.00446664
v 0.03980015 -0.01860408 -0.00503742
v 0.03888288 -0.01892097 -0.00576304
v 0.03874204 -0.01838158 -0.00567196
v 0.03858314 -0.01779669 -0.00557329
v 0.03805589 -0.01734832 -0.00574938
v 0.03763156 -0.01855688 -0.00639303
v 0.03718376 -0.01825348 -0.00652510
v 0.03645066 -0.01733821 -0.00656457
v 0.03675943 -0.01703818 -0.00630195
v 0.03625926 -0.01680051 -0.00646589
v 0.03599563 -0.01703818 -0.00667538
v 0.04022810 -0.01612965 -0.00047270
v 0.04049353 -0.01653587 -0.00047270
v 0.04074813 -0.01699098 -0.00047270
v 0.04108398 -0.01779669 -0.00047270
v 0.04055853 -0.01862262 -0.00374406
v 0.04123385 -0.01847260 -0.00047270
v 0.04127357 -0.01897828 -0.00089167
v 0.04117065 -0.01866645 -0.00120894
v 0.04096481 -0.01860408 -0.00209244
v 0.04077160 -0.01860408 -0.00290003
v 0.02313754 -0.01050149 0.00662563
v 0.03196540 -0.01699098 0.00746055
v 0.03277253 -0.01699098 0.00738920
v 0.03234098 -0.01578916 0.00721159
v 0.03203041 -0.01539136 0.00715846
v 0.03115466 -0.01456206 0.00705979
v 0.02467596 -0.01294053 0.00741045
v 0.03277253 -0.01537114 0.00704005
v 0.03358327 -0.01537114 0.00685637
v 0.03442652 -0.01532225 0.00660438
v 0.03417914 -0.01485198 0.00646472
v 0.03350744 -0.01457217 0.00652999
v 0.02313754 -0.01294053 0.00753341
v 0.02386703 -0.01294053 0.00747725
v 0.03472084 -0.01501885 0.00637971
v 0.03519934 -0.01518067 0.00630532
v 0.03442652 -0.01457217 0.00621880
v 0.03596133 -0.01543013 0.00613531
v 0.03619787 -0.01592064 0.00632658
v 0.03710250 -0.01667409 0.00634328
v 0.03771101 -0.01690333 0.00606851
v 0.03741669 -0.01618190 0.00575276
v 0.03782476 -0.01618190 0.00542790
v 0.03974599 -0.01642968 0.00340588
v 0.03889010 -0.01653250 0.00482524
v 0.03802158 -0.01659655 0.00558730
v 0.03977127 -0.01779669 0.00493909
v 0.04006739 -0.01779669 0.00438046
v 0.03975501 -0.01719662 0.00438046
v 0.03919526 -0.01706177 0.00496338
v 0.03880704 -0.01743934 0.00556756
v 0.03926929 -0.01774275 0.00537477
v 0.04035449 -0.01775118 0.00364573
v 0.04042852 -0.01745283 0.00307495
v 0.04052422 -0.01728427 0.00253605
v 0.04037435 -0.01673477 0.00195160
v 0.04046283 -0.01658307 0.00075843
v 0.04060006 -0.01713762 0.00195160
v 0.04095397 -0.01779669 0.00195160
v 0.04061812 -0.01693030 0.00107266
v 0.04070479 -0.01699098 0.00033338
v 0.04047728 -0.01655610 0.00033338
v 0.03736252 -0.01879455 -0.00661618
v 0.03600827 -0.01779669 -0.00687273
v 0.03519934 -0.01779669 -0.00709284
v 0.03439221 -0.01779669 -0.00724313
v 0.03334673 -0.01718819 -0.00738582
v 0.03360314 -0.01694547 -0.00730537
v 0.03311561 -0.01664881 -0.00734484
v 0.03257752 -0.01645159 -0.00738734
v 0.03281767 -0.01618190 -0.00728108
v 0.02471207 -0.01287816 -0.00744351
v 0.02313754 -0.01230506 -0.00743440
v 0.02823311 -0.01397548 -0.00740252
v 0.02629564 -0.01375129 -0.00751182
v 0.03191846 -0.01618190 -0.00741770
v 0.03115466 -0.01618190 -0.00750423
v 0.03041434 -0.01537451 -0.00744199
v 0.02953679 -0.01537114 -0.00752245
v 0.02823311 -0.01487726 -0.00755129
v 0.02791531 -0.01456206 -0.00753004
v 0.04047908 -0.01890074 -0.00416455
v 0.04026421 -0.01941484 -0.00463059
v 0.03985974 -0.01941484 -0.00508145
v 0.03845855 -0.01863273 -0.00593458
v 0.03931082 -0.01941484 -0.00548524
v 0.03890816 -0.01941484 -0.00577974
v 0.03843688 -0.01941484 -0.00610157
v 0.03787713 -0.01941484 -0.00645982
v 0.03661497 -0.01779669 -0.00663743
v 0.04103523 -0.01779669 0.00114249
v 0.04106051 -0.01779669 0.00033338
v 0.04124468 -0.01834113 0.00114249
v 0.04123927 -0.01837315 0.00033338
v 0.04073910 -0.02022224 -0.00371066
v 0.04142705 -0.01941484 0.00033338
v 0.04155526 -0.02022224 0.00033338
v 0.04144872 -0.02022224 -0.00047270
v 0.04131691 -0.02022224 -0.00108446
v 0.02313754 -0.01375129 0.00762601
v 0.03115466 -0.01699098 0.00750305
v 0.03277253 -0.01779669 0.00745296
v 0.03358327 -0.01779669 0.00739527
v 0.03438860 -0.01779163 0.00728749
v 0.03354174 -0.01700615 0.00727687
v 0.03324562 -0.01653250 0.00722677
v 0.03277253 -0.01594592 0.00717819
v 0.03354174 -0.01622910 0.00710685
v 0.03519934 -0.01699098 0.00697630
v 0.03439221 -0.01618190 0.00692772
v 0.03600827 -0.01699098 0.00680931
v 0.03519934 -0.01618190 0.00673645
v 0.03596133 -0.01618864 0.00653151
v 0.03519934 -0.01558352 0.00649508
v 0.03565798 -0.01574028 0.00642221
v 0.03656261 -0.01646002 0.00646320
v 0.03739502 -0.01721010 0.00649963
v 0.03793491 -0.01757250 0.00633113
v 0.03826715 -0.01713425 0.00579071
v 0.04069396 -0.01775118 0.00278956
v 0.03992294 -0.01860408 0.00511215
v 0.04035269 -0.01853160 0.00439108
v 0.04045561 -0.01821471 0.00396452
v 0.03955459 -0.01860408 0.00551595
v 0.03901289 -0.01797536 0.00571177
v 0.04056576 -0.01799053 0.00342562
v 0.04103884 -0.01860408 0.00276223
v 0.04122843 -0.01857374 0.00202599
v 0.03747086 -0.01941484 -0.00665565
v 0.03681901 -0.01941484 -0.00685451
v 0.03687499 -0.01855688 -0.00673307
v 0.03600827 -0.01860408 -0.00698658
v 0.03345688 -0.01779669 -0.00740100
v 0.03519934 -0.01860408 -0.00712928
v 0.03277253 -0.01779669 -0.00747842
v 0.03196540 -0.01699098 -0.00752548
v 0.03281767 -0.01694547 -0.00742833
v 0.02386703 -0.01294053 -0.00751941
v 0.02313754 -0.01294053 -0.00757254
v 0.02386703 -0.01375129 -0.00768184
v 0.02633897 -0.01456037 -0.00764085
v 0.03041434 -0.01618190 -0.00756191
v 0.02872605 -0.01537114 -0.00758013
v 0.04050978 -0.01941484 -0.00422528
v 0.04055673 -0.02022224 -0.00428144
v 0.04024435 -0.02022224 -0.00468676
v 0.03983988 -0.02022224 -0.00506475
v 0.03888649 -0.02004694 -0.00576608
v 0.03851272 -0.02027786 -0.00599379
v 0.03741307 -0.02006379 -0.00662377
v 0.04130608 -0.01882489 0.00180739
v 0.04131691 -0.01874735 0.00114249
v 0.04147039 -0.02103469 -0.00047270
v 0.04093230 -0.02103469 -0.00290003
v 0.04073007 -0.02103469 -0.00371066
v 0.04142344 -0.01941484 0.00114249
v 0.04152998 -0.02022224 0.00114249
v 0.04158234 -0.02103469 0.00033338
v 0.02313754 -0.01456037 0.00769433
v 0.02386703 -0.01456037 0.00766093
v 0.03034573 -0.01698929 0.00754100
v 0.03358327 -0.01860408 0.00736643
v 0.03576090 -0.01914684 0.00724043
v 0.03576090 -0.01885860 0.00724043
v 0.03196540 -0.01779669 0.00748180
v 0.03494655 -0.01805627 0.00724195
v 0.03411775 -0.01728427 0.00723740
v 0.03438860 -0.01700615 0.00712810
v 0.03600827 -0.01779669 0.00700362
v 0.03681901 -0.01779669 0.00685030
v 0.03682624 -0.01696064 0.00658616
v 0.03764962 -0.01782534 0.00656491
v 0.03807575 -0.01811189 0.00643132
v 0.03961237 -0.01941484 0.00555693
v 0.03997530 -0.01941484 0.00515162
v 0.04038158 -0.01941484 0.00465067
v 0.04061090 -0.01941484 0.00424687
v 0.04052784 -0.01875241 0.00412998
v 0.04067048 -0.01853160 0.00364573
v 0.03915012 -0.01860408 0.00580741
v 0.03864453 -0.01941484 0.00629318
v 0.03920609 -0.01941484 0.00588787
v 0.04119954 -0.01934236 0.00274554
v 0.04126996 -0.01902716 0.00234629
v 0.04092869 -0.01941484 0.00357135
v 0.03687499 -0.02028966 -0.00669664
v 0.03600827 -0.02022224 -0.00688184
v 0.03600827 -0.01941484 -0.00700783
v 0.03385593 -0.01860408 -0.00733725
v 0.03345146 -0.01860408 -0.00739038
v 0.03439221 -0.01860408 -0.00725831
v 0.03439221 -0.01941484 -0.00725527
v 0.03333951 -0.01926988 -0.00737216
v 0.03277253 -0.01860408 -0.00744199
v 0.03196540 -0.01779669 -0.00752548
v 0.03115466 -0.01699098 -0.00757406
v 0.03041434 -0.01624932 -0.00756799
v 0.02313754 -0.01375129 -0.00773042
v 0.02548670 -0.01456037 -0.00769398
v 0.03034573 -0.01618190 -0.00756647
v 0.04054048 -0.02103469 -0.00423742
v 0.04017393 -0.02103469 -0.00464274
v 0.03976765 -0.02103469 -0.00500858
v 0.03883232 -0.02058464 -0.00572965
v 0.03874926 -0.02103469 -0.00567955
v 0.03834299 -0.02103469 -0.00592244
v 0.03766045 -0.02028966 -0.00645375
v 0.03718376 -0.02060149 -0.00653572
v 0.03762614 -0.02103469 -0.00624122
v 0.04136205 -0.02176454 -0.00047270
v 0.04130066 -0.02160441 -0.00101160
v 0.04101356 -0.02184376 -0.00209244
v 0.04080410 -0.02184376 -0.00290003
v 0.04048811 -0.02148137 -0.00415393
v 0.04151914 -0.02103469 0.00114249
v 0.04141983 -0.02022224 0.00195160
v 0.04140900 -0.02183534 0.00033338
v 0.02313754 -0.01537114 0.00770040
v 0.02386703 -0.01537114 0.00769433
v 0.02710638 -0.01618021 0.00762146
v 0.02953679 -0.01698929 0.00756985
v 0.03115466 -0.01779669 0.00749091
v 0.03041434 -0.01779669 0.00749546
v 0.02872605 -0.01779332 0.00750305
v 0.02791531 -0.01779500 0.00750609
v 0.02710638 -0.01779500 0.00750761
v 0.03277253 -0.01860408 0.00736795
v 0.03439221 -0.01924123 0.00725713
v 0.03519934 -0.01922606 0.00725410
v 0.03519934 -0.01963228 0.00717819
v 0.03600827 -0.02022224 0.00699299
v 0.03601911 -0.01941653 0.00715998
v 0.03681901 -0.01941484 0.00699907
v 0.03681901 -0.01860408 0.00697174
v 0.03601911 -0.01859397 0.00714935
v 0.03548824 -0.01831585 0.00719338
v 0.02872605 -0.01698929 0.00758503
v 0.03465945 -0.01752194 0.00718882
v 0.03762614 -0.01860408 0.00669850
v 0.03814437 -0.01860408 0.00646927
v 0.03855064 -0.01860408 0.00621424
v 0.03959612 -0.02022224 0.00553872
v 0.03997530 -0.02022224 0.00513340
v 0.04038158 -0.02022224 0.00469469
v 0.03919165 -0.02022224 0.00591215
v 0.04070298 -0.02022224 0.00428938
v 0.04108037 -0.02022224 0.00357135
v 0.03823826 -0.01941484 0.00650115
v 0.03859397 -0.02022224 0.00631595
v 0.04124468 -0.02022224 0.00301119
v 0.04131330 -0.02022224 0.00260739
v 0.03664386 -0.02078185 -0.00659189
v 0.03568687 -0.02148979 -0.00656153
v 0.03519934 -0.02103469 -0.00679227
v 0.03519934 -0.02022224 -0.00702757
v 0.03519934 -0.01941484 -0.00713231
v 0.03359952 -0.01948901 -0.00733876
v 0.03439221 -0.02022224 -0.00714597
v 0.03277253 -0.01976713 -0.00734787
v 0.03277253 -0.01936259 -0.00738734
v 0.03196540 -0.01860408 -0.00747235
v 0.03041434 -0.01779669 -0.00757709
v 0.03041434 -0.01706009 -0.00760290
v 0.03041434 -0.01699098 -0.00760442
v 0.03041434 -0.01698929 -0.00760442
v 0.02791531 -0.01618021 -0.00767880
v 0.02872605 -0.01618190 -0.00764389
v 0.02629564 -0.01537114 -0.00771220
v 0.02467596 -0.01456037 -0.00773649
v 0.02313754 -0.01383052 -0.00773952
v 0.03968821 -0.02151508 -0.00494938
v 0.03924582 -0.02103469 -0.00535773
v 0.03927651 -0.02180668 -0.00514672
v 0.03844772 -0.02189770 -0.00560820
v 0.03818590 -0.02166172 -0.00581466
v 0.03683707 -0.02268150 -0.00589511
v 0.03681901 -0.02184376 -0.00619417
v 0.03597577 -0.02179151 -0.00640821
v 0.03767851 -0.02189770 -0.00592396
v 0.03798005 -0.02220279 -0.00571902
v 0.04125552 -0.02217077 -0.00047270
v 0.04101175 -0.02265116 -0.00128181
v 0.04119412 -0.02186062 -0.00128333
v 0.04083299 -0.02265116 -0.00209244
v 0.04056756 -0.02178646 -0.00366057
v 0.04049172 -0.02230056 -0.00335544
v 0.04030755 -0.02202244 -0.00389586
v 0.03976765 -0.02241518 -0.00427841
v 0.03956722 -0.02205278 -0.00481883
v 0.04058020 -0.02260228 -0.00285601
v 0.04130608 -0.02079028 0.00258159
v 0.04130427 -0.02151845 0.00169202
v 0.04136566 -0.02169375 0.00114249
v 0.04126816 -0.02223988 0.00033338
v 0.04109301 -0.02265116 -0.00047270
v 0.02313754 -0.01617853 0.00766397
v 0.02386703 -0.01617853 0.00766397
v 0.02633897 -0.01618021 0.00764119
v 0.02633897 -0.01617853 0.00764119
v 0.02823311 -0.01698929 0.00758958
v 0.02633897 -0.01698761 0.00760173
v 0.02467596 -0.01698761 0.00760780
v 0.02633897 -0.01779500 0.00750609
v 0.02791531 -0.01860408 0.00736947
v 0.03034573 -0.01966768 0.00718882
v 0.03041434 -0.01966768 0.00718882
v 0.03277253 -0.01925808 0.00725713
v 0.03439221 -0.01964408 0.00718123
v 0.03277253 -0.01966431 0.00718730
v 0.03358327 -0.01965588 0.00718427
v 0.03277253 -0.02022224 0.00705523
v 0.03439221 -0.02022224 0.00704157
v 0.03519934 -0.02022224 0.00703398
v 0.03573742 -0.02227865 0.00642829
v 0.03600827 -0.02103469 0.00676074
v 0.03681901 -0.02022224 0.00685334
v 0.03519934 -0.02103469 0.00682146
v 0.03762614 -0.02022224 0.00663626
v 0.03818770 -0.02022224 0.00646320
v 0.03762614 -0.01941484 0.00674100
v 0.04026421 -0.02103469 0.00459146
v 0.04065243 -0.02103469 0.00418767
v 0.03905261 -0.02103469 0.00578616
v 0.03945708 -0.02103469 0.00540361
v 0.04098647 -0.02103469 0.00357135
v 0.03807214 -0.02065543 0.00641462
v 0.03838091 -0.02096895 0.00618388
v 0.03622495 -0.02132124 -0.00650688
v 0.03600827 -0.02265116 -0.00609398
v 0.03519934 -0.02157239 -0.00660404
v 0.03439221 -0.02103469 -0.00686969
v 0.03358327 -0.02022224 -0.00718848
v 0.03277253 -0.02022224 -0.00715812
v 0.03196540 -0.01971488 -0.00733573
v 0.02663871 -0.01901536 -0.00735698
v 0.02633897 -0.01866645 -0.00742985
v 0.02823311 -0.01860408 -0.00749512
v 0.02633897 -0.01783714 -0.00761353
v 0.02629564 -0.01779500 -0.00762112
v 0.02710638 -0.01779500 -0.00762719
v 0.02791531 -0.01779500 -0.00762719
v 0.02823311 -0.01779500 -0.00762567
v 0.02872605 -0.01779332 -0.00762112
v 0.03115466 -0.01860408 -0.00749664
v 0.02953679 -0.01779332 -0.00760442
v 0.02953679 -0.01698929 -0.00763174
v 0.02710638 -0.01618021 -0.00770309
v 0.02548670 -0.01537114 -0.00774560
v 0.02313754 -0.01456037 -0.00780632
v 0.02386703 -0.01456037 -0.00777596
v 0.03902733 -0.02247923 -0.00506930
v 0.03711875 -0.02296973 -0.00569170
v 0.03657886 -0.02312649 -0.00578581
v 0.03767851 -0.02268150 -0.00560669
v 0.03848564 -0.02271015 -0.00523477
v 0.04080230 -0.02346192 0.00033338
v 0.04067951 -0.02336922 -0.00128181
v 0.04059284 -0.02322257 -0.00209244
v 0.04049895 -0.02310289 -0.00255392
v 0.04030574 -0.02283994 -0.00309434
v 0.03955820 -0.02295625 -0.00400820
v 0.03929277 -0.02271858 -0.00457898
v 0.04119954 -0.02104817 0.00281385
v 0.04124468 -0.02132798 0.00223092
v 0.04092869 -0.02184376 0.00276223
v 0.04101356 -0.02265116 0.00114249
v 0.04111648 -0.02265116 0.00033338
v 0.02313754 -0.01698761 0.00757592
v 0.02386703 -0.01698761 0.00759717
v 0.02953679 -0.01966599 0.00718730
v 0.02548670 -0.01779500 0.00749243
v 0.03196540 -0.02022224 0.00705827
v 0.03196540 -0.01966937 0.00718730
v 0.03439221 -0.02103469 0.00682753
v 0.03600827 -0.02187748 0.00651633
v 0.03541602 -0.02227865 0.00642829
v 0.03573020 -0.02306750 0.00560551
v 0.03626829 -0.02304727 0.00558274
v 0.03681901 -0.02302199 0.00555542
v 0.03762614 -0.02296636 0.00549773
v 0.03762614 -0.02256014 0.00578768
v 0.03627732 -0.02217077 0.00637667
v 0.03662039 -0.02162970 0.00646320
v 0.04052964 -0.02157070 0.00404497
v 0.03844772 -0.02182017 0.00579830
v 0.03818590 -0.02243203 0.00569052
v 0.03890094 -0.02153699 0.00565105
v 0.03982002 -0.02265116 0.00413302
v 0.04005114 -0.02182859 0.00437135
v 0.04065243 -0.02184208 0.00358197
v 0.04052964 -0.02241518 0.00331632
v 0.03762614 -0.02184376 0.00611861
v 0.03600827 -0.02317200 -0.00583287
v 0.03519934 -0.02265116 -0.00611067
v 0.03519934 -0.02197861 -0.00643705
v 0.03439221 -0.02159430 -0.00662377
v 0.03358327 -0.02103469 -0.00683781
v 0.03196540 -0.02022224 -0.00711409
v 0.03115466 -0.01967274 -0.00731599
v 0.02633897 -0.01899176 -0.00735091
v 0.02467596 -0.01779500 -0.00758165
v 0.02548670 -0.01779500 -0.00760442
v 0.02710638 -0.01860408 -0.00746476
v 0.02313754 -0.01698761 -0.00770309
v 0.02386703 -0.01698761 -0.00770916
v 0.02548670 -0.01698761 -0.00771827
v 0.02629564 -0.01698761 -0.00771524
v 0.02710638 -0.01698761 -0.00770006
v 0.02791531 -0.01698761 -0.00767880
v 0.02633897 -0.01618021 -0.00772434
v 0.02633897 -0.01617853 -0.00772434
v 0.02467596 -0.01537114 -0.00776989
v 0.02313754 -0.01463959 -0.00780784
v 0.03878718 -0.02301862 -0.00487499
v 0.03824729 -0.02317032 -0.00504198
v 0.03762614 -0.02330685 -0.00518164
v 0.03683526 -0.02347035 -0.00533496
v 0.03655178 -0.02391197 -0.00498126
v 0.04053506 -0.02394905 0.00094818
v 0.04054950 -0.02396085 0.00033338
v 0.04050436 -0.02391029 -0.00025106
v 0.04042311 -0.02383949 -0.00078997
v 0.04030213 -0.02377544 -0.00128181
v 0.04003309 -0.02365408 -0.00210306
v 0.04004392 -0.02328325 -0.00285601
v 0.03976585 -0.02315515 -0.00346929
v 0.04040505 -0.02295625 0.00301119
v 0.04059826 -0.02267138 0.00275009
v 0.04066868 -0.02351586 0.00118651
v 0.02313754 -0.01779500 0.00739527
v 0.02386703 -0.01779500 0.00743626
v 0.02467596 -0.01779500 0.00746966
v 0.02791531 -0.01917381 0.00725713
v 0.02872605 -0.01963397 0.00717516
v 0.03115466 -0.02022224 0.00704764
v 0.03358327 -0.02103469 0.00682297
v 0.03544310 -0.02306750 0.00560551
v 0.02823311 -0.01960026 0.00715694
v 0.02791531 -0.01957834 0.00714480
v 0.02872605 -0.02022224 0.00689736
v 0.02823311 -0.02022392 0.00684878
v 0.02791531 -0.02022392 0.00681690
v 0.02710638 -0.02022392 0.00672886
v 0.02548670 -0.02012447 0.00660438
v 0.02467596 -0.02004188 0.00656036
v 0.02386703 -0.01996097 0.00651330
v 0.02612771 -0.02058969 0.00637364
v 0.03487612 -0.02222639 0.00639185
v 0.03439221 -0.02260902 0.00594707
v 0.03439221 -0.02301187 0.00555238
v 0.03490321 -0.02305064 0.00558881
v 0.03519934 -0.02382264 0.00471139
v 0.03762614 -0.02323605 0.00509393
v 0.03827618 -0.02315346 0.00496794
v 0.04038699 -0.02211009 0.00385825
v 0.03850008 -0.02273544 0.00523056
v 0.03872759 -0.02207469 0.00549470
v 0.03968098 -0.02307930 0.00400247
v 0.04024074 -0.02267138 0.00358197
v 0.03617259 -0.02391197 -0.00498126
v 0.03519934 -0.02313661 -0.00581162
v 0.03358327 -0.02193142 -0.00638240
v 0.03439221 -0.02200052 -0.00641884
v 0.02609701 -0.01897322 -0.00734484
v 0.02386703 -0.01779500 -0.00754673
v 0.02313754 -0.01706514 -0.00768791
v 0.02313754 -0.01625775 -0.00778203
v 0.02313754 -0.01617853 -0.00778810
v 0.02386703 -0.01617853 -0.00777596
v 0.02386703 -0.01537114 -0.00778810
v 0.02313754 -0.01537114 -0.00780176
v 0.03901650 -0.02317369 -0.00433609
v 0.03804686 -0.02387489 -0.00412964
v 0.03762614 -0.02399962 -0.00428448
v 0.03762614 -0.02371139 -0.00468979
v 0.03708986 -0.02381589 -0.00486740
v 0.03681901 -0.02413110 -0.00456683
v 0.03687860 -0.02458452 -0.00371825
v 0.03594507 -0.02412267 -0.00459719
v 0.04048992 -0.02311132 0.00247077
v 0.04042491 -0.02382264 0.00148709
v 0.04011615 -0.02416312 0.00118651
v 0.03950042 -0.02458115 0.00114249
v 0.04005656 -0.02428954 0.00033338
v 0.04011434 -0.02407716 -0.00050002
v 0.03989766 -0.02399119 -0.00128181
v 0.03974779 -0.02391029 -0.00184196
v 0.03958167 -0.02383106 -0.00238238
v 0.03928554 -0.02373667 -0.00296531
v 0.03926929 -0.02334225 -0.00372736
v 0.03983627 -0.02320740 0.00357135
v 0.02313754 -0.01825179 0.00726776
v 0.02467596 -0.01847766 0.00729205
v 0.02592367 -0.01900356 0.00721463
v 0.02710638 -0.01910638 0.00724651
v 0.02548670 -0.01896142 0.00720248
v 0.03439221 -0.02381758 0.00469773
v 0.03518489 -0.02335067 0.00526699
v 0.02467596 -0.01888220 0.00717668
v 0.02467596 -0.01941484 0.00692468
v 0.02386703 -0.01941484 0.00684726
v 0.02313754 -0.01941484 0.00675315
v 0.02313754 -0.01988343 0.00645713
v 0.02548670 -0.02052901 0.00631747
v 0.03115466 -0.02232584 0.00567534
v 0.03277253 -0.02246912 0.00581196
v 0.03196540 -0.02239832 0.00574517
v 0.03439221 -0.02341304 0.00514707
v 0.03358327 -0.02294445 0.00548103
v 0.03519934 -0.02404345 0.00430607
v 0.03600827 -0.02377038 0.00460665
v 0.03785004 -0.02383781 0.00391898
v 0.03681901 -0.02370633 0.00448368
v 0.03759906 -0.02366756 0.00431518
v 0.03843688 -0.02460137 0.00222333
v 0.03894788 -0.02474296 0.00166166
v 0.03890455 -0.02389512 0.00321461
v 0.03881427 -0.02303716 0.00476756
v 0.03971529 -0.02391029 0.00244041
v 0.03924582 -0.02318043 0.00418463
v 0.03920429 -0.02358666 0.00351822
v 0.03944444 -0.02377713 0.00298083
v 0.03563270 -0.02386140 -0.00491598
v 0.03519934 -0.02349058 -0.00532889
v 0.03470278 -0.02307930 -0.00575849
v 0.02313754 -0.01977893 -0.00651295
v 0.02349145 -0.01981433 -0.00654180
v 0.02755237 -0.02062172 -0.00654028
v 0.02809227 -0.02067397 -0.00657367
v 0.02823311 -0.02048519 -0.00669360
v 0.02633897 -0.01933899 -0.00716115
v 0.02548670 -0.01941484 -0.00703364
v 0.02548670 -0.01889906 -0.00731903
v 0.02313754 -0.01822819 -0.00736912
v 0.02386703 -0.01830742 -0.00739948
v 0.02313754 -0.01785737 -0.00748450
v 0.03882510 -0.02385635 -0.00328258
v 0.03863551 -0.02374510 -0.00371066
v 0.03823284 -0.02397434 -0.00371066
v 0.03762614 -0.02429966 -0.00371066
v 0.03719459 -0.02466880 -0.00328106
v 0.03665289 -0.02472611 -0.00345411
v 0.03620509 -0.02472611 -0.00345411
v 0.03596494 -0.02457272 -0.00371825
v 0.03519934 -0.02405693 -0.00443932
v 0.03519934 -0.02381589 -0.00484463
v 0.03987599 -0.02401985 0.00195160
v 0.03909595 -0.02482050 0.00114249
v 0.03950042 -0.02459969 0.00033338
v 0.03909595 -0.02480870 0.00033338
v 0.03894608 -0.02472611 -0.00024651
v 0.03924582 -0.02429966 -0.00128181
v 0.03838452 -0.02447664 -0.00205601
v 0.03928554 -0.02404850 -0.00210306
v 0.02313754 -0.01831079 0.00724954
v 0.03439221 -0.02401985 0.00429241
v 0.03358327 -0.02333382 0.00507724
v 0.03064547 -0.02227527 0.00562525
v 0.02667844 -0.02144428 0.00560248
v 0.02329283 -0.02066892 0.00564043
v 0.02313754 -0.02079870 0.00540513
v 0.02313754 -0.02091164 0.00523967
v 0.03358327 -0.02374004 0.00452315
v 0.02386703 -0.01879455 0.00714328
v 0.02313754 -0.01871533 0.00710533
v 0.02313754 -0.02034023 0.00596832
v 0.02386703 -0.02036383 0.00612164
v 0.02467596 -0.02044642 0.00622639
v 0.03519934 -0.02437214 0.00357135
v 0.03600827 -0.02459632 0.00299449
v 0.03600827 -0.02431483 0.00357135
v 0.03600827 -0.02398951 0.00420133
v 0.03795477 -0.02466543 0.00233263
v 0.03843688 -0.02482050 0.00181802
v 0.03843688 -0.02505480 0.00114249
v 0.03221278 -0.02309110 -0.00497215
v 0.02313754 -0.02084759 -0.00523021
v 0.02313754 -0.02054924 -0.00562946
v 0.02413968 -0.02065880 -0.00577519
v 0.02313754 -0.02020370 -0.00604236
v 0.02313754 -0.02014639 -0.00610764
v 0.02313754 -0.01981938 -0.00646893
v 0.02313754 -0.01944687 -0.00672092
v 0.02467596 -0.01941484 -0.00693345
v 0.02633897 -0.02011773 -0.00670574
v 0.02313754 -0.01937945 -0.00676191
v 0.02313754 -0.01857205 -0.00720214
v 0.02313754 -0.01792985 -0.00746324
v 0.03681901 -0.02503963 -0.00209244
v 0.03687860 -0.02481713 -0.00296379
v 0.03807936 -0.02469914 -0.00176454
v 0.03822743 -0.02476319 -0.00128181
v 0.03848564 -0.02485590 -0.00049698
v 0.03843688 -0.02506322 0.00033338
v 0.03762614 -0.02497557 -0.00128181
v 0.03600827 -0.02509188 -0.00209244
v 0.03596494 -0.02483230 -0.00295620
v 0.03519934 -0.02474634 -0.00269206
v 0.02386703 -0.02177634 -0.00371218
v 0.02331269 -0.02147631 -0.00419947
v 0.03387037 -0.02389680 -0.00417214
v 0.03439221 -0.02395917 -0.00428448
v 0.03167469 -0.02303041 -0.00487348
v 0.03878538 -0.02465026 -0.00078541
v 0.03863370 -0.02458115 -0.00128181
v 0.03439221 -0.02428112 0.00357135
v 0.03358327 -0.02392377 0.00411784
v 0.02467596 -0.02082062 0.00582259
v 0.02386703 -0.02073297 0.00571633
v 0.02313754 -0.02046665 0.00582866
v 0.02313754 -0.02135158 0.00444422
v 0.02371716 -0.02138866 0.00466129
v 0.02425705 -0.02144260 0.00479033
v 0.03519934 -0.02460137 0.00292011
v 0.03600827 -0.02502108 0.00195160
v 0.03600827 -0.02477668 0.00258918
v 0.03681901 -0.02499917 0.00195160
v 0.03681901 -0.02474465 0.00249658
v 0.03741488 -0.02470757 0.00241612
v 0.03766226 -0.02486433 0.00201840
v 0.03762614 -0.02517616 0.00114249
v 0.03762614 -0.02522673 0.00033338
v 0.02445025 -0.02140046 -0.00485830
v 0.02499014 -0.02145945 -0.00495393
v 0.02313754 -0.02088973 -0.00516646
v 0.03762614 -0.02513570 -0.00047270
v 0.03681901 -0.02518121 -0.00128181
v 0.03600827 -0.02521155 -0.00128181
v 0.03519934 -0.02505311 -0.00128181
v 0.03519934 -0.02493175 -0.00209244
v 0.02386703 -0.02202075 -0.00290307
v 0.02313754 -0.02159598 -0.00373799
v 0.02313754 -0.02145440 -0.00414330
v 0.02313754 -0.02133809 -0.00439226
v 0.02313754 -0.02127572 -0.00451674
v 0.02386703 -0.02154036 -0.00433002
v 0.02386703 -0.02133641 -0.00473534
v 0.03519934 -0.02490478 0.00195160
v 0.03519934 -0.02473791 0.00251479
v 0.03315533 -0.02387320 0.00399032
v 0.02313754 -0.02163981 0.00363359
v 0.02320615 -0.02149654 0.00412087
v 0.02313754 -0.02144597 0.00420588
v 0.03600827 -0.02520650 0.00114249
v 0.03681901 -0.02524358 0.00114249
v 0.03681901 -0.02529583 0.00033338
v 0.03681901 -0.02526044 -0.00047270
v 0.03600827 -0.02523178 -0.00047270
v 0.03600827 -0.02524358 0.00033338
v 0.03519934 -0.02505985 -0.00047270
v 0.02352576 -0.02223313 -0.00047421
v 0.02359979 -0.02221796 -0.00128333
v 0.02313754 -0.02202075 -0.00197555
v 0.03394621 -0.02468903 -0.00172659
v 0.02430761 -0.02224156 -0.00243248
v 0.02313754 -0.02184714 -0.00290307
v 0.03397510 -0.02468060 0.00156147
v 0.03519934 -0.02503457 0.00114249
v 0.02313754 -0.02185219 0.00276223
v 0.02313754 -0.02152856 0.00397059
v 0.03519934 -0.02505985 0.00033338
v 0.02313754 -0.02210672 0.00033338
v 0.02313754 -0.02213706 -0.00047421
v 0.02313754 -0.02210334 -0.00128333
v 0.02313754 -0.02200390 -0.00209699
v 0.02313754 -0.02198704 0.00195312
v 0.02416857 -0.02227359 0.00170265
v 0.02313754 -0.02206795 0.00114249
f 1 2 3
f 1 3 10
f 1 10 22
f 1 22 42
f 1 42 24
f 1 24 11
f 1 11 4
f 1 4 5
f 1 5 2
f 2 6 7
f 2 7 8
f 2 8 3
f 2 5 9
f 2 9 6
f 3 8 7
f 3 7 10
f 4 11 12
f 4 12 5
f 5 12 13
f 5 13 14
f 5 14 9
f 6 15 7
f 6 9 16
f 6 16 15
f 7 17 18
f 7 18 10
f 7 15 17
f 9 14 19
f 9 19 20
f 9 20 21
f 9 21 16
f 10 18 23
f 10 23 22
f 11 24 25
f 11 25 26
f 11 26 12
f 12 27 13
f 12 26 28
f 12 28 27
f 13 27 29
f 13 29 14
f 14 29 30
f 14 30 19
f 15 31 32
f 15 32 17
f 15 16 33
f 15 33 34
f 15 34 31
f 16 21 35
f 16 35 36
f 16 36 34
f 16 34 37
f 16 37 33
f 17 32 23
f 17 23 18
f 19 30 20
f 20 30 38
f 20 38 39
f 20 39 21
f 21 39 40
f 21 40 41
f 21 41 35
f 22 23 32
f 22 32 43
f 22 43 42
f 24 42 65
f 24 65 64
f 24 64 63
f 24 63 62
f 24 62 61
f 24 61 60
f 24 60 90
f 24 90 132
f 24 132 183
f 24 183 248
f 24 248 250
f 24 250 249
f 24 249 320
f 24 320 393
f 24 393 479
f 24 479 545
f 24 545 604
f 24 604 676
f 24 676 755
f 24 755 819
f 24 819 877
f 24 877 874
f 24 874 873
f 24 873 810
f 24 810 872
f 24 872 942
f 24 942 994
f 24 994 940
f 24 940 993
f 24 993 992
f 24 992 989
f 24 989 932
f 24 932 988
f 24 988 987
f 24 987 986
f 24 986 984
f 24 984 983
f 24 983 1031
f 24 1031 1041
f 24 1041 1040
f 24 1040 1039
f 24 1039 1038
f 24 1038 1062
f 24 1062 1071
f 24 1071 1059
f 24 1059 1070
f 24 1070 1069
f 24 1069 1068
f 24 1068 1074
f 24 1074 1072
f 24 1072 1065
f 24 1065 1047
f 24 1047 1066
f 24 1066 1049
f 24 1049 1017
f 24 1017 968
f 24 968 967
f 24 967 1016
f 24 1016 972
f 24 972 909
f 24 909 908
f 24 908 971
f 24 971 961
f 24 961 898
f 24 898 836
f 24 836 774
f 24 774 702
f 24 702 624
f 24 624 565
f 24 565 506
f 24 506 439
f 24 439 363
f 24 363 288
f 24 288 287
f 24 287 362
f 24 362 427
f 24 427 353
f 24 353 352
f 24 352 351
f 24 351 295
f 24 295 220
f 24 220 156
f 24 156 151
f 24 151 102
f 24 102 75
f 24 75 47
f 24 47 46
f 24 46 44
f 24 44 25
f 25 45 26
f 25 44 46
f 25 46 47
f 25 47 45
f 26 45 28
f 27 28 45
f 27 45 48
f 27 48 49
f 27 49 50
f 27 50 51
f 27 51 52
f 27 52 53
f 27 53 29
f 29 53 38
f 29 38 30
f 31 43 32
f 31 34 54
f 31 54 55
f 31 55 56
f 31 56 57
f 31 57 58
f 31 58 59
f 31 59 60
f 31 60 61
f 31 61 62
f 31 62 63
f 31 63 64
f 31 64 65
f 31 65 42
f 31 42 43
f 33 37 34
f 34 36 35
f 34 35 66
f 34 66 67
f 34 67 68
f 34 68 54
f 35 41 69
f 35 69 66
f 38 53 70
f 38 70 39
f 39 70 71
f 39 71 72
f 39 72 40
f 40 72 73
f 40 73 41
f 41 73 74
f 41 74 69
f 45 47 75
f 45 75 76
f 45 76 77
f 45 77 78
f 45 78 48
f 48 78 49
f 49 78 50
f 50 79 51
f 50 78 80
f 50 80 79
f 51 79 81
f 51 81 82
f 51 82 83
f 51 83 52
f 52 83 84
f 52 84 70
f 52 70 53
f 54 68 85
f 54 85 55
f 55 85 56
f 56 85 86
f 56 86 57
f 57 86 87
f 57 87 88
f 57 88 58
f 58 88 89
f 58 89 59
f 59 90 60
f 59 89 90
f 66 69 91
f 66 91 92
f 66 92 67
f 67 93 68
f 67 92 93
f 68 93 94
f 68 94 85
f 69 74 95
f 69 95 91
f 70 84 96
f 70 96 71
f 71 96 97
f 71 97 72
f 72 97 98
f 72 98 99
f 72 99 73
f 73 99 100
f 73 100 74
f 74 100 101
f 74 101 95
f 75 102 76
f 76 102 103
f 76 103 77
f 77 103 104
f 77 104 105
f 77 105 106
f 77 106 107
f 77 107 108
f 77 108 109
f 77 109 110
f 77 110 78
f 78 110 80
f 79 80 110
f 79 110 111
f 79 111 112
f 79 112 113
f 79 113 81
f 81 114 115
f 81 115 116
f 81 116 117
f 81 117 118
f 81 118 119
f 81 119 120
f 81 120 82
f 81 113 121
f 81 121 114
f 82 120 83
f 83 120 122
f 83 122 84
f 84 122 123
f 84 123 98
f 84 98 97
f 84 97 96
f 85 94 86
f 86 94 124
f 86 124 125
f 86 125 126
f 86 126 127
f 86 127 87
f 87 127 89
f 87 89 88
f 89 128 129
f 89 129 130
f 89 130 131
f 89 131 90
f 89 127 128
f 90 131 133
f 90 133 134
f 90 134 135
f 90 135 136
f 90 136 132
f 91 137 138
f 91 138 139
f 91 139 140
f 91 140 141
f 91 141 142
f 91 142 143
f 91 143 144
f 91 144 92
f 91 95 145
f 91 145 146
f 91 146 147
f 91 147 137
f 92 144 126
f 92 126 125
f 92 125 93
f 93 124 94
f 93 125 124
f 95 101 148
f 95 148 145
f 98 123 149
f 98 149 100
f 98 100 99
f 100 149 150
f 100 150 101
f 101 150 148
f 102 151 103
f 103 151 105
f 103 105 104
f 105 152 153
f 105 153 154
f 105 154 155
f 105 155 106
f 105 151 156
f 105 156 157
f 105 157 152
f 106 155 107
f 107 155 158
f 107 158 159
f 107 159 108
f 108 159 160
f 108 160 109
f 109 160 161
f 109 161 110
f 110 161 162
f 110 162 112
f 110 112 111
f 112 160 163
f 112 163 113
f 112 162 160
f 113 163 121
f 114 164 165
f 114 165 115
f 114 121 163
f 114 163 160
f 114 160 166
f 114 166 167
f 114 167 164
f 115 165 116
f 116 165 168
f 116 168 169
f 116 169 117
f 117 170 171
f 117 171 118
f 117 169 172
f 117 172 170
f 118 171 119
f 119 173 120
f 119 171 174
f 119 174 173
f 120 173 123
f 120 123 122
f 123 173 174
f 123 174 175
f 123 175 149
f 126 144 127
f 127 144 143
f 127 143 176
f 127 176 177
f 127 177 178
f 127 178 128
f 128 178 179
f 128 179 180
f 128 180 181
f 128 181 129
f 129 181 130
f 130 181 182
f 130 182 134
f 130 134 131
f 131 134 133
f 132 136 184
f 132 184 183
f 134 182 181
f 134 181 185
f 134 185 135
f 135 185 186
f 135 186 187
f 135 187 136
f 136 187 188
f 136 188 184
f 137 147 189
f 137 189 138
f 138 189 147
f 138 147 190
f 138 190 191
f 138 191 140
f 138 140 139
f 140 191 141
f 141 191 190
f 141 190 192
f 141 192 193
f 141 193 194
f 141 194 176
f 141 176 195
f 141 195 143
f 141 143 142
f 143 195 196
f 143 196 176
f 145 197 198
f 145 198 199
f 145 199 146
f 145 148 197
f 146 200 201
f 146 201 202
f 146 202 203
f 146 203 147
f 146 199 200
f 147 203 204
f 147 204 205
f 147 205 206
f 147 206 190
f 148 150 197
f 149 175 207
f 149 207 208
f 149 208 150
f 150 208 209
f 150 209 198
f 150 198 197
f 152 210 153
f 152 157 210
f 153 210 211
f 153 211 212
f 153 212 213
f 153 213 214
f 153 214 215
f 153 215 216
f 153 216 217
f 153 217 218
f 153 218 219
f 153 219 155
f 153 155 154
f 155 219 218
f 155 218 158
f 156 220 221
f 156 221 157
f 157 221 210
f 158 218 222
f 158 222 223
f 158 223 160
f 158 160 159
f 160 162 161
f 160 223 166
f 164 224 225
f 164 225 165
f 164 167 224
f 165 225 226
f 165 226 168
f 166 223 167
f 167 227 226
f 167 226 224
f 167 223 228
f 167 228 222
f 167 222 227
f 168 226 229
f 168 229 169
f 169 229 230
f 169 230 231
f 169 231 172
f 170 172 232
f 170 232 171
f 171 232 233
f 171 233 174
f 172 234 235
f 172 235 236
f 172 236 232
f 172 231 234
f 174 233 207
f 174 207 175
f 176 237 238
f 176 238 239
f 176 239 177
f 176 196 195
f 176 194 240
f 176 240 241
f 176 241 237
f 177 239 178
f 178 239 179
f 179 239 242
f 179 242 180
f 180 242 243
f 180 243 244
f 180 244 181
f 181 244 245
f 181 245 246
f 181 246 247
f 181 247 185
f 183 184 248
f 184 249 250
f 184 250 248
f 184 188 249
f 185 247 251
f 185 251 186
f 186 251 187
f 187 251 252
f 187 252 188
f 188 253 254
f 188 254 249
f 188 252 253
f 190 206 205
f 190 205 255
f 190 255 256
f 190 256 257
f 190 257 258
f 190 258 259
f 190 259 260
f 190 260 192
f 192 260 193
f 193 260 261
f 193 261 262
f 193 262 194
f 194 262 240
f 198 263 200
f 198 200 199
f 198 209 263
f 200 263 264
f 200 264 265
f 200 265 266
f 200 266 201
f 201 266 267
f 201 267 202
f 202 267 268
f 202 268 269
f 202 269 270
f 202 270 271
f 202 271 272
f 202 272 203
f 203 272 204
f 204 272 205
f 205 272 273
f 205 273 274
f 205 274 256
f 205 256 255
f 207 275 208
f 207 233 232
f 207 232 276
f 207 276 275
f 208 275 209
f 209 275 263
f 210 277 211
f 210 221 277
f 211 278 212
f 211 277 279
f 211 279 280
f 211 280 278
f 212 278 213
f 213 281 282
f 213 282 283
f 213 283 284
f 213 284 214
f 213 278 285
f 213 285 286
f 213 286 287
f 213 287 288
f 213 288 281
f 214 284 289
f 214 289 290
f 214 290 291
f 214 291 292
f 214 292 215
f 215 292 216
f 216 292 293
f 216 293 217
f 217 293 291
f 217 291 294
f 217 294 218
f 218 294 222
f 220 295 296
f 220 296 221
f 221 296 297
f 221 297 277
f 222 228 223
f 222 294 298
f 222 298 299
f 222 299 300
f 222 300 226
f 222 226 227
f 224 226 225
f 226 301 229
f 226 300 302
f 226 302 301
f 229 301 303
f 229 303 230
f 230 303 235
f 230 235 234
f 230 234 231
f 232 236 304
f 232 304 305
f 232 305 276
f 235 303 306
f 235 306 307
f 235 307 236
f 236 307 308
f 236 308 304
f 237 241 309
f 237 309 238
f 238 309 239
f 239 309 310
f 239 310 242
f 240 262 241
f 241 262 261
f 241 261 309
f 242 310 261
f 242 261 243
f 243 311 312
f 243 312 313
f 243 313 244
f 243 261 314
f 243 314 311
f 244 313 315
f 244 315 316
f 244 316 317
f 244 317 245
f 245 318 246
f 245 317 318
f 246 319 251
f 246 251 247
f 246 318 319
f 249 254 321
f 249 321 322
f 249 322 320
f 251 323 252
f 251 319 323
f 252 323 324
f 252 324 325
f 252 325 253
f 253 325 326
f 253 326 321
f 253 321 254
f 256 327 328
f 256 328 329
f 256 329 257
f 256 274 330
f 256 330 327
f 257 331 332
f 257 332 258
f 257 329 331
f 258 333 259
f 258 332 333
f 259 333 334
f 259 334 314
f 259 314 261
f 259 261 260
f 261 310 309
f 263 275 264
f 264 275 265
f 265 335 304
f 265 304 336
f 265 336 266
f 265 275 335
f 266 336 337
f 266 337 267
f 267 337 338
f 267 338 268
f 268 338 339
f 268 339 340
f 268 340 269
f 269 341 270
f 269 340 342
f 269 342 343
f 269 343 341
f 270 341 344
f 270 344 345
f 270 345 271
f 271 346 272
f 271 345 347
f 271 347 346
f 272 346 330
f 272 330 348
f 272 348 273
f 273 348 274
f 274 348 330
f 275 276 305
f 275 305 335
f 277 297 279
f 278 286 285
f 278 280 286
f 279 297 349
f 279 349 350
f 279 350 351
f 279 351 352
f 279 352 353
f 279 353 354
f 279 354 280
f 280 354 286
f 281 355 356
f 281 356 283
f 281 283 282
f 281 288 357
f 281 357 355
f 283 356 358
f 283 358 359
f 283 359 360
f 283 360 284
f 284 360 289
f 286 354 361
f 286 361 362
f 286 362 287
f 288 363 364
f 288 364 357
f 289 360 365
f 289 365 366
f 289 366 290
f 290 366 367
f 290 367 368
f 290 368 291
f 291 368 369
f 291 369 298
f 291 298 294
f 291 293 292
f 295 351 350
f 295 350 296
f 296 350 349
f 296 349 297
f 298 369 370
f 298 370 371
f 298 371 299
f 299 371 302
f 299 302 300
f 301 372 303
f 301 302 370
f 301 370 373
f 301 373 374
f 301 374 375
f 301 375 376
f 301 376 372
f 302 371 370
f 303 372 377
f 303 377 306
f 304 335 305
f 304 308 378
f 304 378 379
f 304 379 337
f 304 337 336
f 306 380 381
f 306 381 307
f 306 377 380
f 307 381 308
f 308 381 382
f 308 382 383
f 308 383 384
f 308 384 378
f 311 385 312
f 311 314 385
f 312 315 313
f 312 385 386
f 312 386 315
f 314 334 387
f 314 387 385
f 315 386 388
f 315 388 389
f 315 389 390
f 315 390 316
f 316 390 391
f 316 391 318
f 316 318 317
f 318 324 319
f 318 391 324
f 319 324 323
f 320 322 392
f 320 392 393
f 321 326 322
f 322 326 394
f 322 394 395
f 322 395 392
f 324 391 390
f 324 390 396
f 324 396 397
f 324 397 398
f 324 398 399
f 324 399 400
f 324 400 401
f 324 401 395
f 324 395 394
f 324 394 402
f 324 402 325
f 325 402 394
f 325 394 326
f 327 330 403
f 327 403 328
f 328 403 404
f 328 404 405
f 328 405 406
f 328 406 407
f 328 407 408
f 328 408 409
f 328 409 410
f 328 410 331
f 328 331 329
f 330 346 347
f 330 347 404
f 330 404 403
f 331 410 332
f 332 410 411
f 332 411 412
f 332 412 413
f 332 413 414
f 332 414 415
f 332 415 333
f 333 415 334
f 334 416 388
f 334 388 386
f 334 386 385
f 334 385 387
f 334 415 416
f 337 379 338
f 338 379 339
f 339 379 417
f 339 417 418
f 339 418 340
f 340 419 420
f 340 420 342
f 340 418 419
f 341 343 421
f 341 421 404
f 341 404 347
f 341 347 344
f 342 420 422
f 342 422 423
f 342 423 424
f 342 424 425
f 342 425 343
f 343 425 426
f 343 426 421
f 344 347 345
f 353 427 354
f 354 427 361
f 355 428 429
f 355 429 430
f 355 430 431
f 355 431 432
f 355 432 356
f 355 357 364
f 355 364 363
f 355 363 433
f 355 433 428
f 356 432 358
f 358 432 434
f 358 434 435
f 358 435 359
f 359 435 436
f 359 436 437
f 359 437 438
f 359 438 365
f 359 365 360
f 361 427 362
f 363 439 440
f 363 440 433
f 365 438 366
f 366 438 437
f 366 437 441
f 366 441 367
f 367 441 442
f 367 442 443
f 367 443 368
f 368 442 369
f 368 443 442
f 369 442 444
f 369 444 445
f 369 445 446
f 369 446 370
f 370 446 447
f 370 447 448
f 370 448 449
f 370 449 374
f 370 374 373
f 372 376 450
f 372 450 377
f 374 451 375
f 374 449 452
f 374 452 451
f 375 453 454
f 375 454 455
f 375 455 376
f 375 451 456
f 375 456 457
f 375 457 458
f 375 458 453
f 376 455 454
f 376 454 459
f 376 459 460
f 376 460 450
f 377 450 461
f 377 461 380
f 378 384 418
f 378 418 417
f 378 417 379
f 380 461 462
f 380 462 381
f 381 462 382
f 382 463 383
f 382 462 464
f 382 464 465
f 382 465 466
f 382 466 467
f 382 467 463
f 383 463 468
f 383 468 384
f 384 468 418
f 388 416 469
f 388 469 470
f 388 470 471
f 388 471 389
f 389 472 473
f 389 473 474
f 389 474 475
f 389 475 390
f 389 471 472
f 390 475 476
f 390 476 477
f 390 477 396
f 392 478 479
f 392 479 393
f 392 395 478
f 395 401 480
f 395 480 481
f 395 481 478
f 396 476 397
f 396 477 476
f 397 476 398
f 398 476 482
f 398 482 483
f 398 483 484
f 398 484 399
f 399 485 400
f 399 484 483
f 399 483 485
f 400 485 486
f 400 486 487
f 400 487 401
f 401 487 481
f 401 481 480
f 404 488 405
f 404 421 488
f 405 488 489
f 405 489 406
f 406 489 490
f 406 490 407
f 407 491 408
f 407 490 492
f 407 492 493
f 407 493 494
f 407 494 495
f 407 495 469
f 407 469 491
f 408 491 409
f 409 491 410
f 410 491 411
f 411 491 469
f 411 469 412
f 412 469 496
f 412 496 413
f 413 415 414
f 413 496 416
f 413 416 415
f 416 496 469
f 418 468 419
f 419 467 497
f 419 497 498
f 419 498 420
f 419 468 467
f 420 498 499
f 420 499 500
f 420 500 422
f 421 426 501
f 421 501 488
f 422 500 502
f 422 502 503
f 422 503 423
f 423 503 504
f 423 504 505
f 423 505 501
f 423 501 425
f 423 425 424
f 425 501 426
f 428 433 440
f 428 440 439
f 428 439 506
f 428 506 507
f 428 507 508
f 428 508 509
f 428 509 429
f 429 509 510
f 429 510 511
f 429 511 512
f 429 512 430
f 430 512 513
f 430 513 434
f 430 434 431
f 431 434 432
f 434 513 514
f 434 514 515
f 434 515 516
f 434 516 435
f 435 516 517
f 435 517 518
f 435 518 519
f 435 519 436
f 436 519 520
f 436 520 437
f 437 520 441
f 441 520 442
f 442 520 521
f 442 521 445
f 442 445 444
f 445 522 446
f 445 521 522
f 446 522 523
f 446 523 447
f 447 524 525
f 447 525 452
f 447 452 449
f 447 449 448
f 447 523 524
f 450 460 526
f 450 526 461
f 451 452 525
f 451 525 457
f 451 457 456
f 453 527 528
f 453 528 529
f 453 529 454
f 453 458 530
f 453 530 527
f 454 529 459
f 457 531 458
f 457 525 524
f 457 524 531
f 458 531 530
f 459 529 532
f 459 532 460
f 460 532 526
f 461 526 465
f 461 465 464
f 461 464 462
f 463 467 468
f 465 526 533
f 465 533 534
f 465 534 499
f 465 499 497
f 465 497 466
f 466 497 467
f 469 535 536
f 469 536 537
f 469 537 470
f 469 495 535
f 470 538 471
f 470 537 538
f 471 538 472
f 472 539 473
f 472 538 540
f 472 540 539
f 473 539 541
f 473 541 542
f 473 542 543
f 473 543 475
f 473 475 474
f 475 543 476
f 476 483 482
f 476 543 483
f 478 481 544
f 478 544 479
f 479 544 545
f 481 546 545
f 481 545 544
f 481 487 547
f 481 547 546
f 483 548 485
f 483 543 542
f 483 542 548
f 485 549 486
f 485 548 549
f 486 549 547
f 486 547 487
f 488 550 489
f 488 501 550
f 489 550 551
f 489 551 552
f 489 552 490
f 490 552 553
f 490 553 492
f 492 553 493
f 493 553 554
f 493 554 494
f 494 554 555
f 494 555 495
f 495 555 556
f 495 556 535
f 497 499 498
f 499 534 557
f 499 557 558
f 499 558 502
f 499 502 500
f 501 505 559
f 501 559 560
f 501 560 561
f 501 561 551
f 501 551 550
f 502 558 562
f 502 562 503
f 503 563 564
f 503 564 504
f 503 562 563
f 504 564 559
f 504 559 505
f 506 565 566
f 506 566 507
f 507 566 567
f 507 567 508
f 508 568 569
f 508 569 570
f 508 570 509
f 508 567 571
f 508 571 568
f 509 570 510
f 510 572 573
f 510 573 511
f 510 570 572
f 511 573 512
f 512 573 574
f 512 574 514
f 512 514 513
f 514 574 515
f 515 575 576
f 515 576 517
f 515 517 516
f 515 574 575
f 517 576 577
f 517 577 518
f 518 577 519
f 519 521 520
f 519 577 522
f 519 522 521
f 522 577 523
f 523 577 576
f 523 576 578
f 523 578 524
f 524 578 579
f 524 579 531
f 526 532 533
f 527 530 580
f 527 580 581
f 527 581 582
f 527 582 528
f 528 582 583
f 528 583 584
f 528 584 529
f 529 584 585
f 529 585 533
f 529 533 532
f 530 531 579
f 530 579 586
f 530 586 587
f 530 587 588
f 530 588 580
f 533 589 590
f 533 590 534
f 533 585 591
f 533 591 589
f 534 590 557
f 535 556 536
f 536 556 592
f 536 592 593
f 536 593 594
f 536 594 538
f 536 538 537
f 538 594 540
f 539 595 596
f 539 596 541
f 539 540 594
f 539 594 597
f 539 597 598
f 539 598 595
f 541 596 599
f 541 599 600
f 541 600 601
f 541 601 602
f 541 602 542
f 542 602 603
f 542 603 548
f 545 546 604
f 546 547 604
f 547 549 605
f 547 605 604
f 548 603 606
f 548 606 549
f 549 606 605
f 551 561 607
f 551 607 552
f 552 608 553
f 552 607 608
f 553 608 609
f 553 609 554
f 554 610 555
f 554 609 610
f 555 610 611
f 555 611 612
f 555 612 613
f 555 613 556
f 556 614 592
f 556 613 615
f 556 615 614
f 557 590 563
f 557 563 562
f 557 562 558
f 559 564 616
f 559 616 617
f 559 617 560
f 560 617 618
f 560 618 561
f 561 618 619
f 561 619 620
f 561 620 607
f 563 621 564
f 563 590 622
f 563 622 621
f 564 621 623
f 564 623 616
f 565 624 625
f 565 625 626
f 565 626 627
f 565 627 567
f 565 567 566
f 567 627 571
f 568 571 628
f 568 628 629
f 568 629 630
f 568 630 631
f 568 631 632
f 568 632 633
f 568 633 634
f 568 634 635
f 568 635 569
f 569 635 636
f 569 636 637
f 569 637 638
f 569 638 639
f 569 639 570
f 570 639 640
f 570 640 641
f 570 641 642
f 570 642 572
f 571 627 643
f 571 643 628
f 572 644 573
f 572 642 575
f 572 575 644
f 573 644 575
f 573 575 574
f 575 642 641
f 575 641 576
f 576 640 645
f 576 645 578
f 576 641 640
f 578 645 579
f 579 645 646
f 579 646 587
f 579 587 647
f 579 647 586
f 580 648 649
f 580 649 650
f 580 650 581
f 580 588 651
f 580 651 648
f 581 650 582
f 582 650 652
f 582 652 583
f 583 652 653
f 583 653 591
f 583 591 584
f 584 591 585
f 586 647 587
f 587 646 654
f 587 654 655
f 587 655 651
f 587 651 588
f 589 591 653
f 589 653 656
f 589 656 590
f 590 657 622
f 590 656 657
f 592 614 658
f 592 658 659
f 592 659 660
f 592 660 593
f 593 660 661
f 593 661 594
f 594 661 662
f 594 662 597
f 595 598 596
f 596 598 663
f 596 663 599
f 597 662 598
f 598 662 661
f 598 661 664
f 598 664 663
f 599 665 666
f 599 666 600
f 599 663 665
f 600 666 667
f 600 667 601
f 601 667 668
f 601 668 669
f 601 669 670
f 601 670 602
f 602 670 671
f 602 671 672
f 602 672 673
f 602 673 603
f 603 673 674
f 603 674 675
f 603 675 606
f 604 605 676
f 605 675 676
f 605 606 675
f 607 620 608
f 608 620 677
f 608 677 609
f 609 677 678
f 609 678 610
f 610 678 611
f 611 678 679
f 611 679 612
f 612 680 681
f 612 681 613
f 612 679 680
f 613 681 615
f 614 682 683
f 614 683 684
f 614 684 658
f 614 615 685
f 614 685 682
f 615 681 686
f 615 686 685
f 616 623 687
f 616 687 688
f 616 688 689
f 616 689 617
f 617 689 618
f 618 689 690
f 618 690 619
f 619 690 691
f 619 691 620
f 620 692 693
f 620 693 694
f 620 694 695
f 620 695 677
f 620 691 696
f 620 696 692
f 621 622 697
f 621 697 698
f 621 698 699
f 621 699 623
f 622 657 697
f 623 699 700
f 623 700 701
f 623 701 687
f 624 702 703
f 624 703 625
f 625 703 704
f 625 704 705
f 625 705 627
f 625 627 626
f 627 705 704
f 627 704 643
f 628 643 706
f 628 706 707
f 628 707 629
f 629 707 630
f 630 707 631
f 631 707 708
f 631 708 632
f 632 708 709
f 632 709 710
f 632 710 711
f 632 711 712
f 632 712 633
f 633 713 634
f 633 712 713
f 634 714 636
f 634 636 635
f 634 713 715
f 634 715 716
f 634 716 714
f 636 714 717
f 636 717 718
f 636 718 719
f 636 719 637
f 637 720 721
f 637 721 722
f 637 722 638
f 637 719 723
f 637 723 720
f 638 722 639
f 639 722 724
f 639 724 725
f 639 725 726
f 639 726 640
f 640 726 645
f 643 704 706
f 645 726 654
f 645 654 646
f 648 727 728
f 648 728 649
f 648 651 729
f 648 729 730
f 648 730 727
f 649 728 650
f 650 728 652
f 651 655 729
f 652 728 731
f 652 731 653
f 653 697 656
f 653 731 697
f 654 726 655
f 655 726 725
f 655 725 732
f 655 732 733
f 655 733 729
f 656 697 657
f 658 734 659
f 658 684 734
f 659 734 684
f 659 684 735
f 659 735 736
f 659 736 660
f 660 736 737
f 660 737 664
f 660 664 661
f 663 664 665
f 664 737 738
f 664 738 665
f 665 738 739
f 665 739 740
f 665 740 741
f 665 741 742
f 665 742 743
f 665 743 744
f 665 744 745
f 665 745 746
f 665 746 747
f 665 747 748
f 665 748 749
f 665 749 750
f 665 750 666
f 666 750 667
f 667 750 751
f 667 751 668
f 668 751 669
f 669 751 752
f 669 752 670
f 670 752 671
f 671 752 672
f 672 752 753
f 672 753 754
f 672 754 674
f 672 674 673
f 674 754 755
f 674 755 756
f 674 756 675
f 675 756 676
f 676 756 755
f 677 695 757
f 677 757 679
f 677 679 678
f 679 757 680
f 680 686 681
f 680 757 686
f 682 758 759
f 682 759 735
f 682 735 684
f 682 684 683
f 682 685 686
f 682 686 758
f 686 760 758
f 686 757 761
f 686 761 760
f 687 701 688
f 688 762 763
f 688 763 764
f 688 764 690
f 688 690 689
f 688 701 762
f 690 764 765
f 690 765 696
f 690 696 691
f 692 696 765
f 692 765 766
f 692 766 693
f 693 766 694
f 694 766 767
f 694 767 768
f 694 768 695
f 695 768 757
f 697 731 769
f 697 769 698
f 698 769 770
f 698 770 771
f 698 771 772
f 698 772 699
f 699 772 700
f 700 772 773
f 700 773 701
f 701 773 762
f 702 774 775
f 702 775 708
f 702 708 703
f 703 708 707
f 703 707 706
f 703 706 704
f 708 775 709
f 709 776 710
f 709 775 777
f 709 777 776
f 710 776 711
f 711 776 778
f 711 778 712
f 712 778 779
f 712 779 713
f 713 779 715
f 714 716 717
f 715 717 716
f 715 779 778
f 715 778 717
f 717 780 723
f 717 723 718
f 717 778 780
f 718 723 719
f 720 781 721
f 720 723 780
f 720 780 782
f 720 782 843
f 720 843 783
f 720 783 784
f 720 784 785
f 720 785 786
f 720 786 787
f 720 787 788
f 720 788 781
f 721 781 722
f 722 781 788
f 722 788 789
f 722 789 732
f 722 732 724
f 724 732 725
f 727 790 728
f 727 730 790
f 728 790 731
f 729 733 791
f 729 791 792
f 729 792 793
f 729 793 730
f 730 793 794
f 730 794 795
f 730 795 790
f 731 790 796
f 731 796 797
f 731 797 771
f 731 771 769
f 732 789 788
f 732 788 798
f 732 798 733
f 733 798 792
f 733 792 791
f 735 799 800
f 735 800 801
f 735 801 736
f 735 759 799
f 736 801 737
f 737 801 802
f 737 802 803
f 737 803 739
f 737 739 738
f 739 803 804
f 739 804 805
f 739 805 740
f 740 805 741
f 741 805 806
f 741 806 807
f 741 807 742
f 742 807 808
f 742 808 809
f 742 809 743
f 743 809 808
f 743 808 744
f 744 808 745
f 745 808 810
f 745 810 811
f 745 811 746
f 746 811 812
f 746 812 747
f 747 812 813
f 747 813 748
f 748 813 749
f 749 814 751
f 749 751 750
f 749 813 814
f 751 814 815
f 751 815 752
f 752 815 753
f 753 815 816
f 753 816 817
f 753 817 818
f 753 818 754
f 754 818 819
f 754 819 755
f 757 768 820
f 757 820 761
f 758 760 761
f 758 761 821
f 758 821 759
f 759 821 822
f 759 822 823
f 759 823 824
f 759 824 799
f 761 820 821
f 762 773 772
f 762 772 825
f 762 825 826
f 762 826 763
f 763 826 827
f 763 827 764
f 764 827 828
f 764 828 829
f 764 829 830
f 764 830 765
f 765 830 831
f 765 831 832
f 765 832 767
f 765 767 766
f 767 820 768
f 767 832 820
f 769 771 770
f 771 797 833
f 771 833 834
f 771 834 835
f 771 835 772
f 772 835 825
f 774 836 837
f 774 837 838
f 774 838 775
f 775 838 777
f 776 839 840
f 776 840 841
f 776 841 778
f 776 777 839
f 777 838 839
f 778 841 842
f 778 842 780
f 780 842 782
f 782 842 841
f 782 841 840
f 782 840 844
f 782 844 845
f 782 845 846
f 782 846 847
f 782 847 848
f 782 848 849
f 782 849 850
f 782 850 851
f 782 851 852
f 782 852 853
f 782 853 854
f 782 854 855
f 782 855 856
f 782 856 857
f 782 857 843
f 783 843 858
f 783 858 784
f 784 858 785
f 785 858 786
f 786 858 859
f 786 859 860
f 786 860 792
f 786 792 787
f 787 792 788
f 788 792 798
f 790 795 794
f 790 794 861
f 790 861 796
f 792 860 862
f 792 862 863
f 792 863 793
f 793 863 794
f 794 864 861
f 794 863 864
f 796 861 797
f 797 861 865
f 797 865 833
f 799 824 866
f 799 866 867
f 799 867 800
f 800 867 868
f 800 868 869
f 800 869 802
f 800 802 801
f 802 869 870
f 802 870 803
f 803 870 806
f 803 806 804
f 804 806 805
f 806 870 871
f 806 871 807
f 807 871 872
f 807 872 808
f 808 872 810
f 810 873 811
f 811 873 812
f 812 873 874
f 812 874 813
f 813 874 875
f 813 875 814
f 814 816 815
f 814 875 876
f 814 876 818
f 814 818 816
f 816 818 817
f 818 876 819
f 819 876 877
f 820 832 878
f 820 878 879
f 820 879 880
f 820 880 821
f 821 880 881
f 821 881 882
f 821 882 822
f 822 882 823
f 823 882 824
f 824 882 883
f 824 883 884
f 824 884 885
f 824 885 866
f 825 835 886
f 825 886 833
f 825 833 887
f 825 887 888
f 825 888 889
f 825 889 890
f 825 890 826
f 826 890 827
f 827 890 891
f 827 891 828
f 828 891 892
f 828 892 829
f 829 892 893
f 829 893 894
f 829 894 830
f 830 894 831
f 831 894 895
f 831 895 832
f 832 895 896
f 832 896 878
f 833 865 864
f 833 864 897
f 833 897 887
f 833 886 834
f 834 886 835
f 836 898 899
f 836 899 837
f 837 899 900
f 837 900 901
f 837 901 838
f 838 901 839
f 839 901 840
f 840 901 900
f 840 900 902
f 840 902 844
f 843 857 903
f 843 903 904
f 843 904 858
f 844 902 845
f 845 902 905
f 845 905 906
f 845 906 846
f 846 906 907
f 846 907 847
f 847 907 848
f 848 907 849
f 849 907 850
f 850 907 851
f 851 907 852
f 852 907 908
f 852 908 909
f 852 909 853
f 853 909 910
f 853 910 911
f 853 911 854
f 854 912 855
f 854 911 913
f 854 913 912
f 855 912 856
f 856 914 857
f 856 912 913
f 856 913 915
f 856 915 914
f 857 914 903
f 858 904 903
f 858 903 916
f 858 916 917
f 858 917 859
f 859 918 860
f 859 917 919
f 859 919 920
f 859 920 918
f 860 921 922
f 860 922 923
f 860 923 924
f 860 924 862
f 860 918 921
f 861 864 865
f 862 924 863
f 863 924 864
f 864 925 897
f 864 924 926
f 864 926 927
f 864 927 928
f 864 928 925
f 866 885 929
f 866 929 930
f 866 930 867
f 867 930 931
f 867 931 932
f 867 932 933
f 867 933 934
f 867 934 935
f 867 935 868
f 868 935 936
f 868 936 870
f 868 870 869
f 870 936 935
f 870 935 937
f 870 937 938
f 870 938 939
f 870 939 940
f 870 940 941
f 870 941 942
f 870 942 871
f 871 942 872
f 874 877 875
f 875 877 876
f 878 896 943
f 878 943 944
f 878 944 879
f 879 945 946
f 879 946 880
f 879 944 943
f 879 943 945
f 880 946 884
f 880 884 883
f 880 883 882
f 880 882 881
f 884 947 948
f 884 948 885
f 884 946 947
f 885 948 949
f 885 949 950
f 885 950 951
f 885 951 952
f 885 952 929
f 887 897 925
f 887 925 953
f 887 953 888
f 888 953 922
f 888 922 889
f 889 922 954
f 889 954 890
f 890 954 955
f 890 955 891
f 891 955 956
f 891 956 892
f 892 956 957
f 892 957 893
f 893 957 958
f 893 958 959
f 893 959 960
f 893 960 894
f 894 946 943
f 894 943 895
f 894 960 947
f 894 947 946
f 895 943 896
f 898 961 905
f 898 905 902
f 898 902 899
f 899 902 900
f 903 962 916
f 903 914 963
f 903 963 964
f 903 964 965
f 903 965 966
f 903 966 967
f 903 967 968
f 903 968 969
f 903 969 962
f 905 961 970
f 905 970 906
f 906 970 907
f 907 970 971
f 907 971 908
f 909 972 973
f 909 973 974
f 909 974 910
f 910 974 964
f 910 964 911
f 911 964 963
f 911 963 914
f 911 914 915
f 911 915 913
f 916 975 976
f 916 976 977
f 916 977 978
f 916 978 917
f 916 962 975
f 917 978 919
f 918 979 980
f 918 980 921
f 918 920 919
f 918 919 979
f 919 978 979
f 921 980 922
f 922 953 925
f 922 925 928
f 922 928 923
f 922 980 981
f 922 981 954
f 923 928 927
f 923 927 924
f 924 927 926
f 929 952 982
f 929 982 930
f 930 982 931
f 931 982 983
f 931 983 984
f 931 984 985
f 931 985 986
f 931 986 987
f 931 987 988
f 931 988 932
f 932 989 933
f 933 989 990
f 933 990 938
f 933 938 991
f 933 991 934
f 934 991 935
f 935 991 938
f 935 938 937
f 938 990 939
f 939 990 992
f 939 992 993
f 939 993 940
f 940 994 941
f 941 994 942
f 943 946 945
f 947 995 996
f 947 996 948
f 947 960 959
f 947 959 997
f 947 997 998
f 947 998 999
f 947 999 1000
f 947 1000 1001
f 947 1001 995
f 948 996 995
f 948 995 1002
f 948 1002 949
f 949 1002 1003
f 949 1003 1004
f 949 1004 1005
f 949 1005 1006
f 949 1006 950
f 950 1006 1007
f 950 1007 1008
f 950 1008 951
f 951 1008 1009
f 951 1009 982
f 951 982 952
f 954 956 955
f 954 981 1000
f 954 1000 956
f 956 1000 999
f 956 999 957
f 957 1010 958
f 957 999 998
f 957 998 997
f 957 997 1010
f 958 1010 1011
f 958 1011 959
f 959 1011 997
f 961 971 970
f 962 1012 975
f 962 969 1013
f 962 1013 1012
f 964 974 1014
f 964 1014 965
f 965 1014 1015
f 965 1015 966
f 966 1015 1016
f 966 1016 967
f 968 1017 1018
f 968 1018 1019
f 968 1019 969
f 969 1019 1018
f 969 1018 1013
f 972 1016 1014
f 972 1014 973
f 973 1014 974
f 975 1020 1021
f 975 1021 1022
f 975 1022 976
f 975 1012 1020
f 976 1022 1023
f 976 1023 1024
f 976 1024 977
f 977 1024 1025
f 977 1025 978
f 978 1025 979
f 979 1025 1026
f 979 1026 980
f 980 1026 1027
f 980 1027 981
f 981 1027 1028
f 981 1028 1000
f 982 1009 1029
f 982 1029 1030
f 982 1030 983
f 983 1030 1029
f 983 1029 1031
f 984 986 985
f 989 992 990
f 995 1001 1032
f 995 1032 1033
f 995 1033 1002
f 997 1011 1010
f 1000 1028 1032
f 1000 1032 1001
f 1002 1033 1034
f 1002 1034 1035
f 1002 1035 1036
f 1002 1036 1003
f 1003 1036 1004
f 1004 1036 1005
f 1005 1037 1038
f 1005 1038 1006
f 1005 1036 1037
f 1006 1038 1039
f 1006 1039 1040
f 1006 1040 1041
f 1006 1041 1042
f 1006 1042 1007
f 1007 1042 1008
f 1008 1042 1043
f 1008 1043 1009
f 1009 1043 1029
f 1012 1044 1045
f 1012 1045 1020
f 1012 1013 1046
f 1012 1046 1047
f 1012 1047 1044
f 1013 1018 1017
f 1013 1017 1048
f 1013 1048 1046
f 1014 1016 1015
f 1017 1049 1048
f 1020 1045 1021
f 1021 1050 1051
f 1021 1051 1023
f 1021 1023 1022
f 1021 1045 1044
f 1021 1044 1050
f 1023 1051 1027
f 1023 1027 1026
f 1023 1026 1024
f 1024 1026 1025
f 1027 1051 1052
f 1027 1052 1028
f 1028 1052 1053
f 1028 1053 1033
f 1028 1033 1032
f 1029 1043 1031
f 1031 1043 1041
f 1033 1053 1034
f 1034 1053 1052
f 1034 1052 1054
f 1034 1054 1035
f 1035 1054 1055
f 1035 1055 1056
f 1035 1056 1057
f 1035 1057 1058
f 1035 1058 1059
f 1035 1059 1060
f 1035 1060 1036
f 1036 1060 1061
f 1036 1061 1062
f 1036 1062 1037
f 1037 1062 1038
f 1041 1043 1042
f 1044 1063 1064
f 1044 1064 1050
f 1044 1047 1065
f 1044 1065 1063
f 1046 1048 1047
f 1047 1048 1066
f 1048 1049 1066
f 1050 1055 1052
f 1050 1052 1051
f 1050 1064 1055
f 1052 1055 1054
f 1055 1064 1067
f 1055 1067 1056
f 1056 1067 1057
f 1057 1067 1064
f 1057 1064 1068
f 1057 1068 1069
f 1057 1069 1058
f 1058 1069 1070
f 1058 1070 1059
f 1059 1071 1060
f 1060 1071 1061
f 1061 1071 1062
f 1063 1065 1072
f 1063 1072 1073
f 1063 1073 1064
f 1064 1073 1074
f 1064 1074 1068
f 1072 1074 1073

