# https://github.com/mikedh/trimesh
v 0.02434073 0.01057327 0.00518030
v 0.02385460 0.01055296 0.00518030
v 0.01369927 0.00980349 0.00553880
v 0.01452084 0.00981478 0.00556101
v 0.01288257 0.00937684 0.00593537
v 0.01369927 0.00939490 0.00593854
v 0.02436990 0.01025498 0.00543093
v 0.02514772 0.00993442 0.00568791
v 0.02566302 0.00993442 0.00568791
v 0.02514772 0.01034076 0.00536431
v 0.02514772 0.01056650 0.00518030
v 0.03239110 0.00609455 -0.00002266
v 0.01196864 0.00609455 -0.00002266
v 0.01446250 0.01012630 0.00518189
v 0.01288257 0.01005407 0.00518189
v 0.01206586 0.00976512 0.00549280
v 0.00877474 0.00927300 0.00584495
v 0.01123944 0.00933621 0.00590047
v 0.00877474 0.00878991 0.00626690
v 0.00877474 0.00839486 0.00659843
v 0.01288257 0.00883957 0.00634463
v 0.02514772 0.00951454 0.00599723
v 0.02594497 0.00959355 0.00594013
v 0.02620749 0.00991411 0.00567363
v 0.02591581 0.01046717 0.00518030
v 0.03415577 0.00603360 -0.00002266
v 0.04154500 -0.00045423 -0.00757014
v 0.00678159 -0.00980222 -0.00171204
v -0.00478838 0.00262940 0.00564984
v 0.00881363 0.00609455 0.00121463
v 0.00792401 0.00970191 0.00518030
v 0.00799693 0.00972674 0.00518030
v 0.00877474 0.00984864 0.00518189
v 0.00960603 0.00989830 0.00518189
v 0.04072343 -0.00051518 -0.00758917
v 0.03826846 -0.00125562 -0.00769863
v 0.03826846 -0.00195316 -0.00783505
v 0.00960603 0.00970191 0.00541983
v 0.00877474 0.00967482 0.00539921
v 0.00796776 0.00923914 0.00581957
v 0.00824972 0.00837003 0.00657939
v 0.00878932 0.00787565 0.00694265
v 0.00960603 0.00736773 0.00728846
v 0.02596442 0.00895470 0.00640966
v 0.02678599 0.00893890 0.00640173
v 0.02678599 0.00944908 0.00599089
v 0.02678599 0.00985767 0.00561494
v 0.02678599 0.01025498 0.00520568
v 0.02678599 0.01027303 0.00518030
v 0.03438911 0.00598845 -0.00002266
v 0.04154500 -0.00012465 -0.00701336
v 0.04202141 -0.00058065 -0.00747655
v 0.04161306 -0.00119467 -0.00758759
v 0.04072343 -0.00113146 -0.00773194
v 0.03466621 0.00592524 -0.00002266
v 0.00654825 -0.01021081 -0.00171204
v -0.00556620 0.00099052 0.00567839
v -0.00524049 0.00214180 0.00609241
v -0.00489533 0.00278742 0.00609241
v -0.00383556 0.00410124 0.00576722
v -0.00401543 0.00355495 0.00563874
v -0.00329109 0.00431344 0.00563874
v -0.00229938 0.00501550 0.00567839
v 0.00737468 0.00944005 0.00518030
v -0.00312095 0.00502001 0.00645884
v -0.00312095 0.00502001 0.00657146
v -0.00273690 0.00516675 0.00687127
v -0.00249383 0.00515320 0.00743122
v 0.00747190 0.00917819 0.00576247
v 0.04072343 -0.00188544 -0.00756538
v 0.03826846 -0.00275455 -0.00753048
v 0.00733092 -0.01231021 -0.00171204
v 0.00713647 -0.01218831 -0.00171204
v 0.00692257 -0.01201901 -0.00171204
v 0.00671840 -0.01180230 -0.00171204
v 0.00656769 -0.01161041 -0.00171204
v 0.00637324 -0.01096253 -0.00171204
v -0.00186672 0.00523447 0.00748674
v 0.00960603 0.00695462 0.00740584
v 0.02596442 0.00684627 0.00737729
v 0.02596442 0.00725712 0.00725832
v 0.02596442 0.00787791 0.00698865
v 0.02596442 0.00854159 0.00664285
v 0.02678599 0.00852805 0.00662857
v 0.02730129 0.00843549 0.00657305
v 0.02741796 0.00930009 0.00588144
v 0.02740824 0.01004052 0.00518030
v 0.04212350 -0.00046101 -0.00701336
v 0.04361107 -0.00478623 -0.00272567
v 0.04202141 -0.00096441 -0.00747655
v 0.04138457 -0.00172968 -0.00750034
v 0.04193390 -0.00151071 -0.00740675
v 0.03468565 0.00594556 0.00035963
v 0.04219642 -0.00041134 -0.00619326
v -0.00559051 -0.00031427 0.00565619
v -0.00574121 -0.00031427 0.00609241
v -0.00568773 0.00050291 0.00609241
v -0.00560509 0.00112596 0.00609241
v -0.00550300 0.00153907 0.00609241
v -0.00474463 0.00337661 0.00729004
v -0.00471546 0.00333372 0.00674278
v -0.00398140 0.00425249 0.00631449
v -0.00284871 0.00485974 0.00591316
v -0.00304316 0.00495229 0.00711714
v -0.00397168 0.00424120 0.00691093
v -0.00393279 0.00419831 0.00732970
v -0.00186672 0.00460013 0.00765171
v -0.00351471 0.00435633 0.00741060
v -0.00273690 0.00464754 0.00752005
v 0.04072343 -0.00229403 -0.00739406
v 0.03826846 -0.00351981 -0.00719578
v 0.00765663 -0.01236439 -0.00171204
v 0.00726286 -0.01234408 -0.00127740
v 0.00685451 -0.01208447 -0.00127740
v -0.00402515 -0.00411577 0.00609241
v -0.00396196 -0.00403902 0.00565460
v -0.00558078 -0.00158295 0.00566253
v -0.00559051 -0.00112695 0.00565143
v 0.00960603 0.00623676 0.00757716
v 0.02596442 0.00623902 0.00752164
v 0.02678599 0.00680789 0.00736618
v 0.02678599 0.00721649 0.00723294
v 0.02678599 0.00787791 0.00694741
v 0.04154500 -0.00059194 0.00738522
v 0.04195335 -0.00072287 0.00732177
v 0.02762700 0.00992088 0.00518030
v 0.04362565 -0.00476817 -0.00209592
v 0.04382010 -0.00522642 0.00035646
v 0.04378121 -0.00522642 -0.00045889
v 0.04373260 -0.00522642 -0.00127740
v 0.04361107 -0.00499391 -0.00272567
v 0.04352842 -0.00525126 -0.00296678
v 0.04310063 -0.00529415 -0.00380909
v 0.04133110 -0.00333019 -0.00668659
v 0.04072343 -0.00277035 -0.00715136
v 0.04286242 -0.00506615 -0.00427070
v 0.04275061 -0.00561244 -0.00413269
v 0.04198738 -0.00407062 -0.00583476
v 0.04157903 -0.00359657 -0.00638044
v 0.03468565 0.00594330 0.00117814
v 0.04219642 -0.00041134 0.00609241
v 0.04365968 -0.00473882 0.00117656
v -0.00583357 -0.00031427 0.00691093
v -0.00573148 -0.00112695 0.00609241
v -0.00561967 0.00112145 0.00667933
v -0.00474463 0.00337661 0.00732494
v -0.00425364 0.00369942 0.00739474
v -0.00351471 0.00378069 0.00757557
v -0.00351471 0.00296125 0.00765171
v 0.01123944 0.00214180 0.00795310
v 0.01123944 0.00296350 0.00793248
v 0.01042273 0.00377843 0.00789441
v 0.01042273 0.00460013 0.00785952
v 0.01042273 0.00541958 0.00773737
v 0.03826846 -0.00356722 -0.00717198
v 0.00796290 -0.01239600 -0.00171204
v 0.00796290 -0.01245920 -0.00127740
v 0.00796290 -0.01248855 -0.00045889
v 0.00718994 -0.01235536 -0.00045889
v 0.00678159 -0.01215445 -0.00045889
v -0.00404946 -0.00415415 0.00691093
v -0.00443351 -0.00358754 0.00691093
v -0.00562940 -0.00166196 0.00609241
v -0.00354874 -0.00456274 0.00691093
v 0.02596442 0.00541958 0.00768185
v 0.02678599 0.00623902 0.00749309
v 0.03416549 0.00113273 0.00819898
v 0.03464676 0.00102438 0.00818946
v 0.03494331 0.00045551 0.00824657
v 0.03498706 -0.00031879 0.00831953
v 0.03625587 -0.00069352 0.00815456
v 0.04154500 -0.00091023 0.00738522
v 0.04195335 -0.00072513 0.00732177
v 0.04209433 -0.00105019 0.00689189
v 0.04207488 -0.00056711 0.00691251
v 0.02786034 0.00976963 0.00518030
v 0.03463218 0.00588912 0.00181265
v 0.04378608 -0.00522642 0.00117656
v 0.04372288 -0.00587205 0.00117656
v 0.04372773 -0.00608876 0.00028666
v 0.04371801 -0.00610005 -0.00002108
v 0.04370343 -0.00611585 -0.00042875
v 0.04368399 -0.00590591 -0.00127740
v 0.04364023 -0.00574563 -0.00190874
v 0.04364996 -0.00525126 -0.00214985
v 0.04357704 -0.00554021 -0.00245759
v 0.04295478 -0.00583819 -0.00358543
v 0.04154500 -0.00425573 -0.00597594
v 0.04113178 -0.00481557 -0.00578400
v 0.04080608 -0.00449051 -0.00612187
v 0.04072343 -0.00389229 -0.00654382
v 0.04072343 -0.00348144 -0.00677066
v 0.03971714 -0.00407740 -0.00665010
v 0.03995534 -0.00365752 -0.00682776
v 0.03908516 -0.00418801 -0.00671197
v 0.04240545 -0.00606619 -0.00375992
v 0.04220614 -0.00575015 -0.00427545
v 0.04154500 -0.00511130 -0.00528274
v 0.04209919 -0.00495779 -0.00511618
v 0.04154500 -0.00466658 -0.00569199
v 0.04231795 -0.00113146 0.00609241
v 0.04363537 -0.00476365 0.00174761
v -0.00582385 -0.00112695 0.00691093
v -0.00568773 -0.00112695 0.00743915
v -0.00567801 -0.00031427 0.00743757
v -0.00560509 0.00025008 0.00737253
v -0.00567801 0.00051646 0.00693472
v -0.00480297 0.00296125 0.00738522
v -0.00433142 0.00296125 0.00755019
v -0.00433142 0.00214180 0.00762951
v -0.00433142 0.00132461 0.00765171
v -0.00433142 -0.00112695 0.00765171
v -0.00433142 -0.00194865 0.00765013
v 0.03416549 -0.00031879 0.00837029
v 0.03416549 0.00050291 0.00832429
v 0.03826846 -0.00430540 -0.00678969
v 0.03826846 -0.00471625 -0.00647720
v 0.03908516 -0.00514741 -0.00606318
v 0.01019425 -0.01220637 -0.00171204
v 0.01069983 -0.01218154 -0.00150424
v 0.00960603 -0.01230344 -0.00127740
v 0.01042273 -0.01227635 -0.00045889
v 0.00960603 -0.01235085 -0.00045889
v 0.00878446 -0.01242083 -0.00045889
v 0.00796776 -0.01243437 0.00035963
v 0.00751565 -0.01221089 0.00328154
v 0.00745732 -0.01223572 0.00281517
v 0.00722397 -0.01232602 0.00035963
v 0.00720453 -0.01233956 -0.00002108
v 0.01042273 -0.01227861 0.00035963
v 0.00960603 -0.01233730 0.00035963
v 0.00681562 -0.01214994 0.00035963
v -0.00399599 -0.00409320 0.00739474
v -0.00560995 -0.00162132 0.00737412
v -0.00564884 -0.00168904 0.00691093
v -0.00311608 -0.00482460 0.00732970
v 0.03416549 -0.00112695 0.00830684
v 0.03579890 -0.00098473 0.00818946
v 0.03625587 -0.00082671 0.00815456
v 0.03663019 -0.00195316 0.00791503
v 0.04054356 -0.00165970 0.00736936
v 0.04108803 -0.00151522 0.00731067
v 0.04197766 -0.00403225 0.00570536
v 0.04284297 -0.00495779 0.00422537
v 0.04116095 -0.00320603 0.00651753
v 0.04352842 -0.00522642 0.00221715
v 0.04366454 -0.00522642 0.00180631
v 0.04364510 -0.00574337 0.00171906
v 0.04343606 -0.00628290 0.00117656
v 0.04352356 -0.00638900 0.00051667
v 0.04359648 -0.00646124 -0.00002425
v 0.04359648 -0.00646124 -0.00013687
v 0.04357704 -0.00643415 -0.00068255
v 0.04347009 -0.00631676 -0.00127740
v 0.04302770 -0.00610230 -0.00282402
v 0.04260477 -0.00638448 -0.00305879
v 0.04083524 -0.00527383 -0.00542550
v 0.03990673 -0.00547700 -0.00561427
v 0.04058731 -0.00493070 -0.00588076
v 0.03990673 -0.00506615 -0.00597435
v 0.03995534 -0.00437312 -0.00642168
v 0.04026161 -0.00397807 -0.00659300
v 0.03908516 -0.00459886 -0.00647244
v 0.04206030 -0.00649961 -0.00338556
v 0.04154500 -0.00610230 -0.00413904
v 0.04154500 -0.00587205 -0.00443091
v 0.04108803 -0.00561696 -0.00494169
v 0.04154500 -0.00552215 -0.00484017
v 0.04154500 -0.00534155 -0.00503528
v -0.00515298 -0.00191704 0.00748357
v -0.00514812 -0.00112695 0.00760413
v -0.00514812 -0.00031427 0.00760254
v -0.00490992 0.00214180 0.00746612
v -0.00351471 -0.00358754 0.00762475
v -0.00351471 -0.00276583 0.00765330
v -0.00269315 -0.00358754 0.00765330
v -0.00186672 -0.00440698 0.00765171
v 0.03252236 -0.00112695 0.00831636
v 0.03334393 -0.00112695 0.00832746
v 0.01205614 -0.01200998 -0.00171204
v 0.01119082 -0.01214768 -0.00125044
v 0.01813767 -0.01136436 -0.00159466
v 0.02105933 -0.01107766 -0.00127740
v 0.01205614 -0.01205287 -0.00127740
v 0.01103040 -0.01221315 -0.00045889
v 0.01206100 -0.01214317 0.00035963
v 0.00796776 -0.01234633 0.00158106
v 0.00796776 -0.01231473 0.00199666
v 0.00774900 -0.01221089 0.00328154
v 0.00845389 -0.01132598 0.00518189
v 0.00811846 -0.01141853 0.00497568
v 0.00757399 -0.01136661 0.00485670
v -0.00148268 -0.00564405 0.00733287
v 0.00689340 -0.01210705 0.00117973
v 0.01104984 -0.01220412 0.00095131
v 0.00960603 -0.01227635 0.00117973
v -0.00343693 -0.00437989 0.00743598
v -0.00415641 -0.00358754 0.00745819
v -0.00488075 -0.00259427 0.00742805
v -0.00269315 -0.00492167 0.00740901
v 0.03504053 -0.00119918 0.00822594
v 0.03334393 -0.00194865 0.00823705
v 0.03410229 -0.00194639 0.00819105
v 0.03579890 -0.00139558 0.00811808
v 0.03639198 -0.00195316 0.00794359
v 0.03498706 -0.00276809 0.00793248
v 0.03498706 -0.00358754 0.00774054
v 0.04077691 -0.00193962 0.00720439
v 0.03498706 -0.00427831 0.00747564
v 0.04072343 -0.00277261 0.00685382
v 0.04215753 -0.00496231 0.00498202
v 0.04154500 -0.00414963 0.00578150
v 0.04154500 -0.00455823 0.00551183
v 0.04285756 -0.00572983 0.00336878
v 0.04238601 -0.00523320 0.00445696
v 0.04261935 -0.00550409 0.00391605
v 0.04072343 -0.00330987 0.00658257
v 0.04072343 -0.00372072 0.00631925
v 0.04299854 -0.00590365 0.00281200
v 0.04323188 -0.00608876 0.00204425
v 0.04275547 -0.00644769 0.00238371
v 0.04290617 -0.00654024 0.00183803
v 0.04302770 -0.00660797 0.00117656
v 0.04236170 -0.00696915 0.00117656
v 0.04184640 -0.00722650 0.00117656
v 0.04236170 -0.00704139 0.00035646
v 0.04325619 -0.00662151 -0.00042875
v 0.04236170 -0.00693304 -0.00127740
v 0.04305687 -0.00660120 -0.00127740
v 0.04277492 -0.00645898 -0.00251311
v 0.04113665 -0.00727842 -0.00250994
v 0.04103942 -0.00555149 -0.00503528
v 0.04053870 -0.00572080 -0.00506700
v 0.03990673 -0.00582013 -0.00520501
v 0.03149662 -0.00976610 -0.00171204
v 0.02487062 -0.01056749 -0.00171204
v 0.01762723 -0.01140273 -0.00171204
v 0.04072343 -0.00736420 -0.00264477
v 0.04072343 -0.00711589 -0.00305561
v 0.04154500 -0.00658314 -0.00350135
v 0.04154500 -0.00628064 -0.00391061
v -0.00269315 -0.00440698 0.00757557
v -0.00105488 -0.00522417 0.00755178
v -0.00023331 -0.00522417 0.00758826
v 0.00905184 -0.00899406 0.00735032
v 0.00960603 -0.00850194 0.00742805
v 0.03170566 -0.00194865 0.00823863
v 0.03252236 -0.00194865 0.00824498
v 0.02105933 -0.01114313 -0.00045889
v 0.01205614 -0.01210479 -0.00045889
v 0.02187118 -0.01098737 -0.00127740
v 0.01287771 -0.01205738 0.00035963
v 0.01206100 -0.01209350 0.00117973
v 0.00878446 -0.01226507 0.00199666
v 0.00799693 -0.01224024 0.00285483
v 0.00878446 -0.01196032 0.00363369
v 0.00878446 -0.01163299 0.00445221
v 0.00878446 -0.01141628 0.00496933
v 0.00878446 -0.01132372 0.00518189
v 0.00878932 -0.01123342 0.00538017
v 0.00925115 -0.01219734 0.00244557
v 0.00828861 -0.01218154 0.00315464
v 0.03040768 -0.00972547 0.00236626
v 0.02986321 -0.00975933 0.00247730
v 0.02925068 -0.00979996 0.00258199
v 0.00878932 -0.01082483 0.00601151
v 0.00810874 -0.01075485 0.00592902
v -0.00105488 -0.00569371 0.00738681
v -0.00179866 -0.00522191 0.00745819
v 0.00820596 -0.00996475 0.00669202
v 0.00878932 -0.01005054 0.00677768
v 0.01129291 -0.01216348 0.00120670
v 0.01071927 -0.01218380 0.00149698
v 0.03252236 -0.00245431 0.00816566
v 0.03334393 -0.00241368 0.00815297
v 0.03378145 -0.00237304 0.00814346
v 0.03579890 -0.00194865 0.00801180
v 0.03416549 -0.00358754 0.00783413
v 0.03418980 -0.00447245 0.00750419
v 0.03447662 -0.00479300 0.00730432
v 0.03498706 -0.00468690 0.00724246
v 0.03894905 -0.00411352 0.00657146
v 0.04154014 -0.00501423 0.00518189
v 0.04154014 -0.00511807 0.00510416
v 0.04108803 -0.00561922 0.00484560
v 0.04154014 -0.00552892 0.00471870
v 0.04207002 -0.00569823 0.00413971
v 0.04066510 -0.00442730 0.00587033
v 0.04089844 -0.00471173 0.00561018
v 0.04291589 -0.00608876 0.00266924
v 0.04235198 -0.00587205 0.00363845
v 0.03949351 -0.00399613 0.00650008
v 0.04035397 -0.00483363 0.00569426
v 0.04239087 -0.00608876 0.00326250
v 0.04243462 -0.00632127 0.00285642
v 0.04100053 -0.00638900 0.00392874
v 0.04133110 -0.00654024 0.00338147
v 0.04072829 -0.00665763 0.00364638
v 0.04157903 -0.00669826 0.00285642
v 0.04098595 -0.00721747 0.00228377
v 0.04129707 -0.00734840 0.00173651
v 0.04243462 -0.00670504 0.00206487
v 0.04143805 -0.00742064 0.00117656
v 0.04190474 -0.00725359 0.00035646
v 0.04236170 -0.00703462 -0.00045889
v 0.04177348 -0.00719715 -0.00127740
v 0.04122901 -0.00731680 -0.00209592
v 0.04163736 -0.00712266 -0.00209592
v 0.04236170 -0.00676599 -0.00209592
v 0.04072343 -0.00751771 -0.00209592
v 0.04088872 -0.00638448 -0.00404386
v 0.04034425 -0.00646575 -0.00415648
v 0.03990673 -0.00594203 -0.00503528
v 0.03190983 -0.00968483 -0.00171204
v 0.03200706 -0.00971644 -0.00151852
v 0.03088895 -0.00991058 -0.00127740
v 0.03007225 -0.01001216 -0.00127740
v 0.02539564 -0.01053362 -0.00154072
v 0.03990673 -0.00623098 -0.00462761
v 0.03547319 -0.00895117 -0.00171204
v 0.03498220 -0.00907307 -0.00171204
v 0.04066023 -0.00666214 -0.00375674
v 0.00878446 -0.00928978 0.00718218
v 0.00960603 -0.00941394 0.00713935
v 0.00960603 -0.00900535 0.00735508
v 0.02187118 -0.01105283 -0.00045889
v 0.02269274 -0.01096705 0.00035963
v 0.02269760 -0.01089030 -0.00127740
v 0.02569219 -0.01056974 -0.00099346
v 0.01287771 -0.01200546 0.00117973
v 0.00960603 -0.01185873 0.00363369
v 0.02797701 -0.00972772 0.00321016
v 0.03137022 -0.00893085 0.00406516
v 0.01123944 -0.01205287 0.00199666
v 0.02269274 -0.01089481 0.00117814
v 0.02106419 -0.01092642 0.00199666
v 0.02376710 -0.01053362 0.00232026
v 0.03088895 -0.00978190 0.00181582
v 0.03088895 -0.00969386 0.00222667
v 0.03170566 -0.00936879 0.00281517
v 0.03088895 -0.00949521 0.00281517
v 0.02761241 -0.01014986 0.00199666
v 0.02842426 -0.01005054 0.00199666
v 0.02925068 -0.00994895 0.00199666
v 0.00878932 -0.01046139 0.00642077
v 0.03088895 -0.00864868 0.00451883
v 0.03088409 -0.00823783 0.00504230
v 0.03006739 -0.00829878 0.00512161
v 0.03006739 -0.00824911 0.00518189
v 0.03006739 -0.00795565 0.00553246
v 0.03231332 -0.00650187 0.00653657
v 0.03334393 -0.00282227 0.00805304
v 0.03334393 -0.00440698 0.00759144
v 0.01013591 -0.00895343 0.00733922
v 0.03334393 -0.00490813 0.00737412
v 0.03393215 -0.00486072 0.00734874
v 0.03285779 -0.00643415 0.00648739
v 0.03416549 -0.00583593 0.00664285
v 0.03481691 -0.00572983 0.00656670
v 0.03504539 -0.00530092 0.00680623
v 0.03916780 -0.00439569 0.00633035
v 0.04067482 -0.00535736 0.00518189
v 0.04045606 -0.00651767 0.00412861
v 0.04054356 -0.00571854 0.00492809
v 0.03416549 -0.00721070 0.00561811
v 0.04154014 -0.00583819 0.00430944
v 0.04157903 -0.00626935 0.00364638
v 0.03990673 -0.00491716 0.00575929
v 0.03498706 -0.00664634 0.00583067
v 0.03990673 -0.00532801 0.00543252
v 0.04044148 -0.00732131 0.00250268
v 0.04071857 -0.00707751 0.00279138
v 0.04071857 -0.00744547 0.00200300
v 0.04072343 -0.00769604 0.00117656
v 0.04149638 -0.00743870 0.00035646
v 0.04145263 -0.00740484 -0.00045889
v 0.04136513 -0.00737098 -0.00127740
v 0.04072343 -0.00761478 -0.00127740
v 0.03559472 -0.00899632 -0.00127740
v 0.03498220 -0.00915660 -0.00127740
v 0.03217234 -0.00974578 -0.00097284
v 0.03172510 -0.00979093 -0.00125837
v 0.03334879 -0.00948166 -0.00127740
v 0.03088895 -0.00997830 -0.00045889
v 0.02269760 -0.01095576 -0.00045889
v 0.02351431 -0.01087224 0.00035963
v 0.02577483 -0.01057877 0.00091006
v 0.02761241 -0.01037560 -0.00045889
v 0.03088895 -0.00917014 0.00363210
v 0.03166677 -0.00904147 0.00365907
v 0.03306683 -0.00893988 0.00328471
v 0.03191955 -0.00887216 0.00394936
v 0.03535652 -0.00808658 0.00403026
v 0.03416063 -0.00794210 0.00463463
v 0.03334393 -0.00803014 0.00476629
v 0.03283349 -0.00807981 0.00484084
v 0.03228902 -0.00812495 0.00489953
v 0.03170566 -0.00817236 0.00495823
v 0.02351431 -0.01079774 0.00117814
v 0.02480742 -0.01056071 0.00162389
v 0.03138481 -0.00975030 0.00166196
v 0.03168135 -0.00963291 0.00196017
v 0.03473913 -0.00894891 0.00248999
v 0.03252236 -0.00922432 0.00281517
v 0.02679085 -0.01040721 0.00117814
v 0.03088895 -0.00990380 0.00117814
v 0.03365505 -0.00725810 0.00566729
v 0.03311544 -0.00730100 0.00571012
v 0.03170566 -0.00695561 0.00622724
v 0.03088409 -0.00812044 0.00518189
v 0.03416549 -0.00679759 0.00594647
v 0.03416549 -0.00624452 0.00635414
v 0.03504539 -0.00602104 0.00628752
v 0.03429675 -0.00751319 0.00518189
v 0.03411202 -0.00756286 0.00518189
v 0.03416063 -0.00755157 0.00518189
v 0.03500650 -0.00876832 0.00278345
v 0.03528846 -0.00889022 0.00228695
v 0.04072343 -0.00772765 0.00035646
v 0.03543430 -0.00893988 0.00174127
v 0.03498220 -0.00911822 0.00117814
v 0.03498220 -0.00918594 0.00035963
v 0.03498220 -0.00922658 -0.00045889
v 0.04072343 -0.00770282 -0.00002108
v 0.03334879 -0.00955616 -0.00045889
v 0.03225985 -0.00976159 -0.00045889
v 0.03170566 -0.00985640 -0.00045889
v 0.03266820 -0.00968483 -0.00045889
v 0.03088895 -0.00998959 0.00035963
v 0.03007225 -0.01008440 -0.00002108
v 0.02761241 -0.01038915 0.00035963
v 0.03170566 -0.00986317 -0.00002108
v 0.02514772 -0.01068036 0.00035963
v 0.02586233 -0.01059006 -0.00002108
v 0.02510882 -0.01060812 0.00118132
v 0.03416549 -0.00900309 0.00262165
v 0.03416549 -0.00883153 0.00303091
v 0.03504053 -0.00832135 0.00370824
v 0.03503567 -0.00840939 0.00352582
v 0.03168135 -0.00979093 0.00115276
v 0.03193414 -0.00970289 0.00140815
v 0.03334393 -0.00933042 0.00199666
v 0.03416549 -0.00917691 0.00199666
v 0.03218693 -0.00975030 0.00086248
v 0.03500650 -0.00900309 0.00200618
v 0.03416549 -0.00929656 0.00117814
v 0.03416549 -0.00936428 0.00035963
v 0.03334393 -0.00954262 0.00035963
v 0.03267792 -0.00968258 0.00035963
v 0.03226471 -0.00976610 0.00035963
v 0.03245916 -0.00972772 -0.00002108
v 0.03226471 -0.00976384 -0.00002108
v 0.03170566 -0.00986768 0.00035963
f 1 2 3
f 1 3 4
f 1 4 5
f 1 5 6
f 1 6 7
f 1 7 8
f 1 8 9
f 1 9 10
f 1 10 11
f 1 11 12
f 1 12 13
f 1 13 2
f 2 13 14
f 2 14 3
f 3 14 15
f 3 15 16
f 3 16 17
f 3 17 18
f 3 18 5
f 3 5 4
f 5 18 19
f 5 19 20
f 5 20 6
f 6 20 21
f 6 21 8
f 6 8 7
f 8 21 22
f 8 22 23
f 8 23 9
f 9 23 24
f 9 24 11
f 9 11 10
f 11 24 25
f 11 25 26
f 11 26 12
f 12 26 27
f 12 27 13
f 13 28 29
f 13 29 30
f 13 30 31
f 13 31 32
f 13 32 33
f 13 33 34
f 13 34 15
f 13 15 14
f 13 27 35
f 13 35 36
f 13 36 37
f 13 37 28
f 15 34 16
f 16 34 38
f 16 38 17
f 17 39 40
f 17 40 19
f 17 19 18
f 17 38 39
f 19 40 41
f 19 41 20
f 20 41 42
f 20 42 43
f 20 43 44
f 20 44 21
f 21 44 22
f 22 44 23
f 23 44 45
f 23 45 24
f 24 45 46
f 24 46 47
f 24 47 25
f 25 47 48
f 25 48 49
f 25 49 50
f 25 50 26
f 26 50 27
f 27 51 52
f 27 52 53
f 27 53 54
f 27 54 35
f 27 50 55
f 27 55 51
f 28 56 29
f 28 37 56
f 29 57 58
f 29 58 59
f 29 59 60
f 29 60 61
f 29 61 30
f 29 56 57
f 30 61 60
f 30 60 62
f 30 62 63
f 30 63 64
f 30 64 31
f 31 64 65
f 31 65 66
f 31 66 67
f 31 67 68
f 31 68 32
f 32 68 69
f 32 69 40
f 32 40 33
f 33 40 39
f 33 39 34
f 34 39 38
f 35 54 36
f 36 54 37
f 37 54 70
f 37 70 71
f 37 71 72
f 37 72 73
f 37 73 74
f 37 74 75
f 37 75 76
f 37 76 77
f 37 77 56
f 40 69 68
f 40 68 78
f 40 78 41
f 41 78 42
f 42 78 43
f 43 78 79
f 43 79 80
f 43 80 81
f 43 81 82
f 43 82 83
f 43 83 44
f 44 83 45
f 45 83 84
f 45 84 85
f 45 85 86
f 45 86 46
f 46 86 47
f 47 86 87
f 47 87 48
f 48 87 49
f 49 87 55
f 49 55 50
f 51 88 52
f 51 55 88
f 52 88 89
f 52 89 131
f 52 131 90
f 52 90 53
f 53 91 70
f 53 70 54
f 53 90 92
f 53 92 91
f 55 87 93
f 55 93 94
f 55 94 88
f 56 77 57
f 57 95 96
f 57 96 97
f 57 97 98
f 57 98 99
f 57 99 58
f 57 77 95
f 58 99 100
f 58 100 101
f 58 101 59
f 59 101 102
f 59 102 60
f 60 102 65
f 60 65 103
f 60 103 63
f 60 63 62
f 63 103 65
f 63 65 64
f 65 102 66
f 66 104 67
f 66 102 105
f 66 105 106
f 66 106 104
f 67 104 68
f 68 107 78
f 68 104 106
f 68 106 108
f 68 108 109
f 68 109 107
f 70 91 110
f 70 110 71
f 71 110 111
f 71 111 112
f 71 112 72
f 72 113 73
f 72 112 113
f 73 113 114
f 73 114 74
f 74 114 115
f 74 115 116
f 74 116 75
f 75 116 76
f 76 116 117
f 76 117 77
f 77 117 118
f 77 118 95
f 78 107 79
f 79 107 119
f 79 119 80
f 80 120 121
f 80 121 81
f 80 119 120
f 81 121 122
f 81 122 123
f 81 123 82
f 82 123 84
f 82 84 83
f 84 123 85
f 85 123 124
f 85 124 125
f 85 125 86
f 86 126 87
f 86 125 126
f 87 126 93
f 88 94 89
f 89 127 128
f 89 128 129
f 89 129 130
f 89 130 131
f 89 94 127
f 90 131 132
f 90 132 133
f 90 133 92
f 91 134 135
f 91 135 110
f 91 92 134
f 92 133 136
f 92 136 137
f 92 137 138
f 92 138 139
f 92 139 134
f 93 140 141
f 93 141 94
f 93 126 140
f 94 141 142
f 94 142 128
f 94 128 127
f 95 118 96
f 96 143 97
f 96 118 144
f 96 144 203
f 96 203 143
f 97 143 98
f 98 143 145
f 98 145 99
f 99 145 146
f 99 146 100
f 100 146 102
f 100 102 101
f 102 146 105
f 105 146 106
f 106 146 147
f 106 147 108
f 107 109 148
f 107 148 149
f 107 149 150
f 107 150 151
f 107 151 152
f 107 152 153
f 107 153 154
f 107 154 119
f 108 147 148
f 108 148 109
f 110 135 155
f 110 155 111
f 111 155 156
f 111 156 112
f 112 156 157
f 112 157 113
f 113 157 158
f 113 158 159
f 113 159 160
f 113 160 114
f 114 160 115
f 115 161 162
f 115 162 163
f 115 163 117
f 115 117 116
f 115 160 164
f 115 164 161
f 117 163 144
f 117 144 118
f 119 154 120
f 120 165 166
f 120 166 121
f 120 154 165
f 121 166 167
f 121 167 168
f 121 168 122
f 122 168 124
f 122 124 123
f 124 168 169
f 124 169 170
f 124 170 171
f 124 171 239
f 124 239 172
f 124 172 173
f 124 173 125
f 125 173 174
f 125 174 175
f 125 175 176
f 125 176 126
f 126 176 177
f 126 177 140
f 128 178 179
f 128 179 180
f 128 180 181
f 128 181 182
f 128 182 183
f 128 183 129
f 128 142 178
f 129 183 130
f 130 183 184
f 130 184 185
f 130 185 131
f 131 186 132
f 131 185 184
f 131 184 186
f 132 186 187
f 132 187 133
f 133 187 137
f 133 137 136
f 134 139 188
f 134 188 189
f 134 189 190
f 134 190 191
f 134 191 192
f 134 192 135
f 135 192 193
f 135 193 194
f 135 194 195
f 135 195 155
f 137 196 197
f 137 197 198
f 137 198 199
f 137 199 138
f 137 187 196
f 138 199 200
f 138 200 188
f 138 188 139
f 140 177 141
f 141 175 201
f 141 201 202
f 141 202 142
f 141 177 176
f 141 176 175
f 142 202 178
f 143 203 204
f 143 204 205
f 143 205 206
f 143 206 207
f 143 207 145
f 144 163 203
f 145 207 206
f 145 206 146
f 146 208 209
f 146 209 147
f 146 206 208
f 147 209 148
f 148 209 210
f 148 210 149
f 149 210 211
f 149 211 150
f 150 211 212
f 150 212 213
f 150 213 214
f 150 214 151
f 151 214 152
f 152 214 153
f 153 165 154
f 153 214 215
f 153 215 165
f 155 195 216
f 155 216 156
f 156 216 217
f 156 217 218
f 156 218 219
f 156 219 157
f 157 219 220
f 157 220 221
f 157 221 222
f 157 222 223
f 157 223 224
f 157 224 158
f 158 225 226
f 158 226 227
f 158 227 228
f 158 228 229
f 158 229 159
f 158 224 230
f 158 230 231
f 158 231 225
f 159 229 232
f 159 232 160
f 160 232 164
f 161 164 233
f 161 233 162
f 162 233 234
f 162 234 235
f 162 235 163
f 163 235 203
f 164 232 236
f 164 236 233
f 165 215 166
f 166 215 167
f 167 215 168
f 168 215 169
f 169 215 170
f 170 215 214
f 170 214 237
f 170 237 238
f 170 238 239
f 170 239 171
f 172 239 240
f 172 240 241
f 172 241 242
f 172 242 173
f 173 243 244
f 173 244 174
f 173 242 245
f 173 245 243
f 174 244 246
f 174 246 247
f 174 247 175
f 175 247 201
f 178 202 247
f 178 247 248
f 178 248 179
f 179 248 249
f 179 249 250
f 179 250 251
f 179 251 180
f 180 251 252
f 180 252 181
f 181 252 182
f 182 252 253
f 182 253 183
f 183 253 184
f 184 253 254
f 184 254 187
f 184 187 186
f 187 254 255
f 187 255 256
f 187 256 196
f 188 200 189
f 189 257 258
f 189 258 259
f 189 259 190
f 189 200 198
f 189 198 257
f 190 259 260
f 190 260 191
f 191 260 261
f 191 261 262
f 191 262 192
f 192 262 193
f 193 263 195
f 193 195 194
f 193 262 261
f 193 261 263
f 195 263 216
f 196 256 264
f 196 264 197
f 197 264 265
f 197 265 266
f 197 266 267
f 197 267 268
f 197 268 269
f 197 269 198
f 198 269 257
f 198 200 199
f 201 247 202
f 203 235 234
f 203 234 204
f 204 234 270
f 204 270 271
f 204 271 272
f 204 272 205
f 205 272 273
f 205 273 208
f 205 208 206
f 208 273 209
f 209 273 210
f 210 273 272
f 210 272 211
f 211 272 271
f 211 271 212
f 212 271 213
f 213 271 274
f 213 274 275
f 213 275 214
f 214 275 276
f 214 276 277
f 214 277 278
f 214 278 279
f 214 279 237
f 216 263 218
f 216 218 217
f 218 263 260
f 218 260 258
f 218 258 219
f 219 258 280
f 219 280 220
f 220 281 222
f 220 222 221
f 220 280 282
f 220 282 283
f 220 283 284
f 220 284 281
f 222 281 285
f 222 285 286
f 222 286 223
f 223 286 224
f 224 286 230
f 225 287 226
f 225 231 287
f 226 287 288
f 226 288 289
f 226 289 290
f 226 290 291
f 226 291 292
f 226 292 293
f 226 293 236
f 226 236 294
f 226 294 227
f 227 294 232
f 227 232 228
f 228 232 229
f 230 295 231
f 230 286 295
f 231 295 296
f 231 296 287
f 232 294 236
f 233 236 297
f 233 297 274
f 233 274 298
f 233 298 299
f 233 299 234
f 234 299 270
f 236 293 300
f 236 300 297
f 237 301 238
f 237 279 302
f 237 302 303
f 237 303 301
f 238 304 240
f 238 240 239
f 238 301 303
f 238 303 304
f 240 304 305
f 240 305 306
f 240 306 307
f 240 307 241
f 241 308 242
f 241 307 309
f 241 309 308
f 242 308 310
f 242 310 245
f 243 311 244
f 243 245 312
f 243 312 313
f 243 313 311
f 244 314 248
f 244 248 246
f 244 311 315
f 244 315 316
f 244 316 314
f 245 310 317
f 245 317 318
f 245 318 312
f 246 248 247
f 248 314 319
f 248 319 320
f 248 320 249
f 249 320 321
f 249 321 322
f 249 322 250
f 250 322 323
f 250 323 251
f 251 323 324
f 251 324 325
f 251 325 326
f 251 326 327
f 251 327 252
f 252 327 253
f 253 327 328
f 253 328 329
f 253 329 330
f 253 330 254
f 254 330 255
f 255 330 256
f 256 330 331
f 256 331 264
f 257 269 332
f 257 332 258
f 258 260 259
f 258 332 267
f 258 267 333
f 258 333 334
f 258 334 335
f 258 335 336
f 258 336 337
f 258 337 280
f 260 263 261
f 264 331 338
f 264 338 339
f 264 339 340
f 264 340 341
f 264 341 265
f 265 341 333
f 265 333 266
f 266 333 267
f 267 332 268
f 268 332 269
f 270 299 298
f 270 298 274
f 270 274 271
f 274 297 342
f 274 342 277
f 274 277 276
f 274 276 275
f 277 342 343
f 277 343 344
f 277 344 345
f 277 345 346
f 277 346 347
f 277 347 279
f 277 279 278
f 279 347 348
f 279 348 302
f 280 337 282
f 281 284 349
f 281 349 350
f 281 350 285
f 282 337 336
f 282 336 351
f 282 351 283
f 283 349 284
f 283 351 426
f 283 426 349
f 285 350 352
f 285 352 286
f 286 352 353
f 286 353 295
f 287 296 354
f 287 354 288
f 288 354 355
f 288 355 289
f 289 356 357
f 289 357 358
f 289 358 359
f 289 359 360
f 289 360 290
f 289 355 361
f 289 361 362
f 289 362 363
f 289 363 364
f 289 364 365
f 289 365 356
f 290 360 366
f 290 366 291
f 291 366 367
f 291 367 292
f 292 367 293
f 293 368 369
f 293 369 300
f 293 367 370
f 293 370 371
f 293 371 368
f 295 372 373
f 295 373 296
f 295 353 372
f 296 373 354
f 297 300 342
f 300 369 342
f 302 348 374
f 302 374 375
f 302 375 376
f 302 376 303
f 303 376 304
f 304 377 305
f 304 376 377
f 305 377 306
f 306 378 307
f 306 377 376
f 306 376 378
f 307 378 379
f 307 379 309
f 308 309 310
f 309 379 380
f 309 380 381
f 309 381 382
f 309 382 317
f 309 317 310
f 311 313 383
f 311 383 384
f 311 384 385
f 311 385 386
f 311 386 387
f 311 387 315
f 312 318 313
f 313 318 388
f 313 388 389
f 313 389 383
f 314 390 319
f 314 316 391
f 314 391 321
f 314 321 390
f 315 387 316
f 316 387 391
f 317 382 392
f 317 392 318
f 318 392 393
f 318 393 388
f 319 390 320
f 320 390 321
f 321 391 394
f 321 394 395
f 321 395 396
f 321 396 397
f 321 397 398
f 321 398 399
f 321 399 400
f 321 400 401
f 321 401 402
f 321 402 322
f 322 402 401
f 322 401 325
f 322 325 324
f 322 324 323
f 325 401 403
f 325 403 326
f 326 404 327
f 326 403 404
f 327 404 405
f 327 405 328
f 328 405 406
f 328 406 407
f 328 407 408
f 328 408 329
f 329 408 409
f 329 409 330
f 330 409 331
f 331 408 407
f 331 407 410
f 331 410 338
f 331 409 408
f 333 341 334
f 334 341 411
f 334 411 412
f 334 412 413
f 334 413 335
f 335 414 415
f 335 415 416
f 335 416 417
f 335 417 418
f 335 418 336
f 335 413 419
f 335 419 412
f 335 412 339
f 335 339 414
f 336 418 351
f 338 410 420
f 338 420 421
f 338 421 339
f 339 421 414
f 339 412 422
f 339 422 340
f 340 422 412
f 340 412 411
f 340 411 341
f 342 369 343
f 343 369 368
f 343 368 345
f 343 345 344
f 345 423 371
f 345 371 424
f 345 424 425
f 345 425 346
f 345 368 423
f 346 425 348
f 346 348 347
f 348 425 374
f 349 352 350
f 349 426 427
f 349 427 352
f 351 418 428
f 351 428 429
f 351 429 426
f 352 427 430
f 352 430 353
f 353 430 361
f 353 361 373
f 353 373 372
f 354 373 361
f 354 361 355
f 356 365 431
f 356 431 357
f 357 431 432
f 357 432 358
f 358 432 433
f 358 433 359
f 359 433 360
f 360 433 366
f 361 430 434
f 361 434 362
f 362 434 435
f 362 435 436
f 362 436 437
f 362 437 363
f 363 438 439
f 363 439 440
f 363 440 441
f 363 441 364
f 363 437 442
f 363 442 443
f 363 443 444
f 363 444 438
f 364 441 432
f 364 432 365
f 365 432 431
f 366 445 367
f 366 433 446
f 366 446 447
f 366 447 448
f 366 448 449
f 366 449 450
f 366 450 445
f 367 445 370
f 368 371 423
f 370 445 371
f 371 445 451
f 371 451 424
f 374 425 375
f 375 425 452
f 375 452 378
f 375 378 376
f 378 452 425
f 378 425 453
f 378 453 379
f 379 453 454
f 379 454 455
f 379 455 456
f 379 456 380
f 380 456 451
f 380 451 457
f 380 457 458
f 380 458 459
f 380 459 460
f 380 460 381
f 381 460 461
f 381 461 382
f 382 461 392
f 383 389 393
f 383 393 384
f 384 462 385
f 384 393 462
f 385 463 386
f 385 462 464
f 385 464 465
f 385 465 463
f 386 463 466
f 386 466 387
f 387 466 463
f 387 463 396
f 387 396 467
f 387 467 391
f 388 393 389
f 391 467 394
f 392 461 393
f 393 461 468
f 393 468 469
f 393 469 470
f 393 470 462
f 394 467 395
f 395 467 396
f 396 463 397
f 397 463 398
f 398 463 471
f 398 471 472
f 398 472 400
f 398 400 399
f 400 472 471
f 400 471 473
f 400 473 401
f 401 473 474
f 401 474 403
f 403 475 404
f 403 474 475
f 404 475 405
f 405 475 476
f 405 476 477
f 405 477 406
f 406 477 407
f 407 477 410
f 410 477 478
f 410 478 479
f 410 479 480
f 410 480 420
f 412 419 413
f 414 421 415
f 415 481 482
f 415 482 416
f 415 421 480
f 415 480 483
f 415 483 481
f 416 484 417
f 416 482 484
f 417 484 429
f 417 429 428
f 417 428 418
f 420 480 421
f 424 454 425
f 424 451 456
f 424 456 454
f 425 454 453
f 426 429 485
f 426 485 486
f 426 486 427
f 427 486 487
f 427 487 430
f 429 488 485
f 429 484 488
f 430 487 435
f 430 435 434
f 432 441 489
f 432 489 433
f 433 489 441
f 433 441 440
f 433 440 490
f 433 490 491
f 433 491 492
f 433 492 493
f 433 493 494
f 433 494 495
f 433 495 496
f 433 496 497
f 433 497 498
f 433 498 447
f 433 447 446
f 435 499 500
f 435 500 436
f 435 487 499
f 436 500 442
f 436 442 437
f 438 501 439
f 438 444 501
f 439 501 502
f 439 502 503
f 439 503 440
f 440 504 490
f 440 503 504
f 442 500 505
f 442 505 443
f 443 505 506
f 443 506 444
f 444 506 501
f 445 450 507
f 445 507 508
f 445 508 509
f 445 509 451
f 447 498 507
f 447 507 510
f 447 510 450
f 447 450 449
f 447 449 448
f 450 510 507
f 451 509 507
f 451 507 465
f 451 465 457
f 454 456 455
f 457 465 511
f 457 511 512
f 457 512 458
f 458 512 459
f 459 513 468
f 459 468 461
f 459 461 460
f 459 512 511
f 459 511 513
f 462 470 469
f 462 469 465
f 462 465 464
f 463 514 493
f 463 493 471
f 463 465 514
f 465 507 496
f 465 496 515
f 465 515 516
f 465 516 514
f 465 469 511
f 468 513 469
f 469 513 511
f 471 493 517
f 471 517 518
f 471 518 473
f 473 518 474
f 474 519 475
f 474 518 520
f 474 520 521
f 474 521 522
f 474 522 523
f 474 523 519
f 475 519 476
f 476 519 524
f 476 524 478
f 476 478 477
f 478 524 523
f 478 523 479
f 479 523 480
f 480 523 525
f 480 525 481
f 480 481 483
f 481 526 527
f 481 527 482
f 481 525 528
f 481 528 526
f 482 527 484
f 484 529 530
f 484 530 531
f 484 531 488
f 484 527 532
f 484 532 529
f 485 533 486
f 485 488 534
f 485 534 533
f 486 533 487
f 487 505 535
f 487 535 499
f 487 533 531
f 487 531 529
f 487 529 506
f 487 506 505
f 488 531 534
f 490 504 491
f 491 504 536
f 491 536 503
f 491 503 537
f 491 537 492
f 492 537 538
f 492 538 493
f 493 514 516
f 493 516 494
f 493 538 539
f 493 539 517
f 494 516 515
f 494 515 495
f 495 515 496
f 496 507 497
f 497 507 498
f 499 535 500
f 500 535 505
f 501 540 541
f 501 541 542
f 501 542 502
f 501 506 540
f 502 542 503
f 503 518 517
f 503 517 537
f 503 536 504
f 503 542 543
f 503 543 518
f 506 529 544
f 506 544 540
f 507 509 508
f 517 539 537
f 518 543 545
f 518 545 520
f 519 523 524
f 520 545 521
f 521 545 546
f 521 546 547
f 521 547 522
f 522 547 523
f 523 547 548
f 523 548 549
f 523 549 550
f 523 550 525
f 525 550 551
f 525 551 528
f 526 528 551
f 526 551 552
f 526 552 553
f 526 553 532
f 526 532 527
f 529 531 530
f 529 532 553
f 529 553 544
f 531 533 534
f 537 539 538
f 540 544 541
f 541 544 543
f 541 543 542
f 543 544 545
f 544 553 550
f 544 550 549
f 544 549 548
f 544 548 546
f 544 546 545
f 546 548 547
f 550 552 551
f 550 553 552

