# https://github.com/mikedh/trimesh
v 0.00038829 0.00509620 -0.00694947
v 0.00119688 0.00496025 -0.00694947
v 0.00038829 0.00492026 -0.00775925
v -0.00042334 0.00501623 -0.00775925
v -0.00042334 0.00509353 -0.00694947
v -0.00042334 0.00508820 0.00114333
v -0.00042334 0.00508287 0.00681175
v 0.00038829 0.00508287 0.00600198
v 0.00928886 0.00378471 -0.00047128
v 0.00982083 0.00369941 -0.00047128
v 0.00928886 0.00376872 -0.00128105
v 0.00182308 0.00459772 -0.00751566
v 0.00931622 0.00372606 -0.00202499
v 0.00906087 0.00371274 -0.00271297
v 0.00931622 0.00357679 -0.00294998
v 0.00038829 0.00460572 -0.00823820
v -0.00042334 0.00470435 -0.00831062
v 0.00113609 0.00468036 -0.00777571
v -0.00123193 0.00467236 -0.00832543
v -0.00123193 0.00491760 -0.00775925
v -0.00123193 0.00495492 -0.00694947
v -0.00123193 0.00495492 0.00114333
v -0.00123193 0.00495225 0.00681175
v 0.00038829 0.00508020 0.00681175
v -0.00123193 0.00490960 0.00762153
v -0.00042334 0.00500023 0.00762153
v 0.00977219 0.00368341 0.00033356
v 0.01022816 0.00355546 -0.00047128
v 0.00976307 0.00367808 -0.00128105
v 0.00119688 0.00494959 0.00681175
v 0.00082906 0.00449643 -0.00817730
v 0.01038623 0.00282775 -0.00405107
v 0.01089388 0.00230262 -0.00455307
v 0.01115530 0.00191611 -0.00484439
v 0.00970227 0.00365942 -0.00171227
v 0.00960196 0.00362211 -0.00225212
v 0.01010049 0.00329157 -0.00290225
v 0.01063245 0.00290505 -0.00351122
v -0.00042334 0.00405927 -0.00844887
v 0.02312912 -0.01302205 -0.00758314
v 0.02312912 -0.01374977 -0.00772798
v -0.00123193 0.00405927 -0.00848508
v -0.00190069 0.00457907 -0.00826783
v -0.00244177 0.00446178 -0.00815591
v -0.00211955 0.00462171 -0.00783661
v -0.00204052 0.00468036 -0.00694947
v -0.00204052 0.00468036 0.00033356
v -0.00204052 0.00467769 0.00681175
v -0.00211043 0.00461638 0.00764786
v 0.00038829 0.00490427 0.00762153
v -0.00188853 0.00457640 0.00812517
v -0.00123193 0.00466703 0.00818113
v -0.00042334 0.00469102 0.00816632
v 0.00971139 0.00366209 0.00080757
v 0.01010049 0.00341152 0.00195311
v 0.01017648 0.00353147 0.00033356
v 0.01016432 0.00352348 -0.00128105
v 0.01090908 0.00328357 -0.00047128
v 0.00182308 0.00459506 0.00737629
v 0.01010049 0.00329157 0.00276124
v 0.02312912 -0.01030578 -0.00647546
v 0.02312912 -0.01082291 -0.00677172
v 0.02312912 -0.01132672 -0.00705317
v 0.02312912 -0.01184918 -0.00731651
v 0.02312912 -0.01189183 -0.00732803
v 0.02312912 -0.01225435 -0.00741691
v 0.01090604 0.00271579 -0.00375317
v 0.01146232 0.00218267 -0.00430619
v 0.02313216 -0.00923953 -0.00579077
v 0.02313216 -0.00962338 -0.00605082
v 0.01090908 0.00320627 -0.00128105
v 0.01002145 0.00347816 -0.00202499
v 0.01097291 0.00303300 -0.00212704
v 0.01078141 0.00297436 -0.00290225
v 0.02312912 -0.01382974 -0.00773621
v 0.02312912 -0.01456012 -0.00780204
v 0.02304704 -0.01456012 -0.00780698
v 0.02348174 -0.00807999 -0.00047292
v -0.00123193 0.00325158 -0.00847521
v -0.00204052 0.00244123 -0.00843077
v -0.00204052 0.00325158 -0.00843900
v -0.00211955 0.00413924 -0.00833860
v 0.02223541 -0.01456012 -0.00782673
v -0.00284911 0.00386468 -0.00822997
v -0.00246913 0.00447777 -0.00761606
v -0.00326556 0.00366742 -0.00817401
v -0.00334156 0.00373673 -0.00775925
v -0.00341147 0.00379804 -0.00694947
v -0.00247825 0.00448577 -0.00694947
v -0.00247825 0.00448577 -0.00371038
v -0.00247521 0.00448310 0.00681175
v -0.00246305 0.00447777 0.00739440
v -0.00242657 0.00444312 0.00793425
v 0.00038829 0.00459772 0.00809554
v 0.00113912 0.00467769 0.00763634
v -0.00268800 0.00390200 0.00808896
v -0.00211043 0.00412857 0.00818278
v -0.00123193 0.00405927 0.00832926
v -0.00042334 0.00405927 0.00828811
v 0.01095467 0.00302767 0.00193994
v 0.01090908 0.00323825 0.00033356
v 0.01148056 0.00296103 0.00033356
v 0.01147144 0.00297969 -0.00047128
v 0.00082906 0.00449643 0.00804123
v 0.01121002 0.00120972 0.00558393
v 0.01153528 0.00142297 0.00504408
v 0.01090908 0.00221466 0.00421784
v 0.01057774 0.00289706 0.00329121
v 0.01010049 0.00302501 0.00343605
v 0.01071757 0.00297969 0.00276124
v 0.02313216 -0.00986329 -0.00619895
v 0.01118570 0.00277710 -0.00290225
v 0.01156264 0.00229196 -0.00371202
v 0.02313216 -0.00874373 -0.00459257
v 0.02313216 -0.00904494 -0.00540399
v 0.01141065 0.00293171 -0.00128105
v 0.01135593 0.00288106 -0.00188180
v 0.01128297 0.00282775 -0.00242165
v 0.02312912 -0.01464009 -0.00780204
v 0.02312912 -0.01536780 -0.00779710
v 0.02305008 -0.01536780 -0.00780040
v 0.02300145 -0.01532782 -0.00780204
v 0.02345742 -0.00807999 0.00033191
v 0.02312912 -0.01871316 0.00709814
v 0.02312912 -0.01941156 0.00674757
v 0.02312912 -0.01987804 0.00644966
v 0.02312912 -0.02045915 0.00582752
v 0.02312912 -0.02079501 0.00540288
v 0.02312912 -0.02090964 0.00523335
v 0.02312912 -0.02134946 0.00443839
v 0.02312912 -0.02144543 0.00419974
v 0.02312912 -0.02152539 0.00396767
v 0.02312912 -0.02163469 0.00363026
v 0.02312912 -0.02184794 0.00275630
v 0.02312912 -0.02198122 0.00194982
v 0.02312912 -0.02206385 0.00113840
v 0.02312912 -0.02209584 0.00042902
v 0.02312912 -0.02213582 -0.00046634
v 0.02312912 -0.02209851 -0.00127776
v 0.02312912 -0.02200254 -0.00209083
v 0.02312912 -0.02184260 -0.00289896
v 0.02312912 -0.02158937 -0.00373342
v 0.02312912 -0.02145076 -0.00413666
v 0.02312912 -0.02133081 -0.00438848
v 0.02312912 -0.02127216 -0.00451028
v 0.02312912 -0.02088831 -0.00516040
v 0.02312912 -0.02084300 -0.00522459
v 0.02312912 -0.02054445 -0.00562125
v 0.02312912 -0.02020058 -0.00603765
v 0.02312912 -0.02014460 -0.00610349
v 0.02312912 -0.01981673 -0.00646229
v 0.02312912 -0.01977675 -0.00650509
v 0.02312912 -0.01944354 -0.00671576
v 0.02312912 -0.01937424 -0.00675526
v 0.02312912 -0.01856922 -0.00719636
v 0.02312912 -0.01822535 -0.00736259
v 0.02312912 -0.01785217 -0.00748109
v 0.02312912 -0.01706314 -0.00768354
v 0.02312912 -0.01698051 -0.00770000
v 0.02312912 -0.01674327 -0.00772633
v 0.02312912 -0.01617549 -0.00778558
v 0.02313216 -0.00871707 -0.00451357
v 0.02341790 -0.00807999 -0.00083831
v 0.01188486 0.00260917 0.00033356
v -0.00123193 0.00244123 -0.00845875
v 0.02219286 -0.01532782 -0.00781685
v 0.02142682 -0.01532782 -0.00782673
v -0.00204052 0.00163355 -0.00840114
v -0.00284911 0.00082320 -0.00827441
v -0.00284911 0.00163355 -0.00829416
v -0.00284911 0.00244123 -0.00830404
v -0.00284911 0.00325158 -0.00830074
v -0.00288255 0.00420321 -0.00694947
v -0.00331420 0.00325158 -0.00818553
v -0.00446933 0.00082320 -0.00783661
v -0.00451492 0.00161489 -0.00766379
v -0.00490706 0.00133500 -0.00742020
v -0.00426870 0.00244123 -0.00761606
v -0.00412583 0.00292904 -0.00748439
v -0.00381273 0.00337420 -0.00694947
v -0.00341147 0.00380070 -0.00209083
v -0.00381881 0.00337687 -0.00371038
v -0.00381881 0.00338220 0.00438243
v -0.00288255 0.00420588 -0.00209083
v -0.00287951 0.00420321 0.00681175
v -0.00341147 0.00379804 0.00681175
v -0.00335979 0.00375006 0.00746517
v -0.00412583 0.00293437 0.00732362
v 0.02312912 -0.01294475 0.00753101
v 0.02312912 -0.01213440 0.00739440
v -0.00281263 0.00325158 0.00811365
v -0.00321692 0.00325158 0.00800667
v -0.00204052 0.00325158 0.00825684
v -0.00123193 0.00325158 0.00830786
v 0.01333181 -0.01051370 0.00791285
v 0.02305008 -0.01536780 0.00769559
v 0.02312912 -0.01536780 0.00769395
v 0.02304704 -0.01456012 0.00769230
v 0.02312912 -0.01456012 0.00768901
v 0.02312912 -0.01374977 0.00762153
v 0.02312912 -0.01367247 0.00761495
v 0.01136505 0.00287307 0.00166508
v 0.01142585 0.00290505 0.00114169
v 0.01183014 0.00263316 0.00114169
v 0.01043183 0.00036471 0.00638712
v 0.02312912 -0.01162527 0.00725943
v 0.02312912 -0.01122276 0.00706851
v 0.02312912 -0.01115345 0.00703066
v 0.02312912 -0.01082291 0.00682328
v 0.02312912 -0.01050304 0.00662248
v 0.02312912 -0.01030578 0.00645954
v 0.02312912 -0.01002589 0.00619290
v 0.02313216 -0.00986329 0.00601021
v 0.02313216 -0.00942613 0.00549834
v 0.02313216 -0.00906094 0.00506383
v 0.02312912 -0.00863710 0.00439395
v 0.01207636 0.00114841 0.00466552
v 0.01171463 0.00162555 0.00435610
v 0.01134985 0.00206272 0.00404667
v 0.01112186 0.00271046 0.00276124
v 0.01125562 0.00280642 0.00220328
v 0.02331455 -0.00807999 -0.00128270
v 0.02313216 -0.00853847 -0.00384534
v 0.02305008 -0.01617549 -0.00778723
v 0.02312912 -0.00834655 0.00356772
v 0.02312912 -0.00835721 0.00361874
v 0.02312912 -0.00861311 0.00433799
v 0.02313216 -0.00871707 0.00451575
v 0.02312912 -0.01617549 0.00766103
v 0.02312912 -0.01698051 0.00757215
v 0.02312912 -0.01779086 0.00739111
v 0.02312912 -0.01830532 0.00724298
v 0.01226787 0.00222798 0.00114169
v 0.02182504 -0.01819870 0.00720841
v 0.02128699 -0.01813739 0.00719360
v 0.02287985 -0.01868917 0.00708497
v 0.02304704 -0.01941156 0.00673769
v 0.02304704 -0.01987271 0.00644143
v 0.02262147 -0.01981940 0.00640193
v 0.02230533 -0.02007530 0.00603490
v 0.02274306 -0.02060309 0.00556418
v 0.02302576 -0.02087765 0.00524981
v 0.02223541 -0.02081634 0.00507206
v 0.02142682 -0.02070971 0.00491405
v 0.02223541 -0.02116820 0.00437749
v 0.02297713 -0.02133880 0.00438243
v 0.02265491 -0.02143210 0.00396108
v 0.02297713 -0.02160003 0.00364343
v 0.02223541 -0.02150674 0.00339984
v 0.02304704 -0.02183194 0.00275630
v 0.02223541 -0.02164801 0.00275630
v 0.02103773 -0.02143210 0.00232508
v 0.02087966 -0.02146942 0.00178687
v 0.02036897 -0.02139745 0.00113840
v 0.02028386 -0.02141877 0.00032862
v 0.02304704 -0.02207985 -0.00127776
v 0.02026258 -0.02142410 -0.00046634
v 0.02223541 -0.02178663 -0.00208918
v 0.02100733 -0.02143743 -0.00250065
v 0.02304704 -0.02182395 -0.00289896
v 0.02303792 -0.02157071 -0.00373671
v 0.02276130 -0.02140544 -0.00402474
v 0.02061519 -0.02073104 -0.00435885
v 0.02137515 -0.02082700 -0.00458269
v 0.02107117 -0.02061642 -0.00489706
v 0.02161225 -0.02067506 -0.00498758
v 0.02304704 -0.02084033 -0.00520648
v 0.02223541 -0.02004331 -0.00601790
v 0.02142682 -0.01995534 -0.00591586
v 0.02223541 -0.01968078 -0.00642115
v 0.02304704 -0.01976875 -0.00649850
v 0.02223541 -0.01927561 -0.00670259
v 0.02304704 -0.01936091 -0.00675361
v 0.02232661 -0.01868917 -0.00703506
v 0.02223541 -0.01860121 -0.00706962
v 0.02300145 -0.01854523 -0.00719307
v 0.02270354 -0.01818004 -0.00734119
v 0.02061519 -0.01698051 -0.00756668
v 0.02142682 -0.01698051 -0.00762922
v 0.02223541 -0.01698051 -0.00767366
v 0.02305008 -0.01698051 -0.00770000
v 0.02280690 -0.01674327 -0.00772798
v 0.02223541 -0.01617549 -0.00779217
v -0.00123193 0.00163355 -0.00841596
v 0.02061519 -0.01532782 -0.00783167
v 0.02057568 -0.01532782 -0.00783167
v 0.01980964 -0.01536780 -0.00782179
v -0.00231106 -0.00196504 -0.00816084
v -0.00257552 -0.00142659 -0.00818060
v -0.00273663 -0.00079483 -0.00820528
v -0.00291902 0.00001018 -0.00822833
v 0.00147350 -0.00365505 -0.00816743
v 0.00093546 -0.00355909 -0.00816084
v -0.00329292 0.00001018 -0.00817237
v -0.00331420 0.00018612 -0.00817566
v -0.00354218 0.00001018 -0.00813122
v -0.00335979 0.00082320 -0.00818553
v -0.00337803 0.00163355 -0.00819376
v -0.00336891 0.00244123 -0.00819541
v -0.00378233 0.00163355 -0.00809501
v -0.00446933 0.00001285 -0.00787281
v -0.00498913 0.00001285 -0.00752883
v -0.00495874 0.00082320 -0.00749262
v -0.00478851 0.00179082 -0.00694947
v -0.00447541 0.00244123 -0.00694947
v -0.00733283 -0.00517179 -0.00335487
v -0.00743618 -0.00500119 -0.00290060
v -0.00750002 -0.00477195 -0.00214679
v -0.00415623 0.00297169 -0.00694947
v -0.00341147 0.00380070 -0.00128105
v -0.00415927 0.00297436 0.00033356
v -0.00415927 0.00297702 0.00438243
v -0.00381881 0.00338220 0.00681175
v -0.00415927 0.00297702 0.00681175
v -0.00447237 0.00244123 0.00681175
v -0.00490098 0.00131901 0.00725943
v -0.00426870 0.00244123 0.00743719
v -0.00279135 0.00244123 0.00809719
v -0.00319565 0.00244123 0.00801490
v -0.00315309 0.00163355 0.00800667
v -0.00450884 0.00160423 0.00746517
v -0.00494962 0.00082320 0.00731375
v -0.00446933 0.00082320 0.00759684
v -0.00446933 0.00001285 0.00762976
v -0.00366074 0.00163355 0.00788322
v -0.00274575 0.00163355 0.00808238
v -0.00204052 0.00163355 0.00820417
v -0.00123193 0.00244123 0.00828317
v 0.01332269 -0.01132672 0.00785524
v 0.01494595 -0.01294475 0.00777130
v 0.02223541 -0.01617549 0.00765116
v 0.02305008 -0.01617549 0.00766103
v 0.00119688 -0.00403357 0.00808402
v 0.00201155 -0.00519311 0.00804288
v 0.00201155 -0.00534506 0.00803629
v 0.01166903 0.00257985 0.00193994
v 0.01220708 0.00213735 0.00195311
v 0.01201861 0.00194276 0.00293570
v 0.01146536 0.00215335 0.00357266
v 0.01173895 0.00225997 0.00270528
v 0.01213716 0.00205205 0.00239750
v 0.02305008 -0.01674327 0.00759849
v 0.02305008 -0.01698051 0.00757215
v 0.02305008 -0.01779086 0.00738781
v 0.02061519 -0.01698051 0.00743884
v 0.01899801 -0.01617549 0.00752278
v 0.02061519 -0.01762825 0.00727260
v 0.01980964 -0.01747631 0.00723804
v 0.02061519 -0.01803343 0.00715410
v 0.02150282 -0.01852124 0.00701584
v 0.02142682 -0.01698051 0.00749315
v 0.02061519 -0.01860121 0.00683809
v 0.02230533 -0.01944887 0.00659285
v 0.02142682 -0.01924095 0.00656981
v 0.02061519 -0.01912100 0.00648587
v 0.02011362 -0.01904370 0.00642826
v 0.02207734 -0.01974209 0.00633116
v 0.02142682 -0.02002998 0.00584068
v 0.02223541 -0.02054178 0.00547859
v 0.02142682 -0.02043249 0.00531894
v 0.02095261 -0.02064307 0.00481036
v 0.02142682 -0.02096295 0.00437749
v 0.02223541 -0.02138412 0.00380473
v 0.02177032 -0.02145342 0.00322044
v 0.02159401 -0.02149341 0.00275630
v 0.02118668 -0.02138945 0.00275630
v 0.02061519 -0.02122685 0.00275630
v 0.02061215 -0.02137079 0.00201401
v 0.01980964 -0.02123751 0.00113840
v 0.01980964 -0.02128549 0.00032862
v 0.02223541 -0.02187726 -0.00127776
v 0.02035985 -0.02139745 -0.00127776
v 0.02142682 -0.02167467 -0.00127776
v 0.01980964 -0.02129349 -0.00046634
v 0.02069119 -0.02126416 -0.00281995
v 0.02142682 -0.02137612 -0.00308823
v 0.02051792 -0.02135746 -0.00208918
v 0.01980964 -0.02114688 -0.00208918
v 0.01980964 -0.02098161 -0.00289896
v 0.02185848 -0.02142677 -0.00327751
v 0.02239652 -0.02149607 -0.00348489
v 0.02142682 -0.02118420 -0.00370873
v 0.02061519 -0.02054978 -0.00476210
v 0.02061519 -0.02097095 -0.00370873
v 0.02011362 -0.02065907 -0.00419262
v 0.01860284 -0.01981140 -0.00491516
v 0.01980964 -0.02001665 -0.00519661
v 0.02057264 -0.02011528 -0.00539247
v 0.02080974 -0.01987804 -0.00581381
v 0.02223541 -0.02045115 -0.00548958
v 0.02017746 -0.01901971 -0.00655117
v 0.02142682 -0.01958216 -0.00631745
v 0.02061519 -0.01907835 -0.00658903
v 0.02142682 -0.01917965 -0.00664663
v 0.02142682 -0.01868917 -0.00691820
v 0.02142682 -0.01860121 -0.00696593
v 0.01949350 -0.01736169 -0.00733955
v 0.01978229 -0.01704715 -0.00746957
v 0.02037505 -0.01674327 -0.00761112
v 0.01980964 -0.01617549 -0.00771152
v 0.02118668 -0.01674327 -0.00767037
v 0.02061519 -0.01617549 -0.00776583
v 0.02142682 -0.01617549 -0.00778723
v 0.01895242 -0.01532782 -0.00778065
v -0.00279743 -0.00246618 -0.00796005
v -0.00284607 -0.00241553 -0.00796169
v -0.00284607 -0.00166116 -0.00812134
v -0.00123193 -0.00322588 -0.00805222
v -0.00204052 -0.00322588 -0.00792877
v -0.00314093 -0.00079483 -0.00814932
v -0.00291902 -0.00004579 -0.00822503
v -0.00323820 -0.00035234 -0.00816084
v -0.00365770 -0.00079483 -0.00806867
v -0.00361514 -0.00004579 -0.00811476
v -0.00362426 0.00001018 -0.00811476
v -0.00376409 0.00082320 -0.00810324
v -0.00446933 0.00001018 -0.00787281
v -0.00501041 -0.00079483 -0.00751895
v -0.00566701 -0.00241553 -0.00644583
v -0.00733587 -0.00519311 -0.00335322
v -0.00478851 0.00179082 -0.00613970
v -0.00739058 -0.00424682 -0.00128270
v -0.00739666 -0.00417751 -0.00047292
v -0.00723251 -0.00377234 -0.00047292
v -0.00723251 -0.00376701 0.00033191
v -0.00447541 0.00244123 0.00600198
v -0.00743618 -0.00544635 -0.00290060
v -0.00746050 -0.00519045 -0.00261586
v -0.00757297 -0.00484392 -0.00128270
v -0.00477939 0.00176950 0.00681175
v -0.00739666 -0.00423616 0.00195311
v -0.00734803 -0.00433212 0.00275959
v -0.00730243 -0.00442808 0.00317106
v -0.00651816 -0.00276740 0.00483011
v -0.00568221 -0.00119734 0.00641016
v -0.00366074 0.00082320 0.00787335
v -0.00308013 0.00082320 0.00799679
v -0.00366074 0.00001285 0.00784866
v -0.00498305 0.00001285 0.00734831
v -0.00446933 0.00001018 0.00762976
v -0.00204052 0.00082320 0.00817455
v -0.00123193 0.00082320 0.00823051
v 0.01574846 -0.01374977 0.00771534
v 0.01899801 -0.01536780 0.00765116
v 0.01980964 -0.01536780 0.00767091
v 0.02142682 -0.01617549 0.00763140
v -0.00123193 0.00001018 0.00819430
v 0.00058588 -0.00403357 0.00805933
v 0.00127288 -0.00480127 0.00804452
v 0.00160422 -0.00525442 0.00802642
v 0.02061519 -0.01617549 0.00760178
v 0.01980964 -0.01617549 0.00757215
v 0.02223541 -0.01698051 0.00753759
v 0.01818638 -0.01536780 0.00761824
v 0.01737476 -0.01536780 0.00755899
v 0.01818638 -0.01617549 0.00743554
v 0.01937191 -0.01739368 0.00721335
v 0.01883386 -0.01727906 0.00716727
v 0.01980964 -0.01788149 0.00706357
v 0.01982788 -0.01864119 0.00662577
v 0.02061519 -0.01868917 0.00678048
v 0.01984916 -0.01939823 0.00598388
v 0.02061519 -0.01952618 0.00611390
v 0.02142682 -0.01964346 0.00624228
v 0.01956950 -0.01893707 0.00634597
v 0.02061519 -0.01991536 0.00571395
v 0.02012578 -0.01984339 0.00562507
v 0.02065775 -0.02074703 0.00437256
v 0.01983700 -0.02003531 0.00521854
v 0.01899801 -0.01993402 0.00495355
v 0.02041761 -0.02056310 0.00463919
v 0.02005283 -0.02067506 0.00409934
v 0.02146938 -0.02127749 0.00352163
v 0.02061519 -0.02101360 0.00356772
v 0.01980964 -0.02097628 0.00275630
v 0.01980964 -0.02114688 0.00194982
v 0.01899801 -0.02097095 0.00113840
v 0.01899801 -0.02102426 0.00032862
v 0.01980964 -0.02123484 -0.00127776
v 0.01899801 -0.02102426 -0.00046634
v 0.01899801 -0.02096028 -0.00127776
v 0.01899801 -0.02086699 -0.00208918
v 0.01853900 -0.02064307 -0.00255661
v 0.01982788 -0.02074170 -0.00369063
v 0.01875483 -0.02056844 -0.00309482
v 0.01929592 -0.02066173 -0.00340753
v 0.01982788 -0.02042716 -0.00448230
v 0.01956950 -0.02057110 -0.00394738
v 0.01768786 -0.01985138 -0.00419427
v 0.01818638 -0.01993935 -0.00437202
v 0.01980964 -0.01972077 -0.00559985
v 0.01818638 -0.01974209 -0.00477526
v 0.01681239 -0.01908635 -0.00502873
v 0.01737780 -0.01919564 -0.00517850
v 0.01815295 -0.01931026 -0.00538753
v 0.02027170 -0.01979807 -0.00570519
v 0.01986436 -0.01925961 -0.00616439
v 0.01845389 -0.01825201 -0.00657915
v 0.01818638 -0.01783617 -0.00678818
v 0.01899801 -0.01779086 -0.00702189
v 0.01899801 -0.01727372 -0.00731157
v 0.02061519 -0.01868917 -0.00680628
v 0.01899801 -0.01917698 -0.00593396
v 0.01656313 -0.01835064 -0.00588294
v 0.01791888 -0.01813739 -0.00649850
v 0.02061519 -0.01860121 -0.00685401
v 0.01899801 -0.01686855 -0.00743830
v 0.01899801 -0.01674327 -0.00747286
v 0.01899801 -0.01617549 -0.00762099
v 0.00041869 -0.00568359 -0.00773621
v -0.00284911 -0.00322588 -0.00769671
v -0.00123193 -0.00484392 -0.00765391
v -0.00119849 -0.00519311 -0.00755351
v -0.00204052 -0.00403357 -0.00768025
v -0.00365770 -0.00241553 -0.00770164
v -0.00365770 -0.00160518 -0.00794523
v -0.00007680 -0.00519045 -0.00778065
v -0.00042334 -0.00484392 -0.00781027
v -0.00123193 -0.00403357 -0.00787611
v -0.00038990 -0.00568359 -0.00761276
v -0.00088539 -0.00519045 -0.00763745
v -0.00446629 -0.00079483 -0.00784154
v -0.00496786 -0.00160518 -0.00743995
v -0.00566701 -0.00246618 -0.00644090
v -0.00733587 -0.00530507 -0.00335322
v -0.00478243 0.00176950 0.00600198
v -0.00739970 -0.00417218 0.00033191
v -0.00747874 -0.00569692 -0.00205626
v -0.00754561 -0.00565427 -0.00128270
v -0.00746050 -0.00519311 -0.00261586
v -0.00708052 -0.00585152 -0.00290060
v -0.00721428 -0.00599547 -0.00230150
v -0.00732371 -0.00608077 -0.00176165
v -0.00753042 -0.00565427 -0.00047292
v -0.00753954 -0.00519311 -0.00047292
v -0.00752434 -0.00519045 -0.00001537
v -0.00751522 -0.00484392 0.00033191
v -0.00739970 -0.00420950 0.00114333
v -0.00747874 -0.00484392 0.00114333
v -0.00734803 -0.00456403 0.00275959
v -0.00730243 -0.00444407 0.00317106
v -0.00651816 -0.00291667 0.00483011
v -0.00568221 -0.00131463 0.00641016
v -0.00499825 -0.00079483 0.00733185
v -0.00446629 -0.00079483 0.00757051
v -0.00365770 -0.00079483 0.00774003
v 0.00073787 -0.00450272 0.00803629
v -0.00209827 0.00001018 0.00809390
v -0.00256641 0.00025276 0.00804617
v -0.00498305 0.00001018 0.00734831
v 0.01656313 -0.01456012 0.00764951
v 0.00444644 -0.00727497 0.00792437
v 0.00282622 -0.00646462 0.00793754
v 0.00128504 -0.00557696 0.00792602
v 0.00201459 -0.00646462 0.00786841
v 0.00201459 -0.00617140 0.00791614
v 0.00201459 -0.00575023 0.00798362
v 0.01574846 -0.01456012 0.00756557
v 0.01656313 -0.01536780 0.00746352
v 0.01739907 -0.01621014 0.00731869
v 0.01545056 -0.01572233 0.00719525
v 0.01714069 -0.01650336 0.00718208
v 0.01818638 -0.01712978 0.00709485
v 0.01905881 -0.01771622 0.00697634
v 0.01656313 -0.01637008 0.00712118
v 0.01840221 -0.01827867 0.00645460
v 0.01815599 -0.01784950 0.00666527
v 0.01737476 -0.01764691 0.00657639
v 0.01899801 -0.01923562 0.00584068
v 0.01786417 -0.01816138 0.00637230
v 0.01737476 -0.01804942 0.00628836
v 0.01899801 -0.01881179 0.00624228
v 0.01958774 -0.01975542 0.00550986
v 0.01979444 -0.02048314 0.00437256
v 0.01899801 -0.01964080 0.00535844
v 0.01852380 -0.01984605 0.00481859
v 0.01899801 -0.02022190 0.00437749
v 0.01759666 -0.01987804 0.00408946
v 0.01951478 -0.02058976 0.00384423
v 0.01900409 -0.02050446 0.00357101
v 0.01928072 -0.02066440 0.00330273
v 0.01818638 -0.02023790 0.00356772
v 0.01873963 -0.02057643 0.00294064
v 0.01900409 -0.02072038 0.00270692
v 0.01856028 -0.02063774 0.00240408
v 0.01899801 -0.02087498 0.00194982
v 0.01831710 -0.02072571 0.00113840
v 0.01825934 -0.02075236 0.00032862
v 0.01737780 -0.02042183 0.00032862
v 0.01828670 -0.02075236 -0.00046634
v 0.01834749 -0.02072038 -0.00127776
v 0.01737780 -0.02028321 -0.00208918
v 0.01845389 -0.02067506 -0.00208918
v 0.01737780 -0.02013660 -0.00289896
v 0.01818638 -0.02018725 -0.00370873
v 0.01740211 -0.01992069 -0.00366594
v 0.01714373 -0.01974476 -0.00390788
v 0.01740211 -0.01960615 -0.00448230
v 0.01737780 -0.01889709 -0.00558339
v 0.01839309 -0.01907302 -0.00581217
v 0.01654793 -0.01922230 -0.00453332
v 0.01626826 -0.01895307 -0.00481806
v 0.01577278 -0.01840661 -0.00532663
v 0.01605548 -0.01824934 -0.00578419
v 0.01818638 -0.01710046 -0.00722269
v 0.01737476 -0.01761226 -0.00669436
v 0.01787328 -0.01674327 -0.00731980
v 0.01774561 -0.01659399 -0.00735601
v 0.01818638 -0.01669795 -0.00738728
v 0.01839613 -0.01674327 -0.00740209
v 0.01737476 -0.01801477 -0.00641456
v 0.01818638 -0.01617549 -0.00751730
v 0.00120904 -0.00646462 -0.00764404
v -0.00042334 -0.00519045 -0.00772798
v -0.00115897 -0.00559296 -0.00743501
v -0.00157239 -0.00519045 -0.00743666
v -0.00172742 -0.00519311 -0.00738070
v -0.00248737 -0.00448139 -0.00736917
v -0.00084587 -0.00607810 -0.00736424
v -0.00360298 -0.00398026 -0.00715027
v -0.00453316 -0.00409488 -0.00677007
v -0.00441461 -0.00316991 -0.00714863
v -0.00464868 -0.00257281 -0.00727042
v -0.00446629 -0.00160518 -0.00767695
v 0.00038525 -0.00649927 -0.00750414
v -0.00042030 -0.00621938 -0.00742843
v -0.00488882 -0.00203168 -0.00736259
v -0.00520496 -0.00322588 -0.00675361
v -0.00561229 -0.00322588 -0.00638494
v -0.00574605 -0.00454270 -0.00581381
v -0.00658503 -0.00541436 -0.00422883
v -0.00641481 -0.00595282 -0.00395890
v -0.00736627 -0.00613675 -0.00128270
v -0.00738451 -0.00617940 -0.00047292
v -0.00655160 -0.00609676 -0.00341905
v -0.00667623 -0.00617140 -0.00290060
v 0.00317884 -0.01257689 -0.00259611
v -0.00002512 -0.01092954 -0.00090250
v -0.00656072 -0.00691511 -0.00025238
v -0.00734803 -0.00613675 0.00011136
v -0.00742098 -0.00569692 0.00035989
v -0.00738147 -0.00545701 0.00114169
v -0.00740274 -0.00485991 0.00195311
v -0.00734195 -0.00532373 0.00168154
v -0.00736019 -0.00519311 0.00175889
v -0.00727811 -0.00519311 0.00207490
v -0.00725379 -0.00514247 0.00222139
v -0.00715044 -0.00496920 0.00275959
v -0.00661239 -0.00542769 0.00340642
v -0.00647864 -0.00519578 0.00394627
v -0.00647560 -0.00519045 0.00395286
v -0.00559102 -0.00241553 0.00629495
v -0.00567917 -0.00185575 0.00639864
v -0.00496786 -0.00144258 0.00728577
v -0.00453316 -0.00166916 0.00737465
v -0.00206484 -0.00485458 0.00732198
v -0.00041726 -0.00565427 0.00755899
v -0.00041726 -0.00519311 0.00764786
v 0.00041565 -0.00519045 0.00783549
v 0.00039133 -0.00565427 0.00774168
v 0.00122728 -0.00617140 0.00778776
v 0.00120904 -0.00646462 0.00772028
v 0.00201155 -0.00661656 0.00782397
v 0.00282926 -0.00727497 0.00776307
v 0.01494595 -0.01558638 0.00714093
v 0.01573326 -0.01613284 0.00704712
v 0.00201155 -0.00727497 0.00762153
v 0.01652665 -0.01674327 0.00689734
v 0.01649625 -0.01705781 0.00670148
v 0.01575454 -0.01687921 0.00661096
v 0.01656313 -0.01833198 0.00573535
v 0.01835357 -0.01910501 0.00570572
v 0.01575454 -0.01728439 0.00632622
v 0.01494595 -0.01709779 0.00618467
v 0.01494595 -0.01758027 0.00578472
v 0.01781249 -0.01899039 0.00557405
v 0.01607372 -0.01823068 0.00563166
v 0.01682151 -0.01907036 0.00487620
v 0.01734436 -0.01961947 0.00436597
v 0.01705862 -0.01978474 0.00384423
v 0.01734436 -0.01995001 0.00357101
v 0.01845997 -0.02067506 0.00194982
v 0.01690359 -0.01984605 0.00330273
v 0.01737780 -0.02012594 0.00275630
v 0.01737780 -0.02026189 0.00194982
v 0.01737780 -0.02037918 0.00113840
v 0.01656313 -0.02009129 0.00032862
v 0.01737780 -0.02038717 -0.00046634
v 0.01737780 -0.02033919 -0.00127776
v 0.01794320 -0.02056310 -0.00127776
v 0.01656313 -0.02000866 -0.00127776
v 0.01616187 -0.01981673 -0.00168265
v 0.01652361 -0.01993935 -0.00200853
v 0.01622267 -0.01978474 -0.00222250
v 0.01678503 -0.01990470 -0.00289896
v 0.01693094 -0.01983806 -0.00336639
v 0.01662088 -0.01960081 -0.00366594
v 0.01599772 -0.01908368 -0.00427821
v 0.01437446 -0.01828133 -0.00427985
v 0.01275424 -0.01747098 -0.00428314
v 0.01303087 -0.01733503 -0.00481970
v 0.01518609 -0.01827867 -0.00505506
v 0.01356891 -0.01747098 -0.00504683
v 0.01551439 -0.01810273 -0.00559656
v 0.01445958 -0.01743100 -0.00577431
v 0.01494595 -0.01755361 -0.00587636
v 0.01577278 -0.01781751 -0.00599651
v 0.01654185 -0.01776420 -0.00631581
v 0.01743251 -0.01690853 -0.00711900
v 0.01719845 -0.01643139 -0.00730334
v 0.01680023 -0.01747631 -0.00659890
v 0.01654185 -0.01703382 -0.00679147
v 0.00065275 -0.00694710 -0.00740045
v 0.00045821 -0.00661656 -0.00747780
v -0.00185813 -0.00519045 -0.00733461
v -0.00044766 -0.00661656 -0.00718977
v -0.00118025 -0.00661656 -0.00686883
v -0.00094011 -0.00617140 -0.00726219
v -0.00340539 -0.00536105 -0.00661371
v -0.00484018 -0.00440676 -0.00652977
v 0.00011471 -0.00678982 -0.00730498
v -0.00506209 -0.00386830 -0.00663840
v -0.00550286 -0.00508382 -0.00562125
v -0.00582508 -0.00545435 -0.00508140
v -0.00611994 -0.00570491 -0.00454484
v -0.00560622 -0.00599547 -0.00486085
v -0.00587372 -0.00616873 -0.00432100
v -0.00656072 -0.00691511 0.00008668
v 0.00361049 -0.01275283 -0.00287921
v 0.00433397 -0.01318199 -0.00289896
v 0.00417286 -0.01327529 -0.00208918
v 0.00309676 -0.01262754 -0.00208918
v 0.00201459 -0.01209708 -0.00127776
v 0.00409382 -0.01331794 -0.00127776
v 0.00039437 -0.01120943 -0.00046634
v -0.00025311 -0.01082291 -0.00046634
v -0.00022575 -0.01082291 -0.00070664
v -0.00691637 -0.00648594 0.00036977
v -0.00653032 -0.00610209 0.00246004
v -0.00727203 -0.00599280 0.00065121
v -0.00705621 -0.00561695 0.00194982
v -0.00671879 -0.00567826 0.00274313
v -0.00701669 -0.00519311 0.00275465
v -0.00641481 -0.00596615 0.00299989
v -0.00630233 -0.00567826 0.00363355
v -0.00573085 -0.00609143 0.00403844
v -0.00588892 -0.00561695 0.00433799
v -0.00572477 -0.00531840 0.00483669
v -0.00491922 -0.00372702 0.00645624
v -0.00501953 -0.00322588 0.00656652
v -0.00518976 -0.00241553 0.00672617
v -0.00484930 -0.00198370 0.00720677
v -0.00312269 -0.00425215 0.00717879
v -0.00258464 -0.00459335 0.00724627
v -0.00181253 -0.00538771 0.00726602
v -0.00121065 -0.00568359 0.00734173
v -0.00096442 -0.00617140 0.00726766
v -0.00095835 -0.00618206 0.00726602
v 0.00039437 -0.00646462 0.00751784
v 0.00039133 -0.00568359 0.00773509
v 0.00119992 -0.00661656 0.00766432
v 0.01414952 -0.01533315 0.00704218
v 0.01494595 -0.01617549 0.00681834
v 0.00119080 -0.00731762 0.00739769
v 0.00300861 -0.00860511 0.00727260
v 0.00145527 -0.00776811 0.00725614
v 0.00201155 -0.00833055 0.00713435
v 0.00038829 -0.00661656 0.00746023
v 0.01494595 -0.01669262 0.00647929
v 0.01452037 -0.01659133 0.00640687
v 0.01397625 -0.01644472 0.00630318
v 0.01441094 -0.01745499 0.00566787
v 0.01553871 -0.01811340 0.00546213
v 0.01628346 -0.01895307 0.00469021
v 0.01655705 -0.01924895 0.00440054
v 0.01596732 -0.01910501 0.00414872
v 0.01543232 -0.01896640 0.00386562
v 0.01524081 -0.01906236 0.00332413
v 0.01679719 -0.01989403 0.00275630
v 0.01510402 -0.01912367 0.00275630
v 0.01638986 -0.01971544 0.00275630
v 0.01654489 -0.01993402 0.00186917
v 0.01656313 -0.02004864 0.00113840
v 0.01605852 -0.01986738 0.00032862
v 0.01567246 -0.01968078 -0.00046634
v 0.01607372 -0.01985138 -0.00046634
v 0.01656313 -0.02005664 -0.00046634
v 0.01573022 -0.01965146 -0.00127776
v 0.01494595 -0.01929693 -0.00127776
v 0.01637466 -0.01971544 -0.00289896
v 0.01444134 -0.01905703 -0.00127776
v 0.01451429 -0.01902237 -0.00177811
v 0.01490035 -0.01916632 -0.00206449
v 0.01459637 -0.01897972 -0.00231631
v 0.01419207 -0.01868917 -0.00282983
v 0.01575758 -0.01942222 -0.00289896
v 0.01525905 -0.01904636 -0.00342399
v 0.01573934 -0.01917965 -0.00370215
v 0.01545967 -0.01895573 -0.00396549
v 0.01383642 -0.01814272 -0.00399511
v 0.01361147 -0.01826267 -0.00345197
v 0.01221924 -0.01733503 -0.00394574
v 0.01171159 -0.01679125 -0.00451357
v 0.01249890 -0.01720708 -0.00453661
v 0.01143192 -0.01650602 -0.00478185
v 0.01196997 -0.01665263 -0.00503202
v 0.01256881 -0.01676992 -0.00531182
v 0.01286976 -0.01660465 -0.00575950
v 0.01251410 -0.01554907 -0.00638000
v 0.01465109 -0.01674327 -0.00634050
v 0.01575454 -0.01720442 -0.00642115
v 0.01493987 -0.01694585 -0.00630429
v 0.01309166 -0.01532782 -0.00672234
v 0.01174503 -0.01458144 -0.00672563
v 0.01251410 -0.01456012 -0.00694454
v 0.01575454 -0.01679924 -0.00668284
v 0.01251410 -0.01514389 -0.00665157
v 0.01090908 -0.01428823 -0.00662359
v -0.00106170 -0.00702440 -0.00665486
v -0.00159975 -0.00684314 -0.00652648
v -0.00137480 -0.00661656 -0.00677830
v -0.00226546 -0.00619272 -0.00662853
v -0.00250257 -0.00610209 -0.00657257
v -0.00384616 -0.00519311 -0.00650673
v -0.00394344 -0.00515313 -0.00648369
v -0.00392520 -0.00519311 -0.00646558
v -0.00453316 -0.00486791 -0.00636848
v -0.00496482 -0.00531840 -0.00578748
v -0.00503777 -0.00519311 -0.00583357
v -0.00525664 -0.00519311 -0.00569696
v -0.00546334 -0.00519311 -0.00556693
v 0.01051086 -0.01416294 -0.00654459
v -0.00528400 -0.00565693 -0.00532993
v -0.00460612 -0.00585952 -0.00557845
v -0.00366074 -0.00621405 -0.00585496
v -0.00263024 -0.00695776 -0.00584179
v 0.00077739 -0.00931417 -0.00574469
v 0.00231553 -0.01098552 -0.00500075
v 0.00406950 -0.01252358 -0.00407905
v 0.00387192 -0.01265420 -0.00353756
v -0.00004336 -0.01094287 0.00032862
v -0.00001600 -0.01092421 0.00075655
v 0.00165589 -0.01170524 0.00222139
v 0.00215138 -0.01191315 0.00275630
v -0.00644824 -0.00683514 0.00062653
v 0.00484769 -0.01335526 -0.00331372
v 0.01205813 -0.01742300 -0.00340753
v 0.00883897 -0.01580230 -0.00259118
v 0.00564109 -0.01417360 -0.00176000
v 0.00572924 -0.01423491 -0.00164808
v 0.00568668 -0.01423491 -0.00127776
v 0.00567756 -0.01423491 -0.00114444
v 0.00144919 -0.01182519 -0.00046799
v 0.00104489 -0.01159061 -0.00046799
v -0.00632665 -0.00674451 0.00114169
v -0.00586156 -0.00617940 0.00357101
v -0.00541471 -0.00585952 0.00457829
v -0.00000688 -0.01010853 0.00396931
v -0.00075164 -0.00925553 0.00469844
v -0.00519888 -0.00561695 0.00496672
v -0.00484626 -0.00522777 0.00557570
v -0.00475203 -0.00426814 0.00632786
v -0.00447541 -0.00401224 0.00662742
v -0.00439637 -0.00315924 0.00699116
v -0.00361210 -0.00400158 0.00706193
v -0.00385225 -0.00338316 0.00716562
v -0.00235666 -0.00513181 0.00718208
v -0.00059357 -0.00672052 0.00712447
v -0.00005856 -0.00689911 0.00722652
v -0.00024703 -0.00661656 0.00729071
v -0.00036254 -0.00645662 0.00732198
v -0.00232626 -0.00519311 0.00716233
v -0.00149943 -0.00592616 0.00714422
v 0.01326189 -0.01543977 0.00669983
v 0.00119080 -0.00805600 0.00702901
v 0.01421031 -0.01617549 0.00657804
v 0.00093242 -0.00759218 0.00719854
v 0.00038829 -0.00704306 0.00729235
v 0.01348988 -0.01590626 0.00649245
v 0.01294879 -0.01575432 0.00639041
v 0.01251410 -0.01563970 0.00629824
v 0.01330445 -0.01674327 0.00574851
v 0.01285760 -0.01661532 0.00563166
v 0.01387289 -0.01730838 0.00546213
v 0.01414040 -0.01760693 0.00519056
v 0.01518609 -0.01828400 0.00492228
v 0.01464197 -0.01814272 0.00468527
v 0.01437446 -0.01828666 0.00414378
v 0.01496115 -0.01882512 0.00358582
v 0.01278464 -0.01746032 0.00412238
v 0.01120394 -0.01663664 0.00409605
v 0.01383642 -0.01814005 0.00382448
v 0.01469364 -0.01868917 0.00357759
v 0.01364795 -0.01824401 0.00328298
v 0.01348988 -0.01832398 0.00275630
v 0.01421639 -0.01868917 0.00275630
v 0.01469668 -0.01892908 0.00275630
v 0.01459029 -0.01898506 0.00217036
v 0.01583965 -0.01961414 0.00186917
v 0.01616187 -0.01981673 0.00154328
v 0.01611323 -0.01984339 0.00113840
v 0.01565118 -0.01967545 0.00032862
v 0.01494595 -0.01935558 -0.00046634
v 0.01438966 -0.01908635 -0.00046634
v 0.01364187 -0.01868917 -0.00046469
v 0.01404008 -0.01884378 -0.00127776
v 0.01381514 -0.01868917 -0.00155262
v 0.01401272 -0.01868917 -0.00228340
v 0.01348988 -0.01832398 -0.00289731
v 0.01414040 -0.01864919 -0.00289731
v 0.01308862 -0.01810806 -0.00289731
v 0.00965668 -0.01579963 -0.00415970
v 0.01120394 -0.01663664 -0.00424200
v 0.01131641 -0.01577298 -0.00572987
v 0.01149576 -0.01486400 -0.00646558
v 0.01203077 -0.01501061 -0.00657092
v 0.01307646 -0.01569301 -0.00648698
v 0.01361147 -0.01583429 -0.00658080
v -0.00226242 -0.00661656 -0.00633391
v -0.00304366 -0.00590217 -0.00643267
v -0.00366986 -0.00564094 -0.00628125
v -0.00446933 -0.00519311 -0.00616274
v -0.00371241 -0.00617140 -0.00585825
v -0.00283695 -0.00645129 -0.00613805
v 0.00060412 -0.01131605 0.00032862
v 0.00268031 -0.01239030 0.00194982
v 0.00157686 -0.01175588 0.00168318
v 0.00316060 -0.01258756 0.00254398
v 0.00286878 -0.01235032 0.00279086
v 0.00327307 -0.01252358 0.00308548
v 0.00229425 -0.01181453 0.00334388
v -0.00592236 -0.00702173 0.00114169
v 0.01338956 -0.01838529 -0.00208754
v 0.01325277 -0.01840661 -0.00133208
v 0.01287584 -0.01822535 -0.00109671
v 0.00713667 -0.01504260 -0.00127776
v 0.00862922 -0.01592225 -0.00046305
v 0.00710019 -0.01506659 -0.00046799
v -0.00079116 -0.00846117 0.00556747
v 0.00010559 -0.00841585 0.00632622
v 0.00278670 -0.01200645 0.00359734
v 0.00150694 -0.01098285 0.00409605
v 0.00173189 -0.01082291 0.00462438
v 0.00328219 -0.01170524 0.00474123
v 0.00077435 -0.01012452 0.00480049
v -0.00021359 -0.00941813 0.00492063
v -0.00038382 -0.00881037 0.00549834
v -0.00064220 -0.00871707 0.00539959
v -0.00400120 -0.00519311 0.00615505
v -0.00421398 -0.00456403 0.00650233
v -0.00021967 -0.00787473 0.00655335
v 0.00038221 -0.00807999 0.00671300
v 0.00039741 -0.00744823 0.00710143
v 0.01251410 -0.01523719 0.00657310
v 0.00091722 -0.00761350 0.00718208
v 0.00090202 -0.00807999 0.00690886
v 0.01192133 -0.01506925 0.00647106
v 0.01138937 -0.01491998 0.00636737
v 0.01090908 -0.01477870 0.00625874
v 0.01090908 -0.01524518 0.00585879
v 0.01032543 -0.01507192 0.00570737
v 0.00877817 -0.01421892 0.00566622
v 0.00979043 -0.01491998 0.00552961
v 0.01090908 -0.01564769 0.00542757
v 0.01043487 -0.01581829 0.00484163
v 0.01196997 -0.01664997 0.00488607
v 0.01358107 -0.01746565 0.00492228
v 0.01143496 -0.01650602 0.00463919
v 0.00965060 -0.01580230 0.00403680
v 0.01206725 -0.01741500 0.00323854
v 0.01251410 -0.01755095 0.00353151
v 0.01224659 -0.01731637 0.00377510
v 0.01308558 -0.01810806 0.00275630
v 0.01295487 -0.01817737 0.00215391
v 0.01421031 -0.01883045 0.00192184
v 0.01452037 -0.01901704 0.00163051
v 0.01570894 -0.01964613 0.00113840
v 0.01494595 -0.01933159 0.00032862
v 0.01401576 -0.01886244 0.00032862
v 0.01332573 -0.01850524 0.00032698
v 0.01242898 -0.01803076 0.00032698
v 0.01332573 -0.01851857 -0.00046469
v 0.01126778 -0.01740434 0.00032698
v 0.00863834 -0.01592225 0.00032698
v 0.01128297 -0.01740434 0.00087835
v 0.00526111 -0.01386706 0.00194982
v 0.00727346 -0.01496529 0.00236129
v 0.00429749 -0.01320065 0.00275630
v 0.00385064 -0.01265420 0.00356936
v 0.00481426 -0.01337392 0.00321879
v 0.01131337 -0.01738302 -0.00085312
v 0.01128601 -0.01740167 -0.00031327
v 0.00063756 -0.00857579 0.00648752
v 0.00725522 -0.01336325 0.00560697
v 0.00402087 -0.01255024 0.00399400
v 0.00249184 -0.01168924 0.00388537
v 0.00303901 -0.01185184 0.00419974
v 0.00580827 -0.01326196 0.00462602
v 0.00889064 -0.01496796 0.00478567
v 0.00634936 -0.01341923 0.00487126
v 0.00038221 -0.00811997 0.00668667
v 0.00120296 -0.00873306 0.00660108
v 0.00989074 -0.01566635 0.00457500
v 0.00808813 -0.01496263 0.00396767
v 0.01251714 -0.01780152 0.00275630
v 0.00910039 -0.01565836 0.00356772
v 0.00895448 -0.01574099 0.00302952
v 0.01291231 -0.01820403 0.00161406
v 0.01326797 -0.01835863 0.00191196
v 0.01194261 -0.01748164 0.00275630
v 0.01179974 -0.01756428 0.00194652
v 0.01133465 -0.01737502 0.00141490
v 0.01494595 -0.01927294 0.00113840
v 0.01332573 -0.01845193 0.00113675
v 0.01247458 -0.01801210 0.00113675
v 0.01283328 -0.01824668 -0.00046469
v 0.00834956 -0.01562637 0.00194982
v 0.00582955 -0.01406165 0.00275630
f 1 2 3
f 1 3 4
f 1 4 5
f 1 5 6
f 1 6 7
f 1 7 8
f 1 8 9
f 1 9 10
f 1 10 11
f 1 11 2
f 2 12 3
f 2 11 13
f 2 13 14
f 2 14 15
f 2 15 12
f 3 16 17
f 3 17 4
f 3 12 18
f 3 18 16
f 4 17 19
f 4 19 20
f 4 20 5
f 5 20 21
f 5 21 22
f 5 22 23
f 5 23 6
f 6 23 7
f 7 24 8
f 7 23 25
f 7 25 26
f 7 26 24
f 8 24 9
f 9 24 10
f 10 27 28
f 10 28 29
f 10 29 11
f 10 24 30
f 10 30 27
f 11 29 13
f 12 31 18
f 12 15 32
f 12 32 33
f 12 33 34
f 12 34 31
f 13 29 35
f 13 35 36
f 13 36 14
f 14 36 15
f 15 36 37
f 15 37 38
f 15 38 32
f 16 39 17
f 16 18 31
f 16 31 40
f 16 40 41
f 16 41 39
f 17 39 42
f 17 42 19
f 19 42 43
f 19 43 20
f 20 43 44
f 20 44 45
f 20 45 21
f 21 45 46
f 21 46 47
f 21 47 22
f 22 47 48
f 22 48 23
f 23 48 49
f 23 49 25
f 24 26 50
f 24 50 30
f 25 49 51
f 25 51 52
f 25 52 26
f 26 52 53
f 26 53 50
f 27 54 55
f 27 55 56
f 27 56 28
f 27 30 54
f 28 57 29
f 28 56 58
f 28 58 57
f 29 57 35
f 30 50 59
f 30 59 60
f 30 60 55
f 30 55 54
f 31 34 61
f 31 61 62
f 31 62 63
f 31 63 64
f 31 64 65
f 31 65 66
f 31 66 40
f 32 38 67
f 32 67 68
f 32 68 33
f 33 68 34
f 34 68 69
f 34 69 70
f 34 70 61
f 35 57 71
f 35 71 72
f 35 72 36
f 36 72 37
f 37 72 73
f 37 73 74
f 37 74 38
f 38 74 67
f 39 41 75
f 39 75 76
f 39 76 77
f 39 77 42
f 40 66 78
f 40 78 41
f 41 78 75
f 42 79 80
f 42 80 81
f 42 81 82
f 42 82 43
f 42 77 83
f 42 83 79
f 43 82 84
f 43 84 44
f 44 85 45
f 44 84 86
f 44 86 87
f 44 87 88
f 44 88 85
f 45 85 46
f 46 85 89
f 46 89 90
f 46 90 47
f 47 90 91
f 47 91 48
f 48 91 92
f 48 92 49
f 49 92 93
f 49 93 51
f 50 94 95
f 50 95 59
f 50 53 94
f 51 93 96
f 51 96 97
f 51 97 98
f 51 98 52
f 52 98 53
f 53 99 94
f 53 98 99
f 55 60 100
f 55 100 101
f 55 101 56
f 56 101 58
f 57 58 71
f 58 101 102
f 58 102 103
f 58 103 71
f 59 95 104
f 59 104 105
f 59 105 106
f 59 106 107
f 59 107 108
f 59 108 109
f 59 109 60
f 60 109 108
f 60 108 110
f 60 110 100
f 61 70 111
f 61 111 62
f 62 111 63
f 63 111 78
f 63 78 64
f 64 78 65
f 65 78 66
f 67 74 112
f 67 112 113
f 67 113 68
f 68 113 114
f 68 114 115
f 68 115 69
f 69 115 78
f 69 78 70
f 70 78 111
f 71 103 116
f 71 116 117
f 71 117 118
f 71 118 73
f 71 73 72
f 73 118 74
f 74 118 112
f 75 78 76
f 76 119 77
f 76 78 119
f 77 119 120
f 77 120 121
f 77 121 122
f 77 122 83
f 78 123 124
f 78 124 125
f 78 125 126
f 78 126 127
f 78 127 128
f 78 128 129
f 78 129 130
f 78 130 131
f 78 131 132
f 78 132 133
f 78 133 134
f 78 134 135
f 78 135 136
f 78 136 137
f 78 137 138
f 78 138 139
f 78 139 140
f 78 140 141
f 78 141 142
f 78 142 143
f 78 143 144
f 78 144 145
f 78 145 146
f 78 146 147
f 78 147 148
f 78 148 149
f 78 149 150
f 78 150 151
f 78 151 152
f 78 152 153
f 78 153 154
f 78 154 155
f 78 155 156
f 78 156 157
f 78 157 158
f 78 158 159
f 78 159 160
f 78 160 161
f 78 161 120
f 78 120 119
f 78 115 114
f 78 114 162
f 78 162 163
f 78 163 116
f 78 116 103
f 78 103 164
f 78 164 123
f 79 165 80
f 79 83 166
f 79 166 167
f 79 167 165
f 80 168 169
f 80 169 170
f 80 170 171
f 80 171 81
f 80 165 168
f 81 171 172
f 81 172 82
f 82 172 86
f 82 86 84
f 83 122 166
f 85 88 173
f 85 173 89
f 86 174 175
f 86 175 176
f 86 176 177
f 86 177 178
f 86 178 179
f 86 179 87
f 86 172 174
f 87 179 180
f 87 180 88
f 88 181 184
f 88 184 173
f 88 180 182
f 88 182 183
f 88 183 181
f 89 173 184
f 89 184 90
f 90 184 91
f 91 184 185
f 91 185 92
f 92 185 186
f 92 186 93
f 93 186 187
f 93 187 188
f 93 188 96
f 94 99 189
f 94 189 190
f 94 190 104
f 94 104 95
f 96 191 97
f 96 188 192
f 96 192 191
f 97 193 98
f 97 191 193
f 98 193 194
f 98 194 195
f 98 195 196
f 98 196 197
f 98 197 198
f 98 198 199
f 98 199 99
f 99 199 200
f 99 200 201
f 99 201 189
f 100 110 202
f 100 202 101
f 101 202 203
f 101 203 102
f 102 203 204
f 102 204 164
f 102 164 103
f 104 205 105
f 104 190 206
f 104 206 205
f 105 205 207
f 105 207 208
f 105 208 209
f 105 209 210
f 105 210 211
f 105 211 212
f 105 212 106
f 106 212 213
f 106 213 214
f 106 214 215
f 106 215 216
f 106 216 217
f 106 217 218
f 106 218 219
f 106 219 107
f 107 219 108
f 108 219 220
f 108 220 221
f 108 221 110
f 110 221 202
f 112 118 113
f 113 118 117
f 113 117 222
f 113 222 223
f 113 223 162
f 113 162 114
f 116 163 117
f 117 163 222
f 120 161 121
f 121 224 122
f 121 161 224
f 122 224 166
f 123 225 226
f 123 226 227
f 123 227 216
f 123 216 228
f 123 228 215
f 123 215 214
f 123 214 213
f 123 213 211
f 123 211 210
f 123 210 209
f 123 209 208
f 123 208 207
f 123 207 206
f 123 206 190
f 123 190 189
f 123 189 201
f 123 201 200
f 123 200 199
f 123 199 197
f 123 197 229
f 123 229 230
f 123 230 231
f 123 231 232
f 123 232 124
f 123 164 204
f 123 204 233
f 123 233 225
f 124 232 234
f 124 234 235
f 124 235 236
f 124 236 125
f 125 237 126
f 125 236 235
f 125 235 237
f 126 237 238
f 126 238 127
f 127 238 239
f 127 239 240
f 127 240 241
f 127 241 128
f 128 241 242
f 128 242 129
f 129 242 243
f 129 243 130
f 130 243 244
f 130 244 245
f 130 245 246
f 130 246 131
f 131 246 247
f 131 247 132
f 132 247 248
f 132 248 133
f 133 248 249
f 133 249 250
f 133 250 134
f 134 250 135
f 135 250 251
f 135 251 252
f 135 252 253
f 135 253 136
f 136 253 254
f 136 254 255
f 136 255 137
f 137 255 138
f 138 256 139
f 138 255 257
f 138 257 256
f 139 256 140
f 140 256 258
f 140 258 259
f 140 259 260
f 140 260 141
f 141 260 261
f 141 261 142
f 142 261 143
f 143 261 262
f 143 262 263
f 143 263 264
f 143 264 265
f 143 265 144
f 144 265 145
f 145 265 146
f 146 265 266
f 146 266 267
f 146 267 147
f 147 267 148
f 148 268 149
f 148 267 269
f 148 269 268
f 149 268 150
f 150 268 270
f 150 270 271
f 150 271 151
f 151 271 152
f 152 271 272
f 152 272 153
f 153 272 273
f 153 273 154
f 154 273 155
f 155 273 274
f 155 274 275
f 155 275 276
f 155 276 277
f 155 277 156
f 156 277 278
f 156 278 279
f 156 279 157
f 157 279 280
f 157 280 158
f 158 280 281
f 158 281 159
f 159 281 282
f 159 282 160
f 160 282 283
f 160 283 224
f 160 224 161
f 162 223 163
f 163 223 222
f 165 284 168
f 165 167 285
f 165 285 286
f 165 286 287
f 165 287 284
f 166 224 167
f 167 224 285
f 168 288 289
f 168 289 290
f 168 290 291
f 168 291 169
f 168 284 292
f 168 292 293
f 168 293 288
f 169 291 294
f 169 294 295
f 169 295 296
f 169 296 297
f 169 297 170
f 170 297 298
f 170 298 171
f 171 298 299
f 171 299 172
f 172 299 174
f 174 299 300
f 174 300 175
f 175 300 301
f 175 301 302
f 175 302 303
f 175 303 176
f 176 303 177
f 177 304 305
f 177 305 179
f 177 179 178
f 177 303 306
f 177 306 307
f 177 307 308
f 177 308 304
f 179 305 309
f 179 309 180
f 180 309 182
f 181 183 313
f 181 313 310
f 181 310 184
f 182 309 311
f 182 311 183
f 183 311 312
f 183 312 314
f 183 314 313
f 184 310 186
f 184 186 185
f 186 310 313
f 186 313 187
f 187 313 188
f 188 313 314
f 188 314 315
f 188 315 316
f 188 316 317
f 188 317 192
f 191 318 193
f 191 192 319
f 191 319 320
f 191 320 318
f 192 317 316
f 192 316 321
f 192 321 322
f 192 322 323
f 192 323 324
f 192 324 325
f 192 325 319
f 193 318 326
f 193 326 327
f 193 327 442
f 193 442 328
f 193 328 194
f 194 328 195
f 195 329 330
f 195 330 331
f 195 331 332
f 195 332 229
f 195 229 196
f 195 328 333
f 195 333 334
f 195 334 335
f 195 335 329
f 196 229 197
f 197 199 198
f 202 336 204
f 202 204 203
f 202 221 336
f 204 336 337
f 204 337 233
f 205 206 207
f 211 213 212
f 215 228 216
f 216 227 218
f 216 218 217
f 218 338 219
f 218 227 338
f 219 338 339
f 219 339 220
f 220 339 340
f 220 340 221
f 221 340 336
f 224 283 285
f 225 233 337
f 225 337 226
f 226 337 341
f 226 341 227
f 227 341 338
f 229 332 342
f 229 342 230
f 230 342 343
f 230 343 231
f 231 343 344
f 231 344 232
f 232 344 234
f 234 344 235
f 235 345 346
f 235 346 347
f 235 347 348
f 235 348 349
f 235 349 350
f 235 350 237
f 235 344 351
f 235 351 345
f 237 350 352
f 237 352 353
f 237 353 238
f 238 353 239
f 239 353 354
f 239 354 355
f 239 355 356
f 239 356 357
f 239 357 358
f 239 358 240
f 240 358 241
f 241 358 359
f 241 359 243
f 241 243 242
f 243 359 244
f 244 360 361
f 244 361 245
f 244 359 360
f 245 247 246
f 245 361 362
f 245 362 247
f 247 362 363
f 247 363 249
f 247 249 248
f 249 363 364
f 249 364 250
f 250 364 251
f 251 364 365
f 251 365 252
f 252 366 367
f 252 367 368
f 252 368 253
f 252 365 364
f 252 364 366
f 253 368 254
f 254 368 369
f 254 369 370
f 254 370 255
f 255 370 257
f 256 257 371
f 256 371 259
f 256 259 258
f 257 372 373
f 257 373 371
f 257 370 374
f 257 374 372
f 259 375 376
f 259 376 260
f 259 371 373
f 259 373 377
f 259 377 378
f 259 378 379
f 259 379 375
f 260 380 381
f 260 381 261
f 260 376 380
f 261 381 382
f 261 382 262
f 262 382 263
f 263 383 265
f 263 265 264
f 263 382 384
f 263 384 385
f 263 385 383
f 265 383 386
f 265 386 387
f 265 387 388
f 265 388 389
f 265 389 269
f 265 269 266
f 266 390 267
f 266 269 390
f 267 390 269
f 268 269 270
f 269 389 391
f 269 391 392
f 269 392 270
f 270 392 391
f 270 391 393
f 270 393 271
f 271 393 394
f 271 394 272
f 272 274 273
f 272 394 395
f 272 395 274
f 274 395 396
f 274 396 275
f 275 396 277
f 275 277 276
f 277 396 397
f 277 397 278
f 278 397 398
f 278 398 399
f 278 399 279
f 279 399 400
f 279 400 401
f 279 401 280
f 280 401 402
f 280 402 281
f 281 402 403
f 281 403 282
f 282 403 283
f 283 403 286
f 283 286 285
f 284 287 292
f 286 403 287
f 287 403 402
f 287 402 404
f 287 404 293
f 287 293 292
f 288 405 406
f 288 406 407
f 288 407 289
f 288 293 404
f 288 404 408
f 288 408 409
f 288 409 405
f 289 407 410
f 289 410 290
f 290 411 291
f 290 410 411
f 291 411 410
f 291 410 412
f 291 412 294
f 294 412 413
f 294 413 296
f 294 296 295
f 296 413 414
f 296 414 415
f 296 415 297
f 297 415 416
f 297 416 298
f 298 416 299
f 299 416 300
f 300 416 301
f 301 417 418
f 301 418 302
f 301 416 417
f 302 418 419
f 302 419 303
f 303 419 420
f 303 420 306
f 304 421 426
f 304 426 305
f 304 308 422
f 304 422 423
f 304 423 424
f 304 424 425
f 304 425 421
f 305 426 314
f 305 314 312
f 305 312 311
f 305 311 309
f 306 420 307
f 307 420 525
f 307 525 427
f 307 427 530
f 307 530 428
f 307 428 308
f 308 428 429
f 308 429 422
f 314 426 315
f 315 426 526
f 315 526 430
f 315 430 316
f 316 322 321
f 316 430 431
f 316 431 432
f 316 432 433
f 316 433 434
f 316 434 435
f 316 435 322
f 318 320 326
f 319 325 436
f 319 436 320
f 320 437 326
f 320 436 438
f 320 438 437
f 322 439 323
f 322 435 439
f 323 439 324
f 324 439 550
f 324 550 440
f 324 440 325
f 325 440 436
f 326 437 327
f 327 441 442
f 327 437 441
f 328 442 333
f 329 335 330
f 330 443 444
f 330 444 445
f 330 445 331
f 330 335 443
f 331 446 343
f 331 343 342
f 331 342 332
f 331 445 444
f 331 444 446
f 333 442 447
f 333 447 448
f 333 448 449
f 333 449 335
f 333 335 334
f 335 449 450
f 335 450 443
f 336 340 341
f 336 341 337
f 338 341 339
f 339 341 340
f 343 446 451
f 343 451 452
f 343 452 453
f 343 453 344
f 344 453 351
f 345 351 346
f 346 454 455
f 346 455 456
f 346 456 348
f 346 348 347
f 346 351 452
f 346 452 454
f 348 456 457
f 348 457 349
f 349 352 350
f 349 457 458
f 349 458 459
f 349 459 352
f 351 453 452
f 352 459 460
f 352 460 461
f 352 461 354
f 352 354 353
f 354 461 355
f 355 461 356
f 356 462 463
f 356 463 464
f 356 464 357
f 356 461 460
f 356 460 465
f 356 465 462
f 357 464 358
f 358 464 466
f 358 466 359
f 359 466 360
f 360 466 467
f 360 467 361
f 361 468 362
f 361 467 469
f 361 469 470
f 361 470 471
f 361 471 468
f 362 468 472
f 362 472 473
f 362 473 363
f 363 473 364
f 364 473 474
f 364 474 367
f 364 367 366
f 367 474 475
f 367 475 476
f 367 476 368
f 368 476 369
f 369 476 477
f 369 477 478
f 369 478 370
f 370 478 374
f 372 377 373
f 372 374 479
f 372 479 377
f 374 478 480
f 374 480 479
f 375 379 384
f 375 384 376
f 376 384 382
f 376 382 380
f 377 479 378
f 378 479 481
f 378 481 482
f 378 482 483
f 378 483 379
f 379 484 384
f 379 483 485
f 379 485 486
f 379 486 484
f 380 382 381
f 383 385 487
f 383 487 386
f 384 484 385
f 385 484 488
f 385 488 489
f 385 489 490
f 385 490 487
f 386 491 387
f 386 487 490
f 386 490 492
f 386 492 493
f 386 493 494
f 386 494 495
f 386 495 491
f 387 491 496
f 387 496 388
f 388 496 389
f 389 496 497
f 389 497 391
f 391 498 499
f 391 499 500
f 391 500 501
f 391 501 502
f 391 502 393
f 391 497 503
f 391 503 504
f 391 504 505
f 391 505 498
f 393 502 394
f 394 502 395
f 395 502 506
f 395 506 396
f 396 506 397
f 397 506 501
f 397 501 507
f 397 507 398
f 398 507 508
f 398 508 400
f 398 400 399
f 400 402 401
f 400 508 509
f 400 509 510
f 400 510 408
f 400 408 404
f 400 404 402
f 405 511 406
f 405 409 512
f 405 512 513
f 405 513 514
f 405 514 511
f 406 511 515
f 406 515 516
f 406 516 407
f 407 516 413
f 407 413 410
f 408 510 517
f 408 517 518
f 408 518 519
f 408 519 409
f 409 519 520
f 409 520 521
f 409 521 512
f 410 413 412
f 413 415 414
f 413 516 522
f 413 522 415
f 415 522 417
f 415 417 416
f 417 522 418
f 418 523 524
f 418 524 419
f 418 522 523
f 419 524 525
f 419 525 420
f 421 526 426
f 421 425 526
f 422 429 423
f 423 429 527
f 423 527 424
f 424 527 425
f 425 527 431
f 425 431 430
f 425 430 526
f 427 528 529
f 427 529 429
f 427 429 530
f 427 525 531
f 427 531 532
f 427 532 533
f 427 533 528
f 428 530 429
f 429 529 534
f 429 534 535
f 429 535 536
f 429 536 537
f 429 537 431
f 429 431 538
f 429 538 527
f 431 527 538
f 431 537 539
f 431 539 432
f 432 539 540
f 432 540 541
f 432 541 433
f 433 541 542
f 433 542 434
f 434 542 543
f 434 543 435
f 435 543 544
f 435 544 439
f 436 440 438
f 437 438 441
f 438 440 545
f 438 545 546
f 438 546 547
f 438 547 548
f 438 548 549
f 438 549 441
f 439 544 550
f 440 550 544
f 440 544 545
f 441 549 548
f 441 548 547
f 441 547 448
f 441 448 447
f 441 447 442
f 443 551 454
f 443 454 444
f 443 450 552
f 443 552 553
f 443 553 551
f 444 454 452
f 444 452 451
f 444 451 446
f 448 547 449
f 449 547 450
f 450 547 554
f 450 554 555
f 450 555 556
f 450 556 557
f 450 557 553
f 450 553 552
f 454 551 455
f 455 551 558
f 455 558 559
f 455 559 456
f 456 559 560
f 456 560 457
f 457 560 561
f 457 561 562
f 457 562 458
f 458 563 564
f 458 564 459
f 458 562 565
f 458 565 563
f 459 564 460
f 460 566 465
f 460 564 567
f 460 567 568
f 460 568 566
f 462 467 463
f 462 465 569
f 462 569 467
f 463 467 466
f 463 466 464
f 465 566 570
f 465 570 571
f 465 571 572
f 465 572 569
f 467 569 573
f 467 573 469
f 468 471 574
f 468 574 472
f 469 573 470
f 470 573 575
f 470 575 576
f 470 576 471
f 471 576 577
f 471 577 574
f 472 474 473
f 472 574 577
f 472 577 578
f 472 578 579
f 472 579 474
f 474 579 580
f 474 580 581
f 474 581 475
f 475 581 582
f 475 582 583
f 475 583 584
f 475 584 585
f 475 585 476
f 476 585 586
f 476 586 477
f 477 586 587
f 477 587 478
f 478 587 588
f 478 588 480
f 479 480 481
f 480 588 589
f 480 589 590
f 480 590 591
f 480 591 481
f 481 591 592
f 481 592 593
f 481 593 482
f 482 593 483
f 483 593 592
f 483 592 594
f 483 594 485
f 484 486 488
f 485 594 595
f 485 595 486
f 486 595 488
f 488 595 489
f 489 596 597
f 489 597 598
f 489 598 492
f 489 492 490
f 489 595 596
f 491 495 599
f 491 599 600
f 491 600 496
f 492 598 493
f 493 598 601
f 493 601 602
f 493 602 603
f 493 603 604
f 493 604 494
f 494 604 599
f 494 599 495
f 496 600 503
f 496 503 497
f 498 505 499
f 499 605 500
f 499 505 606
f 499 606 605
f 500 605 501
f 501 506 502
f 501 605 607
f 501 607 608
f 501 608 609
f 501 609 610
f 501 610 507
f 503 600 504
f 504 611 505
f 504 600 599
f 504 599 604
f 504 604 611
f 505 611 606
f 507 610 508
f 508 610 509
f 509 610 609
f 509 609 612
f 509 612 510
f 510 613 520
f 510 520 614
f 510 614 517
f 510 612 608
f 510 608 613
f 511 514 615
f 511 615 616
f 511 616 617
f 511 617 618
f 511 618 515
f 512 521 513
f 513 521 520
f 513 520 619
f 513 619 615
f 513 615 514
f 515 620 621
f 515 621 622
f 515 622 623
f 515 623 624
f 515 624 516
f 515 618 620
f 516 624 522
f 517 614 518
f 518 614 519
f 519 614 520
f 520 625 626
f 520 626 619
f 520 613 625
f 522 624 523
f 523 627 628
f 523 628 629
f 523 629 524
f 523 624 627
f 524 629 525
f 525 629 630
f 525 630 631
f 525 631 632
f 525 632 531
f 528 533 633
f 528 633 529
f 529 633 634
f 529 634 534
f 531 635 532
f 531 632 635
f 532 635 636
f 532 636 533
f 533 636 637
f 533 637 638
f 533 638 639
f 533 639 633
f 534 539 536
f 534 536 535
f 534 634 640
f 534 640 641
f 534 641 642
f 534 642 643
f 534 643 539
f 536 539 537
f 539 643 540
f 540 644 541
f 540 643 645
f 540 645 644
f 541 646 647
f 541 647 648
f 541 648 649
f 541 649 650
f 541 650 651
f 541 651 652
f 541 652 653
f 541 653 542
f 541 644 646
f 542 653 543
f 543 653 544
f 544 653 654
f 544 654 545
f 545 654 655
f 545 655 656
f 545 656 657
f 545 657 658
f 545 658 659
f 545 659 547
f 545 547 546
f 547 659 660
f 547 660 554
f 551 553 555
f 551 555 558
f 553 557 556
f 553 556 555
f 554 661 555
f 554 660 661
f 555 661 662
f 555 662 663
f 555 663 664
f 555 664 559
f 555 559 558
f 559 664 561
f 559 561 560
f 561 665 666
f 561 666 565
f 561 565 562
f 561 664 667
f 561 667 665
f 563 565 668
f 563 668 564
f 564 668 567
f 565 666 668
f 566 568 570
f 567 668 669
f 567 669 670
f 567 670 568
f 568 670 570
f 569 572 671
f 569 671 672
f 569 672 573
f 570 670 673
f 570 673 571
f 571 673 674
f 571 674 675
f 571 675 572
f 572 675 671
f 573 672 575
f 575 672 676
f 575 676 677
f 575 677 576
f 576 677 678
f 576 678 679
f 576 679 578
f 576 578 577
f 578 679 680
f 578 680 579
f 579 680 582
f 579 582 580
f 580 582 581
f 582 680 681
f 582 681 583
f 583 585 584
f 583 681 585
f 585 682 586
f 585 681 683
f 585 683 684
f 585 684 685
f 585 685 682
f 586 682 686
f 586 686 587
f 587 686 588
f 588 686 589
f 589 686 783
f 589 783 687
f 589 687 787
f 589 787 688
f 589 688 590
f 590 688 689
f 590 689 690
f 590 690 591
f 591 690 592
f 592 690 689
f 592 689 691
f 592 691 692
f 592 692 693
f 592 693 694
f 592 694 695
f 592 695 594
f 594 695 696
f 594 696 596
f 594 596 595
f 596 696 597
f 597 696 697
f 597 697 698
f 597 698 601
f 597 601 598
f 601 698 602
f 602 698 699
f 602 699 700
f 602 700 701
f 602 701 702
f 602 702 603
f 603 702 703
f 603 703 704
f 603 704 604
f 604 704 705
f 604 705 706
f 604 706 707
f 604 707 708
f 604 708 611
f 605 606 709
f 605 709 710
f 605 710 607
f 606 611 708
f 606 708 711
f 606 711 712
f 606 712 709
f 607 710 608
f 608 710 713
f 608 713 714
f 608 714 625
f 608 625 613
f 608 612 609
f 615 619 715
f 615 715 617
f 615 617 616
f 617 715 618
f 618 715 620
f 619 716 717
f 619 717 718
f 619 718 719
f 619 719 720
f 619 720 621
f 619 621 715
f 619 626 713
f 619 713 721
f 619 721 716
f 620 715 621
f 621 720 722
f 621 722 623
f 621 623 622
f 623 722 627
f 623 627 624
f 625 714 626
f 626 714 713
f 627 722 628
f 628 722 630
f 628 630 629
f 630 722 720
f 630 720 723
f 630 723 724
f 630 724 631
f 631 724 725
f 631 725 632
f 632 725 726
f 632 726 727
f 632 727 635
f 633 639 634
f 634 639 728
f 634 728 640
f 635 727 729
f 635 729 637
f 635 637 636
f 637 729 730
f 637 730 731
f 637 731 732
f 637 732 638
f 638 732 731
f 638 731 733
f 638 733 734
f 638 734 735
f 638 735 736
f 638 736 737
f 638 737 639
f 639 737 736
f 639 736 728
f 640 644 642
f 640 642 641
f 640 728 738
f 640 738 739
f 640 739 740
f 640 740 644
f 642 644 645
f 642 645 643
f 644 740 741
f 644 741 646
f 646 741 742
f 646 742 647
f 647 742 743
f 647 743 648
f 648 743 649
f 649 744 745
f 649 745 650
f 649 743 742
f 649 742 744
f 650 745 746
f 650 746 747
f 650 747 748
f 650 748 651
f 651 748 652
f 652 748 749
f 652 749 750
f 652 750 751
f 652 751 653
f 653 751 654
f 654 752 655
f 654 751 752
f 655 752 753
f 655 753 754
f 655 754 656
f 656 754 755
f 656 755 657
f 657 755 756
f 657 756 757
f 657 757 758
f 657 758 759
f 657 759 662
f 657 662 760
f 657 760 660
f 657 660 658
f 658 660 659
f 660 760 662
f 660 662 661
f 662 759 761
f 662 761 667
f 662 667 663
f 663 667 664
f 665 762 763
f 665 763 666
f 665 667 764
f 665 764 765
f 665 765 766
f 665 766 767
f 665 767 762
f 666 763 668
f 667 761 768
f 667 768 764
f 668 763 669
f 669 763 670
f 670 763 769
f 670 769 673
f 671 675 677
f 671 677 672
f 672 677 676
f 673 769 674
f 674 769 770
f 674 770 771
f 674 771 772
f 674 772 675
f 675 772 677
f 677 772 773
f 677 773 678
f 678 773 774
f 678 774 679
f 679 774 775
f 679 775 680
f 680 683 681
f 680 775 776
f 680 776 777
f 680 777 778
f 680 778 683
f 682 685 686
f 683 779 685
f 683 685 684
f 683 778 780
f 683 780 781
f 683 781 779
f 685 779 782
f 685 782 783
f 685 783 686
f 687 783 784
f 687 784 785
f 687 785 786
f 687 786 787
f 688 787 691
f 688 691 689
f 691 787 692
f 692 694 693
f 692 787 786
f 692 786 785
f 692 785 788
f 692 788 789
f 692 789 694
f 694 790 695
f 694 789 791
f 694 791 792
f 694 792 793
f 694 793 794
f 694 794 795
f 694 795 796
f 694 796 790
f 695 790 696
f 696 790 797
f 696 797 697
f 697 797 798
f 697 798 799
f 697 799 698
f 698 799 800
f 698 800 699
f 699 800 700
f 700 800 801
f 700 801 802
f 700 802 803
f 700 803 804
f 700 804 701
f 701 804 805
f 701 805 806
f 701 806 703
f 701 703 702
f 703 806 704
f 704 806 807
f 704 807 705
f 705 807 808
f 705 808 706
f 706 808 809
f 706 809 810
f 706 810 707
f 707 811 708
f 707 810 812
f 707 812 811
f 708 811 711
f 709 712 813
f 709 813 710
f 710 813 814
f 710 814 815
f 710 815 713
f 711 811 816
f 711 816 712
f 712 816 817
f 712 817 813
f 713 815 814
f 713 814 818
f 713 818 721
f 716 819 717
f 716 721 819
f 717 819 820
f 717 820 821
f 717 821 718
f 718 821 822
f 718 822 719
f 719 822 823
f 719 823 824
f 719 824 720
f 720 824 825
f 720 825 826
f 720 826 827
f 720 827 828
f 720 828 829
f 720 829 830
f 720 830 831
f 720 831 723
f 721 818 832
f 721 832 819
f 723 831 726
f 723 726 724
f 724 726 725
f 726 831 833
f 726 833 834
f 726 834 835
f 726 835 836
f 726 836 837
f 726 837 838
f 726 838 727
f 727 838 839
f 727 839 840
f 727 840 729
f 728 736 841
f 728 841 842
f 728 842 843
f 728 843 844
f 728 844 845
f 728 845 738
f 729 840 846
f 729 846 730
f 730 846 847
f 730 847 848
f 730 848 731
f 731 848 849
f 731 849 733
f 733 849 734
f 734 849 850
f 734 850 851
f 734 851 852
f 734 852 853
f 734 853 854
f 734 854 735
f 735 854 841
f 735 841 736
f 738 845 739
f 739 845 855
f 739 855 856
f 739 856 746
f 739 746 744
f 739 744 742
f 739 742 741
f 739 741 740
f 744 746 745
f 746 857 748
f 746 748 747
f 746 856 858
f 746 858 859
f 746 859 857
f 748 857 860
f 748 860 861
f 748 861 862
f 748 862 749
f 749 862 863
f 749 863 752
f 749 752 750
f 750 752 751
f 752 863 864
f 752 864 865
f 752 865 866
f 752 866 753
f 753 866 865
f 753 865 867
f 753 867 754
f 754 867 755
f 755 867 758
f 755 758 757
f 755 757 756
f 758 868 869
f 758 869 870
f 758 870 871
f 758 871 759
f 758 867 872
f 758 872 873
f 758 873 868
f 759 871 768
f 759 768 761
f 762 874 763
f 762 767 875
f 762 875 874
f 763 874 876
f 763 876 770
f 763 770 769
f 764 877 766
f 764 766 765
f 764 768 878
f 764 878 877
f 766 877 767
f 767 877 875
f 768 871 870
f 768 870 878
f 770 876 771
f 771 876 879
f 771 879 880
f 771 880 881
f 771 881 772
f 772 881 882
f 772 882 883
f 772 883 884
f 772 884 885
f 772 885 886
f 772 886 774
f 772 774 773
f 774 886 776
f 774 776 775
f 776 886 887
f 776 887 888
f 776 888 777
f 777 889 778
f 777 888 890
f 777 890 891
f 777 891 892
f 777 892 893
f 777 893 889
f 778 889 893
f 778 893 894
f 778 894 895
f 778 895 896
f 778 896 897
f 778 897 780
f 779 781 782
f 780 897 898
f 780 898 899
f 780 899 781
f 781 899 900
f 781 900 782
f 782 900 783
f 783 900 901
f 783 901 784
f 784 901 902
f 784 902 903
f 784 903 785
f 785 903 788
f 788 903 789
f 789 903 791
f 790 796 801
f 790 801 797
f 791 903 904
f 791 904 905
f 791 905 906
f 791 906 907
f 791 907 908
f 791 908 792
f 792 908 794
f 792 794 793
f 794 908 909
f 794 909 795
f 795 909 910
f 795 910 796
f 796 910 801
f 797 801 798
f 798 801 799
f 799 801 800
f 801 910 909
f 801 909 911
f 801 911 847
f 801 847 802
f 802 847 846
f 802 846 912
f 802 912 913
f 802 913 803
f 803 805 804
f 803 913 805
f 805 913 912
f 805 912 838
f 805 838 806
f 806 838 914
f 806 914 808
f 806 808 807
f 808 914 915
f 808 915 809
f 809 915 916
f 809 916 917
f 809 917 810
f 810 917 811
f 810 811 812
f 811 917 918
f 811 918 816
f 813 817 814
f 814 817 818
f 816 918 817
f 817 916 818
f 817 918 916
f 818 916 915
f 818 915 832
f 819 832 914
f 819 914 837
f 819 837 820
f 820 836 919
f 820 919 920
f 820 920 823
f 820 823 822
f 820 822 821
f 820 837 836
f 823 920 824
f 824 920 826
f 824 826 825
f 826 920 921
f 826 921 827
f 827 922 828
f 827 921 922
f 828 922 921
f 828 921 923
f 828 923 834
f 828 834 833
f 828 833 831
f 828 831 830
f 828 830 829
f 832 915 914
f 834 923 835
f 835 923 924
f 835 924 836
f 836 924 919
f 837 914 838
f 838 912 839
f 839 912 846
f 839 846 840
f 841 854 853
f 841 853 925
f 841 925 926
f 841 926 842
f 842 926 927
f 842 927 843
f 843 927 928
f 843 928 844
f 844 928 929
f 844 929 930
f 844 930 931
f 844 931 858
f 844 858 845
f 845 858 932
f 845 932 855
f 847 911 848
f 848 911 849
f 849 911 933
f 849 933 907
f 849 907 934
f 849 934 850
f 850 934 935
f 850 935 936
f 850 936 851
f 851 936 937
f 851 937 938
f 851 938 852
f 852 938 853
f 853 938 925
f 855 932 858
f 855 858 856
f 857 859 939
f 857 939 940
f 857 940 860
f 858 931 941
f 858 941 942
f 858 942 859
f 859 942 943
f 859 943 944
f 859 944 945
f 859 945 946
f 859 946 947
f 859 947 948
f 859 948 939
f 860 940 861
f 861 949 950
f 861 950 862
f 861 940 951
f 861 951 949
f 862 950 863
f 863 950 867
f 863 867 865
f 863 865 864
f 867 950 872
f 868 873 951
f 868 951 952
f 868 952 953
f 868 953 869
f 869 878 870
f 869 953 877
f 869 877 878
f 872 950 873
f 873 950 951
f 874 875 954
f 874 954 876
f 875 877 955
f 875 955 953
f 875 953 956
f 875 956 957
f 875 957 954
f 876 954 957
f 876 957 879
f 877 953 955
f 879 957 880
f 880 957 958
f 880 958 881
f 881 958 959
f 881 959 882
f 882 959 960
f 882 960 883
f 883 960 961
f 883 961 962
f 883 962 963
f 883 963 964
f 883 964 965
f 883 965 884
f 884 965 966
f 884 966 885
f 885 887 886
f 885 966 967
f 885 967 887
f 887 967 968
f 887 968 888
f 888 968 890
f 890 968 891
f 891 969 970
f 891 970 971
f 891 971 972
f 891 972 892
f 891 968 969
f 892 972 893
f 893 972 971
f 893 971 894
f 894 971 970
f 894 970 895
f 895 970 973
f 895 973 974
f 895 974 896
f 896 974 897
f 897 974 898
f 898 974 975
f 898 975 976
f 898 976 901
f 898 901 900
f 898 900 899
f 901 976 977
f 901 977 978
f 901 978 902
f 902 978 904
f 902 904 903
f 904 978 979
f 904 979 980
f 904 980 981
f 904 981 905
f 905 982 906
f 905 981 983
f 905 983 982
f 906 982 935
f 906 935 934
f 906 934 907
f 907 933 909
f 907 909 908
f 909 933 911
f 916 918 917
f 919 924 921
f 919 921 920
f 921 924 923
f 925 938 984
f 925 984 985
f 925 985 926
f 926 985 986
f 926 986 987
f 926 987 928
f 926 928 927
f 928 930 929
f 928 987 988
f 928 988 930
f 930 989 941
f 930 941 931
f 930 988 990
f 930 990 989
f 935 982 991
f 935 991 936
f 936 991 937
f 937 991 992
f 937 992 983
f 937 983 938
f 938 983 984
f 939 948 940
f 940 993 951
f 940 948 947
f 940 947 946
f 940 946 945
f 940 945 944
f 940 944 994
f 940 994 962
f 940 962 993
f 941 989 995
f 941 995 996
f 941 996 942
f 942 996 997
f 942 997 944
f 942 944 943
f 944 997 995
f 944 995 998
f 944 998 999
f 944 999 1000
f 944 1000 962
f 944 962 994
f 949 951 950
f 951 993 1001
f 951 1001 952
f 952 1001 993
f 952 993 1002
f 952 1002 956
f 952 956 953
f 956 1002 957
f 957 1002 958
f 958 1002 993
f 958 993 959
f 959 993 960
f 960 993 962
f 960 962 961
f 962 1000 963
f 963 1000 999
f 963 999 964
f 964 999 965
f 965 999 1003
f 965 1003 968
f 965 968 966
f 966 968 967
f 968 1003 1004
f 968 1004 969
f 969 1004 970
f 970 1005 973
f 970 1004 1006
f 970 1006 990
f 970 990 1007
f 970 1007 1005
f 973 1005 974
f 974 1008 1009
f 974 1009 976
f 974 976 975
f 974 1005 1010
f 974 1010 987
f 974 987 1011
f 974 1011 1012
f 974 1012 985
f 974 985 1008
f 976 1009 1008
f 976 1008 1013
f 976 1013 977
f 977 1013 978
f 978 1013 979
f 979 1014 1015
f 979 1015 980
f 979 1013 1014
f 980 1015 985
f 980 985 981
f 981 985 983
f 982 1016 991
f 982 983 992
f 982 992 1016
f 983 985 984
f 985 1017 986
f 985 1015 1008
f 985 1012 1017
f 986 1017 987
f 987 1018 988
f 987 1017 1011
f 987 1010 1018
f 988 1018 990
f 989 990 1004
f 989 1004 995
f 990 1018 1007
f 990 1006 1004
f 991 1016 992
f 995 997 996
f 995 1004 998
f 998 1004 999
f 999 1004 1003
f 1005 1007 1010
f 1007 1018 1010
f 1008 1015 1014
f 1008 1014 1013
f 1011 1017 1012

