# https://github.com/mikedh/trimesh
v 0.02433517 0.01268293 -0.00046140
v 0.02433517 0.01257000 -0.00127957
v 0.02351523 0.01257491 -0.00127957
v 0.02351523 0.01265347 -0.00046140
v 0.02307937 0.01262401 -0.00002291
v 0.02269530 0.01259701 0.00035676
v 0.02351523 0.01262401 0.00035676
v 0.02433517 0.01263629 0.00035676
v 0.02515510 0.01260683 0.00035676
v 0.02515510 0.01262401 -0.00002291
v 0.02515510 0.01264365 -0.00046140
v 0.02515510 0.01251845 -0.00127957
v 0.02433517 0.01243007 -0.00185175
v 0.02351523 0.01245216 -0.00193330
v 0.02269530 0.01244480 -0.00193464
v 0.02269530 0.01254054 -0.00127957
v 0.02269530 0.01260683 -0.00046140
v 0.02225513 0.01257491 -0.00002291
v 0.02187968 0.01254545 0.00035676
v 0.02187968 0.01246198 0.00117627
v 0.02269530 0.01249881 0.00117627
v 0.02433517 0.01250863 0.00117627
v 0.02351523 0.01250863 0.00117627
v 0.02515510 0.01247917 0.00117627
v 0.02556507 0.01238588 0.00158669
v 0.02588872 0.01241534 0.00113215
v 0.02644542 0.01239324 0.00082601
v 0.02597503 0.01249635 0.00035676
v 0.02575495 0.01243252 -0.00127957
v 0.02603545 0.01248162 -0.00048547
v 0.02515510 0.01240061 -0.00175015
v 0.02557801 0.01238588 -0.00169400
v 0.02515510 0.01229013 -0.00216057
v 0.02433517 0.01231714 -0.00226217
v 0.02351523 0.01233678 -0.00234238
v 0.02269530 0.01234414 -0.00234372
v 0.02187968 0.01231959 -0.00222340
v 0.02187968 0.01241043 -0.00181298
v 0.02142225 0.01238833 -0.00170871
v 0.02187968 0.01247426 -0.00127957
v 0.02187968 0.01254545 -0.00046140
v 0.02143951 0.01250617 -0.00002291
v 0.02105543 0.01247180 0.00035676
v 0.02112880 0.01240797 0.00111343
v 0.02145245 0.01238588 0.00159337
v 0.02187968 0.01240061 0.00166021
v 0.02269530 0.01241534 0.00174577
v 0.02433517 0.01234660 0.00217224
v 0.02515510 0.01233432 0.00208267
v 0.02351523 0.01241534 0.00176449
v 0.02515510 0.01218702 0.00281393
v 0.02588872 0.01227786 0.00191556
v 0.02610881 0.01235151 0.00137279
v 0.02647994 0.01240306 0.00035676
v 0.02675181 0.01228768 0.00113215
v 0.02688991 0.01231959 0.00035676
v 0.02616060 0.01235396 -0.00127957
v 0.02679065 0.01211828 -0.00209774
v 0.02644542 0.01240061 -0.00022745
v 0.02634616 0.01237606 -0.00077423
v 0.02679065 0.01221648 -0.00127957
v 0.02590167 0.01226804 -0.00202020
v 0.02679065 0.01191943 -0.00291590
v 0.02597503 0.01198817 -0.00291590
v 0.02515510 0.01203236 -0.00291590
v 0.02433517 0.01207409 -0.00291590
v 0.02351523 0.01210846 -0.00291590
v 0.02269530 0.01211092 -0.00291590
v 0.02187968 0.01207409 -0.00291590
v 0.02105975 0.01200781 -0.00291590
v 0.00714246 0.01082942 -0.00276082
v 0.02087419 0.01236378 -0.00145470
v 0.00714246 0.01096199 -0.00209774
v 0.02111154 0.01240797 -0.00122075
v 0.02105975 0.01246935 -0.00046140
v 0.02105975 0.01247180 -0.00002291
v 0.02061094 0.01238833 0.00079659
v 0.00714246 0.01111910 -0.00046140
v 0.00713815 0.01111174 0.00035676
v 0.00713815 0.01104791 0.00117627
v 0.00713815 0.01097672 0.00199443
v 0.02112880 0.01227786 0.00191689
v 0.02187968 0.01230486 0.00207063
v 0.00713815 0.01084169 0.00265217
v 0.02269530 0.01233432 0.00215486
v 0.02351523 0.01234660 0.00217625
v 0.02433517 0.01219439 0.00281393
v 0.02519394 0.01178441 0.00371098
v 0.02597503 0.01174267 0.00354119
v 0.02597503 0.01204463 0.00281393
v 0.02679065 0.01206182 0.00199443
v 0.02747681 0.01175249 0.00199443
v 0.02767100 0.01182123 0.00112413
v 0.02761490 0.01195625 0.00035676
v 0.02722651 0.01214283 -0.00002291
v 0.02761490 0.01187033 -0.00127957
v 0.02674750 0.01229995 -0.00048547
v 0.02765805 0.01175986 -0.00204025
v 0.02742502 0.01171812 -0.00291590
v 0.02728693 0.01162483 -0.00341456
v 0.02679065 0.01167393 -0.00350012
v 0.02597503 0.01170094 -0.00357231
v 0.02515510 0.01171567 -0.00364717
v 0.02433517 0.01173285 -0.00371000
v 0.02433517 0.01155364 -0.00412042
v 0.02351523 0.01174513 -0.00371936
v 0.02351523 0.01155855 -0.00413112
v 0.02269530 0.01174267 -0.00369129
v 0.02187968 0.01173040 -0.00364049
v 0.02105975 0.01170339 -0.00357899
v 0.01041788 0.01066248 -0.00393460
v 0.00796240 0.01054955 -0.00373674
v 0.00796240 0.01072385 -0.00326483
v 0.00714246 0.01067230 -0.00316991
v 0.00665913 0.01079014 -0.00264318
v 0.02061094 0.01238833 -0.00090792
v 0.00714246 0.01105282 -0.00127957
v 0.01230804 0.01158064 -0.00098947
v 0.00659009 0.01083433 -0.00209774
v 0.00652967 0.01088097 -0.00127957
v 0.00648652 0.01091289 -0.00046140
v 0.00648220 0.01091289 -0.00002291
v 0.00678860 0.01100863 -0.00002291
v 0.00648220 0.01091043 0.00035676
v 0.00651241 0.01087852 0.00117627
v 0.00655556 0.01084415 0.00199443
v 0.00663324 0.01079750 0.00252250
v 0.02105543 0.01198326 0.00281393
v 0.02187968 0.01205200 0.00281393
v 0.02269530 0.01211583 0.00281393
v 0.00803144 0.01084906 0.00286073
v 0.00713815 0.01065511 0.00306259
v 0.00780272 0.01072385 0.00316420
v 0.02351523 0.01216247 0.00281393
v 0.02430064 0.01178195 0.00370964
v 0.02549170 0.01156100 0.00403584
v 0.02455094 0.01158064 0.00406658
v 0.02494796 0.01158064 0.00406658
v 0.02597503 0.01151927 0.00395161
v 0.02682949 0.01142598 0.00364814
v 0.02657919 0.01163465 0.00338211
v 0.02682949 0.01175495 0.00285270
v 0.02733871 0.01163956 0.00260672
v 0.02761490 0.01137688 0.00285270
v 0.02811118 0.01083678 0.00342890
v 0.02788677 0.01145298 0.00199443
v 0.02798171 0.01152172 0.00136209
v 0.02802918 0.01157573 0.00081531
v 0.02806371 0.01161010 0.00035676
v 0.02783499 0.01180405 -0.00002291
v 0.02761490 0.01193661 -0.00046140
v 0.02806371 0.01159783 -0.00127957
v 0.02803350 0.01157573 -0.00173010
v 0.02796013 0.01148735 -0.00227688
v 0.03458002 0.00502583 -0.00418727
v 0.02734734 0.01087606 -0.00431962
v 0.02693306 0.01066002 -0.00486774
v 0.02638932 0.01074595 -0.00496666
v 0.02679065 0.01139161 -0.00390920
v 0.03391112 0.00507002 -0.00513377
v 0.03379029 0.00421569 -0.00663642
v 0.02597503 0.01146280 -0.00398273
v 0.02515510 0.01151927 -0.00405759
v 0.02433517 0.01119766 -0.00455624
v 0.02351523 0.01119766 -0.00455624
v 0.02269530 0.01154136 -0.00410037
v 0.02187968 0.01150945 -0.00404957
v 0.00796240 0.01016412 -0.00453218
v 0.00714246 0.01041452 -0.00373674
v -0.00252843 0.00507493 -0.00748400
v -0.00305923 0.00497919 -0.00701342
v -0.00299450 0.00490799 -0.00619525
v 0.00658577 0.01010274 0.00348906
v 0.00674113 0.00992107 0.00403584
v 0.00728487 0.01004628 0.00424706
v 0.00767758 0.00988670 0.00479251
v 0.00795377 0.01013220 0.00449438
v -0.00393095 0.00419850 -0.00656423
v -0.00383170 0.00410030 -0.00601745
v -0.00469047 0.00331471 -0.00619525
v -0.00491487 0.00276970 -0.00570729
v 0.01041788 0.01083678 0.00347034
v 0.01123781 0.01072140 0.00397701
v 0.00835079 0.01074840 0.00322837
v 0.01172114 0.01074104 0.00403049
v 0.02351523 0.01178932 0.00359601
v 0.00877801 0.01029668 0.00445428
v 0.00877801 0.01061583 0.00368825
v 0.00877801 0.01001682 0.00497833
v 0.02519394 0.01131305 0.00438610
v 0.02576358 0.01079750 0.00491550
v 0.02600956 0.01106755 0.00452246
v 0.00959795 0.01004382 0.00501042
v 0.02430064 0.01131796 0.00438610
v 0.02433517 0.01085151 0.00495962
v 0.02515510 0.01084415 0.00495560
v 0.02679065 0.01100127 0.00435802
v 0.02742070 0.01087115 0.00420829
v 0.02712294 0.01153891 0.00315083
v 0.02766237 0.01102336 0.00367488
v 0.02797308 0.01070176 0.00397434
v 0.03466633 0.00592190 -0.00002425
v 0.02807665 0.01161747 -0.00002291
v 0.02808960 0.01162729 -0.00046140
v 0.03464906 0.00590226 -0.00046274
v 0.03458002 0.00583352 -0.00175550
v 0.03826972 -0.00094960 -0.00701342
v 0.03826972 -0.00125157 -0.00769923
v 0.02739050 0.01011256 -0.00511907
v 0.02723514 0.01029668 -0.00503618
v 0.02738187 0.00921404 -0.00586371
v 0.02681654 0.01050781 -0.00503618
v 0.02648857 0.01063056 -0.00503618
v 0.02596640 0.00983024 -0.00572066
v 0.02596640 0.01033596 -0.00532361
v 0.02515510 0.00987688 -0.00574873
v 0.02597503 0.01068948 -0.00503618
v 0.02597503 0.01075822 -0.00497870
v 0.02679065 0.00974431 -0.00565515
v 0.03376440 0.00337854 -0.00742918
v 0.02515510 0.01078032 -0.00499608
v 0.02433517 0.01079996 -0.00501212
v 0.02351523 0.01079505 -0.00500677
v 0.02269530 0.01114856 -0.00455624
v 0.00847162 0.00986706 -0.00503618
v 0.00840689 0.00992598 -0.00496132
v 0.00796240 0.00991125 -0.00494260
v 0.00714246 0.01008065 -0.00439181
v -0.00276147 0.00466986 -0.00755218
v -0.00325774 0.00444155 -0.00750004
v 0.00760421 0.00908883 -0.00577948
v 0.00085055 0.00585562 -0.00745191
v -0.00187249 0.00513631 -0.00752678
v -0.00381012 0.00407084 -0.00718053
v -0.00352530 0.00449801 -0.00694925
v -0.00393095 0.00419850 -0.00663374
v 0.00673681 0.00908883 0.00485133
v 0.00716836 0.00928278 0.00518287
v 0.00725035 0.00937361 0.00518287
v 0.00736255 0.00943989 0.00518287
v 0.00792356 0.00970258 0.00518287
v 0.00799692 0.00972958 0.00518287
v 0.00822132 0.00997508 0.00492753
v -0.00501413 0.00290718 -0.00619525
v -0.00541978 0.00214368 -0.00615247
v -0.00551903 0.00132371 -0.00583697
v 0.00687491 0.00883597 0.00518287
v 0.00877801 0.00985479 0.00518287
v 0.02592325 0.01047099 0.00518287
v 0.02679065 0.01027459 0.00518287
v 0.02631164 0.01072876 0.00484464
v 0.00922682 0.00988179 0.00518287
v 0.00959795 0.00990143 0.00518287
v 0.02351523 0.01082696 0.00494090
v 0.01184197 0.01000945 0.00518287
v 0.01358541 0.01009047 0.00518287
v 0.01445281 0.01012975 0.00518287
v 0.02386047 0.01055446 0.00518287
v 0.02435243 0.01057164 0.00518287
v 0.02515510 0.01056673 0.00518287
v 0.02679065 0.01066493 0.00476711
v 0.02761490 0.01010029 0.00504384
v 0.02805939 0.00997508 0.00491283
v 0.03012649 0.00609621 0.00518287
v 0.03826108 -0.00094715 -0.00002425
v 0.03826972 -0.00093733 -0.00503618
v 0.03826972 -0.00093733 -0.00619792
v 0.03826972 -0.00194878 -0.00783158
v 0.03631482 -0.00066237 -0.00827943
v 0.03465769 0.00103648 -0.00830484
v 0.02718767 0.00827869 -0.00660032
v 0.02679065 0.00933924 -0.00595194
v 0.02671729 0.01036297 -0.00519126
v 0.02596640 0.00886543 -0.00642920
v 0.02515510 0.00946690 -0.00605221
v 0.02515510 0.01033596 -0.00537040
v 0.02433085 0.00990389 -0.00576879
v 0.02515510 0.01073613 -0.00503618
v 0.02683381 0.00703892 -0.00732357
v 0.02686401 0.00794972 -0.00687973
v 0.02433517 0.01077541 -0.00503618
v 0.02433085 0.01077541 -0.00503618
v 0.02351523 0.01076068 -0.00503618
v 0.00828605 0.00832533 -0.00663776
v 0.00878665 0.00916248 -0.00584365
v 0.00856224 0.00915266 -0.00583563
v 0.00815659 0.00984251 -0.00503618
v 0.00815228 0.00913548 -0.00581825
v 0.00794945 0.00982533 -0.00503618
v -0.00351235 0.00296119 -0.00765110
v -0.00352530 0.00379097 -0.00755886
v -0.00187249 0.00459866 -0.00764041
v -0.00269242 0.00377870 -0.00765378
v -0.00403452 0.00352584 -0.00749603
v 0.00057868 0.00546282 -0.00753212
v 0.00878665 0.00787607 -0.00686636
v 0.00960226 0.00651846 -0.00737838
v 0.00960226 0.00610848 -0.00751875
v -0.00478972 0.00262731 -0.00746662
v -0.00460847 0.00320669 -0.00701342
v -0.00414672 0.00379097 -0.00694925
v -0.00492350 0.00279671 -0.00701342
v -0.00562260 0.00187118 -0.00685700
v -0.00562260 0.00187118 -0.00639712
v -0.00567870 0.00132371 -0.00624605
v -0.00555356 0.00090391 -0.00578884
v 0.00683175 0.00869849 0.00518287
v 0.02691148 0.01023286 0.00518287
v 0.02762785 0.00992353 0.00518287
v 0.02786951 0.00977132 0.00518287
v 0.02741639 0.01004137 0.00518287
v 0.02813707 0.00942271 0.00518287
v 0.03600843 -0.00843485 -0.00002425
v 0.03744115 -0.00488985 -0.00002425
v 0.03826108 -0.00278102 -0.00002425
v 0.00786746 0.00609621 0.00518287
v 0.03826972 -0.00521882 -0.00503618
v 0.03826972 -0.00274911 -0.00752945
v 0.03744115 -0.00276629 -0.00769255
v 0.03662122 -0.00276629 -0.00784763
v 0.03615515 -0.00276629 -0.00792516
v 0.03744115 -0.00194633 -0.00796794
v 0.03618104 -0.00151179 -0.00823799
v 0.03631482 -0.00096924 -0.00827943
v 0.03498135 -0.00031622 -0.00843719
v 0.03495546 0.00045956 -0.00835697
v 0.03416573 0.00050129 -0.00845991
v 0.03416573 0.00117151 -0.00833692
v 0.02663961 0.00838425 -0.00667519
v 0.02596640 0.00845545 -0.00671930
v 0.02515510 0.00887525 -0.00646129
v 0.02433085 0.00949636 -0.00605889
v 0.02433085 0.01033596 -0.00540650
v 0.02351523 0.00989652 -0.00576344
v 0.02351523 0.01033596 -0.00539714
v 0.02658351 0.00675414 -0.00744523
v 0.02596640 0.00714448 -0.00733828
v 0.02596640 0.00787607 -0.00704416
v 0.00856224 0.00833024 -0.00664043
v 0.03416573 -0.00031622 -0.00847462
v -0.00433229 0.00132371 -0.00765512
v -0.00433229 0.00209458 -0.00763239
v -0.00433229 0.00214122 -0.00762971
v -0.00431934 0.00292436 -0.00754014
v -0.00105255 0.00459866 -0.00765378
v 0.01042651 0.00541617 -0.00765378
v 0.00878665 0.00833024 -0.00664310
v 0.02596640 0.00541617 -0.00771795
v -0.00497529 0.00214122 -0.00751474
v -0.00565281 0.00116905 -0.00749870
v -0.00554492 0.00171406 -0.00740378
v -0.00536799 0.00214368 -0.00708293
v -0.00570891 0.00139491 -0.00708293
v -0.00581680 0.00050375 -0.00701342
v -0.00569165 0.00059213 -0.00611771
v -0.00569165 0.00057985 -0.00611504
v -0.00558376 0.00035645 -0.00576344
v 0.00683175 0.00857820 0.00518287
v -0.00560534 -0.00031131 -0.00573938
v 0.03454981 -0.00915907 -0.00171539
v 0.03497272 -0.00907069 -0.00171539
v 0.03547763 -0.00895040 -0.00171539
v 0.03605590 -0.00843485 -0.00046408
v 0.01311934 -0.00843485 -0.00002425
v 0.00796240 -0.01239720 -0.00171539
v 0.01019348 -0.01220571 -0.00171539
v 0.01206206 -0.01200931 -0.00171539
v 0.01762898 -0.01140293 -0.00171539
v 0.02487460 -0.01056578 -0.00171539
v 0.03149448 -0.00976300 -0.00171539
v 0.03190013 -0.00968444 -0.00171539
v 0.00730645 0.00710029 0.00518287
v 0.00655988 -0.01160915 -0.00171539
v 0.00671955 -0.01180064 -0.00171539
v 0.00692238 -0.01201667 -0.00171539
v 0.00713815 -0.01218607 -0.00171539
v 0.00733234 -0.01230636 -0.00171539
v 0.00766032 -0.01236283 -0.00171539
v 0.03605590 -0.00843485 -0.00053359
v 0.03826972 -0.00521146 -0.00537307
v 0.03826972 -0.00351506 -0.00719523
v 0.03683699 -0.00390049 -0.00738507
v 0.03659101 -0.00360590 -0.00754282
v 0.03580129 -0.00358380 -0.00769522
v 0.03498135 -0.00358380 -0.00784094
v 0.03580129 -0.00276629 -0.00797998
v 0.03662122 -0.00194633 -0.00808693
v 0.03615515 -0.00154616 -0.00823532
v 0.03586602 -0.00119756 -0.00831419
v 0.03498135 -0.00112636 -0.00838104
v 0.02679065 0.00459866 -0.00785565
v 0.02679065 0.00541617 -0.00771260
v 0.03416573 -0.00112636 -0.00840510
v 0.03334149 -0.00112636 -0.00841580
v 0.03252155 -0.00112636 -0.00840911
v -0.00187249 -0.00440622 -0.00765244
v -0.00351235 -0.00276875 -0.00765378
v -0.00433229 -0.00195124 -0.00765110
v -0.00433229 -0.00112882 -0.00765378
v -0.00514790 0.00050375 -0.00762704
v -0.00522127 0.00139491 -0.00756153
v -0.00565713 0.00059213 -0.00750940
v -0.00572617 -0.00031131 -0.00619525
v -0.00565713 0.00050375 -0.00751073
v -0.00560102 -0.00007072 -0.00746528
v -0.00568733 -0.00033095 -0.00704817
v -0.00562260 -0.00094960 -0.00679818
v -0.00562260 -0.00118528 -0.00613509
v 0.00684038 0.00797181 0.00518287
v -0.00558808 -0.00112882 -0.00575408
v 0.03497272 -0.00899459 -0.00209640
v 0.03145996 -0.00976054 -0.00178491
v 0.03416142 -0.00915907 -0.00210041
v 0.03525322 -0.00887675 -0.00236645
v 0.03544742 -0.00893812 -0.00181967
v 0.03826972 -0.00501015 -0.00606691
v 0.03565456 -0.00876382 -0.00171539
v 0.00960226 -0.01222780 -0.00193731
v 0.01015895 -0.01220325 -0.00177956
v 0.00750064 -0.01222535 -0.00266056
v 0.00796240 -0.01233828 -0.00210041
v 0.00858813 -0.01220816 -0.00262714
v 0.01206206 -0.01197003 -0.00210041
v 0.01759014 -0.01139802 -0.00178357
v 0.02484439 -0.01056332 -0.00175282
v -0.00474225 -0.00317627 -0.00578750
v -0.00402158 -0.00408462 -0.00571665
v -0.00410357 -0.00414599 -0.00619525
v -0.00313259 -0.00484075 -0.00639311
v -0.00313259 -0.00484075 -0.00674872
v 0.00739707 -0.01227690 -0.00210041
v 0.03598253 -0.00843485 -0.00135176
v 0.03826972 -0.00430311 -0.00678882
v 0.03580129 -0.00454370 -0.00730619
v 0.03629325 -0.00403061 -0.00743721
v 0.03498135 -0.00276629 -0.00809762
v 0.03580129 -0.00413372 -0.00748132
v 0.03498135 -0.00430066 -0.00755084
v 0.03450665 -0.00479656 -0.00741581
v 0.03416573 -0.00358380 -0.00793720
v 0.03586602 -0.00193651 -0.00818719
v 0.03563298 -0.00165909 -0.00826339
v 0.03498135 -0.00180394 -0.00828345
v 0.03441171 -0.00231457 -0.00823665
v 0.03415279 -0.00200525 -0.00828879
v 0.03334149 -0.00194633 -0.00831954
v 0.03252155 -0.00194633 -0.00832623
v 0.00960226 -0.00849868 -0.00733159
v -0.00187249 -0.00510098 -0.00753881
v -0.00351235 -0.00358871 -0.00763239
v -0.00433229 -0.00276875 -0.00761635
v -0.00556219 -0.00154125 -0.00578349
v -0.00483288 -0.00276875 -0.00750138
v -0.00477246 -0.00324010 -0.00745592
v -0.00555356 -0.00149706 -0.00636904
v -0.00556219 -0.00154125 -0.00582226
v 0.03470948 -0.00894058 -0.00258970
v 0.02678634 -0.01026382 -0.00210041
v 0.03088169 -0.00979982 -0.00193196
v 0.03037246 -0.00971881 -0.00246404
v 0.03088169 -0.00968198 -0.00234105
v 0.03088169 -0.00951259 -0.00291858
v 0.03170162 -0.00937757 -0.00291858
v 0.03171888 -0.00962797 -0.00207501
v 0.03416142 -0.00899459 -0.00274344
v 0.03502019 -0.00843485 -0.00358701
v 0.03533522 -0.00806660 -0.00410973
v 0.03551215 -0.00822127 -0.00356295
v 0.03497272 -0.00876382 -0.00288649
v 0.03564161 -0.00836857 -0.00291858
v 0.03826972 -0.00471309 -0.00647867
v 0.00960226 -0.01216397 -0.00234639
v 0.01123781 -0.01205595 -0.00210041
v -0.00274421 -0.00501751 -0.00701876
v -0.00305060 -0.00476465 -0.00729550
v 0.00738413 -0.01149622 -0.00439181
v 0.00760421 -0.01135383 -0.00493859
v 0.00796240 -0.01194793 -0.00373674
v 0.00796240 -0.01214433 -0.00312044
v 0.00796240 -0.01223026 -0.00271136
v 0.00882980 -0.01214188 -0.00290788
v 0.00960226 -0.01206577 -0.00291858
v 0.01042651 -0.01197740 -0.00291858
v 0.02382163 -0.01054123 -0.00245468
v -0.00479835 -0.00328429 -0.00633429
v -0.00456532 -0.00356907 -0.00611504
v -0.00409494 -0.00412390 -0.00701342
v -0.00450922 -0.00371391 -0.00701342
v 0.03557688 -0.00573928 -0.00666984
v 0.03582718 -0.00527774 -0.00687706
v 0.03498135 -0.00522128 -0.00710031
v 0.03498135 -0.00471064 -0.00737705
v 0.03498135 -0.00221392 -0.00821660
v 0.03415279 -0.00269755 -0.00817917
v 0.03420889 -0.00516236 -0.00723935
v 0.03396291 -0.00484812 -0.00744122
v 0.03420889 -0.00447742 -0.00757624
v 0.03334149 -0.00440377 -0.00766046
v 0.00960226 -0.00932356 -0.00708293
v 0.03334149 -0.00358380 -0.00796393
v 0.03387229 -0.00237840 -0.00824601
v 0.03334149 -0.00240050 -0.00825002
v 0.03334149 -0.00280557 -0.00817115
v -0.00250254 -0.00494386 -0.00750004
v -0.00274421 -0.00446023 -0.00756153
v 0.00878233 -0.00932356 -0.00700406
v -0.00079794 -0.00564353 -0.00743453
v -0.00133737 -0.00561162 -0.00735165
v -0.00351235 -0.00420737 -0.00751742
v -0.00400863 -0.00405270 -0.00747196
v -0.00430208 -0.00354452 -0.00751742
v -0.00480698 -0.00330393 -0.00701342
v -0.00500549 -0.00276875 -0.00701342
v 0.03367378 -0.00889884 -0.00328622
v 0.03416142 -0.00884729 -0.00315386
v 0.02678634 -0.01006005 -0.00291858
v 0.02924614 -0.00967953 -0.00314050
v 0.02761058 -0.00995694 -0.00291858
v 0.03008333 -0.00963779 -0.00288649
v 0.03088169 -0.00920326 -0.00373674
v 0.03252155 -0.00900932 -0.00354423
v 0.03313435 -0.00895285 -0.00341322
v 0.03252155 -0.00923272 -0.00291858
v 0.03502882 -0.00833665 -0.00379690
v 0.03469653 -0.00843485 -0.00377417
v 0.03479147 -0.00816480 -0.00426748
v 0.03502882 -0.00787020 -0.00454689
v 0.03543016 -0.00731538 -0.00501345
v 0.03416142 -0.00858952 -0.00373674
v 0.03547763 -0.00654942 -0.00589980
v 0.03498135 -0.00666481 -0.00601210
v 0.00813501 -0.01072781 -0.00599606
v 0.00814796 -0.01142257 -0.00506960
v 0.00791493 -0.01157478 -0.00462175
v 0.00878665 -0.01163861 -0.00455491
v 0.00878665 -0.01194303 -0.00373674
v 0.01123781 -0.01188411 -0.00291858
v 0.02327788 -0.01057069 -0.00258436
v 0.03498135 -0.00624500 -0.00642252
v 0.03498135 -0.00583257 -0.00673668
v 0.03416573 -0.00590622 -0.00678749
v 0.00960226 -0.00994712 -0.00674471
v 0.00878233 -0.00995940 -0.00672866
v 0.00878233 -0.01037183 -0.00648535
v 0.02815864 -0.00975072 -0.00337044
v 0.02870671 -0.00971390 -0.00326750
v 0.02207388 -0.01052404 -0.00323942
v 0.03005744 -0.00932356 -0.00373674
v 0.03136070 -0.00892339 -0.00416187
v 0.03190013 -0.00887675 -0.00407764
v 0.03165847 -0.00905596 -0.00377818
v 0.03252155 -0.00881783 -0.00395331
v 0.03416142 -0.00824582 -0.00438512
v 0.03416142 -0.00797086 -0.00479554
v 0.03498998 -0.00750441 -0.00503484
v 0.03498135 -0.00742585 -0.00513645
v 0.03498135 -0.00707479 -0.00554687
v 0.03416573 -0.00755597 -0.00528083
v 0.03416573 -0.00718281 -0.00568991
v 0.03416573 -0.00677283 -0.00609632
v 0.00878233 -0.01077936 -0.00607627
v 0.00878233 -0.01118689 -0.00547468
v 0.00878233 -0.01142011 -0.00506559
v 0.00900242 -0.01140784 -0.00503484
v 0.02153013 -0.01055596 -0.00333969
v 0.03416573 -0.00631865 -0.00650540
v 0.03334149 -0.00638003 -0.00655487
v 0.00960226 -0.01035465 -0.00640380
v 0.03171025 -0.00742831 -0.00592654
v 0.03088169 -0.00896513 -0.00421267
v 0.03334149 -0.00804205 -0.00489848
v 0.03416142 -0.00776710 -0.00503484
v 0.03309119 -0.00797331 -0.00503484
v 0.03306961 -0.00729819 -0.00581424
v 0.03252155 -0.00735220 -0.00586504
v 0.03088169 -0.00789230 -0.00556157
v 0.03171025 -0.00783584 -0.00548403
v 0.03088169 -0.00823354 -0.00515249
v 0.03170162 -0.00820654 -0.00503484
v 0.03088169 -0.00843485 -0.00489848
v 0.03207275 -0.00814516 -0.00503618
v 0.03286247 -0.00808133 -0.00495062
v 0.03279343 -0.00802487 -0.00503484
v 0.03256902 -0.00782356 -0.00531960
f 1 2 3
f 1 3 4
f 1 4 5
f 1 5 6
f 1 6 7
f 1 7 8
f 1 8 9
f 1 9 10
f 1 10 11
f 1 11 2
f 2 11 12
f 2 12 13
f 2 13 14
f 2 14 3
f 3 14 15
f 3 15 16
f 3 16 4
f 4 16 17
f 4 17 5
f 5 17 6
f 6 18 19
f 6 19 20
f 6 20 21
f 6 21 7
f 6 17 18
f 7 21 8
f 8 22 24
f 8 24 9
f 8 21 23
f 8 23 22
f 9 24 25
f 9 25 26
f 9 26 27
f 9 27 28
f 9 28 10
f 10 28 11
f 11 29 12
f 11 28 30
f 11 30 29
f 12 31 13
f 12 29 32
f 12 32 31
f 13 31 33
f 13 33 34
f 13 34 14
f 14 34 35
f 14 35 36
f 14 36 15
f 15 36 37
f 15 37 38
f 15 38 16
f 16 38 39
f 16 39 40
f 16 40 41
f 16 41 17
f 17 41 18
f 18 41 19
f 19 41 42
f 19 42 43
f 19 43 44
f 19 44 45
f 19 45 20
f 20 45 46
f 20 46 21
f 21 46 47
f 21 47 23
f 22 48 49
f 22 49 24
f 22 23 50
f 22 50 48
f 23 47 50
f 24 49 25
f 25 49 51
f 25 51 52
f 25 52 53
f 25 53 26
f 26 53 27
f 27 54 28
f 27 53 55
f 27 55 56
f 27 56 54
f 28 54 30
f 29 30 57
f 29 57 58
f 29 58 32
f 30 54 56
f 30 56 59
f 30 59 60
f 30 60 61
f 30 61 58
f 30 58 57
f 31 32 33
f 32 58 62
f 32 62 33
f 33 62 63
f 33 63 64
f 33 64 34
f 34 64 35
f 35 64 65
f 35 65 66
f 35 66 67
f 35 67 36
f 36 68 69
f 36 69 70
f 36 70 37
f 36 67 68
f 37 70 71
f 37 71 38
f 38 71 39
f 39 72 40
f 39 71 73
f 39 73 72
f 40 72 74
f 40 74 75
f 40 75 41
f 41 75 76
f 41 76 42
f 42 76 43
f 43 77 44
f 43 76 78
f 43 78 79
f 43 79 80
f 43 80 81
f 43 81 77
f 44 77 81
f 44 81 45
f 45 82 83
f 45 83 46
f 45 81 84
f 45 84 82
f 46 83 85
f 46 85 47
f 47 85 86
f 47 86 50
f 48 87 51
f 48 51 49
f 48 50 86
f 48 86 87
f 51 87 88
f 51 88 89
f 51 89 90
f 51 90 52
f 52 90 55
f 52 55 53
f 55 91 92
f 55 92 93
f 55 93 94
f 55 94 56
f 55 90 91
f 56 95 96
f 56 96 61
f 56 61 97
f 56 97 59
f 56 94 95
f 58 61 96
f 58 96 98
f 58 98 99
f 58 99 63
f 58 63 62
f 59 97 60
f 60 97 61
f 63 99 100
f 63 100 101
f 63 101 64
f 64 102 103
f 64 103 104
f 64 104 65
f 64 101 102
f 65 104 66
f 66 104 67
f 67 104 105
f 67 105 106
f 67 106 68
f 68 106 107
f 68 107 108
f 68 108 109
f 68 109 69
f 69 109 110
f 69 110 70
f 70 110 111
f 70 111 112
f 70 112 113
f 70 113 71
f 71 114 115
f 71 115 73
f 71 113 112
f 71 112 114
f 72 116 74
f 72 73 117
f 72 117 118
f 72 118 116
f 73 115 117
f 74 116 75
f 75 116 118
f 75 118 78
f 75 78 76
f 78 118 117
f 78 117 119
f 78 119 120
f 78 120 121
f 78 121 122
f 78 122 123
f 78 123 79
f 79 123 124
f 79 124 125
f 79 125 126
f 79 126 80
f 80 126 81
f 81 126 127
f 81 127 84
f 82 84 83
f 83 128 129
f 83 129 130
f 83 130 85
f 83 84 131
f 83 131 128
f 84 127 132
f 84 132 133
f 84 133 131
f 85 130 134
f 85 134 87
f 85 87 86
f 87 135 88
f 87 134 135
f 88 136 89
f 88 135 137
f 88 137 138
f 88 138 136
f 89 136 139
f 89 139 140
f 89 140 141
f 89 141 90
f 90 141 142
f 90 142 91
f 91 142 143
f 91 143 92
f 92 144 145
f 92 145 146
f 92 146 93
f 92 143 144
f 93 146 147
f 93 147 148
f 93 148 149
f 93 149 94
f 94 149 150
f 94 150 151
f 94 151 95
f 95 151 96
f 96 151 152
f 96 152 153
f 96 153 98
f 98 153 99
f 99 153 154
f 99 154 155
f 99 155 100
f 100 156 157
f 100 157 158
f 100 158 159
f 100 159 101
f 100 155 160
f 100 160 161
f 100 161 156
f 101 159 158
f 101 158 162
f 101 162 163
f 101 163 105
f 101 105 102
f 102 105 103
f 103 105 104
f 105 163 158
f 105 158 164
f 105 164 107
f 105 107 106
f 107 164 165
f 107 165 166
f 107 166 108
f 108 166 109
f 109 166 167
f 109 167 110
f 110 167 168
f 110 168 111
f 111 168 112
f 112 168 169
f 112 169 114
f 114 169 115
f 115 169 170
f 115 170 171
f 115 171 119
f 115 119 117
f 119 171 120
f 120 171 121
f 121 171 122
f 122 124 123
f 122 171 124
f 124 171 125
f 125 171 126
f 126 171 172
f 126 172 127
f 127 173 174
f 127 174 175
f 127 175 176
f 127 176 177
f 127 177 132
f 127 172 178
f 127 178 179
f 127 179 180
f 127 180 181
f 127 181 173
f 128 182 183
f 128 183 129
f 128 131 133
f 128 133 184
f 128 184 182
f 129 183 185
f 129 185 130
f 130 186 135
f 130 135 134
f 130 185 186
f 132 177 187
f 132 187 133
f 133 187 188
f 133 188 184
f 135 186 185
f 135 185 189
f 135 189 137
f 136 138 190
f 136 190 191
f 136 191 192
f 136 192 139
f 137 189 193
f 137 193 194
f 137 194 195
f 137 195 138
f 138 195 196
f 138 196 190
f 139 192 197
f 139 197 140
f 140 198 199
f 140 199 141
f 140 197 198
f 141 199 142
f 142 199 143
f 143 199 200
f 143 200 144
f 144 200 145
f 145 200 201
f 145 201 202
f 145 202 146
f 146 202 147
f 147 202 148
f 148 202 149
f 149 203 150
f 149 202 203
f 150 203 204
f 150 204 151
f 151 204 152
f 152 204 202
f 152 202 205
f 152 205 206
f 152 206 153
f 153 206 154
f 154 206 155
f 155 206 207
f 155 207 208
f 155 208 161
f 155 161 160
f 156 209 210
f 156 210 157
f 156 161 209
f 157 210 211
f 157 211 212
f 157 212 213
f 157 213 158
f 158 214 215
f 158 215 216
f 158 216 217
f 158 217 218
f 158 218 164
f 158 163 162
f 158 213 219
f 158 219 214
f 161 208 220
f 161 220 209
f 164 218 221
f 164 221 222
f 164 222 165
f 165 222 223
f 165 223 224
f 165 224 166
f 166 224 225
f 166 225 226
f 166 226 227
f 166 227 168
f 166 168 167
f 168 227 228
f 168 228 169
f 169 228 170
f 170 229 230
f 170 230 171
f 170 228 227
f 170 227 231
f 170 231 232
f 170 232 233
f 170 233 229
f 171 230 234
f 171 234 235
f 171 235 236
f 171 236 178
f 171 178 172
f 173 181 174
f 174 181 237
f 174 237 238
f 174 238 239
f 174 239 240
f 174 240 176
f 174 176 175
f 176 240 241
f 176 241 242
f 176 242 243
f 176 243 177
f 177 243 187
f 178 236 180
f 178 180 179
f 180 244 181
f 180 236 244
f 181 244 245
f 181 245 246
f 181 246 247
f 181 247 237
f 182 184 183
f 183 184 188
f 183 188 187
f 183 187 185
f 185 187 189
f 187 243 189
f 189 243 248
f 189 248 193
f 190 196 191
f 191 196 249
f 191 249 250
f 191 250 251
f 191 251 192
f 192 251 197
f 193 248 252
f 193 252 253
f 193 253 254
f 193 254 194
f 194 254 195
f 195 254 253
f 195 253 255
f 195 255 256
f 195 256 257
f 195 257 258
f 195 258 259
f 195 259 260
f 195 260 196
f 196 260 249
f 197 261 198
f 197 251 261
f 198 261 262
f 198 262 263
f 198 263 201
f 198 201 200
f 198 200 199
f 201 263 202
f 202 264 265
f 202 265 266
f 202 266 267
f 202 267 207
f 202 207 205
f 202 204 203
f 202 263 264
f 205 207 206
f 207 267 266
f 207 266 317
f 207 317 380
f 207 380 416
f 207 416 471
f 207 471 433
f 207 433 381
f 207 381 318
f 207 318 268
f 207 268 208
f 208 268 269
f 208 269 270
f 208 270 220
f 209 211 210
f 209 220 211
f 211 271 272
f 211 272 219
f 211 219 273
f 211 273 212
f 211 220 271
f 212 273 213
f 213 273 219
f 214 219 274
f 214 274 275
f 214 275 216
f 214 216 215
f 216 276 217
f 216 275 277
f 216 277 276
f 217 276 278
f 217 278 218
f 218 278 221
f 219 272 274
f 220 270 279
f 220 279 280
f 220 280 271
f 221 278 281
f 221 281 222
f 222 281 282
f 222 282 223
f 223 282 283
f 223 283 284
f 223 284 285
f 223 285 225
f 223 225 224
f 225 285 286
f 225 286 287
f 225 287 227
f 225 227 226
f 227 287 288
f 227 288 289
f 227 289 231
f 229 290 291
f 229 291 230
f 229 233 292
f 229 292 293
f 229 293 290
f 230 291 294
f 230 294 234
f 231 289 288
f 231 288 284
f 231 284 232
f 232 295 233
f 232 284 296
f 232 296 297
f 232 297 298
f 232 298 295
f 233 295 292
f 234 294 299
f 234 299 300
f 234 300 301
f 234 301 236
f 234 236 235
f 236 301 300
f 236 300 302
f 236 302 244
f 237 247 238
f 238 247 307
f 238 307 358
f 238 358 409
f 238 409 372
f 238 372 316
f 238 316 264
f 238 264 312
f 238 312 310
f 238 310 309
f 238 309 311
f 238 311 308
f 238 308 250
f 238 250 249
f 238 249 260
f 238 260 259
f 238 259 258
f 238 258 257
f 238 257 256
f 238 256 255
f 238 255 253
f 238 253 252
f 238 252 248
f 238 248 242
f 238 242 241
f 238 241 240
f 238 240 239
f 242 248 243
f 244 302 303
f 244 303 304
f 244 304 245
f 245 304 246
f 246 304 305
f 246 305 306
f 246 306 307
f 246 307 247
f 250 308 261
f 250 261 251
f 261 308 262
f 262 309 310
f 262 310 263
f 262 308 311
f 262 311 309
f 263 310 312
f 263 312 264
f 264 313 314
f 264 314 315
f 264 315 265
f 264 316 364
f 264 364 313
f 265 315 317
f 265 317 266
f 268 318 319
f 268 319 320
f 268 320 321
f 268 321 322
f 268 322 323
f 268 323 324
f 268 324 269
f 269 324 325
f 269 325 326
f 269 326 270
f 270 326 327
f 270 327 328
f 270 328 279
f 271 280 329
f 271 329 272
f 272 329 274
f 274 330 275
f 274 329 330
f 275 330 331
f 275 331 332
f 275 332 277
f 276 277 278
f 277 333 278
f 277 332 334
f 277 334 335
f 277 335 333
f 278 333 281
f 279 336 337
f 279 337 338
f 279 338 280
f 279 328 336
f 280 338 329
f 281 333 282
f 282 333 335
f 282 335 283
f 283 335 284
f 284 288 286
f 284 286 285
f 284 335 334
f 284 334 339
f 284 339 296
f 286 288 287
f 290 293 340
f 290 340 341
f 290 341 342
f 290 342 343
f 290 343 291
f 291 343 344
f 291 344 294
f 292 295 345
f 292 345 327
f 292 327 293
f 293 327 340
f 294 344 299
f 295 298 346
f 295 346 345
f 296 339 347
f 296 347 338
f 296 338 337
f 296 337 297
f 297 337 298
f 298 337 336
f 298 336 348
f 298 348 346
f 299 349 350
f 299 350 351
f 299 351 300
f 299 344 349
f 300 351 302
f 302 352 303
f 302 351 352
f 303 352 351
f 303 351 353
f 303 353 304
f 304 353 354
f 304 354 305
f 305 354 355
f 305 355 306
f 306 355 356
f 306 356 357
f 306 357 307
f 307 357 359
f 307 359 358
f 313 360 361
f 313 361 362
f 313 362 363
f 313 363 317
f 313 317 314
f 313 364 365
f 313 365 366
f 313 366 367
f 313 367 368
f 313 368 369
f 313 369 370
f 313 370 371
f 313 371 360
f 314 317 315
f 316 372 373
f 316 373 374
f 316 374 375
f 316 375 376
f 316 376 377
f 316 377 378
f 316 378 365
f 316 365 364
f 317 363 379
f 317 379 380
f 318 381 382
f 318 382 319
f 319 382 383
f 319 383 320
f 320 383 384
f 320 384 385
f 320 385 321
f 321 386 322
f 321 385 386
f 322 387 388
f 322 388 323
f 322 386 387
f 323 388 389
f 323 389 324
f 324 389 325
f 325 389 390
f 325 390 340
f 325 340 327
f 325 327 326
f 327 391 392
f 327 392 328
f 327 345 346
f 327 346 391
f 328 392 336
f 329 338 330
f 330 338 347
f 330 347 331
f 331 347 332
f 332 347 339
f 332 339 334
f 336 392 348
f 340 390 393
f 340 393 394
f 340 394 395
f 340 395 396
f 340 396 397
f 340 397 398
f 340 398 399
f 340 399 341
f 341 399 400
f 341 400 342
f 342 400 343
f 343 400 401
f 343 401 344
f 344 401 349
f 346 348 391
f 348 392 391
f 349 401 350
f 350 402 354
f 350 354 353
f 350 353 351
f 350 401 400
f 350 400 402
f 354 403 356
f 354 356 355
f 354 402 404
f 354 404 405
f 354 405 406
f 354 406 407
f 354 407 408
f 354 408 403
f 356 403 359
f 356 359 357
f 358 359 409
f 359 403 410
f 359 410 409
f 360 411 361
f 360 371 412
f 360 412 413
f 360 413 411
f 361 411 414
f 361 414 415
f 361 415 362
f 362 415 416
f 362 416 380
f 362 380 417
f 362 417 379
f 362 379 363
f 365 418 419
f 365 419 366
f 365 378 420
f 365 420 421
f 365 421 422
f 365 422 418
f 366 419 367
f 367 419 423
f 367 423 368
f 368 423 424
f 368 424 369
f 369 425 412
f 369 412 370
f 369 424 425
f 370 412 371
f 372 409 426
f 372 426 373
f 373 426 427
f 373 427 374
f 374 427 375
f 375 427 428
f 375 428 376
f 376 428 429
f 376 429 430
f 376 430 431
f 376 431 377
f 377 431 378
f 378 431 420
f 379 417 432
f 379 432 380
f 380 432 417
f 381 433 382
f 382 433 434
f 382 434 435
f 382 435 383
f 383 435 384
f 384 435 385
f 385 436 386
f 385 435 437
f 385 437 438
f 385 438 439
f 385 439 440
f 385 440 436
f 386 436 387
f 387 436 441
f 387 441 388
f 388 441 442
f 388 442 389
f 389 442 390
f 390 443 444
f 390 444 445
f 390 445 393
f 390 442 443
f 393 445 446
f 393 446 394
f 394 446 447
f 394 447 395
f 395 447 396
f 396 448 449
f 396 449 450
f 396 450 397
f 396 447 448
f 397 450 398
f 398 451 400
f 398 400 399
f 398 450 451
f 400 404 402
f 400 451 404
f 403 408 452
f 403 452 410
f 404 451 453
f 404 453 405
f 405 407 406
f 405 453 454
f 405 454 407
f 407 454 455
f 407 455 408
f 408 455 456
f 408 456 452
f 409 410 452
f 409 452 426
f 411 413 457
f 411 457 414
f 412 425 458
f 412 458 459
f 412 459 460
f 412 460 461
f 412 461 462
f 412 462 463
f 412 463 464
f 412 464 465
f 412 465 457
f 412 457 413
f 414 466 467
f 414 467 468
f 414 468 415
f 414 457 469
f 414 469 466
f 415 468 470
f 415 470 416
f 416 470 468
f 416 468 467
f 416 467 471
f 418 422 472
f 418 472 419
f 419 473 423
f 419 472 473
f 420 431 430
f 420 430 474
f 420 474 475
f 420 475 476
f 420 476 477
f 420 477 478
f 420 478 479
f 420 479 480
f 420 480 421
f 421 480 422
f 422 481 472
f 422 480 481
f 423 473 482
f 423 482 483
f 423 483 484
f 423 484 424
f 424 484 425
f 425 484 458
f 426 452 485
f 426 485 486
f 426 486 427
f 427 486 428
f 428 487 430
f 428 430 429
f 428 486 488
f 428 488 487
f 430 475 474
f 430 487 475
f 433 471 489
f 433 489 490
f 433 490 434
f 434 437 435
f 434 490 489
f 434 489 491
f 434 491 492
f 434 492 437
f 436 493 441
f 436 440 494
f 436 494 493
f 437 492 438
f 438 492 439
f 439 495 496
f 439 496 497
f 439 497 440
f 439 492 491
f 439 491 495
f 440 498 499
f 440 499 448
f 440 448 500
f 440 500 494
f 440 497 498
f 441 493 442
f 442 493 443
f 443 493 444
f 444 493 494
f 444 494 501
f 444 501 445
f 445 501 446
f 446 502 447
f 446 501 502
f 447 502 448
f 448 499 449
f 448 502 503
f 448 503 494
f 448 494 500
f 449 504 505
f 449 505 450
f 449 499 506
f 449 506 507
f 449 507 508
f 449 508 504
f 450 505 509
f 450 509 510
f 450 510 511
f 450 511 451
f 451 511 454
f 451 454 453
f 452 456 512
f 452 512 485
f 454 488 512
f 454 512 513
f 454 513 455
f 454 511 510
f 454 510 488
f 455 513 512
f 455 512 456
f 457 465 514
f 457 514 515
f 457 515 469
f 458 484 516
f 458 516 459
f 459 517 460
f 459 516 518
f 459 518 517
f 460 517 519
f 460 519 461
f 461 519 462
f 462 519 517
f 462 517 520
f 462 520 521
f 462 521 463
f 463 521 522
f 463 522 523
f 463 523 464
f 464 523 465
f 465 523 514
f 466 524 467
f 466 469 525
f 466 525 524
f 467 524 526
f 467 526 527
f 467 527 528
f 467 528 471
f 469 515 529
f 469 529 525
f 471 528 530
f 471 530 531
f 471 531 489
f 472 481 473
f 473 481 482
f 475 487 510
f 475 510 504
f 475 504 508
f 475 508 477
f 475 477 476
f 477 532 533
f 477 533 534
f 477 534 478
f 477 508 532
f 478 533 535
f 478 535 536
f 478 536 479
f 478 534 533
f 479 536 481
f 479 481 480
f 481 536 482
f 482 536 483
f 483 537 484
f 483 536 537
f 484 537 538
f 484 538 516
f 485 512 488
f 485 488 486
f 487 488 510
f 489 531 539
f 489 539 540
f 489 540 491
f 491 540 495
f 494 503 501
f 495 540 541
f 495 541 542
f 495 542 496
f 496 498 497
f 496 542 499
f 496 499 498
f 499 542 543
f 499 543 506
f 501 503 502
f 504 510 509
f 504 509 505
f 506 543 507
f 507 543 508
f 508 543 544
f 508 544 532
f 514 522 529
f 514 529 515
f 514 523 522
f 516 545 546
f 516 546 518
f 516 538 547
f 516 547 545
f 517 518 546
f 517 546 520
f 520 546 548
f 520 548 549
f 520 549 550
f 520 550 551
f 520 551 521
f 521 551 550
f 521 550 552
f 521 552 522
f 522 552 529
f 524 525 526
f 525 529 526
f 526 529 553
f 526 553 554
f 526 554 527
f 527 555 528
f 527 554 555
f 528 555 556
f 528 556 530
f 529 552 553
f 530 556 557
f 530 557 531
f 531 557 558
f 531 558 559
f 531 559 560
f 531 560 539
f 532 544 561
f 532 561 533
f 533 561 562
f 533 562 563
f 533 563 535
f 535 563 564
f 535 564 545
f 535 545 536
f 536 545 565
f 536 565 547
f 536 547 538
f 536 538 537
f 539 560 566
f 539 566 540
f 540 566 541
f 541 566 567
f 541 567 542
f 542 568 544
f 542 544 543
f 542 567 566
f 542 566 569
f 542 569 568
f 544 568 561
f 545 548 546
f 545 547 565
f 545 564 548
f 548 564 570
f 548 570 549
f 549 570 571
f 549 571 554
f 549 554 553
f 549 553 550
f 550 553 552
f 554 571 572
f 554 572 556
f 554 556 555
f 556 572 558
f 556 558 557
f 558 572 571
f 558 571 573
f 558 573 574
f 558 574 559
f 559 574 560
f 560 574 575
f 560 575 566
f 561 568 576
f 561 576 577
f 561 577 578
f 561 578 579
f 561 579 580
f 561 580 570
f 561 570 562
f 562 570 563
f 563 570 564
f 566 575 569
f 568 569 576
f 569 575 577
f 569 577 576
f 570 580 579
f 570 579 581
f 570 581 582
f 570 582 571
f 571 582 583
f 571 583 573
f 573 583 577
f 573 577 584
f 573 584 574
f 574 584 577
f 574 577 575
f 577 583 581
f 577 581 579
f 577 579 578
f 581 583 582

