# https://github.com/mikedh/trimesh
v 0.02435796 0.01057327 0.00518287
v 0.02438153 0.01025598 0.00543219
v 0.02515956 0.00993441 0.00568899
v 0.02515956 0.01034388 0.00536604
v 0.02515956 0.01056684 0.00518287
v 0.02386285 0.01055398 0.00518287
v 0.01451235 0.00981864 0.00556293
v 0.01287142 0.00937915 0.00593643
v 0.01369188 0.00939630 0.00594049
v 0.02467860 0.00993012 0.00568556
v 0.02515956 0.00951850 0.00599822
v 0.02566882 0.00993441 0.00568962
v 0.01287142 0.00884319 0.00634613
v 0.02621580 0.00991726 0.00567495
v 0.02592816 0.01047037 0.00518287
v 0.01444634 0.01012950 0.00518287
v 0.01287142 0.00979077 0.00551644
v 0.01369188 0.00980792 0.00553953
v 0.01205095 0.00935986 0.00591990
v 0.00877380 0.00880675 0.00625720
v 0.00877380 0.00839728 0.00659982
v 0.02597531 0.00895467 0.00641135
v 0.02595645 0.00959354 0.00594143
v 0.00877380 0.00787847 0.00694680
v 0.02679578 0.00894181 0.00640386
v 0.02679578 0.00944990 0.00599416
v 0.02679578 0.00985937 0.00561566
v 0.02679578 0.01025598 0.00520596
v 0.02679578 0.01027742 0.00518287
v 0.01369188 0.01009520 0.00518287
v 0.01271110 0.01005018 0.00518287
v 0.01123520 0.00998157 0.00518287
v 0.01123520 0.00975004 0.00546963
v 0.00877380 0.00927625 0.00584750
v 0.01123520 0.00934056 0.00590180
v 0.00795804 0.00923981 0.00582192
v 0.00824096 0.00837155 0.00658078
v 0.02597531 0.00854520 0.00664537
v 0.00959426 0.00737038 0.00729066
v -0.00187813 0.00523726 0.00748818
v 0.02679578 0.00853234 0.00663008
v 0.02731918 0.00843587 0.00657454
v 0.02742764 0.00930198 0.00588370
v 0.02741821 0.01004160 0.00518287
v 0.00959426 0.00990225 0.00518287
v 0.00959426 0.00970716 0.00542158
v 0.00877380 0.00968572 0.00539069
v 0.00799105 0.00972860 0.00518287
v 0.00746293 0.00917978 0.00576450
v -0.00250055 0.00515365 0.00743326
v 0.00877380 0.00985294 0.00518287
v 0.02597531 0.00787847 0.00699236
v 0.00959426 0.00696090 0.00740861
v 0.02597531 0.00725890 0.00726070
v -0.00187813 0.00460268 0.00765355
v 0.02679578 0.00787847 0.00695054
v 0.04154533 -0.00058756 0.00738645
v 0.04195556 -0.00072047 0.00732342
v 0.02763040 0.00992369 0.00518287
v 0.00922647 0.00988081 0.00518287
v 0.00792032 0.00970287 0.00518287
v -0.00274104 0.00516865 0.00687316
v -0.00304753 0.00495213 0.00711935
v -0.00393401 0.00419964 0.00733153
v -0.00351435 0.00435828 0.00741204
v -0.00274104 0.00464770 0.00752125
v 0.00959426 0.00624057 0.00757991
v 0.02597531 0.00684942 0.00737865
v 0.02679578 0.00680869 0.00736836
v 0.02679578 0.00722031 0.00723418
v -0.00351435 0.00378373 0.00757742
v -0.00269388 0.00378373 0.00765387
v 0.01123520 0.00214370 0.00795560
v 0.01123520 0.00296264 0.00793501
v 0.01041473 0.00378373 0.00789600
v 0.01041473 0.00460268 0.00786074
v 0.01041473 0.00542163 0.00773999
v 0.03465624 0.00102675 0.00819243
v 0.03495330 0.00045649 0.00824766
v 0.03499102 -0.00031315 0.00832380
v 0.03626416 -0.00069475 0.00815780
v 0.04154533 -0.00090699 0.00738645
v 0.04195556 -0.00072262 0.00732342
v 0.04209231 -0.00105063 0.00689375
v 0.04207345 -0.00056397 0.00691341
v 0.02787088 0.00977148 0.00518287
v 0.00735920 0.00944133 0.00518287
v -0.00312298 0.00502287 0.00646034
v -0.00312298 0.00502287 0.00657361
v -0.00397645 0.00424466 0.00691341
v -0.00474505 0.00337640 0.00732654
v -0.00425937 0.00370227 0.00739644
v 0.02597531 0.00624057 0.00752344
v 0.02679578 0.00624057 0.00749566
v 0.03417056 0.00113609 0.00820180
v -0.00433482 0.00296264 0.00755245
v -0.00433482 0.00214370 0.00763202
v -0.00351435 0.00296264 0.00765387
v -0.00433482 0.00132475 0.00765293
v -0.00433482 -0.00113209 0.00765324
v -0.00433482 -0.00195104 0.00765199
v 0.03335009 -0.00031315 0.00835563
v 0.03417056 -0.00031315 0.00837029
v 0.03417056 0.00050580 0.00832567
v 0.02597531 0.00542163 0.00768507
v 0.03417056 -0.00113209 0.00830820
v 0.03580678 -0.00098631 0.00819119
v 0.03626416 -0.00082124 0.00815780
v 0.04054096 -0.00165733 0.00737148
v 0.04108794 -0.00151370 0.00731281
v 0.03662724 -0.00195104 0.00791785
v 0.04197914 -0.00403485 0.00570771
v 0.04220548 -0.00434785 0.00526525
v 0.04225734 -0.00434571 0.00518287
v 0.04116339 -0.00320518 0.00652087
v 0.04231864 -0.00113209 0.00609432
v 0.04219604 -0.00040747 0.00609432
v 0.04219604 -0.00040747 0.00518287
v 0.00725074 0.00937272 0.00518287
v -0.00329273 0.00431540 0.00564031
v -0.00230251 0.00501644 0.00568025
v -0.00284949 0.00486208 0.00591397
v -0.00383499 0.00410531 0.00576950
v -0.00398117 0.00425323 0.00631587
v -0.00474505 0.00337640 0.00729097
v -0.00550422 0.00153913 0.00609432
v -0.00562210 0.00112537 0.00668032
v -0.00560796 0.00025283 0.00737428
v -0.00480635 0.00296264 0.00738708
v -0.00491009 0.00214370 0.00746696
v -0.00515528 -0.00031315 0.00760456
v -0.00515528 -0.00113209 0.00760612
v -0.00351435 -0.00358893 0.00762547
v -0.00351435 -0.00276999 0.00765449
v -0.00269388 -0.00358893 0.00765480
v -0.00187813 -0.00440788 0.00765293
v 0.03252962 -0.00113209 0.00831881
v 0.03335009 -0.00113209 0.00832973
v 0.03505232 -0.00120069 0.00822863
v 0.03335009 -0.00195104 0.00823986
v 0.03410454 -0.00194889 0.00819368
v 0.03580678 -0.00139578 0.00811973
v 0.04078145 -0.00193818 0.00720735
v 0.03499102 -0.00358893 0.00774280
v 0.03499102 -0.00428139 0.00747757
v 0.04072486 -0.00276999 0.00685724
v 0.03580678 -0.00195104 0.00801458
v 0.03499102 -0.00276999 0.00793532
v 0.04219133 -0.00452793 0.00518287
v 0.04154533 -0.00415062 0.00578447
v 0.04154533 -0.00456009 0.00551581
v 0.04154533 -0.00501459 0.00518287
v 0.04233279 -0.00113209 0.00518287
v 0.04072486 -0.00331023 0.00658515
v 0.04072486 -0.00371971 0.00632055
v 0.00716587 0.00928268 0.00518287
v -0.00354264 0.00381160 0.00560474
v -0.00401889 0.00355863 0.00564031
v -0.00479220 0.00263035 0.00565155
v -0.00489594 0.00279113 0.00609432
v -0.00472148 0.00333781 0.00674522
v -0.00524488 0.00214370 0.00609432
v -0.00557023 0.00099245 0.00567901
v -0.00561267 0.00112966 0.00609432
v -0.00583901 -0.00031315 0.00691341
v -0.00568340 0.00051866 0.00693712
v -0.00568340 -0.00031315 0.00743981
v -0.00568812 -0.00113209 0.00744168
v -0.00515528 -0.00191888 0.00748568
v -0.00416035 -0.00358893 0.00745978
v -0.00400003 -0.00409488 0.00739519
v -0.00344362 -0.00438430 0.00743763
v -0.00269388 -0.00440788 0.00757648
v -0.00105766 -0.00522897 0.00755433
v -0.00023720 -0.00522897 0.00758927
v 0.00904257 -0.00899570 0.00735182
v 0.00959426 -0.00850476 0.00743045
v 0.03171387 -0.00195104 0.00824018
v 0.03252962 -0.00195104 0.00824735
v 0.03335009 -0.00241411 0.00815593
v 0.03378861 -0.00237552 0.00814594
v 0.00959426 -0.00900641 0.00735931
v 0.03252962 -0.00245484 0.00816685
v 0.03417056 -0.00358893 0.00783609
v 0.03419413 -0.00447648 0.00750690
v 0.03448177 -0.00479377 0.00730657
v 0.03499102 -0.00469087 0.00724417
v 0.03949416 -0.00399841 0.00650340
v 0.04066828 -0.00442717 0.00587247
v 0.04089933 -0.00471230 0.00561254
v 0.04035235 -0.00483450 0.00569617
v 0.04116339 -0.00516894 0.00518287
v 0.00687352 0.00883462 0.00518287
v -0.00433482 0.00214370 0.00556075
v -0.00351435 0.00296264 0.00555201
v -0.00431124 0.00292834 0.00561192
v -0.00493838 0.00214370 0.00562690
v -0.00519772 0.00128830 0.00562846
v -0.00515528 0.00050580 0.00560412
v -0.00557966 0.00050580 0.00566996
v -0.00574470 -0.00031315 0.00609432
v -0.00569283 0.00050580 0.00609432
v -0.00582486 -0.00113209 0.00691341
v -0.00573527 -0.00113209 0.00609432
v -0.00561739 -0.00162517 0.00737647
v -0.00488651 -0.00259633 0.00743107
v -0.00443855 -0.00358893 0.00691341
v -0.00405661 -0.00415491 0.00691341
v -0.00311826 -0.00482593 0.00733153
v -0.00269388 -0.00492454 0.00741079
v -0.00180269 -0.00522683 0.00746072
v -0.00105766 -0.00569633 0.00738895
v 0.00877380 -0.00929155 0.00718550
v 0.00877380 -0.01005261 0.00677986
v 0.00959426 -0.00941589 0.00714088
v 0.03335009 -0.00282358 0.00805576
v 0.01012238 -0.00895496 0.00734246
v 0.03335009 -0.00440788 0.00759333
v 0.03335009 -0.00491168 0.00737616
v 0.03393479 -0.00486237 0.00735026
v 0.03417056 -0.00583782 0.00664413
v 0.03417056 -0.00624729 0.00635799
v 0.03482127 -0.00573277 0.00656986
v 0.03505232 -0.00530186 0.00680794
v 0.03231743 -0.00650455 0.00653928
v 0.03286441 -0.00643595 0.00648936
v 0.03335009 -0.00636735 0.00644068
v 0.03916880 -0.00439716 0.00633209
v 0.03894718 -0.00411632 0.00657361
v 0.03990440 -0.00491811 0.00576076
v 0.03499102 -0.00665033 0.00583190
v 0.03990440 -0.00532759 0.00543562
v 0.04080031 -0.00531044 0.00518287
v 0.00683108 0.00869741 0.00518287
v -0.00433482 0.00132475 0.00555295
v -0.00515528 -0.00031315 0.00559226
v -0.00559381 -0.00031315 0.00565810
v -0.00559853 -0.00113209 0.00565342
v -0.00565983 -0.00169378 0.00691341
v -0.00563625 -0.00166376 0.00609432
v -0.00558438 -0.00158444 0.00566434
v -0.00402832 -0.00411632 0.00609432
v -0.00355207 -0.00456438 0.00691341
v -0.00148676 -0.00564702 0.00733372
v -0.00314184 -0.00483879 0.00691341
v 0.00774585 -0.01115669 0.00518287
v 0.00877380 -0.01046208 0.00642227
v 0.00959426 -0.00997757 0.00673150
v 0.00819853 -0.00996900 0.00669218
v 0.03417056 -0.00680255 0.00594829
v 0.03505232 -0.00602219 0.00628903
v 0.03171387 -0.00695691 0.00622850
v 0.03366602 -0.00725919 0.00566809
v 0.03417056 -0.00721202 0.00561878
v 0.04067299 -0.00535760 0.00518287
v 0.00683108 0.00857736 0.00518287
v -0.00433482 -0.00195104 0.00555295
v -0.00515528 -0.00113209 0.00558758
v -0.00512228 -0.00189530 0.00561972
v -0.00396702 -0.00404343 0.00565529
v -0.00314184 -0.00483879 0.00639107
v 0.00809479 -0.01075579 0.00592926
v 0.00737334 -0.01079438 0.00518287
v 0.00794861 -0.01121028 0.00518287
v -0.00147261 -0.00564059 0.00568182
v 0.00877380 -0.01082654 0.00601257
v 0.03007294 -0.00795593 0.00553391
v 0.03311904 -0.00730206 0.00571177
v 0.03171387 -0.00741354 0.00581880
v 0.03252962 -0.00784660 0.00518287
v 0.03320391 -0.00773297 0.00518287
v 0.03089340 -0.00789162 0.00545341
v 0.03089340 -0.00812101 0.00518287
v 0.03417056 -0.00753360 0.00520908
v 0.03499102 -0.00729563 0.00518287
v 0.03990440 -0.00562129 0.00518287
v 0.00684051 0.00797280 0.00518287
v -0.00351435 -0.00358893 0.00556387
v 0.00693953 0.00219515 0.00518287
v 0.00717058 -0.01020268 0.00518287
v 0.00722245 -0.01037418 0.00518287
v 0.00733091 -0.01068504 0.00518287
v -0.00408019 -0.00358893 0.00562971
v 0.00844844 -0.01132819 0.00518287
v 0.00877380 -0.01123601 0.00538195
v 0.03007294 -0.00824964 0.00518287
v 0.03412340 -0.00756147 0.00518287
v 0.03417056 -0.00755075 0.00518287
v 0.03430259 -0.00751216 0.00518287
v 0.00877380 -0.01132391 0.00518287
v 0.00958955 -0.01120814 0.00518287
f 1 2 3
f 1 3 4
f 1 4 5
f 1 5 15
f 1 15 29
f 1 29 44
f 1 44 59
f 1 59 86
f 1 86 118
f 1 118 153
f 1 153 114
f 1 114 149
f 1 149 152
f 1 152 192
f 1 192 233
f 1 233 255
f 1 255 276
f 1 276 275
f 1 275 289
f 1 289 288
f 1 288 287
f 1 287 271
f 1 271 270
f 1 270 273
f 1 273 286
f 1 286 291
f 1 291 290
f 1 290 284
f 1 284 264
f 1 264 246
f 1 246 263
f 1 263 282
f 1 282 281
f 1 281 280
f 1 280 279
f 1 279 277
f 1 277 256
f 1 256 234
f 1 234 193
f 1 193 156
f 1 156 119
f 1 119 87
f 1 87 61
f 1 61 48
f 1 48 51
f 1 51 60
f 1 60 45
f 1 45 32
f 1 32 31
f 1 31 30
f 1 30 16
f 1 16 6
f 1 6 7
f 1 7 8
f 1 8 9
f 1 9 2
f 2 10 3
f 2 9 10
f 3 11 12
f 3 12 4
f 3 10 9
f 3 9 13
f 3 13 11
f 4 12 5
f 5 12 14
f 5 14 15
f 6 16 17
f 6 17 18
f 6 18 7
f 7 18 8
f 8 13 9
f 8 18 19
f 8 19 20
f 8 20 21
f 8 21 13
f 11 22 23
f 11 23 12
f 11 13 22
f 12 23 14
f 13 21 24
f 13 24 22
f 14 23 25
f 14 25 26
f 14 26 27
f 14 27 15
f 15 27 28
f 15 28 29
f 16 30 17
f 17 30 31
f 17 31 32
f 17 32 33
f 17 33 34
f 17 34 18
f 18 34 35
f 18 35 19
f 19 35 20
f 20 34 36
f 20 36 37
f 20 37 21
f 20 35 34
f 21 37 24
f 22 38 25
f 22 25 23
f 22 24 39
f 22 39 38
f 24 37 40
f 24 40 39
f 25 38 41
f 25 41 42
f 25 42 43
f 25 43 26
f 26 43 27
f 27 43 44
f 27 44 28
f 28 44 29
f 32 45 33
f 33 45 46
f 33 46 34
f 34 47 36
f 34 46 47
f 36 48 49
f 36 49 50
f 36 50 40
f 36 40 37
f 36 47 51
f 36 51 48
f 38 52 41
f 38 39 52
f 39 40 53
f 39 53 68
f 39 68 54
f 39 54 52
f 40 50 55
f 40 55 53
f 41 56 42
f 41 52 56
f 42 56 57
f 42 57 58
f 42 58 43
f 43 59 44
f 43 58 59
f 45 60 47
f 45 47 46
f 47 60 51
f 48 61 50
f 48 50 49
f 50 62 63
f 50 63 64
f 50 64 65
f 50 65 66
f 50 66 55
f 50 61 62
f 52 54 56
f 53 55 67
f 53 67 68
f 54 68 69
f 54 69 70
f 54 70 56
f 55 66 71
f 55 71 72
f 55 72 73
f 55 73 74
f 55 74 75
f 55 75 76
f 55 76 77
f 55 77 67
f 56 70 78
f 56 78 57
f 57 78 79
f 57 79 80
f 57 80 81
f 57 81 108
f 57 108 82
f 57 82 83
f 57 83 58
f 58 83 84
f 58 84 85
f 58 85 86
f 58 86 59
f 61 87 88
f 61 88 89
f 61 89 62
f 62 89 63
f 63 89 64
f 64 90 91
f 64 91 92
f 64 92 65
f 64 89 90
f 65 92 71
f 65 71 66
f 67 77 93
f 67 93 68
f 68 93 69
f 69 93 94
f 69 94 95
f 69 95 78
f 69 78 70
f 71 92 96
f 71 96 97
f 71 97 98
f 71 98 72
f 72 98 73
f 73 98 99
f 73 99 100
f 73 100 101
f 73 101 102
f 73 102 103
f 73 103 74
f 74 103 75
f 75 103 76
f 76 103 104
f 76 104 105
f 76 105 77
f 77 105 93
f 78 95 104
f 78 104 79
f 79 104 80
f 80 104 103
f 80 103 106
f 80 106 107
f 80 107 108
f 80 108 81
f 82 109 110
f 82 110 83
f 82 108 111
f 82 111 109
f 83 112 113
f 83 113 114
f 83 114 84
f 83 110 115
f 83 115 112
f 84 114 116
f 84 116 85
f 85 116 117
f 85 117 86
f 86 117 118
f 87 119 120
f 87 120 121
f 87 121 88
f 88 121 122
f 88 122 123
f 88 123 124
f 88 124 89
f 89 124 90
f 90 124 91
f 91 125 126
f 91 126 127
f 91 127 128
f 91 128 129
f 91 129 96
f 91 96 92
f 91 124 125
f 93 105 94
f 94 105 104
f 94 104 95
f 96 129 130
f 96 130 97
f 97 130 131
f 97 131 99
f 97 99 98
f 99 131 132
f 99 132 100
f 100 132 101
f 101 132 133
f 101 133 134
f 101 134 102
f 102 134 103
f 103 134 135
f 103 135 136
f 103 136 137
f 103 137 138
f 103 138 106
f 106 139 107
f 106 138 140
f 106 140 141
f 106 141 139
f 107 142 111
f 107 111 108
f 107 139 141
f 107 141 142
f 109 143 110
f 109 111 144
f 109 144 145
f 109 145 143
f 110 143 146
f 110 146 115
f 111 142 147
f 111 147 148
f 111 148 144
f 112 149 113
f 112 115 150
f 112 150 151
f 112 151 152
f 112 152 149
f 113 149 114
f 114 153 116
f 115 146 154
f 115 154 155
f 115 155 150
f 116 153 117
f 117 153 118
f 119 156 157
f 119 157 120
f 120 157 158
f 120 158 123
f 120 123 121
f 121 123 122
f 123 158 159
f 123 159 160
f 123 160 124
f 124 160 161
f 124 161 125
f 125 161 162
f 125 162 126
f 126 162 163
f 126 163 164
f 126 164 127
f 127 164 165
f 127 165 166
f 127 166 128
f 128 166 165
f 128 165 167
f 128 167 129
f 129 167 130
f 130 167 131
f 131 167 168
f 131 168 132
f 132 168 169
f 132 169 133
f 133 169 170
f 133 170 171
f 133 171 172
f 133 172 173
f 133 173 136
f 133 136 135
f 133 135 134
f 136 173 174
f 136 174 175
f 136 175 176
f 136 176 177
f 136 177 138
f 136 138 137
f 138 177 178
f 138 178 179
f 138 179 140
f 140 180 181
f 140 181 141
f 140 179 182
f 140 182 183
f 140 183 180
f 141 181 147
f 141 147 142
f 143 145 146
f 144 148 184
f 144 184 185
f 144 185 145
f 145 185 186
f 145 186 187
f 145 187 188
f 145 188 154
f 145 154 146
f 147 181 148
f 148 181 184
f 150 155 151
f 151 155 189
f 151 189 190
f 151 190 152
f 152 190 191
f 152 191 192
f 154 188 155
f 155 188 189
f 156 193 194
f 156 194 195
f 156 195 157
f 157 195 194
f 157 194 196
f 157 196 158
f 158 196 159
f 159 197 163
f 159 163 162
f 159 162 160
f 159 196 197
f 160 162 161
f 163 197 198
f 163 198 199
f 163 199 200
f 163 200 201
f 163 201 202
f 163 202 164
f 164 202 165
f 165 203 168
f 165 168 167
f 165 202 201
f 165 201 204
f 165 204 203
f 168 203 205
f 168 205 169
f 169 205 206
f 169 206 170
f 170 206 171
f 171 206 205
f 171 205 207
f 171 207 208
f 171 208 209
f 171 209 172
f 172 209 210
f 172 210 173
f 173 210 211
f 173 211 174
f 174 211 212
f 174 212 176
f 174 176 175
f 176 213 214
f 176 214 215
f 176 215 182
f 176 182 177
f 176 212 213
f 177 182 179
f 177 179 178
f 180 216 184
f 180 184 181
f 180 183 182
f 180 182 216
f 182 215 217
f 182 217 185
f 182 185 218
f 182 218 184
f 182 184 216
f 184 218 185
f 185 217 219
f 185 219 220
f 185 220 186
f 186 221 222
f 186 222 223
f 186 223 224
f 186 224 187
f 186 220 225
f 186 225 226
f 186 226 227
f 186 227 221
f 187 224 228
f 187 228 229
f 187 229 188
f 188 229 228
f 188 228 191
f 188 191 189
f 189 191 190
f 191 228 230
f 191 230 231
f 191 231 232
f 191 232 233
f 191 233 192
f 193 234 194
f 194 235 236
f 194 236 199
f 194 199 198
f 194 198 197
f 194 197 196
f 194 234 235
f 199 236 237
f 199 237 200
f 200 237 201
f 201 237 238
f 201 238 204
f 203 239 205
f 203 204 240
f 203 240 239
f 204 238 241
f 204 241 240
f 205 239 207
f 207 239 240
f 207 240 242
f 207 242 208
f 208 242 243
f 208 243 209
f 209 244 210
f 209 243 245
f 209 245 246
f 209 246 244
f 210 244 211
f 211 244 212
f 212 244 214
f 212 214 213
f 214 247 248
f 214 248 225
f 214 225 215
f 214 244 249
f 214 249 247
f 215 225 220
f 215 220 217
f 217 220 219
f 221 227 222
f 222 227 250
f 222 250 223
f 223 251 230
f 223 230 228
f 223 228 224
f 223 250 251
f 225 252 253
f 225 253 254
f 225 254 250
f 225 250 226
f 225 248 252
f 226 250 227
f 230 251 250
f 230 250 231
f 231 255 232
f 231 250 254
f 231 254 255
f 232 255 233
f 234 256 257
f 234 257 235
f 235 257 258
f 235 258 236
f 236 258 238
f 236 238 237
f 238 258 241
f 240 241 242
f 241 258 259
f 241 259 260
f 241 260 242
f 242 260 261
f 242 261 243
f 243 261 245
f 244 246 262
f 244 262 249
f 245 261 246
f 246 264 262
f 246 261 265
f 246 265 260
f 246 260 263
f 247 249 262
f 247 262 266
f 247 266 267
f 247 267 253
f 247 253 268
f 247 268 269
f 247 269 252
f 247 252 248
f 252 269 268
f 252 268 253
f 253 270 271
f 253 271 254
f 253 267 272
f 253 272 273
f 253 273 270
f 254 271 274
f 254 274 275
f 254 275 276
f 254 276 255
f 256 277 257
f 257 278 259
f 257 259 258
f 257 277 279
f 257 279 280
f 257 280 281
f 257 281 282
f 257 282 263
f 257 263 278
f 259 278 283
f 259 283 260
f 260 265 261
f 260 283 278
f 260 278 263
f 262 264 284
f 262 284 266
f 266 284 285
f 266 285 286
f 266 286 267
f 267 286 273
f 267 273 272
f 271 287 274
f 274 287 288
f 274 288 289
f 274 289 275
f 284 290 285
f 285 290 291
f 285 291 286

