# https://github.com/mikedh/trimesh
v 0.02433491 0.01268293 -0.00046140
v 0.02351533 0.01262401 0.00035676
v 0.02433491 0.01263629 0.00035676
v 0.02515448 0.01260683 0.00035676
v 0.02515448 0.01262401 -0.00002291
v 0.02515448 0.01264365 -0.00046140
v 0.02433491 0.01257000 -0.00127957
v 0.02351533 0.01257491 -0.00127957
v 0.02351533 0.01265347 -0.00046140
v 0.02269576 0.01259701 0.00035676
v 0.02269576 0.01249881 0.00117627
v 0.02433491 0.01250863 0.00117627
v 0.02269576 0.01241534 0.00174577
v 0.02351533 0.01241534 0.00176449
v 0.02515448 0.01247917 0.00117627
v 0.02556427 0.01238342 0.00158802
v 0.02589210 0.01241534 0.00113215
v 0.02644855 0.01239324 0.00082601
v 0.02596974 0.01249635 0.00035676
v 0.02575406 0.01243252 -0.00127957
v 0.02515448 0.01251845 -0.00127957
v 0.02600425 0.01249144 -0.00002291
v 0.02603444 0.01248162 -0.00048547
v 0.02433491 0.01243007 -0.00185175
v 0.02351533 0.01245216 -0.00193330
v 0.02269576 0.01244480 -0.00193464
v 0.02269576 0.01254054 -0.00127957
v 0.02269576 0.01260683 -0.00046140
v 0.02269576 0.01260191 -0.00002291
v 0.02225578 0.01257491 -0.00002291
v 0.02187618 0.01254545 0.00035676
v 0.02187618 0.01246198 0.00117627
v 0.02187618 0.01240061 0.00166021
v 0.02433491 0.01234660 0.00217224
v 0.02515448 0.01233432 0.00208267
v 0.02269576 0.01233432 0.00215486
v 0.02351533 0.01234660 0.00217625
v 0.02589210 0.01227786 0.00191556
v 0.02611209 0.01235151 0.00137279
v 0.02675049 0.01228768 0.00113215
v 0.02688853 0.01231959 0.00035676
v 0.02647874 0.01240306 0.00035676
v 0.02557721 0.01238588 -0.00169400
v 0.02616385 0.01235396 -0.00127957
v 0.02679363 0.01211828 -0.00209774
v 0.02515448 0.01240061 -0.00175015
v 0.02659952 0.01237360 -0.00002291
v 0.02644423 0.01240061 -0.00022745
v 0.02634933 0.01237606 -0.00077423
v 0.02679363 0.01221648 -0.00127957
v 0.02515448 0.01229013 -0.00216057
v 0.02433491 0.01231714 -0.00226217
v 0.02351533 0.01233678 -0.00234238
v 0.02269576 0.01234414 -0.00234372
v 0.02187618 0.01231959 -0.00222340
v 0.02187618 0.01241043 -0.00181298
v 0.02142326 0.01238833 -0.00170871
v 0.02187618 0.01247426 -0.00127957
v 0.02187618 0.01254545 -0.00046140
v 0.02105661 0.01247180 0.00035676
v 0.02112994 0.01240797 0.00111343
v 0.02145346 0.01238588 0.00159337
v 0.02187618 0.01230486 0.00207063
v 0.02433491 0.01219439 0.00281393
v 0.02515448 0.01218702 0.00281393
v 0.02269576 0.01211583 0.00281393
v 0.02351533 0.01216002 0.00281393
v 0.02596974 0.01204463 0.00281393
v 0.02679363 0.01206182 0.00199443
v 0.02747517 0.01175249 0.00199443
v 0.02766928 0.01182123 0.00112413
v 0.02761320 0.01195380 0.00035676
v 0.02674618 0.01229995 -0.00048547
v 0.02761320 0.01194643 -0.00002291
v 0.02761320 0.01193661 -0.00046140
v 0.02761320 0.01187033 -0.00127957
v 0.02590072 0.01226804 -0.00202020
v 0.02765634 0.01175986 -0.00204025
v 0.02742341 0.01171812 -0.00291590
v 0.02679363 0.01191943 -0.00291590
v 0.02597406 0.01198817 -0.00291590
v 0.02515448 0.01203236 -0.00291590
v 0.02433491 0.01207409 -0.00291590
v 0.02351533 0.01210846 -0.00291590
v 0.02269576 0.01211092 -0.00291590
v 0.02187618 0.01207409 -0.00291590
v 0.02106092 0.01200781 -0.00291590
v 0.00714110 0.01082942 -0.00276082
v 0.00714110 0.01096199 -0.00209774
v 0.02087544 0.01236378 -0.00145470
v 0.02111269 0.01240797 -0.00122075
v 0.02106092 0.01246935 -0.00046140
v 0.02106092 0.01247180 -0.00002291
v 0.02061231 0.01238833 0.00079659
v 0.00714110 0.01111910 -0.00046140
v 0.00714110 0.01111174 0.00035676
v 0.00714110 0.01104791 0.00117627
v 0.00714110 0.01097672 0.00199443
v 0.02112994 0.01227786 0.00191689
v 0.00714110 0.01084169 0.00265084
v 0.02105661 0.01198326 0.00281393
v 0.02187618 0.01205200 0.00281393
v 0.00802969 0.01084906 0.00286073
v 0.02430040 0.01178195 0.00370964
v 0.02519330 0.01178441 0.00371098
v 0.02596974 0.01174267 0.00354119
v 0.01171778 0.01074104 0.00403049
v 0.02351533 0.01178932 0.00359601
v 0.02657795 0.01163465 0.00338211
v 0.02682814 0.01175495 0.00285270
v 0.02712577 0.01153891 0.00315083
v 0.02733714 0.01163956 0.00260405
v 0.02760889 0.01137688 0.00285270
v 0.02811358 0.01083678 0.00342890
v 0.02788927 0.01145053 0.00199443
v 0.02797986 0.01152172 0.00136209
v 0.02802730 0.01157573 0.00081531
v 0.02806613 0.01161010 0.00035676
v 0.02783751 0.01180405 -0.00002291
v 0.02809201 0.01162729 -0.00046140
v 0.02806181 0.01159783 -0.00127957
v 0.02803162 0.01157573 -0.00173010
v 0.02728969 0.01162483 -0.00341456
v 0.02796260 0.01148735 -0.00227688
v 0.03457527 0.00502583 -0.00418727
v 0.02679363 0.01167393 -0.00350012
v 0.02597406 0.01170094 -0.00357231
v 0.02515448 0.01171567 -0.00364717
v 0.02433491 0.01173285 -0.00371000
v 0.02433491 0.01155364 -0.00412042
v 0.02351533 0.01174513 -0.00371936
v 0.02351533 0.01155855 -0.00413112
v 0.02269576 0.01174267 -0.00369129
v 0.02187618 0.01173040 -0.00364049
v 0.02106092 0.01170339 -0.00357899
v 0.01041940 0.01066248 -0.00393460
v 0.00796068 0.01054955 -0.00373674
v 0.00796068 0.01072385 -0.00326483
v 0.00714110 0.01067230 -0.00316991
v 0.00665798 0.01079014 -0.00264318
v 0.00714110 0.01105282 -0.00127957
v 0.02061231 0.01238833 -0.00090792
v 0.01230873 0.01158064 -0.00098947
v 0.00658897 0.01083433 -0.00209774
v 0.00652858 0.01088097 -0.00127957
v 0.00648544 0.01091289 -0.00046140
v 0.00678739 0.01100863 -0.00002291
v 0.00648113 0.01091043 0.00035676
v 0.00651132 0.01087852 0.00117627
v 0.00655877 0.01084415 0.00199443
v 0.00663210 0.01079750 0.00252250
v 0.00714110 0.01065511 0.00305992
v 0.00780539 0.01072385 0.00316286
v 0.01123466 0.01087115 0.00356659
v 0.01041940 0.01068703 0.00388076
v 0.01123466 0.01072140 0.00397701
v 0.00878025 0.01076559 0.00327917
v 0.02455058 0.01158064 0.00406525
v 0.00878025 0.01001682 0.00497833
v 0.02549525 0.01156100 0.00403584
v 0.02494743 0.01158064 0.00406525
v 0.02596974 0.01151927 0.00395161
v 0.02682814 0.01142598 0.00364814
v 0.00878025 0.01029668 0.00445428
v 0.02742341 0.01087115 0.00420829
v 0.02766497 0.01102336 0.00367488
v 0.02796691 0.01070176 0.00397434
v 0.03459684 0.00585807 -0.00131032
v 0.02819122 0.01093989 0.00281393
v 0.02807907 0.01161747 -0.00002291
v 0.03457527 0.00583352 -0.00175550
v 0.02735008 0.01087606 -0.00431962
v 0.02693166 0.01066002 -0.00486774
v 0.02638816 0.01074595 -0.00496666
v 0.02679363 0.01139161 -0.00390920
v 0.03390667 0.00507002 -0.00513377
v 0.03379021 0.00421569 -0.00663642
v 0.03825473 -0.00093733 -0.00503484
v 0.02597406 0.01146280 -0.00398273
v 0.02515448 0.01151927 -0.00405759
v 0.02433491 0.01119766 -0.00455624
v 0.02351533 0.01119766 -0.00455624
v 0.02269576 0.01154136 -0.00410037
v 0.02187618 0.01150945 -0.00404957
v 0.00796068 0.01016412 -0.00453218
v 0.00714110 0.01041452 -0.00373674
v -0.00252987 0.00507493 -0.00748400
v -0.00306044 0.00497919 -0.00701342
v 0.00648544 0.01091289 -0.00002291
v -0.00299142 0.00490799 -0.00619525
v 0.00658465 0.01010274 0.00348906
v 0.00673994 0.00992107 0.00403584
v 0.00728345 0.01004628 0.00424706
v 0.00767598 0.00988670 0.00479251
v 0.00795205 0.01013220 0.00449305
v -0.00392746 0.00419850 -0.00656423
v -0.00382825 0.00410030 -0.00601745
v -0.00468665 0.00331471 -0.00619525
v -0.00491527 0.00276970 -0.00570729
v 0.00878025 0.01061583 0.00368825
v 0.00959983 0.01004137 0.00501042
v 0.02430040 0.01131796 0.00438476
v 0.02433491 0.01085151 0.00495962
v 0.00822380 0.00997508 0.00492753
v 0.00878025 0.00985479 0.00518287
v 0.02519330 0.01131305 0.00438476
v 0.02576269 0.01079750 0.00491416
v 0.02601288 0.01106755 0.00452246
v 0.02515448 0.01084415 0.00495560
v 0.02679363 0.01100127 0.00435669
v 0.02761320 0.01010029 0.00504250
v 0.02805750 0.00997508 0.00491283
v 0.02679363 0.01066248 0.00476711
v 0.03825473 -0.00094715 -0.00002425
v 0.03825473 -0.00093733 -0.00503217
v 0.02723792 0.01029668 -0.00503618
v 0.02737596 0.00921404 -0.00586371
v 0.02681951 0.01050781 -0.00503618
v 0.02648737 0.01063056 -0.00503618
v 0.02678932 0.00974431 -0.00565515
v 0.02597406 0.00983024 -0.00572066
v 0.02597406 0.01033596 -0.00532361
v 0.02515448 0.00987688 -0.00574873
v 0.02597406 0.01068948 -0.00503618
v 0.02597406 0.01075822 -0.00497870
v 0.03614972 -0.00057399 -0.00829414
v 0.03376432 0.00337854 -0.00742918
v 0.02738890 0.01011256 -0.00511907
v 0.03825473 -0.00277857 -0.00503484
v 0.02515448 0.01078032 -0.00499608
v 0.02433491 0.01079996 -0.00501212
v 0.02351533 0.01079505 -0.00500677
v 0.02269576 0.01114856 -0.00455624
v 0.00847399 0.00986706 -0.00503618
v 0.00840929 0.00992598 -0.00496132
v 0.00796068 0.00991125 -0.00494260
v 0.00714110 0.01008065 -0.00439181
v -0.00275849 0.00466986 -0.00755218
v -0.00325455 0.00444155 -0.00750004
v 0.00760265 0.00908883 -0.00577948
v 0.00085195 0.00585562 -0.00745191
v -0.00187421 0.00513631 -0.00752678
v -0.00380668 0.00407084 -0.00718053
v -0.00352199 0.00449801 -0.00694925
v -0.00392746 0.00419850 -0.00663374
v 0.00673994 0.00908883 0.00485133
v 0.00716698 0.00928278 0.00518287
v 0.00725325 0.00937361 0.00518287
v 0.00736109 0.00944235 0.00518287
v 0.00792185 0.00970503 0.00518287
v 0.00799518 0.00972958 0.00518287
v -0.00421216 0.00380816 -0.00625274
v -0.00501448 0.00290718 -0.00619525
v -0.00541564 0.00214368 -0.00615247
v -0.00551485 0.00132371 -0.00583697
v 0.00683053 0.00869849 0.00518287
v 0.00687798 0.00883597 0.00518287
v 0.00922886 0.00988179 0.00518287
v 0.00959983 0.00990143 0.00518287
v 0.02067702 0.01074349 0.00486069
v 0.02351533 0.01082696 0.00494090
v 0.01205423 0.01001927 0.00518287
v 0.01445257 0.01012975 0.00518287
v 0.02386042 0.01055200 0.00518287
v 0.02435216 0.01056919 0.00518287
v 0.02515448 0.01056673 0.00518287
v 0.02591798 0.01047099 0.00518287
v 0.02679363 0.01027459 0.00518287
v 0.02631051 0.01072631 0.00484464
v 0.02691010 0.01023286 0.00518287
v 0.02741047 0.01004137 0.00518287
v 0.02763046 0.00992353 0.00518287
v 0.02786770 0.00977132 0.00518287
v 0.02813514 0.00942271 0.00518287
v 0.03012369 0.00609621 0.00518287
v 0.03825473 -0.00277857 -0.00002425
v 0.02718616 0.00827869 -0.00660032
v 0.02678932 0.00933924 -0.00595194
v 0.02671167 0.01036297 -0.00519126
v 0.02597406 0.00886543 -0.00642920
v 0.02515448 0.00946690 -0.00605221
v 0.02515448 0.01033596 -0.00537040
v 0.02433491 0.00990389 -0.00576879
v 0.02515448 0.01073613 -0.00503618
v 0.03614972 -0.00079494 -0.00829414
v 0.03498074 -0.00031622 -0.00843719
v 0.03495055 0.00045956 -0.00835697
v 0.03465723 0.00103648 -0.00830484
v 0.02683245 0.00703892 -0.00732357
v 0.02686265 0.00794972 -0.00687973
v 0.03743947 -0.00490704 -0.00503484
v 0.03614972 -0.00445778 -0.00725673
v 0.03614972 -0.00406252 -0.00744924
v 0.03614972 -0.00390295 -0.00751073
v 0.03614972 -0.00359362 -0.00762704
v 0.03614972 -0.00276629 -0.00792516
v 0.03614972 -0.00194142 -0.00814842
v 0.03614972 -0.00154616 -0.00823532
v 0.03614972 -0.00148724 -0.00824334
v 0.03614972 -0.00105026 -0.00829147
v 0.02433491 0.01077541 -0.00503618
v 0.02351533 0.01076068 -0.00503618
v 0.00828851 0.00832533 -0.00663776
v 0.00878025 0.00916248 -0.00584365
v 0.00855595 0.00915266 -0.00583563
v 0.00815479 0.00984251 -0.00503618
v 0.00815047 0.00913548 -0.00581825
v 0.00795205 0.00982533 -0.00503618
v -0.00187421 0.00459866 -0.00764041
v -0.00268947 0.00377870 -0.00765378
v -0.00350905 0.00296119 -0.00765110
v -0.00352199 0.00379097 -0.00755886
v -0.00403099 0.00352584 -0.00749603
v 0.00058020 0.00546282 -0.00753212
v 0.00878025 0.00787607 -0.00686636
v 0.00960414 0.00651846 -0.00737838
v 0.00960414 0.00610848 -0.00751875
v -0.00479017 0.00262731 -0.00746662
v -0.00460469 0.00320669 -0.00701342
v -0.00414314 0.00379097 -0.00694925
v -0.00492389 0.00279671 -0.00701342
v -0.00562269 0.00187118 -0.00685700
v -0.00562269 0.00187118 -0.00639712
v -0.00567445 0.00132371 -0.00624605
v -0.00555367 0.00090391 -0.00578884
v 0.00683053 0.00857820 0.00518287
v -0.00557955 0.00035645 -0.00576344
v -0.00560112 -0.00031131 -0.00573938
v 0.03599874 -0.00843240 -0.00002425
v 0.03743947 -0.00488985 -0.00002425
v 0.00786578 0.00609621 0.00518287
v 0.03743947 -0.00490704 -0.00503083
v 0.02663834 0.00838425 -0.00667519
v 0.02597406 0.00845545 -0.00671930
v 0.02515448 0.00887525 -0.00646129
v 0.02433491 0.00949636 -0.00605889
v 0.02433491 0.01033596 -0.00540650
v 0.02351533 0.00989652 -0.00576344
v 0.02351533 0.01033596 -0.00539714
v 0.03498074 -0.00112636 -0.00838104
v 0.03416117 -0.00031622 -0.00847462
v 0.03416117 0.00050375 -0.00845991
v 0.03586071 -0.00119510 -0.00831419
v 0.03416117 0.00117151 -0.00833692
v 0.02658658 0.00675414 -0.00744523
v 0.02597406 0.00714448 -0.00733828
v 0.02597406 0.00787607 -0.00704416
v 0.03605050 -0.00843240 -0.00053226
v 0.03598149 -0.00843240 -0.00135176
v 0.03583051 -0.00853796 -0.00171405
v 0.03564072 -0.00836857 -0.00291858
v 0.03551563 -0.00822127 -0.00356295
v 0.03533446 -0.00806660 -0.00410973
v 0.03542935 -0.00731538 -0.00501345
v 0.03614972 -0.00516727 -0.00682893
v 0.03582620 -0.00527774 -0.00687706
v 0.03580032 -0.00454615 -0.00730619
v 0.03580032 -0.00413617 -0.00748132
v 0.03498074 -0.00358871 -0.00784094
v 0.03580032 -0.00358871 -0.00769522
v 0.03580032 -0.00276629 -0.00797998
v 0.03498074 -0.00276629 -0.00809762
v 0.03586071 -0.00193651 -0.00818719
v 0.03562778 -0.00165664 -0.00826339
v 0.00855595 0.00833024 -0.00664043
v -0.00105464 0.00459866 -0.00765378
v -0.00432862 0.00132371 -0.00765512
v -0.00432862 0.00209458 -0.00763239
v -0.00432862 0.00214122 -0.00762971
v -0.00431568 0.00292436 -0.00754014
v 0.01041940 0.00541617 -0.00765378
v 0.00878025 0.00833024 -0.00664310
v 0.02597406 0.00541617 -0.00771795
v -0.00497134 0.00214122 -0.00751474
v -0.00564857 0.00116905 -0.00749870
v -0.00554073 0.00171406 -0.00740378
v -0.00536387 0.00214368 -0.00708293
v -0.00541132 0.00209458 -0.00704149
v -0.00570896 0.00139491 -0.00708293
v -0.00581248 0.00050375 -0.00701342
v -0.00569170 0.00059213 -0.00611771
v -0.00569170 0.00057985 -0.00611504
v 0.00684347 0.00797181 0.00518287
v -0.00572621 -0.00031131 -0.00619525
v -0.00558818 -0.00112882 -0.00575408
v 0.03497643 -0.00907069 -0.00171405
v 0.03547680 -0.00895040 -0.00171405
v 0.03600737 -0.00843240 -0.00006302
v 0.01311968 -0.00843240 -0.00002425
v 0.00796068 -0.01239720 -0.00171405
v 0.01019078 -0.01220571 -0.00171405
v 0.01206286 -0.01200931 -0.00171405
v 0.01762303 -0.01140293 -0.00171405
v 0.02487410 -0.01056578 -0.00171405
v 0.03149540 -0.00976300 -0.00171405
v 0.03190518 -0.00968444 -0.00171405
v 0.03605050 -0.00843240 -0.00046274
v 0.00730933 0.00710029 0.00518287
v -0.00473841 -0.00317627 -0.00578750
v 0.00656309 -0.01160915 -0.00171405
v 0.00671837 -0.01180064 -0.00171405
v 0.00692111 -0.01201667 -0.00171405
v 0.00714110 -0.01218607 -0.00171405
v 0.00732659 -0.01230636 -0.00171405
v 0.00766304 -0.01236283 -0.00171405
v 0.03498074 -0.00180394 -0.00828345
v 0.03441136 -0.00231212 -0.00823665
v 0.03414823 -0.00200279 -0.00828879
v 0.03416117 -0.00112636 -0.00840510
v 0.03334591 -0.00112636 -0.00841580
v 0.03252634 -0.00112636 -0.00840911
v -0.00187421 -0.00440622 -0.00765244
v -0.00350905 -0.00276875 -0.00765378
v -0.00432862 -0.00195124 -0.00765110
v -0.00432862 -0.00112882 -0.00765378
v 0.02678932 0.00459866 -0.00785565
v 0.02678932 0.00541617 -0.00771260
v 0.03565366 -0.00876382 -0.00171405
v 0.03544661 -0.00893812 -0.00181967
v 0.03524818 -0.00887675 -0.00236645
v 0.03501957 -0.00843485 -0.00358701
v 0.03502388 -0.00833665 -0.00379690
v 0.03478663 -0.00816480 -0.00426748
v 0.03502388 -0.00787020 -0.00454689
v 0.03498937 -0.00750196 -0.00503484
v 0.03498074 -0.00742585 -0.00513645
v 0.03547249 -0.00655188 -0.00589980
v 0.03557601 -0.00573928 -0.00666984
v 0.03498074 -0.00522373 -0.00710031
v 0.03498074 -0.00471064 -0.00737838
v 0.03498074 -0.00430066 -0.00755084
v 0.03450194 -0.00479902 -0.00741581
v 0.03416117 -0.00358871 -0.00793720
v 0.03498074 -0.00221392 -0.00821660
v 0.03414823 -0.00269755 -0.00817917
v -0.00514820 0.00050375 -0.00762704
v -0.00522153 0.00139491 -0.00756153
v -0.00565720 0.00059213 -0.00750940
v -0.00565720 0.00050375 -0.00751073
v -0.00559681 -0.00007072 -0.00746528
v -0.00568308 -0.00033095 -0.00704817
v -0.00561837 -0.00094960 -0.00679818
v -0.00561837 -0.00118528 -0.00613509
v -0.00555798 -0.00154125 -0.00578349
v 0.03497643 -0.00899459 -0.00209640
v 0.03146089 -0.00976054 -0.00178491
v 0.03416117 -0.00915907 -0.00210041
v 0.00959983 -0.01222780 -0.00193597
v 0.01015627 -0.01220325 -0.00177956
v 0.00749481 -0.01222535 -0.00266056
v 0.00796068 -0.01233828 -0.00210041
v 0.00859045 -0.01220816 -0.00262847
v 0.01206286 -0.01197003 -0.00210041
v 0.01758852 -0.01140047 -0.00178357
v 0.02484391 -0.01056332 -0.00175149
v -0.00479449 -0.00328429 -0.00633429
v -0.00455724 -0.00356907 -0.00611504
v -0.00401805 -0.00408462 -0.00571665
v -0.00410432 -0.00414599 -0.00619525
v -0.00313377 -0.00484075 -0.00639311
v -0.00313377 -0.00484075 -0.00674872
v 0.00739129 -0.01227690 -0.00210041
v 0.03386354 -0.00237840 -0.00824601
v 0.03334591 -0.00194633 -0.00831954
v 0.03252634 -0.00194633 -0.00832623
v 0.00959983 -0.00849868 -0.00733159
v -0.00187421 -0.00510098 -0.00753881
v -0.00350905 -0.00358871 -0.00763239
v -0.00432862 -0.00276875 -0.00761635
v 0.03470468 -0.00894058 -0.00258970
v 0.03497643 -0.00876382 -0.00288649
v 0.03416117 -0.00858952 -0.00373674
v 0.03469174 -0.00843485 -0.00377417
v 0.03416117 -0.00824582 -0.00438512
v 0.03416117 -0.00796840 -0.00479554
v 0.03498074 -0.00707724 -0.00554687
v 0.03416117 -0.00776710 -0.00503484
v 0.03416117 -0.00755842 -0.00528083
v 0.03498074 -0.00666481 -0.00601210
v 0.03498074 -0.00624500 -0.00642118
v 0.03498074 -0.00583257 -0.00673535
v 0.03420431 -0.00516481 -0.00723935
v 0.03395843 -0.00485057 -0.00744122
v 0.03420431 -0.00447742 -0.00757624
v 0.03334591 -0.00440377 -0.00766046
v 0.00959983 -0.00932356 -0.00708293
v 0.03334591 -0.00358871 -0.00796393
v 0.03334591 -0.00280557 -0.00817115
v -0.00489801 -0.00195124 -0.00753613
v -0.00482468 -0.00276875 -0.00750138
v -0.00476860 -0.00324010 -0.00745592
v -0.00554936 -0.00149706 -0.00636904
v -0.00555798 -0.00154125 -0.00582226
v -0.00480311 -0.00330393 -0.00701342
v 0.03170245 -0.00937757 -0.00291858
v 0.03172402 -0.00962797 -0.00207501
v 0.03416117 -0.00899459 -0.00274344
v 0.02678932 -0.01026382 -0.00210041
v 0.03088719 -0.00979982 -0.00193196
v 0.03008918 -0.00964025 -0.00288649
v 0.03088719 -0.00951259 -0.00291858
v 0.00959983 -0.01216397 -0.00234639
v 0.01124329 -0.01205595 -0.00210041
v -0.00274124 -0.00501751 -0.00701876
v -0.00305181 -0.00476465 -0.00729550
v 0.00738697 -0.01149622 -0.00439181
v 0.00760265 -0.01135383 -0.00493859
v 0.00796068 -0.01194793 -0.00373674
v 0.00796068 -0.01214433 -0.00312044
v 0.00796068 -0.01223026 -0.00271136
v 0.00882770 -0.01214188 -0.00290788
v 0.00959983 -0.01206577 -0.00291858
v 0.01041940 -0.01197740 -0.00291858
v 0.01124329 -0.01188411 -0.00291858
v 0.02382591 -0.01054123 -0.00245468
v -0.00450548 -0.00371391 -0.00701342
v -0.00409569 -0.00412390 -0.00701342
v 0.03334591 -0.00239804 -0.00825002
v -0.00250399 -0.00494386 -0.00750004
v -0.00274124 -0.00446023 -0.00756153
v 0.00878025 -0.00932356 -0.00700406
v 0.00878025 -0.00995940 -0.00672866
v -0.00079151 -0.00564353 -0.00743453
v -0.00133933 -0.00561162 -0.00735165
v -0.00350905 -0.00420737 -0.00751742
v -0.00400511 -0.00405270 -0.00747196
v -0.00429843 -0.00354452 -0.00751742
v 0.03367805 -0.00889884 -0.00328622
v 0.03416117 -0.00884729 -0.00315386
v 0.03313455 -0.00895285 -0.00341322
v 0.03252634 -0.00881537 -0.00395465
v 0.03190518 -0.00887429 -0.00407764
v 0.03136168 -0.00892339 -0.00416187
v 0.03334160 -0.00804205 -0.00489848
v 0.03309141 -0.00797331 -0.00503484
v 0.03334160 -0.00757561 -0.00543858
v 0.03306553 -0.00730065 -0.00581424
v 0.03361335 -0.00724173 -0.00575275
v 0.03416117 -0.00718281 -0.00568991
v 0.03416117 -0.00677283 -0.00609632
v 0.03416117 -0.00631865 -0.00650540
v 0.03416117 -0.00590867 -0.00678882
v 0.00959983 -0.00994712 -0.00674471
v -0.00500585 -0.00276875 -0.00701342
v 0.03252634 -0.00900932 -0.00354423
v 0.03252634 -0.00923272 -0.00291858
v 0.02678932 -0.01006005 -0.00291858
v 0.02760458 -0.00995694 -0.00291858
v 0.02870453 -0.00971390 -0.00326750
v 0.03088719 -0.00920326 -0.00373674
v 0.00813322 -0.01072781 -0.00599606
v 0.00815047 -0.01142257 -0.00506960
v 0.00791323 -0.01157478 -0.00462175
v 0.00878025 -0.01163861 -0.00455491
v 0.00878025 -0.01194303 -0.00373674
v 0.02328240 -0.01057069 -0.00258436
v 0.00878025 -0.01037183 -0.00648535
v 0.03165931 -0.00905596 -0.00377818
v 0.03006330 -0.00932356 -0.00373674
v 0.03088719 -0.00896267 -0.00421267
v 0.03286279 -0.00808133 -0.00495062
v 0.03279378 -0.00802487 -0.00503484
v 0.03170676 -0.00783829 -0.00548403
v 0.03256516 -0.00782356 -0.00531960
v 0.03252634 -0.00735466 -0.00586504
v 0.03170676 -0.00742831 -0.00592654
v 0.03334591 -0.00638248 -0.00655487
v 0.00959983 -0.01035465 -0.00640380
v 0.02207461 -0.01052404 -0.00323942
v 0.02816534 -0.00975072 -0.00337044
v 0.00878025 -0.01077936 -0.00607627
v 0.00878025 -0.01118689 -0.00547468
v 0.00878025 -0.01142011 -0.00506559
v 0.00900456 -0.01140784 -0.00503484
v 0.02152679 -0.01055596 -0.00333969
v 0.03088719 -0.00843485 -0.00489848
v 0.03170245 -0.00820654 -0.00503484
v 0.03206910 -0.00814516 -0.00503618
v 0.03088719 -0.00823354 -0.00515249
v 0.03088719 -0.00789230 -0.00556157
f 1 2 3
f 1 3 4
f 1 4 5
f 1 5 6
f 1 6 7
f 1 7 8
f 1 8 9
f 1 9 10
f 1 10 2
f 2 10 11
f 2 11 3
f 3 12 15
f 3 15 4
f 3 11 13
f 3 13 14
f 3 14 12
f 4 15 16
f 4 16 17
f 4 17 18
f 4 18 19
f 4 19 5
f 5 19 6
f 6 20 21
f 6 21 7
f 6 19 22
f 6 22 23
f 6 23 20
f 7 24 25
f 7 25 8
f 7 21 24
f 8 25 26
f 8 26 27
f 8 27 9
f 9 27 28
f 9 28 29
f 9 29 10
f 10 29 30
f 10 30 31
f 10 31 32
f 10 32 11
f 11 32 33
f 11 33 13
f 12 34 35
f 12 35 15
f 12 14 34
f 13 33 36
f 13 36 37
f 13 37 14
f 14 37 34
f 15 35 16
f 16 38 39
f 16 39 17
f 16 35 38
f 17 39 18
f 18 40 41
f 18 41 42
f 18 42 19
f 18 39 40
f 19 42 22
f 20 43 21
f 20 23 44
f 20 44 45
f 20 45 43
f 21 46 24
f 21 43 46
f 22 42 23
f 23 42 47
f 23 47 48
f 23 48 49
f 23 49 50
f 23 50 45
f 23 45 44
f 24 46 51
f 24 51 52
f 24 52 25
f 25 53 54
f 25 54 26
f 25 52 53
f 26 54 55
f 26 55 56
f 26 56 27
f 27 56 57
f 27 57 58
f 27 58 59
f 27 59 28
f 28 59 30
f 28 30 29
f 30 59 31
f 31 59 60
f 31 60 61
f 31 61 62
f 31 62 32
f 32 62 33
f 33 62 63
f 33 63 36
f 34 64 65
f 34 65 35
f 34 37 64
f 35 65 38
f 36 66 67
f 36 67 64
f 36 64 37
f 36 63 66
f 38 65 68
f 38 68 40
f 38 40 39
f 40 68 69
f 40 69 70
f 40 70 71
f 40 71 72
f 40 72 41
f 41 50 73
f 41 73 47
f 41 47 42
f 41 72 74
f 41 74 75
f 41 75 76
f 41 76 50
f 43 45 77
f 43 77 51
f 43 51 46
f 45 50 76
f 45 76 78
f 45 78 79
f 45 79 80
f 45 80 77
f 47 73 48
f 48 73 49
f 49 73 50
f 51 77 80
f 51 80 81
f 51 81 52
f 52 81 53
f 53 81 82
f 53 82 83
f 53 83 84
f 53 84 54
f 54 84 85
f 54 85 86
f 54 86 87
f 54 87 55
f 55 87 88
f 55 88 56
f 56 88 89
f 56 89 57
f 57 90 58
f 57 89 90
f 58 90 91
f 58 91 92
f 58 92 59
f 59 92 93
f 59 93 60
f 60 94 61
f 60 93 95
f 60 95 96
f 60 96 97
f 60 97 98
f 60 98 94
f 61 94 98
f 61 98 62
f 62 99 63
f 62 98 100
f 62 100 99
f 63 101 102
f 63 102 66
f 63 99 100
f 63 100 103
f 63 103 101
f 64 104 105
f 64 105 65
f 64 67 104
f 65 105 106
f 65 106 68
f 66 102 107
f 66 107 108
f 66 108 104
f 66 104 67
f 68 106 109
f 68 109 110
f 68 110 69
f 69 110 111
f 69 111 112
f 69 112 70
f 70 113 114
f 70 114 115
f 70 115 71
f 70 112 113
f 71 115 116
f 71 116 117
f 71 117 118
f 71 118 72
f 72 118 119
f 72 119 74
f 74 119 75
f 75 119 120
f 75 120 121
f 75 121 76
f 76 121 122
f 76 122 78
f 78 122 79
f 79 123 80
f 79 122 124
f 79 124 125
f 79 125 123
f 80 123 126
f 80 126 81
f 81 127 128
f 81 128 129
f 81 129 82
f 81 126 127
f 82 129 83
f 83 129 84
f 84 129 130
f 84 130 131
f 84 131 85
f 85 131 132
f 85 132 133
f 85 133 134
f 85 134 86
f 86 134 135
f 86 135 87
f 87 135 136
f 87 136 137
f 87 137 138
f 87 138 88
f 88 138 137
f 88 137 139
f 88 139 140
f 88 140 89
f 89 140 141
f 89 141 90
f 90 142 91
f 90 141 143
f 90 143 142
f 91 142 92
f 92 142 143
f 92 143 95
f 92 95 93
f 95 141 144
f 95 144 145
f 95 145 146
f 95 146 147
f 95 147 96
f 95 143 141
f 96 147 148
f 96 148 149
f 96 149 150
f 96 150 97
f 97 150 98
f 98 150 151
f 98 151 100
f 100 152 153
f 100 153 103
f 100 151 152
f 101 154 155
f 101 155 156
f 101 156 102
f 101 103 153
f 101 153 157
f 101 157 154
f 102 156 107
f 104 158 105
f 104 108 107
f 104 107 159
f 104 159 158
f 105 160 106
f 105 158 161
f 105 161 160
f 106 160 162
f 106 162 163
f 106 163 109
f 107 156 164
f 107 164 159
f 109 163 111
f 109 111 110
f 111 163 165
f 111 165 166
f 111 166 112
f 112 166 113
f 113 166 114
f 114 166 167
f 114 167 168
f 114 168 169
f 114 169 115
f 115 169 168
f 115 168 116
f 116 168 117
f 117 168 118
f 118 170 119
f 118 168 170
f 119 170 120
f 120 170 168
f 120 168 121
f 121 168 171
f 121 171 122
f 122 171 124
f 123 172 173
f 123 173 174
f 123 174 175
f 123 175 126
f 123 125 176
f 123 176 177
f 123 177 172
f 124 171 125
f 125 171 178
f 125 178 177
f 125 177 176
f 126 175 174
f 126 174 179
f 126 179 180
f 126 180 130
f 126 130 127
f 127 130 128
f 128 130 129
f 130 180 174
f 130 174 181
f 130 181 132
f 130 132 131
f 132 181 182
f 132 182 183
f 132 183 133
f 133 183 134
f 134 183 184
f 134 184 135
f 135 184 185
f 135 185 136
f 136 185 137
f 137 185 186
f 137 186 139
f 139 186 140
f 140 144 141
f 140 186 187
f 140 187 188
f 140 188 144
f 144 188 145
f 145 188 146
f 146 148 189
f 146 189 147
f 146 188 148
f 147 189 148
f 148 188 149
f 149 188 150
f 150 188 190
f 150 190 151
f 151 191 192
f 151 192 193
f 151 193 194
f 151 194 195
f 151 195 152
f 151 190 196
f 151 196 197
f 151 197 198
f 151 198 199
f 151 199 191
f 152 195 164
f 152 164 153
f 153 164 200
f 153 200 157
f 154 157 155
f 155 157 200
f 155 200 164
f 155 164 156
f 158 159 201
f 158 201 202
f 158 202 203
f 158 203 161
f 159 164 204
f 159 204 205
f 159 205 201
f 160 161 206
f 160 206 207
f 160 207 208
f 160 208 162
f 161 203 209
f 161 209 206
f 162 208 210
f 162 210 163
f 163 210 165
f 164 195 204
f 165 211 212
f 165 212 167
f 165 167 166
f 165 210 213
f 165 213 211
f 167 212 168
f 168 212 214
f 168 214 215
f 168 215 178
f 168 178 171
f 172 216 173
f 172 177 216
f 173 216 217
f 173 217 218
f 173 218 219
f 173 219 174
f 174 219 220
f 174 220 221
f 174 221 222
f 174 222 223
f 174 223 224
f 174 224 225
f 174 225 181
f 174 180 179
f 177 178 226
f 177 226 227
f 177 227 228
f 177 228 216
f 178 215 214
f 178 214 276
f 178 276 229
f 178 229 285
f 178 285 226
f 181 225 230
f 181 230 231
f 181 231 182
f 182 231 232
f 182 232 233
f 182 233 183
f 183 233 234
f 183 234 235
f 183 235 236
f 183 236 185
f 183 185 184
f 185 236 237
f 185 237 186
f 186 237 187
f 187 238 239
f 187 239 188
f 187 237 236
f 187 236 240
f 187 240 241
f 187 241 242
f 187 242 238
f 188 239 243
f 188 243 244
f 188 244 245
f 188 245 196
f 188 196 190
f 191 199 192
f 192 199 246
f 192 246 247
f 192 247 248
f 192 248 249
f 192 249 194
f 192 194 193
f 194 249 250
f 194 250 251
f 194 251 204
f 194 204 195
f 196 245 198
f 196 198 252
f 196 252 197
f 197 252 198
f 198 253 199
f 198 245 253
f 199 253 254
f 199 254 255
f 199 255 256
f 199 256 257
f 199 257 246
f 201 205 258
f 201 258 259
f 201 259 260
f 201 260 202
f 202 260 261
f 202 261 203
f 203 261 259
f 203 259 262
f 203 262 263
f 203 263 264
f 203 264 265
f 203 265 266
f 203 266 209
f 204 251 205
f 205 251 250
f 205 250 249
f 205 249 248
f 205 248 247
f 205 247 257
f 205 257 256
f 205 256 326
f 205 326 383
f 205 383 398
f 205 398 331
f 205 331 275
f 205 275 274
f 205 274 273
f 205 273 272
f 205 272 271
f 205 271 270
f 205 270 268
f 205 268 267
f 205 267 266
f 205 266 265
f 205 265 264
f 205 264 263
f 205 263 262
f 205 262 259
f 205 259 258
f 206 209 207
f 207 209 267
f 207 267 268
f 207 268 269
f 207 269 208
f 208 269 210
f 209 266 267
f 210 269 213
f 211 213 270
f 211 270 271
f 211 271 272
f 211 272 212
f 212 272 273
f 212 273 274
f 212 274 275
f 212 275 214
f 213 269 268
f 213 268 270
f 214 275 276
f 216 228 217
f 217 277 278
f 217 278 220
f 217 220 279
f 217 279 218
f 217 228 227
f 217 227 277
f 218 279 219
f 219 279 220
f 220 278 280
f 220 280 221
f 221 280 281
f 221 281 223
f 221 223 222
f 223 282 224
f 223 281 283
f 223 283 282
f 224 282 284
f 224 284 225
f 225 284 230
f 226 285 286
f 226 286 287
f 226 287 288
f 226 288 227
f 227 288 289
f 227 289 290
f 227 290 277
f 229 276 332
f 229 332 291
f 229 291 292
f 229 292 293
f 229 293 294
f 229 294 295
f 229 295 296
f 229 296 297
f 229 297 298
f 229 298 299
f 229 299 300
f 229 300 285
f 230 284 301
f 230 301 231
f 231 301 232
f 232 301 302
f 232 302 303
f 232 303 304
f 232 304 234
f 232 234 233
f 234 304 305
f 234 305 306
f 234 306 236
f 234 236 235
f 236 306 307
f 236 307 308
f 236 308 240
f 238 242 309
f 238 309 310
f 238 310 311
f 238 311 312
f 238 312 239
f 239 312 313
f 239 313 243
f 240 308 307
f 240 307 303
f 240 303 241
f 241 314 242
f 241 303 315
f 241 315 316
f 241 316 317
f 241 317 314
f 242 314 309
f 243 313 318
f 243 318 319
f 243 319 320
f 243 320 245
f 243 245 244
f 245 320 319
f 245 319 321
f 245 321 253
f 246 257 247
f 253 321 322
f 253 322 323
f 253 323 254
f 254 323 255
f 255 323 324
f 255 324 325
f 255 325 256
f 256 325 327
f 256 327 328
f 256 328 326
f 259 261 260
f 275 329 330
f 275 330 276
f 275 331 389
f 275 389 329
f 276 330 332
f 277 290 333
f 277 333 278
f 278 333 280
f 280 334 281
f 280 333 334
f 281 334 335
f 281 335 336
f 281 336 283
f 282 283 284
f 283 337 284
f 283 336 338
f 283 338 339
f 283 339 337
f 284 337 301
f 285 300 286
f 286 340 341
f 286 341 342
f 286 342 287
f 286 300 343
f 286 343 340
f 287 342 288
f 288 342 344
f 288 344 289
f 289 345 346
f 289 346 347
f 289 347 290
f 289 344 345
f 290 347 333
f 291 332 397
f 291 397 348
f 291 348 349
f 291 349 350
f 291 350 351
f 291 351 352
f 291 352 353
f 291 353 354
f 291 354 355
f 291 355 292
f 292 355 356
f 292 356 357
f 292 357 293
f 293 357 358
f 293 358 359
f 293 359 360
f 293 360 294
f 294 360 295
f 295 360 296
f 296 360 359
f 296 359 361
f 296 361 297
f 297 361 362
f 297 362 363
f 297 363 298
f 298 363 364
f 298 364 343
f 298 343 299
f 299 343 300
f 301 337 339
f 301 339 302
f 302 339 303
f 303 307 305
f 303 305 304
f 303 339 338
f 303 338 365
f 303 365 315
f 305 307 306
f 309 314 366
f 309 366 342
f 309 342 310
f 310 342 341
f 310 341 311
f 311 341 367
f 311 367 368
f 311 368 369
f 311 369 312
f 312 369 370
f 312 370 313
f 313 370 318
f 314 317 371
f 314 371 366
f 315 365 372
f 315 372 347
f 315 347 346
f 315 346 316
f 316 346 317
f 317 346 345
f 317 345 373
f 317 373 371
f 318 374 375
f 318 375 376
f 318 376 319
f 318 370 374
f 319 376 321
f 321 377 378
f 321 378 322
f 321 376 377
f 322 379 323
f 322 378 376
f 322 376 379
f 323 379 380
f 323 380 324
f 324 380 381
f 324 381 325
f 325 381 382
f 325 382 327
f 326 328 383
f 327 382 328
f 328 382 384
f 328 384 385
f 328 385 383
f 329 386 387
f 329 387 388
f 329 388 330
f 329 389 390
f 329 390 391
f 329 391 392
f 329 392 393
f 329 393 394
f 329 394 395
f 329 395 396
f 329 396 386
f 330 397 332
f 330 388 397
f 331 398 399
f 331 399 400
f 331 400 401
f 331 401 402
f 331 402 403
f 331 403 404
f 331 404 405
f 331 405 390
f 331 390 389
f 333 347 334
f 334 347 372
f 334 372 335
f 335 372 336
f 336 372 365
f 336 365 338
f 340 406 407
f 340 407 408
f 340 408 409
f 340 409 341
f 340 343 364
f 340 364 406
f 341 409 410
f 341 410 411
f 341 411 412
f 341 412 413
f 341 413 414
f 341 414 415
f 341 415 367
f 342 416 417
f 342 417 344
f 342 366 371
f 342 371 416
f 344 417 345
f 345 417 373
f 348 397 387
f 348 387 418
f 348 418 349
f 349 418 350
f 350 418 351
f 351 418 387
f 351 387 419
f 351 419 352
f 352 419 420
f 352 420 353
f 353 420 421
f 353 421 422
f 353 422 423
f 353 423 424
f 353 424 354
f 354 424 425
f 354 425 426
f 354 426 427
f 354 427 355
f 355 427 428
f 355 428 356
f 356 428 357
f 357 428 429
f 357 429 430
f 357 430 358
f 358 430 431
f 358 431 359
f 359 431 432
f 359 432 433
f 359 433 362
f 359 362 361
f 362 434 363
f 362 433 435
f 362 435 434
f 363 434 364
f 364 434 406
f 367 415 436
f 367 436 368
f 368 436 369
f 369 436 437
f 369 437 370
f 370 437 374
f 371 373 416
f 373 417 416
f 374 437 375
f 375 438 380
f 375 380 379
f 375 379 376
f 375 437 436
f 375 436 438
f 376 378 377
f 380 384 382
f 380 382 381
f 380 438 439
f 380 439 440
f 380 440 441
f 380 441 442
f 380 442 443
f 380 443 384
f 383 385 444
f 383 444 399
f 383 399 398
f 384 443 444
f 384 444 385
f 386 445 420
f 386 420 419
f 386 419 387
f 386 396 446
f 386 446 447
f 386 447 445
f 387 397 388
f 390 448 449
f 390 449 391
f 390 405 450
f 390 450 451
f 390 451 452
f 390 452 448
f 391 449 392
f 392 449 453
f 392 453 454
f 392 454 393
f 393 454 394
f 394 455 446
f 394 446 395
f 394 454 455
f 395 446 396
f 399 444 456
f 399 456 457
f 399 457 458
f 399 458 400
f 400 458 401
f 401 458 402
f 402 458 459
f 402 459 403
f 403 459 460
f 403 460 461
f 403 461 404
f 404 462 405
f 404 461 462
f 405 462 450
f 406 434 407
f 407 434 435
f 407 435 463
f 407 463 408
f 408 463 464
f 408 464 409
f 409 464 410
f 410 464 465
f 410 465 411
f 411 465 412
f 412 466 467
f 412 467 468
f 412 468 413
f 412 465 466
f 413 468 414
f 414 468 469
f 414 469 436
f 414 436 415
f 420 445 470
f 420 470 471
f 420 471 421
f 421 471 472
f 421 472 473
f 421 473 422
f 422 473 423
f 423 473 472
f 423 472 474
f 423 474 475
f 423 475 424
f 424 475 426
f 424 426 425
f 426 476 427
f 426 475 477
f 426 477 478
f 426 478 476
f 427 476 479
f 427 479 428
f 428 479 480
f 428 480 481
f 428 481 429
f 429 481 482
f 429 482 432
f 429 432 430
f 430 432 431
f 432 482 483
f 432 483 484
f 432 484 433
f 433 484 485
f 433 485 486
f 433 486 466
f 433 466 487
f 433 487 435
f 435 487 466
f 435 466 488
f 435 488 463
f 436 489 439
f 436 439 438
f 436 469 489
f 439 489 490
f 439 490 440
f 440 442 441
f 440 490 491
f 440 491 442
f 442 491 492
f 442 492 443
f 443 492 493
f 443 493 444
f 444 493 494
f 444 494 456
f 445 447 470
f 446 495 496
f 446 496 497
f 446 497 470
f 446 470 447
f 446 455 498
f 446 498 499
f 446 499 500
f 446 500 501
f 446 501 495
f 448 452 502
f 448 502 449
f 449 503 453
f 449 502 503
f 450 462 461
f 450 461 504
f 450 504 505
f 450 505 506
f 450 506 507
f 450 507 508
f 450 508 509
f 450 509 510
f 450 510 451
f 451 510 452
f 452 511 502
f 452 510 511
f 453 503 512
f 453 512 513
f 453 513 514
f 453 514 515
f 453 515 454
f 454 515 455
f 455 515 498
f 456 494 516
f 456 516 457
f 457 516 459
f 457 459 458
f 459 516 517
f 459 517 461
f 459 461 460
f 461 505 504
f 461 517 505
f 463 488 518
f 463 518 464
f 464 518 465
f 465 518 466
f 466 486 467
f 466 518 488
f 467 519 520
f 467 520 468
f 467 486 521
f 467 521 522
f 467 522 523
f 467 523 524
f 467 524 519
f 468 525 526
f 468 526 527
f 468 527 469
f 468 520 519
f 468 519 525
f 469 527 491
f 469 491 490
f 469 490 489
f 470 497 528
f 470 528 529
f 470 529 471
f 471 529 472
f 472 529 528
f 472 528 530
f 472 530 531
f 472 531 474
f 474 531 532
f 474 532 533
f 474 533 475
f 475 533 534
f 475 534 477
f 476 478 479
f 477 534 478
f 478 534 535
f 478 535 536
f 478 536 537
f 478 537 538
f 478 538 539
f 478 539 479
f 479 539 540
f 479 540 480
f 480 540 541
f 480 541 481
f 481 541 542
f 481 542 482
f 482 542 543
f 482 543 483
f 483 485 484
f 483 543 486
f 483 486 485
f 486 543 522
f 486 522 521
f 491 494 544
f 491 544 492
f 491 527 526
f 491 526 516
f 491 516 494
f 492 544 494
f 492 494 493
f 495 501 545
f 495 545 530
f 495 530 546
f 495 546 496
f 496 546 497
f 497 546 528
f 498 515 547
f 498 547 499
f 499 547 548
f 499 548 500
f 500 548 549
f 500 549 501
f 501 549 550
f 501 550 545
f 502 511 503
f 503 511 512
f 505 517 526
f 505 526 519
f 505 519 524
f 505 524 507
f 505 507 506
f 507 551 552
f 507 552 553
f 507 553 508
f 507 524 551
f 508 552 554
f 508 554 555
f 508 555 509
f 508 553 552
f 509 555 511
f 509 511 510
f 511 555 512
f 512 555 513
f 513 555 514
f 514 556 515
f 514 555 556
f 515 556 547
f 516 526 517
f 519 526 525
f 522 543 557
f 522 557 524
f 522 524 523
f 524 557 551
f 528 546 530
f 530 545 531
f 531 545 532
f 532 558 550
f 532 550 533
f 532 545 558
f 533 550 559
f 533 559 560
f 533 560 561
f 533 561 534
f 534 561 562
f 534 562 535
f 535 562 563
f 535 563 564
f 535 564 537
f 535 537 536
f 537 564 563
f 537 563 565
f 537 565 540
f 537 540 538
f 538 540 539
f 540 565 541
f 541 565 566
f 541 566 543
f 541 543 567
f 541 567 542
f 542 567 543
f 543 568 557
f 543 566 568
f 545 550 558
f 547 556 569
f 547 569 570
f 547 570 549
f 547 549 548
f 549 570 550
f 550 570 559
f 551 557 571
f 551 571 552
f 552 571 572
f 552 572 573
f 552 573 554
f 554 573 574
f 554 574 570
f 554 570 555
f 555 570 575
f 555 575 569
f 555 569 556
f 557 568 571
f 559 570 574
f 559 574 560
f 560 576 577
f 560 577 561
f 560 574 572
f 560 572 571
f 560 571 576
f 561 578 562
f 561 577 578
f 562 578 563
f 563 577 579
f 563 579 571
f 563 571 580
f 563 580 566
f 563 566 565
f 563 578 577
f 566 580 568
f 568 580 571
f 569 575 570
f 571 579 577
f 571 577 576
f 572 574 573

