# https://github.com/mikedh/trimesh
v -0.00123011 0.00406062 -0.00848508
v -0.00123011 0.00325103 -0.00847521
v -0.00203866 0.00244269 -0.00843077
v -0.00203866 0.00325103 -0.00843900
v -0.00212039 0.00414133 -0.00833860
v -0.00190147 0.00458089 -0.00826783
v -0.00123011 0.00467278 -0.00832543
v -0.00042156 0.00470382 -0.00831062
v -0.00042156 0.00406062 -0.00844887
v 0.00746251 -0.00705879 -0.00799132
v -0.00123011 0.00244269 -0.00845875
v -0.00203866 0.00163310 -0.00840114
v -0.00285012 0.00082227 -0.00827441
v -0.00285012 0.00163310 -0.00829416
v -0.00285012 0.00244269 -0.00830404
v -0.00285012 0.00325103 -0.00830074
v -0.00326461 0.00366948 -0.00817401
v -0.00285012 0.00386567 -0.00822997
v -0.00123011 0.00491863 -0.00775925
v -0.00244439 0.00446293 -0.00815591
v -0.00042156 0.00501673 -0.00775925
v 0.00038991 0.00492112 -0.00775925
v 0.00038991 0.00460572 -0.00823820
v 0.01465771 -0.00705879 -0.00736588
v 0.01403597 -0.00705879 -0.00745805
v 0.01311942 -0.00705879 -0.00758972
v 0.01230796 -0.00705879 -0.00767366
v 0.01149941 -0.00705879 -0.00774937
v 0.01068794 -0.00705879 -0.00780862
v 0.02224696 -0.00758776 -0.00028200
v -0.00226049 -0.00727485 -0.00528878
v 0.00665688 -0.00705879 -0.00801272
v -0.00123011 0.00163310 -0.00841596
v 0.00147284 -0.00365405 -0.00816743
v 0.00093575 -0.00355596 -0.00816084
v -0.00231012 -0.00196410 -0.00816084
v -0.00257574 -0.00142396 -0.00818060
v -0.00273628 -0.00079442 -0.00820528
v -0.00291726 0.00001020 -0.00822833
v -0.00329380 0.00001144 -0.00817237
v -0.00331715 0.00018652 -0.00817566
v -0.00335802 0.00082227 -0.00818553
v -0.00337553 0.00163310 -0.00819376
v -0.00336969 0.00244269 -0.00819541
v -0.00331423 0.00325103 -0.00818553
v -0.00334050 0.00373654 -0.00775925
v -0.00447014 0.00082227 -0.00783661
v -0.00451392 0.00161571 -0.00766379
v -0.00490798 0.00133509 -0.00742020
v -0.00426873 0.00244269 -0.00761606
v -0.00412570 0.00292943 -0.00748439
v -0.00212039 0.00462187 -0.00783661
v -0.00123011 0.00495588 -0.00694947
v -0.00042156 0.00509371 -0.00694947
v -0.00341056 0.00379862 -0.00694947
v -0.00246774 0.00447907 -0.00761606
v 0.00038991 0.00509620 -0.00694947
v 0.00119846 0.00495961 -0.00694947
v 0.00182311 0.00459703 -0.00751566
v 0.00113716 0.00468147 -0.00777571
v 0.00082775 0.00449646 -0.00817730
v 0.01452927 -0.00688123 -0.00734942
v 0.01495544 -0.00705879 -0.00726219
v 0.01630107 -0.00705879 -0.00674045
v 0.01688194 -0.00705879 -0.00650509
v 0.01701038 -0.00705879 -0.00644748
v 0.01724973 -0.00705879 -0.00633227
v 0.01791233 -0.00705879 -0.00599651
v 0.01803493 -0.00705879 -0.00592573
v 0.01848153 -0.00705879 -0.00560808
v 0.01984467 -0.00705879 -0.00452344
v 0.02027960 -0.00705879 -0.00407247
v 0.02048684 -0.00705879 -0.00368733
v 0.01146146 0.00218317 -0.00430619
v 0.01156071 0.00229120 -0.00371202
v 0.01135638 0.00288225 -0.00188180
v 0.01141184 0.00293316 -0.00128105
v 0.01147314 0.00298034 -0.00047128
v 0.01188471 0.00260907 0.00033356
v 0.01226709 0.00222787 0.00114169
v 0.02213604 -0.00758776 0.00033356
v -0.00157746 -0.00758776 -0.00028200
v -0.00226049 -0.00720904 -0.00553237
v -0.00102578 -0.00705879 -0.00664005
v -0.00095573 -0.00705879 -0.00666967
v -0.00038945 -0.00705879 -0.00690668
v 0.00028191 -0.00705879 -0.00717990
v 0.00077229 -0.00705879 -0.00736259
v 0.00114008 -0.00705879 -0.00744653
v 0.00118094 -0.00705879 -0.00745476
v 0.00175597 -0.00705879 -0.00754693
v 0.00261122 -0.00705879 -0.00766708
v 0.00503979 -0.00705879 -0.00791561
v 0.00584833 -0.00705879 -0.00798473
v -0.00527868 -0.00719165 -0.00047292
v -0.00614561 -0.00707245 -0.00050255
v -0.00593253 -0.00698801 -0.00128270
v -0.00578366 -0.00691351 -0.00187357
v 0.00540173 -0.00661178 -0.00801601
v 0.00200700 -0.00484112 -0.00804234
v -0.00123011 -0.00322319 -0.00805222
v -0.00203866 -0.00322319 -0.00792877
v -0.00279758 -0.00246327 -0.00796005
v -0.00284720 -0.00241360 -0.00796169
v -0.00284720 -0.00165740 -0.00812134
v -0.00314202 -0.00079442 -0.00814932
v -0.00292018 -0.00004692 -0.00822503
v -0.00323834 -0.00035238 -0.00816084
v -0.00365867 -0.00079442 -0.00806867
v -0.00354191 0.00001020 -0.00813122
v -0.00362364 0.00001020 -0.00811476
v -0.00376375 0.00082227 -0.00810324
v -0.00378127 0.00163310 -0.00809501
v -0.00381337 0.00337644 -0.00694947
v -0.00447014 0.00001268 -0.00787281
v -0.00498971 0.00001268 -0.00752883
v -0.00495760 0.00082227 -0.00749262
v -0.00478830 0.00179204 -0.00694947
v -0.00447597 0.00244269 -0.00694947
v -0.00733654 -0.00519004 -0.00335487
v -0.00733362 -0.00517141 -0.00335487
v -0.00743578 -0.00500006 -0.00290060
v -0.00750000 -0.00477158 -0.00214679
v -0.00415781 0.00297165 -0.00694947
v -0.00203866 0.00468147 -0.00694947
v -0.00123011 0.00495588 0.00114333
v -0.00123011 0.00495340 0.00681175
v -0.00042156 0.00508999 0.00114333
v -0.00381921 0.00337768 -0.00371038
v -0.00341348 0.00380110 -0.00209083
v -0.00288223 0.00420341 -0.00694947
v -0.00247942 0.00448652 -0.00694947
v 0.00038991 0.00508378 0.00600198
v 0.00928977 0.00378620 -0.00047128
v 0.00982102 0.00370053 -0.00047128
v 0.00928977 0.00376882 -0.00128105
v 0.00931604 0.00372660 -0.00202499
v 0.00906209 0.00371170 -0.00271297
v 0.00931604 0.00357636 -0.00294998
v 0.01038729 0.00282761 -0.00405107
v 0.01089519 0.00230237 -0.00455307
v 0.01115497 0.00191621 -0.00484439
v 0.01089519 0.00164055 -0.00511596
v 0.01034059 0.00108178 -0.00566239
v 0.01008080 0.00081606 -0.00591257
v 0.01090978 0.00002386 -0.00593726
v 0.01090103 -0.00080808 -0.00634873
v 0.01062373 -0.00108871 -0.00659396
v 0.01116665 -0.00135940 -0.00648369
v 0.01146146 -0.00023690 -0.00581217
v 0.01118416 0.00030200 -0.00567721
v 0.01141184 0.00137607 -0.00500075
v 0.01090686 0.00271586 -0.00375317
v 0.01118708 0.00277794 -0.00290225
v 0.01128341 0.00282885 -0.00242165
v 0.01097108 0.00303373 -0.00212704
v 0.01090686 0.00320633 -0.00128105
v 0.01147898 0.00296047 0.00033356
v 0.01090686 0.00328456 -0.00047128
v 0.01182925 0.00263267 0.00114169
v 0.01220579 0.00213723 0.00195311
v 0.02147344 -0.00758776 0.00306408
v -0.00152200 -0.00758776 0.00487455
v -0.00527868 -0.00720283 0.00033356
v -0.00226049 -0.00703520 -0.00594219
v -0.00215541 -0.00705879 -0.00596688
v -0.00146071 -0.00705879 -0.00638329
v -0.00587415 -0.00616601 -0.00432264
v -0.00262244 -0.00695325 -0.00584179
v -0.00159498 -0.00684149 -0.00652648
v -0.00105789 -0.00702030 -0.00665322
v -0.00042448 -0.00661178 -0.00719965
v 0.00011553 -0.00678562 -0.00730498
v 0.00065553 -0.00694207 -0.00740045
v 0.00038991 -0.00649382 -0.00750414
v 0.00120137 -0.00661178 -0.00759795
v 0.00120429 -0.00646153 -0.00764404
v 0.00041910 -0.00567926 -0.00773621
v 0.00444140 -0.00646153 -0.00797157
v -0.00614269 -0.00709232 0.00034837
v -0.00656010 -0.00691227 -0.00025238
v -0.00645502 -0.00684522 -0.00079058
v -0.00633826 -0.00678313 -0.00128270
v -0.00606680 -0.00670242 -0.00212210
v -0.00612226 -0.00624672 -0.00369886
v -0.00042156 -0.00484112 -0.00781027
v -0.00123011 -0.00403153 -0.00787611
v -0.00007420 -0.00518755 -0.00778065
v -0.00038945 -0.00567926 -0.00761276
v -0.00041572 -0.00565319 -0.00761441
v -0.00088567 -0.00518755 -0.00763745
v -0.00123011 -0.00484112 -0.00765391
v -0.00203866 -0.00403153 -0.00768025
v -0.00285012 -0.00322319 -0.00769671
v -0.00365867 -0.00241360 -0.00770164
v -0.00365867 -0.00160277 -0.00794523
v -0.00361489 -0.00004692 -0.00811476
v -0.00446722 -0.00079442 -0.00784154
v -0.00447014 0.00001144 -0.00787281
v -0.00501014 -0.00079442 -0.00751895
v -0.00566690 -0.00241360 -0.00644583
v -0.00478830 0.00179079 -0.00613970
v -0.00447306 0.00244269 0.00600198
v -0.00447597 0.00244269 0.00114333
v -0.00738908 -0.00424510 -0.00128270
v -0.00739492 -0.00417557 -0.00047292
v -0.00723146 -0.00377077 -0.00047292
v -0.00723146 -0.00376581 0.00033191
v -0.00416073 0.00297786 0.00438243
v -0.00416073 0.00297662 0.00033356
v -0.00733654 -0.00530427 -0.00335487
v -0.00737449 -0.00519004 -0.00318369
v -0.00743578 -0.00544334 -0.00290060
v -0.00757297 -0.00484112 -0.00128270
v -0.00203866 0.00468147 -0.00452180
v -0.00203866 0.00467898 0.00681175
v -0.00211163 0.00461814 0.00764786
v -0.00123011 0.00491118 0.00762153
v -0.00042156 0.00508378 0.00681175
v -0.00381921 0.00338265 0.00438243
v -0.00341348 0.00380110 -0.00128105
v -0.00288223 0.00420714 -0.00209083
v -0.00247942 0.00448652 -0.00371038
v 0.00038991 0.00508129 0.00681175
v 0.00119846 0.00495216 0.00681175
v 0.00976264 0.00367942 -0.00128105
v 0.00977139 0.00368438 0.00033356
v 0.01022675 0.00355525 -0.00047128
v 0.00970426 0.00365955 -0.00171227
v 0.00960210 0.00362354 -0.00225212
v 0.01009832 0.00329325 -0.00290225
v 0.01063248 0.00290708 -0.00351122
v 0.01090978 0.00081606 -0.00553895
v 0.01078135 0.00297662 -0.00290225
v 0.01002242 0.00347702 -0.00202499
v 0.01016545 0.00352545 -0.00128105
v 0.01142644 0.00290460 0.00114169
v 0.01090686 0.00323986 0.00033356
v 0.01017713 0.00353041 0.00033356
v 0.01136514 0.00287355 0.00166508
v 0.01166871 0.00257927 0.00193994
v 0.01213866 0.00205155 0.00239750
v 0.02133334 -0.00758776 0.00357266
v -0.00142568 -0.00758776 0.00521525
v -0.00655426 -0.00609523 -0.00341905
v -0.00641415 -0.00595120 -0.00395890
v -0.00560561 -0.00599217 -0.00486085
v -0.00506560 -0.00616849 -0.00503860
v -0.00371121 -0.00619209 -0.00584015
v -0.00283261 -0.00645036 -0.00613805
v -0.00226049 -0.00661178 -0.00633391
v -0.00303985 -0.00589905 -0.00643102
v -0.00392429 -0.00518755 -0.00646888
v -0.00250277 -0.00610020 -0.00657257
v -0.00137314 -0.00661178 -0.00677830
v -0.00118049 -0.00661178 -0.00686883
v -0.00084773 -0.00607661 -0.00736588
v -0.00041864 -0.00621320 -0.00743007
v -0.00042156 -0.00518755 -0.00772798
v -0.00592085 -0.00701906 0.00114333
v -0.00656010 -0.00691227 0.00008832
v -0.00122427 -0.00758776 0.00579295
v -0.00113962 -0.00758776 0.00594437
v -0.00738616 -0.00617470 -0.00047292
v -0.00736865 -0.00613373 -0.00128270
v -0.00732487 -0.00607785 -0.00176330
v -0.00692789 -0.00624300 -0.00205626
v -0.00667686 -0.00616725 -0.00290060
v -0.00041572 -0.00567926 -0.00760618
v -0.00119508 -0.00519004 -0.00755351
v -0.00120384 -0.00518755 -0.00755187
v -0.00116005 -0.00559110 -0.00743501
v -0.00248525 -0.00447854 -0.00736917
v -0.00360321 -0.00397814 -0.00715027
v -0.00157454 -0.00518755 -0.00743666
v -0.00453143 -0.00409362 -0.00677007
v -0.00441468 -0.00316979 -0.00714863
v -0.00464819 -0.00257005 -0.00727042
v -0.00446722 -0.00160277 -0.00767695
v -0.00496636 -0.00160277 -0.00743995
v -0.00561144 -0.00322319 -0.00638494
v -0.00566690 -0.00246327 -0.00644090
v -0.00478246 0.00177093 0.00600198
v -0.00447014 0.00244269 0.00681175
v -0.00416073 0.00297786 0.00681175
v -0.00740076 -0.00417060 0.00033191
v -0.00739784 -0.00423393 0.00195311
v -0.00477955 0.00176968 0.00681175
v -0.00658345 -0.00541106 -0.00422883
v -0.00707967 -0.00584814 -0.00290060
v -0.00574863 -0.00454187 -0.00581381
v -0.00747957 -0.00569417 -0.00205626
v -0.00754671 -0.00565195 -0.00128270
v -0.00721686 -0.00599217 -0.00230315
v -0.00753211 -0.00565195 -0.00047292
v -0.00752335 -0.00518755 -0.00001537
v -0.00751460 -0.00484112 0.00033191
v -0.00740076 -0.00420661 0.00114333
v -0.00247650 0.00448404 0.00681175
v -0.00246482 0.00447783 0.00739440
v -0.00188979 0.00457841 0.00812517
v -0.00242688 0.00444306 0.00793425
v -0.00123011 0.00466781 0.00818113
v -0.00042156 0.00500183 0.00762153
v -0.00381921 0.00338265 0.00681175
v -0.00341348 0.00379986 0.00357266
v -0.00287931 0.00420341 0.00681175
v -0.00341348 0.00379862 0.00681175
v 0.00038991 0.00490622 0.00762153
v 0.00182311 0.00459579 0.00737629
v 0.01009832 0.00329077 0.00276124
v 0.01009832 0.00341369 0.00195311
v 0.00971010 0.00366328 0.00080757
v 0.01090686 0.00314424 0.00114169
v 0.01125422 0.00280650 0.00220328
v 0.01095357 0.00302752 0.00193994
v 0.01071713 0.00298034 0.00276124
v 0.01173876 0.00226140 0.00270528
v 0.01146730 0.00215337 0.00357266
v 0.01201898 0.00194228 0.00293570
v 0.01217661 0.00129039 0.00412732
v 0.02118155 -0.00758776 0.00389525
v 0.01207736 0.00114759 0.00466552
v -0.00611934 -0.00570162 -0.00454648
v -0.00582745 -0.00545203 -0.00508140
v -0.00550344 -0.00508077 -0.00562125
v -0.00546258 -0.00519004 -0.00556693
v -0.00528452 -0.00565443 -0.00532993
v -0.00460733 -0.00585559 -0.00557845
v -0.00406732 -0.00605922 -0.00573646
v -0.00371121 -0.00616849 -0.00585825
v -0.00371121 -0.00559855 -0.00628618
v -0.00394473 -0.00515030 -0.00648369
v -0.00416948 -0.00519004 -0.00633227
v -0.00453143 -0.00486471 -0.00636848
v -0.00483792 -0.00440528 -0.00652977
v -0.00371121 -0.00524095 -0.00653965
v -0.00340180 -0.00535891 -0.00661371
v -0.00185768 -0.00518755 -0.00733461
v -0.00577491 -0.00692096 0.00169800
v -0.00632659 -0.00674216 0.00114333
v -0.00644918 -0.00683156 0.00062817
v -0.00691621 -0.00648264 0.00036977
v -0.00734822 -0.00613373 0.00011136
v -0.00081270 -0.00758776 0.00632457
v -0.00573112 -0.00608778 0.00404009
v -0.00505976 -0.00386639 -0.00663840
v -0.00489046 -0.00203115 -0.00736259
v -0.00520571 -0.00322319 -0.00675361
v -0.00412570 0.00293440 0.00732362
v -0.00489922 0.00131895 0.00725943
v -0.00747957 -0.00484112 0.00114333
v -0.00734822 -0.00433078 0.00275959
v -0.00740368 -0.00485850 0.00195311
v -0.00738324 -0.00545452 0.00114333
v -0.00268666 0.00390292 0.00808896
v -0.00211163 0.00412767 0.00818278
v -0.00123011 0.00406062 0.00832926
v -0.00335802 0.00375019 0.00746517
v -0.00042156 0.00469264 0.00816632
v 0.00038991 0.00459827 0.00809554
v 0.00114008 0.00467774 0.00763634
v 0.01090686 0.00221546 0.00421784
v 0.01057702 0.00289715 0.00329121
v 0.01009832 0.00302504 0.00343605
v 0.00083067 0.00449646 0.00804123
v 0.01121043 0.00120968 0.00558393
v 0.01153444 0.00142325 0.00504408
v 0.01112287 0.00271089 0.00276124
v 0.01135054 0.00206397 0.00404667
v 0.01171541 0.00162565 0.00435610
v 0.02106771 -0.00758776 0.00412238
v -0.00503933 -0.00519004 -0.00583357
v -0.00496344 -0.00531545 -0.00578913
v -0.00438841 -0.00561221 -0.00589282
v -0.00447014 -0.00519004 -0.00616274
v -0.00586247 -0.00617594 0.00357101
v -0.00653091 -0.00609896 0.00246004
v -0.00662432 -0.00619333 0.00195146
v -0.00727524 -0.00598969 0.00065121
v -0.00734238 -0.00532166 0.00168318
v -0.00073389 -0.00758776 0.00639535
v -0.00572528 -0.00531669 0.00483669
v -0.00589166 -0.00561345 0.00433799
v -0.00647837 -0.00519376 0.00394792
v -0.00630323 -0.00567802 0.00363355
v -0.00641415 -0.00596486 0.00299989
v -0.00487587 -0.00605798 0.00478732
v -0.00541588 -0.00585683 0.00457829
v -0.00426873 0.00244269 0.00743719
v -0.00321499 0.00325103 0.00800667
v -0.00568442 -0.00119549 0.00641016
v -0.00494884 0.00082227 0.00731375
v -0.00451100 0.00160578 0.00746517
v -0.00730443 -0.00442639 0.00317106
v -0.00651924 -0.00276500 0.00483011
v -0.00734822 -0.00456298 0.00275959
v -0.00281218 0.00325103 0.00811365
v -0.00203866 0.00325103 0.00825684
v -0.00123011 0.00325103 0.00830786
v 0.00266960 -0.00536884 0.00803958
v 0.01009832 -0.00758776 0.00785031
v -0.00042156 0.00406062 0.00828811
v 0.01043108 0.00036532 0.00638712
v 0.01576399 -0.00758776 0.00729400
v 0.01605588 -0.00758776 0.00723968
v 0.01626313 -0.00758776 0.00719195
v 0.01662800 -0.00758776 0.00709320
v 0.01815169 -0.00758776 0.00666527
v 0.01875883 -0.00758776 0.00648916
v 0.01916456 -0.00758776 0.00616328
v 0.01978921 -0.00758776 0.00553126
v 0.02033506 -0.00758776 0.00494532
v -0.00672064 -0.00567802 0.00274313
v -0.00705632 -0.00561594 0.00195146
v -0.00727816 -0.00519004 0.00207655
v -0.00730443 -0.00444129 0.00317106
v -0.00484668 -0.00522356 0.00557734
v -0.00519987 -0.00561345 0.00496837
v -0.00031064 -0.00758776 0.00668502
v -0.00475327 -0.00426621 0.00632786
v -0.00491674 -0.00372607 0.00645624
v -0.00559101 -0.00241360 0.00629495
v -0.00661264 -0.00542472 0.00340807
v -0.00366159 0.00163310 0.00788322
v -0.00319456 0.00244269 0.00801490
v -0.00447014 0.00082227 0.00759684
v -0.00447014 0.00001268 0.00762976
v -0.00568442 -0.00131345 0.00641016
v -0.00499847 -0.00079442 0.00733185
v -0.00498095 0.00001268 0.00734831
v -0.00651924 -0.00291524 0.00483011
v -0.00315369 0.00163310 0.00800667
v -0.00279174 0.00244269 0.00809719
v -0.00274796 0.00163310 0.00808238
v -0.00203866 0.00163310 0.00820417
v -0.00123011 0.00082227 0.00823051
v -0.00123011 0.00244269 0.00828317
v 0.00119846 -0.00403153 0.00808402
v 0.00201284 -0.00519004 0.00804288
v 0.00201284 -0.00534152 0.00803629
v 0.00524995 -0.00727112 0.00794412
v 0.00606142 -0.00758776 0.00791450
v 0.01090103 -0.00758776 0.00780751
v 0.01171249 -0.00758776 0.00773016
v 0.01497879 -0.00758776 0.00739604
v -0.00701838 -0.00519004 0.00275465
v -0.00723438 -0.00519004 0.00219341
v -0.00714973 -0.00496777 0.00275959
v -0.00567858 -0.00185359 0.00639864
v -0.00481457 -0.00519004 0.00562507
v 0.00036363 -0.00758776 0.00700268
v -0.00059378 -0.00671608 0.00712447
v -0.00149865 -0.00592388 0.00714752
v -0.00421327 -0.00456174 0.00650233
v -0.00334926 -0.00533035 0.00646941
v -0.00447597 -0.00401042 0.00662742
v -0.00501890 -0.00322319 0.00656652
v -0.00484960 -0.00198149 0.00720677
v -0.00517944 -0.00246327 0.00671629
v -0.00518820 -0.00241360 0.00672617
v -0.00447014 0.00001144 0.00762976
v -0.00366159 0.00082227 0.00787335
v -0.00496636 -0.00144135 0.00728577
v -0.00446722 -0.00079442 0.00757051
v -0.00498095 0.00001144 0.00734831
v -0.00308072 0.00082227 0.00799679
v -0.00366159 0.00001268 0.00784866
v -0.00203866 0.00082227 0.00817455
v -0.00123011 0.00001020 0.00819430
v 0.00058548 -0.00403153 0.00805933
v 0.00127435 -0.00479890 0.00804452
v 0.00160711 -0.00525088 0.00802642
v 0.00444140 -0.00727112 0.00792437
v 0.00524995 -0.00758776 0.00790627
v -0.00399727 -0.00519004 0.00615669
v -0.00389218 -0.00510187 0.00629330
v 0.00084526 -0.00758776 0.00717385
v 0.00038991 -0.00744372 0.00709978
v -0.00095865 -0.00617719 0.00726766
v -0.00096448 -0.00616974 0.00726931
v -0.00005377 -0.00689365 0.00722652
v -0.00235682 -0.00513043 0.00718208
v -0.00361197 -0.00400049 0.00706193
v -0.00439716 -0.00315613 0.00699116
v -0.00385132 -0.00338212 0.00716562
v -0.00312158 -0.00425007 0.00717879
v -0.00453143 -0.00166858 0.00737465
v -0.00365867 -0.00079442 0.00774003
v -0.00206493 -0.00485229 0.00732198
v -0.00041572 -0.00565319 0.00755899
v -0.00041572 -0.00519004 0.00764786
v 0.00041326 -0.00518755 0.00783549
v 0.00073726 -0.00450089 0.00803629
v -0.00209995 0.00001144 0.00809390
v -0.00256698 0.00025357 0.00804617
v 0.00128310 -0.00557372 0.00792602
v 0.00201576 -0.00646153 0.00787006
v 0.00201576 -0.00574507 0.00798527
v 0.00444140 -0.00758776 0.00785689
v 0.00282431 -0.00646153 0.00793754
v 0.00362993 -0.00727112 0.00786018
v 0.00092699 -0.00758776 0.00720018
v -0.00121551 -0.00567926 0.00734173
v -0.00181098 -0.00538498 0.00726602
v -0.00025226 -0.00661178 0.00729071
v -0.00036026 -0.00645284 0.00732527
v 0.00039574 -0.00646153 0.00751784
v 0.00120429 -0.00646153 0.00772193
v 0.00044828 -0.00705879 0.00730223
v -0.00258450 -0.00459030 0.00724627
v 0.00039574 -0.00565319 0.00774168
v 0.00201284 -0.00661178 0.00782397
v 0.00282139 -0.00727112 0.00776472
v 0.00362993 -0.00758776 0.00777130
v 0.00134732 -0.00758776 0.00731210
v 0.00118678 -0.00731210 0.00739769
v 0.00200992 -0.00727112 0.00762153
v 0.00119846 -0.00661178 0.00766432
v 0.00280387 -0.00758776 0.00763963
v 0.00200992 -0.00758776 0.00747998
f 1 2 3
f 1 3 4
f 1 4 5
f 1 5 6
f 1 6 7
f 1 7 8
f 1 8 9
f 1 9 10
f 1 10 2
f 2 11 3
f 2 10 11
f 3 11 12
f 3 12 13
f 3 13 14
f 3 14 15
f 3 15 4
f 4 15 16
f 4 16 5
f 5 16 17
f 5 17 18
f 5 18 6
f 6 19 7
f 6 18 20
f 6 20 19
f 7 19 21
f 7 21 8
f 8 21 22
f 8 22 23
f 8 23 9
f 9 23 24
f 9 24 25
f 9 25 26
f 9 26 27
f 9 27 28
f 9 28 29
f 9 29 10
f 10 29 30
f 10 30 31
f 10 31 32
f 10 32 11
f 11 33 12
f 11 32 34
f 11 34 33
f 12 33 34
f 12 34 35
f 12 35 36
f 12 36 37
f 12 37 38
f 12 38 39
f 12 39 13
f 13 39 40
f 13 40 41
f 13 41 42
f 13 42 14
f 14 42 43
f 14 43 15
f 15 43 44
f 15 44 16
f 16 44 45
f 16 45 17
f 17 46 20
f 17 20 18
f 17 45 47
f 17 47 48
f 17 48 49
f 17 49 50
f 17 50 51
f 17 51 46
f 19 20 52
f 19 52 53
f 19 53 54
f 19 54 21
f 20 46 55
f 20 55 56
f 20 56 52
f 21 54 57
f 21 57 22
f 22 57 58
f 22 58 59
f 22 59 60
f 22 60 23
f 23 60 61
f 23 61 24
f 24 61 62
f 24 62 63
f 24 63 30
f 24 30 25
f 25 30 26
f 26 30 27
f 27 30 28
f 28 30 29
f 30 63 64
f 30 64 65
f 30 65 66
f 30 66 67
f 30 67 68
f 30 68 69
f 30 69 70
f 30 70 71
f 30 71 72
f 30 72 73
f 30 73 74
f 30 74 75
f 30 75 76
f 30 76 77
f 30 77 78
f 30 78 79
f 30 79 80
f 30 80 81
f 30 81 162
f 30 162 243
f 30 243 322
f 30 322 372
f 30 372 413
f 30 413 412
f 30 412 411
f 30 411 410
f 30 410 409
f 30 409 408
f 30 408 407
f 30 407 406
f 30 406 405
f 30 405 446
f 30 446 445
f 30 445 444
f 30 444 402
f 30 402 443
f 30 443 475
f 30 475 500
f 30 500 515
f 30 515 520
f 30 520 521
f 30 521 516
f 30 516 503
f 30 503 478
f 30 478 452
f 30 452 420
f 30 420 382
f 30 382 345
f 30 345 263
f 30 263 262
f 30 262 244
f 30 244 163
f 30 163 82
f 30 82 31
f 31 83 84
f 31 84 85
f 31 85 86
f 31 86 87
f 31 87 88
f 31 88 89
f 31 89 90
f 31 90 91
f 31 91 92
f 31 92 93
f 31 93 94
f 31 94 32
f 31 82 95
f 31 95 96
f 31 96 97
f 31 97 98
f 31 98 83
f 32 94 99
f 32 99 35
f 32 35 34
f 35 99 94
f 35 94 100
f 35 100 101
f 35 101 36
f 36 101 102
f 36 102 103
f 36 103 104
f 36 104 105
f 36 105 37
f 37 105 106
f 37 106 38
f 38 106 107
f 38 107 39
f 39 107 40
f 40 107 108
f 40 108 109
f 40 109 110
f 40 110 41
f 41 110 42
f 42 110 111
f 42 111 112
f 42 112 43
f 43 112 44
f 44 112 113
f 44 113 45
f 45 113 47
f 46 114 55
f 46 51 114
f 47 115 116
f 47 116 117
f 47 117 48
f 47 113 115
f 48 117 49
f 49 118 119
f 49 119 51
f 49 51 50
f 49 117 120
f 49 120 121
f 49 121 122
f 49 122 123
f 49 123 118
f 51 119 124
f 51 124 114
f 52 125 53
f 52 56 125
f 53 126 54
f 53 125 215
f 53 215 126
f 54 126 127
f 54 127 128
f 54 128 57
f 55 114 129
f 55 129 130
f 55 130 131
f 55 131 56
f 56 131 132
f 56 132 125
f 57 133 134
f 57 134 135
f 57 135 136
f 57 136 58
f 57 128 133
f 58 136 137
f 58 137 138
f 58 138 139
f 58 139 59
f 59 61 60
f 59 139 140
f 59 140 141
f 59 141 142
f 59 142 61
f 61 143 144
f 61 144 145
f 61 145 146
f 61 146 147
f 61 147 148
f 61 148 63
f 61 63 62
f 61 142 143
f 63 148 64
f 64 148 65
f 65 148 149
f 65 149 66
f 66 149 147
f 66 147 150
f 66 150 67
f 67 150 68
f 68 150 151
f 68 151 152
f 68 152 69
f 69 152 142
f 69 142 70
f 70 142 71
f 71 142 74
f 71 74 72
f 72 74 73
f 74 142 141
f 74 141 140
f 74 140 153
f 74 153 75
f 75 153 154
f 75 154 155
f 75 155 76
f 76 155 156
f 76 156 157
f 76 157 77
f 77 157 78
f 78 158 79
f 78 157 159
f 78 159 158
f 79 158 160
f 79 160 80
f 80 160 161
f 80 161 81
f 81 161 162
f 82 163 164
f 82 164 95
f 83 165 166
f 83 166 167
f 83 167 84
f 83 98 168
f 83 168 169
f 83 169 165
f 84 170 171
f 84 171 85
f 84 167 169
f 84 169 170
f 85 171 172
f 85 172 86
f 86 173 87
f 86 172 173
f 87 173 174
f 87 174 88
f 88 174 89
f 89 174 90
f 90 174 175
f 90 175 176
f 90 176 91
f 91 176 177
f 91 177 92
f 92 177 178
f 92 178 93
f 93 179 94
f 93 178 101
f 93 101 179
f 94 179 101
f 94 101 100
f 95 164 180
f 95 180 96
f 96 180 181
f 96 181 182
f 96 182 183
f 96 183 97
f 97 183 98
f 98 183 184
f 98 184 185
f 98 185 168
f 101 186 187
f 101 187 102
f 101 178 188
f 101 188 186
f 102 187 189
f 102 189 190
f 102 190 191
f 102 191 192
f 102 192 103
f 103 192 104
f 104 192 193
f 104 193 194
f 104 194 195
f 104 195 196
f 104 196 105
f 105 196 109
f 105 109 106
f 106 108 107
f 106 109 108
f 109 197 110
f 109 196 198
f 109 198 197
f 110 197 111
f 111 197 198
f 111 198 199
f 111 199 112
f 112 199 115
f 112 115 113
f 114 124 129
f 115 199 200
f 115 200 116
f 116 200 201
f 116 201 117
f 117 201 120
f 118 202 203
f 118 203 204
f 118 204 119
f 118 123 205
f 118 205 206
f 118 206 207
f 118 207 208
f 118 208 202
f 119 204 285
f 119 285 209
f 119 209 210
f 119 210 124
f 120 211 212
f 120 212 122
f 120 122 121
f 120 201 211
f 122 212 213
f 122 213 123
f 123 213 214
f 123 214 205
f 124 210 129
f 125 132 223
f 125 223 215
f 126 215 216
f 126 216 127
f 127 216 217
f 127 217 218
f 127 218 219
f 127 219 128
f 128 219 133
f 129 220 130
f 129 210 220
f 130 221 222
f 130 222 131
f 130 220 305
f 130 305 221
f 131 222 132
f 132 222 223
f 133 224 134
f 133 219 224
f 134 224 225
f 134 225 135
f 135 226 136
f 135 225 227
f 135 227 228
f 135 228 226
f 136 226 137
f 137 226 229
f 137 229 230
f 137 230 138
f 138 230 139
f 139 230 231
f 139 231 232
f 139 232 140
f 140 232 153
f 142 152 151
f 142 151 143
f 143 233 144
f 143 151 233
f 144 233 151
f 144 151 145
f 145 151 146
f 146 151 147
f 147 151 150
f 147 149 148
f 153 232 154
f 154 232 234
f 154 234 155
f 155 234 156
f 156 234 231
f 156 231 235
f 156 235 157
f 157 235 236
f 157 236 159
f 158 237 160
f 158 159 238
f 158 238 237
f 159 236 228
f 159 228 239
f 159 239 238
f 160 237 240
f 160 240 241
f 160 241 161
f 161 241 242
f 161 242 243
f 161 243 162
f 163 244 180
f 163 180 164
f 165 167 166
f 165 169 167
f 168 185 245
f 168 245 246
f 168 246 247
f 168 247 248
f 168 248 169
f 169 249 250
f 169 250 251
f 169 251 170
f 169 248 249
f 170 251 252
f 170 252 253
f 170 253 254
f 170 254 255
f 170 255 256
f 170 256 171
f 171 256 172
f 172 256 257
f 172 257 173
f 173 257 174
f 174 257 258
f 174 258 175
f 175 258 189
f 175 189 177
f 175 177 176
f 177 189 178
f 178 189 259
f 178 259 188
f 180 260 261
f 180 261 181
f 180 244 262
f 180 262 263
f 180 263 260
f 181 261 264
f 181 264 265
f 181 265 266
f 181 266 182
f 182 266 267
f 182 267 268
f 182 268 183
f 183 268 245
f 183 245 184
f 184 245 185
f 186 259 187
f 186 188 259
f 187 259 189
f 189 258 269
f 189 269 190
f 190 269 191
f 191 269 257
f 191 257 270
f 191 270 192
f 192 270 271
f 192 271 193
f 193 271 272
f 193 272 194
f 194 273 274
f 194 274 195
f 194 272 275
f 194 275 273
f 195 274 276
f 195 276 277
f 195 277 278
f 195 278 279
f 195 279 196
f 196 279 198
f 198 279 280
f 198 280 200
f 198 200 199
f 200 280 281
f 200 281 282
f 200 282 201
f 201 282 211
f 202 283 203
f 202 208 283
f 203 283 284
f 203 284 285
f 203 285 204
f 205 214 206
f 206 214 286
f 206 286 207
f 207 286 208
f 208 286 287
f 208 287 288
f 208 288 283
f 209 285 305
f 209 305 220
f 209 220 210
f 211 289 246
f 211 246 290
f 211 290 213
f 211 213 212
f 211 282 281
f 211 281 291
f 211 291 289
f 213 292 293
f 213 293 214
f 213 290 294
f 213 294 266
f 213 266 292
f 214 293 295
f 214 295 296
f 214 296 297
f 214 297 287
f 214 287 298
f 214 298 286
f 215 223 216
f 216 223 299
f 216 299 300
f 216 300 217
f 217 301 218
f 217 300 302
f 217 302 301
f 218 301 303
f 218 303 304
f 218 304 219
f 219 304 224
f 221 305 306
f 221 306 222
f 222 307 299
f 222 299 223
f 222 306 308
f 222 308 307
f 224 309 225
f 224 304 309
f 225 309 310
f 225 310 311
f 225 311 312
f 225 312 313
f 225 313 227
f 226 228 236
f 226 236 229
f 227 313 312
f 227 312 239
f 227 239 228
f 229 236 235
f 229 235 230
f 230 235 231
f 231 234 232
f 237 238 240
f 238 239 312
f 238 312 314
f 238 314 240
f 240 315 241
f 240 314 316
f 240 316 317
f 240 317 315
f 241 318 242
f 241 315 318
f 242 318 319
f 242 319 320
f 242 320 321
f 242 321 243
f 243 321 323
f 243 323 322
f 245 268 294
f 245 294 290
f 245 290 246
f 246 324 247
f 246 289 324
f 247 325 326
f 247 326 327
f 247 327 328
f 247 328 329
f 247 329 330
f 247 330 249
f 247 249 248
f 247 324 325
f 249 331 250
f 249 330 331
f 250 331 332
f 250 332 251
f 251 332 252
f 252 332 253
f 253 333 254
f 253 332 334
f 253 334 335
f 253 335 336
f 253 336 333
f 254 333 337
f 254 337 338
f 254 338 257
f 254 257 255
f 255 257 256
f 257 339 275
f 257 275 272
f 257 272 270
f 257 269 258
f 257 338 336
f 257 336 276
f 257 276 339
f 260 340 341
f 260 341 342
f 260 342 261
f 260 263 340
f 261 343 344
f 261 344 264
f 261 342 343
f 263 345 346
f 263 346 340
f 264 344 295
f 264 295 293
f 264 293 265
f 265 293 292
f 265 292 266
f 266 294 268
f 266 268 267
f 270 272 271
f 273 275 339
f 273 339 274
f 274 339 276
f 276 336 347
f 276 347 278
f 276 278 277
f 278 348 279
f 278 347 348
f 279 348 280
f 280 349 281
f 280 348 349
f 281 349 291
f 283 288 284
f 284 350 285
f 284 288 351
f 284 351 350
f 285 350 305
f 286 298 287
f 287 297 352
f 287 352 353
f 287 353 351
f 287 351 288
f 289 291 325
f 289 325 324
f 291 349 347
f 291 347 336
f 291 336 326
f 291 326 325
f 295 354 352
f 295 352 296
f 295 344 355
f 295 355 354
f 296 352 297
f 299 307 300
f 300 307 308
f 300 308 302
f 301 302 356
f 301 356 357
f 301 357 358
f 301 358 303
f 302 308 359
f 302 359 350
f 302 350 356
f 303 358 360
f 303 360 304
f 304 360 309
f 305 359 308
f 305 308 306
f 305 350 359
f 309 361 362
f 309 362 310
f 309 360 361
f 310 363 364
f 310 364 365
f 310 365 311
f 310 362 366
f 310 366 367
f 310 367 368
f 310 368 363
f 311 365 364
f 311 364 317
f 311 317 316
f 311 316 312
f 312 316 314
f 315 369 318
f 315 317 369
f 317 364 369
f 318 369 319
f 319 369 370
f 319 370 320
f 320 370 371
f 320 371 321
f 321 371 323
f 322 323 372
f 323 371 368
f 323 368 372
f 326 373 327
f 326 336 373
f 327 373 374
f 327 374 328
f 328 374 329
f 329 374 330
f 330 374 331
f 331 374 375
f 331 375 332
f 332 375 376
f 332 376 334
f 333 336 337
f 334 376 335
f 335 376 374
f 335 374 336
f 336 374 373
f 336 338 337
f 340 346 377
f 340 377 341
f 341 377 378
f 341 378 342
f 342 378 379
f 342 379 343
f 343 379 344
f 344 380 381
f 344 381 355
f 344 379 378
f 344 378 380
f 345 382 346
f 346 383 384
f 346 384 385
f 346 385 386
f 346 386 387
f 346 387 378
f 346 378 377
f 346 382 388
f 346 388 389
f 346 389 383
f 347 349 348
f 350 351 390
f 350 390 391
f 350 391 356
f 351 392 393
f 351 393 394
f 351 394 391
f 351 391 390
f 351 353 395
f 351 395 396
f 351 396 392
f 352 354 397
f 352 397 353
f 353 397 417
f 353 417 395
f 354 355 381
f 354 381 397
f 356 391 398
f 356 398 357
f 357 399 358
f 357 398 399
f 358 399 400
f 358 400 401
f 358 401 402
f 358 402 403
f 358 403 360
f 360 403 361
f 361 366 362
f 361 403 366
f 363 368 370
f 363 370 364
f 364 370 369
f 366 404 367
f 366 403 405
f 366 405 406
f 366 406 407
f 366 407 408
f 366 408 409
f 366 409 410
f 366 410 404
f 367 410 411
f 367 411 412
f 367 412 368
f 367 404 410
f 368 371 370
f 368 412 413
f 368 413 372
f 374 376 375
f 378 387 414
f 378 414 380
f 380 414 415
f 380 415 381
f 381 415 416
f 381 416 417
f 381 417 397
f 382 418 419
f 382 419 388
f 382 420 418
f 383 389 419
f 383 419 418
f 383 418 421
f 383 421 422
f 383 422 423
f 383 423 385
f 383 385 384
f 385 417 424
f 385 424 386
f 385 423 417
f 386 424 387
f 387 424 414
f 388 419 389
f 391 425 426
f 391 426 398
f 391 394 393
f 391 393 427
f 391 427 428
f 391 428 425
f 392 429 430
f 392 430 431
f 392 431 393
f 392 396 432
f 392 432 429
f 393 431 427
f 395 417 432
f 395 432 396
f 398 426 433
f 398 433 434
f 398 434 399
f 399 434 435
f 399 435 436
f 399 436 437
f 399 437 438
f 399 438 400
f 400 438 439
f 400 439 401
f 401 439 440
f 401 440 441
f 401 441 442
f 401 442 402
f 402 442 443
f 402 444 403
f 403 444 445
f 403 445 446
f 403 446 405
f 414 424 447
f 414 447 448
f 414 448 416
f 414 416 415
f 416 448 417
f 417 448 449
f 417 449 447
f 417 447 424
f 417 423 450
f 417 450 432
f 418 451 421
f 418 420 451
f 420 452 453
f 420 453 454
f 420 454 455
f 420 455 456
f 420 456 451
f 421 451 455
f 421 455 457
f 421 457 422
f 422 458 423
f 422 457 459
f 422 459 458
f 423 458 460
f 423 460 461
f 423 461 450
f 425 462 463
f 425 463 426
f 425 428 462
f 426 463 433
f 427 431 428
f 428 431 466
f 428 466 462
f 429 432 450
f 429 450 430
f 430 450 464
f 430 464 465
f 430 465 462
f 430 462 466
f 430 466 431
f 433 467 435
f 433 435 434
f 433 463 468
f 433 468 467
f 435 467 436
f 436 469 437
f 436 467 469
f 437 469 470
f 437 470 439
f 437 439 438
f 439 471 472
f 439 472 441
f 439 441 440
f 439 470 471
f 441 472 473
f 441 473 474
f 441 474 442
f 442 474 475
f 442 475 443
f 447 449 448
f 450 461 464
f 451 456 476
f 451 476 477
f 451 477 455
f 452 478 479
f 452 479 453
f 453 480 481
f 453 481 454
f 453 479 482
f 453 482 480
f 454 481 483
f 454 483 455
f 455 483 457
f 455 477 456
f 456 477 476
f 457 483 484
f 457 484 485
f 457 485 459
f 458 459 460
f 459 485 484
f 459 484 486
f 459 486 487
f 459 487 488
f 459 488 464
f 459 464 461
f 459 461 460
f 462 465 468
f 462 468 463
f 464 488 465
f 465 489 468
f 465 488 490
f 465 490 491
f 465 491 492
f 465 492 493
f 465 493 494
f 465 494 489
f 467 468 469
f 468 489 494
f 468 494 495
f 468 495 496
f 468 496 469
f 469 496 495
f 469 495 494
f 469 494 471
f 469 471 470
f 471 494 472
f 472 494 473
f 473 494 497
f 473 497 498
f 473 498 499
f 473 499 474
f 474 500 475
f 474 499 501
f 474 501 502
f 474 502 500
f 478 503 479
f 479 503 482
f 480 482 481
f 481 504 505
f 481 505 483
f 481 482 506
f 481 506 507
f 481 507 508
f 481 508 509
f 481 509 491
f 481 491 504
f 482 503 510
f 482 510 506
f 483 505 490
f 483 490 511
f 483 511 487
f 483 487 484
f 484 487 486
f 487 511 488
f 488 511 490
f 490 505 491
f 491 509 512
f 491 512 493
f 491 493 492
f 491 505 504
f 493 512 494
f 494 512 497
f 497 509 498
f 497 512 509
f 498 513 514
f 498 514 502
f 498 502 501
f 498 501 499
f 498 509 513
f 500 502 515
f 502 514 515
f 503 516 517
f 503 517 510
f 506 510 507
f 507 510 517
f 507 517 508
f 508 517 518
f 508 518 519
f 508 519 509
f 509 519 518
f 509 518 513
f 513 518 514
f 514 520 515
f 514 518 520
f 516 521 517
f 517 521 518
f 518 521 520

