# https://github.com/mikedh/trimesh
v 0.02435532 0.01057327 0.00518095
v 0.02385946 0.01055296 0.00518095
v 0.01369441 0.00980349 0.00553822
v 0.01451598 0.00981478 0.00556106
v 0.01288257 0.00937458 0.00593464
v 0.01369441 0.00939264 0.00593954
v 0.02436990 0.01025498 0.00543055
v 0.02515258 0.00993442 0.00568667
v 0.02566788 0.00993442 0.00568831
v 0.02515258 0.01034076 0.00536366
v 0.02515258 0.01056650 0.00518095
v 0.03176885 0.00615776 -0.00130379
v 0.01158945 0.00615776 -0.00130379
v 0.01288257 0.01005407 0.00518095
v 0.01206100 0.00976512 0.00549254
v 0.00878446 0.00927074 0.00584818
v 0.01206100 0.00935652 0.00591833
v 0.00877474 0.00839486 0.00659535
v 0.01288257 0.00883957 0.00634412
v 0.02515258 0.00951454 0.00599827
v 0.02594984 0.00959355 0.00593954
v 0.02621235 0.00991411 0.00567362
v 0.02591581 0.01046717 0.00518095
v 0.03460787 0.00585978 -0.00130379
v 0.03418494 0.00591395 -0.00130379
v 0.04154500 -0.00045423 -0.00756992
v 0.03615864 -0.00057388 -0.00829588
v 0.00654825 -0.01021081 -0.00171326
v -0.00556620 0.00099052 0.00567689
v -0.00478838 0.00262940 0.00565078
v -0.00383556 0.00410124 0.00576824
v -0.00229938 0.00501550 0.00567852
v 0.00736495 0.00943779 0.00518095
v 0.00792401 0.00969965 0.00518095
v 0.00799693 0.00972222 0.00518095
v 0.00878446 0.00984864 0.00518095
v 0.00960603 0.00989379 0.00518095
v 0.00960603 0.00970191 0.00542076
v 0.00877474 0.00967256 0.00539792
v 0.00796776 0.00923688 0.00582045
v 0.00877474 0.00878765 0.00626581
v 0.00824972 0.00836551 0.00657904
v 0.00878446 0.00787565 0.00694447
v 0.02597414 0.00895470 0.00640938
v 0.02679085 0.00893890 0.00640285
v 0.02679085 0.00944908 0.00599337
v 0.02679085 0.00985767 0.00561326
v 0.02679085 0.01025498 0.00520379
v 0.02679085 0.01027303 0.00518095
v 0.02741310 0.01004052 0.00518095
v 0.03468565 0.00594556 0.00036022
v 0.04219642 -0.00041134 -0.00619466
v 0.04212836 -0.00046101 -0.00701199
v 0.04154500 -0.00012465 -0.00701199
v 0.04202141 -0.00058065 -0.00747530
v 0.04161306 -0.00119467 -0.00758623
v 0.04072343 -0.00113146 -0.00773142
v 0.03631906 -0.00066192 -0.00827957
v 0.03615864 -0.00079736 -0.00829588
v 0.00637324 -0.01096253 -0.00171326
v -0.00559051 -0.00031427 0.00565568
v -0.00574121 -0.00031427 0.00609289
v -0.00568773 0.00050291 0.00609289
v -0.00560509 0.00112596 0.00609289
v -0.00550300 0.00153907 0.00609289
v -0.00524049 0.00214180 0.00609289
v -0.00489533 0.00278742 0.00609289
v -0.00398140 0.00425249 0.00631476
v -0.00312095 0.00502001 0.00645995
v -0.00284871 0.00485974 0.00591344
v -0.00312095 0.00502001 0.00657088
v -0.00273690 0.00516675 0.00687106
v -0.00249383 0.00515320 0.00743062
v 0.00747190 0.00917593 0.00576335
v -0.00186672 0.00523447 0.00748609
v 0.00960603 0.00736548 0.00728706
v 0.02597414 0.00854159 0.00664429
v 0.02679085 0.00852805 0.00662961
v 0.02731101 0.00843549 0.00657251
v 0.02742768 0.00930009 0.00588244
v 0.02762700 0.00992088 0.00518095
v 0.03468079 0.00594330 0.00117917
v 0.04219156 -0.00041134 0.00608963
v 0.04219642 -0.00041134 0.00518095
v 0.04382010 -0.00522642 0.00035533
v 0.04362565 -0.00476817 -0.00209664
v 0.04361107 -0.00478623 -0.00272472
v 0.04202141 -0.00096441 -0.00747530
v 0.04138944 -0.00172968 -0.00749977
v 0.04072343 -0.00188544 -0.00756502
v 0.04193390 -0.00151071 -0.00740678
v 0.03663019 -0.00195091 -0.00808707
v 0.03615864 -0.00155360 -0.00823389
v 0.03615864 -0.00149491 -0.00824531
v 0.03615864 -0.00105471 -0.00829262
v 0.03631906 -0.00097344 -0.00827957
v 0.00656769 -0.01161041 -0.00171326
v -0.00558078 -0.00158295 0.00566220
v -0.00559051 -0.00112695 0.00565242
v -0.00583357 -0.00031427 0.00691021
v -0.00573148 -0.00112695 0.00609289
v -0.00561967 0.00112145 0.00667692
v -0.00474463 0.00337661 0.00732458
v -0.00474463 0.00337661 0.00729032
v -0.00471546 0.00333372 0.00674218
v -0.00397168 0.00424120 0.00691021
v -0.00304316 0.00495229 0.00711739
v -0.00393279 0.00419831 0.00732947
v -0.00186672 0.00460013 0.00765249
v -0.00351471 0.00435633 0.00740941
v -0.00273690 0.00464754 0.00752035
v 0.00960603 0.00695237 0.00740778
v 0.02597414 0.00725712 0.00725932
v 0.02597414 0.00787791 0.00699015
v 0.02679085 0.00787791 0.00694773
v 0.04154014 -0.00059194 0.00738331
v 0.04195335 -0.00072287 0.00731969
v 0.02786034 0.00976963 0.00518095
v 0.03463704 0.00588912 0.00181378
v 0.04207488 -0.00056711 0.00691021
v 0.04231795 -0.00113146 0.00608963
v 0.04363537 -0.00476365 0.00174689
v 0.04365482 -0.00473882 0.00117591
v 0.04380552 -0.00522642 -0.00002152
v 0.04378608 -0.00522642 0.00117591
v 0.04372288 -0.00587205 0.00117591
v 0.04372773 -0.00608876 0.00028681
v 0.04371801 -0.00610005 -0.00002152
v 0.04370343 -0.00611585 -0.00042937
v 0.04378121 -0.00522642 -0.00045547
v 0.04373260 -0.00522642 -0.00127769
v 0.04361107 -0.00499391 -0.00272472
v 0.04352842 -0.00525126 -0.00296453
v 0.04309576 -0.00529415 -0.00380959
v 0.04133110 -0.00333019 -0.00668734
v 0.04072343 -0.00277261 -0.00715065
v 0.04072343 -0.00229403 -0.00739373
v 0.03615864 -0.00406611 -0.00744920
v 0.03615864 -0.00360108 -0.00762702
v 0.03615864 -0.00277261 -0.00792556
v 0.04286242 -0.00506615 -0.00426964
v 0.04275061 -0.00561244 -0.00413260
v 0.04198738 -0.00407062 -0.00583576
v 0.04157903 -0.00359657 -0.00637901
v 0.03615864 -0.00194639 -0.00814906
v 0.00713647 -0.01218831 -0.00171326
v 0.00692257 -0.01201901 -0.00171326
v 0.00671840 -0.01180230 -0.00171326
v -0.00396196 -0.00403902 0.00565405
v -0.00402515 -0.00411577 0.00609289
v -0.00562940 -0.00166196 0.00609289
v -0.00582385 -0.00112695 0.00691021
v -0.00568773 -0.00112695 0.00744041
v -0.00567801 -0.00031427 0.00743714
v -0.00560509 0.00025008 0.00737189
v -0.00567801 0.00051646 0.00693468
v -0.00480297 0.00296125 0.00738494
v -0.00433142 0.00296125 0.00754971
v -0.00425364 0.00369942 0.00739473
v -0.00351471 0.00378069 0.00757581
v -0.00351471 0.00296125 0.00765249
v 0.01123944 0.00214406 0.00795429
v 0.01123944 0.00296350 0.00793308
v 0.01042273 0.00377617 0.00789393
v 0.01042273 0.00459788 0.00785804
v 0.01042273 0.00541732 0.00773732
v 0.00960603 0.00623451 0.00757744
v 0.02597414 0.00623902 0.00752198
v 0.02597414 0.00684627 0.00737678
v 0.02679085 0.00680789 0.00736536
v 0.02679085 0.00721649 0.00723159
v 0.03464676 0.00102438 0.00818921
v 0.03494331 0.00045325 0.00824468
v 0.03498706 -0.00031879 0.00832135
v 0.03625587 -0.00069352 0.00815332
v 0.04154014 -0.00091023 0.00738331
v 0.04195335 -0.00072513 0.00731969
v 0.04209433 -0.00105019 0.00689063
v 0.04366454 -0.00522642 0.00180725
v 0.04368399 -0.00590591 -0.00127769
v 0.04364510 -0.00574337 0.00171916
v 0.04343606 -0.00628290 0.00117591
v 0.04364023 -0.00608876 0.00090184
v 0.04359648 -0.00646124 -0.00002642
v 0.04359648 -0.00646124 -0.00013409
v 0.04357704 -0.00643415 -0.00068386
v 0.04364023 -0.00574563 -0.00191066
v 0.04364996 -0.00525126 -0.00215047
v 0.04357704 -0.00554021 -0.00245554
v 0.04295478 -0.00583819 -0.00358609
v 0.04154500 -0.00425573 -0.00597606
v 0.04113178 -0.00481557 -0.00578356
v 0.04080608 -0.00449051 -0.00612288
v 0.04072343 -0.00389229 -0.00654541
v 0.04072343 -0.00348144 -0.00677054
v 0.03615864 -0.00445890 -0.00725669
v 0.03629962 -0.00403451 -0.00743778
v 0.00765663 -0.01236439 -0.00171326
v 0.00733092 -0.01231021 -0.00171326
v 0.04240545 -0.00606619 -0.00376065
v 0.04220614 -0.00575015 -0.00427616
v 0.04154500 -0.00511130 -0.00528272
v 0.04209919 -0.00495779 -0.00511632
v 0.04154500 -0.00466658 -0.00569057
v 0.00726286 -0.01234408 -0.00127769
v 0.00685451 -0.01208447 -0.00127769
v -0.00404946 -0.00415415 0.00691021
v -0.00443351 -0.00358754 0.00691021
v 0.00678159 -0.01215445 -0.00045873
v -0.00354874 -0.00456274 0.00691021
v -0.00564884 -0.00168904 0.00691021
v -0.00560995 -0.00162132 0.00737515
v -0.00515298 -0.00191704 0.00748445
v -0.00514812 -0.00112695 0.00760518
v -0.00514812 -0.00031427 0.00760191
v -0.00490992 0.00214180 0.00746488
v -0.00433142 0.00214180 0.00762965
v -0.00433142 0.00132461 0.00765086
v -0.00433142 -0.00112695 0.00765086
v -0.00433142 -0.00194865 0.00764922
v 0.03416063 -0.00031879 0.00837029
v 0.03416063 0.00050291 0.00832298
v 0.02597414 0.00541958 0.00768185
v 0.02679085 0.00623902 0.00749261
v 0.03416063 0.00113273 0.00819900
v 0.03579890 -0.00098473 0.00818921
v 0.03625587 -0.00082671 0.00815332
v 0.03416063 -0.00112695 0.00830667
v 0.03663019 -0.00195316 0.00791514
v 0.04054356 -0.00165970 0.00736863
v 0.04108803 -0.00151522 0.00730990
v 0.04197766 -0.00403225 0.00570625
v 0.04284297 -0.00495779 0.00422496
v 0.04116095 -0.00320603 0.00651868
v 0.04352842 -0.00522642 0.00221673
v 0.04285756 -0.00572983 0.00337012
v 0.04299854 -0.00590365 0.00281055
v 0.04323188 -0.00608876 0.00204217
v 0.04351870 -0.00638900 0.00051683
v 0.04275547 -0.00644769 0.00238476
v 0.04290617 -0.00654024 0.00183499
v 0.04302770 -0.00660797 0.00117591
v 0.04359162 -0.00646349 -0.00002152
v 0.04236170 -0.00704139 0.00035533
v 0.04325619 -0.00662151 -0.00042937
v 0.04236170 -0.00693304 -0.00127769
v 0.04305687 -0.00660120 -0.00127769
v 0.04277492 -0.00645898 -0.00251264
v 0.04347009 -0.00631676 -0.00127769
v 0.04302770 -0.00610230 -0.00282423
v 0.04260477 -0.00638448 -0.00305752
v 0.04083524 -0.00527383 -0.00542465
v 0.03990673 -0.00547700 -0.00561389
v 0.04058731 -0.00493070 -0.00588144
v 0.04154500 -0.00534155 -0.00503638
v 0.03990673 -0.00506615 -0.00597443
v 0.03995534 -0.00437312 -0.00642143
v 0.03615864 -0.00517225 -0.00682601
v 0.00796290 -0.01239600 -0.00171326
v 0.00796290 -0.01245920 -0.00127769
v 0.04206030 -0.00649961 -0.00338543
v 0.04154014 -0.00610230 -0.00413913
v 0.04154014 -0.00587205 -0.00443114
v 0.04055329 -0.00574112 -0.00503638
v 0.04053870 -0.00572080 -0.00506738
v 0.04108803 -0.00561696 -0.00494176
v 0.04154014 -0.00552215 -0.00483899
v 0.00796290 -0.01248855 -0.00045873
v 0.00718994 -0.01235536 -0.00045873
v -0.00399599 -0.00409320 0.00739310
v 0.00681562 -0.01214994 0.00036022
v -0.00311608 -0.00482460 0.00732947
v -0.00488075 -0.00259427 0.00742899
v -0.00415641 -0.00358754 0.00745835
v -0.00351471 -0.00358754 0.00762475
v -0.00351471 -0.00276583 0.00765249
v -0.00269315 -0.00358754 0.00765249
v -0.00186672 -0.00440698 0.00765086
v 0.03252236 -0.00112695 0.00831646
v 0.03334393 -0.00112695 0.00832625
v 0.03504053 -0.00119918 0.00822673
v 0.03410229 -0.00194413 0.00819247
v 0.03579890 -0.00139332 0.00811743
v 0.03334393 -0.00194639 0.00823652
v 0.03579890 -0.00194639 0.00801302
v 0.03498706 -0.00276583 0.00793308
v 0.03498706 -0.00358528 0.00773895
v 0.04077691 -0.00193962 0.00720549
v 0.03498706 -0.00427605 0.00747467
v 0.04072343 -0.00277261 0.00685474
v 0.04215753 -0.00496231 0.00498029
v 0.04154014 -0.00414963 0.00578129
v 0.04154014 -0.00455823 0.00551375
v 0.04238601 -0.00523320 0.00445661
v 0.04261935 -0.00550409 0.00391500
v 0.04072343 -0.00330987 0.00658230
v 0.04072343 -0.00372072 0.00631802
v 0.04235198 -0.00587205 0.00363929
v 0.04291589 -0.00608876 0.00266862
v 0.04243462 -0.00632127 0.00285623
v 0.04157903 -0.00626935 0.00364745
v 0.04100053 -0.00638900 0.00392805
v 0.04133110 -0.00654024 0.00338317
v 0.04157903 -0.00669826 0.00285623
v 0.04098595 -0.00721747 0.00228035
v 0.04129707 -0.00734840 0.00173547
v 0.04243462 -0.00670504 0.00206338
v 0.04239087 -0.00608876 0.00326244
v 0.04184640 -0.00722650 0.00117591
v 0.04236170 -0.00696915 0.00117591
v 0.04143805 -0.00742064 0.00117591
v 0.04190474 -0.00725359 0.00035533
v 0.04236170 -0.00703462 -0.00045547
v 0.04177348 -0.00719715 -0.00127769
v 0.04122901 -0.00731680 -0.00209664
v 0.04163736 -0.00712266 -0.00209664
v 0.04236170 -0.00676599 -0.00209664
v 0.04113665 -0.00727842 -0.00251101
v 0.04103942 -0.00555149 -0.00503638
v 0.03990673 -0.00582013 -0.00520605
v 0.03149662 -0.00976610 -0.00171326
v 0.02487062 -0.01056749 -0.00171326
v 0.01762723 -0.01140273 -0.00171326
v 0.01205614 -0.01200998 -0.00171326
v 0.01019425 -0.01220637 -0.00171326
v 0.01069983 -0.01218154 -0.00150445
v 0.00960603 -0.01230344 -0.00127769
v 0.01042273 -0.01227635 -0.00045873
v 0.00960603 -0.01235085 -0.00045873
v 0.00878446 -0.01242083 -0.00045873
v 0.04072343 -0.00736420 -0.00264641
v 0.04072343 -0.00711589 -0.00305752
v 0.04154014 -0.00658314 -0.00349963
v 0.04154014 -0.00628064 -0.00391073
v 0.00796776 -0.01243437 0.00036022
v 0.00751565 -0.01221089 0.00328039
v 0.00745732 -0.01223572 0.00281545
v 0.00722397 -0.01232602 0.00036022
v 0.00720453 -0.01233956 -0.00002152
v 0.01042273 -0.01227861 0.00036022
v 0.00960603 -0.01233730 0.00036022
v -0.00343693 -0.00437989 0.00743551
v 0.00689340 -0.01210705 0.00117917
v -0.00269315 -0.00492167 0.00740941
v -0.00148268 -0.00564405 0.00733274
v -0.00269315 -0.00440698 0.00757418
v -0.00105488 -0.00522417 0.00755297
v -0.00023331 -0.00522417 0.00758723
v 0.00905184 -0.00899406 0.00734905
v 0.00960117 -0.00850194 0.00742736
v 0.03252236 -0.00194639 0.00824468
v 0.03378145 -0.00237079 0.00814353
v 0.00960117 -0.00900535 0.00735721
v 0.03252236 -0.00245205 0.00816474
v 0.03334393 -0.00241368 0.00815332
v 0.03416063 -0.00358528 0.00783357
v 0.03418980 -0.00447245 0.00750403
v 0.03447662 -0.00479300 0.00730174
v 0.03498706 -0.00468690 0.00724301
v 0.04154014 -0.00511807 0.00510427
v 0.04108803 -0.00561922 0.00484488
v 0.04154014 -0.00552892 0.00471927
v 0.04207002 -0.00569823 0.00414013
v 0.04066510 -0.00442730 0.00587102
v 0.04089844 -0.00471173 0.00561000
v 0.03949351 -0.00399613 0.00650073
v 0.04045606 -0.00651767 0.00412871
v 0.04072343 -0.00665763 0.00364745
v 0.04071857 -0.00707751 0.00278934
v 0.04044148 -0.00732131 0.00250385
v 0.04071857 -0.00744547 0.00200302
v 0.04072343 -0.00769604 0.00117591
v 0.04149638 -0.00743870 0.00035533
v 0.04145263 -0.00740484 -0.00045547
v 0.04136513 -0.00737098 -0.00127769
v 0.04072343 -0.00751771 -0.00209664
v 0.04088872 -0.00638448 -0.00404124
v 0.04034425 -0.00646575 -0.00415544
v 0.03990673 -0.00594203 -0.00503638
v 0.03190983 -0.00968483 -0.00171326
v 0.03200706 -0.00971644 -0.00151750
v 0.03172510 -0.00979093 -0.00125811
v 0.03088895 -0.00991058 -0.00127769
v 0.03007225 -0.01001216 -0.00127769
v 0.02539564 -0.01053362 -0.00154034
v 0.03990673 -0.00623098 -0.00462854
v 0.02187118 -0.01098737 -0.00127769
v 0.01813767 -0.01136436 -0.00159417
v 0.01119082 -0.01214768 -0.00124995
v 0.02105933 -0.01107766 -0.00127769
v 0.01205614 -0.01205287 -0.00127769
v 0.01103040 -0.01221315 -0.00045873
v 0.01206100 -0.01214317 0.00036022
v 0.03547319 -0.00895117 -0.00171326
v 0.03498220 -0.00907307 -0.00171326
v 0.04066023 -0.00666214 -0.00375738
v 0.00796776 -0.01234633 0.00158049
v 0.00796776 -0.01231473 0.00199649
v 0.00774900 -0.01221089 0.00328039
v 0.00878446 -0.01123342 0.00537997
v 0.00845389 -0.01132598 0.00518095
v 0.00811846 -0.01141853 0.00497539
v 0.00757399 -0.01136661 0.00485630
v 0.01104984 -0.01220412 0.00095241
v 0.00960603 -0.01227635 0.00117917
v -0.00179866 -0.00522191 0.00745998
v -0.00105488 -0.00569371 0.00738657
v 0.00810388 -0.01075485 0.00592812
v 0.00820110 -0.00996475 0.00668997
v 0.00878446 -0.01005054 0.00677807
v 0.00877960 -0.00928978 0.00718265
v 0.00960117 -0.00941394 0.00713860
v 0.01013105 -0.00895343 0.00733926
v 0.03334393 -0.00490813 0.00737352
v 0.03334393 -0.00440472 0.00759213
v 0.03334393 -0.00282001 0.00805381
v 0.03393215 -0.00485846 0.00734742
v 0.03481691 -0.00572757 0.00656762
v 0.03504539 -0.00530092 0.00680580
v 0.03231332 -0.00649961 0.00653825
v 0.03285779 -0.00643415 0.00648605
v 0.03416063 -0.00624452 0.00635554
v 0.03916780 -0.00439569 0.00633107
v 0.03894905 -0.00411352 0.00657088
v 0.04035397 -0.00483363 0.00569320
v 0.04071857 -0.00522642 0.00527067
v 0.03990673 -0.00532801 0.00543381
v 0.04054356 -0.00571854 0.00492808
v 0.03416063 -0.00720844 0.00561652
v 0.04154014 -0.00583819 0.00430816
v 0.03429675 -0.00751319 0.00518095
v 0.03535652 -0.00808658 0.00403082
v 0.03500650 -0.00876832 0.00278282
v 0.03528846 -0.00889022 0.00228688
v 0.04072343 -0.00772765 0.00035533
v 0.03543430 -0.00893988 0.00174200
v 0.03498220 -0.00911822 0.00117917
v 0.03498220 -0.00918594 0.00036022
v 0.03498220 -0.00922658 -0.00045873
v 0.04072343 -0.00770282 -0.00002152
v 0.04072343 -0.00761478 -0.00127769
v 0.03559472 -0.00899632 -0.00127769
v 0.03498220 -0.00915660 -0.00127769
v 0.03217234 -0.00974578 -0.00097262
v 0.03334879 -0.00948166 -0.00127769
v 0.03170566 -0.00985640 -0.00045873
v 0.03088895 -0.00997830 -0.00045873
v 0.02569219 -0.01056974 -0.00099383
v 0.02269760 -0.01089030 -0.00127769
v 0.02187118 -0.01105283 -0.00045873
v 0.02105933 -0.01114313 -0.00045873
v 0.01205614 -0.01210479 -0.00045873
v 0.01287771 -0.01205738 0.00036022
v 0.01206100 -0.01209350 0.00117917
v 0.00878446 -0.01226507 0.00199649
v 0.00799693 -0.01224024 0.00285460
v 0.00878446 -0.01196032 0.00363277
v 0.00878446 -0.01163299 0.00445335
v 0.00878446 -0.01141628 0.00497050
v 0.00878446 -0.01132372 0.00518095
v 0.00925115 -0.01219734 0.00244512
v 0.00828861 -0.01218154 0.00315314
v 0.03040768 -0.00972547 0.00236682
v 0.02986321 -0.00975933 0.00247612
v 0.02925068 -0.00979996 0.00258216
v 0.00878446 -0.01082483 0.00600969
v 0.03137022 -0.00893085 0.00406508
v 0.01129291 -0.01216348 0.00120691
v 0.01071927 -0.01218380 0.00149729
v 0.00878446 -0.01046139 0.00642080
v 0.00960117 -0.00997378 0.00673076
v 0.03504539 -0.00601878 0.00628865
v 0.03536624 -0.00562147 0.00649421
v 0.03416063 -0.00679759 0.00594770
v 0.03170566 -0.00695561 0.00622503
v 0.03311544 -0.00730100 0.00571115
v 0.03365505 -0.00725585 0.00566547
v 0.03990673 -0.00491716 0.00575845
v 0.03498706 -0.00664634 0.00583024
v 0.03283349 -0.00807981 0.00483999
v 0.03411202 -0.00756286 0.00518095
v 0.03416549 -0.00755157 0.00518095
v 0.03416549 -0.00794210 0.00463443
v 0.03191955 -0.00887216 0.00394925
v 0.03504539 -0.00832135 0.00370781
v 0.03416549 -0.00883153 0.00303079
v 0.03473913 -0.00894891 0.00248917
v 0.03416549 -0.00917691 0.00199649
v 0.03500650 -0.00900309 0.00200628
v 0.03416549 -0.00929656 0.00117917
v 0.03416549 -0.00936428 0.00036022
v 0.03334393 -0.00954262 0.00036022
v 0.03267792 -0.00968258 0.00036022
v 0.03226471 -0.00976610 0.00036022
v 0.03334879 -0.00955616 -0.00045873
v 0.03225985 -0.00976159 -0.00045873
v 0.03266820 -0.00968483 -0.00045873
v 0.03170566 -0.00986317 -0.00002152
v 0.03088895 -0.00998959 0.00036022
v 0.03007225 -0.01008440 -0.00002152
v 0.02761241 -0.01038915 0.00036022
v 0.02761241 -0.01037560 -0.00045873
v 0.02269760 -0.01095576 -0.00045873
v 0.02351431 -0.01087224 0.00036022
v 0.02269274 -0.01096705 0.00036022
v 0.01287771 -0.01200546 0.00117917
v 0.00960603 -0.01185873 0.00363277
v 0.02797701 -0.00972772 0.00321024
v 0.01123944 -0.01205287 0.00199649
v 0.02269274 -0.01089481 0.00117917
v 0.02106419 -0.01092642 0.00199649
v 0.02376710 -0.01053362 0.00232114
v 0.03088895 -0.00978190 0.00181704
v 0.03088895 -0.00969386 0.00222652
v 0.03170566 -0.00936879 0.00281545
v 0.03088895 -0.00949521 0.00281545
v 0.02761241 -0.01014986 0.00199649
v 0.02842426 -0.01005054 0.00199649
v 0.02925068 -0.00994895 0.00199649
v 0.03088895 -0.00864868 0.00451861
v 0.03088409 -0.00823783 0.00504065
v 0.03006253 -0.00829878 0.00512059
v 0.03006253 -0.00824911 0.00518095
v 0.03006739 -0.00795565 0.00553006
v 0.03088895 -0.00917014 0.00363277
v 0.03166677 -0.00904147 0.00365887
v 0.03306683 -0.00893988 0.00328365
v 0.03334393 -0.00803014 0.00476494
v 0.03228902 -0.00812495 0.00489872
v 0.03170566 -0.00741161 0.00581718
v 0.03088409 -0.00812044 0.00518095
v 0.03416549 -0.00900309 0.00262131
v 0.03252236 -0.00922432 0.00281545
v 0.03168135 -0.00963291 0.00195897
v 0.03252236 -0.00947489 0.00199649
v 0.03334393 -0.00933042 0.00199649
v 0.03193414 -0.00970289 0.00140757
v 0.03218693 -0.00975030 0.00086268
v 0.03226471 -0.00976384 -0.00002152
v 0.03245916 -0.00972772 -0.00002152
v 0.03170566 -0.00986768 0.00036022
v 0.03088895 -0.00990380 0.00117917
v 0.02577483 -0.01057877 0.00090999
v 0.02514772 -0.01068036 0.00036022
v 0.02586233 -0.01059006 -0.00002152
v 0.02351431 -0.01079774 0.00117917
v 0.02480742 -0.01056071 0.00162454
v 0.03138481 -0.00975030 0.00166206
v 0.02679085 -0.01040721 0.00117917
v 0.03168135 -0.00979093 0.00115144
v 0.02510882 -0.01060812 0.00118243
f 1 2 3
f 1 3 4
f 1 4 5
f 1 5 6
f 1 6 7
f 1 7 8
f 1 8 9
f 1 9 10
f 1 10 11
f 1 11 12
f 1 12 13
f 1 13 2
f 2 14 3
f 2 13 14
f 3 14 15
f 3 15 16
f 3 16 17
f 3 17 5
f 3 5 4
f 5 17 18
f 5 18 6
f 6 18 19
f 6 19 8
f 6 8 7
f 8 19 20
f 8 20 9
f 9 21 22
f 9 22 11
f 9 11 10
f 9 20 21
f 11 22 23
f 11 23 24
f 11 24 25
f 11 25 12
f 12 25 26
f 12 26 27
f 12 27 13
f 13 28 29
f 13 29 30
f 13 30 31
f 13 31 32
f 13 32 33
f 13 33 34
f 13 34 35
f 13 35 36
f 13 36 37
f 13 37 14
f 13 27 28
f 14 37 15
f 15 37 38
f 15 38 16
f 16 38 39
f 16 39 40
f 16 40 41
f 16 41 17
f 17 41 18
f 18 41 42
f 18 42 43
f 18 43 19
f 19 44 20
f 19 43 44
f 20 44 21
f 21 44 45
f 21 45 22
f 22 45 46
f 22 46 47
f 22 47 23
f 23 47 48
f 23 48 49
f 23 49 24
f 24 49 50
f 24 50 51
f 24 51 52
f 24 52 53
f 24 53 54
f 24 54 26
f 24 26 25
f 26 54 55
f 26 55 56
f 26 56 57
f 26 57 27
f 27 57 58
f 27 58 96
f 27 96 59
f 27 59 60
f 27 60 28
f 28 60 29
f 29 61 62
f 29 62 63
f 29 63 64
f 29 64 65
f 29 65 66
f 29 66 30
f 29 60 61
f 30 66 67
f 30 67 31
f 31 67 68
f 31 68 69
f 31 69 70
f 31 70 32
f 32 70 69
f 32 69 33
f 33 69 34
f 34 69 71
f 34 71 72
f 34 72 73
f 34 73 35
f 35 73 74
f 35 74 40
f 35 40 36
f 36 38 37
f 36 40 39
f 36 39 38
f 40 42 41
f 40 74 73
f 40 73 75
f 40 75 42
f 42 75 43
f 43 76 44
f 43 75 76
f 44 77 45
f 44 76 77
f 45 77 78
f 45 78 79
f 45 79 80
f 45 80 46
f 46 80 47
f 47 80 50
f 47 50 48
f 48 50 49
f 50 80 81
f 50 81 51
f 51 82 83
f 51 83 84
f 51 84 52
f 51 81 82
f 52 84 85
f 52 85 86
f 52 86 87
f 52 87 53
f 53 87 55
f 53 55 54
f 55 87 132
f 55 132 88
f 55 88 56
f 56 89 90
f 56 90 57
f 56 88 91
f 56 91 89
f 57 90 92
f 57 92 93
f 57 93 94
f 57 94 95
f 57 95 96
f 57 96 58
f 59 96 95
f 59 95 60
f 60 95 97
f 60 97 98
f 60 98 99
f 60 99 61
f 61 99 62
f 62 100 63
f 62 99 101
f 62 101 152
f 62 152 100
f 63 100 64
f 64 100 102
f 64 102 65
f 65 102 103
f 65 103 104
f 65 104 66
f 66 104 105
f 66 105 67
f 67 105 68
f 68 106 71
f 68 71 69
f 68 105 104
f 68 104 103
f 68 103 106
f 71 107 72
f 71 106 108
f 71 108 107
f 72 107 73
f 73 109 75
f 73 107 108
f 73 108 110
f 73 110 111
f 73 111 109
f 75 109 112
f 75 112 76
f 76 112 113
f 76 113 114
f 76 114 77
f 77 114 78
f 78 114 115
f 78 115 79
f 79 115 116
f 79 116 117
f 79 117 80
f 80 117 81
f 81 117 118
f 81 118 119
f 81 119 82
f 82 119 83
f 83 120 121
f 83 121 122
f 83 122 123
f 83 123 84
f 83 119 118
f 83 118 120
f 84 123 85
f 85 124 87
f 85 87 86
f 85 123 125
f 85 125 126
f 85 126 127
f 85 127 128
f 85 128 129
f 85 129 124
f 87 124 130
f 87 130 131
f 87 131 132
f 88 132 133
f 88 133 134
f 88 134 91
f 89 135 136
f 89 136 137
f 89 137 90
f 89 91 135
f 90 137 138
f 90 138 139
f 90 139 140
f 90 140 92
f 91 134 141
f 91 141 142
f 91 142 143
f 91 143 144
f 91 144 135
f 92 140 145
f 92 145 93
f 93 145 146
f 93 146 94
f 94 146 147
f 94 147 148
f 94 148 97
f 94 97 95
f 97 148 149
f 97 149 98
f 98 150 151
f 98 151 101
f 98 101 99
f 98 149 150
f 100 152 153
f 100 153 154
f 100 154 155
f 100 155 156
f 100 156 102
f 101 151 152
f 102 156 155
f 102 155 103
f 103 157 158
f 103 158 159
f 103 159 108
f 103 108 106
f 103 155 157
f 108 159 110
f 109 111 160
f 109 160 161
f 109 161 162
f 109 162 163
f 109 163 164
f 109 164 165
f 109 165 166
f 109 166 167
f 109 167 112
f 110 159 160
f 110 160 111
f 112 167 168
f 112 168 169
f 112 169 113
f 113 169 170
f 113 170 171
f 113 171 115
f 113 115 114
f 115 171 172
f 115 172 116
f 116 172 173
f 116 173 174
f 116 174 175
f 116 175 227
f 116 227 176
f 116 176 177
f 116 177 117
f 117 177 178
f 117 178 120
f 117 120 118
f 120 178 179
f 120 179 121
f 121 179 122
f 122 179 125
f 122 125 123
f 124 129 180
f 124 180 130
f 125 179 181
f 125 181 126
f 126 181 182
f 126 182 183
f 126 183 184
f 126 184 127
f 127 184 185
f 127 185 128
f 128 185 129
f 129 185 186
f 129 186 180
f 130 180 131
f 131 180 187
f 131 187 188
f 131 188 132
f 132 188 187
f 132 187 189
f 132 189 133
f 133 189 190
f 133 190 134
f 134 190 142
f 134 142 141
f 135 144 191
f 135 191 192
f 135 192 193
f 135 193 194
f 135 194 195
f 135 195 136
f 136 195 196
f 136 196 137
f 137 196 197
f 137 197 138
f 138 197 196
f 138 196 198
f 138 198 199
f 138 199 139
f 139 199 140
f 140 199 145
f 142 200 201
f 142 201 202
f 142 202 203
f 142 203 143
f 142 190 200
f 143 203 204
f 143 204 191
f 143 191 144
f 145 199 146
f 146 199 205
f 146 205 206
f 146 206 147
f 147 206 150
f 147 150 149
f 147 149 148
f 150 207 208
f 150 208 151
f 150 206 209
f 150 209 210
f 150 210 207
f 151 211 152
f 151 208 211
f 152 211 212
f 152 212 153
f 153 212 213
f 153 213 214
f 153 214 215
f 153 215 154
f 154 215 216
f 154 216 157
f 154 157 155
f 157 216 158
f 158 217 160
f 158 160 159
f 158 216 217
f 160 217 161
f 161 217 218
f 161 218 162
f 162 218 219
f 162 219 220
f 162 220 221
f 162 221 163
f 163 221 164
f 164 221 165
f 165 221 222
f 165 222 223
f 165 223 166
f 166 223 168
f 166 168 167
f 168 223 224
f 168 224 170
f 168 170 169
f 170 224 225
f 170 225 172
f 170 172 171
f 172 225 222
f 172 222 173
f 173 222 174
f 174 226 227
f 174 227 175
f 174 222 221
f 174 221 228
f 174 228 226
f 176 227 229
f 176 229 230
f 176 230 231
f 176 231 177
f 177 232 233
f 177 233 178
f 177 231 234
f 177 234 232
f 178 233 235
f 178 235 179
f 179 235 181
f 180 186 187
f 181 235 233
f 181 233 236
f 181 236 237
f 181 237 238
f 181 238 182
f 182 239 183
f 182 238 240
f 182 240 241
f 182 241 239
f 183 239 184
f 184 239 242
f 184 242 243
f 184 243 244
f 184 244 245
f 184 245 185
f 185 245 186
f 186 245 246
f 186 246 247
f 186 247 248
f 186 248 249
f 186 249 187
f 187 249 190
f 187 190 189
f 190 249 250
f 190 250 251
f 190 251 200
f 191 204 192
f 192 252 253
f 192 253 254
f 192 254 193
f 192 204 203
f 192 203 202
f 192 202 255
f 192 255 252
f 193 254 256
f 193 256 194
f 194 256 257
f 194 257 258
f 194 258 196
f 194 196 195
f 196 258 259
f 196 259 198
f 198 259 260
f 198 260 205
f 198 205 199
f 200 251 261
f 200 261 201
f 201 261 262
f 201 262 263
f 201 263 264
f 201 264 265
f 201 265 266
f 201 266 267
f 201 267 255
f 201 255 202
f 205 260 268
f 205 268 269
f 205 269 209
f 205 209 206
f 207 210 270
f 207 270 208
f 208 270 212
f 208 212 211
f 209 269 271
f 209 271 210
f 210 271 272
f 210 272 270
f 212 273 213
f 212 270 273
f 213 273 274
f 213 274 275
f 213 275 214
f 214 220 219
f 214 219 218
f 214 218 215
f 214 275 220
f 215 218 217
f 215 217 216
f 220 275 276
f 220 276 221
f 221 276 277
f 221 277 278
f 221 278 279
f 221 279 280
f 221 280 228
f 222 225 224
f 222 224 223
f 226 228 281
f 226 281 282
f 226 282 283
f 226 283 229
f 226 229 227
f 228 280 284
f 228 284 282
f 228 282 281
f 229 283 285
f 229 285 286
f 229 286 287
f 229 287 230
f 230 288 231
f 230 287 289
f 230 289 288
f 231 288 290
f 231 290 234
f 232 291 233
f 232 234 292
f 232 292 293
f 232 293 291
f 233 291 294
f 233 294 295
f 233 295 236
f 234 290 296
f 234 296 297
f 234 297 293
f 234 293 292
f 236 295 298
f 236 298 240
f 236 240 299
f 236 299 237
f 237 299 238
f 238 299 240
f 239 241 242
f 240 300 301
f 240 301 302
f 240 302 303
f 240 303 304
f 240 304 305
f 240 305 306
f 240 306 307
f 240 307 241
f 240 298 308
f 240 308 300
f 241 307 306
f 241 306 309
f 241 309 310
f 241 310 242
f 242 310 243
f 243 310 309
f 243 309 244
f 244 309 311
f 244 311 312
f 244 312 245
f 245 312 313
f 245 313 246
f 246 313 314
f 246 314 315
f 246 315 316
f 246 316 247
f 247 316 317
f 247 317 248
f 248 317 318
f 248 318 251
f 248 251 250
f 248 250 249
f 251 318 261
f 252 255 319
f 252 319 253
f 253 320 258
f 253 258 256
f 253 256 254
f 253 319 265
f 253 265 320
f 255 267 266
f 255 266 319
f 256 258 257
f 258 320 321
f 258 321 322
f 258 322 323
f 258 323 324
f 258 324 325
f 258 325 259
f 259 325 260
f 260 325 326
f 260 326 327
f 260 327 328
f 260 328 329
f 260 329 330
f 260 330 268
f 261 318 331
f 261 331 332
f 261 332 333
f 261 333 334
f 261 334 262
f 262 334 264
f 262 264 263
f 264 334 320
f 264 320 265
f 265 319 266
f 268 335 336
f 268 336 337
f 268 337 338
f 268 338 339
f 268 339 269
f 268 330 340
f 268 340 341
f 268 341 335
f 269 339 271
f 270 272 342
f 270 342 275
f 270 275 274
f 270 274 273
f 271 343 272
f 271 339 338
f 271 338 337
f 271 337 343
f 272 344 342
f 272 343 336
f 272 336 345
f 272 345 344
f 275 342 346
f 275 346 278
f 275 278 277
f 275 277 276
f 278 346 347
f 278 347 348
f 278 348 349
f 278 349 350
f 278 350 280
f 278 280 279
f 280 350 351
f 280 351 284
f 282 284 352
f 282 352 285
f 282 285 283
f 284 351 353
f 284 353 354
f 284 354 355
f 284 355 352
f 285 352 286
f 286 352 356
f 286 356 287
f 287 356 357
f 287 357 289
f 288 289 290
f 289 357 358
f 289 358 359
f 289 359 296
f 289 296 290
f 291 293 360
f 291 360 361
f 291 361 362
f 291 362 363
f 291 363 294
f 293 297 364
f 293 364 365
f 293 365 360
f 294 363 295
f 295 363 298
f 296 359 366
f 296 366 297
f 297 366 364
f 298 363 301
f 298 301 308
f 300 308 301
f 301 363 302
f 302 363 367
f 302 367 303
f 303 367 368
f 303 368 304
f 304 368 369
f 304 369 305
f 305 369 370
f 305 370 371
f 305 371 306
f 306 371 372
f 306 372 311
f 306 311 309
f 311 373 312
f 311 372 373
f 312 373 313
f 313 373 374
f 313 374 375
f 313 375 314
f 314 375 315
f 315 376 318
f 315 318 316
f 315 375 376
f 316 318 317
f 318 376 331
f 320 334 377
f 320 377 378
f 320 378 379
f 320 379 321
f 321 380 381
f 321 381 382
f 321 382 383
f 321 383 384
f 321 384 385
f 321 385 322
f 321 379 386
f 321 386 378
f 321 378 332
f 321 332 380
f 322 385 387
f 322 387 388
f 322 388 323
f 323 388 324
f 324 388 326
f 324 326 325
f 326 389 328
f 326 328 327
f 326 388 390
f 326 390 391
f 326 391 389
f 328 389 392
f 328 392 393
f 328 393 329
f 329 393 330
f 330 393 340
f 331 376 394
f 331 394 395
f 331 395 332
f 332 395 380
f 332 378 396
f 332 396 333
f 333 396 377
f 333 377 334
f 335 397 336
f 335 341 397
f 336 397 398
f 336 398 399
f 336 399 400
f 336 400 401
f 336 401 402
f 336 402 403
f 336 403 345
f 336 343 337
f 340 404 341
f 340 393 404
f 341 404 405
f 341 405 397
f 342 344 346
f 344 345 406
f 344 406 346
f 345 407 406
f 345 403 408
f 345 408 409
f 345 409 410
f 345 410 407
f 346 406 347
f 347 406 407
f 347 407 349
f 347 349 348
f 349 411 410
f 349 410 353
f 349 353 350
f 349 407 411
f 350 353 351
f 352 355 356
f 353 410 412
f 353 412 413
f 353 413 414
f 353 414 357
f 353 357 415
f 353 415 356
f 353 356 416
f 353 416 355
f 353 355 354
f 355 416 356
f 356 415 357
f 357 414 417
f 357 417 358
f 358 418 419
f 358 419 359
f 358 417 420
f 358 420 421
f 358 421 422
f 358 422 418
f 359 419 423
f 359 423 424
f 359 424 366
f 360 365 425
f 360 425 426
f 360 426 361
f 361 367 362
f 361 426 427
f 361 427 428
f 361 428 429
f 361 429 367
f 362 430 363
f 362 367 430
f 363 430 367
f 364 366 425
f 364 425 365
f 366 424 423
f 366 423 425
f 367 431 432
f 367 432 370
f 367 370 368
f 367 429 431
f 368 370 369
f 370 432 433
f 370 433 434
f 370 434 371
f 371 434 372
f 372 435 373
f 372 434 436
f 372 436 437
f 372 437 438
f 372 438 439
f 372 439 435
f 373 435 374
f 374 435 440
f 374 440 441
f 374 441 375
f 375 441 376
f 376 441 442
f 376 442 443
f 376 443 394
f 377 396 378
f 378 386 379
f 380 395 381
f 381 444 382
f 381 395 443
f 381 443 445
f 381 445 444
f 382 444 446
f 382 446 447
f 382 447 383
f 383 447 384
f 384 447 448
f 384 448 449
f 384 449 385
f 385 449 387
f 387 449 448
f 387 448 450
f 387 450 451
f 387 451 390
f 387 390 388
f 389 391 451
f 389 451 452
f 389 452 392
f 390 451 391
f 392 452 453
f 392 453 393
f 393 453 454
f 393 454 404
f 394 443 395
f 397 405 455
f 397 455 398
f 398 455 456
f 398 456 399
f 399 457 458
f 399 458 459
f 399 459 460
f 399 460 400
f 399 456 461
f 399 461 462
f 399 462 463
f 399 463 464
f 399 464 465
f 399 465 457
f 400 466 401
f 400 460 467
f 400 467 466
f 401 466 402
f 402 466 408
f 402 408 403
f 404 468 469
f 404 469 405
f 404 454 468
f 405 469 455
f 407 410 411
f 408 466 470
f 408 470 409
f 409 470 410
f 410 470 471
f 410 471 420
f 410 420 412
f 412 420 417
f 412 417 413
f 413 417 414
f 418 472 473
f 418 473 419
f 418 422 474
f 418 474 472
f 419 473 423
f 420 475 476
f 420 476 477
f 420 477 429
f 420 429 474
f 420 474 421
f 420 471 470
f 420 470 475
f 421 474 422
f 423 478 425
f 423 473 478
f 425 478 427
f 425 427 426
f 427 478 479
f 427 479 428
f 428 479 429
f 429 477 480
f 429 480 481
f 429 481 482
f 429 482 431
f 429 479 474
f 431 482 432
f 432 482 483
f 432 483 467
f 432 467 484
f 432 484 485
f 432 485 433
f 433 485 486
f 433 486 487
f 433 487 434
f 434 487 488
f 434 488 489
f 434 489 436
f 435 439 440
f 436 489 437
f 437 489 490
f 437 490 491
f 437 491 438
f 438 491 439
f 439 443 442
f 439 442 441
f 439 441 440
f 439 491 492
f 439 492 493
f 439 493 494
f 439 494 495
f 439 495 443
f 443 495 444
f 443 444 445
f 444 496 446
f 444 495 497
f 444 497 496
f 446 496 498
f 446 498 447
f 447 499 500
f 447 500 501
f 447 501 502
f 447 502 448
f 447 498 499
f 448 502 503
f 448 503 450
f 450 503 504
f 450 504 505
f 450 505 451
f 451 453 452
f 451 505 453
f 453 505 506
f 453 506 454
f 454 506 461
f 454 461 469
f 454 469 468
f 455 469 461
f 455 461 456
f 457 465 507
f 457 507 458
f 458 507 508
f 458 508 459
f 459 508 467
f 459 467 460
f 461 506 509
f 461 509 462
f 462 509 510
f 462 510 511
f 462 511 512
f 462 512 463
f 463 513 514
f 463 514 515
f 463 515 516
f 463 516 464
f 463 512 517
f 463 517 518
f 463 518 519
f 463 519 513
f 464 516 465
f 465 516 508
f 465 508 507
f 466 467 520
f 466 520 521
f 466 521 522
f 466 522 523
f 466 523 524
f 466 524 470
f 467 508 525
f 467 525 516
f 467 516 515
f 467 515 526
f 467 526 527
f 467 527 484
f 467 483 528
f 467 528 480
f 467 480 529
f 467 529 521
f 467 521 520
f 470 524 476
f 470 476 530
f 470 530 475
f 472 478 473
f 472 474 478
f 474 479 478
f 475 530 476
f 476 524 477
f 477 524 531
f 477 531 529
f 477 529 480
f 480 528 481
f 481 528 482
f 482 528 483
f 484 527 486
f 484 486 485
f 486 527 487
f 487 527 532
f 487 532 533
f 487 533 515
f 487 515 514
f 487 514 534
f 487 534 535
f 487 535 536
f 487 536 488
f 488 536 537
f 488 537 538
f 488 538 489
f 489 538 490
f 490 538 492
f 490 492 491
f 492 538 493
f 493 538 494
f 494 539 540
f 494 540 495
f 494 538 541
f 494 541 539
f 495 540 497
f 496 497 540
f 496 540 539
f 496 539 541
f 496 541 498
f 498 541 499
f 499 542 543
f 499 543 501
f 499 501 500
f 499 541 538
f 499 538 542
f 501 543 544
f 501 544 545
f 501 545 502
f 502 545 503
f 503 544 504
f 503 545 544
f 504 544 543
f 504 543 505
f 505 543 506
f 506 543 510
f 506 510 509
f 508 516 525
f 510 546 547
f 510 547 511
f 510 543 546
f 511 547 517
f 511 517 512
f 513 519 518
f 513 518 542
f 513 542 548
f 513 548 514
f 514 548 534
f 515 533 526
f 517 547 549
f 517 549 518
f 518 549 542
f 521 529 531
f 521 531 523
f 521 523 522
f 523 531 524
f 526 533 527
f 527 533 532
f 534 548 536
f 534 536 535
f 536 548 537
f 537 548 550
f 537 550 538
f 538 550 542
f 542 550 548
f 542 549 543
f 543 549 551
f 543 551 546
f 546 551 547
f 547 551 549

