# https://github.com/mikedh/trimesh
v 0.02433698 0.01077626 -0.00503731
v 0.02433698 0.01033699 -0.00540779
v 0.02351895 0.00990207 -0.00576515
v 0.02351895 0.01076322 -0.00503731
v 0.02515975 0.01073712 -0.00503731
v 0.02433698 0.00990642 -0.00577020
v 0.02433698 0.00949759 -0.00606026
v 0.00877542 0.00833634 -0.00664543
v 0.00828365 0.00832982 -0.00663937
v 0.00877542 0.00916705 -0.00584625
v 0.00871395 0.00964546 -0.00530449
v 0.00846807 0.00986510 -0.00503731
v 0.02597778 0.01068928 -0.00503731
v 0.02515975 0.01033699 -0.00537145
v 0.02515975 0.00988032 -0.00574967
v 0.02515975 0.00946932 -0.00605286
v 0.02515975 0.00887782 -0.00646271
v 0.00877542 0.00787967 -0.00686852
v 0.02597778 0.00845595 -0.00672181
v 0.02597778 0.00787967 -0.00704619
v 0.00085042 0.00585728 -0.00745369
v 0.00759802 0.00909528 -0.00577962
v 0.00814180 0.00913878 -0.00581865
v 0.00815125 0.00984118 -0.00503731
v 0.02649319 0.01063056 -0.00503731
v 0.02597778 0.01033699 -0.00532401
v 0.02597778 0.00983900 -0.00572107
v 0.02597778 0.00943018 -0.00602022
v 0.02597778 0.00886695 -0.00642973
v 0.00959345 0.00652706 -0.00738101
v 0.02597778 0.00714465 -0.00733995
v 0.02664450 0.00838636 -0.00667638
v 0.02686674 0.00795578 -0.00688165
v 0.02683837 0.00704462 -0.00732582
v 0.00057616 0.00546585 -0.00753344
v -0.00187794 0.00513748 -0.00752839
v -0.00253047 0.00507876 -0.00748633
v 0.00959345 0.00611606 -0.00752166
v 0.00794793 0.00982378 -0.00503731
v 0.00790537 0.00944105 -0.00545457
v 0.02671543 0.01036744 -0.00519176
v 0.02679581 0.00974984 -0.00565680
v 0.02681946 0.01050879 -0.00503731
v 0.02659249 0.00675974 -0.00744797
v 0.02679581 0.00934102 -0.00595359
v 0.02718828 0.00828198 -0.00660134
v 0.04154407 -0.00045129 -0.00757113
v 0.03466407 0.00104050 -0.00830704
v 0.03417231 0.00117532 -0.00833968
v -0.00105518 0.00460252 -0.00765424
v -0.00187794 0.00460252 -0.00764314
v 0.01041622 0.00542235 -0.00765559
v -0.00276217 0.00467211 -0.00755397
v -0.00326340 0.00444595 -0.00750181
v -0.00306480 0.00498308 -0.00701524
v -0.00265815 0.00516575 -0.00701524
v 0.02597778 0.00542235 -0.00772019
v -0.00258722 0.00520054 -0.00619620
v -0.00244063 0.00512661 -0.00570963
v 0.00721028 0.00945845 -0.00503731
v 0.02738215 0.00921924 -0.00586442
v 0.02724029 0.01029785 -0.00503731
v 0.02679581 0.00542235 -0.00771447
v 0.04202165 -0.00057959 -0.00747724
v 0.04161500 -0.00119501 -0.00758795
v 0.04072604 -0.00113195 -0.00773265
v 0.03499034 -0.00031429 -0.00843996
v 0.03417231 0.00050554 -0.00846217
v 0.03495724 0.00046205 -0.00836021
v -0.00269597 0.00378269 -0.00765491
v 0.02679581 0.00460252 -0.00785748
v -0.00351401 0.00296286 -0.00765222
v -0.00352819 0.00379356 -0.00756070
v -0.00403414 0.00352826 -0.00749777
v -0.00381191 0.00407409 -0.00718113
v -0.00352819 0.00450249 -0.00695096
v -0.00393485 0.00420239 -0.00663533
v -0.00393485 0.00420239 -0.00656500
v -0.00299860 0.00491132 -0.00619620
v -0.00383555 0.00410236 -0.00601887
v -0.00328704 0.00435027 -0.00570862
v -0.00270543 0.00461557 -0.00564670
v -0.00438406 0.00301288 -0.00564603
v -0.00433204 0.00214303 -0.00555215
v 0.00711571 0.00927795 -0.00503731
v 0.02739161 0.01011518 -0.00512143
v 0.04220134 -0.00040780 -0.00503731
v 0.04220134 -0.00040780 -0.00619620
v 0.04212568 -0.00045781 -0.00701524
v 0.04214932 -0.00119501 -0.00708657
v 0.04202165 -0.00096450 -0.00747724
v 0.04193654 -0.00151033 -0.00740692
v 0.04138803 -0.00172779 -0.00750181
v 0.04072604 -0.00188436 -0.00756709
v 0.03662641 -0.00194960 -0.00808933
v 0.03618193 -0.00151903 -0.00824075
v 0.03586985 -0.00119936 -0.00831613
v 0.03631906 -0.00097320 -0.00828214
v 0.03631906 -0.00066005 -0.00828214
v 0.03499034 -0.00113195 -0.00838276
v 0.03417231 -0.00031429 -0.00847462
v -0.00433204 0.00132537 -0.00765592
v -0.00433204 0.00214303 -0.00763170
v -0.00431786 0.00292589 -0.00754151
v -0.00480017 0.00262797 -0.00746917
v -0.00461102 0.00320859 -0.00701524
v -0.00415236 0.00379356 -0.00695096
v -0.00492784 0.00279976 -0.00701524
v -0.00502241 0.00290849 -0.00619620
v -0.00469141 0.00331732 -0.00619620
v -0.00421856 0.00381096 -0.00625374
v -0.00354238 0.00444595 -0.00625374
v -0.00492311 0.00277367 -0.00570828
v -0.00414290 0.00355653 -0.00570862
v -0.00504132 0.00214303 -0.00566925
v -0.00515481 -0.00031429 -0.00562281
v -0.00433204 -0.00113195 -0.00555282
v 0.00686510 0.00842985 -0.00503731
v 0.00687928 0.00871907 -0.00503731
v 0.04233846 -0.00113195 -0.00503731
v 0.04234319 -0.00113195 -0.00537683
v 0.04233846 -0.00113195 -0.00619620
v 0.04248978 -0.00404376 -0.00503731
v 0.04244722 -0.00439170 -0.00503731
v 0.04158190 -0.00359796 -0.00638161
v 0.04133129 -0.00333049 -0.00668883
v 0.04229118 -0.00475051 -0.00503731
v 0.04198855 -0.00406986 -0.00583649
v 0.04072604 -0.00276943 -0.00715253
v 0.04072604 -0.00229319 -0.00739480
v 0.03580838 -0.00414162 -0.00748364
v 0.03499034 -0.00358927 -0.00784369
v 0.03499034 -0.00276943 -0.00810010
v 0.03586985 -0.00194090 -0.00818927
v 0.03563815 -0.00166255 -0.00826633
v 0.03499034 -0.00180825 -0.00828484
v 0.03441819 -0.00231929 -0.00823874
v 0.03415339 -0.00200832 -0.00829089
v 0.03417231 -0.00113195 -0.00840732
v 0.03334955 -0.00113195 -0.00841842
v 0.03253151 -0.00113195 -0.00841102
v -0.00187794 -0.00440910 -0.00765390
v -0.00351401 -0.00276943 -0.00765458
v -0.00433204 -0.00194960 -0.00765189
v -0.00433204 -0.00113195 -0.00765525
v -0.00515481 0.00050554 -0.00762799
v -0.00522573 0.00139713 -0.00756305
v -0.00497512 0.00214303 -0.00751628
v -0.00565603 0.00117097 -0.00750080
v -0.00554727 0.00171680 -0.00740456
v -0.00537232 0.00214520 -0.00708489
v -0.00563239 0.00187338 -0.00685843
v -0.00563239 0.00187338 -0.00639844
v -0.00542433 0.00214520 -0.00615347
v -0.00551890 0.00132537 -0.00583750
v -0.00556146 0.00090350 -0.00578904
v -0.00558510 0.00035767 -0.00576482
v -0.00560874 -0.00031429 -0.00573991
v -0.00515481 -0.00113195 -0.00563762
v -0.00433204 -0.00194960 -0.00555316
v 0.00705424 -0.01014139 -0.00503731
v 0.04154407 -0.00425687 -0.00597748
v 0.04113269 -0.00481792 -0.00578635
v 0.04080642 -0.00448956 -0.00612419
v 0.04072604 -0.00389154 -0.00654616
v 0.04072604 -0.00348053 -0.00677262
v 0.04214459 -0.00500494 -0.00503731
v 0.04209731 -0.00495927 -0.00511773
v 0.04154407 -0.00466788 -0.00569449
v 0.03580838 -0.00455045 -0.00730900
v 0.03499034 -0.00471572 -0.00738000
v 0.03499034 -0.00430689 -0.00755329
v 0.03451276 -0.00480270 -0.00741802
v 0.03417231 -0.00358927 -0.00793892
v 0.03499034 -0.00221708 -0.00821922
v 0.03415339 -0.00270202 -0.00818187
v 0.03387441 -0.00238235 -0.00824816
v 0.03334955 -0.00194960 -0.00832151
v 0.03253151 -0.00194960 -0.00832824
v 0.00959345 -0.00850608 -0.00733356
v -0.00187794 -0.00510280 -0.00753950
v -0.00274799 -0.00446129 -0.00756238
v -0.00351401 -0.00358927 -0.00763271
v -0.00433204 -0.00276943 -0.00761824
v -0.00566549 0.00050554 -0.00751224
v -0.00581680 0.00050554 -0.00701524
v -0.00571277 0.00139713 -0.00708489
v -0.00568440 0.00132537 -0.00624701
v -0.00569386 0.00058165 -0.00611578
v -0.00573641 -0.00031429 -0.00619620
v -0.00559456 -0.00113195 -0.00575472
v -0.00513589 -0.00187132 -0.00569213
v -0.00441716 -0.00284989 -0.00564670
v -0.00351401 -0.00358927 -0.00556023
v 0.00723865 -0.01087859 -0.00503731
v 0.04083952 -0.00527459 -0.00542731
v 0.03990800 -0.00547683 -0.00561676
v 0.04058891 -0.00493100 -0.00588259
v 0.04154407 -0.00511367 -0.00528497
v 0.03990800 -0.00506583 -0.00597546
v 0.03558141 -0.00574214 -0.00667100
v 0.03583675 -0.00528547 -0.00687963
v 0.04154407 -0.00534418 -0.00503731
v 0.03499034 -0.00522893 -0.00710171
v 0.03421013 -0.00516804 -0.00724136
v 0.03396425 -0.00485489 -0.00744393
v 0.03421013 -0.00448086 -0.00757887
v 0.03334955 -0.00358927 -0.00796617
v 0.03334955 -0.00440910 -0.00766198
v 0.00959345 -0.00932373 -0.00708489
v 0.03334955 -0.00281075 -0.00817379
v 0.03334955 -0.00239975 -0.00825186
v -0.00079511 -0.00564645 -0.00743518
v -0.00134362 -0.00561383 -0.00735240
v -0.00250683 -0.00494840 -0.00750147
v 0.00877542 -0.00932373 -0.00700548
v 0.00877542 -0.00996525 -0.00673123
v -0.00351401 -0.00420903 -0.00751796
v -0.00401050 -0.00405681 -0.00747253
v -0.00430367 -0.00354577 -0.00751863
v -0.00477652 -0.00324350 -0.00745705
v -0.00483327 -0.00276943 -0.00750315
v -0.00490419 -0.00194960 -0.00753714
v -0.00560401 -0.00007291 -0.00746580
v -0.00568913 -0.00033169 -0.00705023
v -0.00562293 -0.00095145 -0.00680055
v -0.00562293 -0.00118849 -0.00613597
v -0.00556619 -0.00154512 -0.00578467
v -0.00485691 -0.00263243 -0.00570929
v -0.00420437 -0.00358927 -0.00567665
v -0.00402469 -0.00408725 -0.00571804
v 0.00749399 -0.01115911 -0.00503731
v 0.04131237 -0.00543987 -0.00503731
v 0.04103812 -0.00555295 -0.00503731
v 0.04054163 -0.00572039 -0.00506827
v 0.03990800 -0.00582042 -0.00520690
v 0.03499034 -0.00742964 -0.00513759
v 0.03499034 -0.00708170 -0.00554744
v 0.03499034 -0.00667070 -0.00601349
v 0.03499034 -0.00624882 -0.00642334
v 0.03499034 -0.00583782 -0.00673729
v 0.03417231 -0.00591393 -0.00679079
v 0.00959345 -0.00994785 -0.00674705
v -0.00305534 -0.00476791 -0.00729621
v 0.00877542 -0.01037407 -0.00648761
v 0.00812761 -0.01073071 -0.00599733
v 0.00765003 -0.01129176 -0.00503731
v -0.00410034 -0.00412640 -0.00701524
v -0.00451172 -0.00371539 -0.00701524
v -0.00480962 -0.00330656 -0.00701524
v -0.00501295 -0.00276943 -0.00701524
v -0.00555200 -0.00149946 -0.00636916
v -0.00556619 -0.00154512 -0.00582303
v -0.00480017 -0.00328482 -0.00633518
v -0.00474342 -0.00317826 -0.00578871
v -0.00456374 -0.00356969 -0.00611578
v -0.00410980 -0.00415032 -0.00619620
v -0.00308844 -0.00480053 -0.00584793
v 0.04055108 -0.00573996 -0.00503731
v 0.04011606 -0.00588131 -0.00503731
v 0.03417231 -0.00776888 -0.00503731
v 0.03417231 -0.00756012 -0.00528194
v 0.03417231 -0.00718826 -0.00569180
v 0.03417231 -0.00677943 -0.00609660
v 0.03417231 -0.00632493 -0.00650645
v 0.00959345 -0.01035885 -0.00640584
v 0.03171348 -0.00743399 -0.00592701
v -0.00274799 -0.00502016 -0.00701995
v -0.00314046 -0.00484185 -0.00675041
v 0.00877542 -0.01078073 -0.00607776
v 0.00814180 -0.01142441 -0.00507096
v 0.00799994 -0.01140702 -0.00503731
v -0.00314046 -0.00484185 -0.00639406
v -0.00345254 -0.00460046 -0.00615111
v 0.03309893 -0.00797330 -0.00503731
v 0.03361907 -0.00724697 -0.00575472
v 0.03257407 -0.00782977 -0.00532098
v 0.03334955 -0.00757969 -0.00543976
v 0.03307529 -0.00730351 -0.00581462
v 0.03253151 -0.00736005 -0.00586644
v 0.03089071 -0.00789718 -0.00556325
v 0.03171348 -0.00784282 -0.00548519
v 0.00877542 -0.01118956 -0.00547644
v 0.03089071 -0.00824077 -0.00515374
v 0.03089071 -0.00832993 -0.00503731
v 0.00818435 -0.01143964 -0.00503731
v 0.00812288 -0.01143529 -0.00503731
v 0.00877542 -0.01142224 -0.00506692
v 0.03280576 -0.00802549 -0.00503731
v 0.03234710 -0.00810377 -0.00503731
v 0.03207757 -0.00814944 -0.00503731
v 0.03171348 -0.00817771 -0.00507533
v 0.00899766 -0.01140919 -0.00503731
v 0.03170875 -0.00820815 -0.00503731
v 0.00877542 -0.01143529 -0.00503731
f 1 2 3
f 1 3 4
f 1 4 12
f 1 12 24
f 1 24 39
f 1 39 60
f 1 60 85
f 1 85 119
f 1 119 118
f 1 118 161
f 1 161 195
f 1 195 232
f 1 232 247
f 1 247 272
f 1 272 287
f 1 287 286
f 1 286 295
f 1 295 293
f 1 293 285
f 1 285 294
f 1 294 291
f 1 291 290
f 1 290 289
f 1 289 275
f 1 275 261
f 1 261 260
f 1 260 259
f 1 259 234
f 1 234 233
f 1 233 203
f 1 203 167
f 1 167 127
f 1 127 124
f 1 124 123
f 1 123 120
f 1 120 87
f 1 87 62
f 1 62 43
f 1 43 25
f 1 25 13
f 1 13 5
f 1 5 2
f 2 6 3
f 2 5 6
f 3 6 7
f 3 7 8
f 3 8 9
f 3 9 4
f 4 9 10
f 4 10 11
f 4 11 12
f 5 13 14
f 5 14 6
f 6 14 15
f 6 15 16
f 6 16 7
f 7 16 17
f 7 17 8
f 8 18 9
f 8 17 19
f 8 19 20
f 8 20 18
f 9 18 21
f 9 21 22
f 9 22 23
f 9 23 10
f 10 23 24
f 10 24 11
f 11 24 12
f 13 25 26
f 13 26 15
f 13 15 14
f 15 26 27
f 15 27 16
f 16 27 28
f 16 28 29
f 16 29 19
f 16 19 17
f 18 30 21
f 18 20 31
f 18 31 30
f 19 29 32
f 19 32 20
f 20 32 33
f 20 33 34
f 20 34 31
f 21 35 36
f 21 36 37
f 21 37 22
f 21 30 38
f 21 38 35
f 22 39 40
f 22 40 23
f 22 37 39
f 23 40 39
f 23 39 24
f 25 41 42
f 25 42 27
f 25 27 26
f 25 43 41
f 27 42 28
f 28 42 32
f 28 32 29
f 30 31 38
f 31 34 44
f 31 44 38
f 32 42 45
f 32 45 46
f 32 46 33
f 33 46 47
f 33 47 34
f 34 47 48
f 34 48 49
f 34 49 44
f 35 50 51
f 35 51 36
f 35 38 52
f 35 52 50
f 36 51 37
f 37 51 53
f 37 53 54
f 37 54 55
f 37 55 56
f 37 56 39
f 38 44 57
f 38 57 52
f 39 56 58
f 39 58 59
f 39 59 60
f 41 43 61
f 41 61 42
f 42 61 45
f 43 62 61
f 44 49 63
f 44 63 57
f 45 61 46
f 46 61 47
f 47 64 65
f 47 65 66
f 47 66 67
f 47 67 68
f 47 68 69
f 47 69 48
f 47 61 64
f 48 69 68
f 48 68 49
f 49 68 63
f 50 52 68
f 50 68 51
f 51 70 53
f 51 68 70
f 52 57 71
f 52 71 68
f 53 72 73
f 53 73 54
f 53 70 72
f 54 73 74
f 54 74 75
f 54 75 55
f 55 75 76
f 55 76 77
f 55 77 78
f 55 78 79
f 55 79 58
f 55 58 56
f 57 63 71
f 58 79 59
f 59 79 80
f 59 80 81
f 59 81 82
f 59 82 60
f 60 82 83
f 60 83 84
f 60 84 85
f 61 62 86
f 61 86 64
f 62 87 88
f 62 88 89
f 62 89 64
f 62 64 86
f 63 68 71
f 64 89 90
f 64 90 91
f 64 91 65
f 65 92 93
f 65 93 94
f 65 94 66
f 65 91 92
f 66 94 95
f 66 95 96
f 66 96 97
f 66 97 98
f 66 98 99
f 66 99 67
f 67 99 98
f 67 98 97
f 67 97 100
f 67 100 101
f 67 101 68
f 68 101 72
f 68 72 70
f 72 102 103
f 72 103 73
f 72 101 102
f 73 104 74
f 73 103 104
f 74 104 105
f 74 105 75
f 75 105 106
f 75 106 107
f 75 107 77
f 75 77 76
f 77 107 106
f 77 106 108
f 77 108 109
f 77 109 110
f 77 110 78
f 78 110 111
f 78 111 80
f 78 80 112
f 78 112 79
f 79 112 80
f 80 111 110
f 80 110 113
f 80 113 114
f 80 114 81
f 81 114 82
f 82 114 83
f 83 114 113
f 83 113 84
f 84 113 115
f 84 115 116
f 84 116 117
f 84 117 118
f 84 118 119
f 84 119 85
f 87 120 121
f 87 121 88
f 88 121 122
f 88 122 89
f 89 122 90
f 90 122 123
f 90 123 124
f 90 124 91
f 91 124 92
f 92 125 126
f 92 126 93
f 92 124 127
f 92 127 128
f 92 128 125
f 93 126 129
f 93 129 130
f 93 130 94
f 94 130 131
f 94 131 132
f 94 132 133
f 94 133 95
f 95 133 134
f 95 134 96
f 96 134 135
f 96 135 97
f 97 135 100
f 100 136 137
f 100 137 138
f 100 138 139
f 100 139 101
f 100 135 136
f 101 139 140
f 101 140 141
f 101 141 142
f 101 142 143
f 101 143 144
f 101 144 145
f 101 145 102
f 102 145 146
f 102 146 103
f 103 146 147
f 103 147 104
f 104 147 148
f 104 148 105
f 105 148 149
f 105 149 150
f 105 150 106
f 106 150 108
f 108 150 151
f 108 151 152
f 108 152 109
f 109 152 153
f 109 153 154
f 109 154 113
f 109 113 110
f 113 154 155
f 113 155 115
f 115 155 156
f 115 156 157
f 115 157 158
f 115 158 116
f 116 158 159
f 116 159 160
f 116 160 117
f 117 160 118
f 118 160 161
f 120 123 121
f 121 123 122
f 125 162 126
f 125 128 162
f 126 162 163
f 126 163 164
f 126 164 165
f 126 165 166
f 126 166 129
f 127 167 128
f 128 167 168
f 128 168 169
f 128 169 162
f 129 166 170
f 129 170 130
f 130 170 131
f 131 170 171
f 131 171 172
f 131 172 132
f 132 172 173
f 132 173 174
f 132 174 133
f 133 175 134
f 133 174 176
f 133 176 175
f 134 175 135
f 135 175 136
f 136 175 137
f 137 175 176
f 137 176 177
f 137 177 138
f 138 177 178
f 138 178 139
f 139 178 140
f 140 178 179
f 140 179 141
f 141 179 142
f 142 180 181
f 142 181 182
f 142 182 183
f 142 183 143
f 142 179 180
f 143 183 144
f 144 183 184
f 144 184 146
f 144 146 145
f 146 185 149
f 146 149 147
f 146 184 185
f 147 149 148
f 149 185 186
f 149 186 187
f 149 187 150
f 150 187 152
f 150 152 151
f 152 187 153
f 153 187 186
f 153 186 188
f 153 188 155
f 153 155 154
f 155 188 156
f 156 188 189
f 156 189 157
f 157 189 158
f 158 189 190
f 158 190 191
f 158 191 159
f 159 192 160
f 159 191 192
f 160 192 193
f 160 193 194
f 160 194 195
f 160 195 161
f 162 169 163
f 163 196 197
f 163 197 198
f 163 198 164
f 163 169 199
f 163 199 196
f 164 198 200
f 164 200 201
f 164 201 165
f 165 201 202
f 165 202 170
f 165 170 166
f 167 203 168
f 168 203 199
f 168 199 169
f 170 202 204
f 170 204 171
f 171 204 173
f 171 173 172
f 173 205 206
f 173 206 207
f 173 207 174
f 173 204 205
f 174 208 176
f 174 207 209
f 174 209 210
f 174 210 180
f 174 180 208
f 176 208 180
f 176 180 211
f 176 211 177
f 177 211 212
f 177 212 178
f 178 212 179
f 179 212 180
f 180 210 181
f 180 212 211
f 181 213 214
f 181 214 215
f 181 215 182
f 181 210 216
f 181 216 217
f 181 217 213
f 182 215 183
f 183 215 218
f 183 218 219
f 183 219 220
f 183 220 184
f 184 221 222
f 184 222 223
f 184 223 185
f 184 220 221
f 185 224 186
f 185 223 222
f 185 222 224
f 186 190 189
f 186 189 188
f 186 224 225
f 186 225 226
f 186 226 227
f 186 227 190
f 190 227 228
f 190 228 191
f 191 228 192
f 192 228 229
f 192 229 193
f 193 229 230
f 193 230 194
f 194 230 231
f 194 231 232
f 194 232 195
f 196 199 203
f 196 203 233
f 196 233 234
f 196 234 197
f 197 200 198
f 197 234 235
f 197 235 236
f 197 236 237
f 197 237 238
f 197 238 239
f 197 239 240
f 197 240 200
f 200 240 201
f 201 240 241
f 201 241 204
f 201 204 202
f 204 241 205
f 205 241 242
f 205 242 243
f 205 243 206
f 206 209 207
f 206 243 210
f 206 210 209
f 210 243 217
f 210 217 216
f 213 217 214
f 214 244 215
f 214 217 245
f 214 245 246
f 214 246 247
f 214 247 244
f 215 244 219
f 215 219 218
f 217 243 245
f 219 248 249
f 219 249 221
f 219 221 220
f 219 244 248
f 221 250 251
f 221 251 252
f 221 252 226
f 221 226 224
f 221 224 222
f 221 249 250
f 224 226 225
f 226 252 227
f 227 252 253
f 227 253 228
f 228 250 254
f 228 254 255
f 228 255 229
f 228 253 250
f 229 255 231
f 229 231 230
f 231 255 256
f 231 256 257
f 231 257 258
f 231 258 247
f 231 247 232
f 234 259 235
f 235 259 260
f 235 260 236
f 236 260 261
f 236 261 237
f 237 261 238
f 238 261 262
f 238 262 239
f 239 262 263
f 239 263 264
f 239 264 240
f 240 264 265
f 240 265 241
f 241 265 242
f 242 265 243
f 243 266 245
f 243 265 267
f 243 267 266
f 244 268 269
f 244 269 248
f 244 247 268
f 245 266 270
f 245 270 246
f 246 270 271
f 246 271 272
f 246 272 247
f 247 258 273
f 247 273 269
f 247 269 268
f 248 269 257
f 248 257 249
f 249 257 256
f 249 256 254
f 249 254 250
f 250 253 252
f 250 252 251
f 254 256 255
f 257 269 273
f 257 273 274
f 257 274 258
f 258 274 273
f 261 275 262
f 262 276 263
f 262 275 277
f 262 277 278
f 262 278 279
f 262 279 276
f 263 276 264
f 264 276 279
f 264 279 280
f 264 280 265
f 265 280 267
f 266 267 281
f 266 281 270
f 267 280 282
f 267 282 281
f 270 283 271
f 270 281 282
f 270 282 284
f 270 284 285
f 270 285 283
f 271 286 287
f 271 287 272
f 271 283 288
f 271 288 286
f 275 289 277
f 277 279 278
f 277 289 282
f 277 282 280
f 277 280 279
f 282 289 290
f 282 290 291
f 282 291 292
f 282 292 284
f 283 293 288
f 283 285 293
f 284 292 294
f 284 294 285
f 286 288 295
f 288 293 295
f 291 294 292

