# https://github.com/mikedh/trimesh
v 0.02433438 0.01268293 -0.00045939
v 0.02433438 0.01256777 -0.00127832
v 0.02351638 0.01257482 -0.00127832
v 0.02351638 0.01265473 -0.00045939
v 0.02351638 0.01262417 0.00035822
v 0.02433438 0.01263828 0.00035822
v 0.02515238 0.01260772 0.00035822
v 0.02515238 0.01264533 -0.00045939
v 0.02433438 0.01242910 -0.00185183
v 0.02351638 0.01245260 -0.00193320
v 0.02515238 0.01251841 -0.00127832
v 0.02269414 0.01244555 -0.00193451
v 0.02269414 0.01254191 -0.00127832
v 0.02269414 0.01260772 -0.00045939
v 0.02269838 0.01259597 0.00035822
v 0.02269838 0.01249961 0.00117714
v 0.02351638 0.01241500 0.00176509
v 0.02433438 0.01250901 0.00117714
v 0.02269838 0.01241500 0.00174540
v 0.02515238 0.01247846 0.00117714
v 0.02556350 0.01238445 0.00158923
v 0.02588986 0.01241500 0.00113252
v 0.02644932 0.01239385 0.00082805
v 0.02597039 0.01249726 0.00035822
v 0.02575423 0.01243145 -0.00127832
v 0.02600429 0.01249021 -0.00002106
v 0.02603396 0.01248081 -0.00048302
v 0.02433438 0.01231629 -0.00226260
v 0.02515238 0.01240090 -0.00174946
v 0.02515238 0.01229043 -0.00216024
v 0.02351638 0.01233744 -0.00234266
v 0.02269414 0.01234214 -0.00234397
v 0.02557622 0.01238680 -0.00169434
v 0.02187614 0.01232099 -0.00222323
v 0.02187614 0.01241265 -0.00181246
v 0.02142264 0.01238915 -0.00170878
v 0.02187614 0.01247376 -0.00127832
v 0.02187614 0.01254661 -0.00045939
v 0.02187614 0.01254661 0.00035822
v 0.02187614 0.01246200 0.00117714
v 0.02187614 0.01240090 0.00166272
v 0.02351638 0.01234684 0.00217586
v 0.02433438 0.01234684 0.00217193
v 0.02515238 0.01233509 0.00208268
v 0.02269838 0.01233509 0.00215487
v 0.02588986 0.01227868 0.00191470
v 0.02611025 0.01235154 0.00137400
v 0.02647899 0.01240325 0.00035822
v 0.02675024 0.01228808 0.00113252
v 0.02689011 0.01232099 0.00035822
v 0.02616111 0.01235389 -0.00127832
v 0.02679263 0.01211886 -0.00209856
v 0.02644508 0.01240090 -0.00022710
v 0.02679263 0.01221758 -0.00127832
v 0.02597462 0.01198960 -0.00291617
v 0.02590257 0.01226693 -0.00201981
v 0.02679263 0.01191909 -0.00291617
v 0.02433438 0.01207421 -0.00291617
v 0.02351638 0.01210711 -0.00291617
v 0.02269414 0.01211181 -0.00291617
v 0.02187614 0.01207421 -0.00291617
v 0.02105814 0.01200840 -0.00291617
v 0.00714363 0.01083091 -0.00276000
v 0.00714363 0.01096253 -0.00209856
v 0.02087589 0.01236329 -0.00145418
v 0.00714363 0.01105419 -0.00127832
v 0.02111324 0.01240795 -0.00121926
v 0.02060887 0.01238915 -0.00090692
v 0.02105814 0.01246906 -0.00045939
v 0.02105814 0.01247141 -0.00002106
v 0.02143959 0.01250666 -0.00002106
v 0.02105814 0.01247141 0.00035822
v 0.02113019 0.01240795 0.00111546
v 0.02145230 0.01238680 0.00159579
v 0.02187614 0.01230454 0.00206956
v 0.02433438 0.01219642 0.00281368
v 0.02515238 0.01218702 0.00281368
v 0.02269838 0.01211416 0.00281368
v 0.02351638 0.01216117 0.00281368
v 0.02597039 0.01204366 0.00281368
v 0.02679263 0.01206246 0.00199475
v 0.02747924 0.01175222 0.00199475
v 0.02766996 0.01182273 0.00112596
v 0.02761486 0.01195435 0.00035822
v 0.02761486 0.01194729 -0.00002106
v 0.02761486 0.01193789 -0.00045939
v 0.02761486 0.01186974 -0.00127832
v 0.02674600 0.01229984 -0.00048302
v 0.02765725 0.01176162 -0.00204081
v 0.02742414 0.01171932 -0.00291617
v 0.02679263 0.01167231 -0.00350018
v 0.02597462 0.01170052 -0.00357236
v 0.02515238 0.01171697 -0.00364716
v 0.02433438 0.01173342 -0.00371016
v 0.02728851 0.01162296 -0.00341487
v 0.02351638 0.01174517 -0.00371935
v 0.02433438 0.01155245 -0.00411962
v 0.02269414 0.01174282 -0.00369047
v 0.02351638 0.01155715 -0.00413143
v 0.02187614 0.01172872 -0.00364060
v 0.02105814 0.01170287 -0.00357892
v 0.01041988 0.01066169 -0.00393458
v 0.00796164 0.01054888 -0.00373641
v 0.00796164 0.01072515 -0.00326526
v 0.00714363 0.01067110 -0.00316946
v 0.00666046 0.01079096 -0.00264319
v 0.01230594 0.01158065 -0.00098828
v 0.00659265 0.01083561 -0.00209856
v 0.00714363 0.01112000 -0.00045939
v 0.00713939 0.01111060 0.00035822
v 0.00713939 0.01104949 0.00117714
v 0.00713939 0.01097663 0.00199475
v 0.02113019 0.01227868 0.00191732
v 0.00713939 0.01084032 0.00264963
v 0.02187614 0.01205306 0.00281368
v 0.00802945 0.01084972 0.00286093
v 0.02430047 0.01178042 0.00371003
v 0.02519477 0.01178277 0.00371003
v 0.02597039 0.01174282 0.00354205
v 0.01172105 0.01074160 0.00403026
v 0.02351638 0.01178983 0.00359586
v 0.02657647 0.01163471 0.00338194
v 0.02682653 0.01175457 0.00285174
v 0.02712322 0.01153835 0.00315096
v 0.02733937 0.01163941 0.00260370
v 0.02761063 0.01137618 0.00285174
v 0.02811075 0.01083797 0.00342919
v 0.02788612 0.01145139 0.00199475
v 0.02797936 0.01151954 0.00136350
v 0.03463357 0.00588829 0.00181365
v 0.02803022 0.01157595 0.00081624
v 0.02806413 0.01160886 0.00035822
v 0.02807684 0.01161826 -0.00002106
v 0.02783526 0.01180393 -0.00002106
v 0.02808956 0.01162766 -0.00045939
v 0.02806413 0.01159710 -0.00127832
v 0.02803022 0.01157595 -0.00172978
v 0.02796241 0.01148664 -0.00227573
v 0.02783526 0.01135267 -0.00291617
v 0.02679263 0.01139263 -0.00390833
v 0.02638574 0.01074630 -0.00496611
v 0.02597462 0.01146314 -0.00398313
v 0.02515238 0.01151719 -0.00405794
v 0.02806837 0.01081446 -0.00341225
v 0.02759367 0.01111765 -0.00368522
v 0.02734785 0.01087557 -0.00432041
v 0.02693249 0.01066169 -0.00486768
v 0.02433438 0.01119756 -0.00455664
v 0.02269414 0.01154070 -0.00410125
v 0.02351638 0.01119756 -0.00455664
v 0.02187614 0.01151014 -0.00404875
v 0.00796164 0.01016344 -0.00453171
v 0.00714363 0.01041492 -0.00373641
v 0.00714363 0.01008118 -0.00439260
v 0.00669013 0.00998482 -0.00422855
v -0.00398204 0.00425250 0.00631511
v -0.00312165 0.00501869 0.00645947
v 0.00652907 0.01088027 -0.00127832
v 0.00648669 0.01091317 -0.00045939
v 0.00648245 0.01091317 -0.00002106
v 0.00648245 0.01091082 0.00035822
v 0.00651212 0.01088027 0.00117714
v 0.00655874 0.01084267 0.00199475
v 0.00663079 0.01079801 0.00252233
v 0.00713939 0.01065699 0.00306041
v 0.00780482 0.01072280 0.00316408
v 0.00877964 0.01076511 0.00327957
v 0.01041988 0.01068755 0.00388064
v 0.00877964 0.01001537 0.00497779
v 0.02455054 0.01158065 0.00406438
v 0.02494894 0.01158065 0.00406438
v 0.02549145 0.01155950 0.00403550
v 0.02682653 0.01142553 0.00364704
v 0.02597039 0.01151719 0.00395151
v 0.00877964 0.01029505 0.00445415
v 0.02742414 0.01087087 0.00420874
v 0.02766149 0.01102364 0.00367460
v 0.02796665 0.01070165 0.00397514
v 0.03394696 0.00509860 0.00504472
v 0.03457424 0.00500928 0.00405257
v 0.03746055 -0.00083350 0.00518121
v 0.03468867 0.00594234 0.00117977
v 0.03468867 0.00594469 0.00036084
v 0.03466748 0.00592354 -0.00002237
v 0.02648746 0.01062879 -0.00503697
v 0.02597462 0.01068990 -0.00503697
v 0.02597462 0.01076041 -0.00497792
v 0.02789460 0.01060529 -0.00395951
v 0.02723765 0.01029740 -0.00503697
v 0.02764029 0.01036086 -0.00458683
v 0.02756400 0.01002712 -0.00503697
v 0.02742838 0.01015404 -0.00503697
v 0.02681805 0.01050893 -0.00503697
v 0.02433438 0.01080036 -0.00501204
v 0.02515238 0.01078156 -0.00499629
v 0.02269414 0.01114820 -0.00455664
v 0.00847447 0.00986730 -0.00503697
v 0.00840666 0.00992606 -0.00496086
v 0.00796164 0.00990961 -0.00494248
v 0.02351638 0.01079566 -0.00500679
v 0.00794892 0.00982500 -0.00503697
v 0.00721145 0.00945835 -0.00503697
v 0.00711820 0.00927973 -0.00503697
v 0.00688509 0.00872037 -0.00503697
v -0.00556718 0.00099032 0.00567860
v -0.00479156 0.00262846 0.00565104
v -0.00383793 0.00410208 0.00576916
v -0.00397356 0.00424075 0.00691224
v -0.00312165 0.00501869 0.00657233
v -0.00489752 0.00278828 0.00609332
v -0.00471951 0.00333589 0.00674426
v -0.00474494 0.00337584 0.00729021
v -0.00474494 0.00337584 0.00732564
v -0.00274020 0.00516675 0.00687156
v -0.00249861 0.00515265 0.00743194
v 0.00767767 0.00988610 0.00479275
v 0.00795316 0.01013288 0.00449353
v 0.00877964 0.01061704 0.00368772
v 0.00822017 0.00997541 0.00492792
v 0.00796587 0.00923978 0.00582034
v 0.00877964 0.00985320 0.00518252
v 0.00959764 0.01004357 0.00501060
v 0.02430047 0.01131977 0.00438460
v 0.02433438 0.01085207 0.00496073
v 0.02519477 0.01131272 0.00438460
v 0.02576271 0.01079801 0.00491349
v 0.02601277 0.01106594 0.00452240
v 0.02679263 0.01100013 0.00435704
v 0.02679263 0.01066404 0.00476650
v 0.02761486 0.01009998 0.00504341
v 0.02805565 0.00997306 0.00491349
v 0.03377319 0.00420549 0.00652246
v 0.03391729 0.00436296 0.00609332
v 0.03639249 -0.00066428 0.00794640
v 0.03639249 -0.00094396 0.00806188
v 0.03746055 -0.00348931 0.00518121
v 0.03746055 -0.00083115 0.00514578
v 0.03746055 -0.00081704 0.00110365
v 0.03746055 -0.00081704 -0.00002237
v 0.03014516 0.00615857 -0.00503697
v 0.02837777 0.00907291 -0.00503697
v 0.02821671 0.00933379 -0.00503697
v 0.02806837 0.00952181 -0.00503697
v 0.02793274 0.00983675 -0.00485062
v 0.02812347 0.01006002 -0.00430467
v 0.02515238 0.01073455 -0.00503697
v 0.02433438 0.01077451 -0.00503697
v 0.02351638 0.01076276 -0.00503697
v 0.00686814 0.00843128 -0.00503697
v -0.00557566 0.00050616 0.00566942
v -0.00559261 -0.00031174 0.00565629
v -0.00574519 -0.00031174 0.00609332
v -0.00569009 0.00050616 0.00609332
v -0.00560956 0.00112663 0.00609332
v -0.00550360 0.00153793 0.00609332
v -0.00524506 0.00213960 0.00609332
v -0.00393541 0.00419844 0.00733089
v -0.00304536 0.00495053 0.00711828
v -0.00480428 0.00296220 0.00738601
v -0.00433382 0.00296220 0.00755137
v -0.00425753 0.00370018 0.00739520
v -0.00562228 0.00112193 0.00667864
v -0.00560956 0.00025233 0.00737289
v -0.00351582 0.00435591 0.00741094
v -0.00274020 0.00464734 0.00751987
v -0.00187134 0.00460034 0.00765242
v -0.00187134 0.00523491 0.00748706
v 0.00746999 0.00917867 0.00576391
v 0.00824560 0.00837018 0.00657890
v 0.00876268 0.00879088 0.00626786
v 0.00878811 0.00927268 0.00584790
v 0.00876268 0.00967458 0.00539907
v 0.00922890 0.00988140 0.00518252
v 0.00959764 0.00990256 0.00518252
v 0.02067669 0.01074395 0.00486099
v 0.02351638 0.01082621 0.00494105
v 0.02437253 0.01025510 0.00543188
v 0.02566522 0.00993311 0.00568910
v 0.02515238 0.01056533 0.00518252
v 0.02515238 0.01084267 0.00495548
v 0.00960188 0.00970278 0.00542138
v 0.01206436 0.00976624 0.00549225
v 0.01369612 0.00980149 0.00554080
v 0.01288236 0.00937609 0.00593583
v 0.01369612 0.00939490 0.00593977
v 0.02621197 0.00991431 0.00567335
v 0.02678839 0.00985790 0.00561430
v 0.02630945 0.01072750 0.00484393
v 0.02679263 0.01027625 0.00518252
v 0.02691130 0.01023394 0.00518252
v 0.02741990 0.00930089 0.00588333
v 0.03375623 0.00337349 0.00732039
v 0.03625686 -0.00069013 0.00815506
v 0.03625686 -0.00082175 0.00815506
v 0.03639249 -0.00194988 0.00794377
v 0.03745631 -0.00489712 0.00517990
v 0.03746055 -0.00375489 0.00504341
v 0.03746055 -0.00375489 -0.00002237
v 0.03592627 -0.00840608 0.00077162
v 0.00781329 0.00615857 -0.00503697
v 0.00698681 0.00788602 -0.00503697
v -0.00558413 -0.00158323 0.00566286
v -0.00559261 -0.00112728 0.00565236
v -0.00583843 -0.00031174 0.00691224
v -0.00573247 -0.00112728 0.00609332
v -0.00491023 0.00213960 0.00746606
v -0.00568161 -0.00031174 0.00743850
v -0.00433382 0.00213960 0.00763142
v -0.00351582 0.00378009 0.00757630
v -0.00568161 0.00051791 0.00693586
v -0.00351582 0.00296220 0.00765242
v 0.01123788 0.00214195 0.00795427
v 0.01123788 0.00296455 0.00793327
v 0.01042412 0.00377774 0.00789390
v 0.01042412 0.00460034 0.00785847
v 0.01042412 0.00541823 0.00773773
v 0.00960188 0.00623848 0.00757893
v 0.00960188 0.00695531 0.00740701
v 0.00960188 0.00736661 0.00728889
v 0.00878811 0.00787427 0.00694374
v 0.00878811 0.00839368 0.00659858
v 0.01123788 0.00933614 0.00590040
v 0.02514815 0.00993311 0.00568779
v 0.02514815 0.00951476 0.00599751
v 0.02594919 0.00959232 0.00593977
v 0.01288236 0.00884023 0.00634661
v 0.02678839 0.00893894 0.00640172
v 0.02678839 0.00944895 0.00599226
v 0.02730547 0.00843363 0.00657365
v 0.03465053 0.00102322 0.00818919
v 0.03544734 0.00015362 0.00817869
v 0.03494297 0.00045915 0.00824693
v 0.03498536 -0.00031644 0.00832174
v 0.03580336 -0.00098391 0.00818919
v 0.03580336 -0.00139521 0.00811832
v 0.03580336 -0.00194988 0.00801333
v 0.03498536 -0.00276777 0.00793327
v 0.03639249 -0.00218490 0.00789128
v 0.03745631 -0.00489947 0.00445153
v 0.03639249 -0.00276777 0.00771279
v 0.03639249 -0.00303805 0.00762486
v 0.03639249 -0.00347756 0.00745163
v 0.03639249 -0.00369378 0.00736239
v 0.03639249 -0.00389120 0.00727577
v 0.03639249 -0.00440356 0.00700542
v 0.03639249 -0.00499348 0.00664058
v 0.03639249 -0.00512745 0.00646997
v 0.03535409 -0.00808174 0.00403157
v 0.03556177 -0.00822746 0.00348431
v 0.03568045 -0.00837553 0.00281762
v 0.03568045 -0.00840608 0.00270606
v 0.03588813 -0.00840608 0.00117977
v 0.03745631 -0.00489242 0.00067975
v 0.00878811 -0.01132277 0.00518121
v 0.00845328 -0.01132747 0.00518121
v 0.01310275 -0.00840608 0.00077162
v 0.00818627 -0.00840608 0.00231104
v -0.00396508 -0.00403927 0.00565498
v 0.00746151 0.00679079 -0.00503697
v 0.00713516 0.00743477 -0.00503697
v -0.00563075 -0.00166314 0.00609332
v -0.00402866 -0.00411448 0.00609332
v -0.00582572 -0.00112728 0.00691224
v -0.00569009 -0.00112728 0.00743982
v -0.00515182 -0.00031174 0.00760255
v -0.00527473 -0.00049741 0.00756581
v -0.00433382 0.00132405 0.00765111
v -0.00433382 -0.00112728 0.00765242
v -0.00433382 -0.00194988 0.00765111
v 0.03416735 -0.00031644 0.00837029
v 0.03416735 0.00050616 0.00832436
v 0.02597039 0.00542058 0.00768261
v 0.02597039 0.00623848 0.00752118
v 0.02597039 0.00684720 0.00737682
v 0.02597039 0.00725850 0.00726002
v 0.02597039 0.00787662 0.00699098
v 0.02597039 0.00854175 0.00664320
v 0.02597039 0.00895305 0.00640960
v 0.02678839 0.00853000 0.00662877
v 0.02678839 0.00787662 0.00694899
v 0.03416735 0.00113368 0.00819968
v 0.02678839 0.00721619 0.00723246
v 0.02678839 0.00680725 0.00736764
v 0.03416735 -0.00112728 0.00830730
v 0.03504469 -0.00120014 0.00822724
v 0.03409954 -0.00194753 0.00819181
v 0.03378166 -0.00237293 0.00814456
v 0.03416735 -0.00358802 0.00783353
v 0.03498536 -0.00358802 0.00774166
v 0.03585422 -0.00364913 0.00752512
v 0.03562111 -0.00412388 0.00738995
v 0.03585422 -0.00439886 0.00716422
v 0.03498536 -0.00468795 0.00724296
v 0.03580336 -0.00512275 0.00672851
v 0.03536257 -0.00562336 0.00649359
v 0.03498536 -0.00664572 0.00583084
v 0.03545581 -0.00650706 0.00573241
v 0.03543462 -0.00730850 0.00490561
v 0.03504469 -0.00831677 0.00370872
v 0.03503198 -0.00840608 0.00352761
v 0.03537952 -0.00840608 0.00325201
v 0.03498536 -0.00729205 0.00518121
v 0.03497688 -0.00740486 0.00504604
v 0.03416735 -0.00720979 0.00561823
v 0.03416735 -0.00752943 0.00520877
v 0.03415888 -0.00793838 0.00463395
v 0.03480734 -0.00814285 0.00412212
v 0.03437927 -0.00840608 0.00380059
v 0.03469715 -0.00840608 0.00367854
v 0.03566349 -0.00840608 0.00279137
v 0.03317558 -0.00840608 0.00424417
v 0.03247201 -0.00840608 0.00446072
v 0.00878811 -0.01123346 0.00538069
v 0.00878811 -0.01082451 0.00601195
v 0.00810574 -0.01075400 0.00592927
v 0.00776243 -0.01115590 0.00518121
v -0.00146869 -0.00563981 0.00568123
v -0.00313860 -0.00483601 0.00638991
v -0.00565195 -0.00168900 0.00691224
v -0.00443554 -0.00358802 0.00691224
v -0.00354972 -0.00456338 0.00691224
v -0.00405409 -0.00415208 0.00691224
v -0.00561380 -0.00162084 0.00737420
v -0.00515606 -0.00191697 0.00748444
v -0.00515182 -0.00112728 0.00760518
v -0.00351582 -0.00358802 0.00762486
v -0.00351582 -0.00276542 0.00765373
v 0.03252711 -0.00112728 0.00831649
v 0.03334511 -0.00112728 0.00832830
v -0.00269782 -0.00358802 0.00765373
v -0.00187134 -0.00440591 0.00765111
v 0.02678839 0.00623848 0.00749362
v 0.03334511 -0.00194988 0.00823774
v 0.03334511 -0.00241288 0.00815375
v 0.03334511 -0.00440591 0.00759205
v 0.03418855 -0.00447172 0.00750412
v 0.03334511 -0.00282183 0.00805401
v 0.00960188 -0.00900540 0.00735714
v 0.03498536 -0.00427665 0.00747656
v 0.03447675 -0.00479136 0.00730333
v 0.03482006 -0.00572912 0.00656840
v 0.03504469 -0.00602055 0.00628886
v 0.03498536 -0.00705702 0.00545681
v 0.03416735 -0.00679849 0.00594633
v 0.03286194 -0.00643420 0.00648703
v 0.03231520 -0.00650236 0.00653690
v 0.03365875 -0.00725680 0.00566810
v 0.03228553 -0.00812170 0.00489905
v 0.03283227 -0.00807469 0.00483999
v 0.03334511 -0.00802534 0.00476519
v 0.03334511 -0.00830032 0.00435573
v 0.03236182 -0.00840608 0.00449221
v 0.03193374 -0.00840608 0.00460376
v 0.00878811 -0.01046022 0.00642141
v 0.03129375 -0.00840608 0.00474025
v 0.03088687 -0.00840608 0.00482424
v 0.03088687 -0.00823451 0.00504210
v 0.03006463 -0.00824861 0.00518121
v 0.03006463 -0.00795718 0.00553162
v 0.00821170 -0.00996431 0.00669176
v -0.00148565 -0.00564216 0.00733220
v -0.00311741 -0.00482426 0.00733089
v -0.00314284 -0.00483601 0.00691224
v -0.00399899 -0.00409333 0.00739388
v -0.00488481 -0.00259385 0.00742932
v -0.00416005 -0.00358802 0.00745819
v -0.00343953 -0.00438006 0.00743588
v -0.00269782 -0.00440591 0.00757499
v 0.00960188 -0.00850244 0.00742932
v 0.03170063 -0.00194988 0.00823906
v 0.03252711 -0.00194988 0.00824562
v -0.00105757 -0.00522616 0.00755268
v -0.00023533 -0.00522616 0.00758812
v 0.00905089 -0.00899365 0.00734926
v 0.03252711 -0.00245284 0.00816556
v 0.01013591 -0.00895369 0.00734008
v 0.03334511 -0.00490887 0.00737420
v 0.03393001 -0.00485952 0.00734926
v 0.00960188 -0.00941435 0.00713928
v 0.03416735 -0.00583723 0.00664320
v 0.03416735 -0.00624618 0.00635579
v 0.03170063 -0.00695596 0.00622718
v 0.00878811 -0.01005127 0.00677838
v 0.03311201 -0.00730145 0.00571010
v 0.03170063 -0.00741191 0.00581772
v -0.00105757 -0.00569386 0.00738732
v -0.00180352 -0.00522381 0.00745950
v -0.00269782 -0.00492062 0.00740963
v 0.00878388 -0.00928978 0.00718259
f 1 2 3
f 1 3 4
f 1 4 15
f 1 15 5
f 1 5 6
f 1 6 7
f 1 7 8
f 1 8 2
f 2 9 10
f 2 10 3
f 2 8 11
f 2 11 9
f 3 10 12
f 3 12 13
f 3 13 4
f 4 13 14
f 4 14 15
f 5 15 16
f 5 16 6
f 6 17 18
f 6 18 20
f 6 20 7
f 6 16 19
f 6 19 17
f 7 20 21
f 7 21 22
f 7 22 23
f 7 23 24
f 7 24 8
f 8 25 11
f 8 24 26
f 8 26 27
f 8 27 25
f 9 28 10
f 9 11 29
f 9 29 30
f 9 30 28
f 10 31 32
f 10 32 12
f 10 28 31
f 11 25 33
f 11 33 29
f 12 32 34
f 12 34 35
f 12 35 13
f 13 35 36
f 13 36 37
f 13 37 38
f 13 38 14
f 14 38 39
f 14 39 15
f 15 39 40
f 15 40 16
f 16 40 41
f 16 41 19
f 17 42 43
f 17 43 18
f 17 19 42
f 18 43 44
f 18 44 20
f 19 41 45
f 19 45 42
f 20 44 21
f 21 46 47
f 21 47 22
f 21 44 46
f 22 47 23
f 23 48 24
f 23 47 49
f 23 49 50
f 23 50 48
f 24 48 26
f 25 27 51
f 25 51 52
f 25 52 33
f 26 48 27
f 27 48 50
f 27 50 53
f 27 53 54
f 27 54 52
f 27 52 51
f 28 30 55
f 28 55 31
f 29 33 30
f 30 33 56
f 30 56 57
f 30 57 55
f 31 58 59
f 31 59 32
f 31 55 58
f 32 60 61
f 32 61 34
f 32 59 60
f 33 52 56
f 34 61 62
f 34 62 63
f 34 63 35
f 35 63 64
f 35 64 36
f 36 65 37
f 36 64 66
f 36 66 65
f 37 65 67
f 37 67 68
f 37 68 38
f 38 69 70
f 38 70 71
f 38 71 39
f 38 68 69
f 39 71 72
f 39 72 73
f 39 73 74
f 39 74 40
f 40 74 41
f 41 74 75
f 41 75 45
f 42 76 43
f 42 45 76
f 43 76 77
f 43 77 44
f 44 77 46
f 45 75 78
f 45 78 79
f 45 79 76
f 46 77 80
f 46 80 49
f 46 49 47
f 49 80 81
f 49 81 82
f 49 82 83
f 49 83 84
f 49 84 50
f 50 84 85
f 50 85 86
f 50 86 87
f 50 87 54
f 50 54 88
f 50 88 53
f 52 54 89
f 52 89 90
f 52 90 57
f 52 57 56
f 53 88 54
f 54 87 89
f 55 57 91
f 55 91 92
f 55 92 93
f 55 93 94
f 55 94 58
f 57 90 95
f 57 95 91
f 58 94 59
f 59 96 60
f 59 94 97
f 59 97 96
f 60 98 61
f 60 96 99
f 60 99 98
f 61 98 100
f 61 100 101
f 61 101 62
f 62 101 102
f 62 102 103
f 62 103 104
f 62 104 63
f 63 104 103
f 63 103 105
f 63 105 106
f 63 106 64
f 64 106 66
f 65 107 68
f 65 68 67
f 65 66 107
f 66 106 108
f 66 108 109
f 66 109 107
f 68 107 69
f 69 107 109
f 69 109 70
f 70 72 71
f 70 109 72
f 72 109 110
f 72 110 111
f 72 111 112
f 72 112 73
f 73 112 74
f 74 113 75
f 74 112 114
f 74 114 113
f 75 115 78
f 75 113 114
f 75 114 116
f 75 116 115
f 76 79 117
f 76 117 118
f 76 118 77
f 77 118 119
f 77 119 80
f 78 115 120
f 78 120 121
f 78 121 79
f 79 121 117
f 80 119 122
f 80 122 123
f 80 123 81
f 81 123 124
f 81 124 125
f 81 125 82
f 82 125 126
f 82 126 127
f 82 127 128
f 82 128 83
f 83 128 129
f 83 129 130
f 83 130 131
f 83 131 132
f 83 132 84
f 84 132 133
f 84 133 134
f 84 134 85
f 85 134 86
f 86 134 135
f 86 135 136
f 86 136 87
f 87 136 137
f 87 137 89
f 89 137 90
f 90 137 138
f 90 138 139
f 90 139 95
f 91 95 140
f 91 140 141
f 91 141 142
f 91 142 143
f 91 143 97
f 91 97 92
f 92 97 93
f 93 97 94
f 95 139 144
f 95 144 145
f 95 145 146
f 95 146 147
f 95 147 141
f 95 141 140
f 96 97 99
f 97 148 99
f 97 143 141
f 97 141 148
f 98 149 100
f 98 99 149
f 99 148 150
f 99 150 149
f 100 149 151
f 100 151 101
f 101 151 152
f 101 152 102
f 102 152 103
f 103 152 153
f 103 153 105
f 105 153 106
f 106 153 154
f 106 154 155
f 106 155 156
f 106 156 157
f 106 157 108
f 108 158 109
f 108 157 158
f 109 158 159
f 109 159 160
f 109 160 161
f 109 161 110
f 110 161 162
f 110 162 163
f 110 163 111
f 111 163 112
f 112 163 164
f 112 164 114
f 114 164 165
f 114 165 166
f 114 166 116
f 115 116 166
f 115 166 167
f 115 167 168
f 115 168 120
f 117 121 120
f 117 120 169
f 117 169 170
f 117 170 118
f 118 170 171
f 118 171 172
f 118 172 119
f 119 173 122
f 119 172 174
f 119 174 173
f 120 168 175
f 120 175 169
f 122 173 124
f 122 124 123
f 124 173 176
f 124 176 177
f 124 177 125
f 125 177 126
f 126 177 127
f 127 177 178
f 127 178 179
f 127 179 180
f 127 180 130
f 127 130 128
f 128 130 129
f 130 180 181
f 130 181 182
f 130 182 131
f 131 182 132
f 132 182 133
f 133 135 134
f 133 182 135
f 135 182 183
f 135 183 136
f 136 183 184
f 136 184 137
f 137 184 138
f 138 184 139
f 139 184 144
f 141 185 186
f 141 186 187
f 141 187 148
f 141 143 142
f 141 147 185
f 144 184 188
f 144 188 145
f 145 188 146
f 146 189 147
f 146 188 190
f 146 190 191
f 146 191 192
f 146 192 189
f 147 189 193
f 147 193 185
f 148 194 150
f 148 187 195
f 148 195 194
f 149 150 196
f 149 196 197
f 149 197 198
f 149 198 199
f 149 199 152
f 149 152 151
f 150 200 197
f 150 197 196
f 150 194 200
f 152 199 154
f 152 154 153
f 154 199 201
f 154 201 202
f 154 202 155
f 155 202 203
f 155 203 204
f 155 204 205
f 155 205 206
f 155 206 207
f 155 207 156
f 156 208 209
f 156 209 157
f 156 207 210
f 156 210 211
f 156 211 212
f 156 212 213
f 156 213 208
f 157 209 160
f 157 160 159
f 157 159 158
f 160 209 161
f 161 209 162
f 162 209 163
f 163 209 164
f 164 209 214
f 164 214 215
f 164 215 216
f 164 216 217
f 164 217 165
f 165 217 175
f 165 175 166
f 166 175 218
f 166 218 167
f 167 218 168
f 168 218 175
f 169 175 219
f 169 219 220
f 169 220 221
f 169 221 222
f 169 222 170
f 170 223 224
f 170 224 171
f 170 222 223
f 171 224 225
f 171 225 172
f 172 226 227
f 172 227 174
f 172 225 226
f 173 174 228
f 173 228 176
f 174 227 228
f 175 217 219
f 176 228 229
f 176 229 230
f 176 230 231
f 176 231 178
f 176 178 177
f 178 231 179
f 179 231 232
f 179 232 233
f 179 233 180
f 180 234 181
f 180 233 234
f 181 234 235
f 181 235 236
f 181 236 297
f 181 297 298
f 181 298 239
f 181 239 238
f 181 238 237
f 181 237 182
f 182 237 238
f 182 238 183
f 183 238 239
f 183 239 184
f 184 239 240
f 184 240 241
f 184 241 242
f 184 242 243
f 184 243 244
f 184 244 245
f 184 245 188
f 185 193 189
f 185 189 192
f 185 192 191
f 185 191 243
f 185 243 242
f 185 242 241
f 185 241 240
f 185 240 300
f 185 300 359
f 185 359 360
f 185 360 301
f 185 301 249
f 185 249 204
f 185 204 203
f 185 203 202
f 185 202 201
f 185 201 197
f 185 197 248
f 185 248 247
f 185 247 246
f 185 246 186
f 186 246 187
f 187 246 195
f 188 245 244
f 188 244 190
f 190 244 191
f 191 244 243
f 194 195 247
f 194 247 200
f 195 246 247
f 197 201 199
f 197 199 198
f 197 200 248
f 200 247 248
f 204 249 205
f 205 250 251
f 205 251 252
f 205 252 253
f 205 253 254
f 205 254 255
f 205 255 256
f 205 256 206
f 205 249 250
f 206 256 210
f 206 210 207
f 208 257 209
f 208 213 257
f 209 258 214
f 209 257 258
f 210 256 211
f 211 256 212
f 212 256 255
f 212 255 213
f 213 259 260
f 213 260 261
f 213 261 257
f 213 255 262
f 213 262 263
f 213 263 259
f 214 258 215
f 215 258 257
f 215 257 264
f 215 264 265
f 215 265 266
f 215 266 267
f 215 267 220
f 215 220 268
f 215 268 219
f 215 219 216
f 216 219 217
f 219 268 220
f 220 269 270
f 220 270 271
f 220 271 272
f 220 272 221
f 220 267 269
f 221 272 273
f 221 273 222
f 222 273 274
f 222 274 275
f 222 275 223
f 223 275 276
f 223 276 224
f 224 277 278
f 224 278 279
f 224 279 280
f 224 280 225
f 224 276 281
f 224 281 282
f 224 282 283
f 224 283 284
f 224 284 285
f 224 285 277
f 225 280 226
f 226 280 286
f 226 286 287
f 226 287 288
f 226 288 227
f 227 288 228
f 228 288 229
f 229 289 290
f 229 290 230
f 229 288 289
f 230 290 287
f 230 287 291
f 230 291 231
f 231 292 232
f 231 291 292
f 232 292 293
f 232 293 234
f 232 234 233
f 234 293 235
f 235 293 294
f 235 294 295
f 235 295 296
f 235 296 236
f 236 296 297
f 239 298 240
f 240 298 299
f 240 299 356
f 240 356 300
f 249 301 302
f 249 302 303
f 249 303 251
f 249 251 250
f 251 303 252
f 252 304 253
f 252 303 305
f 252 305 363
f 252 363 304
f 253 304 254
f 254 304 262
f 254 262 255
f 257 261 264
f 259 306 260
f 259 263 307
f 259 307 306
f 260 308 309
f 260 309 261
f 260 306 308
f 261 309 264
f 262 304 310
f 262 310 263
f 263 310 304
f 263 304 307
f 264 309 265
f 265 309 266
f 266 309 311
f 266 311 312
f 266 312 313
f 266 313 314
f 266 314 315
f 266 315 316
f 266 316 317
f 266 317 318
f 266 318 267
f 267 318 319
f 267 319 320
f 267 320 269
f 269 320 321
f 269 321 270
f 270 321 284
f 270 284 322
f 270 322 271
f 271 281 272
f 271 322 283
f 271 283 282
f 271 282 281
f 272 281 274
f 272 274 273
f 274 281 276
f 274 276 275
f 277 323 278
f 277 285 323
f 278 280 279
f 278 323 324
f 278 324 325
f 278 325 286
f 278 286 280
f 283 322 284
f 284 321 285
f 285 321 326
f 285 326 323
f 286 327 328
f 286 328 287
f 286 325 327
f 287 328 291
f 287 290 289
f 287 289 288
f 291 328 327
f 291 327 329
f 291 329 292
f 292 330 293
f 292 329 330
f 293 330 331
f 293 331 332
f 293 332 333
f 293 333 294
f 294 333 334
f 294 334 295
f 295 334 335
f 295 335 336
f 295 336 337
f 295 337 338
f 295 338 296
f 296 339 297
f 296 338 340
f 296 340 341
f 296 341 342
f 296 342 343
f 296 343 344
f 296 344 345
f 296 345 346
f 296 346 347
f 296 347 348
f 296 348 349
f 296 349 350
f 296 350 351
f 296 351 352
f 296 352 299
f 296 299 339
f 297 339 298
f 298 339 353
f 298 353 299
f 299 353 339
f 299 352 354
f 299 354 355
f 299 355 356
f 300 356 357
f 300 357 358
f 300 358 302
f 300 302 359
f 301 360 302
f 302 361 305
f 302 305 303
f 302 360 359
f 302 358 362
f 302 362 361
f 304 363 364
f 304 364 307
f 305 361 363
f 306 365 308
f 306 307 365
f 307 364 366
f 307 366 365
f 308 365 367
f 308 367 311
f 308 311 309
f 311 367 312
f 312 367 368
f 312 368 369
f 312 369 370
f 312 370 313
f 313 370 314
f 314 370 315
f 315 370 371
f 315 371 372
f 315 372 316
f 316 372 317
f 317 372 373
f 317 373 374
f 317 374 318
f 318 374 375
f 318 375 319
f 319 326 320
f 319 375 376
f 319 376 377
f 319 377 378
f 319 378 326
f 320 326 321
f 323 326 324
f 324 378 325
f 324 326 378
f 325 378 327
f 327 378 377
f 327 377 379
f 327 379 329
f 329 379 380
f 329 380 330
f 330 381 371
f 330 371 332
f 330 332 331
f 330 380 382
f 330 382 383
f 330 383 381
f 332 371 333
f 333 371 370
f 333 370 384
f 333 384 334
f 334 384 385
f 334 385 335
f 335 385 386
f 335 386 387
f 335 387 336
f 336 387 337
f 337 388 389
f 337 389 338
f 337 387 388
f 338 389 340
f 340 389 341
f 341 389 390
f 341 390 342
f 342 390 343
f 343 390 391
f 343 391 344
f 344 391 345
f 345 391 392
f 345 392 393
f 345 393 346
f 346 394 395
f 346 395 396
f 346 396 397
f 346 397 398
f 346 398 348
f 346 348 347
f 346 393 394
f 348 399 400
f 348 400 401
f 348 401 349
f 348 398 402
f 348 402 403
f 348 403 404
f 348 404 405
f 348 405 406
f 348 406 407
f 348 407 408
f 348 408 409
f 348 409 399
f 349 410 350
f 349 401 410
f 350 410 351
f 351 410 354
f 351 354 352
f 354 410 401
f 354 401 400
f 354 400 409
f 354 409 408
f 354 408 411
f 354 411 412
f 354 412 413
f 354 413 355
f 355 413 414
f 355 414 415
f 355 415 416
f 355 416 356
f 356 416 357
f 357 416 358
f 358 417 418
f 358 418 362
f 358 416 417
f 361 419 363
f 361 362 420
f 361 420 419
f 362 418 421
f 362 421 422
f 362 422 420
f 363 419 423
f 363 423 364
f 364 423 424
f 364 424 425
f 364 425 366
f 365 425 367
f 365 366 425
f 367 425 368
f 368 425 369
f 369 425 426
f 369 426 427
f 369 427 370
f 370 428 429
f 370 429 384
f 370 427 430
f 370 430 431
f 370 431 428
f 371 381 432
f 371 432 372
f 372 432 373
f 373 432 383
f 373 383 374
f 374 383 375
f 375 383 382
f 375 382 380
f 375 380 376
f 376 380 379
f 376 379 377
f 381 383 432
f 384 429 433
f 384 433 386
f 384 386 385
f 386 433 387
f 387 433 434
f 387 434 388
f 388 435 436
f 388 436 389
f 388 434 437
f 388 437 438
f 388 438 435
f 389 436 439
f 389 439 390
f 390 439 391
f 391 439 393
f 391 393 392
f 393 439 440
f 393 440 441
f 393 441 394
f 394 441 395
f 395 441 442
f 395 442 396
f 396 443 397
f 396 442 444
f 396 444 404
f 396 404 443
f 397 443 398
f 398 443 402
f 399 409 400
f 402 443 404
f 402 404 403
f 404 445 446
f 404 446 447
f 404 447 448
f 404 448 449
f 404 449 405
f 404 444 445
f 405 449 450
f 405 450 406
f 406 450 407
f 407 450 451
f 407 451 411
f 407 411 408
f 411 451 412
f 412 451 450
f 412 450 449
f 412 449 452
f 412 452 413
f 413 452 453
f 413 453 414
f 414 454 415
f 414 453 455
f 414 455 456
f 414 456 457
f 414 457 458
f 414 458 459
f 414 459 454
f 415 460 461
f 415 461 416
f 415 454 460
f 416 461 462
f 416 462 463
f 416 463 418
f 416 418 417
f 418 463 421
f 419 420 423
f 420 422 464
f 420 464 423
f 421 463 462
f 421 462 464
f 421 464 422
f 423 464 465
f 423 465 424
f 424 465 466
f 424 466 426
f 424 426 425
f 426 466 464
f 426 464 467
f 426 467 468
f 426 468 431
f 426 431 430
f 426 430 427
f 428 431 429
f 429 431 469
f 429 469 470
f 429 470 471
f 429 471 433
f 431 468 472
f 431 472 473
f 431 473 474
f 431 474 469
f 433 471 438
f 433 438 475
f 433 475 434
f 434 475 438
f 434 438 437
f 435 438 436
f 436 440 439
f 436 438 476
f 436 476 477
f 436 477 478
f 436 478 440
f 438 479 476
f 438 471 469
f 438 469 474
f 438 474 479
f 440 478 446
f 440 446 445
f 440 445 480
f 440 480 441
f 441 480 481
f 441 481 444
f 441 444 442
f 444 481 445
f 445 481 480
f 446 482 447
f 446 478 479
f 446 479 483
f 446 483 454
f 446 454 482
f 447 482 484
f 447 484 454
f 447 454 459
f 447 459 457
f 447 457 448
f 448 453 449
f 448 457 456
f 448 456 455
f 448 455 453
f 449 453 452
f 454 483 460
f 454 484 485
f 454 485 482
f 457 459 458
f 460 483 461
f 461 486 487
f 461 487 488
f 461 488 462
f 461 483 486
f 462 488 467
f 462 467 464
f 464 466 465
f 467 488 468
f 468 488 487
f 468 487 472
f 469 471 470
f 472 487 486
f 472 486 474
f 472 474 473
f 474 489 483
f 474 483 479
f 474 486 489
f 476 479 478
f 476 478 477
f 482 485 484
f 483 489 486

