# https://github.com/mikedh/trimesh
v 0.02348603 -0.00807594 -0.00047421
v 0.02964694 -0.01019977 -0.00128333
v 0.02342283 -0.00807594 -0.00084006
v 0.02346256 -0.00807594 0.00033338
v 0.03277253 -0.01123978 0.00033338
v 0.03034392 -0.01049981 -0.00209244
v 0.02949165 -0.01020652 -0.00213798
v 0.02919372 -0.01008853 -0.00189813
v 0.03399316 -0.01172522 -0.00091141
v 0.02332172 -0.00807594 -0.00128333
v 0.02325852 -0.00807594 0.00114249
v 0.03277253 -0.01128023 0.00114097
v 0.03397510 -0.01173197 0.00139297
v 0.03399677 -0.01172354 0.00085103
v 0.03358147 -0.01154992 0.00033338
v 0.03041434 -0.01053521 -0.00218048
v 0.03034392 -0.01059083 -0.00290307
v 0.03393899 -0.01174545 -0.00145183
v 0.02953499 -0.01031271 -0.00290307
v 0.02911246 -0.01011381 -0.00243855
v 0.03399677 -0.01172185 -0.00047270
v 0.03440124 -0.01190895 -0.00047270
v 0.03431456 -0.01188367 -0.00122260
v 0.02324949 -0.00807594 -0.00146245
v 0.02902760 -0.01014247 -0.00290307
v 0.02313754 -0.00807594 0.00153111
v 0.03034392 -0.01060263 0.00276223
v 0.03346771 -0.01161903 0.00195312
v 0.03387579 -0.01177916 0.00195312
v 0.03439221 -0.01202357 0.00195312
v 0.03508558 -0.01237754 0.00195312
v 0.03526434 -0.01236237 0.00109240
v 0.03431637 -0.01188198 0.00112883
v 0.03088562 -0.01086726 0.00338311
v 0.03399857 -0.01172185 0.00033338
v 0.03440304 -0.01191064 0.00033338
v 0.03098493 -0.01082513 -0.00290155
v 0.03086395 -0.01087569 -0.00342983
v 0.02833061 -0.01010370 -0.00412509
v 0.02844076 -0.01006830 -0.00371066
v 0.03510725 -0.01238092 -0.00209092
v 0.03439221 -0.01207583 -0.00209092
v 0.03138940 -0.01098694 -0.00290155
v 0.03519934 -0.01230338 -0.00047270
v 0.03527337 -0.01235563 -0.00127118
v 0.03551172 -0.01257644 -0.00209092
v 0.02313754 -0.00807594 -0.00167498
v 0.02313754 -0.00820573 0.00267874
v 0.02953499 -0.01033462 0.00276223
v 0.03331062 -0.01167129 0.00257855
v 0.03494113 -0.01246520 0.00259373
v 0.03358147 -0.01186176 0.00281233
v 0.03653372 -0.01327596 0.00256337
v 0.03600827 -0.01287816 0.00195312
v 0.03557491 -0.01255622 0.00132921
v 0.03561283 -0.01253262 0.00079031
v 0.03519934 -0.01230675 0.00033338
v 0.02313754 -0.00821753 0.00276223
v 0.03041434 -0.01074927 0.00361841
v 0.03071589 -0.01093300 0.00392353
v 0.03115647 -0.01103919 0.00362144
v 0.03521559 -0.01265398 -0.00293343
v 0.03203402 -0.01149093 -0.00377897
v 0.03114202 -0.01108639 -0.00370459
v 0.03041434 -0.01092795 -0.00408410
v 0.02823311 -0.01005650 -0.00402793
v 0.03007849 -0.01086052 -0.00427082
v 0.03034753 -0.01106616 -0.00453192
v 0.03041434 -0.01111167 -0.00458050
v 0.02980945 -0.01096166 -0.00481124
v 0.02926956 -0.01087232 -0.00500706
v 0.02345714 -0.00929967 -0.00573268
v 0.02313754 -0.00904852 -0.00541086
v 0.02313754 -0.00874512 -0.00459719
v 0.02313754 -0.00871815 -0.00451826
v 0.02313754 -0.00854116 -0.00385032
v 0.02313754 -0.00845183 -0.00345260
v 0.02313754 -0.00815685 -0.00208637
v 0.03600827 -0.01300795 -0.00290003
v 0.03562006 -0.01252925 0.00033338
v 0.03562186 -0.01252756 -0.00047270
v 0.03561825 -0.01253093 -0.00099186
v 0.03558936 -0.01254610 -0.00153228
v 0.03600827 -0.01284951 -0.00209092
v 0.03315172 -0.01174208 0.00311897
v 0.03424776 -0.01240957 0.00356983
v 0.03520656 -0.01266578 0.00282144
v 0.03637482 -0.01337035 0.00310379
v 0.03680818 -0.01354734 0.00280322
v 0.03745641 -0.01398222 0.00276072
v 0.03798366 -0.01419629 0.00218690
v 0.03767851 -0.01392322 0.00193187
v 0.03702486 -0.01347654 0.00195312
v 0.03662220 -0.01322371 0.00195312
v 0.03606605 -0.01310403 0.00280322
v 0.03667998 -0.01318999 0.00114097
v 0.03714223 -0.01339732 0.00033338
v 0.03716931 -0.01337878 -0.00047270
v 0.03676484 -0.01314954 -0.00047270
v 0.02313754 -0.00834564 0.00356983
v 0.03017600 -0.01083018 0.00420892
v 0.02313754 -0.00835744 0.00361992
v 0.02340297 -0.00851251 0.00387192
v 0.03115466 -0.01131226 0.00438046
v 0.03240960 -0.01171174 0.00402068
v 0.03258113 -0.01162915 0.00356983
v 0.03041434 -0.01101054 0.00442448
v 0.03643080 -0.01333664 -0.00332356
v 0.03404372 -0.01251239 -0.00418277
v 0.03235001 -0.01173534 -0.00409017
v 0.03115466 -0.01139148 -0.00452129
v 0.03041434 -0.01104257 -0.00439681
v 0.03179928 -0.01165780 -0.00452129
v 0.03157719 -0.01172017 -0.00493875
v 0.03115466 -0.01163420 -0.00510422
v 0.03041434 -0.01149599 -0.00536836
v 0.03065449 -0.01176399 -0.00568714
v 0.02313754 -0.00924068 -0.00579492
v 0.03651025 -0.01328776 -0.00290003
v 0.03602633 -0.01274500 -0.00047270
v 0.03593785 -0.01272477 -0.00127118
v 0.03671970 -0.01316977 -0.00128181
v 0.03662761 -0.01321528 -0.00209092
v 0.03298560 -0.01180950 0.00356983
v 0.03358147 -0.01208762 0.00356983
v 0.03408344 -0.01249216 0.00409810
v 0.03465042 -0.01261184 0.00356983
v 0.03579882 -0.01323888 0.00356983
v 0.03563270 -0.01332990 0.00400854
v 0.03620328 -0.01349003 0.00356983
v 0.03731376 -0.01409347 0.00329203
v 0.03786268 -0.01427888 0.00276072
v 0.03837369 -0.01442890 0.00193187
v 0.03806311 -0.01413561 0.00164800
v 0.03896594 -0.01487389 0.00195312
v 0.03708445 -0.01343103 0.00114097
v 0.03810645 -0.01410695 0.00114097
v 0.03762614 -0.01378669 0.00114097
v 0.03762614 -0.01371421 0.00033338
v 0.03712417 -0.01341081 -0.00128181
v 0.03815701 -0.01406987 0.00033338
v 0.03762614 -0.01368893 -0.00047270
v 0.02988890 -0.01093300 0.00475086
v 0.02313754 -0.00861533 0.00433947
v 0.03161691 -0.01170331 0.00482221
v 0.03215861 -0.01182636 0.00455959
v 0.03357786 -0.01237417 0.00437287
v 0.03733363 -0.01407324 -0.00343286
v 0.03800533 -0.01498682 -0.00408258
v 0.03781032 -0.01512673 -0.00452129
v 0.03709528 -0.01424685 -0.00397328
v 0.03722348 -0.01496828 -0.00492661
v 0.03655719 -0.01405470 -0.00426930
v 0.03564172 -0.01332316 -0.00415545
v 0.03381620 -0.01264218 -0.00472471
v 0.03800172 -0.01417943 -0.00236872
v 0.03892983 -0.01490254 -0.00265715
v 0.03877635 -0.01502054 -0.00319908
v 0.03356161 -0.01240789 -0.00448031
v 0.03277253 -0.01207751 -0.00452129
v 0.03179928 -0.01175557 -0.00478088
v 0.03327451 -0.01249385 -0.00498126
v 0.03172706 -0.01243485 -0.00582073
v 0.03115466 -0.01228652 -0.00593306
v 0.03041434 -0.01208594 -0.00602415
v 0.03041434 -0.01202357 -0.00597405
v 0.03011280 -0.01167297 -0.00578733
v 0.02761557 -0.01168814 -0.00657519
v 0.02710457 -0.01160049 -0.00663136
v 0.02633717 -0.01148250 -0.00669967
v 0.02313754 -0.00962331 -0.00605299
v 0.03703028 -0.01347486 -0.00209092
v 0.03384329 -0.01261016 0.00463852
v 0.03436874 -0.01276860 0.00437287
v 0.03711153 -0.01423168 0.00383245
v 0.03515961 -0.01320011 0.00431670
v 0.03486349 -0.01330124 0.00484042
v 0.03805408 -0.01495143 0.00399943
v 0.03818770 -0.01484692 0.00356983
v 0.03859217 -0.01514527 0.00356983
v 0.03875648 -0.01503402 0.00296110
v 0.03846758 -0.01472893 0.00271821
v 0.03887024 -0.01494468 0.00242068
v 0.03908692 -0.01478624 0.00114097
v 0.03851272 -0.01438170 0.00114097
v 0.03937041 -0.01525820 0.00195312
v 0.03949139 -0.01512841 0.00114097
v 0.03762614 -0.01375466 -0.00128181
v 0.03806672 -0.01413392 -0.00182830
v 0.03768934 -0.01391985 -0.00209396
v 0.03815701 -0.01406313 -0.00047270
v 0.03856147 -0.01436147 0.00033338
v 0.02958555 -0.01111505 0.00517439
v 0.03035115 -0.01144710 0.00522904
v 0.03041434 -0.01145890 0.00520779
v 0.02313754 -0.00864061 0.00439867
v 0.02438164 -0.00925585 0.00484498
v 0.03041434 -0.01152633 0.00529887
v 0.03008391 -0.01165612 0.00566775
v 0.03330340 -0.01248542 0.00485257
v 0.03823646 -0.01481489 -0.00354368
v 0.03811367 -0.01569982 -0.00499947
v 0.03754669 -0.01540653 -0.00509815
v 0.03569048 -0.01491266 -0.00577367
v 0.03681721 -0.01483006 -0.00504957
v 0.03574284 -0.01406650 -0.00500706
v 0.03479668 -0.01334844 -0.00492509
v 0.03628093 -0.01424348 -0.00480972
v 0.03837549 -0.01439856 -0.00209396
v 0.03899664 -0.01484861 -0.00209092
v 0.03940110 -0.01522786 -0.00209092
v 0.03970446 -0.01569814 -0.00262375
v 0.03925485 -0.01535765 -0.00291066
v 0.03899844 -0.01560375 -0.00371066
v 0.03885218 -0.01576556 -0.00412964
v 0.03840619 -0.01557341 -0.00444691
v 0.03352910 -0.01297255 -0.00530156
v 0.03226695 -0.01260004 -0.00567652
v 0.03164400 -0.01330630 -0.00657064
v 0.03277253 -0.01316134 -0.00590574
v 0.03218389 -0.01345632 -0.00646438
v 0.02990876 -0.01255285 -0.00653572
v 0.02936887 -0.01244160 -0.00660555
v 0.02872605 -0.01232024 -0.00667235
v 0.02710457 -0.01213314 -0.00688791
v 0.02633717 -0.01213314 -0.00700783
v 0.02629564 -0.01213314 -0.00701390
v 0.02313754 -0.01184827 -0.00732207
v 0.02313754 -0.01132237 -0.00705641
v 0.02313754 -0.01072230 -0.00671941
v 0.02313754 -0.01030428 -0.00647956
v 0.03439221 -0.01316471 0.00498160
v 0.03548824 -0.01421988 0.00551139
v 0.03579159 -0.01402941 0.00497097
v 0.03632968 -0.01421651 0.00469166
v 0.03894066 -0.01567791 0.00408596
v 0.03725598 -0.01494300 0.00481462
v 0.03906525 -0.01554981 0.00356983
v 0.03951486 -0.01510144 0.00033338
v 0.03911039 -0.01476601 0.00033338
v 0.03966473 -0.01575882 0.00240094
v 0.03973154 -0.01566274 0.00195312
v 0.03982002 -0.01553295 0.00114097
v 0.03984530 -0.01550767 0.00033338
v 0.03811006 -0.01409852 -0.00128181
v 0.03856147 -0.01437833 -0.00047270
v 0.03903817 -0.01481152 -0.00128181
v 0.03851453 -0.01440698 -0.00128181
v 0.02872605 -0.01103414 0.00543701
v 0.02313754 -0.00906201 0.00506661
v 0.02386703 -0.00917157 0.00494061
v 0.02953499 -0.01155835 0.00576794
v 0.02953499 -0.01200166 0.00617326
v 0.03005321 -0.01249048 0.00643739
v 0.03059310 -0.01262027 0.00634631
v 0.03115466 -0.01232866 0.00581196
v 0.03170719 -0.01246520 0.00567079
v 0.03224709 -0.01259836 0.00553113
v 0.03358688 -0.01294053 0.00519261
v 0.03865356 -0.01604537 -0.00466854
v 0.03884316 -0.01658644 -0.00492661
v 0.03840619 -0.01625944 -0.00508600
v 0.03761711 -0.01617684 -0.00553534
v 0.03710070 -0.01590378 -0.00567955
v 0.03622856 -0.01512167 -0.00563098
v 0.03519934 -0.01434799 -0.00556874
v 0.03598480 -0.01457891 -0.00531674
v 0.03656261 -0.01566106 -0.00580100
v 0.03314450 -0.01418280 -0.00652813
v 0.03283392 -0.01373612 -0.00634901
v 0.03420081 -0.01401930 -0.00585109
v 0.03474070 -0.01419629 -0.00570081
v 0.03378551 -0.01347823 -0.00561883
v 0.03324562 -0.01330461 -0.00577215
v 0.03948055 -0.01514190 -0.00047270
v 0.03944264 -0.01518404 -0.00128181
v 0.03975321 -0.01563409 -0.00209092
v 0.04046103 -0.01658981 -0.00166739
v 0.04061631 -0.01711740 -0.00209092
v 0.04051158 -0.01729270 -0.00262375
v 0.03984349 -0.01617010 -0.00289548
v 0.03957987 -0.01589198 -0.00316265
v 0.03940472 -0.01617010 -0.00371673
v 0.03896233 -0.01625944 -0.00444691
v 0.03260461 -0.01399570 -0.00662832
v 0.03179928 -0.01353722 -0.00663591
v 0.03115466 -0.01375129 -0.00685906
v 0.03115466 -0.01321359 -0.00662681
v 0.02872605 -0.01294221 -0.00696685
v 0.02791531 -0.01294221 -0.00709588
v 0.02633717 -0.01217696 -0.00702605
v 0.02823311 -0.01294221 -0.00704578
v 0.02548670 -0.01213314 -0.00712472
v 0.02313754 -0.01188704 -0.00733421
v 0.02500459 -0.01256802 -0.00734635
v 0.03494655 -0.01407830 0.00566775
v 0.03600827 -0.01480647 0.00572088
v 0.03642538 -0.01495985 0.00560551
v 0.03603897 -0.01438676 0.00522297
v 0.03949861 -0.01616673 0.00363359
v 0.03809923 -0.01571162 0.00484042
v 0.03863912 -0.01599311 0.00462486
v 0.03966293 -0.01737529 0.00479792
v 0.03963945 -0.01661004 0.00394326
v 0.03957987 -0.01588861 0.00293984
v 0.03907609 -0.01478118 -0.00047270
v 0.03982543 -0.01554644 -0.00047270
v 0.03982002 -0.01616673 0.00270758
v 0.04004934 -0.01618190 0.00195312
v 0.04044297 -0.01662184 0.00129733
v 0.04026240 -0.01625944 0.00107418
v 0.04025157 -0.01615156 0.00033338
v 0.04049353 -0.01653587 -0.00047270
v 0.04022810 -0.01613133 -0.00047270
v 0.04048269 -0.01655441 -0.00112849
v 0.02823311 -0.01096334 0.00553720
v 0.02313754 -0.00940418 0.00547041
v 0.02386703 -0.00951037 0.00534745
v 0.02823311 -0.01174882 0.00637060
v 0.02324768 -0.01017618 0.00633265
v 0.02521043 -0.01087906 0.00644195
v 0.02953499 -0.01294221 0.00673645
v 0.03033128 -0.01291019 0.00656795
v 0.03115466 -0.01375129 0.00677440
v 0.03115466 -0.01317988 0.00649356
v 0.03162955 -0.01331304 0.00642525
v 0.02823311 -0.01177242 0.00638882
v 0.02770224 -0.01166960 0.00645106
v 0.02313754 -0.01122124 0.00707497
v 0.02313754 -0.01162240 0.00726472
v 0.03216944 -0.01345969 0.00633113
v 0.03332868 -0.01327259 0.00567079
v 0.03387037 -0.01340743 0.00553265
v 0.03954195 -0.01757250 -0.00479606
v 0.03970626 -0.01811020 -0.00496456
v 0.03896233 -0.01699098 -0.00501162
v 0.03837188 -0.01704323 -0.00543515
v 0.03974418 -0.01724550 -0.00425564
v 0.03788255 -0.01680894 -0.00565830
v 0.03734265 -0.01644316 -0.00579341
v 0.03572117 -0.01647351 -0.00660252
v 0.03542143 -0.01593243 -0.00646134
v 0.03488335 -0.01570825 -0.00658430
v 0.03401663 -0.01494468 -0.00655698
v 0.03358147 -0.01476770 -0.00663895
v 0.03978932 -0.01558689 -0.00128181
v 0.04024796 -0.01624427 -0.00135164
v 0.04067590 -0.01691007 -0.00135164
v 0.04103884 -0.01779837 -0.00128181
v 0.04085466 -0.01779837 -0.00209092
v 0.04052242 -0.01805121 -0.00349510
v 0.04040505 -0.01751182 -0.00316265
v 0.04026240 -0.01700783 -0.00289548
v 0.03973154 -0.01643137 -0.00344956
v 0.04030213 -0.01778657 -0.00374406
v 0.03957264 -0.01670612 -0.00398846
v 0.03193471 -0.01373612 -0.00669056
v 0.03439221 -0.01618190 -0.00696988
v 0.03283392 -0.01449632 -0.00676191
v 0.03179928 -0.01439687 -0.00696077
v 0.03041434 -0.01375129 -0.00699569
v 0.03034392 -0.01375129 -0.00700783
v 0.02946998 -0.01382546 -0.00718544
v 0.02915580 -0.01414403 -0.00735850
v 0.02823311 -0.01322539 -0.00715508
v 0.02791531 -0.01351194 -0.00730689
v 0.02738986 -0.01340406 -0.00734180
v 0.02711541 -0.01299447 -0.00722643
v 0.02446470 -0.01248374 -0.00737368
v 0.02313754 -0.01225113 -0.00742226
v 0.02684997 -0.01329956 -0.00737216
v 0.03521017 -0.01451823 0.00588331
v 0.03596313 -0.01543182 0.00613682
v 0.03710070 -0.01667240 0.00634328
v 0.03770920 -0.01690164 0.00606699
v 0.03741849 -0.01618190 0.00575124
v 0.03802339 -0.01659487 0.00558881
v 0.03974599 -0.01642799 0.00340436
v 0.03889010 -0.01653250 0.00482676
v 0.03977307 -0.01779837 0.00493758
v 0.04006739 -0.01779837 0.00438046
v 0.03975501 -0.01719493 0.00438046
v 0.03919526 -0.01706009 0.00496338
v 0.03880885 -0.01743934 0.00556756
v 0.03926929 -0.01774275 0.00537629
v 0.04035449 -0.01775455 0.00364725
v 0.04042852 -0.01745451 0.00307647
v 0.04037435 -0.01673308 0.00195312
v 0.04052422 -0.01728764 0.00253605
v 0.04046283 -0.01658307 0.00075691
v 0.04060006 -0.01713762 0.00195312
v 0.04095397 -0.01779837 0.00195312
v 0.04061992 -0.01693030 0.00107418
v 0.04047908 -0.01655441 0.00033338
v 0.04074813 -0.01699098 -0.00047270
v 0.02511654 -0.01009864 0.00560855
v 0.02467777 -0.01003290 0.00568293
v 0.02313754 -0.00985929 0.00600324
v 0.02313754 -0.01002447 0.00619603
v 0.02313754 -0.01031271 0.00647231
v 0.02467777 -0.01079478 0.00651026
v 0.02872605 -0.01294221 0.00687155
v 0.03041434 -0.01375129 0.00691558
v 0.02527724 -0.01245677 0.00724954
v 0.03196540 -0.01456206 0.00693076
v 0.03277253 -0.01456206 0.00674100
v 0.03192568 -0.01373949 0.00656946
v 0.03179928 -0.01355745 0.00651026
v 0.03277253 -0.01403447 0.00647383
v 0.03318783 -0.01415246 0.00640703
v 0.02313754 -0.01115044 0.00703398
v 0.02313754 -0.01212976 0.00740135
v 0.02467777 -0.01234889 0.00728901
v 0.03372773 -0.01431091 0.00631747
v 0.03988321 -0.01782534 -0.00452585
v 0.04043033 -0.01836136 -0.00403400
v 0.04023712 -0.01862094 -0.00446816
v 0.03980015 -0.01860408 -0.00503591
v 0.03888469 -0.01892265 -0.00576304
v 0.03874385 -0.01838327 -0.00567348
v 0.03858495 -0.01779837 -0.00557329
v 0.03805769 -0.01734832 -0.00574938
v 0.03763156 -0.01855688 -0.00639151
v 0.03736432 -0.01879624 -0.00661618
v 0.03718376 -0.01825348 -0.00652358
v 0.03676123 -0.01703818 -0.00630195
v 0.03625926 -0.01680051 -0.00646589
v 0.03599744 -0.01703818 -0.00667538
v 0.03519934 -0.01699098 -0.00697444
v 0.03517225 -0.01619370 -0.00670271
v 0.03432720 -0.01540990 -0.00665868
v 0.04108398 -0.01779837 -0.00047270
v 0.04123385 -0.01847429 -0.00047270
v 0.04127357 -0.01897996 -0.00089167
v 0.04117246 -0.01866645 -0.00120894
v 0.04096661 -0.01860408 -0.00209092
v 0.04077160 -0.01860408 -0.00290003
v 0.04055673 -0.01862094 -0.00374406
v 0.03196540 -0.01456206 -0.00698506
v 0.03439221 -0.01699098 -0.00717482
v 0.03358147 -0.01618190 -0.00715356
v 0.03277253 -0.01537282 -0.00707311
v 0.03358147 -0.01537282 -0.00688791
v 0.03041434 -0.01494974 -0.00736002
v 0.03012002 -0.01485872 -0.00738279
v 0.02946998 -0.01457723 -0.00740404
v 0.02872605 -0.01456206 -0.00746780
v 0.02872605 -0.01406818 -0.00738127
v 0.02471207 -0.01287985 -0.00744351
v 0.02313754 -0.01230506 -0.00743440
v 0.02823311 -0.01397548 -0.00740252
v 0.02711541 -0.01370241 -0.00743592
v 0.02629564 -0.01375129 -0.00751182
v 0.03519934 -0.01518067 0.00630532
v 0.03442652 -0.01457217 0.00621880
v 0.03619787 -0.01592232 0.00632658
v 0.03656261 -0.01646002 0.00646320
v 0.03739502 -0.01721010 0.00649963
v 0.03793491 -0.01757419 0.00633113
v 0.03826715 -0.01713425 0.00579223
v 0.03992475 -0.01860408 0.00511063
v 0.04035269 -0.01853328 0.00439260
v 0.04045741 -0.01821471 0.00396452
v 0.03955639 -0.01860408 0.00551595
v 0.03901289 -0.01797704 0.00571177
v 0.04056576 -0.01799221 0.00342562
v 0.04069215 -0.01775455 0.00278652
v 0.04103884 -0.01860408 0.00276072
v 0.04123024 -0.01857374 0.00202751
v 0.04124468 -0.01834281 0.00114097
v 0.04103703 -0.01779837 0.00114097
v 0.04070298 -0.01699098 0.00033338
v 0.02313754 -0.01050318 0.00662563
v 0.02386703 -0.01067511 0.00659527
v 0.02755599 -0.01332990 0.00722222
v 0.03115466 -0.01456206 0.00705827
v 0.03277253 -0.01537282 0.00703854
v 0.03358147 -0.01537282 0.00685637
v 0.03442652 -0.01532225 0.00660590
v 0.03418095 -0.01485029 0.00646624
v 0.03350744 -0.01457217 0.00653151
v 0.02313754 -0.01294221 0.00753190
v 0.02386703 -0.01294221 0.00747573
v 0.02467777 -0.01294221 0.00741045
v 0.03472084 -0.01501885 0.00637971
v 0.04047908 -0.01890243 -0.00416304
v 0.04026421 -0.01941316 -0.00462907
v 0.03985974 -0.01941316 -0.00508296
v 0.03845855 -0.01863442 -0.00593458
v 0.03931082 -0.01941316 -0.00548676
v 0.03890635 -0.01941316 -0.00578126
v 0.03843869 -0.01941316 -0.00610157
v 0.03787713 -0.01941316 -0.00646134
v 0.03818048 -0.01779837 -0.00582680
v 0.03747086 -0.01941316 -0.00665717
v 0.03681721 -0.01941316 -0.00685451
v 0.03687499 -0.01855688 -0.00673307
v 0.03600827 -0.01779837 -0.00687273
v 0.03661497 -0.01779837 -0.00663895
v 0.03645246 -0.01733989 -0.00656305
v 0.03519934 -0.01779837 -0.00709284
v 0.04124107 -0.01837147 0.00033338
v 0.04142705 -0.01941316 0.00033338
v 0.04155526 -0.02022224 0.00033338
v 0.04144872 -0.02022224 -0.00047270
v 0.04131691 -0.02022224 -0.00108446
v 0.04073910 -0.02022224 -0.00371066
v 0.03334673 -0.01718819 -0.00738430
v 0.03360314 -0.01694547 -0.00730537
v 0.03311561 -0.01664881 -0.00734484
v 0.03281767 -0.01618190 -0.00728108
v 0.03179928 -0.01579927 -0.00735091
v 0.03257752 -0.01645159 -0.00738582
v 0.03191846 -0.01618190 -0.00741770
v 0.03041434 -0.01537282 -0.00744351
v 0.03115466 -0.01618190 -0.00750423
v 0.02953499 -0.01537114 -0.00752396
v 0.02823311 -0.01456037 -0.00750575
v 0.02386703 -0.01294221 -0.00751941
v 0.02313754 -0.01294221 -0.00757254
v 0.02791531 -0.01456037 -0.00752852
v 0.02633717 -0.01456206 -0.00763933
v 0.02386703 -0.01375129 -0.00768184
v 0.03566159 -0.01573859 0.00642070
v 0.03682624 -0.01696064 0.00658464
v 0.03596313 -0.01618696 0.00653151
v 0.03681721 -0.01779837 0.00684878
v 0.03764962 -0.01782534 0.00656643
v 0.03807575 -0.01811189 0.00643132
v 0.03961237 -0.01941316 0.00555542
v 0.03997530 -0.01941316 0.00515162
v 0.04038158 -0.01941316 0.00465219
v 0.04061090 -0.01941316 0.00424687
v 0.04052784 -0.01875410 0.00412846
v 0.04067048 -0.01853328 0.00364725
v 0.03915012 -0.01860408 0.00580893
v 0.03864453 -0.01941316 0.00629318
v 0.03920609 -0.01941316 0.00588787
v 0.04119954 -0.01934405 0.00274554
v 0.04126996 -0.01902547 0.00234629
v 0.04092689 -0.01941316 0.00356983
v 0.04130427 -0.01882489 0.00180587
v 0.04131871 -0.01874735 0.00114097
v 0.03234279 -0.01578747 0.00721159
v 0.03203041 -0.01539136 0.00715694
v 0.03196540 -0.01699098 0.00746207
v 0.03277253 -0.01699098 0.00738920
v 0.03277253 -0.01594592 0.00717668
v 0.03354174 -0.01622910 0.00710837
v 0.03519934 -0.01699098 0.00697630
v 0.03439221 -0.01618190 0.00692620
v 0.03600827 -0.01699098 0.00681083
v 0.03519934 -0.01618190 0.00673493
v 0.03519934 -0.01558520 0.00649356
v 0.02313754 -0.01375129 0.00762601
v 0.04051158 -0.01941316 -0.00422528
v 0.04055673 -0.02022224 -0.00428296
v 0.04024615 -0.02022224 -0.00468828
v 0.03983988 -0.02022224 -0.00506475
v 0.03888469 -0.02004525 -0.00576608
v 0.03851272 -0.02027786 -0.00599530
v 0.03741307 -0.02006379 -0.00662225
v 0.03687499 -0.02028966 -0.00669664
v 0.03600827 -0.02022224 -0.00688335
v 0.03600827 -0.01941316 -0.00700631
v 0.03600827 -0.01860408 -0.00698658
v 0.03439221 -0.01779837 -0.00724161
v 0.04153178 -0.02022224 0.00114097
v 0.04158234 -0.02103300 0.00033338
v 0.04142344 -0.01941316 0.00114097
v 0.04147039 -0.02103300 -0.00047270
v 0.04093230 -0.02103300 -0.00290003
v 0.04073007 -0.02103300 -0.00371066
v 0.03345688 -0.01779837 -0.00739948
v 0.03277253 -0.01779837 -0.00747842
v 0.03196540 -0.01699098 -0.00752548
v 0.03281767 -0.01694547 -0.00742833
v 0.03386135 -0.01779837 -0.00733269
v 0.03179928 -0.01682411 -0.00752245
v 0.03041434 -0.01618190 -0.00756191
v 0.02872605 -0.01537114 -0.00758165
v 0.02823311 -0.01487726 -0.00755129
v 0.02313754 -0.01375129 -0.00773042
v 0.02548670 -0.01456206 -0.00769398
v 0.03681721 -0.01860408 0.00697174
v 0.03762614 -0.01860408 0.00669850
v 0.03600827 -0.01779837 0.00700362
v 0.03602272 -0.01859565 0.00714935
v 0.03814617 -0.01860408 0.00646927
v 0.03854883 -0.01860408 0.00621273
v 0.03997711 -0.02022224 0.00513492
v 0.04038158 -0.02022224 0.00469317
v 0.03919165 -0.02022224 0.00591064
v 0.03959612 -0.02022224 0.00553872
v 0.04070118 -0.02022224 0.00428938
v 0.04108037 -0.02022224 0.00356983
v 0.03824007 -0.01941316 0.00650115
v 0.03859397 -0.02022224 0.00631747
v 0.04124468 -0.02022224 0.00301119
v 0.04141983 -0.02022224 0.00195312
v 0.03354174 -0.01700615 0.00727838
v 0.03179928 -0.01699098 0.00747118
v 0.03277253 -0.01779837 0.00745448
v 0.03358147 -0.01779837 0.00739376
v 0.03439040 -0.01779332 0.00728901
v 0.03324562 -0.01653250 0.00722525
v 0.03439040 -0.01700615 0.00712962
v 0.02313754 -0.01456206 0.00769433
v 0.02386703 -0.01456206 0.00766093
v 0.04054048 -0.02103300 -0.00423742
v 0.04017573 -0.02103300 -0.00464122
v 0.03976946 -0.02103300 -0.00500706
v 0.03883232 -0.02058464 -0.00572813
v 0.03834479 -0.02103300 -0.00592092
v 0.03766045 -0.02028966 -0.00645527
v 0.03874926 -0.02103300 -0.00568107
v 0.03718376 -0.02060149 -0.00653572
v 0.03762614 -0.02103300 -0.00624274
v 0.03664567 -0.02078185 -0.00659341
v 0.03597938 -0.02104311 -0.00664199
v 0.03519934 -0.02103300 -0.00679227
v 0.03519934 -0.02022224 -0.00702757
v 0.03519934 -0.01941316 -0.00713383
v 0.03439221 -0.01860408 -0.00725983
v 0.03519934 -0.01860408 -0.00713079
v 0.04151914 -0.02103300 0.00114097
v 0.04141080 -0.02183702 0.00033338
v 0.04136386 -0.02176454 -0.00047270
v 0.04130246 -0.02160610 -0.00101160
v 0.04101536 -0.02184208 -0.00209092
v 0.04080591 -0.02184208 -0.00290003
v 0.04048811 -0.02148305 -0.00415545
v 0.03344966 -0.01860408 -0.00738886
v 0.03385593 -0.01860408 -0.00733876
v 0.03334132 -0.01926988 -0.00737216
v 0.03277253 -0.01860408 -0.00744199
v 0.03196540 -0.01779837 -0.00752700
v 0.03179928 -0.01763319 -0.00753763
v 0.03179928 -0.01699098 -0.00753611
v 0.03041434 -0.01624932 -0.00756799
v 0.03034392 -0.01618190 -0.00756647
v 0.02823311 -0.01537114 -0.00761201
v 0.02313754 -0.01383220 -0.00773952
v 0.02791531 -0.01537114 -0.00763023
v 0.02467777 -0.01456206 -0.00773649
v 0.03576090 -0.01885692 0.00724043
v 0.03681721 -0.01941316 0.00699907
v 0.03762614 -0.01941316 0.00673948
v 0.03411955 -0.01728764 0.00723740
v 0.03465945 -0.01752194 0.00718882
v 0.03494835 -0.01805964 0.00724043
v 0.03548824 -0.01831753 0.00719338
v 0.04065243 -0.02103300 0.00418767
v 0.03905081 -0.02103300 0.00578919
v 0.03945708 -0.02103300 0.00540361
v 0.04026240 -0.02103300 0.00459146
v 0.04098647 -0.02103300 0.00356983
v 0.04130788 -0.02078859 0.00258159
v 0.03818951 -0.02022224 0.00646472
v 0.03807214 -0.02065712 0.00641311
v 0.03838091 -0.02096726 0.00618540
v 0.03115466 -0.01698929 0.00750305
v 0.03358147 -0.01860408 0.00736643
v 0.03576090 -0.01914684 0.00724043
v 0.03034392 -0.01698761 0.00754100
v 0.03196540 -0.01779837 0.00748332
v 0.02313754 -0.01537114 0.00770040
v 0.02386703 -0.01537114 0.00769433
v 0.02710457 -0.01618021 0.00762146
v 0.02953499 -0.01698761 0.00756985
v 0.03969001 -0.02151339 -0.00494938
v 0.03924762 -0.02103300 -0.00535773
v 0.03927832 -0.02180837 -0.00514672
v 0.03844952 -0.02189770 -0.00560972
v 0.03818590 -0.02166172 -0.00581618
v 0.03767851 -0.02189770 -0.00592244
v 0.03744197 -0.02243035 -0.00580251
v 0.03683707 -0.02268150 -0.00589360
v 0.03681721 -0.02184208 -0.00619568
v 0.03597938 -0.02179320 -0.00640973
v 0.03798005 -0.02220279 -0.00571750
v 0.03622676 -0.02132124 -0.00650840
v 0.03568867 -0.02148979 -0.00656001
v 0.03519934 -0.02157239 -0.00660404
v 0.03439221 -0.02103300 -0.00686969
v 0.03439221 -0.02022224 -0.00714749
v 0.03439221 -0.01941316 -0.00725527
v 0.04136566 -0.02169543 0.00114097
v 0.04126996 -0.02223988 0.00033338
v 0.04109301 -0.02265284 -0.00047270
v 0.04125552 -0.02217077 -0.00047270
v 0.04100995 -0.02265284 -0.00128181
v 0.04119412 -0.02186231 -0.00128333
v 0.04083119 -0.02265284 -0.00209092
v 0.04056756 -0.02178814 -0.00365905
v 0.04049353 -0.02230056 -0.00335696
v 0.04030574 -0.02202244 -0.00389586
v 0.03976585 -0.02241686 -0.00427841
v 0.03956542 -0.02205278 -0.00481731
v 0.04058020 -0.02260396 -0.00285449
v 0.03359952 -0.01948901 -0.00734028
v 0.03277253 -0.01976713 -0.00734939
v 0.03277253 -0.01936259 -0.00738582
v 0.03196540 -0.01860408 -0.00747235
v 0.03041434 -0.01779500 -0.00757861
v 0.03041434 -0.01705840 -0.00760442
v 0.03041434 -0.01698929 -0.00760594
v 0.03115466 -0.01698929 -0.00757406
v 0.02872605 -0.01618190 -0.00764389
v 0.02629564 -0.01537114 -0.00771220
v 0.02386703 -0.01456206 -0.00777596
v 0.02313754 -0.01456206 -0.00780632
v 0.03602272 -0.01941484 0.00715846
v 0.03681721 -0.02022224 0.00685182
v 0.03762614 -0.02022224 0.00663626
v 0.04052964 -0.02157239 0.00404497
v 0.03844952 -0.02182185 0.00579982
v 0.03818590 -0.02243203 0.00569204
v 0.03890094 -0.02153699 0.00564953
v 0.03982002 -0.02265284 0.00413302
v 0.04065423 -0.02184208 0.00358045
v 0.04052964 -0.02241686 0.00331783
v 0.04092869 -0.02184208 0.00276072
v 0.04119774 -0.02104649 0.00281385
v 0.04130246 -0.02151845 0.00169050
v 0.04124288 -0.02132966 0.00223092
v 0.03662220 -0.02162970 0.00646472
v 0.03627912 -0.02217077 0.00637819
v 0.03762614 -0.02184208 0.00611861
v 0.03179928 -0.01779837 0.00748636
v 0.03041434 -0.01779500 0.00749698
v 0.02872605 -0.01779500 0.00750457
v 0.02823311 -0.01779500 0.00750609
v 0.03277253 -0.01860408 0.00736795
v 0.03439221 -0.01923954 0.00725865
v 0.03519934 -0.01922606 0.00725561
v 0.03600827 -0.02022224 0.00699299
v 0.03519934 -0.01963228 0.00717668
v 0.02872605 -0.01698761 0.00758655
v 0.02313754 -0.01617853 0.00766397
v 0.02386703 -0.01617853 0.00766397
v 0.02633717 -0.01618021 0.00764119
v 0.02633717 -0.01617853 0.00764119
v 0.03902733 -0.02247923 -0.00506930
v 0.03712056 -0.02297142 -0.00569170
v 0.03658067 -0.02312649 -0.00578733
v 0.03600827 -0.02265284 -0.00609398
v 0.03767851 -0.02268150 -0.00560669
v 0.03848744 -0.02271015 -0.00523325
v 0.03519934 -0.02197693 -0.00643857
v 0.03439221 -0.02159430 -0.00662225
v 0.03358147 -0.02103300 -0.00683781
v 0.03277253 -0.02022224 -0.00715964
v 0.03358147 -0.02022224 -0.00718696
v 0.04101356 -0.02265284 0.00114097
v 0.04111829 -0.02265284 0.00033338
v 0.04080410 -0.02346192 0.00033338
v 0.04067951 -0.02336922 -0.00128181
v 0.04059284 -0.02322257 -0.00209092
v 0.04049895 -0.02310289 -0.00255544
v 0.04030393 -0.02283994 -0.00309434
v 0.03955639 -0.02295456 -0.00400820
v 0.03929096 -0.02271858 -0.00457594
v 0.03196540 -0.01971656 -0.00733725
v 0.02663691 -0.01901536 -0.00735850
v 0.02791531 -0.01860577 -0.00748753
v 0.02823311 -0.01860577 -0.00749512
v 0.02872605 -0.01860408 -0.00750575
v 0.02629564 -0.01779500 -0.00762112
v 0.02710457 -0.01779500 -0.00762719
v 0.02823311 -0.01779500 -0.00762719
v 0.02872605 -0.01779500 -0.00762264
v 0.03115466 -0.01860239 -0.00749512
v 0.02953499 -0.01779500 -0.00760594
v 0.02953499 -0.01698761 -0.00763326
v 0.03041434 -0.01698761 -0.00760594
v 0.02823311 -0.01618021 -0.00766514
v 0.02791531 -0.01618021 -0.00767880
v 0.02548670 -0.01537114 -0.00774560
v 0.02313754 -0.01464128 -0.00780784
v 0.03600827 -0.02103300 0.00676225
v 0.03600827 -0.02187748 0.00651633
v 0.04038699 -0.02211177 0.00385825
v 0.03827618 -0.02315346 0.00496794
v 0.03850189 -0.02273544 0.00523056
v 0.03872759 -0.02207637 0.00549470
v 0.03762614 -0.02256014 0.00579071
v 0.03762614 -0.02296636 0.00549773
v 0.03968098 -0.02307761 0.00400399
v 0.04023893 -0.02267307 0.00358045
v 0.04040686 -0.02295456 0.00300967
v 0.04059826 -0.02267307 0.00274857
v 0.04066868 -0.02351755 0.00118803
v 0.03573923 -0.02228033 0.00642677
v 0.02823311 -0.01698761 0.00759110
v 0.02633717 -0.01698592 0.00760173
v 0.02467777 -0.01698592 0.00760780
v 0.02710457 -0.01779500 0.00750761
v 0.03041434 -0.01963397 0.00719641
v 0.03196540 -0.01966937 0.00718882
v 0.03277253 -0.01966431 0.00718730
v 0.03519934 -0.02022224 0.00703550
v 0.03519934 -0.02103300 0.00682146
v 0.02313754 -0.01698592 0.00757592
v 0.02386703 -0.01698592 0.00759565
v 0.03878899 -0.02301862 -0.00487803
v 0.03824910 -0.02317032 -0.00504198
v 0.03762614 -0.02330685 -0.00518164
v 0.03683346 -0.02347204 -0.00533496
v 0.03655178 -0.02391197 -0.00498126
v 0.03600827 -0.02317032 -0.00583439
v 0.03519934 -0.02265284 -0.00611067
v 0.03439221 -0.02200052 -0.00641884
v 0.02609701 -0.01897322 -0.00734332
v 0.02633717 -0.01899345 -0.00734939
v 0.03179928 -0.02011099 -0.00715812
v 0.03115466 -0.01967274 -0.00731599
v 0.04053506 -0.02394905 0.00094667
v 0.04054950 -0.02396085 0.00033338
v 0.04050436 -0.02391029 -0.00025106
v 0.04042311 -0.02383949 -0.00078997
v 0.04030393 -0.02377544 -0.00128181
v 0.04003489 -0.02365408 -0.00210458
v 0.04004392 -0.02328325 -0.00285449
v 0.03976585 -0.02315515 -0.00346929
v 0.02386703 -0.01779500 -0.00754673
v 0.02467777 -0.01779500 -0.00758013
v 0.02548670 -0.01779500 -0.00760442
v 0.02633717 -0.01783714 -0.00761353
v 0.02313754 -0.01706346 -0.00768791
v 0.02313754 -0.01698592 -0.00770157
v 0.02386703 -0.01698592 -0.00770916
v 0.02548670 -0.01698592 -0.00771827
v 0.02629564 -0.01698592 -0.00771524
v 0.02710457 -0.01698424 -0.00769854
v 0.02791531 -0.01698424 -0.00767880
v 0.02633717 -0.01618021 -0.00772434
v 0.02633717 -0.01617853 -0.00772434
v 0.02467777 -0.01537114 -0.00776989
v 0.02386703 -0.01537114 -0.00778810
v 0.02313754 -0.01537114 -0.00780176
v 0.03843869 -0.02482050 0.00181802
v 0.03894788 -0.02474465 0.00166166
v 0.03890455 -0.02389343 0.00321309
v 0.03881607 -0.02303716 0.00476604
v 0.03762614 -0.02323437 0.00509242
v 0.03785185 -0.02383781 0.00391898
v 0.03681721 -0.02302199 0.00555542
v 0.03519934 -0.02382264 0.00470987
v 0.03971529 -0.02391029 0.00244041
v 0.03983627 -0.02320740 0.00356983
v 0.03924762 -0.02318212 0.00418463
v 0.03920429 -0.02358834 0.00351822
v 0.03944444 -0.02377544 0.00298083
v 0.04042672 -0.02382095 0.00148709
v 0.04049172 -0.02310964 0.00247077
v 0.03541602 -0.02228033 0.00642677
v 0.03573020 -0.02306581 0.00560551
v 0.03627009 -0.02304727 0.00558426
v 0.03439221 -0.02103300 0.00682905
v 0.02633717 -0.01779500 0.00750609
v 0.02791531 -0.01860577 0.00736947
v 0.02953499 -0.01966768 0.00718882
v 0.03034392 -0.01966768 0.00719034
v 0.03041434 -0.01966768 0.00719034
v 0.03196540 -0.02022224 0.00705675
v 0.03277253 -0.02022224 0.00705372
v 0.02313754 -0.01779500 0.00739527
v 0.02386703 -0.01779500 0.00743626
v 0.02467777 -0.01779500 0.00746966
v 0.02548670 -0.01779500 0.00749243
v 0.03901650 -0.02317369 -0.00433913
v 0.03804686 -0.02387657 -0.00413116
v 0.03762614 -0.02400131 -0.00428600
v 0.03762614 -0.02371307 -0.00469131
v 0.03708986 -0.02381421 -0.00486740
v 0.03681901 -0.02413278 -0.00456532
v 0.03594688 -0.02412436 -0.00459568
v 0.03617439 -0.02391197 -0.00498126
v 0.03519934 -0.02313829 -0.00581162
v 0.02823311 -0.02068577 -0.00658126
v 0.03358147 -0.02193142 -0.00638240
v 0.02633717 -0.01933899 -0.00716115
v 0.02548670 -0.01941484 -0.00703364
v 0.02548670 -0.01889906 -0.00731903
v 0.02313754 -0.01822819 -0.00736912
v 0.02386703 -0.01830573 -0.00739948
v 0.02313754 -0.01785737 -0.00748450
v 0.04011615 -0.02416312 0.00118803
v 0.03950042 -0.02458115 0.00114097
v 0.04005656 -0.02428954 0.00033338
v 0.04011434 -0.02407716 -0.00050154
v 0.03989766 -0.02399119 -0.00128181
v 0.03974779 -0.02391029 -0.00184348
v 0.03958167 -0.02383275 -0.00238238
v 0.03928735 -0.02373667 -0.00296683
v 0.03927110 -0.02334225 -0.00372888
v 0.02313754 -0.01625607 -0.00778203
v 0.02313754 -0.01617853 -0.00778810
v 0.02386703 -0.01617853 -0.00777596
v 0.03795477 -0.02466543 0.00233263
v 0.03766226 -0.02486601 0.00201840
v 0.03762614 -0.02517616 0.00114097
v 0.03843869 -0.02505311 0.00114097
v 0.03909595 -0.02482050 0.00114097
v 0.03987419 -0.02401985 0.00195312
v 0.03600827 -0.02376870 0.00460816
v 0.03681721 -0.02370633 0.00448217
v 0.03759906 -0.02366756 0.00431366
v 0.03681721 -0.02392209 0.00407989
v 0.03518489 -0.02335236 0.00526547
v 0.03439221 -0.02381589 0.00469621
v 0.03519934 -0.02404345 0.00430607
v 0.03544310 -0.02306581 0.00560551
v 0.03358147 -0.02103300 0.00682297
v 0.03115466 -0.02022392 0.00704613
v 0.03041434 -0.02022392 0.00701728
v 0.02872605 -0.01963565 0.00717516
v 0.02791531 -0.01957834 0.00714480
v 0.02872605 -0.02022392 0.00689736
v 0.02823311 -0.02022392 0.00684878
v 0.02791531 -0.02022392 0.00681690
v 0.02710457 -0.02022392 0.00672886
v 0.02548670 -0.02012447 0.00660438
v 0.02467777 -0.02004019 0.00656036
v 0.02386703 -0.01995929 0.00651330
v 0.02612771 -0.02058969 0.00637364
v 0.03487793 -0.02222471 0.00639034
v 0.03439221 -0.02260902 0.00594859
v 0.03439221 -0.02301356 0.00555086
v 0.03490682 -0.02305064 0.00559033
v 0.03179928 -0.02022224 0.00705523
v 0.02791531 -0.01917381 0.00725713
v 0.02313754 -0.01825179 0.00726776
v 0.02467777 -0.01847766 0.00729205
v 0.02592367 -0.01900356 0.00721463
v 0.02710457 -0.01910638 0.00724499
v 0.03863731 -0.02374510 -0.00371066
v 0.03823284 -0.02397602 -0.00371066
v 0.03762614 -0.02430134 -0.00371066
v 0.03882329 -0.02385635 -0.00327954
v 0.03688041 -0.02458620 -0.00371825
v 0.03563450 -0.02386140 -0.00491750
v 0.03665470 -0.02472779 -0.00345260
v 0.03620509 -0.02472779 -0.00345260
v 0.03596674 -0.02457441 -0.00371825
v 0.03519934 -0.02405693 -0.00443780
v 0.03221278 -0.02309278 -0.00497063
v 0.03519934 -0.02381421 -0.00484312
v 0.03519934 -0.02349058 -0.00532889
v 0.03470278 -0.02307761 -0.00575697
v 0.02313754 -0.01977893 -0.00651295
v 0.02349145 -0.01981264 -0.00654180
v 0.02755237 -0.02062003 -0.00654028
v 0.02809227 -0.02067229 -0.00657367
v 0.02823311 -0.02048687 -0.00669360
v 0.02872605 -0.02072791 -0.00660404
v 0.02633717 -0.02011773 -0.00670423
v 0.02467777 -0.01941484 -0.00693345
v 0.02313754 -0.01937945 -0.00676039
v 0.02313754 -0.01857037 -0.00720214
v 0.03950042 -0.02460137 0.00033338
v 0.03909595 -0.02480870 0.00033338
v 0.03894608 -0.02472779 -0.00024499
v 0.03878538 -0.02465194 -0.00078541
v 0.03928735 -0.02405019 -0.00210458
v 0.03719459 -0.02467048 -0.00327802
v 0.03600827 -0.02398782 0.00420437
v 0.03741669 -0.02470757 0.00241460
v 0.03681721 -0.02474465 0.00249810
v 0.03681721 -0.02499917 0.00195312
v 0.03681721 -0.02524358 0.00114097
v 0.03762614 -0.02522841 0.00033338
v 0.03843869 -0.02506322 0.00033338
v 0.03439221 -0.02401985 0.00429241
v 0.03439221 -0.02341304 0.00514707
v 0.03358147 -0.02333550 0.00507572
v 0.03064366 -0.02227359 0.00562525
v 0.02667663 -0.02144260 0.00560248
v 0.02329283 -0.02066723 0.00564043
v 0.02313754 -0.02079870 0.00540513
v 0.02313754 -0.02091164 0.00523815
v 0.03358147 -0.02374004 0.00452164
v 0.03519934 -0.02437382 0.00356983
v 0.03600827 -0.02459800 0.00299146
v 0.03600827 -0.02431483 0.00356983
v 0.02548670 -0.01896142 0.00720248
v 0.02823311 -0.01960026 0.00715694
v 0.02467777 -0.01888051 0.00717668
v 0.02386703 -0.01879455 0.00714328
v 0.02710457 -0.01951092 0.00710229
v 0.02467777 -0.01941484 0.00692468
v 0.02386703 -0.01941484 0.00684726
v 0.02313754 -0.01941484 0.00675315
v 0.02313754 -0.01988175 0.00645713
v 0.02548670 -0.02052901 0.00631747
v 0.03115466 -0.02232584 0.00567534
v 0.03196540 -0.02239832 0.00574517
v 0.03358147 -0.02294276 0.00548103
v 0.02313754 -0.01830910 0.00724954
v 0.03688041 -0.02481713 -0.00296531
v 0.03681721 -0.02503963 -0.00209092
v 0.03600827 -0.02509188 -0.00209092
v 0.03596674 -0.02483230 -0.00295620
v 0.03519934 -0.02474634 -0.00269206
v 0.02386703 -0.02177634 -0.00371218
v 0.02331269 -0.02147462 -0.00419795
v 0.03387037 -0.02389512 -0.00417214
v 0.03439221 -0.02396085 -0.00428600
v 0.03167289 -0.02303210 -0.00487499
v 0.03179928 -0.02304558 -0.00489928
v 0.02445025 -0.02140046 -0.00485830
v 0.02499014 -0.02145945 -0.00495393
v 0.02313754 -0.02084759 -0.00522870
v 0.02313754 -0.02054924 -0.00562946
v 0.02413968 -0.02065712 -0.00577519
v 0.02467777 -0.02071611 -0.00585109
v 0.02313754 -0.02020370 -0.00604084
v 0.02313754 -0.01944687 -0.00672092
v 0.03848383 -0.02485590 -0.00049698
v 0.03822923 -0.02476151 -0.00128181
v 0.03808117 -0.02469914 -0.00176303
v 0.03838452 -0.02447664 -0.00205601
v 0.03762614 -0.02497389 -0.00128181
v 0.03600827 -0.02477499 0.00258918
v 0.03600827 -0.02501940 0.00195312
v 0.03681721 -0.02529583 0.00033338
v 0.03600827 -0.02520650 0.00114097
v 0.03681721 -0.02526212 -0.00047270
v 0.03681721 -0.02518290 -0.00128181
v 0.03762614 -0.02513570 -0.00047270
v 0.03439221 -0.02428112 0.00356983
v 0.03358147 -0.02392546 0.00411784
v 0.02467777 -0.02044473 0.00622639
v 0.02467777 -0.02082062 0.00582107
v 0.02386703 -0.02073128 0.00571633
v 0.02313754 -0.02046496 0.00582866
v 0.02313754 -0.02134989 0.00444270
v 0.02371716 -0.02138866 0.00466129
v 0.02425885 -0.02144091 0.00479033
v 0.03519934 -0.02460137 0.00292011
v 0.02313754 -0.01871533 0.00710533
v 0.02313754 -0.02033854 0.00596680
v 0.02386703 -0.02036383 0.00612012
v 0.03600827 -0.02521155 -0.00128181
v 0.03519934 -0.02505311 -0.00128181
v 0.03519934 -0.02493006 -0.00209092
v 0.02386703 -0.02201907 -0.00290155
v 0.02313754 -0.02162127 -0.00365146
v 0.02313754 -0.02159430 -0.00373799
v 0.02313754 -0.02145271 -0.00414178
v 0.02313754 -0.02133641 -0.00439226
v 0.02386703 -0.02154036 -0.00433002
v 0.02386703 -0.02133641 -0.00473534
v 0.02313754 -0.02088973 -0.00516494
v 0.03519934 -0.02473791 0.00251631
v 0.03519934 -0.02490309 0.00195312
v 0.03600827 -0.02524190 0.00033338
v 0.03600827 -0.02523347 -0.00047270
v 0.03519934 -0.02503457 0.00114097
v 0.03315353 -0.02387320 0.00399032
v 0.02313754 -0.02163812 0.00363359
v 0.02313754 -0.02144597 0.00420588
v 0.02320615 -0.02149485 0.00411936
v 0.03519934 -0.02505985 -0.00047270
v 0.02352576 -0.02223313 -0.00047421
v 0.02359979 -0.02221628 -0.00128333
v 0.02313754 -0.02201907 -0.00197555
v 0.02313754 -0.02200390 -0.00209547
v 0.03394621 -0.02468734 -0.00172811
v 0.02430761 -0.02223988 -0.00243096
v 0.02313754 -0.02184545 -0.00290155
v 0.02313754 -0.02127404 -0.00451674
v 0.03397510 -0.02468060 0.00156299
v 0.02313754 -0.02185219 0.00276223
v 0.03519934 -0.02505985 0.00033338
v 0.02417038 -0.02227359 0.00170265
v 0.02313754 -0.02206795 0.00114249
v 0.02313754 -0.02210503 0.00033338
v 0.02313754 -0.02152856 0.00397059
v 0.02313754 -0.02213706 -0.00047421
v 0.02313754 -0.02210166 -0.00128333
v 0.02313754 -0.02198704 0.00195312
f 1 2 3
f 1 3 10
f 1 10 24
f 1 24 47
f 1 47 26
f 1 26 11
f 1 11 4
f 1 4 5
f 1 5 2
f 2 6 7
f 2 7 8
f 2 8 3
f 2 5 9
f 2 9 6
f 3 8 7
f 3 7 10
f 4 11 12
f 4 12 5
f 5 12 13
f 5 13 14
f 5 14 15
f 5 15 9
f 6 16 17
f 6 17 7
f 6 9 18
f 6 18 16
f 7 17 19
f 7 19 20
f 7 20 10
f 9 15 21
f 9 21 22
f 9 22 23
f 9 23 18
f 10 20 25
f 10 25 24
f 11 26 27
f 11 27 12
f 12 27 13
f 13 28 29
f 13 29 30
f 13 30 31
f 13 31 32
f 13 32 33
f 13 33 14
f 13 27 34
f 13 34 28
f 14 35 15
f 14 33 36
f 14 36 35
f 15 35 21
f 16 37 17
f 16 18 37
f 17 37 38
f 17 38 39
f 17 39 40
f 17 40 19
f 18 23 41
f 18 41 42
f 18 42 38
f 18 38 43
f 18 43 37
f 19 40 25
f 19 25 20
f 21 35 22
f 22 35 36
f 22 36 44
f 22 44 45
f 22 45 23
f 23 45 46
f 23 46 41
f 24 25 40
f 24 40 47
f 26 47 78
f 26 78 77
f 26 77 76
f 26 76 75
f 26 75 74
f 26 74 73
f 26 73 118
f 26 118 171
f 26 171 231
f 26 231 230
f 26 230 229
f 26 229 228
f 26 228 294
f 26 294 370
f 26 370 450
f 26 450 520
f 26 520 583
f 26 583 643
f 26 643 712
f 26 712 780
f 26 780 841
f 26 841 899
f 26 899 898
f 26 898 831
f 26 831 830
f 26 830 888
f 26 888 886
f 26 886 961
f 26 961 960
f 26 960 1019
f 26 1019 952
f 26 952 1018
f 26 1018 1015
f 26 1015 1014
f 26 1014 1055
f 26 1055 1073
f 26 1073 1052
f 26 1052 1051
f 26 1051 1050
f 26 1050 1049
f 26 1049 1072
f 26 1072 1069
f 26 1069 1068
f 26 1068 1082
f 26 1082 1081
f 26 1081 1079
f 26 1079 1078
f 26 1078 1083
f 26 1083 1075
f 26 1075 1062
f 26 1062 1080
f 26 1080 1063
f 26 1063 1038
f 26 1038 982
f 26 982 981
f 26 981 1037
f 26 1037 1043
f 26 1043 995
f 26 995 994
f 26 994 1042
f 26 1042 1000
f 26 1000 934
f 26 934 868
f 26 868 804
f 26 804 740
f 26 740 667
f 26 667 608
f 26 608 555
f 26 555 482
f 26 482 412
f 26 412 330
f 26 330 329
f 26 329 411
f 26 411 473
f 26 473 400
f 26 400 399
f 26 399 398
f 26 398 317
f 26 317 250
f 26 250 196
f 26 196 144
f 26 144 102
f 26 102 100
f 26 100 58
f 26 58 48
f 26 48 49
f 26 49 27
f 27 49 34
f 28 50 29
f 28 34 50
f 29 50 30
f 30 51 31
f 30 50 52
f 30 52 51
f 31 51 53
f 31 53 54
f 31 54 55
f 31 55 32
f 32 55 56
f 32 56 57
f 32 57 33
f 33 57 36
f 34 49 48
f 34 48 58
f 34 58 59
f 34 59 60
f 34 60 61
f 34 61 50
f 36 57 44
f 37 43 38
f 38 42 41
f 38 41 62
f 38 62 63
f 38 63 64
f 38 64 65
f 38 65 39
f 39 66 40
f 39 65 67
f 39 67 68
f 39 68 69
f 39 69 70
f 39 70 71
f 39 71 72
f 39 72 73
f 39 73 74
f 39 74 75
f 39 75 76
f 39 76 77
f 39 77 78
f 39 78 47
f 39 47 66
f 40 66 47
f 41 46 79
f 41 79 62
f 44 57 80
f 44 80 81
f 44 81 82
f 44 82 45
f 45 82 83
f 45 83 46
f 46 83 84
f 46 84 79
f 50 85 52
f 50 61 85
f 51 52 86
f 51 86 87
f 51 87 53
f 52 85 86
f 53 88 89
f 53 89 90
f 53 90 91
f 53 91 92
f 53 92 93
f 53 93 94
f 53 94 54
f 53 87 95
f 53 95 88
f 54 94 55
f 55 94 56
f 56 80 57
f 56 94 96
f 56 96 97
f 56 97 98
f 56 98 99
f 56 99 80
f 58 100 59
f 59 101 60
f 59 100 102
f 59 102 103
f 59 103 101
f 60 104 105
f 60 105 106
f 60 106 85
f 60 85 61
f 60 101 107
f 60 107 104
f 62 79 108
f 62 108 109
f 62 109 63
f 63 110 64
f 63 109 110
f 64 111 112
f 64 112 65
f 64 110 113
f 64 113 111
f 65 112 67
f 67 112 68
f 68 112 114
f 68 114 69
f 69 114 70
f 70 114 115
f 70 115 116
f 70 116 71
f 71 116 117
f 71 117 72
f 72 118 73
f 72 117 118
f 79 84 119
f 79 119 108
f 80 99 120
f 80 120 81
f 81 120 82
f 82 120 99
f 82 99 121
f 82 121 83
f 83 121 122
f 83 122 84
f 84 122 123
f 84 123 119
f 85 124 125
f 85 125 86
f 85 106 124
f 86 126 127
f 86 127 87
f 86 125 126
f 87 127 95
f 88 128 129
f 88 129 130
f 88 130 131
f 88 131 89
f 88 95 127
f 88 127 126
f 88 126 128
f 89 131 90
f 90 131 132
f 90 132 91
f 91 133 134
f 91 134 92
f 91 132 135
f 91 135 133
f 92 134 93
f 93 136 94
f 93 134 137
f 93 137 138
f 93 138 136
f 94 136 97
f 94 97 96
f 97 136 139
f 97 139 98
f 98 140 122
f 98 122 121
f 98 121 99
f 98 139 141
f 98 141 142
f 98 142 140
f 101 143 107
f 101 103 143
f 102 144 103
f 103 144 143
f 104 145 146
f 104 146 105
f 104 107 145
f 105 146 147
f 105 147 126
f 105 126 124
f 105 124 106
f 107 143 145
f 108 148 149
f 108 149 150
f 108 150 151
f 108 151 152
f 108 152 153
f 108 153 154
f 108 154 155
f 108 155 109
f 108 119 156
f 108 156 157
f 108 157 158
f 108 158 148
f 109 155 159
f 109 159 110
f 110 159 160
f 110 160 113
f 111 113 114
f 111 114 112
f 113 160 161
f 113 161 114
f 114 117 115
f 114 161 160
f 114 160 159
f 114 159 162
f 114 162 117
f 115 117 116
f 117 163 164
f 117 164 165
f 117 165 166
f 117 166 167
f 117 167 118
f 117 162 163
f 118 168 169
f 118 169 170
f 118 170 171
f 118 167 168
f 119 123 172
f 119 172 156
f 122 140 123
f 123 140 172
f 124 126 125
f 126 147 173
f 126 173 174
f 126 174 128
f 128 174 129
f 129 175 130
f 129 174 176
f 129 176 177
f 129 177 178
f 129 178 175
f 130 175 131
f 131 175 178
f 131 178 179
f 131 179 132
f 132 179 180
f 132 180 181
f 132 181 182
f 132 182 183
f 132 183 135
f 133 135 134
f 134 135 184
f 134 184 185
f 134 185 137
f 135 183 186
f 135 186 187
f 135 187 184
f 136 138 139
f 137 185 141
f 137 141 139
f 137 139 138
f 140 142 188
f 140 188 189
f 140 189 190
f 140 190 172
f 141 191 142
f 141 185 184
f 141 184 192
f 141 192 191
f 142 191 188
f 143 193 194
f 143 194 195
f 143 195 145
f 143 144 196
f 143 196 197
f 143 197 193
f 145 195 198
f 145 198 199
f 145 199 200
f 145 200 173
f 145 173 146
f 146 173 147
f 148 158 201
f 148 201 149
f 149 201 158
f 149 158 202
f 149 202 150
f 150 202 152
f 150 152 151
f 152 203 204
f 152 204 205
f 152 205 206
f 152 206 207
f 152 207 208
f 152 208 154
f 152 154 153
f 152 202 203
f 154 208 207
f 154 207 162
f 154 162 155
f 155 162 159
f 156 190 189
f 156 189 209
f 156 209 157
f 156 172 190
f 157 210 211
f 157 211 212
f 157 212 213
f 157 213 158
f 157 209 210
f 158 213 214
f 158 214 215
f 158 215 216
f 158 216 202
f 162 207 217
f 162 217 218
f 162 218 163
f 163 219 164
f 163 218 220
f 163 220 221
f 163 221 219
f 164 219 165
f 165 167 166
f 165 219 222
f 165 222 168
f 165 168 167
f 168 222 223
f 168 223 224
f 168 224 169
f 169 224 225
f 169 225 170
f 170 225 226
f 170 226 227
f 170 227 228
f 170 228 229
f 170 229 230
f 170 230 231
f 170 231 171
f 173 200 177
f 173 177 174
f 174 177 176
f 177 200 232
f 177 232 233
f 177 233 234
f 177 234 235
f 177 235 178
f 178 236 180
f 178 180 179
f 178 235 234
f 178 234 237
f 178 237 236
f 180 236 238
f 180 238 181
f 181 238 183
f 181 183 182
f 183 238 186
f 184 187 239
f 184 239 240
f 184 240 192
f 186 238 241
f 186 241 242
f 186 242 187
f 187 242 243
f 187 243 244
f 187 244 239
f 188 191 245
f 188 245 189
f 189 245 210
f 189 210 209
f 191 192 240
f 191 240 246
f 191 246 247
f 191 247 248
f 191 248 245
f 193 249 199
f 193 199 194
f 193 197 249
f 194 198 195
f 194 199 198
f 196 250 251
f 196 251 197
f 197 251 249
f 199 249 252
f 199 252 253
f 199 253 254
f 199 254 255
f 199 255 256
f 199 256 257
f 199 257 258
f 199 258 259
f 199 259 200
f 200 259 232
f 202 216 215
f 202 215 260
f 202 260 261
f 202 261 262
f 202 262 263
f 202 263 264
f 202 264 265
f 202 265 203
f 203 265 204
f 204 266 267
f 204 267 205
f 204 265 268
f 204 268 269
f 204 269 270
f 204 270 271
f 204 271 272
f 204 272 266
f 205 267 206
f 206 267 207
f 207 272 273
f 207 273 274
f 207 274 217
f 207 267 266
f 207 266 272
f 210 245 248
f 210 248 247
f 210 247 275
f 210 275 276
f 210 276 211
f 211 276 277
f 211 277 212
f 212 277 278
f 212 278 279
f 212 279 280
f 212 280 281
f 212 281 282
f 212 282 213
f 213 282 214
f 214 282 215
f 215 282 283
f 215 283 284
f 215 284 261
f 215 261 260
f 217 274 218
f 218 274 220
f 219 221 285
f 219 285 286
f 219 286 287
f 219 287 288
f 219 288 223
f 219 223 222
f 220 274 221
f 221 274 270
f 221 270 269
f 221 269 285
f 223 288 224
f 224 288 289
f 224 289 225
f 225 290 291
f 225 291 226
f 225 289 292
f 225 292 290
f 226 291 227
f 227 293 228
f 227 291 293
f 228 293 295
f 228 295 294
f 232 296 233
f 232 259 296
f 233 297 298
f 233 298 299
f 233 299 234
f 233 296 297
f 234 299 237
f 236 300 238
f 236 237 298
f 236 298 301
f 236 301 302
f 236 302 303
f 236 303 304
f 236 304 300
f 237 299 298
f 238 300 305
f 238 305 241
f 239 275 247
f 239 247 306
f 239 306 240
f 239 244 307
f 239 307 275
f 240 306 246
f 241 308 309
f 241 309 242
f 241 305 308
f 242 309 243
f 243 309 310
f 243 310 311
f 243 311 312
f 243 312 244
f 244 312 313
f 244 313 314
f 244 314 315
f 244 315 307
f 246 306 247
f 249 316 252
f 249 251 316
f 250 317 318
f 250 318 251
f 251 318 316
f 252 319 253
f 252 316 320
f 252 320 321
f 252 321 319
f 253 319 254
f 254 322 323
f 254 323 324
f 254 324 325
f 254 325 326
f 254 326 255
f 254 319 327
f 254 327 328
f 254 328 329
f 254 329 330
f 254 330 322
f 255 326 331
f 255 331 296
f 255 296 256
f 256 296 332
f 256 332 257
f 257 332 333
f 257 333 258
f 258 333 259
f 259 333 296
f 261 334 335
f 261 335 336
f 261 336 337
f 261 337 262
f 261 284 338
f 261 338 334
f 262 337 339
f 262 339 263
f 263 340 264
f 263 339 340
f 264 340 341
f 264 341 268
f 264 268 265
f 268 341 342
f 268 342 343
f 268 343 344
f 268 344 269
f 269 344 345
f 269 345 285
f 270 274 271
f 271 274 272
f 272 274 273
f 275 307 346
f 275 346 276
f 276 346 277
f 277 346 347
f 277 347 278
f 278 347 315
f 278 315 348
f 278 348 279
f 279 348 349
f 279 349 350
f 279 350 351
f 279 351 280
f 280 351 352
f 280 352 353
f 280 353 281
f 281 354 282
f 281 353 352
f 281 352 355
f 281 355 354
f 282 356 283
f 282 354 338
f 282 338 356
f 283 356 284
f 284 356 338
f 285 357 286
f 285 345 358
f 285 358 359
f 285 359 357
f 286 357 287
f 287 357 360
f 287 360 361
f 287 361 289
f 287 289 288
f 289 361 362
f 289 362 363
f 289 363 364
f 289 364 365
f 289 365 292
f 290 366 367
f 290 367 368
f 290 368 291
f 290 292 365
f 290 365 366
f 291 368 293
f 293 368 367
f 293 367 295
f 294 295 369
f 294 369 370
f 295 367 371
f 295 371 369
f 296 372 297
f 296 333 332
f 296 331 372
f 297 372 373
f 297 373 374
f 297 374 298
f 298 374 375
f 298 375 376
f 298 376 377
f 298 377 302
f 298 302 301
f 300 304 378
f 300 378 305
f 302 379 303
f 302 377 379
f 303 380 381
f 303 381 382
f 303 382 304
f 303 379 383
f 303 383 384
f 303 384 385
f 303 385 380
f 304 382 381
f 304 381 386
f 304 386 387
f 304 387 378
f 305 378 308
f 307 315 347
f 307 347 346
f 308 388 309
f 308 378 389
f 308 389 388
f 309 388 310
f 310 390 311
f 310 388 391
f 310 391 392
f 310 392 393
f 310 393 390
f 311 390 394
f 311 394 312
f 312 394 313
f 313 315 314
f 313 394 395
f 313 395 348
f 313 348 315
f 316 318 396
f 316 396 397
f 316 397 320
f 317 398 318
f 318 397 396
f 318 398 397
f 319 321 328
f 319 328 327
f 320 397 399
f 320 399 400
f 320 400 401
f 320 401 321
f 321 401 328
f 322 402 403
f 322 403 324
f 322 324 323
f 322 330 404
f 322 404 402
f 324 405 406
f 324 406 407
f 324 407 325
f 324 403 405
f 325 407 408
f 325 408 326
f 326 408 409
f 326 409 410
f 326 410 331
f 328 401 411
f 328 411 329
f 330 412 413
f 330 413 404
f 331 410 414
f 331 414 372
f 334 338 415
f 334 415 335
f 335 415 416
f 335 416 417
f 335 417 418
f 335 418 419
f 335 419 420
f 335 420 421
f 335 421 422
f 335 422 337
f 335 337 336
f 337 422 339
f 338 354 355
f 338 355 416
f 338 416 415
f 339 422 423
f 339 423 424
f 339 424 425
f 339 425 426
f 339 426 427
f 339 427 340
f 340 427 341
f 341 428 429
f 341 429 430
f 341 430 342
f 341 427 428
f 342 430 343
f 343 430 431
f 343 431 344
f 344 431 345
f 345 431 358
f 348 395 432
f 348 432 349
f 349 432 433
f 349 433 434
f 349 434 435
f 349 435 436
f 349 436 350
f 350 436 437
f 350 437 438
f 350 438 351
f 351 416 355
f 351 355 352
f 351 438 416
f 357 359 439
f 357 439 360
f 358 431 430
f 358 430 429
f 358 429 440
f 358 440 441
f 358 441 442
f 358 442 443
f 358 443 359
f 359 443 439
f 360 439 364
f 360 364 361
f 361 364 362
f 362 364 363
f 364 439 442
f 364 442 441
f 364 441 444
f 364 444 445
f 364 445 446
f 364 446 447
f 364 447 448
f 364 448 371
f 364 371 367
f 364 367 366
f 364 366 365
f 369 449 450
f 369 450 370
f 369 371 449
f 371 448 451
f 371 451 452
f 371 452 453
f 371 453 449
f 372 454 373
f 372 414 455
f 372 455 454
f 373 456 374
f 373 454 456
f 374 456 457
f 374 457 458
f 374 458 375
f 375 459 460
f 375 460 377
f 375 377 376
f 375 458 459
f 377 460 379
f 378 387 389
f 379 460 384
f 379 384 383
f 380 461 462
f 380 462 463
f 380 463 381
f 380 385 464
f 380 464 461
f 381 463 386
f 384 465 385
f 384 460 459
f 384 459 465
f 385 465 464
f 386 463 466
f 386 466 387
f 387 466 467
f 387 467 389
f 388 389 391
f 389 467 392
f 389 392 391
f 390 393 394
f 392 467 468
f 392 468 469
f 392 469 470
f 392 470 471
f 392 471 393
f 393 471 472
f 393 472 394
f 394 472 395
f 395 472 471
f 395 471 432
f 397 398 399
f 400 473 401
f 401 473 474
f 401 474 411
f 402 404 475
f 402 475 403
f 403 476 405
f 403 475 476
f 404 413 475
f 405 476 477
f 405 477 478
f 405 478 406
f 406 478 479
f 406 479 480
f 406 480 481
f 406 481 409
f 406 409 407
f 407 409 408
f 409 481 410
f 410 481 480
f 410 480 414
f 411 474 473
f 412 482 483
f 412 483 484
f 412 484 475
f 412 475 413
f 414 480 485
f 414 485 454
f 414 454 455
f 416 438 486
f 416 486 417
f 417 486 487
f 417 487 418
f 418 488 419
f 418 487 488
f 419 489 420
f 419 488 490
f 419 490 491
f 419 491 492
f 419 492 493
f 419 493 424
f 419 424 489
f 420 489 494
f 420 494 421
f 421 494 422
f 422 494 423
f 423 494 489
f 423 489 424
f 424 495 496
f 424 496 497
f 424 497 498
f 424 498 429
f 424 429 428
f 424 428 499
f 424 499 425
f 424 493 495
f 425 499 500
f 425 500 426
f 426 500 427
f 427 500 428
f 428 500 499
f 429 498 501
f 429 501 440
f 432 471 470
f 432 470 502
f 432 502 433
f 433 502 503
f 433 503 504
f 433 504 434
f 434 504 505
f 434 505 506
f 434 506 507
f 434 507 436
f 434 436 435
f 436 507 437
f 437 507 438
f 438 507 486
f 439 443 442
f 440 501 508
f 440 508 509
f 440 509 510
f 440 510 441
f 441 510 511
f 441 511 444
f 444 512 445
f 444 511 512
f 445 512 513
f 445 513 514
f 445 514 515
f 445 515 446
f 446 515 516
f 446 516 517
f 446 517 447
f 447 518 448
f 447 517 518
f 448 518 453
f 448 453 451
f 449 519 450
f 449 453 519
f 450 519 520
f 451 453 452
f 453 518 521
f 453 521 522
f 453 522 523
f 453 523 520
f 453 520 519
f 454 524 456
f 454 485 524
f 456 524 457
f 457 525 458
f 457 524 526
f 457 526 525
f 458 525 527
f 458 527 528
f 458 528 459
f 459 528 529
f 459 529 465
f 461 464 530
f 461 530 531
f 461 531 532
f 461 532 462
f 462 532 533
f 462 533 534
f 462 534 463
f 463 534 535
f 463 535 468
f 463 468 466
f 464 465 529
f 464 529 536
f 464 536 537
f 464 537 538
f 464 538 530
f 466 468 467
f 468 539 540
f 468 540 469
f 468 535 541
f 468 541 539
f 469 540 542
f 469 542 470
f 470 542 543
f 470 543 502
f 475 544 545
f 475 545 476
f 475 484 546
f 475 546 547
f 475 547 544
f 476 545 477
f 477 548 549
f 477 549 550
f 477 550 551
f 477 551 478
f 477 545 544
f 477 544 548
f 478 551 552
f 478 552 553
f 478 553 526
f 478 526 479
f 479 526 554
f 479 554 480
f 480 554 485
f 482 555 546
f 482 546 483
f 483 546 484
f 485 554 524
f 486 556 487
f 486 507 556
f 487 556 557
f 487 557 558
f 487 558 488
f 488 558 559
f 488 559 490
f 490 559 491
f 491 559 560
f 491 560 492
f 492 561 493
f 492 560 561
f 493 561 562
f 493 562 495
f 495 562 496
f 496 562 563
f 496 563 564
f 496 564 565
f 496 565 566
f 496 566 497
f 497 566 498
f 498 566 501
f 501 567 508
f 501 566 567
f 502 543 503
f 503 543 504
f 504 568 569
f 504 569 505
f 504 543 570
f 504 570 568
f 505 569 571
f 505 571 506
f 506 571 507
f 507 571 572
f 507 572 573
f 507 573 557
f 507 557 556
f 508 574 575
f 508 575 576
f 508 576 577
f 508 577 510
f 508 510 509
f 508 567 578
f 508 578 574
f 510 577 513
f 510 513 511
f 511 513 512
f 513 516 514
f 513 577 516
f 514 516 515
f 516 577 579
f 516 579 580
f 516 580 517
f 517 580 581
f 517 581 582
f 517 582 518
f 518 582 521
f 520 523 583
f 521 582 522
f 522 584 583
f 522 583 523
f 522 582 581
f 522 581 584
f 524 554 526
f 525 526 553
f 525 553 552
f 525 552 527
f 527 585 586
f 527 586 528
f 527 552 550
f 527 550 587
f 527 587 588
f 527 588 585
f 528 586 529
f 529 586 589
f 529 589 537
f 529 537 590
f 529 590 536
f 530 591 592
f 530 592 531
f 530 538 593
f 530 593 594
f 530 594 591
f 531 592 532
f 532 592 595
f 532 595 533
f 533 595 596
f 533 596 541
f 533 541 534
f 534 541 535
f 536 590 537
f 537 589 597
f 537 597 598
f 537 598 593
f 537 593 538
f 539 599 540
f 539 541 596
f 539 596 599
f 540 599 600
f 540 600 568
f 540 568 542
f 542 568 570
f 542 570 543
f 544 547 601
f 544 601 548
f 546 555 602
f 546 602 603
f 546 603 604
f 546 604 547
f 547 604 605
f 547 605 601
f 548 601 606
f 548 606 549
f 549 606 601
f 549 601 607
f 549 607 550
f 550 552 551
f 550 607 587
f 555 608 609
f 555 609 602
f 557 573 610
f 557 610 558
f 558 611 559
f 558 610 611
f 559 611 612
f 559 612 560
f 560 613 561
f 560 612 613
f 561 614 615
f 561 615 562
f 561 613 616
f 561 616 614
f 562 617 563
f 562 615 618
f 562 618 617
f 563 617 619
f 563 619 564
f 564 619 620
f 564 620 621
f 564 621 622
f 564 622 565
f 565 622 623
f 565 623 624
f 565 624 625
f 565 625 566
f 566 625 567
f 567 625 578
f 568 626 569
f 568 600 626
f 569 626 627
f 569 627 628
f 569 628 571
f 571 628 629
f 571 629 572
f 572 629 630
f 572 630 573
f 573 630 631
f 573 631 632
f 573 632 610
f 574 633 575
f 574 578 625
f 574 625 624
f 574 624 634
f 574 634 633
f 575 633 635
f 575 635 636
f 575 636 637
f 575 637 638
f 575 638 639
f 575 639 576
f 576 639 640
f 576 640 579
f 576 579 577
f 579 640 580
f 580 640 641
f 580 641 581
f 581 642 584
f 581 641 642
f 583 584 643
f 584 642 644
f 584 644 645
f 584 645 643
f 585 588 646
f 585 646 647
f 585 647 648
f 585 648 586
f 586 648 597
f 586 597 589
f 587 607 649
f 587 649 650
f 587 650 605
f 587 605 651
f 587 651 652
f 587 652 588
f 588 652 646
f 591 653 592
f 591 594 653
f 592 653 595
f 593 654 594
f 593 598 654
f 594 654 655
f 594 655 656
f 594 656 653
f 595 653 657
f 595 657 596
f 596 658 599
f 596 657 658
f 597 648 598
f 598 648 659
f 598 659 660
f 598 660 661
f 598 661 654
f 599 658 600
f 600 658 626
f 601 605 649
f 601 649 607
f 602 609 662
f 602 662 603
f 603 663 664
f 603 664 646
f 603 646 604
f 603 662 665
f 603 665 666
f 603 666 663
f 604 646 605
f 605 650 649
f 605 646 651
f 608 667 668
f 608 668 669
f 608 669 670
f 608 670 665
f 608 665 609
f 609 665 662
f 610 632 611
f 611 632 671
f 611 671 612
f 612 671 672
f 612 672 613
f 613 672 616
f 614 616 673
f 614 673 674
f 614 674 675
f 614 675 615
f 615 675 618
f 616 672 673
f 617 618 676
f 617 676 677
f 617 677 678
f 617 678 679
f 617 679 680
f 617 680 619
f 618 675 681
f 618 681 676
f 619 680 682
f 619 682 620
f 620 682 683
f 620 683 621
f 621 683 684
f 621 684 685
f 621 685 686
f 621 686 622
f 622 686 687
f 622 687 623
f 623 687 624
f 624 687 634
f 626 658 688
f 626 688 627
f 627 688 689
f 627 689 690
f 627 690 691
f 627 691 628
f 628 691 692
f 628 692 693
f 628 693 629
f 629 693 630
f 630 693 694
f 630 694 631
f 631 694 695
f 631 695 632
f 632 696 697
f 632 697 698
f 632 698 699
f 632 699 671
f 632 695 700
f 632 700 696
f 633 634 687
f 633 687 701
f 633 701 635
f 635 702 703
f 635 703 704
f 635 704 636
f 635 701 702
f 636 704 637
f 637 704 705
f 637 705 706
f 637 706 638
f 638 706 707
f 638 707 708
f 638 708 639
f 639 708 640
f 640 708 709
f 640 709 710
f 640 710 645
f 640 645 641
f 641 645 644
f 641 644 642
f 643 645 711
f 643 711 712
f 645 710 711
f 646 652 651
f 646 664 647
f 647 664 713
f 647 713 714
f 647 714 715
f 647 715 659
f 647 659 648
f 653 716 657
f 653 656 716
f 654 661 717
f 654 717 718
f 654 718 719
f 654 719 655
f 655 719 720
f 655 720 716
f 655 716 656
f 657 716 721
f 657 721 722
f 657 722 723
f 657 723 724
f 657 724 658
f 658 725 688
f 658 724 726
f 658 726 725
f 659 715 660
f 660 715 714
f 660 714 727
f 660 727 728
f 660 728 729
f 660 729 661
f 661 729 718
f 661 718 717
f 663 666 730
f 663 730 731
f 663 731 732
f 663 732 733
f 663 733 734
f 663 734 735
f 663 735 736
f 663 736 664
f 664 737 713
f 664 736 738
f 664 738 737
f 665 670 666
f 666 670 739
f 666 739 730
f 667 740 741
f 667 741 668
f 668 741 742
f 668 742 743
f 668 743 670
f 668 670 669
f 670 743 742
f 670 742 739
f 671 699 744
f 671 744 673
f 671 673 672
f 673 744 674
f 674 681 675
f 674 744 681
f 676 681 677
f 677 745 678
f 677 681 745
f 678 745 746
f 678 746 747
f 678 747 680
f 678 680 679
f 680 747 684
f 680 684 683
f 680 683 682
f 681 748 745
f 681 744 749
f 681 749 748
f 684 747 750
f 684 750 685
f 685 750 751
f 685 751 752
f 685 752 753
f 685 753 754
f 685 754 686
f 686 754 702
f 686 702 701
f 686 701 687
f 688 725 755
f 688 755 756
f 688 756 689
f 689 756 690
f 690 756 757
f 690 757 692
f 690 692 691
f 692 757 758
f 692 758 759
f 692 759 694
f 692 694 693
f 694 759 760
f 694 760 700
f 694 700 695
f 696 760 761
f 696 761 698
f 696 698 697
f 696 700 760
f 698 761 760
f 698 760 762
f 698 762 763
f 698 763 699
f 699 763 744
f 702 754 753
f 702 753 764
f 702 764 765
f 702 765 766
f 702 766 767
f 702 767 768
f 702 768 769
f 702 769 770
f 702 770 771
f 702 771 772
f 702 772 773
f 702 773 703
f 703 773 704
f 704 773 774
f 704 774 705
f 705 774 706
f 706 774 775
f 706 775 707
f 707 775 776
f 707 776 708
f 708 776 777
f 708 777 709
f 709 777 710
f 710 778 779
f 710 779 712
f 710 712 711
f 710 777 778
f 712 779 780
f 713 737 714
f 714 737 781
f 714 781 782
f 714 782 728
f 714 728 727
f 716 720 783
f 716 783 721
f 718 784 785
f 718 785 786
f 718 786 719
f 718 729 728
f 718 728 787
f 718 787 788
f 718 788 784
f 719 786 720
f 720 789 783
f 720 786 789
f 721 783 722
f 722 783 790
f 722 790 791
f 722 791 723
f 723 755 725
f 723 725 726
f 723 726 724
f 723 791 792
f 723 792 793
f 723 793 755
f 728 782 794
f 728 794 787
f 730 739 795
f 730 795 731
f 731 795 796
f 731 796 732
f 732 796 797
f 732 797 733
f 733 797 798
f 733 798 734
f 734 798 799
f 734 799 800
f 734 800 735
f 735 738 736
f 735 800 801
f 735 801 738
f 737 738 802
f 737 802 803
f 737 803 781
f 738 801 802
f 739 742 795
f 740 804 805
f 740 805 797
f 740 797 741
f 741 797 796
f 741 796 795
f 741 795 742
f 744 763 806
f 744 806 749
f 745 748 749
f 745 749 807
f 745 807 746
f 746 807 808
f 746 808 809
f 746 809 810
f 746 810 811
f 746 811 747
f 747 811 812
f 747 812 750
f 749 806 807
f 750 812 751
f 751 812 813
f 751 813 814
f 751 814 815
f 751 815 765
f 751 765 752
f 752 765 816
f 752 816 753
f 753 816 817
f 753 817 764
f 755 793 818
f 755 818 757
f 755 757 756
f 757 818 819
f 757 819 758
f 758 819 820
f 758 820 759
f 759 820 821
f 759 821 822
f 759 822 823
f 759 823 760
f 760 823 824
f 760 824 825
f 760 825 762
f 762 806 763
f 762 825 806
f 764 817 765
f 765 815 814
f 765 814 826
f 765 826 827
f 765 827 828
f 765 828 766
f 765 817 816
f 766 828 767
f 767 828 829
f 767 829 768
f 768 829 769
f 769 829 828
f 769 828 830
f 769 830 831
f 769 831 832
f 769 832 770
f 770 832 833
f 770 833 771
f 771 833 834
f 771 834 772
f 772 834 774
f 772 774 773
f 774 834 835
f 774 835 836
f 774 836 775
f 775 836 837
f 775 837 838
f 775 838 778
f 775 778 776
f 776 778 777
f 778 838 839
f 778 839 779
f 779 839 780
f 780 839 840
f 780 840 841
f 781 803 794
f 781 794 782
f 783 789 790
f 784 842 843
f 784 843 844
f 784 844 845
f 784 845 785
f 784 788 846
f 784 846 847
f 784 847 842
f 785 845 786
f 786 845 789
f 787 794 788
f 788 794 848
f 788 848 849
f 788 849 846
f 789 850 851
f 789 851 791
f 789 791 790
f 789 845 852
f 789 852 853
f 789 853 854
f 789 854 850
f 791 851 855
f 791 855 818
f 791 818 856
f 791 856 792
f 792 856 793
f 793 856 818
f 794 857 914
f 794 914 858
f 794 858 859
f 794 859 848
f 794 803 860
f 794 860 857
f 797 805 861
f 797 861 798
f 798 861 862
f 798 862 799
f 799 862 863
f 799 863 864
f 799 864 865
f 799 865 800
f 800 865 866
f 800 866 801
f 801 867 802
f 801 866 867
f 802 860 803
f 802 867 860
f 804 868 869
f 804 869 870
f 804 870 871
f 804 871 805
f 805 871 861
f 806 825 872
f 806 872 873
f 806 873 874
f 806 874 807
f 807 874 875
f 807 875 876
f 807 876 808
f 808 876 809
f 809 876 810
f 810 876 877
f 810 877 878
f 810 878 879
f 810 879 811
f 811 879 880
f 811 880 812
f 812 880 881
f 812 881 882
f 812 882 813
f 813 882 883
f 813 883 814
f 814 883 884
f 814 884 885
f 814 885 886
f 814 886 887
f 814 887 888
f 814 888 826
f 818 855 889
f 818 889 890
f 818 890 891
f 818 891 819
f 819 891 820
f 820 891 892
f 820 892 821
f 821 892 893
f 821 893 822
f 822 893 894
f 822 894 895
f 822 895 823
f 823 895 824
f 824 895 896
f 824 896 825
f 825 896 897
f 825 897 872
f 826 888 830
f 826 830 827
f 827 830 828
f 831 898 832
f 832 898 833
f 833 898 899
f 833 899 834
f 834 899 900
f 834 900 840
f 834 840 835
f 835 840 837
f 835 837 836
f 837 840 839
f 837 839 838
f 840 900 841
f 841 900 899
f 842 847 901
f 842 901 902
f 842 902 903
f 842 903 904
f 842 904 843
f 843 905 890
f 843 890 889
f 843 889 906
f 843 906 850
f 843 850 854
f 843 854 853
f 843 853 844
f 843 904 905
f 844 853 845
f 845 853 852
f 846 849 907
f 846 907 908
f 846 908 909
f 846 909 847
f 847 909 908
f 847 908 910
f 847 910 901
f 848 859 849
f 849 911 912
f 849 912 913
f 849 913 907
f 849 859 858
f 849 858 914
f 849 914 911
f 850 906 855
f 850 855 851
f 855 906 889
f 857 860 915
f 857 915 916
f 857 916 917
f 857 917 918
f 857 918 919
f 857 919 920
f 857 920 921
f 857 921 922
f 857 922 923
f 857 923 924
f 857 924 925
f 857 925 926
f 857 926 927
f 857 927 928
f 857 928 929
f 857 929 930
f 857 930 931
f 857 931 914
f 860 867 866
f 860 866 915
f 861 871 863
f 861 863 862
f 863 918 916
f 863 916 932
f 863 932 866
f 863 866 864
f 863 871 933
f 863 933 918
f 864 866 865
f 866 932 915
f 868 934 935
f 868 935 869
f 869 935 936
f 869 936 937
f 869 937 870
f 870 937 933
f 870 933 871
f 872 897 938
f 872 938 873
f 873 939 940
f 873 940 874
f 873 938 941
f 873 941 939
f 874 940 942
f 874 942 877
f 874 877 876
f 874 876 875
f 877 942 878
f 878 943 879
f 878 942 944
f 878 944 945
f 878 945 946
f 878 946 947
f 878 947 948
f 878 948 949
f 878 949 943
f 879 943 950
f 879 950 880
f 880 950 951
f 880 951 952
f 880 952 953
f 880 953 954
f 880 954 955
f 880 955 881
f 881 955 884
f 881 884 883
f 881 883 956
f 881 956 957
f 881 957 882
f 882 957 956
f 882 956 883
f 884 955 958
f 884 958 953
f 884 953 959
f 884 959 885
f 885 959 960
f 885 960 961
f 885 961 886
f 886 888 887
f 890 905 891
f 891 905 962
f 891 962 892
f 892 962 963
f 892 963 893
f 893 963 964
f 893 964 894
f 894 964 965
f 894 965 966
f 894 966 895
f 895 940 941
f 895 941 896
f 895 966 967
f 895 967 940
f 896 941 938
f 896 938 897
f 901 910 968
f 901 968 969
f 901 969 902
f 902 969 970
f 902 970 971
f 902 971 903
f 903 971 972
f 903 972 1027
f 903 1027 973
f 903 973 904
f 904 974 905
f 904 973 974
f 905 963 962
f 905 974 963
f 907 913 968
f 907 968 908
f 908 968 910
f 911 914 912
f 912 975 913
f 912 914 931
f 912 931 976
f 912 976 977
f 912 977 978
f 912 978 979
f 912 979 980
f 912 980 981
f 912 981 982
f 912 982 983
f 912 983 975
f 913 984 985
f 913 985 986
f 913 986 968
f 913 975 984
f 915 932 916
f 916 918 917
f 918 933 937
f 918 937 936
f 918 936 987
f 918 987 988
f 918 988 919
f 919 988 987
f 919 987 989
f 919 989 990
f 919 990 991
f 919 991 992
f 919 992 920
f 920 992 993
f 920 993 921
f 921 993 922
f 922 993 923
f 923 993 924
f 924 993 925
f 925 993 926
f 926 993 994
f 926 994 995
f 926 995 927
f 927 995 996
f 927 996 997
f 927 997 928
f 928 997 998
f 928 998 929
f 929 998 930
f 930 976 931
f 930 998 999
f 930 999 976
f 934 1000 989
f 934 989 987
f 934 987 935
f 935 987 936
f 939 941 940
f 940 967 942
f 942 967 944
f 943 949 948
f 943 948 950
f 944 967 1001
f 944 1001 1002
f 944 1002 1003
f 944 1003 945
f 945 1003 1004
f 945 1004 1005
f 945 1005 1006
f 945 1006 1007
f 945 1007 946
f 946 1007 1008
f 946 1008 1009
f 946 1009 947
f 947 1009 1010
f 947 1010 1011
f 947 1011 948
f 948 1011 1012
f 948 1012 1013
f 948 1013 1014
f 948 1014 951
f 948 951 950
f 951 1014 1015
f 951 1015 1016
f 951 1016 1017
f 951 1017 1018
f 951 1018 952
f 952 1019 953
f 953 1019 959
f 953 958 954
f 954 958 955
f 959 1019 960
f 963 974 1020
f 963 1020 964
f 964 1020 1021
f 964 1021 1022
f 964 1022 965
f 965 1022 966
f 966 1022 1023
f 966 1023 967
f 967 1002 1001
f 967 1023 1022
f 967 1022 1021
f 967 1021 1020
f 967 1020 974
f 967 974 1024
f 967 1024 1002
f 968 986 969
f 969 986 970
f 970 986 985
f 970 985 971
f 971 985 1025
f 971 1025 1026
f 971 1026 972
f 972 1026 1028
f 972 1028 1027
f 973 1027 1029
f 973 1029 1030
f 973 1030 1031
f 973 1031 974
f 974 1031 1024
f 975 1032 984
f 975 983 1033
f 975 1033 1032
f 976 999 997
f 976 997 977
f 977 997 978
f 978 997 996
f 978 996 1034
f 978 1034 1035
f 978 1035 979
f 979 1035 1036
f 979 1036 980
f 980 1036 1037
f 980 1037 981
f 982 1038 1039
f 982 1039 1040
f 982 1040 983
f 983 1040 1039
f 983 1039 1033
f 984 1041 1026
f 984 1026 1025
f 984 1025 985
f 984 1032 1041
f 989 1000 990
f 990 993 992
f 990 992 991
f 990 1000 1042
f 990 1042 993
f 993 1042 994
f 995 1043 1044
f 995 1044 1034
f 995 1034 996
f 997 999 998
f 1002 1030 1003
f 1002 1024 1031
f 1002 1031 1030
f 1003 1030 1045
f 1003 1045 1046
f 1003 1046 1047
f 1003 1047 1004
f 1004 1047 1005
f 1005 1047 1006
f 1006 1048 1049
f 1006 1049 1050
f 1006 1050 1007
f 1006 1047 1048
f 1007 1050 1051
f 1007 1051 1052
f 1007 1052 1053
f 1007 1053 1008
f 1008 1053 1009
f 1009 1053 1054
f 1009 1054 1010
f 1010 1054 1012
f 1010 1012 1011
f 1012 1054 1055
f 1012 1055 1014
f 1012 1014 1013
f 1015 1018 1016
f 1016 1018 1017
f 1026 1041 1056
f 1026 1056 1057
f 1026 1057 1028
f 1027 1028 1058
f 1027 1058 1059
f 1027 1059 1045
f 1027 1045 1029
f 1028 1057 1060
f 1028 1060 1058
f 1029 1045 1030
f 1032 1057 1056
f 1032 1056 1041
f 1032 1033 1061
f 1032 1061 1062
f 1032 1062 1057
f 1033 1039 1038
f 1033 1038 1063
f 1033 1063 1064
f 1033 1064 1061
f 1034 1044 1035
f 1035 1044 1037
f 1035 1037 1036
f 1037 1044 1043
f 1045 1059 1046
f 1046 1059 1058
f 1046 1058 1065
f 1046 1065 1066
f 1046 1066 1067
f 1046 1067 1068
f 1046 1068 1069
f 1046 1069 1070
f 1046 1070 1047
f 1047 1070 1071
f 1047 1071 1072
f 1047 1072 1048
f 1048 1072 1049
f 1052 1073 1053
f 1053 1073 1054
f 1054 1073 1055
f 1057 1074 1060
f 1057 1062 1075
f 1057 1075 1074
f 1058 1060 1076
f 1058 1076 1065
f 1060 1074 1077
f 1060 1077 1078
f 1060 1078 1079
f 1060 1079 1066
f 1060 1066 1076
f 1061 1064 1080
f 1061 1080 1062
f 1063 1080 1064
f 1065 1076 1066
f 1066 1079 1081
f 1066 1081 1067
f 1067 1081 1082
f 1067 1082 1068
f 1069 1072 1071
f 1069 1071 1070
f 1074 1075 1083
f 1074 1083 1077
f 1077 1083 1078

