# https://github.com/mikedh/trimesh
v 0.00038829 0.00509620 -0.00694947
v 0.00119688 0.00496024 -0.00694947
v 0.00038829 0.00492025 -0.00775925
v -0.00042334 0.00501622 -0.00775925
v -0.00042334 0.00509353 -0.00694947
v -0.00042334 0.00508820 0.00114333
v -0.00042334 0.00508287 0.00681175
v 0.00038829 0.00508287 0.00600198
v 0.00928886 0.00378458 -0.00047128
v 0.00982083 0.00369927 -0.00047128
v 0.00928886 0.00376858 -0.00128105
v 0.00182308 0.00459767 -0.00751566
v 0.00931622 0.00372592 -0.00202499
v 0.00906087 0.00371260 -0.00271297
v 0.00931622 0.00357664 -0.00294998
v 0.00038829 0.00460567 -0.00823820
v -0.00042334 0.00470431 -0.00831062
v 0.00113609 0.00468032 -0.00777571
v -0.00123193 0.00467232 -0.00832543
v -0.00123193 0.00491758 -0.00775925
v -0.00123193 0.00495490 -0.00694947
v -0.00123193 0.00495490 0.00114333
v -0.00123193 0.00495224 0.00681175
v -0.00042334 0.00500022 0.00762153
v 0.00038829 0.00508020 0.00681175
v -0.00123193 0.00490958 0.00762153
v 0.00977219 0.00368327 0.00033356
v 0.01022816 0.00355531 -0.00047128
v 0.00976307 0.00367794 -0.00128105
v 0.00119688 0.00494957 0.00681175
v 0.00082906 0.00449637 -0.00817730
v 0.01038623 0.00282752 -0.00405107
v 0.01089388 0.00230234 -0.00455307
v 0.01115530 0.00191578 -0.00484439
v 0.00970227 0.00365928 -0.00171227
v 0.00960196 0.00362196 -0.00225212
v 0.01010049 0.00329138 -0.00290225
v 0.01063245 0.00290483 -0.00351122
v -0.00042334 0.00405916 -0.00844887
v 0.02312912 -0.01294126 -0.00756833
v 0.02312912 -0.01374636 -0.00772469
v -0.00123193 0.00405916 -0.00848508
v -0.00190069 0.00458168 -0.00826783
v -0.00244177 0.00446171 -0.00815591
v -0.00211955 0.00462167 -0.00783661
v -0.00204052 0.00468032 -0.00694947
v -0.00204052 0.00468032 0.00033356
v -0.00204052 0.00467765 0.00681175
v -0.00211043 0.00461633 0.00764786
v -0.00042334 0.00469098 0.00816632
v 0.00038829 0.00490425 0.00762153
v -0.00123193 0.00466699 0.00818113
v -0.00188853 0.00457635 0.00812517
v 0.00971139 0.00366194 0.00080757
v 0.01010049 0.00341135 0.00195311
v 0.01017648 0.00353131 0.00033356
v 0.01016432 0.00352332 -0.00128105
v 0.01090908 0.00328339 -0.00047128
v 0.00182308 0.00459501 0.00737629
v 0.01010049 0.00329138 0.00276124
v 0.02313216 -0.01030202 -0.00647381
v 0.02313216 -0.01081921 -0.00677172
v 0.02312912 -0.01130973 -0.00704987
v 0.02312912 -0.01184558 -0.00731815
v 0.02312912 -0.01188557 -0.00733132
v 0.02312608 -0.01230411 -0.00743007
v 0.02312608 -0.01264001 -0.00750414
v 0.01090604 0.00271555 -0.00375317
v 0.01146232 0.00218237 -0.00430619
v 0.02313216 -0.00923833 -0.00578913
v 0.02313216 -0.00962222 -0.00605082
v 0.01090908 0.00320608 -0.00128105
v 0.01002145 0.00347800 -0.00202499
v 0.01097291 0.00303279 -0.00212704
v 0.01078141 0.00297681 -0.00290225
v 0.02313216 -0.01423155 -0.00777406
v 0.02313216 -0.01455946 -0.00780040
v 0.02305008 -0.01455946 -0.00780698
v 0.02312912 -0.01264001 -0.00750249
v 0.02348174 -0.00807866 -0.00047292
v -0.00123193 0.00325139 -0.00847521
v -0.00204052 0.00244096 -0.00843077
v -0.00204052 0.00325139 -0.00843900
v -0.00211955 0.00413914 -0.00833860
v 0.02239956 -0.01470608 -0.00782344
v -0.00284911 0.00386455 -0.00822997
v -0.00326556 0.00366727 -0.00817401
v -0.00334156 0.00373659 -0.00775925
v -0.00341147 0.00379790 -0.00694947
v -0.00246913 0.00447771 -0.00761606
v -0.00247825 0.00448571 -0.00694947
v -0.00247825 0.00448571 -0.00371038
v -0.00247521 0.00448304 0.00681175
v -0.00246305 0.00447771 0.00739440
v -0.00242657 0.00444305 0.00793425
v -0.00042334 0.00405916 0.00828811
v 0.00038829 0.00459767 0.00809554
v -0.00123193 0.00405916 0.00832926
v 0.00113912 0.00467765 0.00763634
v -0.00268800 0.00390188 0.00808896
v -0.00211043 0.00412848 0.00818278
v 0.01095467 0.00302746 0.00193994
v 0.01090908 0.00314476 0.00114169
v 0.01090908 0.00323807 0.00033356
v 0.01148056 0.00296081 0.00033356
v 0.01147144 0.00297947 -0.00047128
v 0.00082906 0.00449637 0.00804123
v 0.01121002 0.00120932 0.00558393
v 0.01153528 0.00142259 0.00504408
v 0.01090908 0.00221436 0.00421784
v 0.01057774 0.00289683 0.00329121
v 0.01010049 0.00302479 0.00343605
v 0.01071757 0.00297947 0.00276124
v 0.01118570 0.00277687 -0.00290225
v 0.01156264 0.00229167 -0.00371202
v 0.02313216 -0.00874247 -0.00459257
v 0.02313216 -0.00904639 -0.00540728
v 0.01141065 0.00293149 -0.00128105
v 0.01135593 0.00288084 -0.00188180
v 0.01128297 0.00282752 -0.00242165
v 0.02313216 -0.01463677 -0.00780369
v 0.02313216 -0.01470875 -0.00780369
v 0.02345742 -0.00807866 0.00033191
v 0.02313216 -0.01871293 0.00710308
v 0.02313216 -0.01941406 0.00674757
v 0.02313216 -0.01988325 0.00645460
v 0.02313216 -0.02033646 0.00596248
v 0.02313216 -0.02046175 0.00582587
v 0.02313216 -0.02079766 0.00540288
v 0.02313216 -0.02091229 0.00523664
v 0.02313216 -0.02134950 0.00444004
v 0.02313216 -0.02144547 0.00420138
v 0.02313216 -0.02152811 0.00396931
v 0.02313216 -0.02163742 0.00363026
v 0.02313216 -0.02185069 0.00275794
v 0.02313216 -0.02198398 0.00194982
v 0.02313216 -0.02206662 0.00114004
v 0.02313216 -0.02209862 0.00043396
v 0.02313216 -0.02213860 -0.00046963
v 0.02313216 -0.02210128 -0.00127941
v 0.02313216 -0.02201864 -0.00196903
v 0.02313216 -0.02199998 -0.00209247
v 0.02313216 -0.02184536 -0.00289896
v 0.02313216 -0.02159209 -0.00373506
v 0.02313216 -0.02145080 -0.00413995
v 0.02313216 -0.02129618 -0.00447077
v 0.02313216 -0.02127485 -0.00451521
v 0.02313216 -0.02088830 -0.00516205
v 0.02313216 -0.02084564 -0.00522623
v 0.02313216 -0.02054706 -0.00562289
v 0.02313216 -0.02020316 -0.00603930
v 0.02313216 -0.01977929 -0.00651002
v 0.02313216 -0.01944605 -0.00671576
v 0.02313216 -0.01937673 -0.00675691
v 0.02313216 -0.01857163 -0.00719800
v 0.02313216 -0.01822773 -0.00736424
v 0.02313216 -0.01792915 -0.00745970
v 0.02313216 -0.01771321 -0.00751895
v 0.02313216 -0.01706540 -0.00768189
v 0.02313216 -0.01698543 -0.00769671
v 0.02313216 -0.01674550 -0.00772469
v 0.02313216 -0.01617766 -0.00778558
v 0.02313216 -0.01532457 -0.00779875
v 0.02313216 -0.00871581 -0.00451192
v 0.02341790 -0.00807866 -0.00083666
v 0.01188486 0.00260891 0.00033356
v -0.00123193 0.00244096 -0.00845875
v 0.02223845 -0.01532457 -0.00781521
v 0.02142986 -0.01532457 -0.00782673
v -0.00284911 0.00244096 -0.00830404
v -0.00204052 0.00163320 -0.00840114
v -0.00284911 0.00082276 -0.00827441
v -0.00284911 0.00163320 -0.00829416
v -0.00284911 0.00325139 -0.00830074
v -0.00426870 0.00244096 -0.00761606
v -0.00412583 0.00292882 -0.00748439
v -0.00331420 0.00325139 -0.00818553
v -0.00446933 0.00082276 -0.00783661
v -0.00451492 0.00161454 -0.00766379
v -0.00490706 0.00133462 -0.00742020
v -0.00381273 0.00337403 -0.00694947
v -0.00341147 0.00380057 -0.00209083
v -0.00288255 0.00420312 -0.00694947
v -0.00381881 0.00337669 -0.00371038
v -0.00381881 0.00338202 0.00438243
v -0.00288255 0.00420579 -0.00209083
v -0.00287951 0.00420312 0.00681175
v -0.00341147 0.00379790 0.00681175
v -0.00335979 0.00374992 0.00746517
v -0.00412583 0.00293415 0.00732362
v 0.02313216 -0.01455946 0.00769230
v 0.02312912 -0.01374636 0.00762153
v 0.02312912 -0.01339180 0.00758203
v 0.02312912 -0.01294126 0.00753101
v 0.02312608 -0.01213083 0.00739604
v -0.00204052 0.00325139 0.00825684
v -0.00123193 0.00325139 0.00830786
v 0.01333789 -0.01050996 0.00791120
v 0.02313216 -0.01536989 0.00769559
v 0.02306528 -0.01470608 0.00769559
v 0.02305008 -0.01455946 0.00769559
v -0.00281263 0.00325139 0.00811365
v -0.00321692 0.00325139 0.00800667
v 0.01136505 0.00287284 0.00166508
v 0.01142585 0.00290483 0.00114169
v 0.01183014 0.00263291 0.00114169
v 0.01043183 0.00036423 0.00638712
v 0.02312608 -0.01196821 0.00735490
v 0.02312912 -0.01162164 0.00726273
v 0.02312912 -0.01122176 0.00707180
v 0.02312912 -0.01114978 0.00703066
v 0.02313216 -0.01081921 0.00682163
v 0.02313216 -0.01049930 0.00662083
v 0.02313216 -0.01031269 0.00646776
v 0.02312912 -0.01002210 0.00619290
v 0.02312912 -0.00985682 0.00600198
v 0.02313216 -0.00945427 0.00552961
v 0.02313216 -0.00905971 0.00506383
v 0.02312912 -0.00863584 0.00439395
v 0.01207636 0.00114800 0.00466552
v 0.01171463 0.00162520 0.00435610
v 0.01134985 0.00206241 0.00404667
v 0.01112186 0.00271022 0.00276124
v 0.01125562 0.00280619 0.00220328
v 0.02331455 -0.00807866 -0.00128270
v 0.02313216 -0.00853987 -0.00384534
v 0.02312912 -0.00834792 0.00356607
v 0.02312912 -0.00835858 0.00361874
v 0.02312912 -0.00861184 0.00433635
v 0.02313216 -0.00871581 0.00451575
v 0.02312912 -0.01196554 0.00735160
v 0.02312912 -0.01264001 0.00747998
v 0.02313216 -0.01423155 0.00766268
v 0.02313216 -0.01617766 0.00766103
v 0.02313216 -0.01698543 0.00757215
v 0.02313216 -0.01779852 0.00739275
v 0.02313216 -0.01831038 0.00724791
v 0.01226787 0.00222769 0.00114169
v 0.02183112 -0.01819841 0.00721335
v 0.02129307 -0.01814242 0.00719689
v 0.02305008 -0.01941406 0.00673769
v 0.02230837 -0.01944871 0.00659614
v 0.02305008 -0.01987526 0.00644637
v 0.02302880 -0.02033113 0.00594437
v 0.02274610 -0.02060305 0.00556418
v 0.02302880 -0.02088030 0.00525310
v 0.02223845 -0.02081632 0.00507535
v 0.02142986 -0.02070968 0.00491570
v 0.02223845 -0.02117088 0.00437914
v 0.02297713 -0.02133883 0.00438408
v 0.02265795 -0.02143481 0.00396438
v 0.02297713 -0.02160009 0.00364343
v 0.02223845 -0.02150945 0.00339984
v 0.02177336 -0.02145347 0.00322044
v 0.02305008 -0.02183203 0.00275794
v 0.02305008 -0.02196532 0.00194982
v 0.02088878 -0.02146946 0.00178687
v 0.02037201 -0.02140015 0.00114004
v 0.02028689 -0.02142148 0.00033027
v 0.02223845 -0.02188001 -0.00127941
v 0.02026562 -0.02142414 -0.00046963
v 0.02101341 -0.02144014 -0.00250394
v 0.02305008 -0.02198398 -0.00208918
v 0.02185848 -0.02143214 -0.00328080
v 0.02303792 -0.02157077 -0.00373836
v 0.02276434 -0.02140815 -0.00402474
v 0.02137819 -0.02082965 -0.00458763
v 0.02107725 -0.02061638 -0.00489870
v 0.02161529 -0.02067769 -0.00498758
v 0.02223845 -0.02074967 -0.00508633
v 0.02223845 -0.02045109 -0.00549122
v 0.02305008 -0.02053907 -0.00561302
v 0.02223845 -0.02004588 -0.00601955
v 0.02305008 -0.01976862 -0.00650509
v 0.02142986 -0.01918212 -0.00664992
v 0.02223845 -0.01927810 -0.00670095
v 0.02305008 -0.01936607 -0.00675526
v 0.02312608 -0.01869160 -0.00713217
v 0.02300752 -0.01854764 -0.00719636
v 0.02270962 -0.01818508 -0.00734613
v 0.02062127 -0.01698543 -0.00756833
v 0.02142986 -0.01698543 -0.00762758
v 0.02223845 -0.01698543 -0.00767366
v 0.02305008 -0.01698543 -0.00769671
v 0.02280690 -0.01674550 -0.00772633
v 0.02223845 -0.01617766 -0.00779052
v 0.02062127 -0.01532457 -0.00783496
v -0.00123193 0.00163320 -0.00841596
v 0.02057872 -0.01532457 -0.00783496
v 0.01976709 -0.01532457 -0.00782344
v -0.00337803 0.00163320 -0.00819376
v -0.00336891 0.00244096 -0.00819541
v 0.00147350 -0.00365594 -0.00816743
v 0.00093546 -0.00355730 -0.00816084
v -0.00231106 -0.00196576 -0.00816084
v -0.00257552 -0.00142725 -0.00818060
v -0.00273663 -0.00079544 -0.00820528
v -0.00291902 0.00000967 -0.00822833
v -0.00329292 0.00000967 -0.00817237
v -0.00331420 0.00018561 -0.00817566
v -0.00354218 0.00000967 -0.00813122
v -0.00335979 0.00082276 -0.00818553
v -0.00447541 0.00244096 -0.00694947
v -0.00415623 0.00297148 -0.00694947
v -0.00378233 0.00163320 -0.00809501
v -0.00446933 0.00001233 -0.00787281
v -0.00498913 0.00001233 -0.00752883
v -0.00495874 0.00082276 -0.00749262
v -0.00478851 0.00179048 -0.00694947
v -0.00733283 -0.00517284 -0.00335487
v -0.00743618 -0.00500222 -0.00290060
v -0.00750002 -0.00477295 -0.00214679
v -0.00341147 0.00380057 -0.00128105
v -0.00415927 0.00297681 0.00033356
v -0.00381881 0.00338202 0.00681175
v -0.00415927 0.00297681 0.00681175
v -0.00447237 0.00244096 0.00681175
v -0.00490098 0.00131862 0.00725943
v -0.00426870 0.00244096 0.00743719
v -0.00204052 0.00163320 0.00820417
v -0.00123193 0.00244096 0.00828317
v -0.00279135 0.00244096 0.00809719
v -0.00274575 0.00163320 0.00808238
v 0.01333485 -0.01082187 0.00789145
v 0.01414040 -0.01130973 0.00787170
v 0.02305008 -0.01617766 0.00766103
v 0.00119688 -0.00403183 0.00808402
v 0.00201155 -0.00519150 0.00804288
v 0.00201155 -0.00534612 0.00803629
v -0.00319565 0.00244096 0.00801490
v -0.00315309 0.00163320 0.00800667
v -0.00450884 0.00160387 0.00746517
v -0.00494962 0.00082276 0.00731375
v -0.00446933 0.00082276 0.00759684
v -0.00446933 0.00001233 0.00762976
v -0.00366074 0.00163320 0.00788322
v 0.01166903 0.00257959 0.00193994
v 0.01220708 0.00213705 0.00195311
v 0.02311088 -0.01130973 0.00712118
v 0.01201861 0.00194244 0.00293570
v 0.01146536 0.00215305 0.00357266
v 0.01173895 0.00225968 0.00270528
v 0.01213716 0.00205174 0.00239750
v 0.02305008 -0.01698543 0.00757215
v 0.02223845 -0.01698543 0.00754088
v 0.02223845 -0.01771321 0.00736313
v 0.02062127 -0.01698543 0.00744213
v 0.02062127 -0.01763324 0.00727754
v 0.02062127 -0.01771321 0.00725450
v 0.01980964 -0.01748128 0.00723968
v 0.02062127 -0.01803845 0.00715739
v 0.02150890 -0.01852365 0.00701584
v 0.02150890 -0.01784118 0.00728741
v 0.02062127 -0.01860362 0.00683973
v 0.02142986 -0.01924344 0.00657310
v 0.02262147 -0.01982461 0.00640193
v 0.02223845 -0.02053907 0.00548024
v 0.02142986 -0.02003255 0.00584068
v 0.02142986 -0.02043776 0.00532058
v 0.02095565 -0.02064570 0.00481365
v 0.02223845 -0.02138682 0.00380637
v 0.02142986 -0.02096294 0.00437914
v 0.02147546 -0.02128018 0.00352163
v 0.02061823 -0.02101626 0.00356936
v 0.02061823 -0.02122687 0.00275794
v 0.02119276 -0.02139215 0.00275794
v 0.02104077 -0.02143481 0.00232508
v 0.02159705 -0.02149346 0.00275794
v 0.02223845 -0.02164541 0.00275794
v 0.02135691 -0.02155211 0.00201401
v 0.02061519 -0.02137349 0.00201401
v 0.01981268 -0.02124020 0.00114004
v 0.01981268 -0.02128552 0.00033027
v 0.02142986 -0.02167474 -0.00127941
v 0.02051792 -0.02136016 -0.00208918
v 0.01981268 -0.02129351 -0.00046963
v 0.02035985 -0.02140015 -0.00127941
v 0.01981268 -0.02114956 -0.00208918
v 0.01981268 -0.02098694 -0.00289896
v 0.02069423 -0.02126686 -0.00282489
v 0.02217462 -0.02136016 -0.00373836
v 0.02061823 -0.02097361 -0.00370873
v 0.02142986 -0.02118421 -0.00370873
v 0.02061823 -0.02073368 -0.00436050
v 0.02081582 -0.01987792 -0.00581381
v 0.02137819 -0.02040577 -0.00528713
v 0.02061823 -0.02055239 -0.00476703
v 0.01860588 -0.01981661 -0.00491516
v 0.01914393 -0.01990725 -0.00504354
v 0.01981268 -0.02001922 -0.00519825
v 0.02057568 -0.02011785 -0.00539247
v 0.02142986 -0.01995523 -0.00591586
v 0.02223845 -0.01968331 -0.00642279
v 0.02061823 -0.01908082 -0.00659232
v 0.02061823 -0.01869160 -0.00680957
v 0.02142986 -0.01869160 -0.00692149
v 0.02223845 -0.01860362 -0.00707456
v 0.01949654 -0.01736398 -0.00734119
v 0.01978533 -0.01705207 -0.00746957
v 0.01979141 -0.01674550 -0.00755516
v 0.01980964 -0.01617766 -0.00771152
v 0.02061823 -0.01617766 -0.00776583
v 0.02142986 -0.01617766 -0.00778723
v 0.01895546 -0.01532457 -0.00778065
v -0.00376409 0.00082276 -0.00810324
v -0.00123193 -0.00322407 -0.00805222
v -0.00204052 -0.00322407 -0.00792877
v -0.00279743 -0.00246429 -0.00796005
v -0.00284607 -0.00241630 -0.00796169
v -0.00284607 -0.00165919 -0.00812134
v -0.00314093 -0.00079544 -0.00814932
v -0.00291902 -0.00004632 -0.00822503
v -0.00323820 -0.00035290 -0.00816084
v -0.00365770 -0.00079544 -0.00806867
v -0.00361514 -0.00004632 -0.00811476
v -0.00362426 0.00000967 -0.00811476
v -0.00447541 0.00244096 0.00600198
v -0.00446933 0.00000967 -0.00787281
v -0.00501041 -0.00079544 -0.00751895
v -0.00566701 -0.00241630 -0.00644583
v -0.00733587 -0.00519416 -0.00335322
v -0.00478851 0.00179048 -0.00613970
v -0.00739058 -0.00424777 -0.00128270
v -0.00739666 -0.00417579 -0.00047292
v -0.00723251 -0.00377324 -0.00047292
v -0.00723251 -0.00376791 0.00033191
v -0.00743618 -0.00544476 -0.00290060
v -0.00746050 -0.00518883 -0.00261586
v -0.00757297 -0.00484227 -0.00128270
v -0.00477939 0.00176916 0.00681175
v -0.00739666 -0.00423444 0.00195311
v -0.00734803 -0.00433308 0.00275959
v -0.00730243 -0.00442905 0.00317106
v -0.00651816 -0.00276553 0.00483011
v -0.00568221 -0.00119799 0.00641016
v -0.00123193 0.00082276 0.00823051
v -0.00308013 0.00082276 0.00799679
v -0.00204052 0.00082276 0.00817455
v 0.01333485 -0.01132040 0.00785689
v 0.01494899 -0.01264001 0.00779270
v 0.02223845 -0.01617766 0.00765116
v -0.00123193 0.00000967 0.00819430
v 0.00058588 -0.00403183 0.00805933
v 0.00127288 -0.00479961 0.00804452
v 0.00160422 -0.00525548 0.00802642
v 0.01575758 -0.01374636 0.00771534
v 0.01494899 -0.01294126 0.00777130
v -0.00366074 0.00082276 0.00787335
v -0.00366074 0.00001233 0.00784866
v -0.00498305 0.00001233 0.00734831
v -0.00446933 0.00000967 0.00762976
v 0.02142986 -0.01617766 0.00762976
v 0.02061823 -0.01617766 0.00760342
v 0.01980964 -0.01617766 0.00757215
v 0.01899801 -0.01617766 0.00752442
v 0.02142986 -0.01698543 0.00749315
v 0.01818943 -0.01617766 0.00743884
v 0.01937799 -0.01739864 0.00721664
v 0.01981268 -0.01788650 0.00706522
v 0.01883690 -0.01728401 0.00717056
v 0.01983092 -0.01864361 0.00662742
v 0.02061823 -0.01869160 0.00678213
v 0.02061823 -0.01912347 0.00648916
v 0.02208342 -0.01974463 0.00633609
v 0.02011362 -0.01904616 0.00642991
v 0.02061823 -0.01991525 0.00571395
v 0.02142986 -0.01964866 0.00624557
v 0.02012882 -0.01984327 0.00562672
v 0.01984004 -0.02003788 0.00522019
v 0.02066079 -0.02034446 0.00512637
v 0.01900105 -0.01993657 0.00495520
v 0.02042065 -0.02056839 0.00464083
v 0.02066079 -0.02074701 0.00437420
v 0.02005891 -0.02067769 0.00410098
v 0.01951782 -0.02059238 0.00384587
v 0.01980052 -0.02075767 0.00357430
v 0.01928376 -0.02066703 0.00330438
v 0.01981268 -0.02097894 0.00275794
v 0.01981268 -0.02114956 0.00194982
v 0.01900105 -0.02097627 0.00114004
v 0.01900105 -0.02102692 0.00033027
v 0.01981268 -0.02123753 -0.00127941
v 0.01900105 -0.02102692 -0.00046963
v 0.01900105 -0.02096294 -0.00127941
v 0.01900105 -0.02087230 -0.00208918
v 0.01854508 -0.02064304 -0.00255661
v 0.01983092 -0.02074434 -0.00369063
v 0.01901929 -0.02072834 -0.00285781
v 0.01929896 -0.02066170 -0.00340918
v 0.02011362 -0.02066170 -0.00419591
v 0.02142986 -0.01958734 -0.00632239
v 0.02027474 -0.01980061 -0.00570848
v 0.02017746 -0.01902217 -0.00655446
v 0.01983092 -0.02042976 -0.00448559
v 0.01818943 -0.01974463 -0.00477855
v 0.01681543 -0.01908882 -0.00503037
v 0.01738388 -0.01919812 -0.00517850
v 0.01815599 -0.01931275 -0.00538753
v 0.01892506 -0.01962999 -0.00531676
v 0.02142986 -0.01860362 -0.00696922
v 0.01899801 -0.01727601 -0.00731157
v 0.01899801 -0.01687346 -0.00743995
v 0.01899801 -0.01617766 -0.00762099
v 0.00041869 -0.00568469 -0.00773621
v -0.00007680 -0.00518883 -0.00778065
v -0.00042334 -0.00484227 -0.00781027
v -0.00123193 -0.00403183 -0.00787611
v -0.00039294 -0.00568469 -0.00761276
v -0.00088539 -0.00518883 -0.00763745
v -0.00123193 -0.00484227 -0.00765391
v -0.00204052 -0.00403183 -0.00768025
v -0.00284911 -0.00322407 -0.00769671
v -0.00365770 -0.00241630 -0.00770164
v -0.00365770 -0.00160587 -0.00794523
v -0.00446629 -0.00079544 -0.00784154
v -0.00478243 0.00176916 0.00600198
v -0.00496786 -0.00160587 -0.00743995
v -0.00566701 -0.00246429 -0.00644090
v -0.00733587 -0.00530613 -0.00335322
v -0.00739970 -0.00417313 0.00033191
v -0.00747874 -0.00569802 -0.00205626
v -0.00754561 -0.00565536 -0.00128270
v -0.00746050 -0.00519416 -0.00261586
v -0.00708052 -0.00584998 -0.00290060
v -0.00721428 -0.00599393 -0.00230150
v -0.00732371 -0.00608191 -0.00176165
v -0.00753042 -0.00565536 -0.00047292
v -0.00753954 -0.00519416 -0.00047292
v -0.00752434 -0.00518883 -0.00001537
v -0.00751522 -0.00484227 0.00033191
v -0.00739970 -0.00420778 0.00114333
v -0.00747874 -0.00484227 0.00114333
v -0.00734803 -0.00456501 0.00275959
v -0.00730243 -0.00444238 0.00317106
v -0.00651816 -0.00291749 0.00483011
v -0.00568221 -0.00131529 0.00641016
v -0.00499825 -0.00079544 0.00733185
v -0.00256641 0.00025226 0.00804617
v -0.00209827 0.00000967 0.00809390
v -0.00015887 -0.00304012 0.00805769
v 0.00073787 -0.00450103 0.00803629
v 0.01980964 -0.01536989 0.00767255
v 0.01899801 -0.01536989 0.00765116
v 0.00128504 -0.00557805 0.00792602
v 0.00201155 -0.00646580 0.00787006
v 0.00201155 -0.00575134 0.00798362
v 0.00282622 -0.00646580 0.00793754
v 0.01657225 -0.01455946 0.00765116
v -0.00365770 -0.00079544 0.00774003
v -0.00446629 -0.00079544 0.00757051
v -0.00498305 0.00000967 0.00734831
v 0.01818943 -0.01536989 0.00761824
v 0.01737780 -0.01536989 0.00755899
v 0.01656921 -0.01536989 0.00746517
v 0.01740211 -0.01621232 0.00732033
v 0.01545359 -0.01572446 0.00719854
v 0.01714373 -0.01650556 0.00718537
v 0.01818943 -0.01713472 0.00709814
v 0.01905881 -0.01771321 0.00697963
v 0.01656921 -0.01637227 0.00712447
v 0.01815903 -0.01785451 0.00666692
v 0.01900105 -0.01841168 0.00654348
v 0.01957558 -0.01893953 0.00635091
v 0.01985220 -0.01940073 0.00598552
v 0.02061823 -0.01952869 0.00611884
v 0.01900105 -0.01923811 0.00583904
v 0.01959078 -0.01975796 0.00551151
v 0.01900105 -0.01964332 0.00536009
v 0.01852684 -0.01984860 0.00482188
v 0.01900105 -0.02022182 0.00437914
v 0.01980052 -0.02048575 0.00437420
v 0.01759970 -0.01987792 0.00409111
v 0.01706165 -0.01978728 0.00384587
v 0.01818943 -0.02024049 0.00356936
v 0.01874571 -0.02057905 0.00294393
v 0.01901017 -0.02072301 0.00270692
v 0.01856636 -0.02064037 0.00240408
v 0.01900105 -0.02087763 0.00194982
v 0.01832014 -0.02072834 0.00114004
v 0.01825934 -0.02075500 0.00033027
v 0.01738388 -0.02042443 0.00033027
v 0.01828974 -0.02075234 -0.00046963
v 0.01835357 -0.02072301 -0.00127941
v 0.01805567 -0.02053373 -0.00208918
v 0.01845693 -0.02068036 -0.00208918
v 0.01738388 -0.02028314 -0.00208918
v 0.01738388 -0.02013652 -0.00289896
v 0.01824414 -0.02045376 -0.00285781
v 0.01957558 -0.02057372 -0.00394903
v 0.01876091 -0.02056839 -0.00309811
v 0.01818943 -0.02018717 -0.00370873
v 0.01901929 -0.02047508 -0.00369063
v 0.01768786 -0.01985393 -0.00419756
v 0.01818943 -0.01993924 -0.00437202
v 0.01981268 -0.01972330 -0.00559985
v 0.01786113 -0.01898218 -0.00569531
v 0.01840221 -0.01907549 -0.00581217
v 0.01900105 -0.01917946 -0.00593396
v 0.01986740 -0.01926477 -0.00616933
v 0.01819246 -0.01784118 -0.00678982
v 0.01900105 -0.01779852 -0.00702354
v 0.01657528 -0.01835303 -0.00588623
v 0.01792192 -0.01814242 -0.00650179
v 0.01740515 -0.01960600 -0.00448559
v 0.01655705 -0.01922478 -0.00453496
v 0.01627738 -0.01895552 -0.00481970
v 0.01577885 -0.01841168 -0.00532828
v 0.01605852 -0.01825439 -0.00578913
v 0.01738388 -0.01889687 -0.00558504
v 0.01840221 -0.01674550 -0.00740374
v 0.01818943 -0.01710539 -0.00722434
v 0.01787632 -0.01674550 -0.00731980
v 0.01774561 -0.01659887 -0.00735601
v 0.01818943 -0.01670017 -0.00738893
v 0.01818943 -0.01617766 -0.00751730
v 0.00120904 -0.00646580 -0.00764404
v -0.00042334 -0.00518883 -0.00772798
v -0.00042030 -0.00621787 -0.00743007
v -0.00084587 -0.00608191 -0.00736424
v -0.00119545 -0.00519150 -0.00755351
v 0.00038525 -0.00650045 -0.00750414
v -0.00120457 -0.00518883 -0.00755187
v -0.00115897 -0.00559405 -0.00743501
v -0.00157239 -0.00518883 -0.00743666
v -0.00172742 -0.00519150 -0.00738070
v -0.00248737 -0.00447970 -0.00736917
v -0.00360298 -0.00397852 -0.00715027
v -0.00453316 -0.00409582 -0.00677007
v -0.00441461 -0.00317075 -0.00714863
v -0.00464868 -0.00257092 -0.00727042
v -0.00446629 -0.00160587 -0.00767695
v -0.00488882 -0.00203241 -0.00736259
v -0.00520496 -0.00322407 -0.00675361
v -0.00561229 -0.00322407 -0.00638494
v -0.00658503 -0.00541543 -0.00422883
v -0.00641481 -0.00595395 -0.00395890
v -0.00574605 -0.00454369 -0.00581381
v -0.00736627 -0.00613523 -0.00128270
v -0.00738451 -0.00617788 -0.00047292
v -0.00655160 -0.00609790 -0.00341905
v -0.00667623 -0.00616988 -0.00290060
v 0.00316668 -0.01257337 -0.00259941
v -0.00656072 -0.00691633 -0.00025238
v -0.00734803 -0.00613523 0.00011136
v -0.00742098 -0.00569535 0.00035989
v -0.00738147 -0.00545809 0.00114169
v -0.00740274 -0.00486093 0.00195311
v -0.00736019 -0.00519416 0.00175889
v -0.00734195 -0.00532479 0.00168154
v -0.00727811 -0.00519416 0.00207490
v -0.00715044 -0.00497023 0.00275959
v -0.00661239 -0.00542610 0.00340642
v -0.00647864 -0.00519683 0.00394627
v -0.00559102 -0.00241630 0.00629495
v -0.00567917 -0.00185646 0.00639864
v -0.00496786 -0.00144325 0.00728577
v 0.00041565 -0.00518883 0.00783549
v 0.00039437 -0.00565536 0.00774168
v 0.00123032 -0.00617255 0.00778941
v 0.00201155 -0.00727623 0.00762153
v 0.00282622 -0.00727623 0.00776307
v 0.01576062 -0.01455946 0.00756721
v 0.00120904 -0.00646580 0.00772193
v -0.00453316 -0.00166985 0.00737465
v -0.00206484 -0.00485560 0.00732198
v -0.00041726 -0.00565536 0.00755899
v -0.00041726 -0.00519150 0.00764786
v 0.01495203 -0.01558850 0.00714587
v 0.01573630 -0.01613500 0.00704712
v 0.01495203 -0.01617766 0.00681998
v 0.01576062 -0.01688412 0.00661260
v 0.01840829 -0.01828105 0.00645954
v 0.01787024 -0.01816109 0.00637724
v 0.01738388 -0.01805445 0.00629330
v 0.01495203 -0.01758525 0.00578143
v 0.01900105 -0.01881423 0.00624228
v 0.01657528 -0.01833437 0.00573535
v 0.01835661 -0.01910748 0.00570408
v 0.01781857 -0.01899551 0.00557570
v 0.01608588 -0.01823307 0.00563330
v 0.01554479 -0.01812110 0.00546707
v 0.01682759 -0.01907282 0.00487784
v 0.01735044 -0.01962200 0.00436926
v 0.01691270 -0.01984860 0.00330438
v 0.01735044 -0.01995257 0.00357430
v 0.01656617 -0.01925144 0.00440218
v 0.01597036 -0.01911015 0.00415201
v 0.01543536 -0.01897152 0.00386727
v 0.01524689 -0.01906216 0.00332413
v 0.01846605 -0.02068036 0.00194982
v 0.01738388 -0.02013118 0.00275794
v 0.01791584 -0.02057905 0.00114004
v 0.01738388 -0.02037911 0.00114004
v 0.01657528 -0.02005121 0.00114004
v 0.01657528 -0.02009386 0.00033027
v 0.01738388 -0.02038978 -0.00046963
v 0.01738388 -0.02034179 -0.00127941
v 0.01794928 -0.02056572 -0.00127941
v 0.01678807 -0.01990725 -0.00289896
v 0.01616491 -0.01981927 -0.00168594
v 0.01653273 -0.01994457 -0.00200853
v 0.01623179 -0.01978728 -0.00222579
v 0.01693094 -0.01984060 -0.00336968
v 0.01740515 -0.01992324 -0.00366594
v 0.01715285 -0.01975263 -0.00390788
v 0.01737780 -0.01771321 -0.00663182
v 0.01773041 -0.01771321 -0.00673716
v 0.01738388 -0.01802246 -0.00641785
v 0.01600076 -0.01908882 -0.00427985
v 0.01465412 -0.01814776 -0.00482299
v 0.01519217 -0.01828105 -0.00506000
v 0.01357803 -0.01747328 -0.00504848
v 0.01551743 -0.01810777 -0.00559985
v 0.01446566 -0.01743596 -0.00577431
v 0.01495203 -0.01755593 -0.00587636
v 0.01543840 -0.01771321 -0.00594878
v 0.01577885 -0.01781985 -0.00599980
v 0.01654793 -0.01776920 -0.00632075
v 0.01737780 -0.01761724 -0.00669436
v 0.01743859 -0.01691611 -0.00712229
v 0.01720453 -0.01643358 -0.00730498
v 0.00065579 -0.00694833 -0.00739880
v -0.00004944 -0.00661775 -0.00734284
v 0.00011775 -0.00679104 -0.00730334
v -0.00042334 -0.00661775 -0.00719965
v -0.00118025 -0.00661775 -0.00686883
v -0.00226546 -0.00619388 -0.00662853
v -0.00340539 -0.00536212 -0.00661371
v -0.00484018 -0.00440773 -0.00652977
v -0.00185813 -0.00518883 -0.00733461
v -0.00506209 -0.00386921 -0.00663840
v -0.00582508 -0.00545542 -0.00508140
v -0.00611994 -0.00570335 -0.00454484
v -0.00560622 -0.00599393 -0.00486085
v -0.00587372 -0.00616988 -0.00432100
v -0.00550286 -0.00508220 -0.00562125
v -0.00656072 -0.00691633 0.00008668
v 0.00386280 -0.01265334 -0.00353920
v 0.00360745 -0.01274932 -0.00288085
v 0.00333083 -0.01264001 -0.00270639
v 0.00432789 -0.01317586 -0.00290060
v 0.00416982 -0.01326917 -0.00209083
v 0.00363177 -0.01295192 -0.00209083
v 0.00308156 -0.01262402 -0.00209083
v -0.00002816 -0.01092851 -0.00090415
v -0.00022271 -0.01082187 -0.00070829
v -0.00005552 -0.01094184 -0.00046963
v -0.00691637 -0.00648446 0.00036977
v -0.00662455 -0.00619654 0.00194982
v -0.00653032 -0.00610057 0.00246004
v -0.00727203 -0.00599127 0.00065121
v -0.00705621 -0.00561804 0.00194982
v -0.00671879 -0.00567936 0.00274313
v -0.00701669 -0.00519416 0.00275465
v -0.00641481 -0.00596727 0.00299989
v -0.00630233 -0.00567936 0.00363355
v -0.00573085 -0.00608991 0.00403844
v -0.00588892 -0.00561538 0.00433799
v -0.00572477 -0.00531946 0.00483669
v -0.00491922 -0.00372792 0.00645624
v -0.00501953 -0.00322407 0.00656652
v -0.00518976 -0.00241630 0.00672617
v -0.00484930 -0.00198443 0.00720677
v 0.00039437 -0.00568469 0.00773509
v 0.00119080 -0.00706562 0.00749480
v 0.00119080 -0.00731622 0.00739604
v 0.00201155 -0.00792671 0.00733185
v -0.00095835 -0.00618321 0.00726766
v 0.00039437 -0.00646580 0.00751784
v -0.00312269 -0.00425044 0.00717879
v -0.00258464 -0.00459167 0.00724627
v -0.00181253 -0.00538878 0.00726602
v -0.00121673 -0.00568469 0.00734173
v -0.00096442 -0.00617255 0.00726931
v 0.01415560 -0.01532457 0.00704547
v 0.00144919 -0.00776942 0.00725614
v 0.00247056 -0.00845989 0.00720018
v 0.00201155 -0.00832926 0.00713435
v 0.01495203 -0.01669751 0.00648258
v 0.00125768 -0.00807866 0.00703889
v 0.01252930 -0.01523393 0.00657968
v 0.01421639 -0.01617766 0.00658133
v 0.01576062 -0.01728934 0.00633116
v 0.01495203 -0.01710272 0.00618797
v 0.01441702 -0.01745995 0.00566787
v 0.01493379 -0.01800113 0.00519221
v 0.01628954 -0.01895552 0.00469021
v 0.01680023 -0.01989658 0.00275794
v 0.01511010 -0.01912614 0.00275794
v 0.01576062 -0.01942739 0.00275794
v 0.01639594 -0.01971530 0.00275794
v 0.01519217 -0.01828638 0.00492886
v 0.01465412 -0.01814776 0.00468692
v 0.01305214 -0.01733199 0.00466388
v 0.01144408 -0.01651090 0.00464083
v 0.01438358 -0.01828905 0.00414707
v 0.01384857 -0.01814776 0.00382777
v 0.01496419 -0.01882756 0.00358582
v 0.01121002 -0.01663886 0.00410098
v 0.01365707 -0.01824639 0.00328792
v 0.01350204 -0.01832904 0.00275959
v 0.01470580 -0.01893153 0.00275794
v 0.01738388 -0.02026448 0.00194982
v 0.01654793 -0.01993391 0.00186917
v 0.01616491 -0.01981927 0.00154493
v 0.01611931 -0.01984327 0.00114004
v 0.01605852 -0.01986993 0.00033027
v 0.01567550 -0.01968331 -0.00046963
v 0.01657528 -0.02005920 -0.00046963
v 0.01657528 -0.02001122 -0.00127941
v 0.01638378 -0.01971797 -0.00289896
v 0.01526209 -0.01905150 -0.00342728
v 0.01573326 -0.01965399 -0.00127941
v 0.01495203 -0.01929942 -0.00127941
v 0.01445046 -0.01906216 -0.00127941
v 0.01460245 -0.01898485 -0.00231960
v 0.01414952 -0.01865428 -0.00290060
v 0.01576062 -0.01942472 -0.00289896
v 0.01662392 -0.01960334 -0.00366594
v 0.01680023 -0.01747862 -0.00659890
v 0.01546271 -0.01895819 -0.00396549
v 0.01384857 -0.01814776 -0.00399676
v 0.01438358 -0.01828372 -0.00428150
v 0.01276944 -0.01747595 -0.00428314
v 0.01303695 -0.01733732 -0.00482299
v 0.01198517 -0.01666019 -0.00503202
v 0.01257793 -0.01677482 -0.00531182
v 0.01288191 -0.01660953 -0.00575950
v 0.01494291 -0.01695343 -0.00630923
v 0.01576062 -0.01720936 -0.00642608
v 0.01626219 -0.01733999 -0.00651002
v 0.01654793 -0.01703874 -0.00679476
v 0.01252930 -0.01514063 -0.00665486
v 0.01174807 -0.01457545 -0.00672893
v 0.01252930 -0.01455946 -0.00695112
v 0.01091212 -0.01428487 -0.00662853
v 0.01049566 -0.01415958 -0.00654788
v -0.00105866 -0.00702564 -0.00665322
v -0.00159671 -0.00684702 -0.00652484
v -0.00250257 -0.00610324 -0.00657257
v -0.00384616 -0.00519416 -0.00650673
v -0.00392520 -0.00519416 -0.00646558
v -0.00453316 -0.00486626 -0.00636848
v -0.00496482 -0.00531946 -0.00578748
v -0.00503777 -0.00519416 -0.00583357
v -0.00525664 -0.00519416 -0.00569696
v -0.00546334 -0.00519416 -0.00556693
v -0.00528400 -0.00565536 -0.00532993
v -0.00460612 -0.00585797 -0.00557845
v -0.00371241 -0.00619654 -0.00584015
v -0.00263024 -0.00695632 -0.00584179
v 0.00078043 -0.00931298 -0.00574469
v 0.00231553 -0.01098183 -0.00500569
v -0.00004640 -0.01093917 0.00033027
v -0.00001904 -0.01092051 0.00075655
v 0.00156470 -0.01174960 0.00168154
v 0.00199027 -0.01196821 0.00195146
v 0.00164373 -0.01169895 0.00222139
v 0.00214530 -0.01190689 0.00275794
v -0.00644824 -0.00683369 0.00062653
v 0.00406646 -0.01252005 -0.00408070
v 0.00483858 -0.01335181 -0.00331701
v 0.00470482 -0.01339180 -0.00290060
v 0.00531279 -0.01392764 -0.00205297
v 0.00562589 -0.01416757 -0.00176165
v 0.00179572 -0.01196821 -0.00127941
v 0.00299341 -0.01267200 -0.00127941
v 0.00057068 -0.01130973 -0.00047128
v -0.00632665 -0.00674572 0.00114169
v -0.00586156 -0.00617788 0.00357101
v -0.00541471 -0.00585797 0.00457829
v -0.00000080 -0.01010475 0.00396931
v -0.00075164 -0.00925433 0.00470009
v -0.00519888 -0.00561538 0.00496672
v -0.00484626 -0.00522616 0.00557570
v -0.00475203 -0.00426910 0.00632786
v -0.00447541 -0.00401317 0.00662742
v -0.00439637 -0.00315742 0.00699116
v -0.00361210 -0.00400251 0.00706193
v -0.00385225 -0.00338402 0.00716562
v -0.00036254 -0.00645780 0.00732527
v 0.00039133 -0.00706562 0.00728248
v 0.00091418 -0.00761480 0.00718372
v -0.00059053 -0.00672172 0.00712447
v -0.00005552 -0.00689767 0.00722652
v -0.00235666 -0.00513285 0.00718208
v -0.00232626 -0.00519416 0.00716233
v -0.00149943 -0.00592729 0.00714587
v 0.01452645 -0.01659620 0.00641016
v 0.00119080 -0.00805734 0.00702901
v 0.01193349 -0.01507131 0.00647435
v 0.01296095 -0.01575911 0.00639370
v 0.01399145 -0.01644425 0.00630647
v 0.01420423 -0.01695343 0.00598717
v 0.01252930 -0.01563915 0.00630318
v 0.01333789 -0.01675349 0.00575510
v 0.01287280 -0.01662020 0.00563495
v 0.01388201 -0.01731067 0.00546378
v 0.01459637 -0.01898751 0.00217530
v 0.01415560 -0.01760925 0.00519056
v 0.01359323 -0.01746795 0.00492557
v 0.01198517 -0.01665485 0.00488936
v 0.01042879 -0.01582043 0.00484492
v 0.00988466 -0.01566314 0.00457665
v 0.00807901 -0.01495934 0.00396931
v 0.00964756 -0.01580177 0.00403844
v 0.01226179 -0.01732133 0.00377675
v 0.01106107 -0.01674550 0.00356936
v 0.01207636 -0.01741997 0.00324183
v 0.01309470 -0.01811310 0.00275959
v 0.01296399 -0.01818508 0.00215884
v 0.01571198 -0.01964866 0.00114004
v 0.01452645 -0.01901950 0.00163216
v 0.01565726 -0.01967798 0.00033027
v 0.01495203 -0.01935807 -0.00046963
v 0.01574542 -0.01918212 -0.00370215
v 0.01362059 -0.01826239 -0.00345362
v 0.01405224 -0.01884622 -0.00127941
v 0.01326189 -0.01841168 -0.00133372
v 0.01339868 -0.01839035 -0.00208918
v 0.01350204 -0.01832904 -0.00290060
v 0.01402488 -0.01869160 -0.00228833
v 0.01439878 -0.01908882 -0.00046963
v 0.01365099 -0.01869160 -0.00046963
v 0.01288495 -0.01822773 -0.00110330
v 0.01302479 -0.01771321 -0.00403297
v 0.01223444 -0.01733732 -0.00394574
v 0.01121002 -0.01664152 -0.00424364
v 0.01171767 -0.01679348 -0.00451521
v 0.01251106 -0.01721203 -0.00453826
v 0.01144104 -0.01650556 -0.00478514
v 0.01131945 -0.01577244 -0.00573152
v 0.01335005 -0.01613500 -0.00628125
v 0.01165687 -0.01532457 -0.00619566
v 0.01167815 -0.01490869 -0.00650673
v 0.01252930 -0.01554584 -0.00638329
v 0.01308558 -0.01569247 -0.00649192
v 0.01467236 -0.01651889 -0.00650179
v 0.01553567 -0.01674550 -0.00664663
v 0.01203989 -0.01501000 -0.00657421
v 0.01150488 -0.01486071 -0.00647052
v -0.00226546 -0.00661775 -0.00633391
v -0.00304366 -0.00590063 -0.00643267
v -0.00366986 -0.00564204 -0.00628125
v -0.00416839 -0.00519416 -0.00633227
v -0.00446933 -0.00519416 -0.00616274
v -0.00371241 -0.00617255 -0.00585825
v -0.00283695 -0.00645247 -0.00613805
v 0.00964756 -0.01579910 -0.00416135
v 0.00169845 -0.01196821 -0.00047128
v 0.00039133 -0.01119243 0.00033027
v 0.00151302 -0.01177893 0.00113840
v 0.00267727 -0.01238409 0.00194982
v 0.00314844 -0.01258403 0.00254892
v 0.00285358 -0.01234677 0.00279415
v 0.00326091 -0.01251738 0.00308548
v 0.00229425 -0.01181092 0.00334552
v -0.00592236 -0.00702297 0.00114169
v 0.01207029 -0.01742530 -0.00340918
v 0.00883289 -0.01580443 -0.00259118
v 0.01309470 -0.01811043 -0.00290060
v 0.00713059 -0.01504465 -0.00127941
v 0.00652871 -0.01470875 -0.00127941
v 0.00567756 -0.01423155 -0.00127941
v 0.00449508 -0.01354908 -0.00127941
v -0.00577644 -0.00692433 0.00169800
v -0.00079116 -0.00846255 0.00556747
v 0.00010255 -0.00841457 0.00632457
v 0.00269247 -0.01196821 0.00354961
v 0.00150390 -0.01098183 0.00409934
v 0.00327003 -0.01169895 0.00474123
v -0.00021055 -0.00941695 0.00492063
v -0.00064220 -0.00871581 0.00539794
v -0.00481283 -0.00519416 0.00562343
v -0.00022575 -0.00787606 0.00655171
v -0.00421398 -0.00456235 0.00650233
v 0.00039133 -0.00744951 0.00709978
v 0.00027582 -0.00807866 0.00666527
v 0.00038221 -0.00808133 0.00671300
v 0.00113912 -0.00871315 0.00658791
v 0.01138937 -0.01491669 0.00637230
v 0.01091212 -0.01477540 0.00626532
v 0.01091212 -0.01524193 0.00586043
v 0.01132553 -0.01576711 0.00558722
v 0.01091212 -0.01564715 0.00543415
v 0.01031935 -0.01507131 0.00570737
v 0.00882377 -0.01423155 0.00567939
v 0.01421639 -0.01883289 0.00192348
v 0.00997890 -0.01532457 0.00515270
v 0.00929190 -0.01508731 0.00494368
v 0.00888456 -0.01496468 0.00478732
v 0.00909735 -0.01565781 0.00356936
v 0.01010353 -0.01621765 0.00356936
v 0.00734642 -0.01410892 0.00471325
v 0.00580827 -0.01325584 0.00462931
v 0.00554381 -0.01339180 0.00410098
v 0.00402087 -0.01254671 0.00399565
v 0.00384456 -0.01265068 0.00356936
v 0.00480210 -0.01337047 0.00321879
v 0.01252930 -0.01780652 0.00275959
v 0.01051694 -0.01657754 0.00315296
v 0.01134073 -0.01737731 0.00141820
v 0.01128601 -0.01740664 0.00087835
v 0.01248370 -0.01801446 0.00114004
v 0.01288799 -0.01822507 0.00114004
v 0.01327405 -0.01836369 0.00191361
v 0.01393065 -0.01869160 0.00192019
v 0.00882681 -0.01580710 0.00249296
v 0.00727042 -0.01496468 0.00236293
v 0.01091212 -0.01706807 0.00194982
v 0.01495203 -0.01927543 0.00114004
v 0.01495203 -0.01933408 0.00033027
v 0.01402792 -0.01886488 0.00033027
v 0.01369050 -0.01869160 0.00033027
v 0.01333789 -0.01851032 0.00033027
v 0.01284240 -0.01824906 0.00033027
v 0.01183622 -0.01771321 0.00033027
v 0.01127689 -0.01741197 0.00033027
v 0.01283936 -0.01825173 -0.00046963
v 0.01131945 -0.01738798 -0.00085312
v 0.00647703 -0.01470875 -0.00046963
v 0.00862922 -0.01592173 0.00033027
v 0.00567148 -0.01423155 -0.00114774
v 0.00867482 -0.01589507 0.00114004
v 0.00311804 -0.01264001 0.00194982
v 0.00363177 -0.01293593 0.00194982
v 0.00524591 -0.01386099 0.00194982
v 0.00463795 -0.01339180 0.00275959
v 0.00429445 -0.01319452 0.00275959
v 0.00327611 -0.01264001 0.00262463
v 0.00929190 -0.01629496 -0.00046799
v 0.00862314 -0.01592173 -0.00046799
v 0.00768080 -0.01539122 -0.00046799
v 0.00710019 -0.01506331 -0.00046963
v 0.00724914 -0.01336247 0.00560861
v 0.00063756 -0.00857452 0.00648587
v 0.00278062 -0.01200020 0.00359405
v 0.00248576 -0.01168296 0.00388702
v 0.00302989 -0.01184558 0.00420138
v 0.00329739 -0.01196821 0.00427380
v 0.00480818 -0.01255737 0.00480707
v 0.00823708 -0.01405561 0.00547365
v -0.00400120 -0.00519416 0.00615505
v 0.00038221 -0.00812132 0.00668667
v 0.00929494 -0.01436751 0.00580777
v 0.00977827 -0.01491669 0.00553126
v 0.00876601 -0.01423155 0.00563989
v 0.00910343 -0.01470875 0.00529425
v 0.00634632 -0.01341312 0.00487290
v 0.00613353 -0.01423155 0.00275959
v 0.00929190 -0.01615900 0.00194982
v 0.00834044 -0.01562315 0.00194982
v 0.01019472 -0.01676149 0.00114004
v 0.00929190 -0.01624697 0.00114004
v 0.00929190 -0.01630029 0.00033027
v 0.01087260 -0.01718803 0.00033027
v 0.01379994 -0.01869160 0.00114004
v 0.01129209 -0.01740397 -0.00031327
f 1 2 3
f 1 3 4
f 1 4 5
f 1 5 6
f 1 6 7
f 1 7 8
f 1 8 9
f 1 9 10
f 1 10 11
f 1 11 2
f 2 12 3
f 2 11 13
f 2 13 14
f 2 14 15
f 2 15 12
f 3 16 17
f 3 17 4
f 3 12 18
f 3 18 16
f 4 17 19
f 4 19 20
f 4 20 5
f 5 20 21
f 5 21 22
f 5 22 23
f 5 23 6
f 6 23 7
f 7 24 25
f 7 25 8
f 7 23 26
f 7 26 24
f 8 25 9
f 9 25 10
f 10 27 28
f 10 28 29
f 10 29 11
f 10 25 30
f 10 30 27
f 11 29 13
f 12 31 18
f 12 15 32
f 12 32 33
f 12 33 34
f 12 34 31
f 13 29 35
f 13 35 36
f 13 36 14
f 14 36 15
f 15 36 37
f 15 37 38
f 15 38 32
f 16 39 17
f 16 18 31
f 16 31 40
f 16 40 41
f 16 41 39
f 17 39 42
f 17 42 19
f 19 42 43
f 19 43 20
f 20 43 44
f 20 44 45
f 20 45 21
f 21 45 46
f 21 46 47
f 21 47 22
f 22 47 48
f 22 48 23
f 23 48 49
f 23 49 26
f 24 50 51
f 24 51 25
f 24 26 52
f 24 52 50
f 25 51 30
f 26 53 52
f 26 49 53
f 27 54 55
f 27 55 56
f 27 56 28
f 27 30 54
f 28 57 29
f 28 56 58
f 28 58 57
f 29 57 35
f 30 51 59
f 30 59 60
f 30 60 55
f 30 55 54
f 31 34 61
f 31 61 62
f 31 62 63
f 31 63 64
f 31 64 65
f 31 65 66
f 31 66 67
f 31 67 40
f 32 38 68
f 32 68 69
f 32 69 33
f 33 69 34
f 34 69 70
f 34 70 71
f 34 71 61
f 35 57 72
f 35 72 73
f 35 73 36
f 36 73 37
f 37 73 74
f 37 74 75
f 37 75 38
f 38 75 68
f 39 41 76
f 39 76 77
f 39 77 78
f 39 78 42
f 40 67 79
f 40 79 80
f 40 80 76
f 40 76 41
f 42 81 82
f 42 82 83
f 42 83 84
f 42 84 43
f 42 78 85
f 42 85 81
f 43 84 86
f 43 86 44
f 44 86 87
f 44 87 88
f 44 88 89
f 44 89 90
f 44 90 45
f 45 90 46
f 46 90 91
f 46 91 92
f 46 92 47
f 47 92 93
f 47 93 48
f 48 93 94
f 48 94 49
f 49 94 95
f 49 95 53
f 50 96 97
f 50 97 51
f 50 52 98
f 50 98 96
f 51 97 99
f 51 99 59
f 52 53 98
f 53 95 100
f 53 100 101
f 53 101 98
f 55 60 102
f 55 102 103
f 55 103 104
f 55 104 56
f 56 104 58
f 57 58 72
f 58 104 105
f 58 105 106
f 58 106 72
f 59 99 107
f 59 107 108
f 59 108 109
f 59 109 110
f 59 110 111
f 59 111 112
f 59 112 60
f 60 112 111
f 60 111 113
f 60 113 102
f 61 71 80
f 61 80 62
f 62 80 64
f 62 64 63
f 64 80 65
f 65 80 79
f 65 79 66
f 66 79 67
f 68 75 114
f 68 114 115
f 68 115 69
f 69 115 116
f 69 116 117
f 69 117 70
f 70 117 80
f 70 80 71
f 72 74 73
f 72 106 118
f 72 118 119
f 72 119 120
f 72 120 74
f 74 120 75
f 75 120 114
f 76 80 77
f 77 80 121
f 77 121 78
f 78 121 122
f 78 122 85
f 80 123 124
f 80 124 125
f 80 125 126
f 80 126 127
f 80 127 128
f 80 128 129
f 80 129 130
f 80 130 131
f 80 131 132
f 80 132 133
f 80 133 134
f 80 134 135
f 80 135 136
f 80 136 137
f 80 137 138
f 80 138 139
f 80 139 140
f 80 140 141
f 80 141 142
f 80 142 143
f 80 143 144
f 80 144 145
f 80 145 146
f 80 146 147
f 80 147 148
f 80 148 149
f 80 149 150
f 80 150 151
f 80 151 152
f 80 152 153
f 80 153 154
f 80 154 155
f 80 155 156
f 80 156 157
f 80 157 158
f 80 158 159
f 80 159 160
f 80 160 161
f 80 161 162
f 80 162 163
f 80 163 122
f 80 122 121
f 80 117 116
f 80 116 164
f 80 164 165
f 80 165 118
f 80 118 106
f 80 106 166
f 80 166 123
f 81 167 82
f 81 85 168
f 81 168 169
f 81 169 167
f 82 170 83
f 82 167 171
f 82 171 172
f 82 172 173
f 82 173 170
f 83 170 174
f 83 174 84
f 84 174 87
f 84 87 86
f 85 122 163
f 85 163 162
f 85 162 168
f 87 175 176
f 87 176 88
f 87 174 177
f 87 177 178
f 87 178 179
f 87 179 180
f 87 180 175
f 88 176 181
f 88 181 89
f 89 182 186
f 89 186 183
f 89 183 90
f 89 181 184
f 89 184 185
f 89 185 182
f 90 183 91
f 91 183 186
f 91 186 92
f 92 186 93
f 93 186 187
f 93 187 94
f 94 187 188
f 94 188 95
f 95 188 189
f 95 189 190
f 95 190 100
f 96 98 191
f 96 191 192
f 96 192 193
f 96 193 194
f 96 194 97
f 97 194 195
f 97 195 107
f 97 107 99
f 98 101 196
f 98 196 197
f 98 197 198
f 98 198 199
f 98 199 200
f 98 200 201
f 98 201 191
f 100 202 101
f 100 190 203
f 100 203 202
f 101 202 196
f 102 113 204
f 102 204 103
f 103 204 104
f 104 204 205
f 104 205 105
f 105 205 206
f 105 206 166
f 105 166 106
f 107 207 108
f 107 195 208
f 107 208 209
f 107 209 207
f 108 207 210
f 108 210 211
f 108 211 212
f 108 212 213
f 108 213 214
f 108 214 215
f 108 215 109
f 109 215 216
f 109 216 217
f 109 217 218
f 109 218 219
f 109 219 220
f 109 220 221
f 109 221 222
f 109 222 110
f 110 222 111
f 111 222 223
f 111 223 224
f 111 224 113
f 113 224 204
f 114 120 115
f 115 120 119
f 115 119 225
f 115 225 226
f 115 226 164
f 115 164 116
f 118 165 119
f 119 165 225
f 123 227 228
f 123 228 229
f 123 229 219
f 123 219 230
f 123 230 218
f 123 218 217
f 123 217 215
f 123 215 214
f 123 214 213
f 123 213 212
f 123 212 210
f 123 210 209
f 123 209 231
f 123 231 232
f 123 232 194
f 123 194 233
f 123 233 191
f 123 191 199
f 123 199 234
f 123 234 235
f 123 235 236
f 123 236 237
f 123 237 124
f 123 166 206
f 123 206 238
f 123 238 227
f 124 237 239
f 124 239 240
f 124 240 125
f 125 241 126
f 125 240 241
f 126 241 242
f 126 242 243
f 126 243 127
f 127 243 128
f 128 243 244
f 128 244 245
f 128 245 129
f 129 245 246
f 129 246 130
f 130 246 247
f 130 247 131
f 131 247 248
f 131 248 249
f 131 249 250
f 131 250 132
f 132 250 251
f 132 251 133
f 133 251 134
f 134 251 252
f 134 252 253
f 134 253 135
f 135 253 254
f 135 254 255
f 135 255 256
f 135 256 136
f 136 256 137
f 137 256 257
f 137 257 258
f 137 258 259
f 137 259 138
f 138 259 139
f 139 260 140
f 139 259 261
f 139 261 260
f 140 260 262
f 140 262 141
f 141 262 263
f 141 263 142
f 142 263 143
f 143 263 262
f 143 262 264
f 143 264 265
f 143 265 144
f 144 265 145
f 145 265 266
f 145 266 267
f 145 267 268
f 145 268 146
f 146 268 147
f 147 268 269
f 147 269 270
f 147 270 148
f 148 270 149
f 149 270 271
f 149 271 272
f 149 272 150
f 150 272 273
f 150 273 151
f 151 273 274
f 151 274 152
f 152 274 275
f 152 275 276
f 152 276 277
f 152 277 153
f 153 277 154
f 154 277 278
f 154 278 155
f 155 278 279
f 155 279 280
f 155 280 156
f 156 280 157
f 157 280 281
f 157 281 282
f 157 282 283
f 157 283 158
f 158 283 159
f 159 283 284
f 159 284 160
f 160 284 285
f 160 285 161
f 161 285 286
f 161 286 162
f 162 286 287
f 162 287 169
f 162 169 168
f 164 226 165
f 165 226 225
f 167 288 171
f 167 169 287
f 167 287 289
f 167 289 290
f 167 290 288
f 170 173 291
f 170 291 292
f 170 292 174
f 171 288 293
f 171 293 294
f 171 294 295
f 171 295 296
f 171 296 297
f 171 297 298
f 171 298 172
f 172 298 299
f 172 299 300
f 172 300 301
f 172 301 302
f 172 302 173
f 173 302 291
f 174 292 177
f 175 180 176
f 176 180 303
f 176 303 304
f 176 304 181
f 177 292 305
f 177 305 178
f 178 306 307
f 178 307 308
f 178 308 179
f 178 305 306
f 179 308 180
f 180 309 303
f 180 308 310
f 180 310 311
f 180 311 312
f 180 312 309
f 181 304 184
f 182 313 186
f 182 185 315
f 182 315 313
f 184 304 314
f 184 314 185
f 185 314 316
f 185 316 315
f 186 313 188
f 186 188 187
f 188 313 315
f 188 315 189
f 189 315 190
f 190 315 316
f 190 316 317
f 190 317 318
f 190 318 319
f 190 319 203
f 191 201 200
f 191 200 199
f 191 233 192
f 192 233 193
f 193 233 194
f 194 232 195
f 195 232 231
f 195 231 208
f 196 320 436
f 196 436 321
f 196 321 197
f 196 202 322
f 196 322 323
f 196 323 320
f 197 321 198
f 198 324 325
f 198 325 326
f 198 326 234
f 198 234 199
f 198 321 327
f 198 327 328
f 198 328 329
f 198 329 324
f 202 203 330
f 202 330 331
f 202 331 322
f 203 319 318
f 203 318 332
f 203 332 333
f 203 333 334
f 203 334 335
f 203 335 336
f 203 336 330
f 204 224 337
f 204 337 206
f 204 206 205
f 206 338 238
f 206 337 338
f 207 209 339
f 207 339 210
f 208 231 209
f 209 210 339
f 210 212 211
f 215 217 216
f 218 230 219
f 219 229 221
f 219 221 220
f 221 340 222
f 221 229 340
f 222 340 341
f 222 341 223
f 223 341 342
f 223 342 224
f 224 342 337
f 227 238 338
f 227 338 228
f 228 338 343
f 228 343 229
f 229 343 340
f 234 326 344
f 234 344 235
f 235 344 236
f 236 344 345
f 236 345 346
f 236 346 240
f 236 240 239
f 236 239 237
f 240 347 348
f 240 348 349
f 240 349 350
f 240 350 351
f 240 351 352
f 240 352 241
f 240 346 353
f 240 353 347
f 241 352 354
f 241 354 242
f 242 354 355
f 242 355 243
f 243 355 356
f 243 356 244
f 244 356 245
f 245 357 247
f 245 247 246
f 245 356 358
f 245 358 357
f 247 357 359
f 247 359 248
f 248 359 360
f 248 360 249
f 249 361 251
f 249 251 250
f 249 360 362
f 249 362 361
f 251 361 253
f 251 253 252
f 253 361 254
f 254 363 364
f 254 364 365
f 254 365 366
f 254 366 367
f 254 367 368
f 254 368 369
f 254 369 255
f 254 361 363
f 255 369 256
f 256 369 367
f 256 367 370
f 256 370 257
f 257 370 367
f 257 367 371
f 257 371 258
f 258 371 372
f 258 372 259
f 259 372 373
f 259 373 261
f 260 261 374
f 260 374 375
f 260 375 262
f 261 373 376
f 261 376 377
f 261 377 374
f 262 375 378
f 262 378 379
f 262 379 380
f 262 380 264
f 264 381 265
f 264 380 382
f 264 382 383
f 264 383 381
f 265 381 266
f 266 381 383
f 266 383 384
f 266 384 267
f 267 384 268
f 268 385 386
f 268 386 269
f 268 384 387
f 268 387 388
f 268 388 389
f 268 389 390
f 268 390 391
f 268 391 385
f 269 386 270
f 270 386 392
f 270 392 271
f 271 392 272
f 272 392 273
f 273 393 274
f 273 392 393
f 274 393 394
f 274 394 275
f 275 394 395
f 275 395 396
f 275 396 397
f 275 397 276
f 276 397 277
f 277 397 278
f 278 397 279
f 279 397 280
f 280 397 398
f 280 398 281
f 281 398 399
f 281 399 400
f 281 400 401
f 281 401 282
f 282 401 402
f 282 402 283
f 283 402 284
f 284 402 403
f 284 403 285
f 285 403 286
f 286 403 289
f 286 289 287
f 288 290 293
f 289 403 290
f 290 403 402
f 290 402 404
f 290 404 294
f 290 294 293
f 291 302 405
f 291 405 292
f 292 405 305
f 294 404 295
f 295 406 407
f 295 407 408
f 295 408 409
f 295 409 410
f 295 410 296
f 295 404 406
f 296 410 411
f 296 411 297
f 297 411 412
f 297 412 298
f 298 412 411
f 298 411 413
f 298 413 299
f 299 413 414
f 299 414 301
f 299 301 300
f 301 415 416
f 301 416 302
f 301 414 415
f 302 416 405
f 303 309 422
f 303 422 417
f 303 417 316
f 303 316 314
f 303 314 304
f 305 405 306
f 306 418 419
f 306 419 307
f 306 405 418
f 307 419 420
f 307 420 308
f 308 420 421
f 308 421 310
f 309 312 423
f 309 423 424
f 309 424 425
f 309 425 426
f 309 426 422
f 310 421 311
f 311 421 519
f 311 519 427
f 311 427 523
f 311 523 428
f 311 428 312
f 312 428 429
f 312 429 423
f 316 417 317
f 317 417 516
f 317 516 430
f 317 430 318
f 318 333 332
f 318 430 431
f 318 431 432
f 318 432 433
f 318 433 434
f 318 434 435
f 318 435 333
f 320 323 437
f 320 437 438
f 320 438 436
f 321 436 327
f 322 331 323
f 323 331 437
f 324 439 325
f 324 329 439
f 325 439 440
f 325 440 441
f 325 441 326
f 326 441 344
f 327 436 442
f 327 442 443
f 327 443 444
f 327 444 329
f 327 329 328
f 329 444 445
f 329 445 446
f 329 446 447
f 329 447 439
f 330 336 448
f 330 448 331
f 331 448 449
f 331 449 437
f 333 450 334
f 333 435 450
f 334 450 335
f 335 450 551
f 335 551 451
f 335 451 336
f 336 451 448
f 337 342 343
f 337 343 338
f 340 343 341
f 341 343 342
f 344 441 452
f 344 452 453
f 344 453 345
f 345 453 454
f 345 454 455
f 345 455 456
f 345 456 346
f 346 456 353
f 347 353 456
f 347 456 455
f 347 455 348
f 348 455 350
f 348 350 349
f 350 455 457
f 350 457 458
f 350 458 351
f 351 459 354
f 351 354 352
f 351 458 460
f 351 460 459
f 354 459 461
f 354 461 462
f 354 462 355
f 355 462 463
f 355 463 356
f 356 464 358
f 356 463 465
f 356 465 464
f 357 358 466
f 357 466 359
f 358 467 466
f 358 464 467
f 359 466 468
f 359 468 469
f 359 469 470
f 359 470 360
f 360 470 469
f 360 469 471
f 360 471 472
f 360 472 362
f 361 362 363
f 362 472 473
f 362 473 474
f 362 474 363
f 363 474 364
f 364 474 475
f 364 475 476
f 364 476 477
f 364 477 478
f 364 478 365
f 365 478 479
f 365 479 371
f 365 371 367
f 365 367 366
f 367 369 368
f 371 479 372
f 372 479 480
f 372 480 481
f 372 481 373
f 373 481 376
f 374 377 375
f 375 377 482
f 375 482 378
f 376 481 483
f 376 483 482
f 376 482 377
f 378 482 484
f 378 484 485
f 378 485 486
f 378 486 379
f 379 487 382
f 379 382 380
f 379 486 488
f 379 488 489
f 379 489 487
f 382 487 490
f 382 490 384
f 382 384 383
f 384 490 387
f 385 491 392
f 385 392 386
f 385 391 492
f 385 492 493
f 385 493 491
f 387 490 494
f 387 494 388
f 388 494 495
f 388 495 496
f 388 496 497
f 388 497 498
f 388 498 389
f 389 498 499
f 389 499 492
f 389 492 390
f 390 492 391
f 392 491 393
f 393 491 493
f 393 493 394
f 394 493 395
f 395 500 396
f 395 493 501
f 395 501 398
f 395 398 500
f 396 500 397
f 397 500 398
f 398 501 502
f 398 502 399
f 399 502 400
f 400 502 401
f 401 502 503
f 401 503 504
f 401 504 406
f 401 406 404
f 401 404 402
f 405 416 418
f 406 504 505
f 406 505 506
f 406 506 507
f 406 507 407
f 407 507 508
f 407 508 509
f 407 509 510
f 407 510 408
f 408 510 409
f 409 510 511
f 409 511 512
f 409 512 513
f 409 513 514
f 409 514 410
f 410 514 414
f 410 414 411
f 411 414 413
f 414 416 415
f 414 514 515
f 414 515 416
f 416 515 418
f 417 422 516
f 418 515 419
f 419 517 518
f 419 518 420
f 419 515 517
f 420 518 519
f 420 519 421
f 422 426 516
f 423 429 424
f 424 429 520
f 424 520 425
f 425 520 426
f 426 520 431
f 426 431 430
f 426 430 516
f 427 521 522
f 427 522 429
f 427 429 523
f 427 519 524
f 427 524 525
f 427 525 526
f 427 526 521
f 428 523 429
f 429 522 527
f 429 527 528
f 429 528 529
f 429 529 530
f 429 530 431
f 429 431 531
f 429 531 520
f 431 520 531
f 431 530 532
f 431 532 432
f 432 532 533
f 432 533 534
f 432 534 433
f 433 534 535
f 433 535 434
f 434 535 536
f 434 536 435
f 435 536 537
f 435 537 450
f 436 438 442
f 437 449 438
f 438 538 539
f 438 539 540
f 438 540 541
f 438 541 443
f 438 443 442
f 438 449 538
f 439 447 440
f 440 447 542
f 440 542 441
f 441 542 543
f 441 543 452
f 443 541 444
f 444 541 445
f 445 541 544
f 445 544 545
f 445 545 546
f 445 546 547
f 445 547 446
f 446 548 543
f 446 543 447
f 446 547 548
f 447 543 542
f 448 451 449
f 449 549 541
f 449 541 539
f 449 539 538
f 449 451 550
f 449 550 549
f 450 537 551
f 451 551 537
f 451 537 550
f 452 543 453
f 453 543 454
f 454 543 552
f 454 552 455
f 455 552 553
f 455 553 457
f 457 553 554
f 457 554 555
f 457 555 458
f 458 555 556
f 458 556 557
f 458 557 460
f 459 460 558
f 459 558 559
f 459 559 461
f 460 557 560
f 460 560 558
f 461 465 462
f 461 559 561
f 461 561 562
f 461 562 563
f 461 563 465
f 462 465 463
f 464 465 467
f 465 564 565
f 465 565 467
f 465 563 564
f 466 565 468
f 466 467 565
f 468 565 564
f 468 564 566
f 468 566 567
f 468 567 469
f 469 567 471
f 471 567 568
f 471 568 569
f 471 569 472
f 472 474 473
f 472 569 570
f 472 570 571
f 472 571 474
f 474 571 572
f 474 572 475
f 475 477 476
f 475 572 573
f 475 573 574
f 475 574 477
f 477 574 478
f 478 574 575
f 478 575 576
f 478 576 577
f 478 577 479
f 479 577 578
f 479 578 480
f 480 578 579
f 480 579 481
f 481 579 580
f 481 580 483
f 482 483 484
f 483 580 581
f 483 581 582
f 483 582 583
f 483 583 484
f 484 583 584
f 484 584 585
f 484 585 485
f 485 585 486
f 486 585 584
f 486 584 586
f 486 586 587
f 486 587 588
f 486 588 488
f 487 489 589
f 487 589 490
f 488 588 590
f 488 590 489
f 489 590 591
f 489 591 592
f 489 592 589
f 490 589 593
f 490 593 594
f 490 594 494
f 492 499 595
f 492 595 596
f 492 596 597
f 492 597 598
f 492 598 599
f 492 599 493
f 493 600 601
f 493 601 501
f 493 599 598
f 493 598 602
f 493 602 603
f 493 603 600
f 494 594 495
f 495 594 593
f 495 593 604
f 495 604 496
f 496 604 605
f 496 605 606
f 496 606 607
f 496 607 608
f 496 608 497
f 497 608 609
f 497 609 596
f 497 596 498
f 498 596 499
f 499 596 595
f 501 610 502
f 501 601 611
f 501 611 612
f 501 612 613
f 501 613 614
f 501 614 610
f 502 610 503
f 503 610 614
f 503 614 615
f 503 615 504
f 504 616 508
f 504 508 617
f 504 617 505
f 504 615 613
f 504 613 616
f 505 617 506
f 506 617 507
f 507 617 508
f 508 618 619
f 508 619 620
f 508 620 509
f 508 616 621
f 508 621 618
f 509 620 510
f 510 620 622
f 510 622 511
f 511 622 623
f 511 623 512
f 512 623 624
f 512 624 625
f 512 625 626
f 512 626 513
f 513 626 627
f 513 627 628
f 513 628 629
f 513 629 630
f 513 630 631
f 513 631 514
f 514 631 515
f 515 631 517
f 517 631 632
f 517 632 633
f 517 633 634
f 517 634 518
f 518 634 519
f 519 635 636
f 519 636 524
f 519 634 637
f 519 637 635
f 521 526 638
f 521 638 522
f 522 638 639
f 522 639 527
f 524 636 640
f 524 640 525
f 525 640 641
f 525 641 526
f 526 641 642
f 526 642 643
f 526 643 638
f 527 532 529
f 527 529 528
f 527 639 644
f 527 644 645
f 527 645 646
f 527 646 647
f 527 647 532
f 529 532 530
f 532 647 533
f 533 648 649
f 533 649 534
f 533 647 648
f 534 650 651
f 534 651 652
f 534 652 653
f 534 653 654
f 534 654 655
f 534 655 535
f 534 649 650
f 535 655 536
f 536 655 537
f 537 655 656
f 537 656 550
f 539 541 540
f 541 657 658
f 541 658 544
f 541 549 550
f 541 550 657
f 543 548 552
f 544 659 545
f 544 658 659
f 545 660 661
f 545 661 554
f 545 554 662
f 545 662 548
f 545 548 547
f 545 547 546
f 545 659 663
f 545 663 660
f 548 662 553
f 548 553 552
f 550 656 664
f 550 664 665
f 550 665 666
f 550 666 667
f 550 667 657
f 553 662 554
f 554 556 555
f 554 661 556
f 556 668 669
f 556 669 560
f 556 560 557
f 556 661 660
f 556 660 668
f 558 560 670
f 558 670 561
f 558 561 559
f 560 669 670
f 561 670 671
f 561 671 672
f 561 672 562
f 562 672 563
f 563 672 673
f 563 673 674
f 563 674 675
f 563 675 676
f 563 676 566
f 563 566 564
f 566 676 677
f 566 677 678
f 566 678 567
f 567 678 679
f 567 679 568
f 568 679 569
f 569 679 680
f 569 680 681
f 569 681 682
f 569 682 683
f 569 683 572
f 569 572 570
f 570 572 571
f 572 683 573
f 573 684 685
f 573 685 574
f 573 683 686
f 573 686 687
f 573 687 688
f 573 688 689
f 573 689 684
f 574 685 575
f 575 577 576
f 575 685 577
f 577 690 578
f 577 685 684
f 577 684 691
f 577 691 690
f 578 690 579
f 579 690 692
f 579 692 580
f 580 692 693
f 580 693 581
f 581 693 694
f 581 694 695
f 581 695 809
f 581 809 696
f 581 696 582
f 582 696 697
f 582 697 698
f 582 698 583
f 583 698 586
f 583 586 584
f 586 699 587
f 586 698 697
f 586 697 700
f 586 700 701
f 586 701 702
f 586 702 699
f 587 699 703
f 587 703 590
f 587 590 588
f 589 592 593
f 590 703 704
f 590 704 591
f 591 704 593
f 591 593 592
f 593 704 705
f 593 705 605
f 593 605 604
f 596 609 608
f 596 608 597
f 597 608 602
f 597 602 598
f 600 603 706
f 600 706 707
f 600 707 611
f 600 611 601
f 602 608 708
f 602 708 603
f 603 708 706
f 605 709 606
f 605 705 709
f 606 709 710
f 606 710 711
f 606 711 607
f 607 711 712
f 607 712 713
f 607 713 608
f 608 713 714
f 608 714 715
f 608 715 716
f 608 716 717
f 608 717 718
f 608 718 708
f 611 707 719
f 611 719 720
f 611 720 721
f 611 721 612
f 612 721 613
f 613 721 722
f 613 722 621
f 613 621 616
f 613 615 614
f 618 621 722
f 618 722 619
f 619 623 620
f 619 722 723
f 619 723 724
f 619 724 725
f 619 725 726
f 619 726 727
f 619 727 728
f 619 728 729
f 619 729 628
f 619 628 730
f 619 730 623
f 620 623 622
f 623 730 625
f 623 625 624
f 625 730 626
f 626 730 628
f 626 628 627
f 628 729 731
f 628 731 630
f 628 630 629
f 630 632 631
f 630 731 632
f 632 731 633
f 633 731 637
f 633 637 634
f 635 637 732
f 635 732 733
f 635 733 636
f 636 733 734
f 636 734 735
f 636 735 640
f 637 731 729
f 637 729 736
f 637 736 732
f 638 643 639
f 639 643 737
f 639 737 644
f 640 735 738
f 640 738 739
f 640 739 740
f 640 740 642
f 640 642 641
f 642 740 741
f 642 741 742
f 642 742 743
f 642 743 744
f 642 744 745
f 642 745 643
f 643 745 746
f 643 746 747
f 643 747 737
f 644 649 646
f 644 646 645
f 644 737 748
f 644 748 749
f 644 749 750
f 644 750 751
f 644 751 649
f 646 649 648
f 646 648 647
f 649 751 752
f 649 752 650
f 650 752 753
f 650 753 754
f 650 754 651
f 651 754 652
f 652 755 756
f 652 756 653
f 652 754 753
f 652 753 755
f 653 756 757
f 653 757 758
f 653 758 759
f 653 759 654
f 654 759 760
f 654 760 761
f 654 761 762
f 654 762 655
f 655 762 656
f 656 762 763
f 656 763 664
f 657 667 658
f 658 667 666
f 658 666 764
f 658 764 663
f 658 663 659
f 660 663 765
f 660 765 766
f 660 766 767
f 660 767 668
f 663 764 666
f 663 666 768
f 663 768 769
f 663 769 765
f 664 763 770
f 664 770 771
f 664 771 665
f 665 771 772
f 665 772 666
f 666 772 773
f 666 773 774
f 666 774 768
f 668 775 670
f 668 670 669
f 668 767 776
f 668 776 777
f 668 777 778
f 668 778 775
f 670 779 671
f 670 775 780
f 670 780 781
f 670 781 782
f 670 782 779
f 671 779 783
f 671 783 673
f 671 673 672
f 673 783 674
f 674 783 784
f 674 784 675
f 675 680 677
f 675 677 676
f 675 784 785
f 675 785 680
f 677 680 678
f 678 680 679
f 680 785 681
f 681 786 787
f 681 787 682
f 681 785 786
f 682 787 683
f 683 787 686
f 684 788 691
f 684 689 789
f 684 789 790
f 684 790 791
f 684 791 788
f 686 787 687
f 687 787 792
f 687 792 793
f 687 793 794
f 687 794 795
f 687 795 796
f 687 796 688
f 688 797 798
f 688 798 689
f 688 796 799
f 688 799 797
f 689 798 800
f 689 800 801
f 689 801 802
f 689 802 789
f 690 691 803
f 690 803 693
f 690 693 692
f 691 788 803
f 693 803 694
f 694 803 804
f 694 804 805
f 694 805 806
f 694 806 807
f 694 807 695
f 695 807 808
f 695 808 809
f 696 809 810
f 696 810 697
f 697 810 700
f 699 702 811
f 699 811 812
f 699 812 703
f 700 702 701
f 700 810 809
f 700 809 808
f 700 808 813
f 700 813 814
f 700 814 702
f 702 814 815
f 702 815 816
f 702 816 817
f 702 817 818
f 702 818 811
f 703 705 704
f 703 812 819
f 703 819 705
f 705 819 709
f 706 719 707
f 706 708 718
f 706 718 820
f 706 820 719
f 709 819 821
f 709 821 822
f 709 822 823
f 709 823 710
f 710 823 824
f 710 824 825
f 710 825 711
f 711 825 712
f 712 825 826
f 712 826 713
f 713 826 827
f 713 827 714
f 714 827 828
f 714 828 715
f 715 829 716
f 715 828 829
f 716 829 717
f 717 829 718
f 718 829 830
f 718 830 831
f 718 831 820
f 719 820 832
f 719 832 720
f 720 832 833
f 720 833 834
f 720 834 721
f 721 834 835
f 721 835 722
f 722 836 724
f 722 724 723
f 722 835 834
f 722 834 836
f 724 836 837
f 724 837 725
f 725 838 726
f 725 837 838
f 726 838 839
f 726 839 727
f 727 839 840
f 727 840 728
f 728 840 841
f 728 841 729
f 729 841 842
f 729 842 843
f 729 843 844
f 729 844 845
f 729 845 846
f 729 846 847
f 729 847 736
f 732 736 734
f 732 734 733
f 734 736 847
f 734 847 848
f 734 848 849
f 734 849 850
f 734 850 851
f 734 851 852
f 734 852 853
f 734 853 735
f 735 853 738
f 737 747 854
f 737 854 855
f 737 855 856
f 737 856 857
f 737 857 858
f 737 858 859
f 737 859 860
f 737 860 748
f 738 853 861
f 738 861 862
f 738 862 739
f 739 862 740
f 740 862 741
f 741 862 863
f 741 863 742
f 742 863 864
f 742 864 865
f 742 865 866
f 742 866 743
f 743 866 744
f 744 866 745
f 745 866 867
f 745 867 868
f 745 868 747
f 745 747 746
f 747 868 854
f 748 860 749
f 749 860 750
f 750 860 869
f 750 869 870
f 750 870 757
f 750 757 755
f 750 755 753
f 750 753 752
f 750 752 751
f 755 757 756
f 757 871 759
f 757 759 758
f 757 870 872
f 757 872 873
f 757 873 871
f 759 871 874
f 759 874 875
f 759 875 876
f 759 876 760
f 760 876 877
f 760 877 763
f 760 763 761
f 761 763 762
f 763 877 878
f 763 878 879
f 763 879 880
f 763 880 770
f 765 769 881
f 765 881 766
f 766 881 882
f 766 882 883
f 766 883 776
f 766 776 767
f 768 884 885
f 768 885 881
f 768 881 769
f 768 774 772
f 768 772 886
f 768 886 887
f 768 887 888
f 768 888 884
f 770 880 879
f 770 879 886
f 770 886 771
f 771 886 772
f 772 774 773
f 775 778 780
f 776 883 777
f 777 883 778
f 778 883 780
f 779 782 889
f 779 889 783
f 780 883 890
f 780 890 781
f 781 891 782
f 781 890 891
f 782 891 892
f 782 892 889
f 783 889 784
f 784 889 893
f 784 893 894
f 784 894 785
f 785 894 895
f 785 895 896
f 785 896 897
f 785 897 898
f 785 898 786
f 786 792 787
f 786 898 792
f 788 791 805
f 788 805 804
f 788 804 803
f 789 802 899
f 789 899 790
f 790 899 805
f 790 805 791
f 792 898 900
f 792 900 793
f 793 900 901
f 793 901 794
f 794 901 902
f 794 902 795
f 795 902 903
f 795 903 904
f 795 904 905
f 795 905 906
f 795 906 799
f 795 799 796
f 797 907 800
f 797 800 798
f 797 799 907
f 799 906 908
f 799 908 909
f 799 909 907
f 800 907 909
f 800 909 910
f 800 910 801
f 801 910 911
f 801 911 802
f 802 911 899
f 805 912 806
f 805 899 913
f 805 913 912
f 806 912 807
f 807 912 914
f 807 914 915
f 807 915 808
f 808 915 813
f 811 818 812
f 812 821 916
f 812 916 819
f 812 818 917
f 812 917 821
f 813 915 814
f 814 915 815
f 815 918 919
f 815 919 920
f 815 920 921
f 815 921 922
f 815 922 816
f 815 915 923
f 815 923 924
f 815 924 925
f 815 925 918
f 816 922 921
f 816 921 817
f 817 921 917
f 817 917 818
f 819 916 821
f 820 831 832
f 821 917 822
f 822 917 926
f 822 926 824
f 822 824 823
f 824 926 927
f 824 927 928
f 824 928 929
f 824 929 930
f 824 930 825
f 825 930 931
f 825 931 826
f 826 931 853
f 826 853 932
f 826 932 828
f 826 828 827
f 828 933 829
f 828 932 934
f 828 934 935
f 828 935 936
f 828 936 933
f 829 933 937
f 829 937 938
f 829 938 830
f 830 938 939
f 830 939 831
f 831 939 832
f 832 939 833
f 833 940 834
f 833 939 940
f 834 940 836
f 836 940 935
f 836 935 941
f 836 941 837
f 837 941 932
f 837 932 838
f 838 932 852
f 838 852 839
f 839 851 942
f 839 942 943
f 839 943 840
f 839 852 851
f 840 943 841
f 841 943 842
f 842 943 944
f 842 944 945
f 842 945 843
f 843 946 844
f 843 945 946
f 844 946 944
f 844 944 947
f 844 947 850
f 844 850 849
f 844 849 848
f 844 848 847
f 844 847 846
f 844 846 845
f 850 947 942
f 850 942 948
f 850 948 851
f 851 948 942
f 852 932 853
f 853 949 861
f 853 931 949
f 854 868 950
f 854 950 951
f 854 951 952
f 854 952 855
f 855 952 953
f 855 953 856
f 856 953 954
f 856 954 857
f 857 954 858
f 858 954 859
f 859 954 955
f 859 955 956
f 859 956 957
f 859 957 872
f 859 872 860
f 860 872 958
f 860 958 869
f 861 949 862
f 862 949 959
f 862 959 863
f 863 959 960
f 863 960 864
f 864 960 865
f 865 960 961
f 865 961 920
f 865 920 919
f 865 919 962
f 865 962 963
f 865 963 964
f 865 964 965
f 865 965 867
f 865 867 866
f 867 965 868
f 868 965 950
f 869 958 872
f 869 872 966
f 869 966 870
f 870 966 872
f 871 873 967
f 871 967 968
f 871 968 874
f 872 957 969
f 872 969 970
f 872 970 873
f 873 970 971
f 873 971 972
f 873 972 968
f 873 968 973
f 873 973 967
f 874 968 875
f 875 974 876
f 875 968 975
f 875 975 974
f 876 974 976
f 876 976 877
f 877 976 886
f 877 886 879
f 877 879 878
f 881 885 882
f 882 885 883
f 883 885 977
f 883 977 890
f 884 888 975
f 884 975 978
f 884 978 979
f 884 979 977
f 884 977 885
f 886 976 887
f 887 976 888
f 888 976 975
f 889 892 893
f 890 977 979
f 890 979 980
f 890 980 891
f 891 981 892
f 891 980 981
f 892 981 895
f 892 895 893
f 893 895 894
f 895 981 896
f 896 981 982
f 896 982 983
f 896 983 897
f 897 984 985
f 897 985 903
f 897 903 898
f 897 983 986
f 897 986 987
f 897 987 984
f 898 903 902
f 898 902 900
f 899 911 988
f 899 988 913
f 900 902 901
f 903 985 989
f 903 989 990
f 903 990 991
f 903 991 904
f 904 991 905
f 905 992 993
f 905 993 906
f 905 991 994
f 905 994 995
f 905 995 971
f 905 971 996
f 905 996 997
f 905 997 998
f 905 998 999
f 905 999 992
f 906 993 908
f 908 993 909
f 909 1000 910
f 909 993 992
f 909 992 999
f 909 999 1001
f 909 1001 1000
f 910 1000 911
f 911 1002 1003
f 911 1003 1004
f 911 1004 1005
f 911 1005 1006
f 911 1006 913
f 911 913 1007
f 911 1007 988
f 911 1000 1008
f 911 1008 1009
f 911 1009 1010
f 911 1010 1002
f 912 1011 1012
f 912 1012 914
f 912 913 1011
f 913 988 1007
f 913 1006 1011
f 914 1012 923
f 914 923 915
f 917 921 961
f 917 961 959
f 917 959 927
f 917 927 926
f 918 925 919
f 919 925 962
f 920 961 921
f 923 1012 1013
f 923 1013 1014
f 923 1014 1015
f 923 1015 1016
f 923 1016 924
f 924 1016 1017
f 924 1017 1018
f 924 1018 1019
f 924 1019 925
f 925 1019 1020
f 925 1020 962
f 927 959 949
f 927 949 928
f 928 949 931
f 928 931 929
f 929 931 930
f 932 941 934
f 933 936 940
f 933 940 937
f 934 941 935
f 935 940 936
f 937 940 938
f 938 940 939
f 942 947 944
f 942 944 943
f 944 946 945
f 950 1021 1022
f 950 1022 951
f 950 965 964
f 950 964 1023
f 950 1023 1021
f 951 1022 1024
f 951 1024 952
f 952 1025 953
f 952 1024 1026
f 952 1026 1025
f 953 1025 954
f 954 1025 1026
f 954 1026 1027
f 954 1027 1009
f 954 1009 1028
f 954 1028 1029
f 954 1029 1030
f 954 1030 956
f 954 956 955
f 956 969 957
f 956 1030 1029
f 956 1029 999
f 956 999 998
f 956 998 969
f 959 961 960
f 962 1031 1032
f 962 1032 963
f 962 1020 1031
f 963 1032 964
f 964 1032 1033
f 964 1033 1034
f 964 1034 1021
f 964 1021 1023
f 967 973 968
f 968 978 975
f 968 972 971
f 968 971 1035
f 968 1035 987
f 968 987 1036
f 968 1036 978
f 969 998 1037
f 969 1037 1038
f 969 1038 970
f 970 1038 1039
f 970 1039 1040
f 970 1040 971
f 971 1040 996
f 971 995 994
f 971 994 991
f 971 991 1041
f 971 1041 1042
f 971 1042 1035
f 974 1043 976
f 974 975 1043
f 975 976 1043
f 978 1036 1044
f 978 1044 979
f 979 1044 980
f 980 1044 1036
f 980 1036 981
f 981 1036 982
f 982 1036 1045
f 982 1045 983
f 983 1045 986
f 984 987 1046
f 984 1046 985
f 985 1046 989
f 986 1045 987
f 987 1035 1047
f 987 1047 1046
f 987 1045 1036
f 989 1046 1048
f 989 1048 990
f 990 1048 1049
f 990 1049 991
f 991 1049 1041
f 996 1040 997
f 997 1040 1039
f 997 1039 1038
f 997 1038 998
f 998 1038 1037
f 999 1029 1028
f 999 1028 1050
f 999 1050 1008
f 999 1008 1000
f 999 1000 1001
f 1002 1010 1051
f 1002 1051 1052
f 1002 1052 1053
f 1002 1053 1003
f 1003 1018 1017
f 1003 1017 1016
f 1003 1016 1015
f 1003 1015 1004
f 1003 1053 1054
f 1003 1054 1024
f 1003 1024 1022
f 1003 1022 1055
f 1003 1055 1056
f 1003 1056 1018
f 1004 1015 1005
f 1005 1015 1014
f 1005 1014 1013
f 1005 1013 1057
f 1005 1057 1006
f 1006 1057 1011
f 1008 1050 1009
f 1009 1027 1052
f 1009 1052 1051
f 1009 1051 1010
f 1009 1050 1028
f 1011 1057 1012
f 1012 1057 1013
f 1018 1058 1019
f 1018 1056 1031
f 1018 1031 1058
f 1019 1058 1031
f 1019 1031 1020
f 1021 1034 1055
f 1021 1055 1022
f 1024 1054 1027
f 1024 1027 1026
f 1027 1054 1053
f 1027 1053 1052
f 1031 1056 1032
f 1032 1056 1055
f 1032 1055 1033
f 1033 1055 1034
f 1035 1042 1047
f 1041 1049 1048
f 1041 1048 1042
f 1042 1048 1046
f 1042 1046 1047

