# https://github.com/mikedh/trimesh
v 0.02433634 0.01077626 -0.00503443
v 0.02515262 0.01073299 -0.00503443
v 0.02515262 0.01033675 -0.00537116
v 0.02433634 0.01033675 -0.00540516
v 0.02351034 0.01033675 -0.00539545
v 0.02356865 0.01076260 -0.00503443
v 0.01188811 0.00615791 -0.00002713
v 0.03639587 -0.00066713 0.00794277
v 0.02596889 0.01068517 -0.00503443
v 0.02515262 0.00987673 -0.00574837
v 0.02433634 0.00990634 -0.00576780
v 0.02596889 0.01033675 -0.00532098
v 0.02351034 0.00989950 -0.00576294
v 0.00829260 0.00832590 -0.00663715
v 0.02351034 0.01076032 -0.00503443
v 0.00847723 0.00986079 -0.00503443
v 0.00815655 0.00984030 -0.00503443
v 0.00795734 0.00982208 -0.00503443
v 0.00879791 0.00615791 -0.00102600
v 0.00775327 -0.00840764 0.00518091
v 0.03639587 -0.00094496 0.00806419
v 0.04154133 -0.00059198 0.00738263
v 0.03416082 0.00603494 -0.00002713
v 0.02648879 0.01062824 -0.00503443
v 0.02515262 0.00946910 -0.00605111
v 0.02596889 0.00983346 -0.00571923
v 0.02433634 0.00949642 -0.00605920
v 0.00878334 0.00833045 -0.00664363
v 0.00760751 0.00909107 -0.00577751
v 0.00815170 0.00913434 -0.00581636
v 0.00856469 0.00915483 -0.00583417
v 0.00878334 0.00916394 -0.00584389
v 0.00878334 0.00787727 -0.00686542
v 0.00085379 0.00585504 -0.00745147
v 0.00856469 0.00979247 -0.00512347
v 0.00791361 0.00943494 -0.00545049
v -0.00252794 0.00507620 -0.00748384
v -0.00264940 0.00516274 -0.00701274
v -0.00258138 0.00519690 -0.00619519
v -0.00243562 0.00512402 -0.00570790
v 0.00721881 0.00945316 -0.00503443
v -0.00327619 0.00434747 -0.00570628
v -0.00413620 0.00355497 -0.00570628
v -0.00491360 0.00276930 -0.00570628
v 0.00747632 -0.00891093 0.00518091
v 0.03639587 -0.00195152 0.00794116
v 0.03662909 -0.00195152 0.00791525
v 0.04154133 -0.00090852 0.00738263
v 0.00727711 -0.00932539 0.00518091
v 0.00723824 -0.00941193 0.00518091
v 0.00717994 -0.01020443 0.00518091
v 0.00722852 -0.01037295 0.00518091
v 0.00737915 -0.01079425 0.00518091
v 0.00775813 -0.01115634 0.00518091
v 0.04195433 -0.00072406 0.00732111
v 0.04154133 -0.00026177 0.00690991
v 0.03438919 0.00598939 -0.00002713
v 0.02681432 0.01050754 -0.00503443
v 0.02671229 0.01036407 -0.00518984
v 0.02678517 0.00974693 -0.00565609
v 0.03466614 0.00592563 -0.00002713
v 0.02515262 0.00887472 -0.00646231
v 0.02596889 0.00886561 -0.00642669
v 0.02596889 0.00845570 -0.00671972
v 0.02663941 0.00838511 -0.00667601
v 0.02596889 0.00787727 -0.00704350
v 0.02596889 0.00714398 -0.00733814
v 0.00960447 0.00652228 -0.00737700
v 0.00058169 0.00546334 -0.00753079
v -0.00187200 0.00513541 -0.00752594
v 0.00960447 0.00611009 -0.00751946
v -0.00275630 0.00466857 -0.00755184
v -0.00325190 0.00444311 -0.00750003
v -0.00305754 0.00498055 -0.00701274
v -0.00187200 0.00460025 -0.00764088
v -0.00298952 0.00490768 -0.00619519
v -0.00382523 0.00409924 -0.00601711
v -0.00468524 0.00331358 -0.00619519
v -0.00501078 0.00290822 -0.00619519
v -0.00541406 0.00214305 -0.00615148
v -0.00551123 0.00132322 -0.00583579
v 0.03639587 -0.00218836 0.00788935
v 0.00795734 -0.01120871 0.00518091
v 0.00845294 -0.01132713 0.00518091
v 0.04054042 -0.00166003 0.00736806
v 0.04108946 -0.00151428 0.00730978
v 0.04195433 -0.00072634 0.00732111
v -0.00555011 0.00090192 -0.00578722
v -0.00557926 0.00035765 -0.00576294
v -0.00559869 -0.00031415 -0.00573866
v -0.00558412 -0.00112942 -0.00575323
v -0.00555496 -0.00154161 -0.00578237
v -0.00473383 -0.00317670 -0.00578722
v 0.00735971 -0.01081930 0.00513072
v 0.00757350 -0.01136585 0.00485551
v 0.00811282 -0.01141822 0.00497531
v 0.04209038 -0.00104971 0.00689048
v 0.04207094 -0.00056693 0.00690991
v 0.02723218 0.01029348 -0.00503443
v 0.02738280 0.01011357 -0.00512023
v 0.02737794 0.00921632 -0.00586331
v 0.02678517 0.00933929 -0.00595235
v 0.03460297 0.00585959 -0.00130931
v 0.04219241 -0.00041207 0.00609074
v 0.04219727 -0.00041207 0.00518091
v 0.04219727 -0.00041207 -0.00619357
v 0.02718359 0.00827807 -0.00659992
v 0.02686291 0.00795242 -0.00687999
v 0.02682890 0.00704150 -0.00732195
v 0.02658110 0.00675457 -0.00744499
v -0.00105086 0.00460025 -0.00765221
v 0.01042075 0.00542007 -0.00765221
v 0.02596889 0.00542007 -0.00771697
v -0.00268828 0.00378042 -0.00765221
v -0.00350455 0.00296060 -0.00765059
v -0.00351913 0.00379181 -0.00755831
v -0.00402930 0.00352537 -0.00749518
v -0.00380580 0.00406964 -0.00717949
v -0.00351913 0.00450005 -0.00694798
v -0.00392727 0.00419944 -0.00663230
v -0.00392727 0.00419944 -0.00656268
v 0.03416082 0.00050340 -0.00845843
v -0.00353371 0.00444311 -0.00625185
v -0.00420908 0.00380775 -0.00625185
v -0.00492332 0.00279663 -0.00701274
v -0.00561813 0.00187205 -0.00685571
v -0.00561813 0.00187205 -0.00639755
v -0.00567158 0.00132322 -0.00624538
v 0.03639587 -0.00277135 0.00771451
v 0.00751519 -0.01221072 0.00328031
v 0.00774356 -0.01221072 0.00328031
v 0.00877848 -0.01132485 0.00518091
v 0.04077850 -0.00194014 0.00720455
v 0.03639587 -0.00304462 0.00762385
v 0.03639587 -0.00348186 0.00745224
v 0.04072505 -0.00277135 0.00685487
v 0.04116235 -0.00320631 0.00651813
v 0.04197862 -0.00403297 0.00570544
v 0.04284349 -0.00495982 0.00422413
v -0.00569101 0.00059221 -0.00611586
v -0.00569101 0.00057855 -0.00611424
v -0.00572502 -0.00031415 -0.00619519
v -0.00561813 -0.00118180 -0.00613367
v -0.00555496 -0.00154161 -0.00582122
v -0.00480185 -0.00330651 -0.00701436
v -0.00479213 -0.00328374 -0.00633280
v -0.00455405 -0.00356840 -0.00611424
v -0.00401473 -0.00408534 -0.00571599
v 0.00738401 -0.01154347 0.00430993
v 0.04352858 -0.00522627 0.00221668
v 0.04366462 -0.00522627 0.00180710
v 0.04231388 -0.00113170 0.00609074
v 0.03457382 0.00583454 -0.00175451
v 0.04212439 -0.00045990 -0.00701274
v 0.04201749 -0.00058059 -0.00747575
v 0.04154133 -0.00045306 -0.00756965
v 0.04363547 -0.00476398 0.00174720
v 0.04365491 -0.00473893 0.00117572
v 0.04382496 -0.00522627 0.00035655
v 0.04362575 -0.00476625 -0.00209610
v 0.04361118 -0.00478675 -0.00272586
v 0.03465642 0.00103629 -0.00830463
v 0.03416082 0.00117292 -0.00833701
v 0.02678517 0.00542007 -0.00771211
v 0.02678517 0.00460025 -0.00785457
v 0.03416082 -0.00031870 -0.00847462
v -0.00432569 0.00132322 -0.00765383
v -0.00432569 0.00214077 -0.00762955
v -0.00431111 0.00292416 -0.00753889
v -0.00478727 0.00262583 -0.00746766
v -0.00460264 0.00320654 -0.00701274
v -0.00414105 0.00379181 -0.00694798
v 0.03494795 0.00045785 -0.00835806
v 0.03497710 -0.00031870 -0.00843738
v -0.00536061 0.00214305 -0.00708235
v -0.00540920 0.00209523 -0.00704188
v -0.00554039 0.00171492 -0.00740290
v -0.00570559 0.00139610 -0.00708235
v -0.00581248 0.00050340 -0.00701274
v 0.00726739 -0.01180081 0.00358628
v -0.00410218 -0.00414683 -0.00619519
v 0.00696615 -0.01203537 0.00199651
v 0.00688841 -0.01210597 0.00117734
v 0.00745689 -0.01223577 0.00281406
v 0.00795734 -0.01248855 -0.00045938
v 0.00796220 -0.01243617 0.00035655
v 0.00796220 -0.01231548 0.00199651
v 0.00877848 -0.01196250 0.00363323
v 0.00877848 -0.01163457 0.00445402
v 0.00877848 -0.01141595 0.00497045
v 0.00799621 -0.01224033 0.00285291
v 0.00925464 -0.01219934 0.00244495
v 0.00828774 -0.01218339 0.00315241
v 0.02986565 -0.00976036 0.00247571
v 0.02924858 -0.00980135 0.00258094
v 0.03137673 -0.00892914 0.00406386
v 0.03088600 -0.00864676 0.00451877
v 0.03006486 -0.00840764 0.00497855
v 0.00959476 -0.01120644 0.00518091
v 0.03639587 -0.00499398 0.00663793
v 0.03639587 -0.00440644 0.00700542
v 0.03639587 -0.00389405 0.00727578
v 0.03639587 -0.00369820 0.00735997
v 0.03990878 -0.00277135 0.00702647
v 0.03990878 -0.00349553 0.00667840
v 0.04072505 -0.00331106 0.00658127
v 0.04072505 -0.00372098 0.00631739
v 0.04154133 -0.00455902 0.00551441
v 0.04154133 -0.00414911 0.00578153
v 0.04215840 -0.00496210 0.00498016
v 0.04285806 -0.00572955 0.00336935
v 0.04364519 -0.00574321 0.00171806
v 0.04238676 -0.00523310 0.00445726
v 0.04261998 -0.00550410 0.00391492
v -0.00561813 -0.00094951 -0.00679904
v -0.00554525 -0.00149606 -0.00636679
v -0.00450061 -0.00371415 -0.00701436
v -0.00500106 -0.00276907 -0.00701436
v -0.00476784 -0.00324047 -0.00745470
v 0.04378609 -0.00522627 0.00117572
v 0.04201749 -0.00096545 -0.00747575
v 0.04161421 -0.00119546 -0.00758584
v 0.04072505 -0.00113170 -0.00773154
v 0.04380553 -0.00522627 -0.00002389
v 0.04372293 -0.00587074 0.00117572
v 0.04372779 -0.00608708 0.00028694
v 0.04371807 -0.00609847 -0.00002389
v 0.04370350 -0.00611669 -0.00042862
v 0.04368406 -0.00590718 -0.00127693
v 0.04378123 -0.00522627 -0.00045614
v 0.04373265 -0.00522627 -0.00127693
v 0.04361118 -0.00499398 -0.00272586
v 0.03416082 -0.00112942 -0.00840501
v 0.03333969 -0.00112942 -0.00841634
v 0.03252827 -0.00112942 -0.00840824
v -0.00187200 -0.00440872 -0.00765221
v -0.00350455 -0.00276907 -0.00765221
v -0.00432569 -0.00194924 -0.00765059
v -0.00432569 -0.00112942 -0.00765221
v 0.03497710 -0.00112942 -0.00838072
v -0.00514682 0.00050340 -0.00762469
v -0.00521971 0.00139610 -0.00755993
v -0.00496705 0.00214077 -0.00751460
v -0.00564728 0.00117065 -0.00749841
v 0.03631813 -0.00066257 -0.00827873
v 0.03631813 -0.00097456 -0.00827873
v 0.03615779 -0.00105427 -0.00829168
v 0.03586140 -0.00119546 -0.00831273
v -0.00565700 0.00059221 -0.00750813
v -0.00565700 0.00050340 -0.00750975
v -0.00559383 -0.00007276 -0.00746280
v -0.00568129 -0.00033237 -0.00704674
v -0.00409247 -0.00412406 -0.00701436
v -0.00313042 -0.00483913 -0.00674724
v 0.00678152 -0.01215379 -0.00045938
v 0.00681067 -0.01215151 0.00035655
v 0.00722367 -0.01232686 0.00035655
v 0.00960447 -0.01235191 -0.00045938
v 0.01156743 -0.01218567 0.00035655
v 0.01115443 -0.01221983 0.00035655
v 0.01042075 -0.01227904 0.00035655
v 0.00960447 -0.01233597 0.00035655
v 0.00839949 -0.01243390 -0.00002228
v 0.00718965 -0.01235647 -0.00045938
v 0.00726254 -0.01234508 -0.00127855
v 0.00795734 -0.01245895 -0.00127855
v 0.00960447 -0.01227676 0.00117734
v 0.01072200 -0.01218567 0.00149465
v 0.00877848 -0.01226538 0.00199651
v 0.00960447 -0.01186002 0.00363323
v 0.02797558 -0.00972847 0.00320907
v 0.01206302 -0.01209458 0.00117734
v 0.01287930 -0.01200577 0.00117734
v 0.01123703 -0.01205359 0.00199651
v 0.02269407 -0.01089445 0.00117572
v 0.02106637 -0.01092633 0.00199489
v 0.02376786 -0.01053463 0.00232029
v 0.03040983 -0.00972620 0.00236562
v 0.03088600 -0.00949619 0.00281406
v 0.03010859 -0.00961461 0.00277359
v 0.03088600 -0.00917054 0.00363323
v 0.03166826 -0.00904301 0.00365913
v 0.03307245 -0.00894053 0.00328354
v 0.03191606 -0.00887221 0.00394892
v 0.03469529 -0.00840764 0.00368018
v 0.03438433 -0.00840764 0.00379836
v 0.03317935 -0.00840764 0.00424356
v 0.03247968 -0.00840764 0.00445887
v 0.03236793 -0.00840764 0.00449287
v 0.03194035 -0.00840764 0.00460620
v 0.03129899 -0.00840764 0.00474056
v 0.03088600 -0.00840764 0.00482313
v 0.02987537 -0.00840764 0.00501092
v 0.02914655 -0.00840764 0.00512748
v 0.02872383 -0.00840764 0.00518253
v 0.03990878 -0.00580014 0.00502226
v 0.04054528 -0.00571816 0.00492836
v 0.03990878 -0.00532647 0.00543346
v 0.03990878 -0.00491656 0.00575886
v 0.03916538 -0.00439506 0.00633034
v 0.03826650 -0.00426070 0.00665088
v 0.03895159 -0.00411495 0.00657155
v 0.03949578 -0.00399653 0.00650032
v 0.04066189 -0.00442694 0.00587057
v 0.04089997 -0.00471160 0.00560992
v 0.04154133 -0.00511923 0.00510320
v 0.04207094 -0.00569767 0.00413995
v 0.04108946 -0.00562024 0.00484418
v 0.04154133 -0.00552687 0.00471952
v 0.04235275 -0.00587074 0.00363809
v 0.04275603 -0.00644917 0.00238505
v 0.04299897 -0.00590490 0.00281082
v 0.04323219 -0.00608708 0.00204184
v 0.04343626 -0.00628293 0.00117572
v -0.00400015 -0.00405346 -0.00747089
v -0.00432569 -0.00276907 -0.00761659
v -0.00429654 -0.00354563 -0.00751622
v -0.00482129 -0.00276907 -0.00750165
v 0.04193489 -0.00151200 -0.00740614
v 0.04352858 -0.00525132 -0.00296384
v 0.04309615 -0.00529459 -0.00380891
v 0.04138585 -0.00172835 -0.00749841
v 0.04072505 -0.00188548 -0.00756479
v 0.03615779 -0.00194697 -0.00814922
v 0.03615779 -0.00155300 -0.00823502
v 0.03615779 -0.00149379 -0.00824473
v 0.04364033 -0.00608708 0.00090212
v 0.04359660 -0.00646056 -0.00002875
v 0.04359660 -0.00646056 -0.00013560
v 0.04357717 -0.00643323 -0.00068279
v 0.04364033 -0.00574549 -0.00190993
v 0.04365005 -0.00525132 -0.00215115
v 0.04357717 -0.00554053 -0.00245550
v 0.03385958 -0.00237965 -0.00824635
v 0.03333969 -0.00194469 -0.00831920
v 0.03252827 -0.00194469 -0.00832568
v 0.00960447 -0.00849874 -0.00733167
v -0.00187200 -0.00510102 -0.00753727
v -0.00273686 -0.00445882 -0.00755993
v -0.00350455 -0.00358889 -0.00762955
v 0.03497710 -0.00180578 -0.00828197
v 0.03441348 -0.00231361 -0.00823664
v 0.03562332 -0.00166003 -0.00826254
v -0.00520999 0.00059221 -0.00760850
v -0.00304783 -0.00476398 -0.00729443
v -0.00273686 -0.00501903 -0.00701760
v 0.00749576 -0.01222666 -0.00265787
v 0.00738886 -0.01228132 -0.00209772
v 0.00685440 -0.01208319 -0.00127855
v 0.01042075 -0.01227676 -0.00045938
v 0.01206302 -0.01214240 0.00035655
v 0.01104754 -0.01220389 0.00094907
v 0.00765610 -0.01236558 -0.00171242
v 0.00960447 -0.01230409 -0.00127855
v 0.00795734 -0.01234053 -0.00209772
v 0.00882707 -0.01226082 -0.00215924
v 0.01015838 -0.01220617 -0.00177718
v 0.01070256 -0.01218112 -0.00150682
v 0.01129048 -0.01216290 0.00120324
v 0.01287930 -0.01205587 0.00035655
v 0.02269407 -0.01096732 0.00035655
v 0.02577454 -0.01057790 0.00090860
v 0.02351520 -0.01079880 0.00117572
v 0.02480764 -0.01056196 0.00162092
v 0.02679489 -0.01024770 0.00199489
v 0.02761117 -0.01014977 0.00199489
v 0.03088600 -0.00978313 0.00181519
v 0.03088600 -0.00969431 0.00222639
v 0.03170713 -0.00936866 0.00281406
v 0.02924858 -0.00994937 0.00199489
v 0.03252341 -0.00922519 0.00281406
v 0.03416568 -0.00900429 0.00262141
v 0.03474388 -0.00894964 0.00248866
v 0.03416568 -0.00883122 0.00303099
v 0.03489450 -0.00840764 0.00359276
v 0.04045296 -0.00651977 0.00412862
v 0.04072019 -0.00522627 0.00526995
v 0.04035093 -0.00483230 0.00569249
v 0.04158020 -0.00626927 0.00364618
v 0.04154133 -0.00583886 0.00430832
v 0.04100200 -0.00638996 0.00392787
v 0.04239162 -0.00608708 0.00326250
v 0.04290665 -0.00654026 0.00183624
v 0.04132754 -0.00654026 0.00338230
v 0.04072505 -0.00665868 0.00364618
v 0.04158020 -0.00669740 0.00285615
v 0.04098743 -0.00721662 0.00228144
v 0.04129353 -0.00734643 0.00173586
v 0.04243535 -0.00670423 0.00206288
v 0.04351886 -0.00638996 0.00051682
v -0.00350455 -0.00420604 -0.00751460
v -0.00250364 -0.00494616 -0.00750003
v 0.04198834 -0.00406940 -0.00583579
v 0.04158020 -0.00359800 -0.00637975
v 0.04132754 -0.00332928 -0.00668734
v 0.04286292 -0.00506458 -0.00426868
v 0.04275117 -0.00561113 -0.00413269
v 0.04295524 -0.00583886 -0.00358712
v 0.04072505 -0.00277135 -0.00715035
v 0.04072505 -0.00229539 -0.00739318
v 0.03629869 -0.00403524 -0.00743851
v 0.03497710 -0.00358662 -0.00784162
v 0.03497710 -0.00276679 -0.00809741
v 0.03586140 -0.00193786 -0.00818807
v 0.03497710 -0.00221341 -0.00821559
v 0.04302812 -0.00660631 0.00117572
v 0.04359174 -0.00646284 -0.00002389
v 0.04236247 -0.00704127 0.00035655
v 0.04325163 -0.00662225 -0.00042862
v 0.04305727 -0.00660175 -0.00127693
v 0.04277546 -0.00645828 -0.00251216
v 0.04346541 -0.00631709 -0.00127693
v 0.03414625 -0.00269847 -0.00817836
v 0.03333969 -0.00280551 -0.00817026
v 0.03333969 -0.00239559 -0.00824959
v 0.00960447 -0.00932312 -0.00708235
v 0.03333969 -0.00358662 -0.00796304
v 0.03416082 -0.00358662 -0.00793552
v 0.00877848 -0.00932312 -0.00700303
v 0.00877848 -0.00996303 -0.00672781
v -0.00078849 -0.00564301 -0.00743204
v -0.00133753 -0.00561341 -0.00735109
v 0.00759779 -0.01135674 -0.00493729
v 0.00738401 -0.01149793 -0.00439172
v 0.00795734 -0.01195339 -0.00373606
v 0.00795734 -0.01214468 -0.00311764
v 0.00795734 -0.01223122 -0.00270805
v 0.01118844 -0.01214696 -0.00125265
v 0.01103296 -0.01221300 -0.00045938
v 0.01205817 -0.01210597 -0.00045938
v 0.00858413 -0.01221072 -0.00262549
v 0.00960447 -0.01216745 -0.00234218
v 0.01042561 -0.01213557 -0.00206858
v 0.01123703 -0.01205587 -0.00209772
v 0.01206302 -0.01197161 -0.00209772
v 0.01814138 -0.01136357 -0.00159586
v 0.02106637 -0.01107663 -0.00127855
v 0.01615413 -0.01160952 -0.00127855
v 0.01205817 -0.01205359 -0.00127855
v 0.02106637 -0.01114267 -0.00045938
v 0.02187779 -0.01105386 -0.00045938
v 0.02515262 -0.01068038 0.00035655
v 0.02679489 -0.01040711 0.00117572
v 0.02602234 -0.01050048 0.00117896
v 0.02510889 -0.01060979 0.00117896
v 0.02761117 -0.01038889 0.00035655
v 0.03088600 -0.00998808 0.00035655
v 0.03088600 -0.00990382 0.00117572
v 0.02842744 -0.01020670 0.00117572
v 0.03138645 -0.00975125 0.00165977
v 0.03168284 -0.00963283 0.00195927
v 0.03529292 -0.00889043 0.00228629
v 0.03500139 -0.00876746 0.00278168
v 0.03252341 -0.00947569 0.00199489
v 0.03334455 -0.00932995 0.00199489
v 0.03416568 -0.00917737 0.00199489
v 0.03503540 -0.00840764 0.00352638
v 0.04043839 -0.00732138 0.00250323
v 0.04184743 -0.00722801 0.00117572
v 0.04236247 -0.00697067 0.00117572
v 0.04071534 -0.00744663 0.00200298
v 0.04072505 -0.00769485 0.00117572
v 0.04143930 -0.00741930 0.00117572
v 0.04210009 -0.00495755 -0.00511699
v 0.04154133 -0.00466605 -0.00569171
v 0.04154133 -0.00425614 -0.00597664
v 0.04113319 -0.00481635 -0.00578399
v 0.04080279 -0.00449070 -0.00612396
v 0.04072505 -0.00389177 -0.00654487
v 0.04072505 -0.00347958 -0.00676990
v 0.04237704 -0.00610302 -0.00372797
v 0.04220213 -0.00575004 -0.00427516
v 0.04154133 -0.00511240 -0.00528212
v 0.04302812 -0.00610302 -0.00282461
v 0.04260541 -0.00638541 -0.00305612
v 0.03579824 -0.00454763 -0.00730576
v 0.03497710 -0.00470932 -0.00737700
v 0.03615779 -0.00406485 -0.00744985
v 0.03497710 -0.00429941 -0.00755022
v 0.03450094 -0.00480041 -0.00741423
v 0.04190574 -0.00725533 0.00035655
v 0.04236247 -0.00703444 -0.00045614
v 0.04236247 -0.00693196 -0.00127693
v 0.04163851 -0.00712325 -0.00209610
v 0.04236247 -0.00676572 -0.00209610
v 0.04113805 -0.00727811 -0.00251054
v 0.00960447 -0.00994709 -0.00674562
v 0.03333969 -0.00440417 -0.00766031
v 0.03395675 -0.00485051 -0.00744013
v 0.03420455 -0.00447476 -0.00757612
v 0.00877848 -0.01037067 -0.00648498
v 0.00813712 -0.01072820 -0.00599444
v 0.00800593 -0.01140684 -0.00503605
v 0.00790876 -0.01157536 -0.00462161
v 0.00812740 -0.01143416 -0.00503605
v 0.00819057 -0.01143872 -0.00503605
v 0.00877848 -0.01164140 -0.00455523
v 0.00877848 -0.01194428 -0.00373606
v 0.00882707 -0.01214468 -0.00290556
v 0.00960447 -0.01206725 -0.00291689
v 0.01759233 -0.01140001 -0.00178203
v 0.01042075 -0.01197844 -0.00291689
v 0.01123703 -0.01188735 -0.00291689
v 0.02382617 -0.01054147 -0.00245226
v 0.02187779 -0.01098782 -0.00127855
v 0.02569194 -0.01056879 -0.00099686
v 0.02761117 -0.01037522 -0.00045938
v 0.02842744 -0.01027730 -0.00045938
v 0.03006972 -0.01008373 -0.00002389
v 0.03088600 -0.00998353 -0.00002389
v 0.03170713 -0.00985828 -0.00045938
v 0.03170713 -0.00986739 0.00035655
v 0.03218815 -0.00975125 0.00085841
v 0.03168284 -0.00979224 0.00114982
v 0.03193549 -0.00970342 0.00140561
v 0.03500139 -0.00900429 0.00200622
v 0.03543383 -0.00894053 0.00173910
v 0.04072505 -0.00772901 0.00035655
v 0.04149760 -0.00743980 0.00035655
v 0.03498682 -0.00911816 0.00117572
v 0.03498682 -0.00918420 0.00035655
v 0.03498682 -0.00922747 -0.00045938
v 0.04104087 -0.00555192 -0.00503605
v 0.04083681 -0.00527409 -0.00542459
v 0.03990878 -0.00547677 -0.00561400
v 0.04058415 -0.00493022 -0.00588112
v 0.04154133 -0.00534241 -0.00503605
v 0.03990878 -0.00506458 -0.00597502
v 0.03557473 -0.00573638 -0.00666953
v 0.03582739 -0.00528092 -0.00687837
v 0.04205636 -0.00649927 -0.00338476
v 0.04154133 -0.00610302 -0.00413917
v 0.04154133 -0.00587074 -0.00443058
v 0.04054042 -0.00572044 -0.00506681
v 0.04108460 -0.00561796 -0.00494215
v 0.04154133 -0.00552232 -0.00483854
v 0.03497710 -0.00522627 -0.00710016
v 0.03420455 -0.00516478 -0.00723777
v 0.04186201 -0.00723939 -0.00045614
v 0.04136641 -0.00737148 -0.00127693
v 0.04177455 -0.00719840 -0.00127693
v 0.04123037 -0.00731682 -0.00209610
v 0.04072505 -0.00751950 -0.00209610
v 0.04072505 -0.00736464 -0.00264653
v 0.03416082 -0.00591173 -0.00678609
v 0.03333969 -0.00638541 -0.00655459
v 0.03416082 -0.00631937 -0.00650440
v 0.03170227 -0.00742613 -0.00592483
v 0.00960447 -0.01035473 -0.00640403
v 0.00877848 -0.01078058 -0.00607539
v 0.00815170 -0.01142278 -0.00506681
v 0.00877848 -0.01143416 -0.00503605
v 0.00900198 -0.01140911 -0.00503443
v 0.00930809 -0.01138862 -0.00499396
v 0.02816021 -0.00975352 -0.00336695
v 0.02152310 -0.01055969 -0.00333781
v 0.02207214 -0.01052780 -0.00323582
v 0.02327712 -0.01057335 -0.00258178
v 0.02484651 -0.01056652 -0.00174966
v 0.02679003 -0.01006324 -0.00291689
v 0.02761117 -0.01016571 -0.00209772
v 0.02679003 -0.01026591 -0.00209772
v 0.02596889 -0.01036384 -0.00209772
v 0.02513804 -0.01047087 -0.00205239
v 0.02540042 -0.01053463 -0.00154243
v 0.02679003 -0.01040255 -0.00127855
v 0.03006972 -0.01001086 -0.00127855
v 0.03088600 -0.00997670 -0.00045938
v 0.03172657 -0.00979224 -0.00126074
v 0.03217843 -0.00974441 -0.00097420
v 0.03226103 -0.00976263 -0.00045938
v 0.03226589 -0.00976491 -0.00002389
v 0.03226589 -0.00976491 0.00035655
v 0.03267889 -0.00968293 0.00035655
v 0.03334455 -0.00954174 0.00035655
v 0.03416568 -0.00936638 0.00035655
v 0.03416568 -0.00929807 0.00117572
v 0.04072505 -0.00761287 -0.00127693
v 0.04145387 -0.00740564 -0.00045614
v 0.03416568 -0.00939371 -0.00045938
v 0.03498682 -0.00915687 -0.00127855
v 0.03559417 -0.00899519 -0.00127855
v 0.03990878 -0.00582064 -0.00520603
v 0.03497710 -0.00742613 -0.00513642
v 0.03416082 -0.00755821 -0.00528212
v 0.03497710 -0.00707543 -0.00554439
v 0.03497710 -0.00666552 -0.00601063
v 0.03497710 -0.00624422 -0.00642022
v 0.03497710 -0.00583203 -0.00673591
v 0.04072505 -0.00711642 -0.00305612
v 0.03478275 -0.00816625 -0.00426706
v 0.04154133 -0.00658353 -0.00349970
v 0.04154133 -0.00628065 -0.00391090
v 0.04055014 -0.00574094 -0.00503605
v 0.03545326 -0.00894281 -0.00181765
v 0.03525405 -0.00887904 -0.00236322
v 0.03470501 -0.00894281 -0.00258825
v 0.03498196 -0.00876518 -0.00288289
v 0.03502083 -0.00843725 -0.00358550
v 0.03469043 -0.00843725 -0.00377168
v 0.03416082 -0.00677483 -0.00609482
v 0.03252827 -0.00735554 -0.00586493
v 0.03088600 -0.00789298 -0.00556058
v 0.00877848 -0.01118822 -0.00547477
v 0.03170227 -0.00783832 -0.00548287
v 0.03088600 -0.00823457 -0.00515099
v 0.03088600 -0.00843725 -0.00489682
v 0.03088600 -0.00865131 -0.00461999
v 0.03088600 -0.00896558 -0.00421040
v 0.00877848 -0.01141822 -0.00506519
v 0.03006972 -0.00932539 -0.00373606
v 0.02870925 -0.00971709 -0.00326496
v 0.03145933 -0.00976263 -0.00178203
v 0.02761117 -0.00996076 -0.00291689
v 0.03088600 -0.00980135 -0.00192936
v 0.03088600 -0.00991066 -0.00127855
v 0.03200838 -0.00971709 -0.00152139
v 0.03247968 -0.00965560 -0.00126074
v 0.03334455 -0.00955540 -0.00045938
v 0.03266917 -0.00968520 -0.00045938
v 0.03245539 -0.00972847 -0.00002389
v 0.03498682 -0.00907261 -0.00171242
v 0.03416082 -0.00796585 -0.00479483
v 0.03416082 -0.00776545 -0.00503443
v 0.03333969 -0.00804100 -0.00489844
v 0.03308217 -0.00797268 -0.00503443
v 0.03256714 -0.00782238 -0.00531936
v 0.03333969 -0.00757643 -0.00543754
v 0.03306759 -0.00730088 -0.00581313
v 0.03361178 -0.00724395 -0.00575161
v 0.03416082 -0.00718474 -0.00569009
v 0.03416568 -0.00859210 -0.00373606
v 0.03416568 -0.00843725 -0.00402585
v 0.03416082 -0.00824368 -0.00438363
v 0.03498196 -0.00899746 -0.00209448
v 0.03416568 -0.00916143 -0.00209772
v 0.03172171 -0.00963055 -0.00207344
v 0.03252827 -0.00923430 -0.00291689
v 0.03416568 -0.00899291 -0.00274043
v 0.03368466 -0.00889954 -0.00328438
v 0.03416568 -0.00885172 -0.00315001
v 0.03279550 -0.00802506 -0.00503443
v 0.03206668 -0.00814576 -0.00503605
v 0.03170227 -0.00820269 -0.00503605
v 0.03168284 -0.00843725 -0.00473655
v 0.03136216 -0.00892687 -0.00416184
v 0.03088600 -0.00920470 -0.00373606
v 0.02924858 -0.00968293 -0.00313868
v 0.03170227 -0.00938005 -0.00291689
v 0.03038068 -0.00972164 -0.00246198
v 0.03088600 -0.00968520 -0.00233894
v 0.03088600 -0.00951669 -0.00291689
v 0.03313562 -0.00895419 -0.00341066
v 0.03252827 -0.00881983 -0.00395300
v 0.03190634 -0.00887904 -0.00407441
v 0.03165854 -0.00905667 -0.00377653
v 0.03252827 -0.00901113 -0.00354179
v 0.03008915 -0.00964194 -0.00288613
f 1 2 3
f 1 3 4
f 1 4 5
f 1 5 6
f 1 6 7
f 1 7 8
f 1 8 2
f 2 9 3
f 2 8 9
f 3 10 11
f 3 11 4
f 3 9 12
f 3 12 10
f 4 11 5
f 5 11 13
f 5 13 14
f 5 14 6
f 6 14 15
f 6 15 7
f 7 15 16
f 7 16 17
f 7 17 18
f 7 18 19
f 7 19 20
f 7 20 21
f 7 21 8
f 8 21 22
f 8 22 23
f 8 23 9
f 9 24 12
f 9 23 24
f 10 25 11
f 10 12 26
f 10 26 25
f 11 25 27
f 11 27 13
f 12 24 26
f 13 27 28
f 13 28 14
f 14 29 30
f 14 30 31
f 14 31 32
f 14 32 15
f 14 28 33
f 14 33 34
f 14 34 29
f 15 32 35
f 15 35 16
f 16 35 17
f 17 35 32
f 17 32 31
f 17 31 30
f 17 30 18
f 18 30 36
f 18 36 29
f 18 29 37
f 18 37 38
f 18 38 39
f 18 39 40
f 18 40 41
f 18 41 19
f 19 41 40
f 19 40 42
f 19 42 43
f 19 43 20
f 20 43 44
f 20 44 45
f 20 45 21
f 21 46 47
f 21 47 48
f 21 48 22
f 21 45 49
f 21 49 50
f 21 50 51
f 21 51 52
f 21 52 53
f 21 53 54
f 21 54 46
f 22 48 87
f 22 87 55
f 22 55 56
f 22 56 23
f 23 56 57
f 23 57 24
f 24 58 59
f 24 59 60
f 24 60 26
f 24 57 61
f 24 61 58
f 25 62 27
f 25 26 63
f 25 63 64
f 25 64 62
f 26 60 65
f 26 65 63
f 27 62 28
f 28 62 64
f 28 64 66
f 28 66 33
f 29 36 30
f 29 34 37
f 33 66 67
f 33 67 68
f 33 68 34
f 34 69 70
f 34 70 37
f 34 68 71
f 34 71 69
f 37 72 73
f 37 73 74
f 37 74 38
f 37 70 75
f 37 75 72
f 38 74 39
f 39 74 76
f 39 76 40
f 40 76 77
f 40 77 43
f 40 43 42
f 43 77 44
f 44 77 78
f 44 78 79
f 44 79 80
f 44 80 81
f 44 81 50
f 44 50 49
f 44 49 45
f 46 82 47
f 46 54 83
f 46 83 84
f 46 84 82
f 47 82 85
f 47 85 48
f 48 85 86
f 48 86 87
f 50 81 88
f 50 88 89
f 50 89 90
f 50 90 51
f 51 90 91
f 51 91 92
f 51 92 52
f 52 92 53
f 53 92 93
f 53 93 94
f 53 94 95
f 53 95 54
f 54 95 96
f 54 96 83
f 55 87 97
f 55 97 98
f 55 98 56
f 56 98 61
f 56 61 57
f 58 99 100
f 58 100 101
f 58 101 59
f 58 61 99
f 59 101 60
f 60 102 65
f 60 101 102
f 61 103 99
f 61 98 104
f 61 104 105
f 61 105 106
f 61 106 103
f 63 65 64
f 64 65 66
f 65 102 107
f 65 107 108
f 65 108 66
f 66 108 109
f 66 109 67
f 67 109 110
f 67 110 71
f 67 71 68
f 69 111 75
f 69 75 70
f 69 71 112
f 69 112 111
f 71 110 113
f 71 113 112
f 72 75 114
f 72 114 115
f 72 115 116
f 72 116 73
f 73 116 117
f 73 117 118
f 73 118 74
f 74 118 119
f 74 119 120
f 74 120 121
f 74 121 76
f 75 111 122
f 75 122 114
f 76 121 123
f 76 123 77
f 77 123 121
f 77 121 124
f 77 124 78
f 78 124 121
f 78 121 120
f 78 120 79
f 79 125 126
f 79 126 127
f 79 127 80
f 79 120 125
f 80 127 81
f 81 127 128
f 81 128 88
f 82 129 85
f 82 84 129
f 83 96 84
f 84 96 130
f 84 130 131
f 84 131 132
f 84 132 129
f 85 133 86
f 85 129 134
f 85 134 135
f 85 135 133
f 86 133 136
f 86 136 137
f 86 137 87
f 87 138 139
f 87 139 97
f 87 137 138
f 88 128 140
f 88 140 89
f 89 140 90
f 90 140 141
f 90 141 142
f 90 142 91
f 91 142 92
f 92 142 143
f 92 143 144
f 92 144 145
f 92 145 146
f 92 146 93
f 93 146 147
f 93 147 148
f 93 148 149
f 93 149 95
f 93 95 94
f 95 149 130
f 95 130 96
f 97 139 150
f 97 150 151
f 97 151 98
f 98 151 152
f 98 152 104
f 99 103 153
f 99 153 154
f 99 154 155
f 99 155 100
f 100 155 101
f 101 107 102
f 101 155 156
f 101 156 107
f 103 106 153
f 104 152 157
f 104 157 158
f 104 158 159
f 104 159 105
f 105 159 106
f 106 159 160
f 106 160 161
f 106 161 154
f 106 154 153
f 107 156 108
f 108 156 109
f 109 156 162
f 109 162 163
f 109 163 110
f 110 164 113
f 110 163 164
f 111 112 122
f 112 113 165
f 112 165 122
f 113 164 165
f 114 122 166
f 114 166 115
f 115 167 168
f 115 168 116
f 115 166 167
f 116 168 169
f 116 169 117
f 117 169 170
f 117 170 118
f 118 170 171
f 118 171 172
f 118 172 120
f 118 120 119
f 120 172 171
f 120 171 125
f 122 163 162
f 122 162 173
f 122 173 174
f 122 174 166
f 122 165 164
f 122 164 163
f 125 175 176
f 125 176 126
f 125 171 177
f 125 177 175
f 126 177 178
f 126 178 127
f 126 176 177
f 127 178 179
f 127 179 128
f 128 179 140
f 129 132 134
f 130 149 180
f 130 180 148
f 130 148 181
f 130 181 182
f 130 182 183
f 130 183 184
f 130 184 185
f 130 185 186
f 130 186 187
f 130 187 131
f 131 188 189
f 131 189 190
f 131 190 132
f 131 187 191
f 131 191 192
f 131 192 193
f 131 193 194
f 131 194 195
f 131 195 188
f 132 190 196
f 132 196 197
f 132 197 198
f 132 198 199
f 132 199 200
f 132 200 201
f 132 201 202
f 132 202 203
f 132 203 135
f 132 135 134
f 133 135 203
f 133 203 202
f 133 202 204
f 133 204 136
f 136 204 202
f 136 202 205
f 136 205 206
f 136 206 137
f 137 206 207
f 137 207 208
f 137 208 209
f 137 209 138
f 138 210 139
f 138 209 208
f 138 208 210
f 139 211 212
f 139 212 150
f 139 210 213
f 139 213 214
f 139 214 211
f 140 179 142
f 140 142 141
f 142 179 143
f 143 179 215
f 143 215 216
f 143 216 144
f 144 216 145
f 145 217 146
f 145 216 218
f 145 218 219
f 145 219 217
f 146 217 147
f 147 217 181
f 147 181 148
f 148 180 149
f 150 212 151
f 151 212 220
f 151 220 157
f 151 157 152
f 154 161 155
f 155 161 232
f 155 232 221
f 155 221 222
f 155 222 156
f 156 222 223
f 156 223 174
f 156 174 173
f 156 173 162
f 157 220 159
f 157 159 158
f 159 224 161
f 159 161 160
f 159 220 225
f 159 225 226
f 159 226 227
f 159 227 228
f 159 228 229
f 159 229 224
f 161 224 230
f 161 230 231
f 161 231 232
f 166 233 234
f 166 234 235
f 166 235 236
f 166 236 237
f 166 237 238
f 166 238 239
f 166 239 167
f 166 174 240
f 166 240 233
f 167 239 241
f 167 241 168
f 168 241 242
f 168 242 169
f 169 242 243
f 169 243 170
f 170 243 244
f 170 244 177
f 170 177 171
f 174 245 246
f 174 246 247
f 174 247 248
f 174 248 240
f 174 223 245
f 175 177 176
f 177 244 178
f 178 244 179
f 179 244 249
f 179 249 250
f 179 250 251
f 179 251 252
f 179 252 215
f 181 217 253
f 181 253 254
f 181 254 255
f 181 255 256
f 181 256 183
f 181 183 182
f 183 256 184
f 184 256 257
f 184 257 185
f 185 258 259
f 185 259 260
f 185 260 261
f 185 261 262
f 185 262 263
f 185 263 186
f 185 257 264
f 185 264 265
f 185 265 266
f 185 266 258
f 186 263 262
f 186 262 267
f 186 267 187
f 187 267 268
f 187 268 269
f 187 269 192
f 187 192 191
f 188 270 189
f 188 195 270
f 189 270 271
f 189 271 190
f 190 271 196
f 192 269 268
f 192 268 272
f 192 272 273
f 192 273 274
f 192 274 193
f 193 274 275
f 193 275 276
f 193 276 277
f 193 277 278
f 193 278 194
f 194 278 279
f 194 279 280
f 194 280 195
f 195 280 271
f 195 271 270
f 196 271 281
f 196 281 279
f 196 279 282
f 196 282 283
f 196 283 284
f 196 284 285
f 196 285 286
f 196 286 287
f 196 287 288
f 196 288 289
f 196 289 290
f 196 290 291
f 196 291 292
f 196 292 197
f 197 292 198
f 198 293 199
f 198 292 200
f 198 200 293
f 199 293 294
f 199 294 295
f 199 295 200
f 200 296 297
f 200 297 298
f 200 298 299
f 200 299 300
f 200 300 301
f 200 301 201
f 200 295 294
f 200 294 293
f 200 292 291
f 200 291 290
f 200 290 296
f 201 301 302
f 201 302 205
f 201 205 202
f 205 302 206
f 206 302 303
f 206 303 207
f 207 304 305
f 207 305 208
f 207 303 304
f 208 306 210
f 208 305 306
f 210 307 213
f 210 306 308
f 210 308 309
f 210 309 307
f 211 214 310
f 211 310 311
f 211 311 312
f 211 312 212
f 212 225 220
f 212 312 313
f 212 313 314
f 212 314 225
f 213 307 214
f 214 307 310
f 215 252 251
f 215 251 219
f 215 219 216
f 216 219 218
f 217 219 315
f 217 315 253
f 219 316 317
f 219 317 315
f 219 251 318
f 219 318 316
f 221 319 222
f 221 232 320
f 221 320 321
f 221 321 319
f 222 319 322
f 222 322 323
f 222 323 223
f 223 323 324
f 223 324 325
f 223 325 326
f 223 326 248
f 223 248 247
f 223 247 246
f 223 246 245
f 224 229 230
f 225 314 327
f 225 327 328
f 225 328 226
f 226 328 329
f 226 329 227
f 227 329 228
f 228 329 330
f 228 330 229
f 229 331 231
f 229 231 230
f 229 330 331
f 231 331 332
f 231 332 232
f 232 333 320
f 232 332 331
f 232 331 333
f 233 334 335
f 233 335 234
f 233 240 334
f 234 335 336
f 234 336 235
f 235 336 236
f 236 337 338
f 236 338 339
f 236 339 340
f 236 340 237
f 236 336 337
f 237 340 238
f 238 340 316
f 238 316 241
f 238 241 239
f 240 341 342
f 240 342 334
f 240 248 343
f 240 343 341
f 241 344 242
f 241 316 250
f 241 250 249
f 241 249 244
f 241 244 344
f 242 344 244
f 242 244 243
f 248 326 343
f 250 316 318
f 250 318 251
f 253 315 345
f 253 345 254
f 254 345 346
f 254 346 347
f 254 347 348
f 254 348 265
f 254 265 349
f 254 349 255
f 255 264 256
f 255 349 265
f 255 265 264
f 256 264 257
f 258 266 350
f 258 350 351
f 258 351 259
f 259 351 352
f 259 352 260
f 260 352 261
f 261 352 262
f 262 352 268
f 262 268 267
f 265 348 353
f 265 353 266
f 266 354 350
f 266 353 347
f 266 347 355
f 266 355 356
f 266 356 357
f 266 357 358
f 266 358 354
f 268 352 359
f 268 359 272
f 271 280 279
f 271 279 281
f 272 359 352
f 272 352 351
f 272 351 360
f 272 360 273
f 273 360 361
f 273 361 362
f 273 362 275
f 273 275 274
f 275 363 276
f 275 362 363
f 276 363 364
f 276 364 365
f 276 365 277
f 277 365 366
f 277 366 278
f 278 367 368
f 278 368 369
f 278 369 279
f 278 366 370
f 278 370 367
f 279 369 282
f 282 369 371
f 282 371 283
f 283 371 372
f 283 372 373
f 283 373 374
f 283 374 284
f 284 374 375
f 284 375 285
f 285 375 376
f 285 376 286
f 286 376 287
f 287 376 288
f 288 376 289
f 289 376 297
f 289 297 296
f 289 296 290
f 297 376 308
f 297 308 298
f 298 308 377
f 298 377 299
f 299 377 378
f 299 378 300
f 300 303 302
f 300 302 301
f 300 378 303
f 303 378 304
f 304 378 305
f 305 378 306
f 306 378 377
f 306 377 308
f 307 379 310
f 307 309 380
f 307 380 376
f 307 376 381
f 307 381 379
f 308 376 309
f 309 376 380
f 310 382 311
f 310 379 382
f 311 383 314
f 311 314 313
f 311 313 312
f 311 382 379
f 311 379 381
f 311 381 384
f 311 384 385
f 311 385 386
f 311 386 387
f 311 387 388
f 311 388 389
f 311 389 383
f 314 383 390
f 314 390 327
f 315 317 340
f 315 340 391
f 315 391 392
f 315 392 345
f 316 340 317
f 319 393 394
f 319 394 395
f 319 395 322
f 319 321 396
f 319 396 397
f 319 397 393
f 320 333 398
f 320 398 321
f 321 398 397
f 321 397 396
f 322 395 399
f 322 399 400
f 322 400 323
f 323 400 401
f 323 401 402
f 323 402 403
f 323 403 324
f 324 403 404
f 324 404 325
f 325 404 405
f 325 405 343
f 325 343 326
f 327 390 328
f 328 390 406
f 328 406 407
f 328 407 408
f 328 408 329
f 329 408 409
f 329 409 330
f 330 409 410
f 330 410 411
f 330 411 412
f 330 412 331
f 331 412 398
f 331 398 333
f 334 413 414
f 334 414 415
f 334 415 335
f 334 342 413
f 335 415 336
f 336 415 337
f 337 416 338
f 337 415 414
f 337 414 413
f 337 413 417
f 337 417 418
f 337 418 416
f 338 416 419
f 338 419 420
f 338 420 421
f 338 421 422
f 338 422 392
f 338 392 339
f 339 392 340
f 340 392 391
f 341 405 342
f 341 343 405
f 342 405 413
f 345 392 423
f 345 423 424
f 345 424 347
f 345 347 346
f 347 424 423
f 347 423 425
f 347 425 426
f 347 426 427
f 347 427 355
f 347 353 348
f 350 358 428
f 350 428 429
f 350 429 351
f 350 354 358
f 351 429 430
f 351 430 360
f 355 427 431
f 355 431 356
f 356 431 432
f 356 432 357
f 357 433 434
f 357 434 435
f 357 435 358
f 357 432 433
f 358 435 436
f 358 436 437
f 358 437 438
f 358 438 439
f 358 439 428
f 360 440 441
f 360 441 361
f 360 430 440
f 361 442 362
f 361 441 442
f 362 443 444
f 362 444 445
f 362 445 363
f 362 442 446
f 362 446 447
f 362 447 448
f 362 448 449
f 362 449 443
f 363 445 364
f 364 445 444
f 364 444 366
f 364 366 365
f 366 444 443
f 366 443 370
f 367 370 443
f 367 443 449
f 367 449 450
f 367 450 368
f 368 450 451
f 368 451 373
f 368 373 369
f 369 373 371
f 371 373 372
f 373 452 453
f 373 453 374
f 373 451 454
f 373 454 455
f 373 455 456
f 373 456 452
f 374 453 375
f 375 453 457
f 375 457 376
f 376 458 385
f 376 385 384
f 376 384 381
f 376 457 458
f 383 406 390
f 383 389 388
f 383 388 459
f 383 459 460
f 383 460 406
f 385 458 387
f 385 387 386
f 387 458 461
f 387 461 388
f 388 461 462
f 388 462 463
f 388 463 459
f 392 422 423
f 393 397 464
f 393 464 465
f 393 465 466
f 393 466 394
f 394 466 395
f 395 466 467
f 395 467 468
f 395 468 469
f 395 469 470
f 395 470 399
f 397 398 471
f 397 471 472
f 397 472 473
f 397 473 464
f 398 412 474
f 398 474 475
f 398 475 471
f 399 470 476
f 399 476 400
f 400 476 401
f 401 476 477
f 401 477 478
f 401 478 402
f 402 478 479
f 402 479 480
f 402 480 418
f 402 418 403
f 403 418 413
f 403 413 405
f 403 405 404
f 406 460 407
f 407 460 459
f 407 459 408
f 408 459 463
f 408 463 481
f 408 481 409
f 409 481 482
f 409 482 483
f 409 483 410
f 410 483 484
f 410 484 485
f 410 485 411
f 411 475 474
f 411 474 412
f 411 485 486
f 411 486 475
f 413 418 417
f 416 487 420
f 416 420 419
f 416 418 488
f 416 488 489
f 416 489 487
f 418 480 490
f 418 490 488
f 420 487 491
f 420 491 422
f 420 422 421
f 422 491 492
f 422 492 423
f 423 492 493
f 423 493 494
f 423 494 425
f 425 494 495
f 425 495 496
f 425 496 497
f 425 497 498
f 425 498 426
f 426 498 499
f 426 499 427
f 427 499 431
f 428 439 430
f 428 430 429
f 430 439 440
f 431 499 432
f 432 499 434
f 432 434 433
f 434 499 500
f 434 500 435
f 435 501 436
f 435 500 502
f 435 502 503
f 435 503 504
f 435 504 501
f 436 501 505
f 436 505 437
f 437 440 438
f 437 505 441
f 437 441 440
f 438 440 439
f 441 505 506
f 441 506 507
f 441 507 442
f 442 507 446
f 446 507 508
f 446 508 509
f 446 509 447
f 447 509 510
f 447 510 511
f 447 511 512
f 447 512 513
f 447 513 448
f 448 513 514
f 448 514 450
f 448 450 449
f 450 514 515
f 450 515 455
f 450 455 451
f 451 455 454
f 452 456 516
f 452 516 517
f 452 517 462
f 452 462 461
f 452 461 458
f 452 458 453
f 453 458 457
f 455 515 456
f 456 515 513
f 456 513 516
f 462 518 519
f 462 519 463
f 462 517 520
f 462 520 521
f 462 521 522
f 462 522 518
f 463 519 481
f 464 473 467
f 464 467 465
f 465 467 466
f 467 523 524
f 467 524 525
f 467 525 526
f 467 526 468
f 467 473 527
f 467 527 523
f 468 526 528
f 468 528 529
f 468 529 469
f 469 529 530
f 469 530 476
f 469 476 470
f 471 475 531
f 471 531 472
f 472 531 532
f 472 532 533
f 472 533 534
f 472 534 535
f 472 535 536
f 472 536 527
f 472 527 473
f 475 486 531
f 476 530 537
f 476 537 477
f 477 537 480
f 477 480 479
f 477 479 478
f 480 537 538
f 480 538 489
f 480 489 490
f 481 519 482
f 482 519 539
f 482 539 540
f 482 540 541
f 482 541 483
f 483 541 542
f 483 542 484
f 484 542 486
f 484 486 485
f 486 542 543
f 486 543 544
f 486 544 531
f 487 489 538
f 487 538 545
f 487 545 546
f 487 546 547
f 487 547 548
f 487 548 549
f 487 549 491
f 488 490 489
f 491 549 550
f 491 550 492
f 492 550 551
f 492 551 493
f 493 551 495
f 493 495 494
f 495 551 496
f 496 552 497
f 496 551 552
f 497 552 553
f 497 553 554
f 497 554 555
f 497 555 498
f 498 500 499
f 498 555 556
f 498 556 557
f 498 557 558
f 498 558 503
f 498 503 502
f 498 502 500
f 501 504 559
f 501 559 505
f 503 558 504
f 504 560 561
f 504 561 562
f 504 562 563
f 504 563 564
f 504 564 559
f 504 558 560
f 505 559 565
f 505 565 566
f 505 566 506
f 506 566 567
f 506 567 568
f 506 568 508
f 506 508 507
f 508 568 509
f 509 568 510
f 510 568 511
f 511 569 570
f 511 570 571
f 511 571 512
f 511 568 569
f 512 571 572
f 512 572 573
f 512 573 513
f 513 515 514
f 513 573 574
f 513 574 575
f 513 575 576
f 513 576 577
f 513 577 516
f 516 577 520
f 516 520 517
f 518 578 579
f 518 579 519
f 518 522 578
f 519 579 539
f 520 577 576
f 520 576 521
f 521 576 522
f 522 576 575
f 522 575 574
f 522 574 580
f 522 580 581
f 522 581 582
f 522 582 578
f 523 527 536
f 523 536 535
f 523 535 534
f 523 534 525
f 523 525 524
f 525 583 584
f 525 584 585
f 525 585 586
f 525 586 587
f 525 587 588
f 525 588 528
f 525 528 526
f 525 534 583
f 528 588 529
f 529 588 589
f 529 589 537
f 529 537 530
f 531 544 590
f 531 590 591
f 531 591 592
f 531 592 593
f 531 593 532
f 532 593 534
f 532 534 533
f 534 594 583
f 534 593 594
f 537 589 538
f 538 589 545
f 539 579 540
f 540 579 578
f 540 578 543
f 540 543 542
f 540 542 541
f 543 578 582
f 543 582 581
f 543 581 595
f 543 595 596
f 543 596 544
f 544 596 597
f 544 597 598
f 544 598 599
f 544 599 600
f 544 600 591
f 544 591 590
f 545 547 546
f 545 589 547
f 547 589 588
f 547 588 601
f 547 601 602
f 547 602 548
f 548 602 603
f 548 603 549
f 549 603 550
f 550 604 551
f 550 603 605
f 550 605 606
f 550 606 607
f 550 607 608
f 550 608 609
f 550 609 604
f 551 604 610
f 551 610 552
f 552 610 553
f 553 610 604
f 553 604 609
f 553 609 611
f 553 611 555
f 553 555 554
f 555 611 612
f 555 612 560
f 555 560 557
f 555 557 556
f 557 560 558
f 559 564 563
f 559 563 562
f 559 562 613
f 559 613 565
f 560 612 614
f 560 614 615
f 560 615 561
f 561 615 613
f 561 613 562
f 565 613 567
f 565 567 566
f 567 613 616
f 567 616 568
f 568 616 569
f 569 617 570
f 569 616 613
f 569 613 617
f 570 618 581
f 570 581 580
f 570 580 619
f 570 619 620
f 570 620 571
f 570 617 618
f 571 620 572
f 572 620 619
f 572 619 621
f 572 621 573
f 573 621 619
f 573 619 580
f 573 580 574
f 581 622 595
f 581 618 617
f 581 617 622
f 583 594 593
f 583 593 623
f 583 623 584
f 584 623 624
f 584 624 585
f 585 624 625
f 585 625 626
f 585 626 627
f 585 627 628
f 585 628 629
f 585 629 630
f 585 630 631
f 585 631 587
f 585 587 586
f 587 631 601
f 587 601 588
f 591 600 632
f 591 632 633
f 591 633 634
f 591 634 623
f 591 623 593
f 591 593 592
f 595 622 635
f 595 635 596
f 596 635 597
f 597 635 636
f 597 636 617
f 597 617 613
f 597 613 637
f 597 637 638
f 597 638 639
f 597 639 640
f 597 640 641
f 597 641 598
f 598 641 632
f 598 632 599
f 599 632 600
f 601 631 630
f 601 630 629
f 601 629 602
f 602 629 627
f 602 627 605
f 602 605 603
f 605 627 642
f 605 642 643
f 605 643 644
f 605 644 606
f 606 644 607
f 607 644 608
f 608 644 645
f 608 645 609
f 609 645 646
f 609 646 611
f 611 646 647
f 611 647 612
f 612 647 648
f 612 648 614
f 613 649 637
f 613 615 650
f 613 650 651
f 613 651 652
f 613 652 649
f 614 648 650
f 614 650 615
f 617 636 635
f 617 635 622
f 623 634 646
f 623 646 625
f 623 625 624
f 625 646 645
f 625 645 643
f 625 643 642
f 625 642 626
f 626 642 627
f 627 629 628
f 632 641 640
f 632 640 653
f 632 653 654
f 632 654 633
f 633 654 634
f 634 654 655
f 634 655 646
f 637 649 638
f 638 649 653
f 638 653 640
f 638 640 639
f 643 645 644
f 646 655 647
f 647 655 656
f 647 656 657
f 647 657 652
f 647 652 648
f 648 658 650
f 648 652 658
f 649 657 653
f 649 652 657
f 650 658 651
f 651 658 652
f 653 657 654
f 654 657 655
f 655 657 656

