# https://github.com/mikedh/trimesh
v 0.05445748 0.02773053 -0.00007546
v 0.05712867 0.02742310 0.00080055
v 0.05709218 0.02761767 -0.00007546
v 0.02992776 0.02042625 -0.00008614
v 0.05221689 0.02763324 -0.00007546
v 0.05324596 0.02592489 0.00364883
v 0.05716517 0.02469518 0.00452156
v 0.06484302 0.02116563 0.00167657
v 0.06540499 0.02161314 -0.00007546
v 0.05916491 0.02631793 -0.00007546
v 0.02992776 -0.00841341 -0.00008614
v 0.01822123 0.01625070 -0.00008614
v 0.01489319 0.01502878 0.00004945
v 0.01525810 0.01502878 0.00048828
v 0.04650959 0.02632960 -0.00007546
v 0.05093238 0.02751650 -0.00007546
v 0.06547068 0.02038733 -0.00007546
v 0.04904211 0.02664481 0.00137005
v 0.04797656 0.02464070 0.00401781
v 0.05021715 0.02293624 0.00622839
v 0.05285185 0.02073367 0.00746434
v 0.05979987 0.02033285 0.00559069
v 0.06227400 0.01672546 0.00388633
v 0.06507656 0.01764774 -0.00004505
v 0.02219153 -0.01202469 -0.00008614
v 0.06509116 0.01766720 -0.00007546
v 0.06507656 0.01763996 -0.00007546
v 0.06502548 0.01757380 -0.00007546
v 0.05931818 0.01072482 -0.00007546
v 0.05739871 0.00867013 -0.00007546
v 0.05443559 0.00568537 -0.00007546
v 0.05161843 0.00323764 -0.00007546
v 0.04999090 0.00195735 -0.00007546
v 0.04704237 0.00000773 -0.00007546
v 0.04512291 -0.00125311 -0.00007546
v 0.04388219 -0.00190688 -0.00007546
v 0.01482020 0.01502878 -0.00008614
v 0.01481290 0.01502878 -0.00008532
v -0.00285638 0.00848334 0.00076768
v 0.01583467 0.01502878 0.00098545
v 0.02992776 0.01995927 0.00114817
v 0.04651689 0.02630236 0.00000507
v 0.04691830 0.02539954 0.00230523
v 0.03035837 0.01813806 0.00389865
v 0.04564839 0.02265606 0.00519953
v 0.01668858 0.01502878 0.00155002
v 0.01803877 0.01502878 0.00227729
v 0.01983416 0.01502878 0.00300045
v 0.04598411 0.02191279 0.00594734
v 0.04632713 0.02114228 0.00658751
v 0.04782329 0.01993203 0.00760240
v 0.05599013 0.01701343 0.00700744
v 0.04804954 0.01817698 0.00807575
v 0.05059666 0.01734421 0.00813984
v 0.05770524 0.01337102 0.00521185
v 0.05955902 0.01154592 0.00191735
v 0.03035837 -0.00821494 -0.00007546
v 0.02192878 -0.01202469 0.00017683
v -0.00538160 -0.01202469 -0.00008614
v 0.05242125 0.00656874 0.00361021
v 0.04637822 0.00143978 0.00311468
v 0.04571407 0.00000773 0.00142100
v 0.04052495 -0.00290698 0.00115063
v 0.00176347 0.01027730 -0.00008532
v 0.00347128 0.01091550 -0.00008532
v 0.00642711 0.01199733 -0.00008532
v -0.00468826 0.00765056 -0.00008614
v -0.00355701 0.00827320 -0.00008532
v 0.01638935 0.01502878 0.00136183
v -0.00354242 0.00827320 0.00051375
v -0.00532321 0.00729644 0.00110050
v -0.00447661 0.00765056 0.00108736
v -0.00287827 0.00830822 0.00106188
v 0.02123544 0.01502878 0.00347544
v 0.02181201 0.01502878 0.00366609
v 0.02349793 0.01502878 0.00416162
v 0.01528730 0.00326099 0.00728191
v 0.05301971 0.01409483 0.00753502
v 0.03035837 0.00817980 0.00794755
v 0.04364134 0.01362007 0.00825325
v 0.01569600 0.00217138 0.00760815
v 0.02992776 0.00920715 0.00781442
v 0.04504992 0.01133189 0.00830913
v 0.04945812 0.00798912 0.00650369
v 0.03035837 -0.00789195 0.00061812
v 0.02047642 -0.01202469 0.00139799
v -0.00541079 -0.01202469 0.00258381
v -0.00545458 -0.01192740 -0.00008614
v 0.04264147 0.00364625 0.00639932
v 0.04099935 0.00103507 0.00519131
v 0.04102854 0.00000773 0.00428078
v 0.04354646 0.00000773 0.00313687
v 0.04445146 0.00000773 0.00246876
v 0.04105773 -0.00124922 0.00315741
v 0.03035837 -0.00666225 0.00251149
v -0.00525753 0.00733925 -0.00008614
v -0.00362270 0.00823818 -0.00008532
v -0.00681208 0.00603171 -0.00008614
v -0.00673909 0.00610565 0.00116953
v 0.04556811 0.00765446 0.00759665
v 0.03035837 0.00766224 0.00797467
v 0.01599523 0.00122186 0.00767143
v 0.03035837 0.00621850 0.00798782
v -0.00812578 0.00417938 0.00118597
v -0.00884101 0.00207409 0.00122130
v -0.00545458 -0.01046032 0.00326671
v 0.04296260 0.00945231 0.00815546
v 0.02992776 0.00606285 0.00797795
v 0.02992776 0.00546745 0.00792290
v 0.01953493 -0.01202469 0.00201678
v -0.00541079 -0.01202469 0.00322891
v -0.00871694 -0.00259956 -0.00008614
v 0.03514608 0.00000773 0.00609608
v 0.03582482 0.00000773 0.00596296
v 0.03035837 -0.00402383 0.00490862
v 0.03882444 0.00000773 0.00514200
v 0.03909448 0.00000773 0.00505161
v 0.03947399 0.00000773 0.00490204
v 0.01664479 -0.01202469 0.00341298
v 0.01762276 -0.01202469 0.00301935
v 0.02992776 -0.00682180 0.00256738
v -0.00802360 0.00434282 -0.00008614
v 0.03035837 0.00100783 0.00704113
v 0.03035837 -0.00089899 0.00649136
v -0.00537430 -0.01202469 0.00323384
v 0.01625797 0.00006999 0.00755967
v -0.00821336 0.00393032 -0.00008614
v -0.00884101 0.00208966 -0.00008614
v -0.00908916 0.00041633 0.00104216
v 0.02992776 0.00486817 0.00786537
v 0.02992776 0.00239319 0.00737559
v -0.00891400 -0.00200027 0.00066414
v -0.00893589 -0.00196136 -0.00008614
v 0.01190087 -0.01127363 0.00514858
v 0.01328025 -0.01202469 0.00451910
v 0.01349920 -0.01202469 0.00445911
v 0.01502456 -0.00568160 0.00648232
v -0.00533781 -0.01202469 0.00323794
v -0.00905996 0.00061090 -0.00008614
v -0.00908186 0.00019062 -0.00008614
v -0.00175433 -0.01202469 0.00361843
v 0.00501853 -0.01202469 0.00430708
v 0.01171841 -0.01202469 0.00481987
f 1 2 3
f 1 3 4
f 1 4 5
f 1 5 6
f 1 6 2
f 2 6 7
f 2 7 8
f 2 8 9
f 2 9 10
f 2 10 3
f 3 10 4
f 4 11 25
f 4 25 59
f 4 59 88
f 4 88 112
f 4 112 133
f 4 133 140
f 4 140 139
f 4 139 128
f 4 128 127
f 4 127 122
f 4 122 98
f 4 98 96
f 4 96 67
f 4 67 37
f 4 37 12
f 4 12 13
f 4 13 14
f 4 14 15
f 4 15 16
f 4 16 5
f 4 10 9
f 4 9 17
f 4 17 11
f 5 16 6
f 6 16 18
f 6 18 19
f 6 19 20
f 6 20 7
f 7 20 21
f 7 21 22
f 7 22 8
f 8 22 23
f 8 23 24
f 8 24 17
f 8 17 9
f 11 17 26
f 11 26 27
f 11 27 28
f 11 28 29
f 11 29 30
f 11 30 31
f 11 31 32
f 11 32 33
f 11 33 34
f 11 34 35
f 11 35 36
f 11 36 25
f 12 37 38
f 12 38 13
f 13 38 39
f 13 39 14
f 14 39 40
f 14 40 41
f 14 41 18
f 14 18 42
f 14 42 15
f 15 42 18
f 15 18 16
f 17 24 26
f 18 43 19
f 18 41 43
f 19 44 45
f 19 45 20
f 19 43 46
f 19 46 47
f 19 47 48
f 19 48 44
f 20 45 49
f 20 49 50
f 20 50 51
f 20 51 21
f 21 52 22
f 21 51 53
f 21 53 54
f 21 54 52
f 22 52 23
f 23 52 55
f 23 55 56
f 23 56 24
f 24 28 27
f 24 27 26
f 24 56 28
f 25 36 57
f 25 57 58
f 25 58 86
f 25 86 110
f 25 110 120
f 25 120 119
f 25 119 136
f 25 136 135
f 25 135 143
f 25 143 142
f 25 142 141
f 25 141 138
f 25 138 125
f 25 125 111
f 25 111 87
f 25 87 59
f 28 56 29
f 29 56 30
f 30 56 31
f 31 56 32
f 32 56 60
f 32 60 61
f 32 61 33
f 33 61 34
f 34 61 62
f 34 62 35
f 35 62 63
f 35 63 36
f 36 63 57
f 37 64 65
f 37 65 66
f 37 66 38
f 37 67 68
f 37 68 64
f 38 66 39
f 39 69 40
f 39 66 70
f 39 70 71
f 39 71 72
f 39 72 73
f 39 73 69
f 40 69 43
f 40 43 41
f 43 69 46
f 44 49 45
f 44 48 74
f 44 74 49
f 46 69 73
f 46 73 47
f 47 73 48
f 48 73 72
f 48 72 74
f 49 74 75
f 49 75 76
f 49 76 50
f 50 76 51
f 51 76 71
f 51 71 77
f 51 77 53
f 52 54 78
f 52 78 55
f 53 79 80
f 53 80 54
f 53 77 81
f 53 81 82
f 53 82 79
f 54 80 83
f 54 83 78
f 55 78 84
f 55 84 60
f 55 60 56
f 57 85 58
f 57 63 85
f 58 85 86
f 59 87 88
f 60 84 61
f 61 84 89
f 61 89 90
f 61 90 91
f 61 91 92
f 61 92 93
f 61 93 62
f 62 93 63
f 63 93 94
f 63 94 95
f 63 95 86
f 63 86 85
f 64 68 70
f 64 70 65
f 65 70 66
f 67 96 97
f 67 97 68
f 68 97 70
f 70 97 71
f 71 76 75
f 71 75 72
f 71 97 96
f 71 96 98
f 71 98 99
f 71 99 77
f 72 75 74
f 77 99 81
f 78 83 100
f 78 100 84
f 79 101 80
f 79 82 81
f 79 81 102
f 79 102 101
f 80 101 103
f 80 103 83
f 81 99 104
f 81 104 105
f 81 105 106
f 81 106 102
f 83 107 100
f 83 103 108
f 83 108 109
f 83 109 107
f 84 100 89
f 86 95 110
f 87 111 88
f 88 111 112
f 89 100 113
f 89 113 114
f 89 114 115
f 89 115 116
f 89 116 90
f 90 116 117
f 90 117 118
f 90 118 91
f 91 94 92
f 91 118 119
f 91 119 94
f 92 94 93
f 94 119 120
f 94 120 121
f 94 121 95
f 95 121 110
f 98 122 104
f 98 104 99
f 100 107 123
f 100 123 124
f 100 124 113
f 101 102 103
f 102 106 111
f 102 111 125
f 102 125 126
f 102 126 109
f 102 109 108
f 102 108 103
f 104 122 127
f 104 127 128
f 104 128 105
f 105 128 129
f 105 129 106
f 106 129 111
f 107 109 130
f 107 130 131
f 107 131 123
f 109 126 130
f 110 121 120
f 111 129 132
f 111 132 112
f 112 132 133
f 113 124 134
f 113 134 135
f 113 135 114
f 114 135 115
f 115 135 136
f 115 136 119
f 115 119 116
f 116 119 117
f 117 119 118
f 123 131 137
f 123 137 124
f 124 137 134
f 125 138 126
f 126 138 137
f 126 137 130
f 128 139 129
f 129 139 140
f 129 140 133
f 129 133 132
f 130 137 131
f 134 137 141
f 134 141 142
f 134 142 143
f 134 143 135
f 137 138 141

