# https://github.com/mikedh/trimesh
v 0.03282565 -0.00853729 -0.01247301
v 0.03272269 -0.00853729 -0.01341868
v 0.03282565 0.00315161 -0.01560675
v 0.03272269 -0.00853729 -0.01148575
v 0.03282331 -0.01075998 -0.01187400
v 0.03269695 -0.01104866 -0.01295000
v 0.03267355 -0.00853729 -0.01372373
v 0.03255888 0.00272330 -0.01720412
v 0.03172816 0.00234782 -0.01861291
v 0.02079538 0.00696489 -0.00157427
v 0.03270163 0.00344029 -0.01453351
v 0.03270163 -0.00853729 -0.01131935
v 0.03270163 -0.01047318 -0.01080076
v 0.03210023 -0.01042790 -0.01027940
v 0.01061377 -0.00892975 0.00790459
v 0.03210023 -0.01099206 -0.01238704
v 0.03232487 -0.01132225 -0.01396777
v 0.03237168 -0.00853729 -0.01461116
v 0.03220553 -0.00853729 -0.01491344
v 0.03210023 -0.00853729 -0.01507151
v 0.03144969 -0.00853729 -0.01603937
v 0.03048793 0.00205348 -0.01970279
v 0.02893179 0.00189310 -0.02030458
v 0.01821195 0.00350445 -0.01446973
v 0.01615036 0.00722339 -0.00064247
v 0.01362543 0.00534976 0.00533104
v 0.01383370 0.00449692 0.00724734
v 0.02144124 0.00646865 -0.00144947
v 0.03174454 0.00395917 -0.01259226
v 0.03233658 0.00371388 -0.01351019
v 0.03233658 -0.00853729 -0.01022670
v 0.03233424 -0.01019959 -0.00978299
v 0.03210023 -0.01018449 -0.00958609
v 0.01253730 -0.00893730 0.00670656
v 0.01251156 -0.00894296 0.00670656
v 0.01187272 -0.00889390 0.00725843
v 0.01256772 -0.00853729 0.00724734
v 0.01362543 -0.00741274 0.00718910
v 0.01362543 -0.00686745 0.00725288
v 0.01506457 0.00284028 0.00743037
v 0.01362543 0.00450447 0.00724456
v 0.00892658 -0.00853729 0.00701439
v 0.00952330 -0.00875617 0.00700052
v 0.00972689 -0.00879768 0.00670656
v 0.02223920 -0.01126187 -0.01083681
v 0.02223920 -0.01116187 -0.00977744
v 0.01144917 -0.00908259 0.00670656
v 0.02892944 -0.01201849 -0.01657460
v 0.02998715 -0.01192415 -0.01621963
v 0.03136545 -0.01167886 -0.01529892
v 0.03210023 -0.01140527 -0.01428115
v 0.03116655 -0.00853729 -0.01630560
v 0.03011118 -0.00853729 -0.01706268
v 0.02972975 -0.00853729 -0.01722076
v 0.02782025 0.00186102 -0.02042660
v 0.02892944 -0.00853729 -0.01750917
v 0.02670872 0.00189310 -0.02030180
v 0.02565336 0.00198932 -0.01994406
v 0.01362543 0.00338746 -0.01400660
v 0.01362543 0.00387427 -0.01265604
v 0.01362543 0.00444220 -0.01096438
v 0.01362543 0.00467617 -0.01009636
v 0.01362543 0.00687621 -0.00165746
v 0.01362543 0.00687621 0.00057220
v 0.01362543 0.00588751 0.00386956
v 0.01362543 0.00454409 0.00722515
v 0.01475334 0.00376860 0.00724734
v 0.03174454 -0.00853729 -0.00924499
v 0.03210023 -0.00953920 -0.00956668
v 0.03210023 -0.01010147 -0.00941693
v 0.03210023 -0.01010336 -0.00941693
v 0.03174220 -0.00995430 -0.00887060
v 0.01366053 -0.00853729 0.00644310
v 0.01362543 -0.00827691 0.00670101
v 0.02154654 -0.00666179 0.00195049
v 0.02989589 -0.00853729 -0.00705969
v 0.00892424 -0.00853729 0.00670656
v 0.00946948 -0.00873730 -0.00679346
v 0.00963094 -0.00878069 0.00670656
v 0.02223920 -0.01130716 -0.01387626
v 0.02555039 -0.01192415 -0.01617526
v 0.02670872 -0.01201849 -0.01657182
v 0.02781791 -0.01205245 -0.01669662
v 0.02782025 -0.00853729 -0.01763951
v 0.02781791 -0.00853729 -0.01763951
v 0.02670872 -0.00853729 -0.01750640
v 0.01362543 0.00134591 -0.01491899
v 0.01362543 0.00174215 -0.01488848
v 0.01362543 0.00228933 -0.01479142
v 0.01362543 0.00279123 -0.01459452
v 0.01362543 0.00305727 -0.01442813
v 0.01362543 0.00326105 -0.01422846
v 0.02557613 -0.00853729 -0.01709319
v 0.01362543 -0.00817691 -0.01257285
v 0.01362543 0.00013834 -0.01479974
v 0.01362543 0.00073081 -0.01490235
v 0.00892424 -0.00853729 -0.00681287
v 0.01041252 -0.00868258 -0.00823553
v 0.01041252 -0.00892409 -0.00734533
v 0.02223920 -0.01126942 -0.01424510
v 0.01041252 -0.00894296 -0.00716785
v 0.01041252 -0.00894673 -0.00216219
v 0.01533368 -0.01001468 -0.00909246
v 0.01362543 -0.00853729 -0.01243696
v 0.01397878 -0.00853729 -0.01260058
v 0.01362543 -0.00843163 -0.01249242
v 0.02223920 -0.01103923 -0.01509093
v 0.01331888 -0.00853729 -0.01229275
v 0.01289533 -0.00853729 -0.01202652
v 0.01041252 -0.00853729 -0.00876799
f 1 2 3
f 1 3 4
f 1 4 5
f 1 5 2
f 2 5 6
f 2 6 7
f 2 7 8
f 2 8 3
f 3 8 9
f 3 9 10
f 3 10 11
f 3 11 4
f 4 12 13
f 4 13 5
f 4 11 12
f 5 13 14
f 5 14 15
f 5 15 16
f 5 16 6
f 6 16 17
f 6 17 7
f 7 17 18
f 7 18 8
f 8 18 19
f 8 19 9
f 9 19 20
f 9 20 21
f 9 21 22
f 9 22 23
f 9 23 24
f 9 24 10
f 10 25 26
f 10 26 27
f 10 27 28
f 10 28 29
f 10 29 30
f 10 30 11
f 10 24 25
f 11 30 12
f 12 31 13
f 12 30 31
f 13 31 32
f 13 32 33
f 13 33 14
f 14 33 34
f 14 34 35
f 14 35 15
f 15 35 36
f 15 36 37
f 15 37 38
f 15 38 39
f 15 39 40
f 15 40 41
f 15 41 42
f 15 42 43
f 15 43 44
f 15 44 45
f 15 45 46
f 15 46 47
f 15 47 48
f 15 48 49
f 15 49 50
f 15 50 17
f 15 17 16
f 17 51 20
f 17 20 19
f 17 19 18
f 17 50 51
f 20 51 21
f 21 51 50
f 21 50 52
f 21 52 22
f 22 52 53
f 22 53 54
f 22 54 23
f 23 55 24
f 23 54 56
f 23 56 55
f 24 55 57
f 24 57 58
f 24 58 59
f 24 59 60
f 24 60 61
f 24 61 62
f 24 62 25
f 25 62 63
f 25 63 64
f 25 64 65
f 25 65 26
f 26 65 42
f 26 42 66
f 26 66 27
f 27 40 67
f 27 67 28
f 27 66 41
f 27 41 40
f 28 67 40
f 28 40 29
f 29 40 68
f 29 68 31
f 29 31 30
f 31 68 69
f 31 69 70
f 31 70 32
f 32 70 71
f 32 71 33
f 33 71 34
f 34 36 35
f 34 71 72
f 34 72 36
f 36 73 37
f 36 72 73
f 37 73 74
f 37 74 38
f 38 40 39
f 38 74 75
f 38 75 40
f 40 75 76
f 40 76 68
f 41 66 42
f 42 65 64
f 42 64 77
f 42 77 43
f 43 77 78
f 43 78 79
f 43 79 44
f 44 79 80
f 44 80 45
f 45 80 81
f 45 81 82
f 45 82 46
f 46 82 83
f 46 83 47
f 47 83 48
f 48 83 56
f 48 56 49
f 49 56 54
f 49 54 53
f 49 53 50
f 50 53 52
f 55 56 84
f 55 84 85
f 55 85 57
f 56 83 84
f 57 85 86
f 57 86 58
f 58 87 88
f 58 88 89
f 58 89 90
f 58 90 91
f 58 91 92
f 58 92 59
f 58 86 93
f 58 93 94
f 58 94 95
f 58 95 96
f 58 96 87
f 59 92 97
f 59 97 60
f 60 97 61
f 61 97 62
f 62 97 63
f 63 97 77
f 63 77 64
f 68 76 72
f 68 72 70
f 68 70 69
f 70 72 71
f 72 76 75
f 72 75 74
f 72 74 73
f 77 97 78
f 78 97 98
f 78 98 99
f 78 99 100
f 78 100 101
f 78 101 102
f 78 102 79
f 79 102 103
f 79 103 80
f 80 100 81
f 80 103 101
f 80 101 100
f 81 104 105
f 81 105 106
f 81 106 94
f 81 94 93
f 81 93 86
f 81 86 82
f 81 100 107
f 81 107 108
f 81 108 104
f 82 86 83
f 83 86 85
f 83 85 84
f 87 96 97
f 87 97 88
f 88 97 89
f 89 97 90
f 90 97 91
f 91 97 92
f 94 106 108
f 94 108 95
f 95 108 109
f 95 109 110
f 95 110 97
f 95 97 96
f 97 110 98
f 98 110 109
f 98 109 100
f 98 100 99
f 100 109 107
f 101 103 102
f 104 106 105
f 104 108 106
f 107 109 108

