# https://github.com/mikedh/trimesh
v 0.05386116 0.02864034 -0.00625187
v 0.05199837 0.02800692 -0.00088703
v 0.05693623 0.02861705 -0.00444889
v 0.05574612 0.02752254 -0.00946588
v 0.04934464 0.02680063 -0.01024978
v 0.04879024 0.02791843 -0.00594321
v 0.05325501 0.02592502 0.00364491
v 0.05712842 0.02742473 0.00079836
v 0.04624739 0.02685186 -0.00247689
v 0.04636566 0.02662830 -0.00122509
v 0.04904896 0.02664693 0.00136669
v 0.06642757 0.02240860 -0.00318485
v 0.06611710 0.02294422 -0.00680305
v 0.06295332 0.02364284 -0.01051435
v 0.05723930 0.02484448 -0.01237367
v 0.05071956 0.02463955 -0.01318207
v 0.04660960 0.02483516 -0.01176614
v -0.00477223 0.00766295 -0.00883385
v -0.00377431 0.00819390 -0.00852029
v 0.04542688 0.02620447 -0.00836841
v 0.04534557 0.02670282 -0.00500253
v 0.04615869 0.02697296 -0.00373358
v 0.05717277 0.02470010 0.00452190
v 0.04797712 0.02463955 0.00401481
v 0.05021690 0.02293956 0.00622934
v 0.06484568 0.02116971 0.00167290
v -0.00355255 0.00827774 0.00051174
v -0.00286509 0.00848733 0.00076406
v 0.04651351 0.02630693 0.00000221
v 0.04691267 0.02539872 0.00230247
v 0.06631669 0.01933465 -0.00245729
v 0.06500830 0.01783959 -0.00633271
v 0.06406213 0.01908780 -0.00926255
v 0.06222152 0.02082040 -0.01183473
v 0.05795633 0.02187765 -0.01357647
v 0.05117047 0.02085766 -0.01507813
v 0.04641002 0.02137464 -0.01433342
v 0.04670570 0.02329353 -0.01325066
v -0.00517139 0.00733227 -0.00898573
v -0.00532663 0.00729966 0.00109722
v 0.05285585 0.02073656 0.00746398
v 0.05980433 0.02033602 0.00558997
v -0.00287987 0.00831034 0.00105803
v 0.04564125 0.02265545 0.00520046
v 0.04598128 0.02191491 0.00594762
v 0.04632870 0.02114642 0.00658699
v 0.04782189 0.01993547 0.00760117
v 0.06508222 0.01765329 -0.00004679
v 0.06228065 0.01672645 0.00388498
v 0.06477176 0.01669385 -0.00319220
v 0.05893947 0.00938623 -0.00331224
v 0.05513998 0.00597693 -0.00768250
v 0.05567959 0.00831500 -0.01018364
v 0.05857726 0.01499386 -0.01236877
v 0.05772718 0.01792343 -0.01405661
v 0.05211664 0.01784891 -0.01549213
v 0.04450288 0.01460729 -0.01649651
v 0.04248486 0.01715494 -0.01546518
v -0.00535620 0.00661035 -0.00920621
v -0.00733725 0.00553447 -0.00904943
v 0.04063686 0.01487742 -0.01594533
v -0.00674589 0.00610734 0.00116581
v 0.01529707 0.00326161 0.00728271
v 0.05599745 0.01701987 0.00700834
v 0.04805843 0.01817493 0.00807396
v 0.05060128 0.01735056 0.00814010
v 0.05956039 0.01154731 0.00191542
v 0.05770500 0.01337305 0.00521271
v 0.05371332 0.00375065 -0.00347636
v 0.05028343 0.00082108 -0.00611469
v 0.05056432 0.00355969 -0.01089895
v 0.05189488 0.00789117 -0.01325801
v 0.04913767 0.00916267 -0.01522511
v 0.04723792 0.01275360 -0.01639362
v 0.04010464 0.00871089 -0.01671698
v 0.03901062 0.01103498 -0.01657490
v 0.01435089 0.00460297 -0.01392188
v 0.01217025 -0.00284438 -0.01531085
v -0.00887479 0.00217175 -0.00903963
v -0.00812820 0.00417914 0.00118296
v 0.00976046 -0.00693832 -0.01535740
v 0.01570363 0.00217175 0.00760852
v 0.05302586 0.01409962 0.00753503
v 0.04363801 0.01361990 0.00825279
v 0.04504250 0.01133306 0.00830913
v 0.05242711 0.00655912 0.00360816
v 0.05135527 0.00215312 -0.00127654
v 0.04946291 0.00798432 0.00650370
v 0.04642480 0.00022026 -0.01032817
v 0.04496858 -0.00158685 -0.00047059
v 0.04408154 -0.00259753 -0.00407899
v 0.04365280 -0.00251835 -0.00663158
v 0.04375629 -0.00163343 -0.00917191
v 0.04638045 0.00310791 -0.01337559
v 0.04184176 0.00351777 -0.01527901
v 0.04118387 0.00480790 -0.01586938
v 0.04083645 0.00693172 -0.01647201
v 0.00910996 -0.00964899 -0.01522756
v -0.00908177 -0.00154493 -0.00869177
v -0.00908916 0.00041587 0.00103843
v -0.00885261 0.00207395 0.00121971
v -0.00558535 -0.01155857 -0.01117821
v 0.01599931 0.00121697 0.00767221
v -0.00545968 -0.01045940 0.00326520
v 0.04556733 0.00764898 0.00759627
v 0.04295795 0.00944677 0.00815480
v 0.04637306 0.00144053 0.00311332
v 0.04263270 0.00364818 0.00640082
v 0.04256617 -0.00127014 -0.01084750
v 0.03977939 -0.00133535 -0.01245451
v 0.04051859 -0.00290958 0.00114866
v 0.01062532 -0.01757140 -0.00041914
v 0.04088819 -0.00391095 -0.00215353
v 0.00945738 -0.01856345 -0.00261897
v 0.00863687 -0.01893139 -0.00415003
v 0.00841511 -0.01861934 -0.00664137
v 0.00834119 -0.01773907 -0.00938504
v 0.03943936 0.00026218 -0.01400026
v 0.00851121 -0.01396184 -0.01370140
v 0.00867383 -0.01214075 -0.01457350
v -0.00892653 -0.00200137 0.00066117
v -0.00541533 -0.01204760 0.00322356
v -0.00432131 -0.01321664 -0.01078626
v 0.01626542 0.00007122 0.00755952
v 0.01502356 -0.00569011 0.00648166
v 0.01189675 -0.01127911 0.00515147
v 0.04099907 0.00103067 0.00519067
v 0.04105820 -0.00125151 0.00315497
v 0.01151236 -0.01297445 0.00440676
v 0.00832641 -0.01682154 -0.01102633
v 0.00837076 -0.01555005 -0.01251820
v 0.01024094 -0.01667716 0.00152102
v 0.00865905 -0.01794400 -0.00061512
v -0.00330861 -0.01366376 0.00299574
v -0.00448394 -0.01305362 0.00314762
v 0.01074359 -0.01519142 0.00297614
f 1 2 3
f 1 3 4
f 1 4 5
f 1 5 6
f 1 6 2
f 2 7 8
f 2 8 3
f 2 6 9
f 2 9 10
f 2 10 11
f 2 11 7
f 3 8 12
f 3 12 13
f 3 13 14
f 3 14 4
f 4 14 15
f 4 15 16
f 4 16 5
f 5 16 17
f 5 17 18
f 5 18 19
f 5 19 20
f 5 20 6
f 6 20 19
f 6 19 21
f 6 21 22
f 6 22 9
f 7 23 8
f 7 11 24
f 7 24 25
f 7 25 23
f 8 23 26
f 8 26 12
f 9 22 27
f 9 27 28
f 9 28 10
f 10 29 11
f 10 28 29
f 11 29 28
f 11 28 30
f 11 30 24
f 12 26 31
f 12 31 13
f 13 31 32
f 13 32 33
f 13 33 34
f 13 34 14
f 14 34 35
f 14 35 15
f 15 35 36
f 15 36 16
f 16 36 37
f 16 37 38
f 16 38 17
f 17 38 18
f 18 39 40
f 18 40 27
f 18 27 19
f 18 38 39
f 19 27 21
f 21 27 22
f 23 25 41
f 23 41 42
f 23 42 26
f 24 30 43
f 24 43 44
f 24 44 25
f 25 44 45
f 25 45 46
f 25 46 47
f 25 47 41
f 26 48 31
f 26 42 49
f 26 49 48
f 27 40 28
f 28 40 43
f 28 43 30
f 31 48 50
f 31 50 32
f 32 50 51
f 32 51 52
f 32 52 53
f 32 53 33
f 33 53 54
f 33 54 34
f 34 54 55
f 34 55 35
f 35 55 56
f 35 56 36
f 36 56 57
f 36 57 58
f 36 58 37
f 37 58 39
f 37 39 38
f 39 59 60
f 39 60 40
f 39 58 61
f 39 61 59
f 40 60 62
f 40 62 63
f 40 63 47
f 40 47 46
f 40 46 45
f 40 45 44
f 40 44 43
f 41 64 42
f 41 47 65
f 41 65 66
f 41 66 64
f 42 64 49
f 47 63 65
f 48 49 67
f 48 67 51
f 48 51 50
f 49 64 68
f 49 68 67
f 51 67 69
f 51 69 52
f 52 69 70
f 52 70 71
f 52 71 53
f 53 71 72
f 53 72 54
f 54 72 55
f 55 72 73
f 55 73 74
f 55 74 56
f 56 74 57
f 57 75 76
f 57 76 61
f 57 61 58
f 57 74 75
f 59 61 77
f 59 77 78
f 59 78 60
f 60 79 80
f 60 80 62
f 60 78 81
f 60 81 79
f 61 76 78
f 61 78 77
f 62 80 82
f 62 82 63
f 63 82 65
f 64 66 83
f 64 83 68
f 65 82 84
f 65 84 66
f 66 84 85
f 66 85 83
f 67 68 86
f 67 86 87
f 67 87 69
f 68 83 88
f 68 88 86
f 69 87 70
f 70 89 71
f 70 87 90
f 70 90 91
f 70 91 92
f 70 92 93
f 70 93 89
f 71 89 94
f 71 94 72
f 72 94 73
f 73 94 95
f 73 95 96
f 73 96 97
f 73 97 74
f 74 97 75
f 75 97 98
f 75 98 81
f 75 81 76
f 76 81 78
f 79 99 100
f 79 100 101
f 79 101 80
f 79 81 102
f 79 102 99
f 80 101 82
f 81 98 102
f 82 103 84
f 82 101 104
f 82 104 103
f 83 85 105
f 83 105 88
f 84 103 85
f 85 103 106
f 85 106 105
f 86 88 107
f 86 107 87
f 87 107 90
f 88 105 108
f 88 108 107
f 89 93 109
f 89 109 110
f 89 110 94
f 90 111 112
f 90 112 113
f 90 113 91
f 90 107 111
f 91 113 114
f 91 114 115
f 91 115 92
f 92 115 116
f 92 116 93
f 93 116 117
f 93 117 109
f 94 110 118
f 94 118 95
f 95 118 119
f 95 119 120
f 95 120 96
f 96 120 98
f 96 98 97
f 98 120 102
f 99 102 121
f 99 121 100
f 100 121 122
f 100 122 104
f 100 104 101
f 102 123 122
f 102 122 121
f 102 120 123
f 103 124 106
f 103 104 122
f 103 122 124
f 105 106 125
f 105 125 126
f 105 126 108
f 106 124 125
f 107 108 127
f 107 127 128
f 107 128 111
f 108 126 129
f 108 129 127
f 109 117 130
f 109 130 110
f 110 130 131
f 110 131 118
f 111 128 132
f 111 132 112
f 112 132 133
f 112 133 114
f 112 114 113
f 114 133 115
f 115 133 134
f 115 134 123
f 115 123 116
f 116 123 117
f 117 123 130
f 118 131 119
f 119 131 123
f 119 123 120
f 122 123 135
f 122 135 125
f 122 125 124
f 123 134 135
f 123 131 130
f 125 135 126
f 126 135 134
f 126 134 129
f 127 129 136
f 127 136 128
f 128 136 132
f 129 134 136
f 132 134 133
f 132 136 134

