# https://github.com/mikedh/trimesh
v 0.05386128 0.02864034 -0.00625225
v 0.05693632 0.02861706 -0.00444944
v 0.05573883 0.02751791 -0.00946357
v 0.04934481 0.02680068 -0.01024795
v 0.04879041 0.02791380 -0.00594651
v 0.05199851 0.02800694 -0.00088811
v 0.05709895 0.02762038 -0.00007631
v 0.06642756 0.02240411 -0.00318642
v 0.06611710 0.02293971 -0.00680469
v 0.06294596 0.02363832 -0.01051363
v 0.05723200 0.02483992 -0.01237337
v 0.05071971 0.02463966 -0.01318094
v 0.04543448 0.02620453 -0.00837134
v 0.04660979 0.02483061 -0.01176611
v 0.02992620 0.01926038 -0.01081304
v 0.02992620 0.01993570 -0.00973979
v -0.00377362 0.00818978 -0.00851683
v 0.04534577 0.02669822 -0.00500610
v 0.04616628 0.02696834 -0.00373465
v 0.04624759 0.02684725 -0.00247795
v 0.04636586 0.02661904 -0.00122547
v 0.05093407 0.02751791 -0.00007631
v 0.05222027 0.02762969 -0.00007631
v 0.05446003 0.02772284 -0.00007631
v 0.05916869 0.02631631 -0.00007631
v 0.01171987 -0.01202325 0.00482184
v 0.06631668 0.01932558 -0.00245897
v 0.06541487 0.02161236 -0.00007631
v 0.06500831 0.01783988 -0.00633449
v 0.06406215 0.01908806 -0.00926115
v 0.06222155 0.02081594 -0.01183358
v 0.05795641 0.02187317 -0.01357524
v 0.05116322 0.02085786 -0.01507864
v 0.04641021 0.02137017 -0.01433221
v 0.04670589 0.02329367 -0.01325053
v -0.00477153 0.00766816 -0.00883101
v -0.00362578 0.00824102 -0.00008897
v -0.00355925 0.00827362 -0.00008897
v 0.02868436 0.02042472 -0.00312949
v 0.02992620 0.02086718 -0.00234933
v 0.02992620 0.02076471 -0.00149958
v 0.02992620 0.02074608 -0.00140048
v 0.02869175 0.02011268 -0.00051068
v 0.04650631 0.02632563 -0.00007631
v 0.01005669 0.01330825 -0.00008897
v 0.00643464 0.01199486 -0.00008897
v 0.00347048 0.01090504 -0.00008897
v 0.00175555 0.01027163 -0.00008897
v 0.00517801 -0.01202325 0.00432001
v -0.00330793 -0.01366265 0.00299584
v 0.00978319 -0.01305253 0.00424199
v 0.01150551 -0.01297335 0.00440435
v 0.01328696 -0.01202325 0.00451821
v 0.05740202 0.00866484 -0.00007631
v 0.05932392 0.01071874 -0.00007631
v 0.06503049 0.01756975 -0.00007631
v 0.06508223 0.01763961 -0.00007631
v 0.06509702 0.01766756 -0.00007631
v 0.06546661 0.02039212 -0.00007631
v 0.02992620 0.02041541 -0.00007631
v 0.06477177 0.01668951 -0.00319275
v 0.05893215 0.00938673 -0.00331294
v 0.05514008 0.00598219 -0.00768396
v 0.05567969 0.00831553 -0.01018470
v 0.05857733 0.01498956 -0.01236915
v 0.05772726 0.01791905 -0.01405388
v 0.05210939 0.01784454 -0.01549191
v 0.04450309 0.01460300 -0.01649558
v 0.04248510 0.01715524 -0.01546450
v 0.02992620 0.01812864 -0.01187154
v -0.00516330 0.00733283 -0.00898282
v -0.00603555 0.00662025 -0.00893433
v -0.00555507 0.00709530 -0.00008897
v -0.00525201 0.00734214 -0.00008897
v 0.00502278 -0.01202325 0.00430736
v 0.01820999 0.01625171 -0.00008897
v -0.00446846 -0.01305253 0.00314976
v -0.00448324 -0.01305719 0.00314555
v -0.00432062 -0.01321554 -0.01078563
v -0.00012200 -0.01506917 -0.00863280
v 0.00863744 -0.01893015 -0.00415003
v 0.00865961 -0.01794278 -0.00061821
v 0.01023409 -0.01667597 0.00151986
v 0.01073675 -0.01519027 0.00297476
v 0.01148333 -0.01305253 0.00435375
v 0.01350872 -0.01202325 0.00445706
v 0.04999530 0.00196287 -0.00007631
v 0.05161413 0.00323899 -0.00007631
v 0.05443785 0.00568411 -0.00007631
v 0.05135542 0.00215848 -0.00127608
v 0.05371344 0.00375596 -0.00347740
v 0.05028358 0.00082181 -0.00611731
v 0.05056448 0.00356501 -0.01089949
v 0.05189503 0.00789637 -0.01325685
v 0.04913044 0.00915852 -0.01522624
v 0.04723811 0.01274470 -0.01639226
v 0.04011228 0.00871141 -0.01671487
v 0.03901089 0.01103079 -0.01657571
v 0.04063711 0.01487778 -0.01594314
v 0.02868436 0.01290771 -0.01412979
v -0.00534810 0.00661559 -0.00920422
v -0.00732914 0.00553042 -0.00904608
v -0.00686345 0.00598684 -0.00098088
v -0.00681170 0.00603342 -0.00008897
v -0.00537767 -0.01202325 0.00322989
v -0.00534071 -0.01202325 0.00323411
v -0.00174823 -0.01202325 0.00361365
v -0.00540723 -0.01204654 0.00322146
v -0.00444628 -0.01305253 -0.01082148
v -0.00522983 -0.01202325 -0.01106607
v 0.00585807 -0.01202325 -0.01389996
v 0.00868179 -0.01213968 -0.01457048
v 0.00859309 -0.01305253 -0.01413612
v 0.00851177 -0.01396072 -0.01369754
v 0.00837133 -0.01554889 -0.01251675
v 0.00832698 -0.01682035 -0.01102390
v 0.00834176 -0.01773786 -0.00938345
v 0.00836393 -0.01798004 -0.00863491
v 0.00841568 -0.01861810 -0.00664023
v -0.00542202 -0.01202325 0.00258046
v 0.00945794 -0.01856221 -0.00261922
v 0.02337695 -0.01202325 -0.00520009
v 0.02362828 -0.01202325 -0.00412262
v 0.02141070 -0.01305253 -0.00312317
v 0.01061847 -0.01757019 -0.00042212
v 0.01983621 -0.01305253 0.00006285
v 0.02165463 -0.01202325 0.00040865
v 0.01820999 -0.01305253 0.00142076
v 0.01988796 -0.01202325 0.00178343
v 0.01954054 -0.01202325 0.00201326
v 0.01762603 -0.01202325 0.00301693
v 0.01664290 -0.01202325 0.00340912
v 0.01642853 -0.01202325 0.00348081
v 0.04512402 -0.00125073 -0.00007631
v 0.04496878 -0.00158140 -0.00047272
v 0.04408175 -0.00259671 -0.00407834
v 0.04365302 -0.00251288 -0.00663390
v 0.04376390 -0.00162797 -0.00916838
v 0.04642500 0.00022566 -0.01032808
v 0.04638064 0.00310858 -0.01337493
v 0.04184200 0.00352309 -0.01527684
v 0.04119151 0.00480853 -0.01586934
v 0.04083669 0.00693695 -0.01647028
v 0.02992620 0.00123631 -0.01604435
v 0.02992620 0.00268942 -0.01622780
v 0.02868436 0.00282914 -0.01620460
v 0.02992620 0.00546056 -0.01619828
v 0.02992620 0.00634546 -0.01614767
v 0.01215600 -0.00283424 -0.01531058
v 0.02992620 0.01068614 -0.01512081
v 0.01950358 0.00662025 -0.01431745
v 0.01435140 0.00460360 -0.01391894
v -0.00886666 0.00217711 -0.00903343
v -0.00811268 0.00413786 -0.00098088
v -0.00795745 0.00446388 -0.00098088
v 0.00705556 -0.00495800 -0.01435751
v -0.00801659 0.00435210 -0.00008897
v -0.00540723 -0.01202325 0.00322146
v -0.00541463 -0.01202325 0.00321513
v -0.00893319 -0.00195399 -0.00008897
v -0.00871143 -0.00259671 -0.00008897
v -0.00558464 -0.01155285 -0.01117361
v 0.00911791 -0.00964333 -0.01522624
v 0.00870396 -0.01202325 -0.01460211
v 0.00890355 -0.01202325 -0.01458102
v 0.00892572 -0.01202325 -0.01457680
v 0.01208947 -0.01202325 -0.01389996
v 0.01280649 -0.01202325 -0.01371019
v 0.01529757 -0.01202325 -0.01284779
v 0.01220035 -0.01202325 -0.01387466
v 0.03943962 0.00026758 -0.01399906
v 0.01616242 -0.01202325 -0.01250199
v 0.01806954 -0.01202325 -0.01146880
v 0.01662072 -0.01305253 -0.01098384
v 0.01864611 -0.01305253 -0.00932230
v 0.01889005 -0.01202325 -0.01096908
v 0.04256641 -0.00126470 -0.01084889
v 0.02284473 -0.01202325 -0.00664023
v -0.00789092 -0.00495800 -0.00008897
v -0.00789092 -0.00495800 -0.00300931
v 0.02127764 -0.01305253 -0.00244421
v 0.02063454 -0.01305253 -0.00099353
v 0.02033147 -0.01305253 -0.00043477
v 0.02216467 -0.01202325 -0.00005523
v 0.02193552 -0.01202325 0.00017249
v 0.04388217 -0.00190276 -0.00007631
v 0.02047192 -0.01202325 0.00139334
v 0.03939527 -0.00399858 -0.00007631
v 0.02254166 -0.01202325 -0.00043688
v 0.04088844 -0.00390078 -0.00215745
v 0.03977965 -0.00132990 -0.01245560
v 0.01359003 -0.00495800 -0.01552776
v 0.01296172 -0.00495800 -0.01548980
v 0.00977579 -0.00693273 -0.01535486
v 0.01091415 -0.00495800 -0.01533166
v -0.00864490 0.00120837 -0.00918735
v -0.00892579 0.00120837 -0.00894065
v -0.00908842 0.00018840 -0.00008897
v -0.00898493 0.00120837 -0.00349849
v -0.00897754 0.00120837 -0.00008897
v -0.00884448 0.00209327 -0.00008897
v -0.00821617 0.00393760 -0.00008897
v 0.00571762 -0.00495800 -0.01398219
v -0.00905146 0.00061688 -0.00008897
v -0.00907363 -0.00153483 -0.00868763
v -0.00788353 -0.00495800 -0.00953737
f 1 2 3
f 1 3 4
f 1 4 5
f 1 5 6
f 1 6 2
f 2 7 8
f 2 8 9
f 2 9 10
f 2 10 3
f 2 6 7
f 3 10 11
f 3 11 12
f 3 12 4
f 4 13 5
f 4 12 14
f 4 14 15
f 4 15 16
f 4 16 17
f 4 17 13
f 5 18 19
f 5 19 20
f 5 20 6
f 5 13 17
f 5 17 18
f 6 20 21
f 6 21 22
f 6 22 23
f 6 23 24
f 6 24 7
f 7 25 8
f 7 24 26
f 7 26 25
f 8 27 9
f 8 25 28
f 8 28 27
f 9 27 29
f 9 29 30
f 9 30 31
f 9 31 10
f 10 31 32
f 10 32 11
f 11 32 33
f 11 33 12
f 12 33 34
f 12 34 35
f 12 35 14
f 14 35 15
f 15 35 36
f 15 36 16
f 16 36 17
f 17 36 37
f 17 37 38
f 17 38 39
f 17 39 18
f 18 39 40
f 18 40 19
f 19 40 20
f 20 40 41
f 20 41 42
f 20 42 43
f 20 43 21
f 21 44 22
f 21 43 44
f 22 44 26
f 22 26 23
f 23 26 24
f 25 26 28
f 26 45 46
f 26 46 47
f 26 47 48
f 26 48 38
f 26 38 49
f 26 49 50
f 26 50 51
f 26 51 52
f 26 52 53
f 26 53 54
f 26 54 55
f 26 55 56
f 26 56 57
f 26 57 58
f 26 58 59
f 26 59 28
f 26 44 60
f 26 60 45
f 27 28 59
f 27 59 58
f 27 58 57
f 27 57 61
f 27 61 29
f 29 61 62
f 29 62 63
f 29 63 64
f 29 64 30
f 30 64 65
f 30 65 31
f 31 65 66
f 31 66 32
f 32 66 67
f 32 67 33
f 33 68 69
f 33 69 34
f 33 67 68
f 34 70 35
f 34 69 71
f 34 71 70
f 35 70 36
f 36 71 72
f 36 72 73
f 36 73 74
f 36 74 37
f 36 70 71
f 37 74 75
f 37 75 38
f 38 75 49
f 38 48 39
f 39 48 40
f 40 48 47
f 40 47 46
f 40 46 41
f 41 46 45
f 41 45 42
f 42 45 76
f 42 76 43
f 43 76 44
f 44 76 60
f 45 60 76
f 49 75 77
f 49 77 50
f 50 77 78
f 50 78 79
f 50 79 80
f 50 80 81
f 50 81 82
f 50 82 83
f 50 83 84
f 50 84 51
f 51 84 85
f 51 85 52
f 52 85 86
f 52 86 53
f 53 86 87
f 53 87 88
f 53 88 89
f 53 89 54
f 54 89 90
f 54 90 91
f 54 91 55
f 55 91 62
f 55 62 56
f 56 62 61
f 56 61 57
f 62 91 63
f 63 91 92
f 63 92 93
f 63 93 64
f 64 93 94
f 64 94 65
f 65 94 66
f 66 94 95
f 66 95 96
f 66 96 67
f 67 96 68
f 68 96 97
f 68 97 98
f 68 98 99
f 68 99 69
f 69 99 100
f 69 100 71
f 71 101 102
f 71 102 72
f 71 100 101
f 72 102 103
f 72 103 73
f 73 103 104
f 73 104 105
f 73 105 74
f 74 106 107
f 74 107 75
f 74 105 106
f 75 107 77
f 77 107 106
f 77 106 105
f 77 105 108
f 77 108 78
f 78 108 79
f 79 109 110
f 79 110 111
f 79 111 112
f 79 112 113
f 79 113 114
f 79 114 115
f 79 115 116
f 79 116 117
f 79 117 118
f 79 118 119
f 79 119 80
f 79 108 120
f 79 120 109
f 80 119 81
f 81 121 82
f 81 119 122
f 81 122 123
f 81 123 124
f 81 124 121
f 82 121 125
f 82 125 83
f 83 125 126
f 83 126 127
f 83 127 128
f 83 128 129
f 83 129 130
f 83 130 84
f 84 130 131
f 84 131 132
f 84 132 85
f 85 132 133
f 85 133 86
f 86 133 134
f 86 134 87
f 87 134 90
f 87 90 88
f 88 90 89
f 90 134 135
f 90 135 92
f 90 92 91
f 92 135 136
f 92 136 137
f 92 137 138
f 92 138 139
f 92 139 93
f 93 139 140
f 93 140 94
f 94 140 95
f 95 140 141
f 95 141 142
f 95 142 143
f 95 143 96
f 96 143 97
f 97 143 144
f 97 144 145
f 97 145 146
f 97 146 147
f 97 147 98
f 98 147 148
f 98 148 99
f 99 148 149
f 99 149 150
f 99 150 151
f 99 151 101
f 99 101 100
f 101 151 152
f 101 152 149
f 101 149 102
f 102 153 154
f 102 154 155
f 102 155 103
f 102 149 156
f 102 156 153
f 103 155 104
f 104 155 157
f 104 157 105
f 105 157 158
f 105 158 108
f 108 158 159
f 108 159 160
f 108 160 161
f 108 161 120
f 109 120 110
f 110 120 162
f 110 162 111
f 111 162 163
f 111 163 164
f 111 164 112
f 112 164 165
f 112 165 166
f 112 166 113
f 113 166 141
f 113 141 167
f 113 167 114
f 114 168 169
f 114 169 115
f 114 167 170
f 114 170 171
f 114 171 168
f 115 169 172
f 115 172 173
f 115 173 116
f 116 173 174
f 116 174 117
f 117 175 118
f 117 174 176
f 117 176 177
f 117 177 175
f 118 175 138
f 118 138 119
f 119 138 178
f 119 178 122
f 120 161 179
f 120 179 180
f 120 180 162
f 121 124 181
f 121 181 182
f 121 182 125
f 122 178 137
f 122 137 136
f 122 136 123
f 123 136 124
f 124 136 181
f 125 182 183
f 125 183 184
f 125 184 126
f 126 184 185
f 126 185 127
f 127 185 186
f 127 186 187
f 127 187 128
f 128 187 129
f 129 187 186
f 129 186 130
f 130 186 131
f 131 186 134
f 131 134 132
f 132 134 133
f 134 186 135
f 135 186 188
f 135 188 189
f 135 189 182
f 135 182 190
f 135 190 136
f 136 190 181
f 137 178 138
f 138 177 139
f 138 175 177
f 139 177 191
f 139 191 140
f 140 191 171
f 140 171 141
f 141 171 170
f 141 170 167
f 141 166 165
f 141 165 142
f 142 165 163
f 142 163 144
f 142 144 143
f 144 163 145
f 145 163 192
f 145 192 146
f 146 192 193
f 146 193 147
f 147 193 149
f 147 149 148
f 149 193 194
f 149 194 195
f 149 195 156
f 149 152 151
f 149 151 150
f 153 196 197
f 153 197 198
f 153 198 199
f 153 199 200
f 153 200 201
f 153 201 202
f 153 202 154
f 153 156 203
f 153 203 196
f 154 202 155
f 155 202 157
f 156 195 194
f 156 194 203
f 157 202 158
f 158 202 201
f 158 201 200
f 158 200 204
f 158 204 198
f 158 198 159
f 159 198 160
f 160 198 205
f 160 205 161
f 161 180 179
f 161 205 180
f 162 180 206
f 162 206 196
f 162 196 203
f 162 203 194
f 162 194 163
f 163 165 164
f 163 194 192
f 168 171 169
f 169 171 172
f 171 191 172
f 172 191 173
f 173 191 177
f 173 177 174
f 174 177 176
f 180 205 206
f 181 190 182
f 182 189 183
f 183 189 184
f 184 189 188
f 184 188 185
f 185 188 186
f 192 194 193
f 196 206 205
f 196 205 197
f 197 205 198
f 198 204 199
f 199 204 200

