# https://github.com/mikedh/trimesh
v 0.02782185 0.00186281 -0.02042660
v 0.02893310 0.00189489 -0.02030458
v 0.02893310 -0.01202072 -0.01657736
v 0.02782185 -0.01205280 -0.01669660
v 0.02671061 -0.01201883 -0.01657458
v 0.02671061 0.00189489 -0.02030180
v 0.01820830 0.00350627 -0.01446970
v 0.03049105 0.00205527 -0.01970279
v 0.02998896 -0.01192449 -0.01622238
v 0.01061049 -0.00893004 0.00790471
v 0.02555137 -0.01192449 -0.01617801
v 0.02565474 0.00199112 -0.01994406
v 0.01614825 0.00722339 -0.00064238
v 0.02079259 0.00696489 -0.00157142
v 0.03255848 0.00272511 -0.01720688
v 0.03173151 0.00234773 -0.01861291
v -0.00016599 0.00499123 -0.00720107
v 0.01343106 0.00448177 -0.01081736
v 0.03136971 -0.01167920 -0.01529890
v -0.00019184 0.00498745 0.00721417
v -0.00213744 0.00445725 0.00720308
v -0.00299394 0.00390440 0.00720863
v -0.00400551 0.00285530 0.00720308
v -0.00468111 0.00136845 0.00720308
v -0.00488786 -0.00015802 0.00720308
v -0.00449283 -0.00199016 0.00720031
v -0.00352557 -0.00341474 0.00720308
v -0.00228142 -0.00443365 0.00720585
v 0.00952140 -0.00875645 0.00700341
v 0.03232590 -0.01132070 -0.01397052
v 0.03269877 -0.01104899 -0.01295275
v 0.03282799 -0.01076030 -0.01187673
v 0.03270247 -0.01047349 -0.01080349
v 0.01186941 -0.00889419 0.00726132
v 0.01271115 -0.00846210 0.00724745
v 0.01354181 -0.00742055 0.00724468
v 0.01505916 0.00284209 0.00743048
v 0.01532866 -0.01001499 -0.00909519
v 0.00946602 -0.00873758 -0.00679895
v -0.00185316 -0.00459026 -0.00720107
v -0.00275028 -0.00408835 -0.00720107
v -0.00352557 -0.00341474 -0.00720107
v -0.00414580 -0.00259585 -0.00720107
v -0.00474388 -0.00119202 -0.00720662
v -0.00486201 0.00035709 -0.00720107
v -0.00468111 0.00136845 -0.00720107
v -0.00409042 0.00272888 -0.00720384
v -0.00300133 0.00389873 -0.00720107
v -0.00213744 0.00445725 -0.00720107
v -0.00117756 0.00482518 -0.00720107
v 0.01184726 0.00494972 0.00704223
v 0.02143866 0.00646864 -0.00144662
v 0.03174259 0.00396100 -0.01259500
v 0.03233697 0.00371382 -0.01351294
v 0.03270247 0.00344023 -0.01453349
v 0.03282799 0.00315342 -0.01560673
v 0.01383347 0.00449876 0.00724745
v -0.00117756 0.00482518 0.00720308
v 0.03233697 -0.01019990 -0.00978295
v 0.03174259 -0.00995461 -0.00886778
v 0.02154572 -0.00666203 0.00195058
v 0.01474904 0.00376854 0.00724745
f 1 2 3
f 1 3 4
f 1 4 5
f 1 5 6
f 1 6 7
f 1 7 2
f 2 7 8
f 2 8 9
f 2 9 3
f 3 9 10
f 3 10 4
f 4 10 5
f 5 10 11
f 5 11 12
f 5 12 6
f 6 12 7
f 7 13 14
f 7 14 15
f 7 15 16
f 7 16 8
f 7 12 17
f 7 17 18
f 7 18 13
f 8 16 19
f 8 19 9
f 9 19 10
f 10 20 21
f 10 21 22
f 10 22 23
f 10 23 24
f 10 24 25
f 10 25 26
f 10 26 27
f 10 27 28
f 10 28 29
f 10 29 11
f 10 19 30
f 10 30 31
f 10 31 32
f 10 32 33
f 10 33 34
f 10 34 35
f 10 35 36
f 10 36 37
f 10 37 20
f 11 38 39
f 11 39 40
f 11 40 41
f 11 41 42
f 11 42 43
f 11 43 12
f 11 29 38
f 12 43 44
f 12 44 45
f 12 45 46
f 12 46 47
f 12 47 48
f 12 48 49
f 12 49 50
f 12 50 17
f 13 18 17
f 13 17 20
f 13 20 51
f 13 51 14
f 14 52 53
f 14 53 54
f 14 54 55
f 14 55 56
f 14 56 15
f 14 51 57
f 14 57 52
f 15 56 31
f 15 31 30
f 15 30 16
f 16 30 19
f 17 50 20
f 20 50 58
f 20 58 21
f 20 37 57
f 20 57 51
f 21 58 50
f 21 50 49
f 21 49 22
f 22 48 23
f 22 49 48
f 23 48 47
f 23 47 24
f 24 47 46
f 24 46 45
f 24 45 25
f 25 45 44
f 25 44 26
f 26 44 43
f 26 43 27
f 27 43 42
f 27 42 41
f 27 41 28
f 28 41 40
f 28 40 39
f 28 39 29
f 29 39 38
f 31 56 32
f 32 56 55
f 32 55 33
f 33 55 54
f 33 54 59
f 33 59 34
f 34 59 60
f 34 60 35
f 35 60 61
f 35 61 36
f 36 61 37
f 37 61 60
f 37 60 53
f 37 53 52
f 37 52 62
f 37 62 57
f 52 57 62
f 53 60 59
f 53 59 54

