# https://github.com/mikedh/trimesh
v 0.01362323 -0.00686746 0.00725050
v 0.01362323 0.00307375 0.00724833
v 0.01191817 -0.00853791 0.00726353
v 0.01255960 -0.00853791 0.00725050
v 0.01353807 -0.00741824 0.00724182
v 0.01362323 -0.00741069 0.00718753
v 0.01362323 0.00450276 0.00724616
v -0.00082904 -0.00354920 0.00721576
v -0.00228224 -0.00443195 0.00720490
v 0.01073495 -0.00853791 0.00725702
v 0.01259403 0.00454199 0.00724399
v -0.00082904 0.00474118 0.00721141
v -0.00299616 0.00390218 0.00720707
v -0.00488786 -0.00015850 0.00720056
v 0.01270637 -0.00846095 0.00724616
v 0.01362323 -0.00853791 0.00646869
v 0.01362323 -0.00853489 0.00647304
v 0.01362323 -0.00827534 0.00669889
v 0.01362323 0.00454199 0.00722662
v -0.00449466 -0.00198739 0.00720056
v 0.00891754 -0.00853791 0.00701162
v -0.00352707 -0.00341188 0.00720056
v -0.00275154 -0.00408790 -0.00720218
v -0.00185462 -0.00459040 -0.00720218
v 0.01184388 0.00494791 0.00704202
v -0.00019304 0.00498714 0.00721141
v -0.00082904 0.00488151 0.00720490
v -0.00213910 0.00445749 0.00720056
v -0.00400724 0.00285494 0.00720273
v -0.00468310 0.00136708 0.00720056
v -0.00213910 0.00445749 -0.00720218
v -0.00300160 0.00389765 -0.00720218
v -0.00486068 0.00035606 -0.00720218
v -0.00474471 -0.00119065 -0.00720652
v 0.01362323 -0.00853791 -0.01244033
v 0.01362323 0.00454501 0.00722445
v -0.00414676 -0.00259552 -0.00720218
v 0.00891573 -0.00853791 0.00021202
v -0.00352707 -0.00341188 -0.00720218
v -0.00018217 -0.00439121 -0.00823591
v 0.01331338 -0.00853791 -0.01229482
v 0.00054987 -0.00501442 -0.00823591
v 0.00891573 -0.00853791 -0.00681996
v 0.01288938 -0.00853791 -0.01202987
v 0.01362323 0.00534930 0.00533289
v 0.01362323 0.00588650 0.00386916
v 0.01362323 0.00687489 0.00057252
v 0.01362323 0.00687790 -0.00165565
v -0.00017130 0.00499016 -0.00385993
v -0.00082904 0.00488302 -0.00720435
v -0.00118057 0.00482568 -0.00720218
v -0.00118057 0.00482568 0.00720056
v -0.00409240 0.00272668 -0.00720218
v -0.00468310 0.00136708 -0.00720218
v -0.00082904 0.00454048 -0.00761046
v 0.01362323 0.00305715 -0.01442744
v 0.00011137 0.00425528 -0.00823591
v 0.00008238 0.00423718 -0.00823591
v -0.00082904 0.00375430 -0.00817076
v -0.00082904 0.00065635 -0.00888308
v -0.00082904 0.00057034 -0.00888742
v -0.00082904 0.00043755 -0.00888525
v -0.00082904 -0.00078322 -0.00885050
v -0.00082904 -0.00090847 -0.00882878
v 0.01362323 -0.00842926 -0.01249245
v -0.00082904 -0.00208095 -0.00862464
v -0.00082904 -0.00338019 -0.00827500
v -0.00082904 -0.00363521 -0.00820551
v -0.00022384 -0.00433689 -0.00823591
v 0.01362323 -0.00817575 -0.01257063
v -0.00016586 0.00499016 -0.00720435
v 0.00813296 0.00612643 -0.00386210
v 0.01362323 0.00467629 -0.01009272
v 0.01348733 0.00454048 -0.01059872
v 0.01343116 0.00454048 -0.01059221
v 0.00370451 0.00454048 -0.00911545
v 0.01362323 0.00338762 -0.01400612
v 0.01362323 0.00325935 -0.01422981
v 0.00085065 0.00454048 -0.00823591
v -0.00082904 0.00264670 -0.00860293
v -0.00082904 0.00144555 -0.00882227
v 0.01362323 0.00279006 -0.01459248
v 0.01362323 0.00228606 -0.01479011
v 0.01362323 0.00134596 -0.01492258
v 0.01362323 0.00072878 -0.01490304
v 0.01362323 0.00013877 -0.01479880
v 0.01362323 -0.00338170 -0.01385628
v 0.01184025 0.00454048 -0.01039675
v 0.01362323 0.00387502 -0.01265532
v 0.01362323 0.00454048 -0.01059872
v 0.01362323 0.00444089 -0.01096791
v 0.01342754 0.00448012 -0.01081806
v 0.01362323 0.00174131 -0.01489001
f 1 2 3
f 1 3 4
f 1 4 5
f 1 5 6
f 1 6 18
f 1 18 17
f 1 17 16
f 1 16 35
f 1 35 65
f 1 65 70
f 1 70 87
f 1 87 86
f 1 86 85
f 1 85 84
f 1 84 93
f 1 93 83
f 1 83 82
f 1 82 56
f 1 56 78
f 1 78 77
f 1 77 89
f 1 89 91
f 1 91 90
f 1 90 73
f 1 73 48
f 1 48 47
f 1 47 46
f 1 46 45
f 1 45 36
f 1 36 19
f 1 19 7
f 1 7 2
f 2 7 3
f 3 8 9
f 3 9 10
f 3 10 21
f 3 21 38
f 3 38 43
f 3 43 44
f 3 44 41
f 3 41 35
f 3 35 16
f 3 16 4
f 3 7 11
f 3 11 12
f 3 12 13
f 3 13 14
f 3 14 8
f 4 15 5
f 4 16 17
f 4 17 15
f 5 15 6
f 6 15 18
f 7 19 11
f 8 14 20
f 8 20 9
f 9 21 10
f 9 20 22
f 9 22 23
f 9 23 24
f 9 24 21
f 11 19 25
f 11 25 26
f 11 26 12
f 12 26 27
f 12 27 28
f 12 28 13
f 13 29 30
f 13 30 14
f 13 28 31
f 13 31 32
f 13 32 29
f 14 30 33
f 14 33 34
f 14 34 20
f 15 17 18
f 19 36 25
f 20 34 37
f 20 37 22
f 21 24 38
f 22 37 39
f 22 39 23
f 23 39 40
f 23 40 35
f 23 35 41
f 23 41 42
f 23 42 24
f 24 43 38
f 24 42 44
f 24 44 43
f 25 45 46
f 25 46 26
f 25 36 45
f 26 46 47
f 26 47 48
f 26 48 49
f 26 49 50
f 26 50 51
f 26 51 52
f 26 52 27
f 27 52 28
f 28 52 51
f 28 51 31
f 29 32 53
f 29 53 30
f 30 53 54
f 30 54 33
f 31 51 55
f 31 55 56
f 31 56 57
f 31 57 58
f 31 58 59
f 31 59 32
f 32 59 53
f 33 54 60
f 33 60 61
f 33 61 62
f 33 62 34
f 34 62 63
f 34 63 64
f 34 64 37
f 35 40 65
f 37 64 66
f 37 66 67
f 37 67 68
f 37 68 69
f 37 69 39
f 39 69 40
f 40 69 70
f 40 70 65
f 41 44 42
f 48 71 72
f 48 72 49
f 48 73 74
f 48 74 75
f 48 75 71
f 49 72 71
f 49 71 50
f 50 71 76
f 50 76 77
f 50 77 78
f 50 78 51
f 51 78 79
f 51 79 55
f 53 59 80
f 53 80 54
f 54 80 81
f 54 81 60
f 55 79 56
f 56 82 59
f 56 59 58
f 56 58 57
f 56 79 78
f 59 82 83
f 59 83 80
f 60 81 84
f 60 84 61
f 61 84 62
f 62 84 63
f 63 84 85
f 63 85 64
f 64 85 66
f 66 85 86
f 66 86 87
f 66 87 70
f 66 70 67
f 67 70 68
f 68 70 69
f 71 75 88
f 71 88 89
f 71 89 76
f 73 90 74
f 74 90 91
f 74 91 92
f 74 92 75
f 75 92 88
f 76 89 77
f 80 83 93
f 80 93 81
f 81 93 84
f 88 92 91
f 88 91 89

