# https://github.com/mikedh/trimesh
v -0.03147370 -0.00851502 0.10366783
v -0.03241282 -0.00859928 0.10365877
v -0.03147370 -0.00888949 0.10366783
v -0.03050505 -0.00851502 0.10366557
v -0.03147370 -0.00759133 0.10356589
v -0.03241282 -0.00873034 0.10365877
v -0.03147370 -0.00585940 0.10324873
v -0.03332240 -0.00585940 0.10279338
v -0.03314521 -0.00787530 0.10327591
v -0.03314521 -0.00943248 0.10334161
v -0.03050505 -0.00888013 0.10366557
v -0.03147370 -0.00981319 0.10361799
v -0.02978250 -0.00782537 0.10338465
v -0.02962303 -0.00585940 0.10304257
v -0.03332240 -0.01141093 0.10309468
v -0.03332240 -0.01325832 0.10283642
v -0.03147370 -0.01141093 0.10341863
v -0.02962303 -0.00400889 0.10246262
v -0.03147370 -0.00400889 0.10263706
v -0.03267270 -0.00284803 0.10193704
v -0.03330074 -0.00407442 0.10217491
v -0.03435011 -0.00473286 0.10189627
v -0.03456078 -0.00585940 0.10208883
v -0.03480294 -0.00770991 0.10230857
v -0.03488956 -0.00956354 0.10236068
v -0.03484822 -0.01141093 0.10228139
v -0.02962303 -0.01141093 0.10305390
v -0.02978250 -0.00952610 0.10338465
v -0.02155292 -0.01696247 0.09939976
v -0.02792198 -0.00770991 0.10242638
v -0.02805389 -0.00585940 0.10230178
v -0.02839843 -0.00400889 0.10202539
v -0.02865438 -0.00303214 0.10182830
v -0.03474387 -0.01325832 0.10217265
v -0.03459227 -0.01510884 0.10204352
v -0.03441902 -0.01639764 0.10191439
v -0.03332240 -0.01510884 0.10254191
v -0.03147370 -0.01325832 0.10308335
v -0.02962303 -0.00282618 0.10194837
v -0.03147370 -0.00268888 0.10202993
v -0.03390517 -0.00350023 0.10156551
v -0.03147370 -0.00176206 0.10145677
v -0.03292470 -0.00080716 0.10031273
v -0.03341493 -0.00208972 0.10093799
v -0.03459227 -0.00256717 0.10033085
v -0.03508841 -0.00416492 0.10078621
v -0.03614763 -0.00483272 0.10000916
v -0.03548611 -0.00585940 0.10113961
v -0.03572827 -0.00770991 0.10140467
v -0.03581490 -0.00956354 0.10150208
v -0.03577356 -0.01141093 0.10147943
v -0.03566921 -0.01325832 0.10140467
v -0.03147370 -0.01510884 0.10271862
v -0.02962303 -0.01325832 0.10264612
v -0.02155292 -0.01972107 0.09908260
v -0.02155292 -0.01881298 0.09925251
v -0.02155292 -0.01835113 0.09930008
v -0.02155292 -0.01656927 0.09937484
v -0.02712856 -0.00585940 0.10152927
v -0.02155292 -0.01514004 0.09909846
v -0.02747310 -0.00400889 0.10124382
v -0.02673873 -0.00286987 0.10007260
v -0.02787473 -0.00233625 0.10077035
v -0.02832756 -0.00087893 0.10023571
v -0.02962303 -0.00189937 0.10139787
v -0.03551761 -0.01510884 0.10132085
v -0.03638979 -0.01695935 0.10023797
v -0.03623229 -0.01810773 0.10006807
v -0.03385988 -0.01763340 0.10171503
v -0.03327318 -0.01699367 0.10205938
v -0.03415914 -0.00133142 0.09986191
v -0.02962303 -0.00059808 0.10047131
v -0.03147370 -0.00054503 0.10053021
v -0.03147370 0.00038179 0.09970559
v -0.03285186 0.00094662 0.09851398
v -0.03350747 -0.00017368 0.09918908
v -0.03523411 -0.00205539 0.09912111
v -0.03582474 -0.00359697 0.09961271
v -0.03706902 -0.00585940 0.09902597
v -0.03632088 -0.00585940 0.10021305
v -0.03628150 -0.00277313 0.09837806
v -0.03648626 -0.00413371 0.09900784
v -0.03654532 -0.00770991 0.10047811
v -0.03663983 -0.00956354 0.10057779
v -0.03663392 -0.01141093 0.10055287
v -0.03657682 -0.01325832 0.10048037
v -0.03651382 -0.01510884 0.10039429
v -0.03262545 -0.01796418 0.10184643
v -0.03133785 -0.01713410 0.10211601
v -0.03063105 -0.01786744 0.10179432
v -0.03008176 -0.01663481 0.10201180
v -0.02155292 -0.02058548 0.09879263
v -0.02650445 -0.00400889 0.10031726
v -0.02155292 -0.01326145 0.09832822
v -0.02547870 -0.00387470 0.09898292
v -0.02501997 -0.00316633 0.09805410
v -0.02627016 -0.00221767 0.09905089
v -0.02709312 -0.00163724 0.09968747
v -0.02768376 -0.00024233 0.09907807
v -0.02827440 0.00092789 0.09846867
v -0.02962303 0.00032874 0.09967161
v -0.03731513 -0.01695935 0.09929555
v -0.03807705 -0.01818574 0.09824439
v -0.03777189 -0.01941838 0.09791817
v -0.03571252 -0.01934348 0.09971466
v -0.03512385 -0.01875993 0.10041694
v -0.03447612 -0.01987398 0.10008166
v -0.03327318 -0.01867255 0.10123703
v -0.03587790 -0.00153738 0.09775506
v -0.03408629 0.00046292 0.09787966
v -0.03464346 -0.00076971 0.09862725
v -0.02962303 0.00115570 0.09874732
v -0.03147370 0.00117442 0.09878130
v -0.03147370 0.00209811 0.09751039
v -0.03252701 0.00254748 0.09639807
v -0.03330665 0.00151456 0.09713886
v -0.03777189 -0.00585940 0.09760554
v -0.03791561 -0.00693600 0.09801332
v -0.03754547 -0.00761629 0.09895347
v -0.03623622 -0.00103496 0.09652040
v -0.03654532 -0.00215837 0.09715246
v -0.03745097 -0.00416804 0.09701427
v -0.03818533 -0.00956354 0.09846867
v -0.03756516 -0.00956354 0.09939523
v -0.03829165 -0.01141093 0.09855249
v -0.03755926 -0.01141093 0.09947905
v -0.03830346 -0.01325832 0.09852304
v -0.03750216 -0.01325832 0.09944734
v -0.03743916 -0.01510884 0.09938391
v -0.03818533 -0.01695935 0.09836899
v -0.03186352 -0.01796418 0.10184643
v -0.03332240 -0.02003313 0.10023571
v -0.03147370 -0.02012987 0.10031046
v -0.03133785 -0.01867255 0.10134350
v -0.03147370 -0.02105669 0.09929782
v -0.02962303 -0.02172761 0.09829650
v -0.02155292 -0.02188052 0.09717511
v -0.02155292 -0.01204441 0.09779811
v -0.02478372 -0.00216149 0.09671523
v -0.02496878 -0.00119099 0.09629839
v -0.02528182 -0.00216149 0.09763952
v -0.02658714 -0.00083836 0.09845281
v -0.02703799 0.00039427 0.09785474
v -0.02777826 0.00152393 0.09713207
v -0.02851853 0.00255996 0.09640940
v -0.02962303 0.00208251 0.09751946
v -0.03859878 -0.01880674 0.09724987
v -0.03978794 -0.01771453 0.09623043
v -0.03958909 -0.01880986 0.09591780
v -0.03829756 -0.02012363 0.09668351
v -0.03653745 -0.02011739 0.09848226
v -0.03552352 -0.02135002 0.09775280
v -0.03428908 -0.02160279 0.09812206
v -0.03518292 -0.00028602 0.09720003
v -0.03448793 0.00085300 0.09664500
v -0.02962303 0.00266606 0.09659516
v -0.03147370 0.00265670 0.09658610
v -0.03147370 0.00322153 0.09532426
v -0.03147370 0.00382068 0.09347340
v -0.03284792 0.00276904 0.09532426
v -0.03377326 0.00208875 0.09532426
v -0.03796286 -0.00488889 0.09629159
v -0.03811052 -0.00585940 0.09667898
v -0.03914217 -0.00770991 0.09532426
v -0.03996513 -0.00993801 0.09483039
v -0.03972690 -0.01089916 0.09606278
v -0.03805736 -0.00816864 0.09828970
v -0.03721472 -0.00216149 0.09532426
v -0.03574796 0.00021640 0.09532426
v -0.03600784 0.00050349 0.09404202
v -0.03643310 -0.00070730 0.09532426
v -0.03780339 -0.00351583 0.09532426
v -0.03983716 -0.01212555 0.09631198
v -0.03922880 -0.01325832 0.09726573
v -0.03918155 -0.01510884 0.09724987
v -0.03825621 -0.01510884 0.09845735
v -0.03924258 -0.01704360 0.09701427
v -0.03332240 -0.02095995 0.09915510
v -0.03147370 -0.02177130 0.09837126
v -0.02155292 -0.02685787 0.09031312
v -0.02155292 -0.01124242 0.09710715
v -0.02155292 -0.00955418 0.09542393
v -0.02425411 -0.00216149 0.09532426
v -0.02155292 -0.00040772 0.08534051
v -0.02155292 0.00018519 0.08458159
v -0.02155292 0.00084364 0.08365503
v -0.02478765 -0.00087269 0.09532426
v -0.02538420 0.00005413 0.09532426
v -0.02662848 0.00089357 0.09662234
v -0.02599059 -0.00039524 0.09707770
v -0.02728409 0.00212620 0.09563462
v -0.02784914 0.00273784 0.09514076
v -0.02777039 0.00325898 0.09347340
v -0.02962303 0.00388621 0.09347340
v -0.02962303 0.00325898 0.09532426
v -0.02684505 0.00246635 0.09440222
v -0.03982731 -0.01648190 0.09629159
v -0.04021910 -0.01704360 0.09549643
v -0.04111885 -0.01695935 0.09347340
v -0.04012460 -0.01880986 0.09499350
v -0.03990803 -0.01988958 0.09459252
v -0.03880747 -0.02062293 0.09521778
v -0.03761241 -0.02135626 0.09584077
v -0.03707493 -0.02073526 0.09721816
v -0.03637994 -0.02173073 0.09652040
v -0.03332240 -0.02167144 0.09822854
v -0.03501163 -0.02184932 0.09715246
v -0.02155292 -0.02735716 0.08942508
v -0.03482263 0.00116194 0.09532426
v -0.03332240 0.00326834 0.09162707
v -0.03341887 0.00295628 0.09336013
v -0.03064089 0.00433558 0.09092252
v -0.03134572 0.00414522 0.09157270
v -0.03410008 0.00234464 0.09390156
v -0.03858894 -0.00585940 0.09532426
v -0.03812824 -0.00443953 0.09532426
v -0.03978006 -0.00870226 0.09432973
v -0.04078218 -0.01141093 0.09347340
v -0.04011082 -0.01147022 0.09539675
v -0.03765179 -0.00216774 0.09365690
v -0.03811446 -0.00279186 0.09316303
v -0.03794711 -0.00308519 0.09439543
v -0.03657289 -0.00018928 0.09344395
v -0.03514354 0.00151144 0.09335560
v -0.03614960 0.00068136 0.09280963
v -0.04105191 -0.01325832 0.09347340
v -0.04034314 -0.01325832 0.09532426
v -0.03985487 -0.01325832 0.09633917
v -0.03984897 -0.01510884 0.09632557
v -0.02155292 -0.02713560 0.08988496
v -0.02155292 0.00158322 0.08237053
v -0.02511644 0.00043796 0.09398992
v -0.02641782 0.00152080 0.09514076
v -0.02155292 0.00252564 0.08052420
v -0.02777039 0.00359600 0.09162707
v -0.02971753 0.00420764 0.09157270
v -0.03039479 0.00433558 0.09092252
v -0.02155292 0.00227911 0.08105205
v -0.04035889 -0.01510884 0.09532426
v -0.04153820 -0.01687509 0.09152286
v -0.04076643 -0.01880986 0.09347340
v -0.04112475 -0.01510884 0.09347340
v -0.04012263 -0.02019228 0.09347340
v -0.03929771 -0.02111598 0.09347340
v -0.03808493 -0.02168081 0.09460611
v -0.03700602 -0.02192733 0.09526309
v -0.03517307 -0.02246095 0.09532426
v -0.02155292 -0.02754440 0.08792536
v -0.02326774 -0.02717929 0.08891762
v -0.03332240 0.00322777 0.08977622
v -0.03432058 0.00252876 0.08977622
v -0.03433633 0.00254124 0.09162707
v -0.03428121 0.00249443 0.09266917
v -0.03064089 0.00433558 0.09060084
v -0.03134572 0.00408593 0.08990082
v -0.03916580 -0.00585940 0.09347340
v -0.03842356 -0.00382477 0.09365690
v -0.03995332 -0.00812807 0.09309507
v -0.04019154 -0.00941687 0.09361612
v -0.04111097 -0.01141093 0.09162707
v -0.04065421 -0.00956354 0.09162707
v -0.03825227 -0.00257029 0.09162707
v -0.03891379 -0.00400889 0.09162707
v -0.03770692 -0.00164660 0.09162707
v -0.03526167 0.00167683 0.09162707
v -0.03620472 0.00075314 0.09162707
v -0.03922486 -0.00220206 0.08052647
v -0.03688987 -0.00031098 0.09162707
v -0.04137085 -0.01325832 0.09162707
v -0.04153426 -0.01520557 0.09152286
v -0.02221837 0.00251315 0.08052420
v -0.02962696 0.00267855 0.08052647
v -0.03039479 0.00433558 0.09060084
v -0.02155292 -0.02712624 0.08052420
v -0.04166420 -0.01588586 0.09083644
v -0.04166420 -0.01620104 0.09083644
v -0.04134722 -0.01870688 0.08052647
v -0.04110703 -0.01880986 0.09162707
v -0.04028014 -0.02039512 0.09162707
v -0.03950246 -0.02131882 0.09162707
v -0.03837237 -0.02184620 0.09347340
v -0.03702374 -0.02240166 0.09347340
v -0.02221837 -0.02741646 0.08792536
v -0.02591971 -0.02666127 0.08607451
v -0.02402967 -0.02702014 0.08607224
v -0.02325002 -0.02716369 0.08607224
v -0.02155292 -0.02749759 0.08673828
v -0.03248369 -0.02531006 0.08521364
v -0.02334059 -0.02718865 0.08792536
v -0.03339328 0.00214492 0.08052647
v -0.03530892 0.00127740 0.08052647
v -0.03560621 0.00112449 0.08052647
v -0.03688790 0.00031626 0.08052647
v -0.03708674 0.00016335 0.08052647
v -0.03827393 -0.00087893 0.08052647
v -0.03147566 0.00261613 0.08052647
v -0.03246597 0.00249131 0.08052647
v -0.03976825 -0.00689544 0.09230897
v -0.04083731 -0.00956354 0.08977622
v -0.04082943 -0.00585940 0.08052647
v -0.04113263 -0.00770991 0.08052647
v -0.04006357 -0.00759133 0.09166785
v -0.04035298 -0.00770991 0.08977622
v -0.04054789 -0.00770991 0.08792536
v -0.04021910 -0.00399952 0.08052647
v -0.03983125 -0.00487017 0.08724120
v -0.03974856 -0.00510421 0.08847586
v -0.03966193 -0.00539755 0.08977622
v -0.03957137 -0.00594365 0.09166785
v -0.02402967 0.00246946 0.08052420
v -0.04133148 -0.00930141 0.08052647
v -0.02155292 -0.02737589 0.08433466
v -0.02201559 -0.02704511 0.08052420
v -0.04134132 -0.00940127 0.08052647
v -0.04153032 -0.01141093 0.08052647
v -0.04165633 -0.01325832 0.08052647
v -0.04166420 -0.01510884 0.08052647
v -0.04166420 -0.01620104 0.09036523
v -0.04156970 -0.01729013 0.08052647
v -0.02402967 -0.02668624 0.08052420
v -0.04069949 -0.02066349 0.08052647
v -0.04000844 -0.02182123 0.08237280
v -0.03802586 -0.02348763 0.08355761
v -0.03857712 -0.02199286 0.09162707
v -0.03712021 -0.02379033 0.08419420
v -0.03517307 -0.02459232 0.08422365
v -0.03254079 -0.02532254 0.08422365
v -0.03147370 -0.02553786 0.08422365
v -0.03249944 -0.02531317 0.08290517
v -0.02314568 -0.02714184 0.08513888
v -0.02777039 -0.02624623 0.08422365
v -0.02155292 -0.02746951 0.08607224
v -0.03346612 -0.02511658 0.08422365
v -0.04003010 -0.00577826 0.08788458
v -0.02402967 -0.02668936 0.08052647
v -0.02777039 -0.02614637 0.08237280
v -0.04159726 -0.01695935 0.08052647
v -0.02777039 -0.02601843 0.08052647
v -0.02962303 -0.02568141 0.08052647
v -0.03113310 -0.02539743 0.08052647
v -0.03205252 -0.02522268 0.08052647
v -0.03332043 -0.02491374 0.08052647
v -0.03517307 -0.02439260 0.08052647
v -0.03525379 -0.02436452 0.08052647
v -0.03707099 -0.02372167 0.08052647
v -0.03720290 -0.02366550 0.08052647
v -0.03855941 -0.02292280 0.08052647
v -0.03872872 -0.02281046 0.08052647
v -0.03878976 -0.02276677 0.08052647
v -0.03999466 -0.02187428 0.08052647
v -0.04005175 -0.02182747 0.08052647
v -0.03896498 -0.02275117 0.08237280
v -0.03803964 -0.02349699 0.08237280
v -0.03702374 -0.02392763 0.08237280
v -0.03517307 -0.02459232 0.08237280
v -0.03319837 -0.02511658 0.08232296
v -0.03232816 -0.02527885 0.08167278
v -0.03161348 -0.02544736 0.08232296
v -0.02962303 -0.02581247 0.08237280
v -0.03709462 -0.02372479 0.08061482
v -0.03799239 -0.02346891 0.08129672
v -0.03871494 -0.02283854 0.08061482
f 1 2 6
f 1 6 3
f 1 3 11
f 1 11 4
f 1 4 5
f 1 5 2
f 2 5 7
f 2 7 8
f 2 8 9
f 2 9 10
f 2 10 6
f 3 6 12
f 3 12 11
f 4 13 14
f 4 14 7
f 4 7 5
f 4 11 28
f 4 28 13
f 6 10 15
f 6 15 16
f 6 16 17
f 6 17 12
f 7 14 18
f 7 18 19
f 7 19 8
f 8 19 20
f 8 20 21
f 8 21 22
f 8 22 23
f 8 23 24
f 8 24 9
f 9 24 25
f 9 25 10
f 10 25 26
f 10 26 15
f 11 12 17
f 11 17 27
f 11 27 28
f 13 28 29
f 13 29 30
f 13 30 31
f 13 31 14
f 14 31 32
f 14 32 33
f 14 33 18
f 15 26 34
f 15 34 35
f 15 35 16
f 16 35 36
f 16 36 37
f 16 37 17
f 17 37 38
f 17 38 27
f 18 33 39
f 18 39 19
f 19 39 40
f 19 40 20
f 20 41 21
f 20 40 42
f 20 42 43
f 20 43 44
f 20 44 41
f 21 41 22
f 22 41 45
f 22 45 46
f 22 46 47
f 22 47 48
f 22 48 23
f 23 48 49
f 23 49 24
f 24 49 50
f 24 50 25
f 25 50 51
f 25 51 26
f 26 51 52
f 26 52 34
f 27 38 53
f 27 53 54
f 27 54 55
f 27 55 56
f 27 56 28
f 28 56 57
f 28 57 29
f 29 57 56
f 29 56 55
f 29 55 92
f 29 92 137
f 29 137 180
f 29 180 230
f 29 230 208
f 29 208 248
f 29 248 287
f 29 287 332
f 29 332 312
f 29 312 274
f 29 274 234
f 29 234 238
f 29 238 231
f 29 231 186
f 29 186 185
f 29 185 184
f 29 184 182
f 29 182 181
f 29 181 138
f 29 138 94
f 29 94 60
f 29 60 58
f 29 58 30
f 30 58 31
f 31 59 32
f 31 58 60
f 31 60 59
f 32 61 33
f 32 59 61
f 33 62 63
f 33 63 64
f 33 64 65
f 33 65 39
f 33 61 62
f 34 52 66
f 34 66 35
f 35 66 36
f 36 67 68
f 36 68 69
f 36 69 70
f 36 70 37
f 36 66 67
f 37 53 38
f 37 70 53
f 39 65 40
f 40 65 42
f 41 44 71
f 41 71 45
f 42 65 72
f 42 72 73
f 42 73 43
f 43 73 74
f 43 74 75
f 43 75 76
f 43 76 71
f 43 71 44
f 45 71 77
f 45 77 78
f 45 78 46
f 46 78 47
f 47 79 80
f 47 80 48
f 47 78 81
f 47 81 82
f 47 82 79
f 48 80 49
f 49 83 84
f 49 84 50
f 49 80 83
f 50 84 85
f 50 85 51
f 51 85 86
f 51 86 87
f 51 87 52
f 52 87 66
f 53 70 88
f 53 88 89
f 53 89 90
f 53 90 91
f 53 91 55
f 53 55 54
f 55 91 90
f 55 90 92
f 59 93 61
f 59 60 93
f 60 94 93
f 61 93 62
f 62 93 95
f 62 95 96
f 62 96 97
f 62 97 98
f 62 98 63
f 63 98 64
f 64 99 100
f 64 100 101
f 64 101 72
f 64 72 65
f 64 98 99
f 66 87 67
f 67 87 102
f 67 102 103
f 67 103 68
f 68 103 104
f 68 104 105
f 68 105 106
f 68 106 69
f 69 106 107
f 69 107 108
f 69 108 88
f 69 88 70
f 71 109 77
f 71 76 110
f 71 110 111
f 71 111 109
f 72 101 73
f 73 101 74
f 74 101 112
f 74 112 113
f 74 113 75
f 75 113 114
f 75 114 115
f 75 115 116
f 75 116 110
f 75 110 76
f 77 109 81
f 77 81 78
f 79 117 118
f 79 118 119
f 79 119 80
f 79 82 117
f 80 119 83
f 81 109 120
f 81 120 121
f 81 121 122
f 81 122 82
f 82 122 117
f 83 119 123
f 83 123 124
f 83 124 84
f 84 124 125
f 84 125 126
f 84 126 85
f 85 126 127
f 85 127 128
f 85 128 129
f 85 129 86
f 86 129 87
f 87 129 130
f 87 130 102
f 88 131 89
f 88 108 132
f 88 132 133
f 88 133 131
f 89 131 90
f 90 131 134
f 90 134 92
f 92 133 135
f 92 135 136
f 92 136 137
f 92 134 133
f 93 94 138
f 93 138 95
f 95 138 96
f 96 139 140
f 96 140 141
f 96 141 142
f 96 142 97
f 96 138 139
f 97 142 98
f 98 142 143
f 98 143 99
f 99 143 100
f 100 144 145
f 100 145 146
f 100 146 112
f 100 112 101
f 100 143 144
f 102 130 103
f 103 147 104
f 103 130 148
f 103 148 147
f 104 147 149
f 104 149 150
f 104 150 151
f 104 151 105
f 105 151 107
f 105 107 106
f 107 151 152
f 107 152 153
f 107 153 132
f 107 132 108
f 109 111 154
f 109 154 120
f 110 154 111
f 110 116 155
f 110 155 154
f 112 146 113
f 113 146 114
f 114 146 156
f 114 156 157
f 114 157 115
f 115 157 158
f 115 158 159
f 115 159 160
f 115 160 161
f 115 161 155
f 115 155 116
f 117 162 163
f 117 163 164
f 117 164 165
f 117 165 118
f 117 122 162
f 118 165 166
f 118 166 167
f 118 167 119
f 119 167 123
f 120 168 121
f 120 154 155
f 120 155 169
f 120 169 170
f 120 170 171
f 120 171 168
f 121 168 172
f 121 172 122
f 122 172 162
f 123 167 173
f 123 173 125
f 123 125 124
f 125 173 174
f 125 174 127
f 125 127 126
f 127 174 175
f 127 175 176
f 127 176 128
f 128 176 129
f 129 176 130
f 130 177 148
f 130 176 177
f 131 133 134
f 132 153 178
f 132 178 135
f 132 135 133
f 135 178 179
f 135 179 136
f 136 179 180
f 136 180 137
f 138 181 139
f 139 181 140
f 140 181 182
f 140 182 183
f 140 183 184
f 140 184 185
f 140 185 186
f 140 186 187
f 140 187 188
f 140 188 189
f 140 189 190
f 140 190 142
f 140 142 141
f 142 190 143
f 143 190 189
f 143 189 144
f 144 189 191
f 144 191 145
f 145 192 193
f 145 193 194
f 145 194 195
f 145 195 156
f 145 156 146
f 145 191 196
f 145 196 192
f 147 148 149
f 148 177 197
f 148 197 198
f 148 198 199
f 148 199 200
f 148 200 149
f 149 200 201
f 149 201 150
f 150 201 202
f 150 202 203
f 150 203 204
f 150 204 151
f 151 204 152
f 152 204 205
f 152 205 153
f 153 206 178
f 153 205 207
f 153 207 208
f 153 208 206
f 155 161 209
f 155 209 169
f 156 195 157
f 157 195 158
f 158 195 194
f 158 194 159
f 159 210 211
f 159 211 160
f 159 194 212
f 159 212 213
f 159 213 210
f 160 211 214
f 160 214 161
f 161 214 209
f 162 215 164
f 162 164 163
f 162 172 216
f 162 216 215
f 164 217 165
f 164 215 217
f 165 217 218
f 165 218 219
f 165 219 166
f 166 219 173
f 166 173 167
f 168 171 220
f 168 220 221
f 168 221 222
f 168 222 172
f 169 209 170
f 170 223 171
f 170 209 214
f 170 214 224
f 170 224 225
f 170 225 223
f 171 223 220
f 172 222 216
f 173 219 226
f 173 226 227
f 173 227 228
f 173 228 174
f 174 228 229
f 174 229 175
f 175 229 197
f 175 197 177
f 175 177 176
f 178 206 179
f 179 206 230
f 179 230 180
f 182 184 183
f 186 231 232
f 186 232 187
f 187 232 188
f 188 232 233
f 188 233 189
f 189 233 196
f 189 196 191
f 192 196 193
f 193 234 235
f 193 235 194
f 193 196 234
f 194 235 236
f 194 236 237
f 194 237 212
f 196 233 232
f 196 232 238
f 196 238 234
f 197 229 198
f 198 229 239
f 198 239 199
f 199 240 241
f 199 241 200
f 199 239 242
f 199 242 240
f 200 241 201
f 201 243 244
f 201 244 245
f 201 245 202
f 201 241 243
f 202 245 203
f 203 245 205
f 203 205 204
f 205 246 247
f 205 247 207
f 205 245 246
f 206 208 230
f 207 247 208
f 208 247 249
f 208 249 248
f 210 213 250
f 210 250 251
f 210 251 252
f 210 252 253
f 210 253 211
f 211 253 214
f 212 237 273
f 212 273 254
f 212 254 213
f 213 254 255
f 213 255 250
f 214 253 224
f 215 216 256
f 215 256 217
f 216 222 257
f 216 257 256
f 217 256 258
f 217 258 259
f 217 259 218
f 218 260 226
f 218 226 219
f 218 259 258
f 218 258 261
f 218 261 260
f 220 223 221
f 221 223 262
f 221 262 263
f 221 263 257
f 221 257 222
f 223 264 262
f 223 225 264
f 224 253 225
f 225 253 265
f 225 265 266
f 225 266 267
f 225 267 268
f 225 268 264
f 226 260 269
f 226 269 270
f 226 270 242
f 226 242 227
f 227 242 239
f 227 239 228
f 228 239 229
f 231 238 232
f 234 271 272
f 234 272 273
f 234 273 236
f 234 236 235
f 234 274 313
f 234 313 320
f 234 320 310
f 234 310 271
f 236 273 237
f 240 242 270
f 240 270 275
f 240 275 276
f 240 276 277
f 240 277 278
f 240 278 241
f 241 278 243
f 243 279 280
f 243 280 244
f 243 278 279
f 244 280 281
f 244 281 245
f 245 281 282
f 245 282 246
f 246 282 247
f 247 282 249
f 248 283 284
f 248 284 285
f 248 285 286
f 248 286 287
f 248 249 283
f 249 288 289
f 249 289 283
f 249 282 288
f 250 255 290
f 250 290 291
f 250 291 292
f 250 292 293
f 250 293 251
f 251 293 294
f 251 294 252
f 252 294 295
f 252 295 265
f 252 265 253
f 254 273 272
f 254 272 296
f 254 296 297
f 254 297 255
f 255 297 290
f 256 298 258
f 256 257 263
f 256 263 298
f 258 298 261
f 260 261 299
f 260 299 300
f 260 300 301
f 260 301 269
f 261 298 302
f 261 302 303
f 261 303 304
f 261 304 300
f 261 300 299
f 262 267 305
f 262 305 306
f 262 306 263
f 262 264 267
f 263 306 307
f 263 307 308
f 263 308 309
f 263 309 298
f 264 268 267
f 265 295 266
f 266 295 267
f 267 295 310
f 267 310 305
f 269 275 270
f 269 301 311
f 269 311 275
f 271 310 272
f 272 310 296
f 274 312 313
f 275 311 314
f 275 314 315
f 275 315 316
f 275 316 317
f 275 317 318
f 275 318 276
f 276 318 319
f 276 319 277
f 277 319 320
f 277 320 321
f 277 321 278
f 278 321 322
f 278 322 279
f 279 322 280
f 280 322 323
f 280 323 324
f 280 324 281
f 281 324 323
f 281 323 325
f 281 325 326
f 281 326 282
f 282 326 288
f 283 289 327
f 283 327 328
f 283 328 284
f 284 328 329
f 284 329 285
f 285 330 286
f 285 329 331
f 285 331 330
f 286 330 332
f 286 332 287
f 288 326 333
f 288 333 327
f 288 327 289
f 290 297 310
f 290 310 291
f 291 310 292
f 292 310 293
f 293 310 294
f 294 310 295
f 296 310 297
f 298 309 302
f 300 334 306
f 300 306 305
f 300 305 310
f 300 310 301
f 300 304 303
f 300 303 334
f 301 310 311
f 302 309 334
f 302 334 303
f 306 334 307
f 307 334 308
f 308 334 309
f 310 314 311
f 310 320 317
f 310 317 316
f 310 316 315
f 310 315 314
f 312 335 313
f 312 332 330
f 312 330 336
f 312 336 335
f 313 335 320
f 317 320 337
f 317 337 318
f 318 337 319
f 319 337 320
f 320 335 338
f 320 338 339
f 320 339 340
f 320 340 341
f 320 341 342
f 320 342 343
f 320 343 344
f 320 344 345
f 320 345 346
f 320 346 347
f 320 347 348
f 320 348 349
f 320 349 350
f 320 350 351
f 320 351 321
f 321 351 322
f 322 351 352
f 322 352 323
f 323 352 353
f 323 353 354
f 323 354 326
f 323 326 325
f 326 355 333
f 326 354 355
f 327 333 329
f 327 329 328
f 329 333 356
f 329 356 357
f 329 357 358
f 329 358 330
f 329 330 331
f 330 358 359
f 330 359 336
f 333 355 356
f 335 336 338
f 336 359 357
f 336 357 338
f 338 357 339
f 339 357 340
f 340 357 341
f 341 357 342
f 342 357 356
f 342 356 355
f 342 355 343
f 343 355 344
f 344 360 345
f 344 355 360
f 345 360 361
f 345 361 346
f 346 361 347
f 347 361 348
f 348 361 362
f 348 362 349
f 349 362 350
f 350 362 361
f 350 361 353
f 350 353 352
f 350 352 351
f 353 361 354
f 354 361 360
f 354 360 355
f 357 359 358

