# https://github.com/mikedh/trimesh
v -0.00439936 0.00286473 0.08052236
v 0.00924652 -0.00033625 0.10088029
v 0.00924652 -0.00022880 0.09902734
v 0.01078302 -0.00088006 0.09717745
v 0.01900945 -0.00417874 0.09038635
v -0.00439936 -0.02916793 0.08052236
v -0.01920853 0.00257492 0.08052236
v -0.01110914 0.00100536 0.09717438
v -0.01112502 0.00077416 0.09915947
v 0.00939342 -0.00087681 0.10289304
v 0.01048922 -0.00103637 0.10238294
v 0.01074729 -0.00086053 0.10088029
v 0.00739636 -0.00026136 0.10088029
v 0.00739636 -0.00072050 0.10272710
v 0.01085846 -0.00079866 0.09902734
v 0.01167633 -0.00152482 0.10088029
v 0.01110064 -0.00168438 0.10289304
v 0.01241084 -0.00271013 0.10272710
v 0.01215674 -0.00295436 0.10390095
v 0.01333591 -0.00370657 0.10272710
v 0.01392352 -0.00486257 0.10377189
v 0.01900945 -0.00747416 0.09712829
v 0.01900945 -0.02887486 0.09038635
v 0.01900548 -0.02887811 0.09038635
v 0.01864419 -0.02901814 0.09038635
v 0.01815981 -0.02913211 0.09038635
v 0.01730223 -0.02933074 0.09038635
v 0.01479698 -0.02977361 0.09038635
v 0.01294683 -0.02994619 0.09038635
v 0.00924652 -0.03020670 0.09038635
v 0.00800779 -0.03029137 0.09038635
v 0.00739636 -0.03033044 0.09038635
v 0.00554621 -0.03039557 0.09038635
v 0.00369606 -0.03035975 0.09038635
v -0.00439936 -0.02947402 0.08422212
v -0.00555868 -0.02953589 0.08607508
v -0.00806790 -0.02897255 0.08170542
v -0.00744457 -0.02892370 0.08052236
v -0.02155100 0.00252607 0.08052236
v -0.01211759 0.00063088 0.09999837
v -0.01175233 0.00063088 0.09999837
v 0.01010807 -0.00125129 0.10361824
v 0.00887331 -0.00114057 0.10385178
v 0.01179544 -0.00331255 0.10513626
v 0.01287933 -0.00408756 0.10445407
v 0.01114432 -0.00246916 0.10454319
v 0.01359795 -0.00532823 0.10500719
v 0.01900945 -0.00833058 0.09822224
v 0.01900945 -0.02864366 0.09164931
v 0.01802482 -0.02910606 0.09105625
v 0.01479698 -0.02962381 0.09162781
v 0.01294683 -0.02981920 0.09162781
v 0.01109667 -0.02995596 0.09162781
v 0.00924652 -0.03008947 0.09162781
v 0.00739636 -0.03020670 0.09162781
v 0.00554621 -0.03027183 0.09162781
v 0.00369606 -0.03023926 0.09162781
v 0.00184590 -0.03011878 0.09162781
v 0.00184590 -0.03023601 0.09038635
v -0.00439936 -0.02975407 0.08792496
v -0.00439936 -0.02970522 0.08723049
v -0.00439936 -0.02962381 0.08607508
v -0.00555868 -0.02966289 0.08792496
v -0.00740883 -0.02938610 0.08607508
v -0.00865153 -0.02902465 0.08294073
v -0.00925899 -0.02876414 0.08052236
v -0.02155100 -0.02712620 0.08052236
v -0.02155100 0.00228185 0.08105090
v -0.01549234 -0.00147272 0.10120295
v -0.01425758 -0.00095822 0.10230919
v -0.01335235 0.00049737 0.09937765
v -0.01282430 0.00071554 0.09886755
v -0.01282430 0.00020430 0.10071743
v -0.01295135 -0.00080191 0.10284695
v -0.01232405 -0.00118616 0.10372272
v -0.01110914 -0.00063910 0.10272710
v -0.01112502 0.00030850 0.10071743
v 0.00739636 -0.00113406 0.10387329
v 0.00939342 -0.00157041 0.10451246
v 0.00924652 -0.00256685 0.10623635
v 0.01056068 -0.00279805 0.10591370
v 0.00739636 -0.00160623 0.10479823
v 0.01236716 -0.00454671 0.10597515
v 0.01123563 -0.00390195 0.10656208
v 0.01297859 -0.00582319 0.10646989
v 0.01399895 -0.00656239 0.10572625
v 0.01900945 -0.00883857 0.09884296
v 0.01900945 -0.02847107 0.09198426
v 0.01577367 -0.02533521 0.10372272
v 0.01462626 -0.02653029 0.10255809
v 0.01389175 -0.02714899 0.10183289
v 0.01662331 -0.02926236 0.09165546
v 0.01192249 -0.02713271 0.10361517
v 0.01069170 -0.02717179 0.10377189
v 0.00924652 -0.02720761 0.10389480
v 0.00739636 -0.02724017 0.10398699
v 0.00554621 -0.02720110 0.10384564
v -0.00000425 -0.02992665 0.09162781
v -0.01058903 -0.02903767 0.09078583
v -0.00555868 -0.02966615 0.08977485
v -0.00439936 -0.02977361 0.08977485
v 0.00060320 -0.03013832 0.09038635
v -0.01480945 -0.02606137 0.10087722
v -0.00439936 -0.02977035 0.08908345
v -0.00740883 -0.02950659 0.08792496
v -0.00925899 -0.02922980 0.08607508
v -0.01043419 -0.02901814 0.08486436
v -0.01110914 -0.02874460 0.08237224
v -0.01110914 -0.02858504 0.08052236
v -0.02155100 -0.02716527 0.08109084
v -0.02050681 -0.02731181 0.08052236
v -0.02155100 0.00158173 0.08237224
v -0.01600053 -0.00279154 0.10272710
v -0.01484915 -0.00177882 0.10284695
v -0.01467049 -0.00271664 0.10439876
v -0.01355881 -0.00130339 0.10354449
v -0.01295135 -0.00187651 0.10443564
v -0.01295929 -0.00291528 0.10567708
v 0.00739636 -0.00320835 0.10721046
v 0.00739636 -0.00253103 0.10628552
v 0.00924652 -0.00324743 0.10716129
v 0.01067185 -0.00449461 0.10779124
v 0.01190264 -0.00508400 0.10720739
v 0.01359398 -0.00728855 0.10696156
v 0.01235922 -0.00631816 0.10773900
v 0.01392352 -0.00852270 0.10742249
v 0.01900945 -0.01328674 0.10080040
v 0.01407042 -0.00956473 0.10764066
v 0.01900945 -0.02773839 0.09325029
v 0.01698858 -0.02432574 0.10269945
v 0.01602777 -0.02419223 0.10443564
v 0.01573794 -0.02345956 0.10551729
v 0.01525356 -0.02469045 0.10495803
v 0.01402277 -0.02540034 0.10563714
v 0.01470169 -0.02565107 0.10443564
v 0.01294683 -0.02644888 0.10457699
v 0.01294683 -0.02700571 0.10318189
v 0.01122372 -0.02690802 0.10446329
v 0.00924652 -0.02693082 0.10481975
v 0.00739636 -0.02694710 0.10491501
v 0.00554621 -0.02682010 0.10477365
v -0.01387643 -0.02528962 0.10364897
v -0.01480945 -0.02557943 0.10254580
v -0.01182379 -0.02896603 0.09034948
v -0.00740883 -0.02948705 0.08977485
v -0.00925899 -0.02933400 0.08792496
v -0.01619508 -0.02545569 0.10218013
v -0.01675092 -0.02566736 0.10096941
v -0.01665960 -0.02613627 0.09902426
v -0.01850975 -0.02790447 0.08977485
v -0.01665960 -0.02824638 0.08977485
v -0.01220891 -0.02900837 0.08680336
v -0.01107341 -0.02906372 0.08614268
v -0.01287989 -0.02889114 0.08614268
v -0.01295929 -0.02856225 0.08237224
v -0.01295929 -0.02839943 0.08052236
v -0.01850975 -0.02790447 0.08422212
v -0.02155100 -0.02737368 0.08433582
v -0.02041152 -0.02732809 0.08052236
v -0.01850975 -0.02778072 0.08237224
v -0.01665960 -0.02835058 0.08607508
v -0.02155100 0.00084254 0.08365671
v -0.01735440 -0.00342001 0.10087722
v -0.01696928 -0.00405826 0.10273632
v -0.01574246 -0.00307810 0.10366127
v -0.01396378 -0.00302599 0.10556031
v -0.01361439 -0.00499934 0.10731494
v -0.01298312 -0.00415595 0.10672801
v -0.01238360 -0.00487234 0.10739790
v 0.00739636 -0.00512308 0.10906341
v 0.00739636 -0.00413315 0.10813847
v 0.00924652 -0.00417223 0.10810467
v 0.00924652 -0.00515890 0.10902961
v 0.01054877 -0.00639306 0.10947211
v 0.01122372 -0.00574179 0.10838431
v 0.01177956 -0.00717132 0.10897430
v 0.01286742 -0.00784864 0.10819993
v 0.01214483 -0.00840548 0.10932768
v 0.01330812 -0.00956473 0.10856561
v 0.01900945 -0.01511355 0.10104009
v 0.01427290 -0.01141759 0.10793566
v 0.01533694 -0.01326720 0.10663890
v 0.01601189 -0.01511355 0.10595364
v 0.01357810 -0.01141759 0.10886060
v 0.01900945 -0.02673869 0.09417524
v 0.01769132 -0.02368099 0.10206643
v 0.01740149 -0.02251196 0.10330173
v 0.01659552 -0.02251196 0.10457699
v 0.01584911 -0.02251196 0.10565250
v 0.01497167 -0.02251196 0.10657744
v 0.01404659 -0.02251196 0.10752082
v 0.01389175 -0.02346281 0.10737025
v 0.01457464 -0.02407826 0.10619640
v 0.01294683 -0.02481094 0.10695848
v 0.01189073 -0.02524403 0.10730572
v 0.01294683 -0.02566084 0.10603354
v 0.01120387 -0.02587251 0.10658359
v 0.00924652 -0.02621117 0.10642994
v 0.00739636 -0.02620140 0.10642994
v -0.01313796 -0.02482722 0.10443871
v -0.01295929 -0.02378844 0.10587990
v -0.01442433 -0.02364517 0.10572625
v -0.01480945 -0.02519519 0.10347382
v 0.00739636 -0.02546546 0.10756999
v -0.01286004 -0.02885857 0.08975026
v -0.01217715 -0.02901162 0.08911725
v -0.01116869 -0.02908652 0.08975026
v -0.00925899 -0.02929167 0.08977485
v -0.01480945 -0.02855248 0.08977485
v -0.01110914 -0.02914188 0.08792496
v -0.01675092 -0.02486630 0.10276705
v -0.01742984 -0.02521798 0.10164237
v -0.01788642 -0.02545569 0.10041014
v -0.02155100 -0.02735740 0.08942761
v -0.02155100 -0.02754301 0.08792496
v -0.02036388 -0.02776444 0.08792496
v -0.01665960 -0.02842222 0.08792496
v -0.01850975 -0.02810310 0.08792496
v -0.01227243 -0.02901814 0.08792496
v -0.01319354 -0.02891393 0.08792496
v -0.01480945 -0.02865342 0.08607508
v -0.01480945 -0.02850363 0.08422212
v -0.01480945 -0.02817474 0.08052236
v -0.02155100 -0.02741276 0.08503337
v -0.01850975 -0.02801844 0.08607508
v -0.01850975 -0.02764721 0.08052236
v -0.01665960 -0.02822359 0.08422212
v -0.02155100 0.00018476 0.08458165
v -0.01771967 -0.00469976 0.10212789
v -0.01743778 -0.00519472 0.10336012
v -0.01577820 -0.00487885 0.10555417
v -0.01519853 -0.00364470 0.10489657
v -0.01604421 -0.00415920 0.10439876
v -0.01467049 -0.00415920 0.10591370
v -0.01490871 -0.00571574 0.10690932
v -0.01435683 -0.00623349 0.10766217
v -0.01295929 -0.00771513 0.10873154
v -0.01298312 -0.00571574 0.10779431
v 0.00735666 -0.00784864 0.11069205
v 0.00739636 -0.00604463 0.10969643
v 0.00924652 -0.00608370 0.10967492
v 0.00986588 -0.00876042 0.11101470
v 0.01114034 -0.00775746 0.10978247
v 0.01237907 -0.00956473 0.10956122
v 0.01106888 -0.00945402 0.11057528
v 0.01900945 -0.01678405 0.10080654
v 0.01709975 -0.01714225 0.10439261
v 0.01757618 -0.01788144 0.10365204
v 0.01757618 -0.01789772 0.10365204
v 0.01754839 -0.01913187 0.10359673
v 0.01751265 -0.02066561 0.10352298
v 0.01441186 -0.01326720 0.10808009
v 0.01609526 -0.01696315 0.10601510
v 0.01540443 -0.01511355 0.10687859
v 0.01265302 -0.01141759 0.10982242
v 0.01370118 -0.01326720 0.10900810
v 0.01900945 -0.02065910 0.09898739
v 0.01824319 -0.02251196 0.10088029
v 0.01782631 -0.02251196 0.10237679
v 0.01685756 -0.02066561 0.10457699
v 0.01599204 -0.02066561 0.10583380
v 0.01517416 -0.02066561 0.10675874
v 0.01424908 -0.02066561 0.10772671
v 0.01327239 -0.02066561 0.10865165
v 0.01234731 -0.02066561 0.10947211
v 0.01217262 -0.02185743 0.10931539
v 0.01294683 -0.02388614 0.10770827
v 0.01163663 -0.02309159 0.10904498
v 0.01040187 -0.02355399 0.10929081
v 0.01065597 -0.02541011 0.10750546
v 0.00924652 -0.02549151 0.10760379
v -0.01295929 -0.02273990 0.10680176
v 0.00739636 -0.02452112 0.10849800
v 0.00739636 -0.02359307 0.10932461
v -0.01405906 -0.02171416 0.10743478
v -0.01565909 -0.02339443 0.10546813
v -0.01494841 -0.02422805 0.10474292
v 0.00924652 -0.02458951 0.10853181
v -0.01480945 -0.02870553 0.08792496
v -0.01665960 -0.02388614 0.10416829
v -0.01769188 -0.02354422 0.10375960
v -0.01812464 -0.02392521 0.10272710
v -0.01943086 -0.02343025 0.10179294
v -0.01865665 -0.02452112 0.10110154
v -0.01918867 -0.02511052 0.09902426
v -0.02155100 -0.02713922 0.08988547
v -0.01976834 -0.02382101 0.10056071
v -0.02155100 -0.02749742 0.08673883
v -0.02155100 -0.02746811 0.08607508
v -0.01665960 -0.02791749 0.08052236
v -0.02155100 -0.00040789 0.08534373
v -0.01798568 -0.00583296 0.10273632
v -0.01775143 -0.00642887 0.10394704
v -0.01701693 -0.00583296 0.10456777
v -0.01559159 -0.00706386 0.10721968
v -0.01606009 -0.00586227 0.10590448
v -0.01401539 -0.01020949 0.10926623
v -0.01490871 -0.00769559 0.10794488
v -0.01295929 -0.00891347 0.10914024
v 0.00794823 -0.00855527 0.11109153
v 0.00863509 -0.00855527 0.11109153
v 0.00924652 -0.00784864 0.11066747
v 0.01043363 -0.00999457 0.11120215
v 0.00924652 -0.00945402 0.11129741
v 0.01161678 -0.01141759 0.11075044
v 0.01900945 -0.01695012 0.10078196
v 0.01709577 -0.01863365 0.10439261
v 0.01791365 -0.02066561 0.10259804
v 0.01607144 -0.01881275 0.10594750
v 0.01538061 -0.01696315 0.10694004
v 0.01447936 -0.01511355 0.10807087
v 0.01176368 -0.01326720 0.11086413
v 0.01277610 -0.01326720 0.10993919
v 0.01366942 -0.01511355 0.10899581
v 0.01900945 -0.01918723 0.09982015
v 0.01528929 -0.01881275 0.10687244
v 0.01436422 -0.01881275 0.10784655
v 0.01356222 -0.01696315 0.10889440
v 0.01343517 -0.01881275 0.10877149
v 0.01251009 -0.01881275 0.10964112
v 0.01167633 -0.01511355 0.11082726
v 0.01141827 -0.01696315 0.11069819
v 0.01098153 -0.01882578 0.11063674
v 0.01109667 -0.02066561 0.11020039
v 0.01104903 -0.02248916 0.10956430
v 0.00924652 -0.02251196 0.11003445
v 0.00924652 -0.02366470 0.10937685
v 0.00739636 -0.02251196 0.10992690
v -0.01295929 -0.02066236 0.10803092
v -0.01295929 -0.01881275 0.10862399
v -0.01447594 -0.02066236 0.10766832
v -0.01540499 -0.02066236 0.10717358
v -0.01620302 -0.02216027 0.10588297
v -0.01799362 -0.02251522 0.10409147
v -0.01901795 -0.02269431 0.10277627
v -0.01970084 -0.02219609 0.10218935
v -0.02014154 -0.02269431 0.10105545
v -0.02155100 -0.02685918 0.09031568
v -0.02102692 -0.02254127 0.09913181
v -0.02141600 -0.02194535 0.09858791
v -0.02155100 -0.00955497 0.09542898
v -0.01858122 -0.00586227 0.10087722
v -0.01863680 -0.00771513 0.10272710
v -0.01762438 -0.00853247 0.10555724
v -0.01736234 -0.00729832 0.10517927
v -0.01790627 -0.00783562 0.10456777
v -0.01661593 -0.00779980 0.10638692
v -0.01586952 -0.00829802 0.10749624
v -0.01470225 -0.00958427 0.10868238
v -0.01507943 -0.01141759 0.10878071
v -0.01415435 -0.01141759 0.10933076
v -0.01295929 -0.01141759 0.10954893
v -0.01295929 -0.00983827 0.10934305
v 0.00739636 -0.01141759 0.11175220
v 0.00735666 -0.00943122 0.11130356
v 0.00671745 -0.00872460 0.11102699
v 0.00924652 -0.01141759 0.11175220
v 0.01068773 -0.01141759 0.11134965
v 0.01445554 -0.01696315 0.10796639
v 0.01274831 -0.01511355 0.10989924
v 0.01083860 -0.01326720 0.11142954
v 0.01263317 -0.01696315 0.10977325
v 0.01074729 -0.01511355 0.11135886
v 0.01049319 -0.01696315 0.11121137
v 0.01029070 -0.01822010 0.11110689
v 0.00983412 -0.01945425 0.11100856
v 0.00922667 -0.02055815 0.11081189
v 0.00860333 -0.01987432 0.11109153
v 0.00814675 -0.01987432 0.11109153
v 0.00747577 -0.02055815 0.11073200
v -0.01282430 -0.01679707 0.10902654
v -0.01334838 -0.01572574 0.10915868
v -0.01397569 -0.01449158 0.10924779
v -0.01499208 -0.01899185 0.10791108
v -0.01573452 -0.01972778 0.10735181
v -0.01743778 -0.02099776 0.10536672
v -0.01924426 -0.02066236 0.10340007
v -0.01988744 -0.02066236 0.10247820
v -0.02124925 -0.02111824 0.09982015
v -0.02155100 -0.02187697 0.09717438
v -0.02148747 -0.02056141 0.09913181
v -0.02155100 -0.02058095 0.09879072
v -0.02155100 -0.01124826 0.09710678
v -0.01919264 -0.00766954 0.10090488
v -0.02155100 -0.01204933 0.09779818
v -0.01912515 -0.00959730 0.10264414
v -0.01834300 -0.00956473 0.10457699
v -0.01774746 -0.00956473 0.10572010
v -0.01697325 -0.00956473 0.10664197
v -0.01604818 -0.00956473 0.10768676
v -0.01504767 -0.01326720 0.10878071
v -0.01621096 -0.01141759 0.10785269
v -0.01623081 -0.01326720 0.10785269
v -0.01412259 -0.01326720 0.10931846
v -0.01295929 -0.01326720 0.10952435
v 0.00739636 -0.01326720 0.11189663
v 0.00924652 -0.01326720 0.11191506
v 0.00924652 -0.01511355 0.11178600
v 0.00924652 -0.01696315 0.11149715
v 0.00922667 -0.01882578 0.11119601
v 0.00739636 -0.01511355 0.11175835
v -0.01467843 -0.01510703 0.10874691
v -0.01480945 -0.01695989 0.10838123
v -0.01586554 -0.01849363 0.10747165
v -0.01759262 -0.01976361 0.10551115
v -0.01817625 -0.02049303 0.10468146
v -0.01937131 -0.01881275 0.10356601
v -0.01943086 -0.01780654 0.10364283
v -0.01997082 -0.01881275 0.10264106
v -0.02088399 -0.02056141 0.10070821
v -0.02129690 -0.01988083 0.09997686
v -0.02155100 -0.01971802 0.09908265
v -0.02155100 -0.01326720 0.09832979
v -0.02134057 -0.01576807 0.10008749
v -0.02095148 -0.01513634 0.10077581
v -0.01928793 -0.01141759 0.10323720
v -0.01939116 -0.01272339 0.10354449
v -0.01866857 -0.01141759 0.10457699
v -0.01713603 -0.01141759 0.10683249
v -0.01789039 -0.01141759 0.10590755
v -0.01614346 -0.01510703 0.10773900
v -0.01600450 -0.01695989 0.10759764
v -0.01715589 -0.01326720 0.10686322
v -0.01706854 -0.01510703 0.10677411
v -0.01692958 -0.01695989 0.10664197
v -0.01765217 -0.01881275 0.10558182
v -0.01851373 -0.01881275 0.10457699
v -0.01948644 -0.01657239 0.10371965
v -0.01777128 -0.01695989 0.10571396
v -0.01787848 -0.01510703 0.10584916
v -0.01994303 -0.01709992 0.10290533
v -0.02089590 -0.01881275 0.10095404
v -0.02095942 -0.01695989 0.10104009
v -0.02132072 -0.01881275 0.10003217
v -0.02155100 -0.01881275 0.09924859
v -0.02155100 -0.01513960 0.09909801
v -0.02135248 -0.01695989 0.10011207
v -0.02005420 -0.01510703 0.10272710
v -0.02155100 -0.01656913 0.09937765
v -0.01946262 -0.01394777 0.10369814
v -0.01793009 -0.01326720 0.10593828
v -0.01949438 -0.01510703 0.10373809
v -0.02155100 -0.01834710 0.09929775
v -0.02155100 -0.01695989 0.09939609
f 1 2 3
f 1 3 4
f 1 4 5
f 1 5 23
f 1 23 6
f 1 6 38
f 1 38 66
f 1 66 109
f 1 109 156
f 1 156 223
f 1 223 290
f 1 290 226
f 1 226 159
f 1 159 111
f 1 111 67
f 1 67 39
f 1 39 7
f 1 7 8
f 1 8 9
f 1 9 2
f 2 10 11
f 2 11 12
f 2 12 3
f 2 9 13
f 2 13 14
f 2 14 10
f 3 12 15
f 3 15 5
f 3 5 4
f 5 15 12
f 5 12 11
f 5 11 16
f 5 16 17
f 5 17 18
f 5 18 19
f 5 19 20
f 5 20 21
f 5 21 22
f 5 22 48
f 5 48 87
f 5 87 127
f 5 127 180
f 5 180 246
f 5 246 306
f 5 306 315
f 5 315 257
f 5 257 185
f 5 185 129
f 5 129 88
f 5 88 49
f 5 49 23
f 6 23 24
f 6 24 25
f 6 25 26
f 6 26 27
f 6 27 28
f 6 28 29
f 6 29 30
f 6 30 31
f 6 31 32
f 6 32 33
f 6 33 34
f 6 34 35
f 6 35 36
f 6 36 37
f 6 37 38
f 7 39 8
f 8 39 9
f 9 39 40
f 9 40 41
f 9 41 13
f 10 42 11
f 10 14 43
f 10 43 42
f 11 42 17
f 11 17 16
f 13 41 14
f 14 41 43
f 17 19 18
f 17 42 19
f 19 44 45
f 19 45 21
f 19 21 20
f 19 42 46
f 19 46 44
f 21 45 47
f 21 47 22
f 22 47 48
f 23 49 24
f 24 49 25
f 25 49 50
f 25 50 26
f 26 50 27
f 27 50 51
f 27 51 28
f 28 51 52
f 28 52 29
f 29 52 53
f 29 53 54
f 29 54 30
f 30 54 31
f 31 54 32
f 32 54 55
f 32 55 56
f 32 56 33
f 33 56 57
f 33 57 34
f 34 57 58
f 34 58 59
f 34 59 60
f 34 60 61
f 34 61 62
f 34 62 35
f 35 62 36
f 36 63 64
f 36 64 37
f 36 62 61
f 36 61 60
f 36 60 63
f 37 65 66
f 37 66 38
f 37 64 65
f 39 67 110
f 39 110 158
f 39 158 224
f 39 224 289
f 39 289 288
f 39 288 215
f 39 215 214
f 39 214 286
f 39 286 338
f 39 338 380
f 39 380 382
f 39 382 412
f 39 412 435
f 39 435 443
f 39 443 444
f 39 444 439
f 39 439 436
f 39 436 413
f 39 413 385
f 39 385 383
f 39 383 341
f 39 341 291
f 39 291 228
f 39 228 162
f 39 162 112
f 39 112 68
f 39 68 69
f 39 69 70
f 39 70 71
f 39 71 72
f 39 72 40
f 40 72 71
f 40 71 73
f 40 73 74
f 40 74 75
f 40 75 76
f 40 76 77
f 40 77 41
f 41 77 78
f 41 78 43
f 42 43 79
f 42 79 80
f 42 80 81
f 42 81 46
f 43 78 82
f 43 82 80
f 43 80 79
f 44 83 45
f 44 46 81
f 44 81 84
f 44 84 83
f 45 83 47
f 47 85 86
f 47 86 87
f 47 87 48
f 47 83 85
f 49 88 89
f 49 89 90
f 49 90 91
f 49 91 50
f 50 92 51
f 50 91 93
f 50 93 92
f 51 92 93
f 51 93 52
f 52 93 53
f 53 93 54
f 54 93 55
f 55 93 94
f 55 94 95
f 55 95 56
f 56 95 96
f 56 96 57
f 57 96 97
f 57 97 58
f 58 98 99
f 58 99 100
f 58 100 101
f 58 101 102
f 58 102 59
f 58 97 103
f 58 103 98
f 59 102 101
f 59 101 104
f 59 104 60
f 60 104 63
f 63 105 106
f 63 106 64
f 63 104 105
f 64 106 65
f 65 106 107
f 65 107 66
f 66 107 108
f 66 108 109
f 67 111 110
f 68 112 113
f 68 113 69
f 69 113 114
f 69 114 70
f 70 115 116
f 70 116 73
f 70 73 71
f 70 114 115
f 73 116 74
f 74 116 75
f 75 116 117
f 75 117 118
f 75 118 119
f 75 119 120
f 75 120 82
f 75 82 76
f 76 82 78
f 76 78 77
f 80 121 81
f 80 82 120
f 80 120 119
f 80 119 121
f 81 121 122
f 81 122 84
f 83 84 123
f 83 123 85
f 84 122 123
f 85 124 86
f 85 123 125
f 85 125 124
f 86 124 126
f 86 126 87
f 87 126 128
f 87 128 127
f 88 129 89
f 89 129 130
f 89 130 131
f 89 131 132
f 89 132 133
f 89 133 134
f 89 134 135
f 89 135 90
f 90 135 136
f 90 136 91
f 91 136 137
f 91 137 93
f 93 138 94
f 93 137 136
f 93 136 138
f 94 138 139
f 94 139 95
f 95 139 96
f 96 140 97
f 96 139 140
f 97 140 141
f 97 141 142
f 97 142 143
f 97 143 103
f 98 103 99
f 99 144 145
f 99 145 100
f 99 103 144
f 100 145 146
f 100 146 105
f 100 105 101
f 101 105 104
f 103 143 147
f 103 147 148
f 103 148 149
f 103 149 150
f 103 150 151
f 103 151 144
f 105 146 152
f 105 152 106
f 106 152 153
f 106 153 107
f 107 153 154
f 107 154 108
f 108 154 155
f 108 155 109
f 109 155 156
f 110 111 157
f 110 157 158
f 111 159 160
f 111 160 161
f 111 161 157
f 112 162 163
f 112 163 113
f 113 163 164
f 113 164 165
f 113 165 114
f 114 165 115
f 115 166 116
f 115 165 166
f 116 166 117
f 117 166 118
f 118 166 167
f 118 167 168
f 118 168 169
f 118 169 170
f 118 170 171
f 118 171 119
f 119 171 172
f 119 172 121
f 121 172 122
f 122 172 173
f 122 173 174
f 122 174 175
f 122 175 123
f 123 176 125
f 123 175 176
f 124 125 177
f 124 177 126
f 125 176 177
f 126 177 178
f 126 178 179
f 126 179 128
f 127 128 181
f 127 181 182
f 127 182 183
f 127 183 180
f 128 179 184
f 128 184 181
f 129 185 186
f 129 186 130
f 130 186 131
f 131 186 132
f 132 186 187
f 132 187 188
f 132 188 189
f 132 189 190
f 132 190 191
f 132 191 192
f 132 192 193
f 132 193 134
f 132 134 133
f 134 193 192
f 134 192 194
f 134 194 195
f 134 195 196
f 134 196 136
f 134 136 135
f 136 196 197
f 136 197 138
f 138 197 198
f 138 198 139
f 139 198 140
f 140 199 141
f 140 198 199
f 141 199 142
f 142 200 201
f 142 201 202
f 142 202 203
f 142 203 143
f 142 199 204
f 142 204 200
f 143 203 147
f 144 205 206
f 144 206 207
f 144 207 208
f 144 208 145
f 144 151 209
f 144 209 205
f 145 208 206
f 145 206 146
f 146 206 210
f 146 210 152
f 147 211 212
f 147 212 148
f 147 203 211
f 148 212 213
f 148 213 214
f 148 214 150
f 148 150 149
f 150 214 215
f 150 215 216
f 150 216 151
f 151 217 209
f 151 216 218
f 151 218 217
f 152 219 220
f 152 220 221
f 152 221 154
f 152 154 153
f 152 210 219
f 154 221 222
f 154 222 155
f 155 222 156
f 156 222 223
f 157 161 158
f 158 161 225
f 158 225 224
f 159 226 160
f 160 226 227
f 160 227 161
f 161 227 221
f 161 221 217
f 161 217 218
f 161 218 225
f 162 228 229
f 162 229 163
f 163 229 164
f 164 229 230
f 164 230 165
f 165 231 232
f 165 232 166
f 165 230 233
f 165 233 231
f 166 232 231
f 166 231 234
f 166 234 167
f 167 234 235
f 167 235 236
f 167 236 237
f 167 237 238
f 167 238 169
f 167 169 168
f 169 238 239
f 169 239 240
f 169 240 170
f 170 240 241
f 170 241 173
f 170 173 171
f 171 173 172
f 173 241 174
f 174 241 242
f 174 242 243
f 174 243 176
f 174 176 175
f 176 178 177
f 176 243 178
f 178 244 179
f 178 243 245
f 178 245 244
f 179 244 184
f 180 183 247
f 180 247 248
f 180 248 249
f 180 249 250
f 180 250 251
f 180 251 246
f 181 252 183
f 181 183 182
f 181 184 252
f 183 253 247
f 183 252 254
f 183 254 253
f 184 244 255
f 184 255 256
f 184 256 252
f 185 257 258
f 185 258 186
f 186 259 187
f 186 258 259
f 187 259 251
f 187 251 260
f 187 260 188
f 188 260 261
f 188 261 189
f 189 261 262
f 189 262 190
f 190 262 263
f 190 263 191
f 191 263 264
f 191 264 265
f 191 265 266
f 191 266 192
f 192 267 194
f 192 266 268
f 192 268 267
f 194 267 195
f 195 268 269
f 195 269 270
f 195 270 197
f 195 197 196
f 195 267 268
f 197 270 198
f 198 270 271
f 198 271 199
f 199 271 204
f 200 204 201
f 201 272 202
f 201 204 273
f 201 273 274
f 201 274 272
f 202 272 275
f 202 275 276
f 202 276 277
f 202 277 203
f 203 277 211
f 204 271 278
f 204 278 273
f 205 209 217
f 205 217 279
f 205 279 206
f 206 219 210
f 206 208 207
f 206 279 220
f 206 220 219
f 211 277 276
f 211 276 280
f 211 280 281
f 211 281 212
f 212 281 282
f 212 282 283
f 212 283 284
f 212 284 285
f 212 285 213
f 213 285 214
f 214 285 287
f 214 287 286
f 215 288 216
f 216 288 218
f 217 221 279
f 218 288 289
f 218 289 225
f 220 279 221
f 221 227 226
f 221 226 222
f 222 226 290
f 222 290 223
f 224 225 289
f 228 291 229
f 229 291 292
f 229 292 230
f 230 292 293
f 230 293 294
f 230 294 231
f 230 231 233
f 231 295 235
f 231 235 234
f 231 294 296
f 231 296 295
f 235 295 236
f 236 297 237
f 236 295 298
f 236 298 297
f 237 297 299
f 237 299 300
f 237 300 238
f 238 300 239
f 239 300 240
f 240 300 301
f 240 301 241
f 241 302 242
f 241 301 302
f 242 303 245
f 242 245 243
f 242 302 301
f 242 301 304
f 242 304 303
f 244 245 305
f 244 305 255
f 245 303 305
f 246 251 306
f 247 253 248
f 248 253 249
f 249 253 307
f 249 307 250
f 250 307 251
f 251 307 260
f 251 259 308
f 251 308 306
f 252 256 254
f 253 309 307
f 253 254 310
f 253 310 309
f 254 256 311
f 254 311 310
f 255 305 312
f 255 312 313
f 255 313 256
f 256 314 311
f 256 313 314
f 257 315 258
f 258 315 259
f 259 315 306
f 259 306 308
f 260 309 261
f 260 307 309
f 261 309 316
f 261 316 262
f 262 316 317
f 262 317 263
f 263 317 318
f 263 318 319
f 263 319 264
f 264 319 320
f 264 320 265
f 265 320 321
f 265 321 322
f 265 322 323
f 265 323 324
f 265 324 266
f 266 324 325
f 266 325 268
f 268 325 269
f 269 326 327
f 269 327 278
f 269 278 270
f 269 325 326
f 270 278 271
f 272 274 275
f 273 278 327
f 273 327 274
f 274 327 326
f 274 326 328
f 274 328 275
f 275 329 330
f 275 330 331
f 275 331 332
f 275 332 333
f 275 333 276
f 275 328 329
f 276 333 281
f 276 281 280
f 281 333 334
f 281 334 335
f 281 335 283
f 281 283 282
f 283 335 336
f 283 336 337
f 283 337 287
f 283 287 284
f 284 287 285
f 286 287 339
f 286 339 340
f 286 340 338
f 287 337 339
f 291 341 342
f 291 342 292
f 292 342 343
f 292 343 293
f 293 344 345
f 293 345 294
f 293 343 346
f 293 346 344
f 294 345 296
f 295 296 345
f 295 345 347
f 295 347 348
f 295 348 298
f 297 298 349
f 297 349 350
f 297 350 351
f 297 351 352
f 297 352 353
f 297 353 299
f 298 348 349
f 299 353 354
f 299 354 355
f 299 355 356
f 299 356 300
f 300 356 355
f 300 355 301
f 301 355 304
f 303 304 357
f 303 357 358
f 303 358 305
f 304 355 357
f 305 358 312
f 309 310 316
f 310 311 314
f 310 314 359
f 310 359 316
f 312 360 313
f 312 358 361
f 312 361 321
f 312 321 360
f 313 360 314
f 314 318 359
f 314 360 318
f 316 359 317
f 317 359 318
f 318 360 362
f 318 362 319
f 319 362 320
f 320 362 321
f 321 361 363
f 321 363 322
f 321 362 360
f 322 363 364
f 322 364 323
f 323 364 365
f 323 365 324
f 324 365 366
f 324 366 367
f 324 367 325
f 325 367 326
f 326 367 368
f 326 368 369
f 326 369 328
f 328 369 370
f 328 370 329
f 329 370 369
f 329 369 330
f 330 371 372
f 330 372 373
f 330 373 374
f 330 374 331
f 330 369 371
f 331 374 375
f 331 375 332
f 332 375 333
f 333 376 334
f 333 375 376
f 334 377 336
f 334 336 335
f 334 376 377
f 336 378 379
f 336 379 337
f 336 377 378
f 337 379 339
f 338 340 380
f 339 379 340
f 340 379 381
f 340 381 382
f 340 382 380
f 341 383 343
f 341 343 384
f 341 384 342
f 342 384 343
f 343 383 385
f 343 385 386
f 343 386 387
f 343 387 346
f 344 346 387
f 344 387 388
f 344 388 389
f 344 389 348
f 344 348 347
f 344 347 345
f 348 389 390
f 348 390 349
f 349 390 350
f 350 391 351
f 350 390 392
f 350 392 393
f 350 393 391
f 351 391 394
f 351 394 352
f 352 394 395
f 352 395 396
f 352 396 354
f 352 354 353
f 354 396 397
f 354 397 357
f 354 357 355
f 357 397 358
f 358 397 361
f 361 397 363
f 363 397 398
f 363 398 364
f 364 398 365
f 365 398 366
f 366 398 399
f 366 399 400
f 366 400 368
f 366 368 367
f 368 400 399
f 368 399 398
f 368 398 369
f 369 398 401
f 369 401 372
f 369 372 371
f 372 401 373
f 373 395 394
f 373 394 391
f 373 391 402
f 373 402 403
f 373 403 374
f 373 401 395
f 374 403 375
f 375 403 404
f 375 404 405
f 375 405 376
f 376 405 406
f 376 406 377
f 377 407 378
f 377 406 405
f 377 405 407
f 378 407 408
f 378 408 409
f 378 409 410
f 378 410 379
f 379 410 411
f 379 411 381
f 381 411 412
f 381 412 382
f 385 413 414
f 385 414 415
f 385 415 416
f 385 416 386
f 386 416 387
f 387 416 417
f 387 417 418
f 387 418 388
f 388 419 389
f 388 418 420
f 388 420 419
f 389 419 390
f 390 419 392
f 391 393 421
f 391 421 422
f 391 422 404
f 391 404 402
f 392 419 423
f 392 423 393
f 393 423 424
f 393 424 421
f 395 401 396
f 396 401 398
f 396 398 397
f 402 404 403
f 404 422 405
f 405 422 425
f 405 425 424
f 405 424 426
f 405 426 427
f 405 427 407
f 407 427 408
f 408 428 409
f 408 427 429
f 408 429 430
f 408 430 428
f 409 428 431
f 409 431 432
f 409 432 410
f 410 432 411
f 411 432 433
f 411 433 434
f 411 434 435
f 411 435 412
f 413 436 414
f 414 437 433
f 414 433 438
f 414 438 415
f 414 436 439
f 414 439 437
f 415 438 417
f 415 417 416
f 417 438 440
f 417 440 418
f 418 440 420
f 419 420 441
f 419 441 423
f 420 440 442
f 420 442 441
f 421 424 425
f 421 425 422
f 423 441 430
f 423 430 424
f 424 430 429
f 424 429 426
f 426 429 427
f 428 442 431
f 428 430 441
f 428 441 442
f 431 442 438
f 431 438 433
f 431 433 432
f 433 437 434
f 434 437 443
f 434 443 435
f 437 439 444
f 437 444 443
f 438 442 440

