# https://github.com/mikedh/trimesh
v 0.01900945 -0.02888318 0.09038351
v 0.01900945 -0.02864701 0.09164712
v 0.01900945 -0.02380248 0.09038171
v 0.01958709 -0.02872876 0.09038171
v 0.02472185 -0.02742982 0.09038171
v 0.03331273 -0.02485314 0.09717791
v 0.03331273 -0.02462000 0.09902929
v 0.02961043 -0.02483194 0.10087888
v 0.02772439 -0.02505903 0.10074946
v 0.02776122 -0.02428391 0.10273026
v 0.02584998 -0.02501361 0.10074946
v 0.02592364 -0.02397204 0.10281474
v 0.01900945 -0.02847442 0.09198325
v 0.03146158 -0.02457761 0.10087888
v 0.01900945 -0.00417610 0.09038171
v 0.02540222 -0.02725421 0.09038171
v 0.02581897 -0.02714520 0.09038171
v 0.03209155 -0.02537090 0.09038171
v 0.03516388 -0.02429905 0.09717791
v 0.03524723 -0.02390543 0.09904367
v 0.03468704 -0.02369954 0.10056252
v 0.03349300 -0.02399626 0.10105862
v 0.02961043 -0.02416279 0.10273026
v 0.02961043 -0.02358145 0.10385367
v 0.02776122 -0.02362081 0.10389142
v 0.02655168 -0.02354512 0.10378177
v 0.02531693 -0.02327261 0.10349058
v 0.02440395 -0.02376615 0.10225573
v 0.01900945 -0.02774169 0.09324686
v 0.03299678 -0.02368743 0.10226112
v 0.03141119 -0.02382973 0.10281834
v 0.01900945 -0.00747038 0.09712758
v 0.02118237 -0.00289533 0.09854577
v 0.02161851 -0.00176898 0.09717791
v 0.02254505 -0.00047004 0.09717791
v 0.02328551 0.00045345 0.09717791
v 0.02323705 0.00051703 0.09532652
v 0.02059117 -0.00239271 0.09038171
v 0.03262073 -0.02518923 0.09038171
v 0.03336313 -0.02489250 0.09038171
v 0.03516388 -0.02424757 0.09532652
v 0.03635792 -0.02366320 0.09717791
v 0.03624356 -0.02356328 0.09843613
v 0.03591985 -0.02330592 0.09966919
v 0.03422958 -0.02343914 0.10179738
v 0.03076183 -0.02349364 0.10373144
v 0.02961043 -0.02280330 0.10477757
v 0.02776122 -0.02276394 0.10481531
v 0.02776122 -0.02183742 0.10571584
v 0.02669705 -0.02168300 0.10557744
v 0.02316921 -0.02340886 0.10177042
v 0.02454933 -0.02203726 0.10400466
v 0.01900945 -0.02674553 0.09417255
v 0.03199657 -0.02333014 0.10349598
v 0.01900945 -0.00832422 0.09822403
v 0.02132775 -0.00320720 0.09977883
v 0.02174644 -0.00222921 0.09911017
v 0.02275440 -0.00073649 0.09902929
v 0.02355301 0.00018700 0.09902929
v 0.02447761 0.00097424 0.09902929
v 0.02421012 0.00117407 0.09717791
v 0.02416166 0.00117407 0.09532652
v 0.02334366 0.00044436 0.09347694
v 0.02185887 -0.00120883 0.09038171
v 0.03379926 -0.02467752 0.09038171
v 0.03628426 -0.02360870 0.09532652
v 0.03728252 -0.02263980 0.09717791
v 0.03797646 -0.02165272 0.09819707
v 0.03697432 -0.02247932 0.09893403
v 0.03647228 -0.02207056 0.10056612
v 0.03608655 -0.02158611 0.10180097
v 0.03538679 -0.02275485 0.10118265
v 0.03473744 -0.02209479 0.10273026
v 0.03428967 -0.02164667 0.10370268
v 0.03349300 -0.02303644 0.10281834
v 0.03086844 -0.02173448 0.10563136
v 0.02961043 -0.02187678 0.10575718
v 0.02961043 -0.02066565 0.10656963
v 0.02776122 -0.02066565 0.10646358
v 0.02776122 -0.01922743 0.10717897
v 0.02682111 -0.01791336 0.10736591
v 0.02601281 -0.02049609 0.10580212
v 0.02546425 -0.02099871 0.10523772
v 0.02273307 -0.02217654 0.10225753
v 0.02497190 -0.01976336 0.10551632
v 0.02331653 -0.02114102 0.10349058
v 0.01900945 -0.02066262 0.09898795
v 0.03331273 -0.02201303 0.10406397
v 0.03210318 -0.02138930 0.10538691
v 0.01900945 -0.00883593 0.09884236
v 0.02112616 -0.00444255 0.10044569
v 0.02132581 -0.00512987 0.10167875
v 0.02153516 -0.00389754 0.10098852
v 0.02284744 -0.00265008 0.10226472
v 0.02252567 -0.00208387 0.10090404
v 0.02297731 -0.00102716 0.10030369
v 0.02402016 -0.00028534 0.10090404
v 0.02477612 0.00076229 0.10026954
v 0.02591007 0.00152227 0.09902929
v 0.02591007 0.00190983 0.09717791
v 0.02427021 0.00103479 0.09347694
v 0.02591007 0.00190378 0.09532652
v 0.02355107 0.00032931 0.09162555
v 0.02247915 -0.00066079 0.09038171
v 0.03506115 -0.02395387 0.09038171
v 0.03666418 -0.02247024 0.09038171
v 0.03734261 -0.02239151 0.09523306
v 0.03800360 -0.02169209 0.09578667
v 0.03801329 -0.02171328 0.09717791
v 0.03838546 -0.02066565 0.09717791
v 0.03812378 -0.02066565 0.09858711
v 0.03774386 -0.02066565 0.09951101
v 0.03680181 -0.02084732 0.10106222
v 0.03630558 -0.02035076 0.10208677
v 0.03557288 -0.02084732 0.10271408
v 0.03452034 -0.02066565 0.10393995
v 0.03267307 -0.02015698 0.10572303
v 0.03147515 -0.02072924 0.10601063
v 0.02961043 -0.01939699 0.10724368
v 0.02776122 -0.01830092 0.10748813
v 0.02776122 -0.01696262 0.10782067
v 0.02776122 -0.01511262 0.10819813
v 0.02662146 -0.01696262 0.10748274
v 0.02507463 -0.01393176 0.10729221
v 0.02531111 -0.01511262 0.10712325
v 0.02569491 -0.01696262 0.10685363
v 0.02307617 -0.01990567 0.10370987
v 0.02481683 -0.01881565 0.10565832
v 0.02389222 -0.01881565 0.10479913
v 0.01900945 -0.01695353 0.10078182
v 0.01900945 -0.01918807 0.09981658
v 0.02165340 -0.00579296 0.10267274
v 0.01900945 -0.01328683 0.10079799
v 0.02291140 -0.00450613 0.10394355
v 0.02248496 -0.00393690 0.10282193
v 0.02363442 -0.00208387 0.10282193
v 0.02326419 -0.00141472 0.10153854
v 0.02323511 -0.00327078 0.10349957
v 0.02460942 -0.00088182 0.10273026
v 0.02591007 0.00049887 0.10157809
v 0.02591007 0.00093185 0.10065240
v 0.02496996 -0.00122094 0.10366853
v 0.02776122 0.00101965 0.10086450
v 0.02776122 0.00167669 0.09902929
v 0.02776122 0.00204609 0.09717791
v 0.02776122 0.00204609 0.09532652
v 0.02447761 0.00087734 0.09162555
v 0.02405699 0.00044436 0.09038171
v 0.02375266 0.00026572 0.09038171
v 0.02776122 0.00177964 0.09347694
v 0.02591007 0.00162219 0.09347694
v 0.02467920 0.00076834 0.09038171
v 0.03761980 -0.02098357 0.09038171
v 0.03791637 -0.02154675 0.09455182
v 0.03809083 -0.02006009 0.09038171
v 0.03825559 -0.02046279 0.09347694
v 0.03829436 -0.02082310 0.09523306
v 0.03881190 -0.01881565 0.09532652
v 0.03871692 -0.01881565 0.09717791
v 0.03825947 -0.01881565 0.09894301
v 0.03790474 -0.01881565 0.09986691
v 0.03732323 -0.01881565 0.10087888
v 0.03643351 -0.01881565 0.10226112
v 0.03568530 -0.01881565 0.10318681
v 0.03476070 -0.01881565 0.10420777
v 0.03383803 -0.01881565 0.10513346
v 0.03291343 -0.01881565 0.10594951
v 0.03137629 -0.01877932 0.10690037
v 0.03070368 -0.01814044 0.10743242
v 0.02961043 -0.01847350 0.10754026
v 0.02961043 -0.01696262 0.10788358
v 0.02776122 -0.01326564 0.10854504
v 0.02623572 -0.01511262 0.10770203
v 0.02578020 -0.01329592 0.10784403
v 0.02488661 -0.01270246 0.10744320
v 0.02315564 -0.01409527 0.10548397
v 0.02423725 -0.01511262 0.10619936
v 0.02452413 -0.01696262 0.10592794
v 0.02359953 -0.01696262 0.10506875
v 0.02331071 -0.01511262 0.10533837
v 0.02302383 -0.01286294 0.10562417
v 0.01900945 -0.01511262 0.10104065
v 0.02264003 -0.00585957 0.10430663
v 0.02149639 -0.00771260 0.10316704
v 0.02293079 -0.00956261 0.10572662
v 0.02301995 -0.00815164 0.10562777
v 0.02249465 -0.00760663 0.10474341
v 0.02463462 -0.00437291 0.10584166
v 0.02393487 -0.00382184 0.10470567
v 0.02335723 -0.00585957 0.10523232
v 0.02506688 -0.00313756 0.10546959
v 0.02458810 -0.00215957 0.10409993
v 0.02776122 0.00061090 0.10179019
v 0.02591007 -0.00026717 0.10273026
v 0.02776122 -0.00000678 0.10273026
v 0.02591007 -0.00107258 0.10384109
v 0.02630162 -0.00285294 0.10569787
v 0.02918011 0.00087432 0.10055354
v 0.02972286 0.00108021 0.09904547
v 0.02961043 0.00148897 0.09717791
v 0.02961043 0.00151622 0.09532652
v 0.02961043 0.00131638 0.09347694
v 0.02953677 0.00091973 0.09038171
v 0.02776122 0.00145566 0.09162555
v 0.02886803 0.00107113 0.09038171
v 0.02776122 0.00123766 0.09038171
v 0.02715257 0.00118316 0.09038171
v 0.02591007 0.00129216 0.09162555
v 0.02591007 0.00106810 0.09038171
v 0.03778262 -0.02068079 0.09038171
v 0.03832343 -0.01927285 0.09038171
v 0.03845524 -0.01881565 0.09038171
v 0.03856379 -0.01881565 0.09162555
v 0.03870336 -0.01881565 0.09347694
v 0.03861031 -0.01696262 0.09038171
v 0.03866265 -0.01696262 0.09162555
v 0.03873243 -0.01696262 0.09347694
v 0.03878477 -0.01696262 0.09532652
v 0.03866846 -0.01696262 0.09717791
v 0.03823620 -0.01696262 0.09891246
v 0.03789505 -0.01696262 0.09983635
v 0.03733486 -0.01696262 0.10087888
v 0.03645484 -0.01696262 0.10230786
v 0.03573958 -0.01696262 0.10323355
v 0.03481303 -0.01696262 0.10428686
v 0.03396209 -0.01696262 0.10521255
v 0.03303748 -0.01696262 0.10612386
v 0.03185120 -0.01696262 0.10704776
v 0.03092659 -0.01696262 0.10754745
v 0.02961043 -0.01511262 0.10818375
v 0.02961043 -0.01326564 0.10845876
v 0.02776122 -0.01141261 0.10874276
v 0.02591007 -0.01141261 0.10819094
v 0.02478969 -0.01141261 0.10752768
v 0.02386508 -0.01141261 0.10665052
v 0.02293273 -0.01141261 0.10572483
v 0.02316533 -0.00691931 0.10546959
v 0.02384570 -0.00956261 0.10665232
v 0.02486141 -0.00810622 0.10746297
v 0.02401434 -0.00751277 0.10648336
v 0.02428377 -0.00585957 0.10620655
v 0.02502036 -0.00687087 0.10733715
v 0.02574725 -0.00571121 0.10716100
v 0.02577439 -0.00385515 0.10617599
v 0.02908707 -0.00102413 0.10389861
v 0.02776122 -0.00092724 0.10401365
v 0.02776122 -0.00180228 0.10493934
v 0.02776122 -0.00499059 0.10733176
v 0.02776122 -0.00400957 0.10670444
v 0.02776122 -0.00272880 0.10580392
v 0.02966665 -0.00058812 0.10279497
v 0.02972286 0.00035050 0.10105323
v 0.03041486 0.00054126 0.09967278
v 0.03064359 0.00070476 0.09844152
v 0.03076183 0.00079559 0.09717791
v 0.03079478 0.00081982 0.09532652
v 0.03069786 0.00074412 0.09347694
v 0.03060094 0.00066842 0.09207851
v 0.03050209 0.00060181 0.09084546
v 0.03043036 0.00057456 0.09038171
v 0.03857736 -0.01757121 0.09038171
v 0.03850176 -0.01572121 0.09038171
v 0.03843780 -0.01511262 0.09038171
v 0.03851727 -0.01511262 0.09347694
v 0.03856379 -0.01511262 0.09532652
v 0.03849789 -0.01511262 0.09717791
v 0.03817224 -0.01511262 0.09879922
v 0.03785822 -0.01511262 0.09972311
v 0.03729609 -0.01511262 0.10087888
v 0.03645096 -0.01511262 0.10232763
v 0.03577253 -0.01511262 0.10325152
v 0.03484792 -0.01511262 0.10433719
v 0.03405901 -0.01326564 0.10530422
v 0.03401442 -0.01511262 0.10526288
v 0.03313440 -0.01326564 0.10629283
v 0.03308788 -0.01511262 0.10621913
v 0.03220979 -0.01326564 0.10721852
v 0.03207217 -0.01511262 0.10714482
v 0.03114756 -0.01511262 0.10768765
v 0.03128325 -0.01326564 0.10781348
v 0.02961043 -0.01141261 0.10862054
v 0.02776122 -0.00956261 0.10866727
v 0.02591007 -0.00956261 0.10818016
v 0.02477031 -0.00956261 0.10754206
v 0.02574725 -0.00757635 0.10779550
v 0.02625510 -0.00622594 0.10759059
v 0.03031988 -0.00137536 0.10345643
v 0.02914328 -0.00284083 0.10571225
v 0.02973255 -0.00210809 0.10465174
v 0.02776122 -0.00591710 0.10772001
v 0.02961043 -0.00621383 0.10760317
v 0.02961043 -0.00528731 0.10716100
v 0.03081998 -0.00097569 0.10222158
v 0.03144607 -0.00075465 0.10069374
v 0.03238619 -0.00123305 0.09995318
v 0.03134140 -0.00005220 0.09904547
v 0.03252381 -0.00108772 0.09902929
v 0.03168837 0.00003864 0.09717791
v 0.03172132 0.00007800 0.09532652
v 0.03162441 0.00001441 0.09347694
v 0.03131620 0.00004772 0.09152669
v 0.03141119 -0.00015817 0.09038171
v 0.03091690 0.00022636 0.09038171
v 0.03828660 -0.01386818 0.09038171
v 0.03792219 -0.01063446 0.09162555
v 0.03830405 -0.01326564 0.09532652
v 0.03816255 -0.01315664 0.09722464
v 0.03807338 -0.01369862 0.09852241
v 0.03705573 -0.01326564 0.10087888
v 0.03635792 -0.01326564 0.10223056
v 0.03575702 -0.01326564 0.10315626
v 0.03483048 -0.01326564 0.10437853
v 0.03405319 -0.01141261 0.10526827
v 0.03312858 -0.01141261 0.10630001
v 0.03224469 -0.01141261 0.10722571
v 0.03132008 -0.01141261 0.10789616
v 0.02961043 -0.00956261 0.10851448
v 0.02776122 -0.00771260 0.10832216
v 0.03037803 -0.00319508 0.10540668
v 0.03097311 -0.00261071 0.10417182
v 0.03151392 -0.00208993 0.10281654
v 0.02969960 -0.00389148 0.10621374
v 0.02961043 -0.00771260 0.10811545
v 0.03063971 -0.00661956 0.10743421
v 0.03261879 -0.00280147 0.10217664
v 0.03205472 -0.00156914 0.10118804
v 0.03279712 -0.00217471 0.10069374
v 0.03330692 -0.00215957 0.09902929
v 0.03270990 -0.00088788 0.09717791
v 0.03374111 -0.00229885 0.09724082
v 0.03276611 -0.00084852 0.09532652
v 0.03274285 -0.00091210 0.09347694
v 0.03265756 -0.00100899 0.09162555
v 0.03258002 -0.00107560 0.09038171
v 0.03211675 -0.00070924 0.09038171
v 0.03780201 -0.00991383 0.09038171
v 0.03774192 -0.00956261 0.09038171
v 0.03773804 -0.00956261 0.09162555
v 0.03790280 -0.01066474 0.09347694
v 0.03805788 -0.01158822 0.09347694
v 0.03804818 -0.01188798 0.09532652
v 0.03799778 -0.01215140 0.09663687
v 0.03790280 -0.01246629 0.09787173
v 0.03773610 -0.01315664 0.09909580
v 0.03649942 -0.01133691 0.10098672
v 0.03604003 -0.01066776 0.10167515
v 0.03620866 -0.01190009 0.10201847
v 0.03453003 -0.00956261 0.10413767
v 0.03471999 -0.01141261 0.10434258
v 0.03393107 -0.00956261 0.10506157
v 0.03300453 -0.00956261 0.10616880
v 0.03211869 -0.00956261 0.10709449
v 0.03119215 -0.00956261 0.10784044
v 0.03088782 -0.00771260 0.10761755
v 0.03092077 -0.00442741 0.10587042
v 0.03156432 -0.00386726 0.10470567
v 0.03220786 -0.00331014 0.10340970
v 0.03181243 -0.00771260 0.10680330
v 0.03250055 -0.00657717 0.10562777
v 0.03139762 -0.00598069 0.10636652
v 0.03303167 -0.00395810 0.10276801
v 0.03387874 -0.00400957 0.10097774
v 0.03409583 -0.00334648 0.09902929
v 0.03421214 -0.00312544 0.09789869
v 0.03369071 -0.00198698 0.09532652
v 0.03428773 -0.00300736 0.09666563
v 0.03435170 -0.00291350 0.09532652
v 0.03449514 -0.00277422 0.09162555
v 0.03450871 -0.00279238 0.09038171
v 0.03420826 -0.00248657 0.09038171
v 0.03350657 -0.00186587 0.09038171
v 0.03751319 -0.00832120 0.09038171
v 0.03736588 -0.00771260 0.09038171
v 0.03728834 -0.00771260 0.09162555
v 0.03761011 -0.00956261 0.09347694
v 0.03705186 -0.00771260 0.09347694
v 0.03736781 -0.00956261 0.09532652
v 0.03677467 -0.00771260 0.09532652
v 0.03607685 -0.00682242 0.09802631
v 0.03769346 -0.01148528 0.09722464
v 0.03723213 -0.01141261 0.09902929
v 0.03627069 -0.00992595 0.10044030
v 0.03590434 -0.00941122 0.10098672
v 0.03417918 -0.00697987 0.10351036
v 0.03435751 -0.00821522 0.10387345
v 0.03374111 -0.00764296 0.10452592
v 0.03273509 -0.00771260 0.10587761
v 0.03215358 -0.00534181 0.10523951
v 0.03266144 -0.00454247 0.10400466
v 0.03295607 -0.00592013 0.10460501
v 0.03396790 -0.00575360 0.10282732
v 0.03418888 -0.00506325 0.10165898
v 0.03439434 -0.00462725 0.10042592
v 0.03460951 -0.00427299 0.09902929
v 0.03473937 -0.00384909 0.09724082
v 0.03442924 -0.00281661 0.09347694
v 0.03506502 -0.00400957 0.09532652
v 0.03522591 -0.00400957 0.09347694
v 0.03609042 -0.00493306 0.09038171
v 0.03537128 -0.00400957 0.09162555
v 0.03551085 -0.00411554 0.09038171
v 0.03675335 -0.00624108 0.09038171
v 0.03654982 -0.00575663 0.09038171
v 0.03654594 -0.00594738 0.09162555
v 0.03641995 -0.00610785 0.09347694
v 0.03628232 -0.00632889 0.09532652
v 0.03617184 -0.00656808 0.09679325
v 0.03581324 -0.00591407 0.09731811
v 0.03536353 -0.00585957 0.09902929
v 0.03467735 -0.00575360 0.10097774
v 0.03594117 -0.00754910 0.09918387
v 0.03627263 -0.00805778 0.09866800
v 0.03607104 -0.00869059 0.09990106
v 0.03540230 -0.00771260 0.10087888
v 0.03441373 -0.00629861 0.10227550
v 0.03587526 -0.00540237 0.09532652
v 0.03595861 -0.00518134 0.09347694
v 0.03603809 -0.00502086 0.09162555
v 0.03608073 -0.00494820 0.09061538
v 0.03623580 -0.00519042 0.09038171
v 0.03640832 -0.00549926 0.09038171
f 1 2 13
f 1 13 29
f 1 29 53
f 1 53 87
f 1 87 131
f 1 131 130
f 1 130 182
f 1 182 133
f 1 133 90
f 1 90 55
f 1 55 32
f 1 32 15
f 1 15 3
f 1 3 4
f 1 4 5
f 1 5 6
f 1 6 7
f 1 7 2
f 2 8 9
f 2 9 10
f 2 10 11
f 2 11 12
f 2 12 13
f 2 7 14
f 2 14 8
f 3 15 38
f 3 38 64
f 3 64 104
f 3 104 149
f 3 149 148
f 3 148 152
f 3 152 209
f 3 209 207
f 3 207 206
f 3 206 205
f 3 205 203
f 3 203 260
f 3 260 303
f 3 303 302
f 3 302 335
f 3 335 334
f 3 334 371
f 3 371 370
f 3 370 369
f 3 369 401
f 3 401 399
f 3 399 420
f 3 420 421
f 3 421 403
f 3 403 402
f 3 402 373
f 3 373 372
f 3 372 337
f 3 337 336
f 3 336 304
f 3 304 263
f 3 263 262
f 3 262 215
f 3 215 261
f 3 261 212
f 3 212 211
f 3 211 155
f 3 155 210
f 3 210 153
f 3 153 106
f 3 106 105
f 3 105 65
f 3 65 40
f 3 40 39
f 3 39 18
f 3 18 17
f 3 17 16
f 3 16 5
f 3 5 4
f 5 16 6
f 6 16 17
f 6 17 18
f 6 18 19
f 6 19 7
f 7 19 20
f 7 20 21
f 7 21 22
f 7 22 14
f 8 14 23
f 8 23 9
f 9 23 10
f 10 23 24
f 10 24 25
f 10 25 26
f 10 26 12
f 10 12 11
f 12 26 27
f 12 27 28
f 12 28 29
f 12 29 13
f 14 22 30
f 14 30 31
f 14 31 23
f 15 32 33
f 15 33 34
f 15 34 35
f 15 35 36
f 15 36 37
f 15 37 38
f 18 39 19
f 19 39 40
f 19 40 41
f 19 41 42
f 19 42 43
f 19 43 20
f 20 43 21
f 21 43 44
f 21 44 45
f 21 45 22
f 22 45 30
f 23 31 46
f 23 46 24
f 24 46 47
f 24 47 25
f 25 47 48
f 25 48 26
f 26 48 49
f 26 49 50
f 26 50 27
f 27 51 28
f 27 50 52
f 27 52 51
f 28 51 29
f 29 51 53
f 30 45 54
f 30 54 31
f 31 54 46
f 32 55 56
f 32 56 33
f 33 57 34
f 33 56 57
f 34 57 58
f 34 58 35
f 35 58 36
f 36 58 59
f 36 59 60
f 36 60 61
f 36 61 37
f 37 61 62
f 37 62 63
f 37 63 64
f 37 64 38
f 40 65 41
f 41 65 66
f 41 66 42
f 42 66 67
f 42 67 43
f 43 67 68
f 43 68 69
f 43 69 44
f 44 69 70
f 44 70 71
f 44 71 72
f 44 72 45
f 45 72 71
f 45 71 73
f 45 73 74
f 45 74 75
f 45 75 54
f 46 54 76
f 46 76 47
f 47 76 77
f 47 77 48
f 48 77 49
f 49 77 78
f 49 78 79
f 49 79 50
f 50 79 80
f 50 80 81
f 50 81 82
f 50 82 83
f 50 83 52
f 51 52 84
f 51 84 53
f 52 83 85
f 52 85 86
f 52 86 84
f 53 84 87
f 54 75 88
f 54 88 89
f 54 89 76
f 55 90 56
f 56 91 92
f 56 92 93
f 56 93 94
f 56 94 95
f 56 95 96
f 56 96 57
f 56 90 91
f 57 96 58
f 58 96 59
f 59 96 97
f 59 97 98
f 59 98 60
f 60 98 99
f 60 99 100
f 60 100 61
f 61 100 62
f 62 101 63
f 62 100 102
f 62 102 101
f 63 103 104
f 63 104 64
f 63 101 103
f 65 105 66
f 66 105 106
f 66 106 107
f 66 107 108
f 66 108 67
f 67 108 109
f 67 109 68
f 68 70 69
f 68 109 110
f 68 110 111
f 68 111 112
f 68 112 71
f 68 71 70
f 71 112 113
f 71 113 114
f 71 114 115
f 71 115 116
f 71 116 74
f 71 74 73
f 74 88 75
f 74 116 117
f 74 117 89
f 74 89 88
f 76 89 118
f 76 118 78
f 76 78 77
f 78 118 119
f 78 119 79
f 79 119 80
f 80 119 120
f 80 120 81
f 81 85 82
f 81 120 121
f 81 121 122
f 81 122 123
f 81 123 124
f 81 124 125
f 81 125 126
f 81 126 85
f 82 85 83
f 84 86 87
f 85 127 86
f 85 126 125
f 85 125 124
f 85 124 128
f 85 128 129
f 85 129 127
f 86 127 130
f 86 130 131
f 86 131 87
f 89 117 118
f 90 132 92
f 90 92 91
f 90 133 132
f 92 132 134
f 92 134 135
f 92 135 93
f 93 135 94
f 94 136 137
f 94 137 95
f 94 135 138
f 94 138 136
f 95 137 96
f 96 137 97
f 97 137 139
f 97 139 98
f 98 140 141
f 98 141 99
f 98 139 142
f 98 142 140
f 99 143 144
f 99 144 100
f 99 141 143
f 100 145 146
f 100 146 102
f 100 144 145
f 101 102 147
f 101 147 148
f 101 148 149
f 101 149 103
f 102 146 150
f 102 150 151
f 102 151 152
f 102 152 147
f 103 149 104
f 106 108 107
f 106 153 154
f 106 154 108
f 108 154 155
f 108 155 156
f 108 156 157
f 108 157 110
f 108 110 109
f 110 157 158
f 110 158 159
f 110 159 111
f 111 159 160
f 111 160 161
f 111 161 112
f 112 161 162
f 112 162 114
f 112 114 113
f 114 116 115
f 114 162 163
f 114 163 164
f 114 164 165
f 114 165 116
f 116 165 166
f 116 166 167
f 116 167 117
f 117 167 168
f 117 168 118
f 118 168 169
f 118 169 119
f 119 169 170
f 119 170 120
f 120 170 121
f 121 171 122
f 121 170 171
f 122 171 172
f 122 172 123
f 123 172 173
f 123 173 124
f 124 174 175
f 124 175 176
f 124 176 177
f 124 177 178
f 124 178 128
f 124 173 174
f 127 129 130
f 128 178 179
f 128 179 129
f 129 179 130
f 130 180 176
f 130 176 181
f 130 181 182
f 130 179 180
f 132 183 134
f 132 133 184
f 132 184 183
f 133 182 185
f 133 185 186
f 133 186 187
f 133 187 184
f 134 188 189
f 134 189 138
f 134 138 135
f 134 183 190
f 134 190 188
f 136 138 142
f 136 142 137
f 137 142 139
f 138 189 191
f 138 191 192
f 138 192 142
f 140 193 141
f 140 142 194
f 140 194 195
f 140 195 193
f 141 193 143
f 142 196 194
f 142 192 191
f 142 191 197
f 142 197 196
f 143 193 198
f 143 198 144
f 144 198 199
f 144 199 200
f 144 200 145
f 145 200 201
f 145 201 146
f 146 201 202
f 146 202 203
f 146 203 150
f 147 152 148
f 150 204 151
f 150 203 205
f 150 205 204
f 151 204 206
f 151 206 207
f 151 207 208
f 151 208 152
f 152 208 209
f 153 210 154
f 154 210 155
f 155 211 156
f 156 211 212
f 156 212 213
f 156 213 157
f 157 213 214
f 157 214 158
f 158 214 215
f 158 215 216
f 158 216 217
f 158 217 218
f 158 218 159
f 159 218 219
f 159 219 220
f 159 220 160
f 160 220 221
f 160 221 161
f 161 221 222
f 161 222 162
f 162 222 223
f 162 223 163
f 163 223 224
f 163 224 164
f 164 224 225
f 164 225 165
f 165 225 226
f 165 226 166
f 166 226 227
f 166 227 167
f 167 227 228
f 167 228 168
f 168 228 169
f 169 228 229
f 169 229 230
f 169 230 171
f 169 171 170
f 171 230 172
f 172 174 173
f 172 230 231
f 172 231 232
f 172 232 233
f 172 233 174
f 174 233 175
f 175 181 176
f 175 233 234
f 175 234 235
f 175 235 181
f 176 180 177
f 177 180 178
f 178 180 179
f 181 235 236
f 181 236 182
f 182 236 185
f 183 184 187
f 183 187 237
f 183 237 190
f 185 236 238
f 185 238 186
f 186 238 239
f 186 239 240
f 186 240 237
f 186 237 187
f 188 191 189
f 188 190 241
f 188 241 242
f 188 242 191
f 190 237 241
f 191 242 243
f 191 243 244
f 191 244 197
f 193 195 245
f 193 245 198
f 194 196 246
f 194 246 195
f 195 246 245
f 196 197 247
f 196 247 246
f 197 244 248
f 197 248 249
f 197 249 250
f 197 250 247
f 198 245 251
f 198 251 252
f 198 252 253
f 198 253 199
f 199 253 254
f 199 254 200
f 200 254 255
f 200 255 256
f 200 256 201
f 201 256 257
f 201 257 258
f 201 258 259
f 201 259 202
f 202 259 260
f 202 260 203
f 204 205 206
f 207 209 208
f 212 261 213
f 213 261 214
f 214 261 215
f 215 262 216
f 216 262 217
f 217 262 263
f 217 263 218
f 218 263 264
f 218 264 265
f 218 265 266
f 218 266 219
f 219 266 267
f 219 267 220
f 220 267 268
f 220 268 221
f 221 268 269
f 221 269 222
f 222 269 270
f 222 270 223
f 223 270 271
f 223 271 224
f 224 271 272
f 224 272 225
f 225 272 273
f 225 273 274
f 225 274 226
f 226 274 275
f 226 275 276
f 226 276 227
f 227 276 277
f 227 277 278
f 227 278 228
f 228 278 279
f 228 279 229
f 229 279 231
f 229 231 230
f 231 279 280
f 231 280 281
f 231 281 232
f 232 281 282
f 232 282 283
f 232 283 233
f 233 283 284
f 233 284 234
f 234 284 235
f 235 284 238
f 235 238 236
f 237 240 242
f 237 242 241
f 238 284 239
f 239 284 283
f 239 283 285
f 239 285 242
f 239 242 240
f 242 285 286
f 242 286 243
f 243 286 244
f 244 286 248
f 245 287 251
f 245 246 247
f 245 247 288
f 245 288 289
f 245 289 287
f 247 250 288
f 248 286 290
f 248 290 291
f 248 291 292
f 248 292 288
f 248 288 249
f 249 288 250
f 251 287 293
f 251 293 252
f 252 293 253
f 253 293 294
f 253 294 295
f 253 295 296
f 253 296 254
f 254 296 297
f 254 297 298
f 254 298 255
f 255 298 299
f 255 299 256
f 256 299 300
f 256 300 257
f 257 300 301
f 257 301 258
f 258 301 302
f 258 302 303
f 258 303 259
f 259 303 260
f 263 304 264
f 264 304 305
f 264 305 265
f 265 306 266
f 265 305 306
f 266 306 307
f 266 307 308
f 266 308 267
f 267 308 268
f 268 308 309
f 268 309 269
f 269 309 310
f 269 310 270
f 270 310 311
f 270 311 271
f 271 311 312
f 271 312 273
f 271 273 272
f 273 275 274
f 273 312 313
f 273 313 314
f 273 314 275
f 275 277 276
f 275 314 315
f 275 315 277
f 277 280 278
f 277 315 316
f 277 316 280
f 278 280 279
f 280 316 281
f 281 316 317
f 281 317 282
f 282 317 318
f 282 318 285
f 282 285 283
f 285 318 286
f 286 318 290
f 287 289 319
f 287 319 320
f 287 320 321
f 287 321 293
f 288 292 322
f 288 322 319
f 288 319 289
f 290 318 323
f 290 323 291
f 291 324 292
f 291 323 324
f 292 324 319
f 292 319 322
f 293 321 325
f 293 325 326
f 293 326 294
f 294 326 295
f 295 297 296
f 295 326 325
f 295 325 327
f 295 327 328
f 295 328 297
f 297 329 298
f 297 328 330
f 297 330 329
f 298 329 331
f 298 331 299
f 299 331 332
f 299 332 300
f 300 332 333
f 300 333 334
f 300 334 301
f 301 334 335
f 301 335 302
f 304 336 305
f 305 336 337
f 305 337 338
f 305 338 339
f 305 339 340
f 305 340 306
f 306 340 339
f 306 339 341
f 306 341 307
f 307 341 342
f 307 342 343
f 307 343 308
f 308 343 344
f 308 344 309
f 309 344 345
f 309 345 346
f 309 346 347
f 309 347 310
f 310 347 348
f 310 348 349
f 310 349 311
f 311 349 313
f 311 313 312
f 313 349 350
f 313 350 351
f 313 351 314
f 314 351 315
f 315 351 352
f 315 352 353
f 315 353 316
f 316 353 317
f 317 353 354
f 317 354 323
f 317 323 318
f 319 324 355
f 319 355 356
f 319 356 320
f 320 356 357
f 320 357 321
f 321 357 325
f 323 354 324
f 324 354 358
f 324 358 359
f 324 359 360
f 324 360 355
f 325 357 361
f 325 361 362
f 325 362 327
f 327 362 363
f 327 363 328
f 328 363 364
f 328 364 330
f 329 330 365
f 329 365 331
f 330 364 366
f 330 366 367
f 330 367 365
f 331 368 369
f 331 369 370
f 331 370 332
f 331 365 368
f 332 370 371
f 332 371 333
f 333 371 334
f 337 372 338
f 338 372 339
f 339 342 341
f 339 372 373
f 339 373 374
f 339 374 375
f 339 375 342
f 342 375 374
f 342 374 376
f 342 376 377
f 342 377 378
f 342 378 379
f 342 379 380
f 342 380 343
f 343 380 379
f 343 379 381
f 343 381 344
f 344 381 382
f 344 382 345
f 345 382 346
f 346 382 383
f 346 383 384
f 346 384 385
f 346 385 347
f 347 385 348
f 348 385 350
f 348 350 349
f 350 385 386
f 350 386 387
f 350 387 351
f 351 387 352
f 352 387 358
f 352 358 354
f 352 354 353
f 355 360 388
f 355 388 356
f 356 388 389
f 356 389 357
f 357 389 361
f 358 387 359
f 359 387 386
f 359 386 390
f 359 390 388
f 359 388 360
f 361 389 391
f 361 391 392
f 361 392 362
f 362 392 393
f 362 393 363
f 363 393 394
f 363 394 364
f 364 394 395
f 364 395 366
f 365 367 396
f 365 396 368
f 366 395 397
f 366 397 367
f 367 397 398
f 367 398 399
f 367 399 396
f 368 396 400
f 368 400 401
f 368 401 369
f 373 402 374
f 374 402 403
f 374 403 404
f 374 404 405
f 374 405 406
f 374 406 376
f 376 378 377
f 376 406 407
f 376 407 379
f 376 379 378
f 379 407 408
f 379 408 394
f 379 394 409
f 379 409 392
f 379 392 410
f 379 410 411
f 379 411 412
f 379 412 381
f 381 412 411
f 381 411 413
f 381 413 382
f 382 413 414
f 382 414 383
f 383 414 384
f 384 414 415
f 384 415 392
f 384 392 391
f 384 391 389
f 384 389 390
f 384 390 386
f 384 386 385
f 388 390 389
f 392 415 410
f 392 409 393
f 393 409 394
f 394 408 395
f 395 408 416
f 395 416 397
f 396 399 400
f 397 416 417
f 397 417 418
f 397 418 419
f 397 419 398
f 398 419 399
f 399 401 400
f 399 419 420
f 403 421 418
f 403 418 404
f 404 418 417
f 404 417 416
f 404 416 405
f 405 416 406
f 406 416 408
f 406 408 407
f 410 415 411
f 411 415 414
f 411 414 413
f 418 421 420
f 418 420 419

