# https://github.com/mikedh/trimesh
v 0.00038525 0.00509487 -0.00694947
v 0.00119384 0.00495892 -0.00694947
v 0.00038525 0.00491893 -0.00775925
v -0.00042334 0.00501490 -0.00775925
v -0.00042334 0.00509221 -0.00694947
v -0.00042334 0.00509221 -0.00613970
v -0.00042334 0.00508954 -0.00128105
v -0.00042334 0.00508421 0.00600198
v 0.00038525 0.00508154 0.00681175
v 0.00928886 0.00378597 -0.00047128
v 0.00982083 0.00370066 -0.00047128
v 0.00928886 0.00376731 -0.00128105
v 0.00182004 0.00459637 -0.00751566
v 0.00931622 0.00372466 -0.00202499
v 0.00906087 0.00371133 -0.00271297
v 0.00931622 0.00357537 -0.00294998
v 0.00113912 0.00468167 -0.00777571
v 0.00038525 0.00460703 -0.00823820
v -0.00042334 0.00470300 -0.00831062
v -0.00122889 0.00467101 -0.00832543
v -0.00122889 0.00491626 -0.00775925
v -0.00122889 0.00495358 -0.00694947
v -0.00122889 0.00495358 0.00681175
v -0.00042334 0.00508154 0.00681175
v 0.00119384 0.00495092 0.00681175
v -0.00042334 0.00500157 0.00762153
v 0.00038525 0.00490560 0.00762153
v 0.00976307 0.00367934 -0.00128105
v 0.00977219 0.00368200 0.00033356
v 0.01022816 0.00355405 -0.00047128
v 0.00082602 0.00449507 -0.00817730
v 0.01038623 0.00282629 -0.00405107
v 0.01089388 0.00230113 -0.00455307
v 0.01115530 0.00191459 -0.00484439
v 0.00970227 0.00365801 -0.00171227
v 0.00960196 0.00362336 -0.00225212
v 0.01010049 0.00329280 -0.00290225
v 0.01063245 0.00290626 -0.00351122
v -0.00042334 0.00406055 -0.00844887
v 0.02312912 -0.01263794 -0.00750414
v 0.02312912 -0.01301915 -0.00758314
v 0.02312912 -0.01374691 -0.00772469
v -0.00122889 0.00406055 -0.00848508
v -0.00190069 0.00458037 -0.00826783
v -0.00244177 0.00446308 -0.00815591
v -0.00211955 0.00462036 -0.00783661
v -0.00203748 0.00468167 -0.00694947
v -0.00203748 0.00468167 -0.00452180
v -0.00203748 0.00467901 0.00681175
v -0.00210739 0.00461770 0.00764786
v -0.00122889 0.00491093 0.00762153
v 0.00182004 0.00459370 0.00737629
v 0.01010049 0.00329013 0.00276124
v 0.01010049 0.00341276 0.00195311
v 0.00971139 0.00366334 0.00080757
v -0.00122889 0.00466568 0.00818113
v -0.00042334 0.00469234 0.00816632
v 0.00038525 0.00459637 0.00809554
v 0.00113912 0.00467634 0.00763634
v 0.01016432 0.00352472 -0.00128105
v 0.01017648 0.00353005 0.00033356
v 0.01090908 0.00328480 -0.00047128
v 0.02312912 -0.01030271 -0.00647546
v 0.02313216 -0.01081987 -0.00677336
v 0.02313216 -0.01131038 -0.00704987
v 0.02313216 -0.01184620 -0.00731651
v 0.02313216 -0.01188619 -0.00732967
v 0.02312912 -0.01196616 -0.00735107
v 0.02312912 -0.01230205 -0.00743007
v 0.01090604 0.00271432 -0.00375317
v 0.01146232 0.00218117 -0.00430619
v 0.02313216 -0.00923640 -0.00579077
v 0.02313216 -0.00945233 -0.00593726
v 0.02313216 -0.00962027 -0.00605082
v 0.01002145 0.00347674 -0.00202499
v 0.01090908 0.00320483 -0.00128105
v 0.01097291 0.00303155 -0.00212704
v 0.01078141 0.00297557 -0.00290225
v 0.01118570 0.00277830 -0.00290225
v 0.02312912 -0.01382422 -0.00773456
v 0.02313216 -0.01422941 -0.00777406
v 0.02313216 -0.01455464 -0.00780040
v 0.02305008 -0.01455464 -0.00780698
v 0.02313216 -0.01196616 -0.00734942
v -0.00122889 0.00325015 -0.00847521
v -0.00203748 0.00280762 -0.00843571
v -0.00203748 0.00325015 -0.00843900
v -0.00211955 0.00414052 -0.00833860
v 0.02224149 -0.01455464 -0.00782673
v -0.00284911 0.00386594 -0.00822997
v -0.00326556 0.00366601 -0.00817401
v -0.00333852 0.00373532 -0.00775925
v -0.00340843 0.00379663 -0.00694947
v -0.00288255 0.00420183 -0.00694947
v -0.00246609 0.00447907 -0.00761606
v -0.00247825 0.00448441 -0.00694947
v -0.00247825 0.00448441 0.00033356
v -0.00247521 0.00448441 0.00681175
v -0.00246305 0.00447641 0.00739440
v -0.00188853 0.00457771 0.00812517
v -0.00242657 0.00444175 0.00793425
v 0.01090908 0.00221582 0.00421784
v 0.01057774 0.00289560 0.00329121
v 0.01010049 0.00302355 0.00343605
v 0.00082906 0.00449507 0.00804123
v 0.01121002 0.00120815 0.00558393
v 0.01153528 0.00142142 0.00504408
v 0.01071757 0.00297824 0.00276124
v 0.01095467 0.00302622 0.00193994
v 0.01090908 0.00314352 0.00114169
v 0.01090908 0.00323948 0.00033356
v -0.00122889 0.00406055 0.00832926
v -0.00042334 0.00406055 0.00828811
v 0.02312912 -0.01293917 0.00753101
v 0.02312912 -0.01213144 0.00739604
v 0.01148056 0.00295958 0.00033356
v 0.01147144 0.00297824 -0.00047128
v 0.01141065 0.00293292 -0.00128105
v 0.02313216 -0.00986019 -0.00619895
v 0.02348174 -0.00807678 -0.00047292
v 0.01156264 0.00229046 -0.00371202
v 0.02313216 -0.00874056 -0.00459257
v 0.02313216 -0.00904179 -0.00540399
v 0.01135593 0.00288227 -0.00188180
v 0.01128297 0.00282895 -0.00242165
v 0.02313216 -0.01463728 -0.00780369
v 0.02313216 -0.01532505 -0.00779875
v -0.00122889 0.00280762 -0.00846862
v -0.00203748 0.00244241 -0.00843077
v -0.00284911 0.00170132 -0.00829581
v -0.00284607 0.00244241 -0.00830404
v -0.00284911 0.00325015 -0.00830074
v 0.02224149 -0.01532505 -0.00781521
v -0.00426870 0.00244241 -0.00761606
v -0.00412583 0.00293025 -0.00748439
v -0.00331420 0.00325015 -0.00818553
v -0.00446629 0.00082428 -0.00783496
v -0.00451492 0.00161602 -0.00766214
v -0.00490402 0.00133345 -0.00741855
v -0.00381273 0.00337544 -0.00694947
v -0.00341147 0.00380196 -0.00209083
v -0.00381881 0.00337810 -0.00209083
v -0.00288255 0.00420450 -0.00290060
v -0.00288255 0.00420450 -0.00209083
v -0.00287951 0.00420183 0.00681175
v -0.00341147 0.00379663 0.00681175
v -0.00268800 0.00390326 0.00808896
v -0.00210739 0.00412719 0.00818278
v -0.00335979 0.00375131 0.00746517
v -0.00412583 0.00293292 0.00732362
v 0.01134985 0.00206121 0.00404667
v 0.01112186 0.00270899 0.00276124
v 0.01125562 0.00280762 0.00220328
v 0.01043183 0.00036577 0.00638712
v 0.02312912 -0.01196616 0.00735325
v 0.02313216 -0.01162228 0.00726273
v 0.02313216 -0.01121974 0.00707016
v 0.02313216 -0.01115043 0.00703066
v 0.02313216 -0.01081987 0.00682328
v 0.02312912 -0.01049998 0.00662083
v 0.02312912 -0.01030271 0.00646118
v 0.02312912 -0.01002280 0.00619290
v 0.01207636 0.00114684 0.00466552
v 0.01171463 0.00162668 0.00435610
v 0.02312912 -0.00985486 0.00600527
v 0.02313216 -0.00942567 0.00549834
v 0.02313216 -0.00905779 0.00506383
v 0.02313216 -0.00871390 0.00451575
v 0.02312912 -0.00863659 0.00439231
v 0.01136505 0.00287160 0.00166508
v 0.01142585 0.00290359 0.00114169
v -0.00203748 0.00325015 0.00825684
v -0.00122889 0.00325015 0.00830786
v 0.01333789 -0.01051064 0.00791120
v 0.02305008 -0.01536504 0.00769724
v 0.02313216 -0.01536504 0.00769559
v 0.02305008 -0.01455464 0.00769559
v 0.02313216 -0.01455464 0.00769230
v 0.02312912 -0.01374691 0.00762153
v 0.02312912 -0.01339236 0.00758203
v 0.02313216 -0.01422941 0.00766268
v 0.02313216 -0.01196616 0.00735160
v 0.01183014 0.00263168 0.00114169
v 0.01188486 0.00260769 0.00033356
v 0.02341790 -0.00807678 -0.00083666
v 0.02345742 -0.00807678 0.00033027
v 0.02313216 -0.01871327 0.00710472
v 0.02313216 -0.01941437 0.00674757
v 0.02313216 -0.01988088 0.00645295
v 0.02313216 -0.02033673 0.00596577
v 0.02313216 -0.02046469 0.00582422
v 0.02313216 -0.02079791 0.00540288
v 0.02313216 -0.02090987 0.00523664
v 0.02313216 -0.02134973 0.00444004
v 0.02313216 -0.02144570 0.00420138
v 0.02313216 -0.02152834 0.00396767
v 0.02313216 -0.02163763 0.00362862
v 0.02313216 -0.02185090 0.00275959
v 0.02313216 -0.02198419 0.00195146
v 0.02313216 -0.02206683 0.00114004
v 0.02313216 -0.02209882 0.00043396
v 0.02313216 -0.02213880 -0.00047128
v 0.02313216 -0.02210148 -0.00128270
v 0.02313216 -0.02201884 -0.00197068
v 0.02313216 -0.02200285 -0.00209412
v 0.02313216 -0.02186156 -0.00282489
v 0.02313216 -0.02184290 -0.00289731
v 0.02313216 -0.02159232 -0.00373342
v 0.02313216 -0.02145103 -0.00413995
v 0.02313216 -0.02133640 -0.00438848
v 0.02313216 -0.02129641 -0.00447077
v 0.02313216 -0.02127242 -0.00451192
v 0.02313216 -0.02088855 -0.00516205
v 0.02313216 -0.02084590 -0.00522623
v 0.02313216 -0.02054733 -0.00562454
v 0.02313216 -0.02020078 -0.00603765
v 0.02313216 -0.01981690 -0.00646558
v 0.02313216 -0.01977692 -0.00650838
v 0.02313216 -0.01937705 -0.00676020
v 0.02313216 -0.01857198 -0.00719965
v 0.02313216 -0.01822809 -0.00736588
v 0.02313216 -0.01785488 -0.00748274
v 0.02313216 -0.01706581 -0.00768189
v 0.02313216 -0.01698584 -0.00769671
v 0.02313216 -0.01674592 -0.00772469
v 0.02313216 -0.01617810 -0.00778558
v 0.02313216 -0.00871390 -0.00451357
v 0.02331455 -0.00807678 -0.00128270
v 0.02313216 -0.00853796 -0.00384534
v -0.00122889 0.00244241 -0.00846039
v 0.02143290 -0.01532505 -0.00782673
v -0.00203748 0.00170132 -0.00840443
v -0.00284911 0.00082428 -0.00827276
v -0.00284911 0.00163201 -0.00829416
v -0.00335979 0.00082428 -0.00818553
v -0.00337499 0.00163201 -0.00819212
v -0.00336891 0.00244241 -0.00819541
v -0.00334460 0.00280762 -0.00819212
v -0.00415623 0.00297024 -0.00694947
v -0.00447541 0.00244241 -0.00694947
v -0.00377929 0.00163201 -0.00809665
v -0.00446629 0.00000855 -0.00787281
v -0.00498913 0.00001388 -0.00752883
v -0.00495570 0.00082428 -0.00749262
v -0.00478547 0.00179196 -0.00694947
v -0.00733283 -0.00517374 -0.00335487
v -0.00743618 -0.00500046 -0.00290060
v -0.00750002 -0.00477387 -0.00214679
v -0.00341147 0.00380196 -0.00128105
v -0.00381881 0.00338344 0.00357266
v -0.00381881 0.00338344 0.00600198
v -0.00381577 0.00338344 0.00681175
v -0.00280959 0.00325015 0.00811365
v -0.00321692 0.00325015 0.00800667
v -0.00415623 0.00297824 0.00681175
v -0.00425958 0.00280762 0.00681175
v -0.00447237 0.00244241 0.00681011
v -0.00490098 0.00131745 0.00725779
v -0.00426566 0.00244241 0.00743554
v 0.01201861 0.00194124 0.00293570
v 0.01146536 0.00215184 0.00357266
v 0.01173895 0.00226114 0.00270528
v 0.01166903 0.00257837 0.00193994
v 0.02313216 -0.00945233 0.00552961
v 0.02312912 -0.00861260 0.00433470
v -0.00280047 0.00280762 0.00810542
v -0.00245089 0.00280762 0.00816961
v -0.00275183 0.00170132 0.00808402
v -0.00268496 0.00170132 0.00809554
v -0.00203748 0.00170132 0.00820582
v -0.00122889 0.00170132 0.00825849
v 0.00119688 -0.00403278 0.00808402
v 0.01333485 -0.01081987 0.00789145
v 0.01414344 -0.01131038 0.00787170
v 0.02305008 -0.01617810 0.00766268
v 0.02313216 -0.01617810 0.00766268
v 0.00201155 -0.00519240 0.00804288
v 0.00201155 -0.00534435 0.00803629
v 0.01220708 0.00213585 0.00195311
v 0.01226787 0.00222648 0.00114169
v 0.02312912 -0.00834336 0.00356607
v 0.02312912 -0.00835669 0.00361710
v 0.02313216 -0.01698584 0.00757544
v 0.02313216 -0.01779624 0.00739111
v 0.02313216 -0.01831073 0.00724627
v 0.02305008 -0.01941437 0.00673934
v 0.02183416 -0.01820144 0.00721170
v 0.02129307 -0.01814012 0.00719854
v 0.02305008 -0.01987288 0.00644637
v 0.02262147 -0.01982223 0.00640687
v 0.02302880 -0.02033406 0.00594437
v 0.02274610 -0.02060331 0.00556582
v 0.02302880 -0.02087789 0.00525310
v 0.02223845 -0.02081924 0.00507535
v 0.02142682 -0.02070994 0.00491734
v 0.02223845 -0.02117112 0.00437914
v 0.02297713 -0.02133907 0.00438572
v 0.02265795 -0.02143504 0.00396438
v 0.02297713 -0.02160031 0.00364343
v 0.02223845 -0.02150968 0.00340148
v 0.02177336 -0.02145369 0.00322208
v 0.02305008 -0.02183224 0.00275959
v 0.02223845 -0.02164563 0.00275959
v 0.02305008 -0.02196553 0.00194982
v 0.02223845 -0.02177359 0.00194982
v 0.02088574 -0.02146969 0.00178687
v 0.02036897 -0.02140038 0.00114004
v 0.02305008 -0.02208549 0.00033027
v 0.02305008 -0.02208282 -0.00128270
v 0.02028689 -0.02141904 0.00033027
v 0.02066991 -0.02152567 -0.00047128
v 0.02223845 -0.02178959 -0.00208918
v 0.02101341 -0.02144037 -0.00250230
v 0.02305008 -0.02182691 -0.00289731
v 0.02239956 -0.02149635 -0.00348654
v 0.02276738 -0.02140838 -0.00402639
v 0.02061823 -0.02073660 -0.00436050
v 0.02107420 -0.02061664 -0.00490035
v 0.02161833 -0.02067795 -0.00499087
v 0.02223845 -0.02074993 -0.00508633
v 0.02223845 -0.02045136 -0.00549287
v 0.02142682 -0.01995552 -0.00591751
v 0.02223845 -0.02004616 -0.00602120
v 0.02305008 -0.02013413 -0.00610020
v 0.02305008 -0.01976892 -0.00650179
v 0.02142682 -0.01918245 -0.00665157
v 0.02223845 -0.01927841 -0.00670424
v 0.02305008 -0.01936372 -0.00675855
v 0.02223845 -0.01860397 -0.00707456
v 0.02270658 -0.01818278 -0.00734449
v 0.02061823 -0.01698584 -0.00756833
v 0.02142682 -0.01698584 -0.00763087
v 0.02223845 -0.01698584 -0.00767366
v 0.02305008 -0.01698584 -0.00769671
v 0.02280994 -0.01674592 -0.00772633
v 0.02223845 -0.01617810 -0.00779052
v 0.02062127 -0.01532505 -0.00783496
v 0.00147350 -0.00365691 -0.00816743
v -0.00122889 0.00170132 -0.00841925
v 0.02057872 -0.01532505 -0.00783496
v 0.01977013 -0.01532505 -0.00782344
v -0.00203748 0.00082428 -0.00835012
v -0.00257552 -0.00142564 -0.00818060
v -0.00273663 -0.00079652 -0.00820528
v -0.00291902 0.00000855 -0.00822833
v 0.00093546 -0.00355827 -0.00816084
v -0.00328988 0.00000855 -0.00817237
v -0.00331420 0.00018716 -0.00817566
v -0.00354218 0.00000855 -0.00813122
v -0.00376409 0.00082428 -0.00810488
v -0.00425654 0.00280762 -0.00639317
v -0.00415623 0.00297824 0.00519221
v -0.00447541 0.00244241 0.00600198
v -0.00425958 0.00280762 0.00655335
v -0.00446629 -0.00079652 -0.00784154
v -0.00501041 -0.00079652 -0.00751895
v -0.00362426 0.00000855 -0.00811476
v -0.00566701 -0.00241465 -0.00644583
v -0.00733587 -0.00519240 -0.00335322
v -0.00478547 0.00178663 -0.00290225
v -0.00739058 -0.00424871 -0.00128270
v -0.00739666 -0.00417673 -0.00047292
v -0.00723251 -0.00377153 -0.00047292
v -0.00723251 -0.00376887 0.00033191
v -0.00743618 -0.00544565 -0.00290060
v -0.00746050 -0.00518973 -0.00261586
v -0.00757297 -0.00484318 -0.00128270
v -0.00302238 0.00280762 0.00805933
v -0.00315309 0.00163201 0.00800667
v -0.00450884 0.00160536 0.00746517
v -0.00494962 0.00082428 0.00731375
v -0.00446629 0.00082428 0.00759519
v -0.00446629 0.00001388 0.00762811
v -0.00365770 0.00163201 0.00788158
v -0.00319565 0.00244241 0.00801325
v -0.00477635 0.00177064 0.00681011
v -0.00739666 -0.00423538 0.00195311
v -0.00734803 -0.00433402 0.00275959
v -0.00730243 -0.00442998 0.00317106
v -0.00651816 -0.00276653 0.00483011
v -0.00568221 -0.00119639 0.00641016
v 0.01213716 0.00205054 0.00239750
v -0.00311965 0.00170132 0.00801490
v -0.00308013 0.00082428 0.00799514
v -0.00267584 0.00082428 0.00806427
v -0.00203748 0.00082428 0.00817290
v -0.00122889 0.00082428 0.00822886
v -0.00123193 0.00000855 0.00819430
v 0.00058588 -0.00403278 0.00805933
v 0.00127288 -0.00480053 0.00804452
v 0.01333181 -0.01132104 0.00785689
v 0.01494595 -0.01293917 0.00777130
v 0.02223845 -0.01617810 0.00765609
v 0.00160725 -0.00525371 0.00802642
v 0.01576062 -0.01374691 0.00771534
v 0.02142682 -0.01617810 0.00763305
v 0.02061823 -0.01617810 0.00760342
v 0.02223845 -0.01698584 0.00754088
v 0.02305008 -0.01779624 0.00738946
v 0.02230837 -0.01944902 0.00659450
v 0.02061823 -0.01860397 0.00683809
v 0.02142682 -0.01698584 0.00749480
v 0.02061823 -0.01698584 0.00744213
v 0.01900105 -0.01617810 0.00752442
v 0.02061823 -0.01763362 0.00727589
v 0.01981268 -0.01748167 0.00723968
v 0.02061823 -0.01803882 0.00715574
v 0.02223845 -0.01779624 0.00734173
v 0.02142682 -0.01924376 0.00657475
v 0.02061823 -0.01912380 0.00648916
v 0.02011362 -0.01904649 0.00642991
v 0.02208646 -0.01974493 0.00633774
v 0.02142682 -0.02003283 0.00584068
v 0.02230837 -0.02007548 0.00603984
v 0.02223845 -0.02054200 0.00548024
v 0.02142682 -0.02043803 0.00532223
v 0.02096173 -0.02064596 0.00481365
v 0.02223845 -0.02138705 0.00380966
v 0.02142682 -0.02096319 0.00437914
v 0.02147242 -0.02128042 0.00352163
v 0.02061823 -0.02101651 0.00357101
v 0.02061823 -0.02122710 0.00275959
v 0.02118972 -0.02139238 0.00275959
v 0.02159705 -0.02149635 0.00275959
v 0.02104077 -0.02143237 0.00232508
v 0.02061823 -0.02137106 0.00201401
v 0.01981268 -0.02124310 0.00114004
v 0.01981268 -0.02128575 0.00033027
v 0.02223845 -0.02188022 -0.00128270
v 0.02026562 -0.02142437 -0.00047128
v 0.02052096 -0.02136039 -0.00208918
v 0.01981268 -0.02114980 -0.00208918
v 0.01981268 -0.02098718 -0.00289731
v 0.02069423 -0.02126709 -0.00282325
v 0.02142682 -0.02137639 -0.00309152
v 0.02186456 -0.02142970 -0.00327916
v 0.02142682 -0.02118445 -0.00370873
v 0.02061823 -0.02097652 -0.00370873
v 0.02011362 -0.02066196 -0.00419262
v 0.02061823 -0.02055266 -0.00476539
v 0.01860588 -0.01981424 -0.00491516
v 0.01914393 -0.01990487 -0.00504354
v 0.01981268 -0.02001950 -0.00519825
v 0.02057568 -0.02011814 -0.00539576
v 0.02081582 -0.01988088 -0.00581546
v 0.02138123 -0.02040604 -0.00528878
v 0.02142682 -0.01958765 -0.00632075
v 0.02223845 -0.01968095 -0.00642279
v 0.02061823 -0.01908115 -0.00659067
v 0.02061823 -0.01860397 -0.00685895
v 0.02142682 -0.01860397 -0.00696922
v 0.01949654 -0.01736438 -0.00734119
v 0.01979141 -0.01674592 -0.00755681
v 0.01981268 -0.01617810 -0.00771152
v 0.01978533 -0.01704982 -0.00747122
v 0.02061823 -0.01617810 -0.00776583
v 0.02142682 -0.01617810 -0.00778723
v 0.01895850 -0.01532505 -0.00778065
v -0.00231106 -0.00196680 -0.00816084
v -0.00284607 -0.00166023 -0.00812134
v -0.00314093 -0.00079652 -0.00814932
v -0.00291902 -0.00004743 -0.00822503
v -0.00323820 -0.00035400 -0.00816084
v -0.00365770 -0.00079652 -0.00806867
v -0.00361514 -0.00004743 -0.00811476
v -0.00478243 0.00177064 0.00519056
v -0.00477939 0.00177064 0.00600198
v -0.00446629 -0.00160425 -0.00767695
v -0.00496786 -0.00160425 -0.00743995
v -0.00365770 -0.00160425 -0.00794523
v -0.00561229 -0.00322505 -0.00638494
v -0.00566701 -0.00246530 -0.00644090
v -0.00733587 -0.00530703 -0.00335322
v -0.00739970 -0.00417407 0.00033191
v -0.00747874 -0.00569890 -0.00205626
v -0.00754561 -0.00565358 -0.00128270
v -0.00746050 -0.00519240 -0.00261586
v -0.00708052 -0.00585085 -0.00290060
v -0.00721428 -0.00599480 -0.00230150
v -0.00732371 -0.00608011 -0.00176165
v -0.00753042 -0.00565358 -0.00047292
v -0.00753954 -0.00519240 -0.00047292
v -0.00752434 -0.00518973 -0.00001537
v -0.00751522 -0.00484318 0.00033191
v -0.00739970 -0.00420872 0.00114333
v -0.00365770 0.00082428 0.00787170
v -0.00365770 0.00000855 0.00784702
v -0.00498305 0.00001388 0.00734831
v -0.00446629 0.00000855 0.00762811
v -0.00747874 -0.00484318 0.00114333
v -0.00734803 -0.00456594 0.00275959
v -0.00730243 -0.00444065 0.00317106
v -0.00651816 -0.00291582 0.00483011
v -0.00568221 -0.00131635 0.00641016
v -0.00499825 -0.00079652 0.00733185
v -0.00256641 0.00025380 0.00804617
v -0.00209523 0.00000855 0.00809390
v 0.00073787 -0.00450196 0.00803629
v 0.01900105 -0.01536504 0.00765609
v 0.00128504 -0.00557627 0.00792602
v 0.00201155 -0.00646664 0.00787006
v 0.00201459 -0.00574955 0.00798362
v 0.00282622 -0.00646664 0.00793754
v 0.01657225 -0.01455464 0.00765445
v 0.01981268 -0.01617810 0.00757215
v 0.01981268 -0.01788421 0.00706522
v 0.01983092 -0.01864396 0.00662742
v 0.01818943 -0.01536504 0.00761988
v 0.01737780 -0.01536504 0.00756063
v 0.01818943 -0.01617810 0.00743884
v 0.01938103 -0.01739903 0.00721664
v 0.01883690 -0.01728441 0.00717056
v 0.01957558 -0.01893986 0.00635091
v 0.01985524 -0.01940104 0.00598881
v 0.02061823 -0.01952900 0.00611884
v 0.02142682 -0.01964629 0.00624722
v 0.02061823 -0.01991554 0.00571395
v 0.02013490 -0.01984356 0.00562836
v 0.01984004 -0.02003816 0.00522019
v 0.01900105 -0.01993686 0.00495520
v 0.02041761 -0.02056599 0.00464248
v 0.02066383 -0.02074726 0.00437585
v 0.02005891 -0.02067795 0.00410263
v 0.01951782 -0.02058998 0.00384423
v 0.01901017 -0.02050468 0.00357430
v 0.01928376 -0.02066462 0.00330438
v 0.01981268 -0.02097652 0.00275959
v 0.01981268 -0.02114980 0.00194982
v 0.01900105 -0.02097652 0.00114004
v 0.01900105 -0.02102717 0.00033027
v 0.01981268 -0.02129641 -0.00047128
v 0.02142682 -0.02167496 -0.00128270
v 0.02036289 -0.02140038 -0.00128270
v 0.01981268 -0.02123777 -0.00128270
v 0.01900105 -0.02096319 -0.00128270
v 0.01900105 -0.02087255 -0.00208918
v 0.01854508 -0.02064596 -0.00255990
v 0.01983092 -0.02074460 -0.00369227
v 0.01901625 -0.02072860 -0.00285616
v 0.01929896 -0.02066462 -0.00341083
v 0.01957558 -0.02057399 -0.00394738
v 0.01768786 -0.01985422 -0.00419591
v 0.01818943 -0.01993953 -0.00437367
v 0.01983092 -0.02043270 -0.00448559
v 0.01818943 -0.01974493 -0.00478185
v 0.01681239 -0.01908914 -0.00503037
v 0.01738083 -0.01920111 -0.00517850
v 0.01815599 -0.01931307 -0.00538918
v 0.01981268 -0.01972360 -0.00560314
v 0.02027170 -0.01980091 -0.00570848
v 0.01986740 -0.01926508 -0.00616933
v 0.02017746 -0.01902250 -0.00655282
v 0.01900105 -0.01727641 -0.00731486
v 0.01900105 -0.01687121 -0.00744159
v 0.01900105 -0.01674592 -0.00747616
v 0.01900105 -0.01617810 -0.00762429
v -0.00123193 -0.00322505 -0.00805222
v -0.00279743 -0.00246530 -0.00796005
v -0.00284607 -0.00241465 -0.00796169
v -0.00204052 -0.00322505 -0.00792877
v -0.00464868 -0.00257193 -0.00727042
v -0.00488882 -0.00203078 -0.00736259
v -0.00365770 -0.00241465 -0.00770164
v -0.00520496 -0.00322505 -0.00675361
v -0.00574605 -0.00454461 -0.00581381
v -0.00658503 -0.00541366 -0.00422883
v -0.00641481 -0.00595215 -0.00395890
v -0.00736627 -0.00613609 -0.00128270
v -0.00738451 -0.00617607 -0.00047292
v -0.00655160 -0.00609877 -0.00341905
v -0.00667623 -0.00617074 -0.00290060
v 0.00316972 -0.01257396 -0.00259776
v 0.00156774 -0.01175023 -0.00175178
v -0.00656072 -0.00691450 -0.00025238
v -0.00742098 -0.00569623 0.00035989
v -0.00738147 -0.00545631 0.00114169
v -0.00740274 -0.00486184 0.00195311
v -0.00734803 -0.00613609 0.00011136
v -0.00365770 -0.00079652 0.00774003
v -0.00446629 -0.00079652 0.00757051
v -0.00498305 0.00000855 0.00734831
v -0.00736019 -0.00519240 0.00175889
v -0.00734195 -0.00532569 0.00168154
v -0.00727811 -0.00519240 0.00207490
v -0.00725379 -0.00514175 0.00222139
v -0.00715044 -0.00496847 0.00275959
v -0.00661239 -0.00542699 0.00340642
v -0.00647864 -0.00519773 0.00394627
v -0.00559102 -0.00241465 0.00629495
v -0.00567917 -0.00185483 0.00639864
v -0.00496786 -0.00144430 0.00728577
v 0.00041565 -0.00518973 0.00783549
v 0.00039437 -0.00565358 0.00774168
v 0.00056156 -0.00554961 0.00779599
v 0.00122728 -0.00617341 0.00778941
v 0.00120296 -0.00646664 0.00772193
v 0.00201155 -0.00661593 0.00782397
v 0.00282622 -0.00727438 0.00776143
v 0.01656921 -0.01536504 0.00746517
v 0.01576366 -0.01455464 0.00756721
v 0.01906489 -0.01771893 0.00697799
v 0.01815903 -0.01785488 0.00666692
v 0.01900105 -0.01841203 0.00654512
v 0.01740211 -0.01621276 0.00732198
v 0.01714677 -0.01650600 0.00718702
v 0.01818943 -0.01713246 0.00709978
v 0.01656921 -0.01637004 0.00712447
v 0.01787328 -0.01816412 0.00637724
v 0.01738083 -0.01805482 0.00629330
v 0.01900105 -0.01881723 0.00624722
v 0.01900105 -0.01923843 0.00584068
v 0.01959078 -0.01975826 0.00551151
v 0.01900105 -0.01964363 0.00536009
v 0.01852988 -0.01984889 0.00482353
v 0.01980052 -0.02048601 0.00437585
v 0.01900105 -0.02022210 0.00437914
v 0.01759666 -0.01988088 0.00409440
v 0.01818943 -0.02024076 0.00357101
v 0.01705558 -0.01978491 0.00384258
v 0.01874571 -0.02057932 0.00294393
v 0.01901017 -0.02072327 0.00271021
v 0.01856332 -0.02064063 0.00240737
v 0.01900105 -0.02087522 0.00194982
v 0.01832014 -0.02072860 0.00114004
v 0.01738083 -0.02038472 0.00114004
v 0.01825934 -0.02075526 0.00033027
v 0.01900105 -0.02102717 -0.00047128
v 0.01835357 -0.02072327 -0.00128270
v 0.01805263 -0.02053400 -0.00208918
v 0.01824110 -0.02045669 -0.00285616
v 0.01876091 -0.02057132 -0.00309975
v 0.01738083 -0.02028342 -0.00208918
v 0.01738083 -0.02013946 -0.00289731
v 0.01818943 -0.02018745 -0.00370873
v 0.01740515 -0.01992353 -0.00366758
v 0.01714981 -0.01975292 -0.00390953
v 0.01655401 -0.01922510 -0.00453826
v 0.01740515 -0.01960631 -0.00448559
v 0.01627738 -0.01895319 -0.00481970
v 0.01577582 -0.01841203 -0.00532993
v 0.01605852 -0.01825475 -0.00578748
v 0.01738083 -0.01889721 -0.00558339
v 0.01786113 -0.01897985 -0.00569531
v 0.01840221 -0.01907581 -0.00581217
v 0.01900105 -0.01917978 -0.00593396
v 0.01845997 -0.01825742 -0.00658080
v 0.01818943 -0.01784155 -0.00679147
v 0.01900105 -0.01779624 -0.00702354
v 0.01657225 -0.01835339 -0.00588459
v 0.01738083 -0.01802016 -0.00641785
v 0.01792192 -0.01814012 -0.00650015
v 0.01818943 -0.01710580 -0.00722598
v 0.01787632 -0.01674592 -0.00732144
v 0.01774561 -0.01659930 -0.00735765
v 0.01825326 -0.01674592 -0.00738399
v 0.01840221 -0.01674592 -0.00740538
v 0.01818943 -0.01669793 -0.00739057
v 0.01818943 -0.01617810 -0.00751895
v 0.00039133 -0.00568290 -0.00773127
v 0.00041869 -0.00568290 -0.00773456
v -0.00007680 -0.00518973 -0.00778065
v -0.00042334 -0.00484318 -0.00781027
v -0.00123193 -0.00403278 -0.00787611
v -0.00284911 -0.00322505 -0.00769671
v -0.00123193 -0.00484318 -0.00765391
v -0.00204052 -0.00403278 -0.00768025
v -0.00041726 -0.00565358 -0.00761606
v -0.00088539 -0.00518973 -0.00763745
v -0.00441461 -0.00317173 -0.00714863
v -0.00453316 -0.00409676 -0.00677007
v -0.00506209 -0.00386750 -0.00663840
v -0.00248737 -0.00448063 -0.00736917
v -0.00329900 -0.00367557 -0.00737082
v -0.00360298 -0.00397947 -0.00715027
v -0.00484018 -0.00440866 -0.00652977
v -0.00550286 -0.00508310 -0.00562125
v -0.00582508 -0.00545631 -0.00508140
v -0.00611994 -0.00570423 -0.00454484
v -0.00560622 -0.00599480 -0.00486085
v -0.00587372 -0.00616808 -0.00432100
v -0.00656072 -0.00691450 0.00008668
v 0.00382632 -0.01263794 -0.00351122
v 0.00332475 -0.01246733 -0.00313925
v 0.00333387 -0.01263794 -0.00270474
v 0.00432789 -0.01317643 -0.00289896
v 0.00417286 -0.01326973 -0.00209083
v 0.00363177 -0.01294984 -0.00209083
v 0.00308460 -0.01262195 -0.00209083
v -0.00002816 -0.01092651 -0.00090415
v -0.00025919 -0.01081987 -0.00047128
v -0.00691637 -0.00648531 0.00036977
v -0.00653032 -0.00610143 0.00246004
v -0.00727203 -0.00599213 0.00065121
v -0.00453316 -0.00167090 0.00737465
v -0.00206484 -0.00485384 0.00732198
v -0.00123193 -0.00484318 0.00752607
v -0.00041726 -0.00565358 0.00755734
v -0.00042334 -0.00518973 0.00764622
v -0.00705621 -0.00561892 0.00194982
v -0.00671879 -0.00568024 0.00274313
v -0.00701669 -0.00519240 0.00275465
v -0.00641481 -0.00596548 0.00299989
v -0.00630233 -0.00568024 0.00363355
v -0.00573085 -0.00608810 0.00403844
v -0.00588892 -0.00561626 0.00433799
v -0.00572477 -0.00532036 0.00483669
v -0.00491922 -0.00372888 0.00645624
v -0.00501953 -0.00322505 0.00656652
v -0.00518976 -0.00241465 0.00672617
v -0.00484930 -0.00198279 0.00720677
v -0.00096442 -0.00617341 0.00726931
v 0.00039133 -0.00646664 0.00751784
v 0.00119080 -0.00706111 0.00749480
v 0.00201155 -0.00727438 0.00761988
v 0.01545359 -0.01572492 0.00719854
v 0.01542624 -0.01532505 0.00731046
v 0.01650233 -0.01706315 0.00670313
v 0.01576366 -0.01688454 0.00661260
v 0.01573630 -0.01613545 0.00704876
v 0.01653273 -0.01674592 0.00689734
v 0.01576366 -0.01728707 0.00633280
v 0.01495203 -0.01710313 0.00619126
v 0.01495203 -0.01758297 0.00578472
v 0.01657225 -0.01833473 0.00573535
v 0.01608284 -0.01823343 0.00563495
v 0.01835661 -0.01910780 0.00570572
v 0.01781857 -0.01899584 0.00557734
v 0.01554479 -0.01811880 0.00546707
v 0.01682759 -0.01907315 0.00487949
v 0.01735044 -0.01961963 0.00437091
v 0.01735044 -0.01995286 0.00357430
v 0.01656313 -0.01925176 0.00440383
v 0.01597036 -0.01910780 0.00415365
v 0.01543536 -0.01896918 0.00386727
v 0.01524689 -0.01906249 0.00332742
v 0.01690662 -0.01984889 0.00330438
v 0.01845997 -0.02067795 0.00194982
v 0.01738083 -0.02012613 0.00275959
v 0.01738083 -0.02026475 0.00194982
v 0.01657225 -0.02005149 0.00114004
v 0.01657225 -0.02009414 0.00033027
v 0.01738083 -0.02042470 0.00033027
v 0.01828366 -0.02074993 -0.00047128
v 0.01794928 -0.02056599 -0.00128270
v 0.01692790 -0.01984089 -0.00336968
v 0.01678503 -0.01990487 -0.00289731
v 0.01738083 -0.02034206 -0.00128270
v 0.01652969 -0.01994486 -0.00201018
v 0.01622875 -0.01978758 -0.00222744
v 0.01662392 -0.01959831 -0.00366758
v 0.01574238 -0.01918245 -0.00370379
v 0.01600076 -0.01908914 -0.00427821
v 0.01574238 -0.01883323 -0.00453826
v 0.01465412 -0.01814812 -0.00482135
v 0.01519825 -0.01828141 -0.00506000
v 0.01357803 -0.01747368 -0.00504848
v 0.01551743 -0.01810813 -0.00559985
v 0.01446566 -0.01743369 -0.00577596
v 0.01495203 -0.01755632 -0.00587636
v 0.01577582 -0.01782023 -0.00599980
v 0.01654793 -0.01776958 -0.00632075
v 0.01738083 -0.01761763 -0.00669436
v 0.01743555 -0.01691386 -0.00712229
v 0.01735652 -0.01674592 -0.00718813
v 0.01720453 -0.01643402 -0.00730828
v 0.00065275 -0.00694649 -0.00739880
v 0.00038525 -0.00649863 -0.00750414
v 0.00120296 -0.00646664 -0.00764404
v -0.00039294 -0.00568290 -0.00761276
v -0.00042334 -0.00518973 -0.00772798
v -0.00115897 -0.00559227 -0.00743501
v -0.00157239 -0.00518973 -0.00743666
v -0.00166966 -0.00528304 -0.00736917
v -0.00119545 -0.00519240 -0.00755351
v -0.00120457 -0.00518973 -0.00755187
v -0.00084587 -0.00608011 -0.00736424
v -0.00340539 -0.00536034 -0.00661371
v -0.00384616 -0.00519240 -0.00650673
v -0.00394344 -0.00515241 -0.00648369
v -0.00392520 -0.00519240 -0.00646558
v -0.00453316 -0.00486717 -0.00636848
v -0.00496482 -0.00532036 -0.00578748
v -0.00546334 -0.00519240 -0.00556693
v -0.00094315 -0.00617341 -0.00726219
v -0.00528400 -0.00565625 -0.00532993
v -0.00460612 -0.00585885 -0.00557845
v -0.00371241 -0.00617341 -0.00585825
v -0.00371241 -0.00619473 -0.00584015
v -0.00263024 -0.00695715 -0.00584179
v 0.00077739 -0.00931104 -0.00574469
v 0.00231553 -0.01097982 -0.00500569
v 0.00406646 -0.01252065 -0.00408070
v -0.00004944 -0.01093717 0.00033027
v -0.00001904 -0.01092117 0.00075655
v 0.00156774 -0.01175023 0.00168318
v 0.00164677 -0.01169958 0.00221974
v 0.00214834 -0.01190751 0.00275794
v -0.00644824 -0.00683452 0.00062653
v 0.00484465 -0.01334970 -0.00331536
v 0.00488721 -0.01339236 -0.00326434
v 0.00470482 -0.01339236 -0.00289896
v 0.00457715 -0.01350165 -0.00209083
v 0.00531279 -0.01393085 -0.00205462
v 0.00562893 -0.01416810 -0.00176000
v 0.00150086 -0.01179022 -0.00127941
v 0.00299949 -0.01266993 -0.00127941
v 0.00450116 -0.01354964 -0.00127941
v -0.00005856 -0.01094250 -0.00047128
v -0.00632665 -0.00674389 0.00114169
v -0.00586156 -0.00617874 0.00357101
v -0.00312269 -0.00425138 0.00717879
v -0.00258464 -0.00459260 0.00724627
v -0.00235666 -0.00513375 0.00718208
v -0.00190677 -0.00519240 0.00728577
v -0.00181253 -0.00538700 0.00726437
v -0.00122889 -0.00565625 0.00734502
v -0.00541471 -0.00585885 0.00457829
v -0.00000688 -0.01010544 0.00397096
v -0.00075164 -0.00925239 0.00469844
v -0.00519888 -0.00561626 0.00496672
v -0.00484626 -0.00522705 0.00557570
v -0.00475203 -0.00426737 0.00632786
v -0.00447541 -0.00401146 0.00662742
v -0.00439637 -0.00315840 0.00699116
v -0.00361210 -0.00400346 0.00706193
v -0.00385225 -0.00338233 0.00716562
v -0.00095835 -0.00618141 0.00726766
v -0.00005856 -0.00689850 0.00722652
v -0.00025007 -0.00661593 0.00729071
v -0.00036254 -0.00645598 0.00732527
v -0.00150247 -0.00592549 0.00714587
v 0.00038829 -0.00661593 0.00746023
v 0.00119080 -0.00731436 0.00739604
v 0.00201155 -0.00792483 0.00733185
v 0.01495203 -0.01558630 0.00714422
v 0.01495203 -0.01617810 0.00681998
v 0.01495203 -0.01669527 0.00648258
v 0.01495203 -0.01674592 0.00644801
v 0.01452341 -0.01659397 0.00641180
v 0.01399145 -0.01644468 0.00630976
v 0.01420119 -0.01695385 0.00598881
v 0.01441702 -0.01746035 0.00566787
v 0.01629258 -0.01895585 0.00469186
v 0.01519217 -0.01828408 0.00492886
v 0.01465109 -0.01814812 0.00468692
v 0.01438054 -0.01828941 0.00414872
v 0.01496723 -0.01882790 0.00358582
v 0.01279376 -0.01746301 0.00412567
v 0.01121306 -0.01663929 0.00410263
v 0.01384553 -0.01814545 0.00382612
v 0.01365707 -0.01824675 0.00328627
v 0.01350204 -0.01832673 0.00275959
v 0.01414648 -0.01865462 0.00275959
v 0.01469972 -0.01893186 0.00275959
v 0.01511010 -0.01912646 0.00275959
v 0.01680023 -0.01989688 0.00275959
v 0.01576366 -0.01942770 0.00275959
v 0.01639898 -0.01971560 0.00275959
v 0.01655097 -0.01993420 0.00187081
v 0.01616795 -0.01981690 0.00154328
v 0.01611931 -0.01984356 0.00114004
v 0.01605852 -0.01986755 0.00033027
v 0.01657225 -0.02005949 -0.00047128
v 0.01567550 -0.01968361 -0.00047128
v 0.01607980 -0.01985422 -0.00047128
v 0.01738083 -0.02039005 -0.00047128
v 0.01526513 -0.01905182 -0.00342728
v 0.01638378 -0.01971827 -0.00289731
v 0.01657225 -0.02001151 -0.00128270
v 0.01616795 -0.01981690 -0.00168759
v 0.01576366 -0.01942503 -0.00289731
v 0.01495203 -0.01929974 -0.00128270
v 0.01444742 -0.01905982 -0.00128270
v 0.01490643 -0.01916912 -0.00206449
v 0.01459941 -0.01898251 -0.00231960
v 0.01414648 -0.01865462 -0.00289731
v 0.01362059 -0.01826275 -0.00345691
v 0.01546271 -0.01895585 -0.00396878
v 0.01384553 -0.01814812 -0.00399841
v 0.01438358 -0.01828408 -0.00427985
v 0.01276640 -0.01747368 -0.00428314
v 0.01303999 -0.01733506 -0.00482299
v 0.01198213 -0.01665795 -0.00503202
v 0.01243506 -0.01674592 -0.00524599
v 0.01262961 -0.01674592 -0.00539082
v 0.01288191 -0.01660730 -0.00576115
v 0.01494595 -0.01695118 -0.00630923
v 0.01334701 -0.01613545 -0.00628289
v 0.01680023 -0.01747901 -0.00659890
v 0.01576366 -0.01720976 -0.00642608
v 0.01626219 -0.01734039 -0.00651002
v 0.01654793 -0.01703649 -0.00679476
v 0.01252930 -0.01514111 -0.00665486
v 0.01174503 -0.01457597 -0.00672893
v 0.00011167 -0.00678920 -0.00730334
v -0.00004944 -0.00661593 -0.00734284
v -0.00042030 -0.00621606 -0.00743007
v 0.01091212 -0.01428273 -0.00662853
v -0.00077596 -0.00617341 -0.00733461
v -0.00226546 -0.00619207 -0.00662853
v -0.00250257 -0.00610143 -0.00657257
v -0.00304366 -0.00590150 -0.00643267
v -0.00366986 -0.00564025 -0.00628125
v -0.00446933 -0.00519240 -0.00616274
v -0.00042638 -0.00661593 -0.00719965
v -0.00118025 -0.00661593 -0.00686883
v -0.00137480 -0.00661593 -0.00677830
v -0.00283695 -0.00645332 -0.00613805
v -0.00226546 -0.00661593 -0.00633391
v -0.00159975 -0.00684519 -0.00652319
v -0.00106170 -0.00702379 -0.00665157
v 0.01131641 -0.01577290 -0.00572987
v 0.00964756 -0.01579956 -0.00416135
v 0.01144104 -0.01650600 -0.00478678
v 0.00057068 -0.01131038 -0.00046963
v 0.00144919 -0.01181954 -0.00046963
v 0.00862922 -0.01592219 0.00033191
v 0.00827052 -0.01566361 0.00114004
v 0.00151606 -0.01177956 0.00113840
v 0.00267727 -0.01238469 0.00194817
v 0.00315148 -0.01257929 0.00254563
v 0.00285662 -0.01234737 0.00279086
v 0.00229425 -0.01181155 0.00334552
v 0.00326395 -0.01251531 0.00308218
v -0.00592236 -0.00702113 0.00114169
v 0.01222836 -0.01733772 -0.00394574
v 0.01206725 -0.01742303 -0.00340918
v 0.00883289 -0.01580223 -0.00259282
v 0.00567756 -0.01422941 -0.00127941
v 0.00519119 -0.01394951 -0.00127941
v 0.01309470 -0.01811346 -0.00289731
v 0.01339868 -0.01839071 -0.00208918
v 0.01404920 -0.01884656 -0.00128270
v 0.01288495 -0.01822809 -0.00110001
v 0.00713059 -0.01504248 -0.00127941
v -0.00232626 -0.00519240 0.00716233
v -0.00421398 -0.00456327 0.00650233
v -0.00079116 -0.00846065 0.00556582
v 0.00010255 -0.00841267 0.00632457
v 0.00248576 -0.01168359 0.00388702
v 0.00150694 -0.01097982 0.00409934
v 0.00136711 -0.01081987 0.00423266
v 0.00173189 -0.01081987 0.00462602
v 0.00327307 -0.01169958 0.00474288
v 0.00077435 -0.01011877 0.00480049
v -0.00021359 -0.00941767 0.00492063
v -0.00050237 -0.00894849 0.00524323
v -0.00064220 -0.00871390 0.00539959
v -0.00022575 -0.00787418 0.00655171
v -0.00059661 -0.00671989 0.00712283
v 0.00039133 -0.00744765 0.00709814
v 0.00091418 -0.00761293 0.00718208
v 0.00038829 -0.00704245 0.00729235
v 0.00044605 -0.00706111 0.00730058
v 0.00144919 -0.00776755 0.00725614
v 0.01415560 -0.01533038 0.00704382
v 0.00201155 -0.00833003 0.00713270
v 0.00125768 -0.00807678 0.00703724
v 0.01285760 -0.01532505 0.00663400
v 0.01421335 -0.01617544 0.00658133
v 0.01295791 -0.01575958 0.00639535
v 0.01252930 -0.01563695 0.00630482
v 0.01333789 -0.01675125 0.00575510
v 0.01286976 -0.01661529 0.00563495
v 0.01387593 -0.01731106 0.00546542
v 0.01414952 -0.01760963 0.00519221
v 0.01359019 -0.01746834 0.00492557
v 0.01304910 -0.01733239 0.00466388
v 0.01144104 -0.01650866 0.00464248
v 0.01207332 -0.01741769 0.00324183
v 0.01225571 -0.01732173 0.00377675
v 0.00964756 -0.01580223 0.00404173
v 0.01105803 -0.01674592 0.00357101
v 0.01309470 -0.01811346 0.00275959
v 0.01296399 -0.01818278 0.00215884
v 0.01459637 -0.01898518 0.00217530
v 0.01626826 -0.01977158 0.00208642
v 0.01452645 -0.01901983 0.00163381
v 0.01571198 -0.01964629 0.00114004
v 0.01565422 -0.01967828 0.00033027
v 0.01495203 -0.01935572 -0.00047128
v 0.01613451 -0.01983023 -0.00128270
v 0.01573326 -0.01965162 -0.00128270
v 0.01439574 -0.01908914 -0.00047128
v 0.01350204 -0.01832939 -0.00289731
v 0.01251106 -0.01720976 -0.00453990
v 0.01155352 -0.01674592 -0.00442963
v 0.01171463 -0.01679124 -0.00451521
v 0.01167815 -0.01538903 -0.00615945
v 0.01149880 -0.01486121 -0.00647052
v 0.01308254 -0.01569293 -0.00649027
v 0.01466932 -0.01651666 -0.00650179
v 0.01203989 -0.01500782 -0.00657421
v 0.01553871 -0.01674592 -0.00664663
v 0.01414648 -0.01597550 -0.00666967
v 0.01048958 -0.01415744 -0.00654952
v -0.00177605 -0.00661593 -0.00658903
v -0.00038990 -0.00706111 -0.00690833
v 0.01121306 -0.01664195 -0.00424529
v 0.00709715 -0.01506381 -0.00047292
v 0.00567148 -0.01422941 -0.00114938
v 0.00974179 -0.01655398 0.00033191
v 0.01128601 -0.01740703 0.00087999
v 0.01019168 -0.01676191 0.00114004
v 0.00363177 -0.01293384 0.00194817
v 0.00727042 -0.01496517 0.00236458
v 0.00470178 -0.01342701 0.00275630
v 0.00429749 -0.01319509 0.00275630
v 0.00278670 -0.01200082 0.00359405
v 0.00344634 -0.01240868 0.00357101
v 0.00480514 -0.01336837 0.00321879
v 0.00862314 -0.01592219 -0.00046963
v 0.01333789 -0.01852133 -0.00047128
v 0.01283936 -0.01824942 -0.00047128
v 0.01131641 -0.01738837 -0.00085477
v 0.00929190 -0.01629540 -0.00046963
v 0.00063756 -0.00857262 0.00648587
v 0.00027582 -0.00807678 0.00666527
v 0.00718531 -0.01339236 0.00552138
v 0.00725826 -0.01336037 0.00560697
v 0.00876601 -0.01422941 0.00564153
v 0.00882681 -0.01422941 0.00567939
v 0.00807901 -0.01495984 0.00396767
v 0.00554381 -0.01339236 0.00409769
v 0.00302989 -0.01184620 0.00420138
v 0.00329739 -0.01196616 0.00427545
v 0.00581131 -0.01325640 0.00463096
v 0.00888152 -0.01496517 0.00478896
v 0.00481122 -0.01255797 0.00480542
v 0.00835868 -0.01422941 0.00534198
v 0.00038221 -0.00811943 0.00668667
v 0.00038221 -0.00807678 0.00671300
v 0.00090202 -0.00807678 0.00690722
v 0.00119080 -0.00805545 0.00702737
v 0.01252930 -0.01523442 0.00657968
v 0.01193045 -0.01506647 0.00647435
v 0.01138937 -0.01491452 0.00637230
v 0.01091212 -0.01477324 0.00626697
v 0.01091212 -0.01524241 0.00586043
v 0.01031935 -0.01506914 0.00571066
v 0.01132553 -0.01576757 0.00558722
v 0.01042575 -0.01582089 0.00484492
v 0.01198213 -0.01665261 0.00489101
v 0.00988466 -0.01566361 0.00457994
v 0.01195173 -0.01748701 0.00275959
v 0.01252930 -0.01780690 0.00275959
v 0.00909735 -0.01565828 0.00357101
v 0.01051390 -0.01657531 0.00315296
v 0.01180582 -0.01756964 0.00194982
v 0.01134073 -0.01737771 0.00142149
v 0.01291839 -0.01820677 0.00161735
v 0.01327709 -0.01836405 0.00191196
v 0.01421639 -0.01883323 0.00192184
v 0.00882681 -0.01580756 0.00249460
v 0.01495203 -0.01927575 0.00114004
v 0.01495203 -0.01933440 0.00033027
v 0.01442918 -0.01907048 0.00033027
v 0.01333789 -0.01850800 0.00033027
v 0.01284240 -0.01824942 0.00033027
v 0.01171767 -0.01765228 0.00033027
v 0.01127385 -0.01741236 0.00033027
v 0.01248370 -0.01801483 0.00114004
v 0.00874473 -0.01585288 0.00195146
v 0.00834044 -0.01562362 0.00195146
v 0.00722787 -0.01498916 0.00195146
v 0.01140153 -0.01734305 0.00194982
v 0.00895144 -0.01573825 0.00303445
v 0.01128905 -0.01740437 -0.00031492
v 0.00120296 -0.00871390 0.00661260
v 0.00929494 -0.01436804 0.00580941
v 0.00978131 -0.01491452 0.00553126
v 0.01007313 -0.01532505 0.00522183
v 0.00634936 -0.01341368 0.00487126
v 0.01333789 -0.01845469 0.00114004
v 0.01408568 -0.01883589 0.00114004
f 1 2 3
f 1 3 4
f 1 4 5
f 1 5 6
f 1 6 7
f 1 7 8
f 1 8 9
f 1 9 10
f 1 10 11
f 1 11 12
f 1 12 2
f 2 13 3
f 2 12 14
f 2 14 15
f 2 15 16
f 2 16 13
f 3 13 17
f 3 17 18
f 3 18 19
f 3 19 4
f 4 19 20
f 4 20 21
f 4 21 5
f 5 21 22
f 5 22 23
f 5 23 6
f 6 23 7
f 7 23 8
f 8 23 24
f 8 24 9
f 9 25 11
f 9 11 10
f 9 24 26
f 9 26 27
f 9 27 25
f 11 28 12
f 11 25 29
f 11 29 30
f 11 30 28
f 12 28 14
f 13 31 17
f 13 16 32
f 13 32 33
f 13 33 34
f 13 34 31
f 14 35 36
f 14 36 15
f 14 28 35
f 15 36 16
f 16 36 37
f 16 37 38
f 16 38 32
f 17 31 18
f 18 39 19
f 18 31 40
f 18 40 41
f 18 41 42
f 18 42 39
f 19 39 43
f 19 43 20
f 20 43 44
f 20 44 21
f 21 44 45
f 21 45 46
f 21 46 22
f 22 46 47
f 22 47 48
f 22 48 23
f 23 48 49
f 23 49 50
f 23 50 51
f 23 51 24
f 24 51 26
f 25 27 52
f 25 52 53
f 25 53 54
f 25 54 55
f 25 55 29
f 26 51 56
f 26 56 57
f 26 57 27
f 27 57 58
f 27 58 59
f 27 59 52
f 28 30 60
f 28 60 35
f 29 55 61
f 29 61 30
f 30 62 60
f 30 61 62
f 31 34 63
f 31 63 64
f 31 64 65
f 31 65 66
f 31 66 67
f 31 67 68
f 31 68 69
f 31 69 40
f 32 38 70
f 32 70 71
f 32 71 33
f 33 71 34
f 34 71 72
f 34 72 73
f 34 73 74
f 34 74 63
f 35 60 36
f 36 60 75
f 36 75 37
f 37 75 76
f 37 76 77
f 37 77 78
f 37 78 38
f 38 78 79
f 38 79 70
f 39 42 80
f 39 80 81
f 39 81 82
f 39 82 83
f 39 83 43
f 40 69 84
f 40 84 41
f 41 84 42
f 42 84 81
f 42 81 80
f 43 85 86
f 43 86 87
f 43 87 88
f 43 88 44
f 43 83 89
f 43 89 85
f 44 88 90
f 44 90 45
f 45 90 91
f 45 91 92
f 45 92 93
f 45 93 94
f 45 94 95
f 45 95 46
f 46 95 47
f 47 95 96
f 47 96 97
f 47 97 48
f 48 97 98
f 48 98 49
f 49 98 99
f 49 99 50
f 50 100 51
f 50 99 101
f 50 101 100
f 51 100 56
f 52 102 103
f 52 103 104
f 52 104 53
f 52 59 105
f 52 105 106
f 52 106 107
f 52 107 102
f 53 104 103
f 53 103 108
f 53 108 109
f 53 109 54
f 54 109 110
f 54 110 111
f 54 111 61
f 54 61 55
f 56 100 112
f 56 112 57
f 57 112 113
f 57 113 58
f 58 113 114
f 58 114 115
f 58 115 105
f 58 105 59
f 60 62 76
f 60 76 75
f 61 111 62
f 62 111 116
f 62 116 117
f 62 117 118
f 62 118 76
f 63 74 119
f 63 119 64
f 64 119 120
f 64 120 65
f 65 120 66
f 66 120 67
f 67 120 84
f 67 84 68
f 68 84 69
f 70 79 121
f 70 121 71
f 71 121 122
f 71 122 123
f 71 123 72
f 72 123 120
f 72 120 73
f 73 120 74
f 74 120 119
f 76 118 124
f 76 124 125
f 76 125 77
f 77 125 78
f 78 125 79
f 79 125 121
f 81 84 120
f 81 120 82
f 82 120 126
f 82 126 83
f 83 126 127
f 83 127 89
f 85 128 129
f 85 129 86
f 85 89 128
f 86 129 130
f 86 130 131
f 86 131 87
f 87 131 132
f 87 132 88
f 88 132 91
f 88 91 90
f 89 127 133
f 89 133 128
f 91 134 135
f 91 135 92
f 91 132 136
f 91 136 137
f 91 137 138
f 91 138 139
f 91 139 134
f 92 135 140
f 92 140 93
f 93 141 94
f 93 140 142
f 93 142 141
f 94 141 143
f 94 143 96
f 94 96 95
f 96 143 144
f 96 144 97
f 97 144 98
f 98 144 145
f 98 145 99
f 99 145 146
f 99 146 101
f 100 101 147
f 100 147 148
f 100 148 112
f 101 146 149
f 101 149 150
f 101 150 147
f 102 107 151
f 102 151 103
f 103 151 152
f 103 152 153
f 103 153 108
f 105 154 106
f 105 115 155
f 105 155 156
f 105 156 154
f 106 157 158
f 106 158 159
f 106 159 160
f 106 160 161
f 106 161 162
f 106 162 107
f 106 154 157
f 107 163 164
f 107 164 151
f 107 162 165
f 107 165 166
f 107 166 167
f 107 167 168
f 107 168 169
f 107 169 163
f 108 153 170
f 108 170 109
f 109 170 110
f 110 170 111
f 111 170 171
f 111 171 116
f 112 148 172
f 112 172 173
f 112 173 174
f 112 174 175
f 112 175 176
f 112 176 177
f 112 177 178
f 112 178 113
f 113 178 179
f 113 179 180
f 113 180 114
f 114 180 181
f 114 181 182
f 114 182 115
f 115 182 156
f 115 156 155
f 116 171 183
f 116 183 184
f 116 184 117
f 117 184 120
f 117 120 118
f 118 120 185
f 118 185 124
f 120 186 187
f 120 187 188
f 120 188 189
f 120 189 190
f 120 190 191
f 120 191 192
f 120 192 193
f 120 193 194
f 120 194 195
f 120 195 196
f 120 196 197
f 120 197 198
f 120 198 199
f 120 199 200
f 120 200 201
f 120 201 202
f 120 202 203
f 120 203 204
f 120 204 205
f 120 205 206
f 120 206 207
f 120 207 208
f 120 208 209
f 120 209 210
f 120 210 211
f 120 211 212
f 120 212 213
f 120 213 214
f 120 214 215
f 120 215 216
f 120 216 217
f 120 217 218
f 120 218 219
f 120 219 220
f 120 220 221
f 120 221 222
f 120 222 223
f 120 223 224
f 120 224 225
f 120 225 226
f 120 226 127
f 120 127 126
f 120 123 122
f 120 122 227
f 120 227 185
f 120 184 186
f 121 125 124
f 121 124 228
f 121 228 229
f 121 229 227
f 121 227 122
f 124 185 228
f 127 226 133
f 128 230 129
f 128 133 231
f 128 231 230
f 129 232 233
f 129 233 234
f 129 234 130
f 129 230 232
f 130 234 235
f 130 235 236
f 130 236 131
f 131 236 237
f 131 237 132
f 132 237 238
f 132 238 136
f 133 226 231
f 134 139 135
f 135 239 140
f 135 139 240
f 135 240 239
f 136 238 241
f 136 241 137
f 137 242 243
f 137 243 244
f 137 244 138
f 137 241 242
f 138 244 139
f 139 245 240
f 139 244 246
f 139 246 247
f 139 247 248
f 139 248 245
f 140 239 142
f 141 249 144
f 141 144 143
f 141 142 250
f 141 250 251
f 141 251 249
f 142 239 250
f 144 249 145
f 145 249 146
f 146 249 251
f 146 251 252
f 146 252 149
f 147 253 148
f 147 150 254
f 147 254 253
f 148 253 172
f 149 252 150
f 150 252 255
f 150 255 256
f 150 256 257
f 150 257 258
f 150 258 259
f 150 259 254
f 151 164 260
f 151 260 261
f 151 261 152
f 152 261 262
f 152 262 153
f 153 262 263
f 153 263 170
f 154 156 157
f 156 182 186
f 156 186 157
f 157 186 158
f 158 186 159
f 159 186 160
f 160 186 161
f 161 186 162
f 162 186 264
f 162 264 165
f 163 169 164
f 164 169 265
f 164 265 260
f 165 264 166
f 166 264 186
f 166 186 167
f 167 186 168
f 168 186 169
f 169 186 265
f 170 263 183
f 170 183 171
f 172 253 266
f 172 266 267
f 172 267 268
f 172 268 269
f 172 269 270
f 172 270 271
f 172 271 173
f 173 271 272
f 173 272 174
f 174 273 274
f 174 274 275
f 174 275 276
f 174 276 175
f 174 272 277
f 174 277 278
f 174 278 273
f 175 276 176
f 176 276 186
f 176 186 178
f 176 178 177
f 178 186 181
f 178 181 179
f 179 181 180
f 181 186 182
f 183 279 280
f 183 280 186
f 183 186 184
f 183 263 279
f 185 227 229
f 185 229 228
f 186 281 282
f 186 282 265
f 186 276 283
f 186 283 284
f 186 284 285
f 186 285 187
f 186 280 281
f 187 286 188
f 187 285 287
f 187 287 288
f 187 288 286
f 188 286 189
f 189 286 289
f 189 289 190
f 190 289 290
f 190 290 291
f 190 291 191
f 191 291 292
f 191 292 192
f 192 292 293
f 192 293 193
f 193 293 294
f 193 294 194
f 194 294 295
f 194 295 296
f 194 296 297
f 194 297 195
f 195 297 298
f 195 298 196
f 196 298 197
f 197 298 299
f 197 299 300
f 197 300 198
f 198 300 301
f 198 301 302
f 198 302 199
f 199 302 303
f 199 303 304
f 199 304 200
f 200 304 305
f 200 305 306
f 200 306 307
f 200 307 310
f 200 310 308
f 200 308 201
f 201 308 202
f 202 309 203
f 202 308 310
f 202 310 311
f 202 311 309
f 203 309 204
f 204 309 312
f 204 312 205
f 205 312 313
f 205 313 206
f 206 314 207
f 206 313 314
f 207 314 208
f 208 314 315
f 208 315 316
f 208 316 209
f 209 316 317
f 209 317 318
f 209 318 210
f 210 318 211
f 211 318 319
f 211 319 212
f 212 319 320
f 212 320 213
f 213 320 214
f 214 320 321
f 214 321 215
f 215 321 322
f 215 322 323
f 215 323 324
f 215 324 216
f 216 324 217
f 217 324 325
f 217 325 218
f 218 325 326
f 218 326 327
f 218 327 328
f 218 328 219
f 219 328 220
f 220 328 329
f 220 329 330
f 220 330 221
f 221 330 331
f 221 331 332
f 221 332 222
f 222 333 223
f 222 332 333
f 223 333 334
f 223 334 224
f 224 334 335
f 224 335 225
f 225 335 336
f 225 336 226
f 226 336 337
f 226 337 231
f 230 338 339
f 230 339 232
f 230 231 337
f 230 337 340
f 230 340 341
f 230 341 338
f 232 342 343
f 232 343 344
f 232 344 345
f 232 345 233
f 232 339 338
f 232 338 346
f 232 346 342
f 233 345 347
f 233 347 348
f 233 348 235
f 233 235 234
f 235 348 349
f 235 349 350
f 235 350 236
f 236 350 237
f 237 350 241
f 237 241 238
f 239 351 352
f 239 352 250
f 239 240 351
f 240 245 353
f 240 353 256
f 240 256 354
f 240 354 351
f 241 350 242
f 242 355 356
f 242 356 243
f 242 350 357
f 242 357 355
f 243 356 358
f 243 358 244
f 244 358 359
f 244 359 246
f 245 360 353
f 245 248 361
f 245 361 362
f 245 362 363
f 245 363 364
f 245 364 360
f 246 359 247
f 247 359 473
f 247 473 365
f 247 365 477
f 247 477 366
f 247 366 248
f 248 366 367
f 248 367 361
f 250 352 255
f 250 255 251
f 251 255 252
f 253 254 368
f 253 368 369
f 253 369 266
f 254 259 258
f 254 258 370
f 254 370 371
f 254 371 372
f 254 372 373
f 254 373 374
f 254 374 375
f 254 375 368
f 255 352 354
f 255 354 256
f 256 353 257
f 257 353 467
f 257 467 376
f 257 376 258
f 258 371 370
f 258 376 377
f 258 377 378
f 258 378 379
f 258 379 380
f 258 380 381
f 258 381 371
f 260 382 262
f 260 262 261
f 260 265 382
f 262 382 263
f 263 382 279
f 265 282 382
f 266 268 267
f 266 369 383
f 266 383 268
f 268 383 369
f 268 369 384
f 268 384 269
f 269 384 385
f 269 385 270
f 270 385 386
f 270 386 387
f 270 387 271
f 271 387 272
f 272 387 388
f 272 388 389
f 272 389 390
f 272 390 278
f 272 278 277
f 273 391 274
f 273 278 391
f 274 391 392
f 274 392 393
f 274 393 275
f 275 393 283
f 275 283 276
f 278 390 394
f 278 394 395
f 278 395 392
f 278 392 391
f 279 382 282
f 279 282 281
f 279 281 280
f 283 393 396
f 283 396 397
f 283 397 398
f 283 398 399
f 283 399 284
f 284 399 285
f 285 399 287
f 286 400 289
f 286 288 401
f 286 401 400
f 287 399 288
f 288 402 403
f 288 403 404
f 288 404 405
f 288 405 406
f 288 406 407
f 288 407 401
f 288 399 408
f 288 408 402
f 289 400 290
f 290 400 409
f 290 409 410
f 290 410 411
f 290 411 412
f 290 412 413
f 290 413 414
f 290 414 291
f 291 414 292
f 292 414 413
f 292 413 415
f 292 415 294
f 292 294 293
f 294 415 416
f 294 416 295
f 295 416 417
f 295 417 296
f 296 418 298
f 296 298 297
f 296 417 419
f 296 419 418
f 298 418 300
f 298 300 299
f 300 418 301
f 301 420 421
f 301 421 422
f 301 422 423
f 301 423 424
f 301 424 303
f 301 303 302
f 301 418 420
f 303 424 304
f 304 424 425
f 304 425 305
f 305 425 306
f 306 425 426
f 306 426 307
f 307 426 427
f 307 427 428
f 307 428 310
f 309 429 313
f 309 313 312
f 309 311 429
f 310 428 430
f 310 430 311
f 311 430 429
f 313 431 432
f 313 432 433
f 313 433 434
f 313 434 435
f 313 435 314
f 313 429 431
f 314 436 315
f 314 435 436
f 315 436 437
f 315 437 316
f 316 437 317
f 317 437 438
f 317 438 439
f 317 439 440
f 317 440 318
f 318 440 441
f 318 441 442
f 318 442 443
f 318 443 444
f 318 444 445
f 318 445 322
f 318 322 446
f 318 446 319
f 319 446 320
f 320 446 322
f 320 322 321
f 322 445 447
f 322 447 448
f 322 448 323
f 323 448 325
f 323 325 324
f 325 448 449
f 325 449 326
f 326 449 450
f 326 450 451
f 326 451 327
f 327 329 328
f 327 451 329
f 329 451 452
f 329 452 330
f 330 452 331
f 331 453 454
f 331 454 332
f 331 452 455
f 331 455 453
f 332 454 456
f 332 456 333
f 333 456 334
f 334 456 457
f 334 457 335
f 335 457 336
f 336 457 340
f 336 340 337
f 338 341 346
f 340 457 341
f 341 457 456
f 341 456 458
f 341 458 346
f 342 459 343
f 342 346 459
f 343 459 460
f 343 460 461
f 343 461 344
f 344 461 462
f 344 462 345
f 345 462 461
f 345 461 463
f 345 463 347
f 346 458 459
f 347 463 464
f 347 464 349
f 347 349 348
f 349 465 357
f 349 357 350
f 349 464 465
f 351 354 352
f 353 360 466
f 353 466 467
f 355 468 469
f 355 469 356
f 355 357 464
f 355 464 470
f 355 470 468
f 356 471 472
f 356 472 358
f 356 469 471
f 357 465 464
f 358 472 473
f 358 473 359
f 360 364 466
f 361 367 362
f 362 367 474
f 362 474 363
f 363 474 364
f 364 474 377
f 364 377 376
f 364 376 467
f 364 467 466
f 365 475 476
f 365 476 367
f 365 367 477
f 365 473 478
f 365 478 479
f 365 479 480
f 365 480 475
f 366 477 367
f 367 476 481
f 367 481 482
f 367 482 483
f 367 483 484
f 367 484 377
f 367 377 485
f 367 485 474
f 368 375 369
f 369 375 486
f 369 486 487
f 369 487 384
f 371 381 488
f 371 488 372
f 372 488 373
f 373 488 581
f 373 581 489
f 373 489 374
f 374 486 375
f 374 489 486
f 377 474 485
f 377 484 490
f 377 490 378
f 378 490 491
f 378 491 492
f 378 492 379
f 379 492 493
f 379 493 380
f 380 493 494
f 380 494 381
f 381 494 495
f 381 495 488
f 384 487 385
f 385 487 386
f 386 487 496
f 386 496 497
f 386 497 498
f 386 498 389
f 386 389 388
f 386 388 387
f 389 498 390
f 390 498 394
f 392 395 499
f 392 499 393
f 393 499 396
f 394 498 500
f 394 500 501
f 394 501 502
f 394 502 503
f 394 503 395
f 395 504 499
f 395 503 504
f 396 499 397
f 397 499 505
f 397 505 398
f 398 505 402
f 398 402 399
f 399 402 408
f 400 401 409
f 401 407 506
f 401 506 507
f 401 507 411
f 401 411 410
f 401 410 409
f 402 505 404
f 402 404 403
f 404 508 509
f 404 509 510
f 404 510 406
f 404 406 405
f 404 505 508
f 406 510 511
f 406 511 407
f 407 511 512
f 407 512 506
f 411 507 513
f 411 513 514
f 411 514 515
f 411 515 516
f 411 516 412
f 412 516 413
f 413 516 517
f 413 517 415
f 415 517 416
f 416 517 518
f 416 518 519
f 416 519 417
f 417 519 520
f 417 520 521
f 417 521 419
f 418 419 420
f 419 521 522
f 419 522 523
f 419 523 420
f 420 523 421
f 421 523 524
f 421 524 525
f 421 525 526
f 421 526 527
f 421 527 422
f 422 426 423
f 422 527 528
f 422 528 426
f 423 426 425
f 423 425 424
f 426 528 427
f 427 528 529
f 427 529 530
f 427 530 428
f 428 531 430
f 428 530 531
f 429 430 532
f 429 532 431
f 430 531 533
f 430 533 532
f 431 533 534
f 431 534 432
f 431 532 533
f 432 534 535
f 432 535 536
f 432 536 537
f 432 537 433
f 433 538 438
f 433 438 434
f 433 537 539
f 433 539 540
f 433 540 538
f 434 438 435
f 435 438 437
f 435 437 436
f 438 538 439
f 439 538 541
f 439 541 542
f 439 542 543
f 439 543 544
f 439 544 440
f 440 544 545
f 440 545 441
f 441 545 546
f 441 546 547
f 441 547 548
f 441 548 442
f 442 548 549
f 442 549 443
f 443 549 550
f 443 550 444
f 444 550 445
f 445 550 551
f 445 551 552
f 445 552 447
f 447 552 448
f 448 552 449
f 449 552 450
f 450 552 553
f 450 553 452
f 450 452 451
f 452 553 455
f 453 455 554
f 453 554 555
f 453 555 454
f 454 555 556
f 454 556 557
f 454 557 458
f 454 458 456
f 455 553 554
f 458 557 459
f 459 558 559
f 459 559 460
f 459 557 560
f 459 560 558
f 460 559 470
f 460 470 464
f 460 464 461
f 461 464 463
f 468 561 562
f 468 562 469
f 468 470 563
f 468 563 561
f 469 562 564
f 469 564 471
f 470 559 563
f 471 565 473
f 471 473 472
f 471 564 565
f 473 566 567
f 473 567 478
f 473 565 566
f 475 480 568
f 475 568 476
f 476 568 569
f 476 569 481
f 478 567 570
f 478 570 479
f 479 570 571
f 479 571 480
f 480 571 572
f 480 572 573
f 480 573 574
f 480 574 568
f 481 575 576
f 481 576 577
f 481 577 490
f 481 490 483
f 481 483 482
f 481 569 578
f 481 578 575
f 483 490 484
f 486 489 487
f 487 579 498
f 487 498 497
f 487 497 496
f 487 489 580
f 487 580 579
f 488 495 581
f 489 581 495
f 489 495 580
f 490 577 491
f 491 582 583
f 491 583 492
f 491 577 582
f 492 584 585
f 492 585 586
f 492 586 587
f 492 587 588
f 492 588 589
f 492 589 590
f 492 590 493
f 492 583 584
f 493 590 494
f 494 590 495
f 495 590 591
f 495 591 580
f 498 592 593
f 498 593 594
f 498 594 500
f 498 579 580
f 498 580 592
f 499 508 505
f 499 504 508
f 500 595 501
f 500 594 595
f 501 595 596
f 501 596 597
f 501 597 598
f 501 598 599
f 501 599 600
f 501 600 504
f 501 504 503
f 501 503 502
f 504 600 509
f 504 509 508
f 506 512 601
f 506 601 507
f 507 601 602
f 507 602 603
f 507 603 513
f 509 600 599
f 509 599 510
f 510 599 604
f 510 604 511
f 511 604 605
f 511 605 512
f 512 606 601
f 512 605 607
f 512 607 606
f 513 603 608
f 513 608 609
f 513 609 610
f 513 610 611
f 513 611 514
f 514 518 515
f 514 611 518
f 515 517 516
f 515 518 517
f 518 611 612
f 518 612 519
f 519 612 520
f 520 612 613
f 520 613 614
f 520 614 521
f 521 615 523
f 521 523 522
f 521 614 616
f 521 616 615
f 523 615 617
f 523 617 524
f 524 618 525
f 524 617 619
f 524 619 618
f 525 618 526
f 526 618 527
f 527 618 620
f 527 620 621
f 527 621 528
f 528 621 622
f 528 622 623
f 528 623 529
f 529 623 624
f 529 624 530
f 530 624 625
f 530 625 626
f 530 626 627
f 530 627 531
f 531 534 533
f 531 627 534
f 534 627 535
f 535 627 628
f 535 628 629
f 535 629 536
f 536 629 537
f 537 630 631
f 537 631 539
f 537 629 632
f 537 632 633
f 537 633 630
f 538 540 541
f 539 631 540
f 540 631 634
f 540 634 542
f 540 542 541
f 542 635 636
f 542 636 637
f 542 637 638
f 542 638 545
f 542 545 543
f 542 634 635
f 543 545 544
f 545 638 546
f 546 638 637
f 546 637 639
f 546 639 640
f 546 640 641
f 546 641 547
f 547 641 642
f 547 642 548
f 548 642 643
f 548 643 549
f 549 643 550
f 550 643 644
f 550 644 645
f 550 645 551
f 551 645 552
f 552 646 647
f 552 647 648
f 552 648 553
f 552 645 649
f 552 649 650
f 552 650 651
f 552 651 646
f 553 648 652
f 553 652 653
f 553 653 654
f 553 654 655
f 553 655 656
f 553 656 554
f 554 656 555
f 555 656 556
f 556 656 657
f 556 657 654
f 556 654 658
f 556 658 659
f 556 659 660
f 556 660 661
f 556 661 557
f 557 661 662
f 557 662 663
f 557 663 560
f 558 664 559
f 558 560 665
f 558 665 666
f 558 666 664
f 559 664 563
f 560 663 667
f 560 667 668
f 560 668 665
f 561 563 669
f 561 669 670
f 561 670 671
f 561 671 562
f 562 671 564
f 563 664 672
f 563 672 673
f 563 673 674
f 563 674 670
f 563 670 669
f 564 671 565
f 565 671 675
f 565 675 676
f 565 676 677
f 565 677 566
f 566 678 567
f 566 677 678
f 567 678 679
f 567 679 680
f 567 680 570
f 568 574 569
f 569 574 681
f 569 681 578
f 570 680 682
f 570 682 683
f 570 683 684
f 570 684 572
f 570 572 571
f 572 684 685
f 572 685 686
f 572 686 687
f 572 687 688
f 572 688 573
f 573 688 689
f 573 689 574
f 574 689 690
f 574 690 681
f 575 578 576
f 576 578 583
f 576 583 582
f 576 582 577
f 578 681 691
f 578 691 692
f 578 692 693
f 578 693 583
f 580 591 694
f 580 694 695
f 580 695 696
f 580 696 697
f 580 697 698
f 580 698 592
f 583 693 699
f 583 699 584
f 584 699 700
f 584 700 585
f 585 700 701
f 585 701 586
f 586 701 587
f 587 702 703
f 587 703 588
f 587 701 700
f 587 700 702
f 588 703 704
f 588 704 705
f 588 705 706
f 588 706 589
f 589 706 707
f 589 707 708
f 589 708 709
f 589 709 590
f 590 709 591
f 591 710 694
f 591 709 710
f 592 698 593
f 593 596 594
f 593 698 697
f 593 697 596
f 594 596 595
f 596 697 711
f 596 711 712
f 596 712 713
f 596 713 714
f 596 714 597
f 597 714 598
f 598 714 715
f 598 715 716
f 598 716 599
f 599 716 715
f 599 715 604
f 601 606 602
f 602 606 717
f 602 717 718
f 602 718 603
f 603 718 608
f 604 715 605
f 605 715 607
f 606 607 719
f 606 719 720
f 606 720 717
f 607 715 719
f 608 718 721
f 608 721 609
f 609 721 722
f 609 722 723
f 609 723 610
f 610 723 724
f 610 724 611
f 611 724 725
f 611 725 726
f 611 726 612
f 612 726 727
f 612 727 613
f 613 727 614
f 614 727 725
f 614 725 728
f 614 728 729
f 614 729 730
f 614 730 617
f 614 617 616
f 615 616 617
f 617 730 619
f 618 619 731
f 618 731 620
f 619 730 732
f 619 732 733
f 619 733 734
f 619 734 735
f 619 735 736
f 619 736 731
f 620 731 622
f 620 622 621
f 622 737 623
f 622 731 736
f 622 736 738
f 622 738 739
f 622 739 737
f 623 737 624
f 624 737 625
f 625 739 740
f 625 740 741
f 625 741 742
f 625 742 626
f 625 737 739
f 626 742 627
f 627 742 743
f 627 743 628
f 628 743 744
f 628 744 632
f 628 632 629
f 630 633 631
f 631 633 745
f 631 745 635
f 631 635 634
f 632 746 633
f 632 744 747
f 632 747 748
f 632 748 749
f 632 749 746
f 633 746 745
f 635 745 636
f 636 745 750
f 636 750 751
f 636 751 752
f 636 752 637
f 637 752 639
f 639 752 753
f 639 753 754
f 639 754 755
f 639 755 640
f 640 755 756
f 640 756 757
f 640 757 641
f 641 757 758
f 641 758 759
f 641 759 760
f 641 760 761
f 641 761 650
f 641 650 649
f 641 649 644
f 641 644 643
f 641 643 642
f 644 649 645
f 646 651 647
f 647 652 648
f 647 651 650
f 647 650 762
f 647 762 652
f 650 761 762
f 652 762 763
f 652 763 764
f 652 764 765
f 652 765 653
f 653 765 654
f 654 765 766
f 654 766 767
f 654 767 768
f 654 768 659
f 654 659 658
f 654 657 655
f 655 657 656
f 659 768 769
f 659 769 661
f 659 661 660
f 661 769 770
f 661 770 662
f 662 770 663
f 663 770 667
f 664 666 771
f 664 771 772
f 664 772 773
f 664 773 672
f 665 668 774
f 665 774 775
f 665 775 666
f 666 775 771
f 667 769 776
f 667 776 774
f 667 774 668
f 667 770 769
f 670 675 671
f 670 674 773
f 670 773 776
f 670 776 675
f 672 773 674
f 672 674 673
f 675 777 778
f 675 778 779
f 675 779 780
f 675 780 781
f 675 781 782
f 675 782 783
f 675 783 676
f 675 776 784
f 675 784 777
f 676 783 679
f 676 679 677
f 677 679 678
f 679 783 785
f 679 785 786
f 679 786 787
f 679 787 788
f 679 788 789
f 679 789 790
f 679 790 791
f 679 791 680
f 680 791 792
f 680 792 682
f 681 690 793
f 681 793 794
f 681 794 795
f 681 795 796
f 681 796 797
f 681 797 798
f 681 798 691
f 682 792 799
f 682 799 683
f 683 799 684
f 684 799 685
f 685 799 800
f 685 800 801
f 685 801 802
f 685 802 686
f 686 802 803
f 686 803 804
f 686 804 805
f 686 805 687
f 687 805 688
f 688 805 689
f 689 805 806
f 689 806 807
f 689 807 808
f 689 808 690
f 690 808 793
f 691 798 692
f 692 798 809
f 692 809 810
f 692 810 704
f 692 704 702
f 692 702 700
f 692 700 699
f 692 699 693
f 694 710 811
f 694 811 812
f 694 812 695
f 695 812 813
f 695 813 814
f 695 814 697
f 695 697 696
f 697 814 815
f 697 815 816
f 697 816 711
f 702 704 703
f 704 817 706
f 704 706 705
f 704 810 818
f 704 818 819
f 704 819 817
f 706 817 820
f 706 820 821
f 706 821 822
f 706 822 707
f 707 822 823
f 707 823 710
f 707 710 708
f 708 710 709
f 710 823 824
f 710 824 825
f 710 825 826
f 710 826 811
f 711 827 828
f 711 828 829
f 711 829 830
f 711 830 712
f 711 816 815
f 711 815 813
f 711 813 831
f 711 831 827
f 712 832 713
f 712 830 832
f 713 833 714
f 713 832 833
f 714 833 834
f 714 834 835
f 714 835 715
f 715 835 719
f 717 720 836
f 717 836 718
f 718 836 837
f 718 837 838
f 718 838 721
f 719 835 836
f 719 836 720
f 721 838 722
f 722 838 839
f 722 839 840
f 722 840 841
f 722 841 842
f 722 842 723
f 723 725 724
f 723 842 725
f 725 727 726
f 725 842 728
f 728 843 729
f 728 842 843
f 729 843 730
f 730 843 732
f 732 843 733
f 733 843 844
f 733 844 845
f 733 845 846
f 733 846 734
f 734 847 735
f 734 846 848
f 734 848 849
f 734 849 850
f 734 850 847
f 735 847 851
f 735 851 852
f 735 852 853
f 735 853 854
f 735 854 855
f 735 855 736
f 736 856 739
f 736 739 738
f 736 855 857
f 736 857 858
f 736 858 856
f 739 856 859
f 739 859 740
f 740 859 860
f 740 860 861
f 740 861 862
f 740 862 741
f 741 863 866
f 741 866 742
f 741 862 864
f 741 864 865
f 741 865 863
f 742 866 743
f 743 866 747
f 743 747 744
f 745 746 867
f 745 867 751
f 745 751 750
f 746 749 868
f 746 868 867
f 747 866 863
f 747 863 869
f 747 869 748
f 748 870 749
f 748 869 870
f 749 871 868
f 749 870 872
f 749 872 873
f 749 873 874
f 749 874 875
f 749 875 876
f 749 876 871
f 751 867 877
f 751 877 878
f 751 878 752
f 752 878 879
f 752 879 880
f 752 880 753
f 753 880 754
f 754 880 881
f 754 881 882
f 754 882 756
f 754 756 755
f 756 882 883
f 756 883 757
f 757 883 884
f 757 884 885
f 757 885 758
f 758 885 886
f 758 886 759
f 759 887 760
f 759 886 888
f 759 888 887
f 760 887 761
f 761 889 762
f 761 887 890
f 761 890 891
f 761 891 889
f 762 889 892
f 762 892 763
f 763 892 893
f 763 893 894
f 763 894 764
f 764 894 765
f 765 894 766
f 766 895 896
f 766 896 776
f 766 776 897
f 766 897 767
f 766 894 898
f 766 898 895
f 767 897 769
f 767 769 768
f 769 897 776
f 771 775 776
f 771 776 773
f 771 773 772
f 774 776 775
f 776 899 784
f 776 896 895
f 776 895 899
f 777 900 901
f 777 901 778
f 777 784 900
f 778 901 902
f 778 902 780
f 778 780 779
f 780 902 903
f 780 903 781
f 781 904 782
f 781 903 904
f 782 904 903
f 782 903 787
f 782 787 786
f 782 786 785
f 782 785 783
f 784 899 905
f 784 905 906
f 784 906 907
f 784 907 900
f 787 903 908
f 787 908 789
f 787 789 788
f 789 908 909
f 789 909 910
f 789 910 790
f 790 910 911
f 790 911 912
f 790 912 791
f 791 913 792
f 791 912 883
f 791 883 914
f 791 914 913
f 792 913 799
f 793 808 915
f 793 915 916
f 793 916 917
f 793 917 918
f 793 918 919
f 793 919 794
f 794 919 920
f 794 920 795
f 795 920 921
f 795 921 796
f 796 921 922
f 796 922 797
f 797 923 818
f 797 818 798
f 797 922 924
f 797 924 923
f 798 818 925
f 798 925 809
f 799 913 800
f 800 913 926
f 800 926 927
f 800 927 801
f 801 927 928
f 801 928 803
f 801 803 802
f 803 928 804
f 804 929 930
f 804 930 807
f 804 807 806
f 804 806 805
f 804 928 931
f 804 931 932
f 804 932 933
f 804 933 934
f 804 934 935
f 804 935 929
f 807 930 916
f 807 916 915
f 807 915 808
f 809 925 818
f 809 818 810
f 811 826 825
f 811 825 813
f 811 813 812
f 813 936 831
f 813 815 814
f 813 825 823
f 813 823 937
f 813 937 936
f 817 819 938
f 817 938 939
f 817 939 820
f 818 923 940
f 818 940 941
f 818 941 819
f 819 941 942
f 819 942 943
f 819 943 944
f 819 944 945
f 819 945 946
f 819 946 947
f 819 947 948
f 819 948 938
f 820 939 821
f 821 937 822
f 821 939 949
f 821 949 937
f 822 937 823
f 823 825 824
f 827 950 828
f 827 831 950
f 828 950 951
f 828 951 952
f 828 952 953
f 828 953 829
f 829 953 830
f 830 953 954
f 830 954 832
f 831 936 937
f 831 937 949
f 831 949 950
f 832 954 833
f 833 954 952
f 833 952 955
f 833 955 834
f 834 955 835
f 835 956 836
f 835 955 957
f 835 957 956
f 836 956 958
f 836 958 959
f 836 959 960
f 836 960 839
f 836 839 837
f 837 839 838
f 839 960 961
f 839 961 840
f 840 961 962
f 840 962 841
f 841 962 963
f 841 963 842
f 842 963 964
f 842 964 965
f 842 965 966
f 842 966 844
f 842 844 843
f 844 966 845
f 845 966 967
f 845 967 968
f 845 968 846
f 846 968 969
f 846 969 848
f 847 850 851
f 848 969 849
f 849 970 971
f 849 971 850
f 849 969 972
f 849 972 973
f 849 973 970
f 850 971 851
f 851 971 970
f 851 970 974
f 851 974 852
f 852 974 975
f 852 975 853
f 853 975 854
f 854 976 855
f 854 975 976
f 855 976 860
f 855 860 857
f 856 858 977
f 856 977 859
f 857 860 977
f 857 977 858
f 859 977 860
f 860 976 978
f 860 978 861
f 861 979 980
f 861 980 862
f 861 978 979
f 862 980 981
f 862 981 864
f 863 865 982
f 863 982 869
f 864 983 870
f 864 870 982
f 864 982 865
f 864 981 872
f 864 872 983
f 867 868 871
f 867 871 877
f 869 982 870
f 870 983 872
f 871 876 877
f 872 981 873
f 873 984 933
f 873 933 932
f 873 932 985
f 873 985 875
f 873 875 874
f 873 981 984
f 875 985 876
f 876 985 877
f 877 985 931
f 877 931 927
f 877 927 926
f 877 926 881
f 877 881 879
f 877 879 878
f 879 881 880
f 881 986 882
f 881 926 987
f 881 987 988
f 881 988 986
f 882 986 914
f 882 914 883
f 883 912 885
f 883 885 884
f 885 912 886
f 886 912 989
f 886 989 990
f 886 990 888
f 887 888 991
f 887 991 992
f 887 992 890
f 888 990 993
f 888 993 991
f 889 891 892
f 890 992 891
f 891 992 994
f 891 994 892
f 892 994 995
f 892 995 893
f 893 995 992
f 893 992 991
f 893 991 993
f 893 993 894
f 894 993 898
f 895 905 899
f 895 898 996
f 895 996 905
f 898 993 990
f 898 990 996
f 900 907 997
f 900 997 901
f 901 997 910
f 901 910 902
f 902 910 909
f 902 909 903
f 903 909 908
f 905 911 906
f 905 996 998
f 905 998 911
f 906 911 910
f 906 910 907
f 907 910 997
f 911 998 996
f 911 996 912
f 912 990 989
f 912 996 990
f 913 914 987
f 913 987 999
f 913 999 926
f 914 986 988
f 914 988 987
f 916 1000 917
f 916 930 929
f 916 929 1001
f 916 1001 1000
f 917 1000 1002
f 917 1002 1003
f 917 1003 918
f 918 1003 1004
f 918 1004 1005
f 918 1005 919
f 919 1005 920
f 920 1005 921
f 921 1005 1006
f 921 1006 1007
f 921 1007 1008
f 921 1008 924
f 921 924 922
f 923 924 1009
f 923 1009 940
f 924 1010 1009
f 924 1008 1011
f 924 1011 1010
f 926 999 987
f 927 931 928
f 929 935 1012
f 929 1012 1000
f 929 1000 1001
f 931 985 932
f 933 984 1013
f 933 1013 934
f 934 1013 1014
f 934 1014 1015
f 934 1015 935
f 935 1016 1012
f 935 1015 1016
f 938 948 939
f 939 1017 1018
f 939 1018 949
f 939 948 947
f 939 947 946
f 939 946 944
f 939 944 1019
f 939 1019 1020
f 939 1020 1021
f 939 1021 1022
f 939 1022 1017
f 940 1009 1010
f 940 1010 1023
f 940 1023 1024
f 940 1024 1025
f 940 1025 941
f 941 1025 944
f 941 944 942
f 942 944 943
f 944 1025 1026
f 944 1026 1024
f 944 1024 1023
f 944 1023 1027
f 944 1027 1028
f 944 1028 1029
f 944 1029 1030
f 944 1030 1019
f 944 946 945
f 949 1018 950
f 950 1018 1031
f 950 1031 1032
f 950 1032 951
f 951 1033 1034
f 951 1034 952
f 951 1032 1033
f 952 1034 958
f 952 958 957
f 952 957 955
f 952 954 953
f 956 957 958
f 958 1034 1035
f 958 1035 959
f 959 1035 960
f 960 1035 1036
f 960 1036 961
f 961 1036 1037
f 961 1037 962
f 962 1037 1038
f 962 1038 963
f 963 1038 1039
f 963 1039 1040
f 963 1040 964
f 964 1041 1042
f 964 1042 965
f 964 1040 1041
f 965 1042 1043
f 965 1043 966
f 966 1043 967
f 967 1043 968
f 968 1043 969
f 969 1043 1042
f 969 1042 1044
f 969 1044 1023
f 969 1023 972
f 970 1045 1046
f 970 1046 974
f 970 973 1047
f 970 1047 1048
f 970 1048 1045
f 972 1023 973
f 973 1023 1047
f 974 1046 975
f 975 1049 1050
f 975 1050 1003
f 975 1003 1051
f 975 1051 1052
f 975 1052 978
f 975 978 1053
f 975 1053 976
f 975 1046 1045
f 975 1045 1054
f 975 1054 1006
f 975 1006 1049
f 976 1053 978
f 978 1052 1051
f 978 1051 1055
f 978 1055 979
f 979 1055 980
f 980 1055 1056
f 980 1056 984
f 980 984 981
f 984 1056 1057
f 984 1057 1058
f 984 1058 1059
f 984 1059 1060
f 984 1060 1013
f 992 995 994
f 1000 1012 1002
f 1002 1061 1003
f 1002 1012 1061
f 1003 1061 1060
f 1003 1060 1059
f 1003 1059 1058
f 1003 1058 1062
f 1003 1062 1051
f 1003 1050 1004
f 1004 1063 1064
f 1004 1064 1065
f 1004 1065 1005
f 1004 1050 1063
f 1005 1065 1006
f 1006 1065 1064
f 1006 1064 1063
f 1006 1063 1066
f 1006 1066 1049
f 1006 1054 1007
f 1007 1011 1008
f 1007 1054 1011
f 1010 1011 1023
f 1011 1054 1067
f 1011 1067 1048
f 1011 1048 1047
f 1011 1047 1023
f 1012 1016 1061
f 1013 1060 1061
f 1013 1061 1014
f 1014 1061 1068
f 1014 1068 1016
f 1014 1016 1015
f 1016 1068 1061
f 1017 1069 1031
f 1017 1031 1018
f 1017 1022 1070
f 1017 1070 1038
f 1017 1038 1037
f 1017 1037 1069
f 1019 1030 1021
f 1019 1021 1020
f 1021 1030 1071
f 1021 1071 1041
f 1021 1041 1040
f 1021 1040 1022
f 1022 1040 1070
f 1023 1044 1028
f 1023 1028 1027
f 1024 1026 1025
f 1028 1044 1042
f 1028 1042 1072
f 1028 1072 1071
f 1028 1071 1030
f 1028 1030 1073
f 1028 1073 1029
f 1029 1073 1030
f 1031 1069 1033
f 1031 1033 1032
f 1033 1069 1034
f 1034 1069 1036
f 1034 1036 1035
f 1036 1069 1037
f 1038 1070 1039
f 1039 1070 1040
f 1041 1071 1072
f 1041 1072 1042
f 1045 1048 1067
f 1045 1067 1054
f 1049 1066 1050
f 1050 1066 1063
f 1051 1074 1057
f 1051 1057 1075
f 1051 1075 1055
f 1051 1062 1074
f 1055 1075 1057
f 1055 1057 1056
f 1057 1074 1062
f 1057 1062 1058

