# https://github.com/mikedh/trimesh
v 0.02348601 -0.00807741 -0.00047421
v 0.02964644 -0.01019938 -0.00128333
v 0.02342281 -0.00807741 -0.00084006
v 0.02346253 -0.00807741 0.00033338
v 0.03277360 -0.01124097 0.00033186
v 0.03034518 -0.01050107 -0.00209092
v 0.02949297 -0.01020780 -0.00213646
v 0.02919506 -0.01008814 -0.00189813
v 0.03399233 -0.01172470 -0.00091293
v 0.02332170 -0.00807741 -0.00128333
v 0.02325851 -0.00807741 0.00114249
v 0.03277360 -0.01128143 0.00114249
v 0.03365650 -0.01160334 0.00112883
v 0.03399594 -0.01172470 0.00084951
v 0.03358247 -0.01155110 0.00033186
v 0.03098614 -0.01082636 -0.00290003
v 0.03034518 -0.01059208 -0.00290155
v 0.03393997 -0.01174492 -0.00145335
v 0.02953630 -0.01031398 -0.00290155
v 0.02911201 -0.01011510 -0.00243855
v 0.03399774 -0.01172301 -0.00047118
v 0.03440218 -0.01191009 -0.00047118
v 0.03431551 -0.01188144 -0.00122109
v 0.02324948 -0.00807741 -0.00146245
v 0.02902715 -0.01014376 -0.00290155
v 0.02313574 -0.00807741 0.00153111
v 0.02953630 -0.01033421 0.00276072
v 0.03034518 -0.01060388 0.00276072
v 0.03397427 -0.01173312 0.00139145
v 0.03041379 -0.01062748 0.00276072
v 0.03399774 -0.01172301 0.00033186
v 0.03431732 -0.01188144 0.00112883
v 0.03440218 -0.01191178 0.00033186
v 0.03138877 -0.01098647 -0.00290003
v 0.03086336 -0.01087523 -0.00343134
v 0.02833202 -0.01010499 -0.00412357
v 0.02844216 -0.01006960 -0.00371066
v 0.03510633 -0.01238202 -0.00209092
v 0.03439135 -0.01207695 -0.00209092
v 0.03520022 -0.01230449 -0.00047118
v 0.03527244 -0.01235505 -0.00127118
v 0.03551257 -0.01257584 -0.00209092
v 0.02313574 -0.00807741 -0.00167498
v 0.02823452 -0.01000386 -0.00371218
v 0.02313574 -0.00812292 0.00194401
v 0.03088683 -0.01086681 0.00338311
v 0.02313574 -0.00820550 0.00267874
v 0.02313574 -0.00821562 0.00276223
v 0.03346873 -0.01162020 0.00195160
v 0.03387316 -0.01178200 0.00195160
v 0.03439135 -0.01202470 0.00195160
v 0.03508467 -0.01237696 0.00195160
v 0.03526161 -0.01236179 0.00109240
v 0.03520022 -0.01230786 0.00033186
v 0.03521466 -0.01265506 -0.00293343
v 0.03203514 -0.01149042 -0.00377594
v 0.03114322 -0.01108760 -0.00370459
v 0.03041379 -0.01104209 -0.00439530
v 0.03007976 -0.01086175 -0.00426930
v 0.02823452 -0.01005780 -0.00402793
v 0.03041379 -0.01109266 -0.00453040
v 0.02980894 -0.01096288 -0.00480972
v 0.02926909 -0.01087186 -0.00500706
v 0.02345712 -0.00930104 -0.00573268
v 0.02313574 -0.00904822 -0.00541086
v 0.02313574 -0.00874316 -0.00459719
v 0.02313574 -0.00871788 -0.00451826
v 0.02313574 -0.00854090 -0.00385032
v 0.02313574 -0.00845158 -0.00345260
v 0.02313574 -0.00815663 -0.00208637
v 0.03600909 -0.01300900 -0.00290003
v 0.03562090 -0.01252696 -0.00047118
v 0.03561729 -0.01253033 -0.00099186
v 0.03593687 -0.01272416 -0.00127118
v 0.03558840 -0.01254719 -0.00153228
v 0.03600909 -0.01284888 -0.00209092
v 0.02313574 -0.00834539 0.00356983
v 0.03041379 -0.01075051 0.00361841
v 0.03071711 -0.01093254 0.00392353
v 0.03331165 -0.01167076 0.00257855
v 0.03493842 -0.01246629 0.00259677
v 0.03358067 -0.01186290 0.00281385
v 0.03653269 -0.01327530 0.00256489
v 0.03600909 -0.01287753 0.00195160
v 0.03557396 -0.01255730 0.00133073
v 0.03561188 -0.01253371 0.00079183
v 0.03561910 -0.01253033 0.00033186
v 0.03404288 -0.01251179 -0.00418429
v 0.03235111 -0.01173649 -0.00409017
v 0.03115585 -0.01139098 -0.00451977
v 0.03176251 -0.01164211 -0.00451977
v 0.03157654 -0.01172132 -0.00494027
v 0.03115585 -0.01163200 -0.00510422
v 0.03041379 -0.01153256 -0.00543059
v 0.03065392 -0.01176515 -0.00568714
v 0.02313574 -0.00924036 -0.00579492
v 0.03650742 -0.01328710 -0.00290003
v 0.03642978 -0.01333766 -0.00332356
v 0.03602534 -0.01274438 -0.00047118
v 0.03676560 -0.01314889 -0.00047118
v 0.03671866 -0.01317080 -0.00128181
v 0.03712310 -0.01341013 -0.00128181
v 0.03662658 -0.01321462 -0.00209092
v 0.02313574 -0.00835719 0.00361992
v 0.02340295 -0.00851225 0.00387192
v 0.03017546 -0.01083141 0.00420740
v 0.02989019 -0.01093423 0.00475086
v 0.03041379 -0.01101176 0.00442448
v 0.03115585 -0.01131345 0.00438198
v 0.03241069 -0.01171121 0.00401917
v 0.03258221 -0.01163031 0.00357135
v 0.03315095 -0.01174155 0.00311745
v 0.03446176 -0.01229774 0.00282296
v 0.03424690 -0.01241067 0.00357135
v 0.03520744 -0.01266517 0.00282296
v 0.03661936 -0.01322305 0.00195160
v 0.03606326 -0.01310507 0.00280474
v 0.03637200 -0.01337137 0.00310379
v 0.03680894 -0.01354665 0.00280474
v 0.03745712 -0.01398150 0.00276072
v 0.03798433 -0.01419555 0.00218842
v 0.03767920 -0.01392251 0.00193035
v 0.03702379 -0.01347586 0.00195160
v 0.03593326 -0.01274607 0.00109240
v 0.03714115 -0.01339665 0.00033186
v 0.03716824 -0.01337979 -0.00047118
v 0.03381719 -0.01264157 -0.00472319
v 0.03327553 -0.01249325 -0.00498277
v 0.03356081 -0.01240898 -0.00448031
v 0.03277360 -0.01207695 -0.00451977
v 0.03172820 -0.01243426 -0.00582073
v 0.03115585 -0.01228763 -0.00593306
v 0.03041379 -0.01208706 -0.00602415
v 0.03041379 -0.01172470 -0.00573117
v 0.02633692 -0.01148368 -0.00669967
v 0.02313574 -0.00962296 -0.00605299
v 0.03011407 -0.01167413 -0.00578581
v 0.02713135 -0.01121906 -0.00630954
v 0.02761704 -0.01168762 -0.00657367
v 0.02713135 -0.01160503 -0.00662984
v 0.03703102 -0.01347418 -0.00209092
v 0.03800058 -0.01417869 -0.00236720
v 0.03733254 -0.01407419 -0.00343438
v 0.03800419 -0.01498602 -0.00408258
v 0.03709601 -0.01424779 -0.00397328
v 0.03722240 -0.01496748 -0.00492509
v 0.03617881 -0.01351631 -0.00386550
v 0.03563896 -0.01332417 -0.00415241
v 0.03892862 -0.01490343 -0.00265867
v 0.03877515 -0.01501972 -0.00319757
v 0.03762684 -0.01368823 -0.00047118
v 0.03762684 -0.01375396 -0.00128181
v 0.03806558 -0.01413319 -0.00182830
v 0.03769003 -0.01391913 -0.00209396
v 0.02313574 -0.00861506 0.00433947
v 0.02958686 -0.01111457 0.00517439
v 0.03035240 -0.01144828 0.00522752
v 0.03161987 -0.01170447 0.00482069
v 0.02313574 -0.00864035 0.00439867
v 0.02438154 -0.00925553 0.00484498
v 0.03215972 -0.01182582 0.00455959
v 0.03357886 -0.01237359 0.00437439
v 0.03408260 -0.01248988 0.00409810
v 0.03298665 -0.01181065 0.00357135
v 0.03465134 -0.01261292 0.00357135
v 0.03708338 -0.01343204 0.00114249
v 0.03579604 -0.01323822 0.00357135
v 0.03563174 -0.01333092 0.00400702
v 0.03620048 -0.01348935 0.00357135
v 0.03683421 -0.01390734 0.00356527
v 0.03731448 -0.01409273 0.00329051
v 0.03818835 -0.01484612 0.00357135
v 0.03786155 -0.01427982 0.00276072
v 0.03806377 -0.01413487 0.00164496
v 0.03846640 -0.01472814 0.00271821
v 0.03896473 -0.01487478 0.00195160
v 0.03837432 -0.01442814 0.00193035
v 0.03762684 -0.01378767 0.00114249
v 0.03762684 -0.01371520 0.00033186
v 0.03815405 -0.01406914 0.00033186
v 0.03479578 -0.01334777 -0.00492357
v 0.03425774 -0.01318260 -0.00507841
v 0.03226805 -0.01260112 -0.00567500
v 0.03277360 -0.01316069 -0.00590574
v 0.03218500 -0.01345732 -0.00646438
v 0.03164515 -0.01330732 -0.00657064
v 0.02990824 -0.01255393 -0.00653421
v 0.02633692 -0.01213257 -0.00700783
v 0.02629540 -0.01213257 -0.00701390
v 0.02313574 -0.01184773 -0.00732207
v 0.02629540 -0.01147525 -0.00670119
v 0.02713135 -0.01213089 -0.00688335
v 0.02313574 -0.01030387 -0.00647956
v 0.02936839 -0.01244269 -0.00660555
v 0.02872563 -0.01232134 -0.00667083
v 0.03837613 -0.01439780 -0.00209396
v 0.03823710 -0.01481410 -0.00354216
v 0.03811252 -0.01570064 -0.00499947
v 0.03780919 -0.01512759 -0.00451977
v 0.03754739 -0.01540569 -0.00509663
v 0.03681796 -0.01483096 -0.00504957
v 0.03574187 -0.01406745 -0.00500706
v 0.03627992 -0.01424442 -0.00480972
v 0.03520022 -0.01348261 -0.00475052
v 0.03899542 -0.01484950 -0.00209092
v 0.03940166 -0.01522872 -0.00209092
v 0.03970499 -0.01569896 -0.00262223
v 0.03925361 -0.01535850 -0.00290914
v 0.03899723 -0.01560457 -0.00371066
v 0.03885278 -0.01576637 -0.00412812
v 0.03840502 -0.01557592 -0.00444843
v 0.03815585 -0.01406240 -0.00047118
v 0.03810891 -0.01409948 -0.00128181
v 0.02872563 -0.01103535 0.00543701
v 0.03008518 -0.01165559 0.00566623
v 0.03062503 -0.01178874 0.00552657
v 0.03330442 -0.01248651 0.00485105
v 0.03384427 -0.01260955 0.00463852
v 0.02313574 -0.00906002 0.00506661
v 0.02386697 -0.00917126 0.00494061
v 0.03436607 -0.01276967 0.00437439
v 0.03540063 -0.01349103 0.00454744
v 0.03805294 -0.01495231 0.00399943
v 0.03711226 -0.01423094 0.00382941
v 0.03515869 -0.01320114 0.00431974
v 0.03486259 -0.01330226 0.00483890
v 0.03859279 -0.01514445 0.00357135
v 0.03875709 -0.01503489 0.00296110
v 0.03908750 -0.01478713 0.00114249
v 0.03851335 -0.01438263 0.00114249
v 0.03810711 -0.01410790 0.00114249
v 0.03886903 -0.01494725 0.00242068
v 0.03937097 -0.01525906 0.00195160
v 0.03949013 -0.01512759 0.00114249
v 0.03856029 -0.01435903 0.00033186
v 0.03378650 -0.01347924 -0.00562035
v 0.03324665 -0.01330564 -0.00577215
v 0.03520022 -0.01388543 -0.00516494
v 0.03283318 -0.01373542 -0.00635052
v 0.03260569 -0.01399498 -0.00662984
v 0.03314554 -0.01418375 -0.00652965
v 0.03193584 -0.01373542 -0.00669056
v 0.03115585 -0.01375059 -0.00685906
v 0.03115585 -0.01321125 -0.00662832
v 0.02633692 -0.01217639 -0.00702605
v 0.02548472 -0.01213257 -0.00712472
v 0.02313574 -0.01188650 -0.00733421
v 0.02313574 -0.01132356 -0.00705641
v 0.02500445 -0.01256741 -0.00734635
v 0.02313574 -0.01072186 -0.00671941
v 0.02872563 -0.01294495 -0.00696533
v 0.02823452 -0.01294327 -0.00704426
v 0.02791495 -0.01294327 -0.00709588
v 0.03865237 -0.01604616 -0.00466702
v 0.03884195 -0.01658550 -0.00492509
v 0.03840502 -0.01626189 -0.00508448
v 0.03761781 -0.01617762 -0.00553534
v 0.03709963 -0.01590289 -0.00567803
v 0.03622575 -0.01512085 -0.00563249
v 0.03568771 -0.01491186 -0.00577367
v 0.03598381 -0.01457983 -0.00531978
v 0.03903875 -0.01481242 -0.00128181
v 0.03948111 -0.01513939 -0.00047118
v 0.03944319 -0.01518321 -0.00128181
v 0.03975193 -0.01563322 -0.00209092
v 0.04045970 -0.01658887 -0.00167042
v 0.04061497 -0.01711809 -0.00209092
v 0.04051206 -0.01729169 -0.00262223
v 0.03984401 -0.01616919 -0.00289396
v 0.03958041 -0.01589278 -0.00316265
v 0.03940347 -0.01616919 -0.00371673
v 0.03957319 -0.01670516 -0.00399150
v 0.03896112 -0.01626189 -0.00444843
v 0.03910917 -0.01476522 0.00033186
v 0.03856029 -0.01437757 -0.00047118
v 0.02818216 -0.01095782 0.00554631
v 0.02953630 -0.01155784 0.00576794
v 0.03005268 -0.01248988 0.00643588
v 0.03059434 -0.01262135 0.00634631
v 0.03115585 -0.01232977 0.00581045
v 0.03170834 -0.01246460 0.00567079
v 0.03386955 -0.01340676 0.00553416
v 0.03358608 -0.01294327 0.00519109
v 0.03494564 -0.01407925 0.00566775
v 0.03439135 -0.01316574 0.00498160
v 0.02313574 -0.00985892 0.00600324
v 0.02386697 -0.00951003 0.00534745
v 0.02511639 -0.01009656 0.00560855
v 0.03894126 -0.01567873 0.00408444
v 0.03632867 -0.01421577 0.00469317
v 0.03725671 -0.01494388 0.00481462
v 0.03548549 -0.01421914 0.00551291
v 0.03578882 -0.01403037 0.00497249
v 0.03906403 -0.01555064 0.00357135
v 0.03951541 -0.01510063 0.00033186
v 0.03966527 -0.01575795 0.00239942
v 0.03973027 -0.01566356 0.00195160
v 0.03982054 -0.01553210 0.00114249
v 0.03984763 -0.01550682 0.00033186
v 0.03473981 -0.01419723 -0.00570232
v 0.03419996 -0.01401858 -0.00585109
v 0.03520022 -0.01434892 -0.00557025
v 0.03358247 -0.01476691 -0.00663895
v 0.03439135 -0.01618268 -0.00696988
v 0.03358247 -0.01537030 -0.00688943
v 0.03283318 -0.01449724 -0.00676191
v 0.03655978 -0.01566188 -0.00579948
v 0.03455384 -0.01516636 -0.00643553
v 0.03401580 -0.01494557 -0.00655546
v 0.03432815 -0.01541075 -0.00665868
v 0.03196653 -0.01456297 -0.00698506
v 0.03041379 -0.01375059 -0.00699569
v 0.02712954 -0.01299383 -0.00722643
v 0.02739135 -0.01340171 -0.00734180
v 0.02446460 -0.01248314 -0.00737368
v 0.02313574 -0.01225055 -0.00742226
v 0.02712954 -0.01335283 -0.00735698
v 0.02685150 -0.01329889 -0.00737216
v 0.02946950 -0.01382475 -0.00718392
v 0.02823452 -0.01322473 -0.00715508
v 0.03974291 -0.01724450 -0.00425715
v 0.03954249 -0.01757148 -0.00479606
v 0.03970499 -0.01810913 -0.00496608
v 0.03896112 -0.01698832 -0.00501162
v 0.03837071 -0.01704393 -0.00543515
v 0.03788142 -0.01681134 -0.00565678
v 0.03734337 -0.01644560 -0.00579341
v 0.03572021 -0.01647257 -0.00660252
v 0.03907667 -0.01478208 -0.00047118
v 0.03982415 -0.01554558 -0.00047118
v 0.03978985 -0.01558772 -0.00128181
v 0.04024665 -0.01624335 -0.00135164
v 0.04048136 -0.01655516 -0.00112849
v 0.04067455 -0.01690910 -0.00135164
v 0.04103746 -0.01779732 -0.00128181
v 0.04085511 -0.01779732 -0.00209092
v 0.04052289 -0.01805014 -0.00349358
v 0.04040373 -0.01751249 -0.00316265
v 0.04026290 -0.01700854 -0.00289396
v 0.04030081 -0.01778553 -0.00374254
v 0.03973027 -0.01643381 -0.00345260
v 0.02324768 -0.01017578 0.00633265
v 0.02823452 -0.01174998 0.00637060
v 0.02953630 -0.01200279 0.00617174
v 0.02521028 -0.01087861 0.00644195
v 0.02953630 -0.01294495 0.00673493
v 0.03033254 -0.01290956 0.00656795
v 0.03115585 -0.01375059 0.00677592
v 0.03115585 -0.01318091 0.00649508
v 0.02823452 -0.01177357 0.00638882
v 0.02770190 -0.01166908 0.00645106
v 0.02313574 -0.01122244 0.00707497
v 0.02313574 -0.01162357 0.00726472
v 0.03162890 -0.01331238 0.00642525
v 0.03217056 -0.01345901 0.00633113
v 0.03332970 -0.01327024 0.00567079
v 0.03520744 -0.01451746 0.00588483
v 0.03600909 -0.01480567 0.00572240
v 0.02313574 -0.01002577 0.00619603
v 0.03949736 -0.01616751 0.00363207
v 0.03642256 -0.01495905 0.00560248
v 0.03809988 -0.01571075 0.00483890
v 0.03863973 -0.01599222 0.00462334
v 0.03966166 -0.01737765 0.00479792
v 0.03963819 -0.01660909 0.00394478
v 0.03603617 -0.01438769 0.00521993
v 0.03958041 -0.01588941 0.00293984
v 0.03981874 -0.01616751 0.00270607
v 0.04004804 -0.01618268 0.00195160
v 0.04044345 -0.01662089 0.00129733
v 0.04026109 -0.01626021 0.00107418
v 0.04025026 -0.01615065 0.00033186
v 0.04049400 -0.01653493 -0.00047118
v 0.03439135 -0.01698832 -0.00717330
v 0.03358247 -0.01618268 -0.00715508
v 0.03516953 -0.01619447 -0.00670271
v 0.03520022 -0.01698832 -0.00697292
v 0.03277360 -0.01537030 -0.00707311
v 0.03542049 -0.01593323 -0.00645982
v 0.03488064 -0.01570738 -0.00658278
v 0.02915714 -0.01414498 -0.00735850
v 0.02823452 -0.01357025 -0.00728260
v 0.02471195 -0.01287922 -0.00744351
v 0.02313574 -0.01230617 -0.00743440
v 0.02386697 -0.01294158 -0.00751941
v 0.02629540 -0.01375059 -0.00751182
v 0.02872563 -0.01406914 -0.00738127
v 0.02823452 -0.01397475 -0.00740252
v 0.02791495 -0.01391576 -0.00741618
v 0.04043081 -0.01836195 -0.00403400
v 0.03988374 -0.01782261 -0.00452433
v 0.04023762 -0.01862150 -0.00446816
v 0.03979888 -0.01860465 -0.00503591
v 0.03888348 -0.01892320 -0.00576456
v 0.03874265 -0.01838217 -0.00567196
v 0.03858376 -0.01779732 -0.00557329
v 0.03805655 -0.01734900 -0.00574938
v 0.03763225 -0.01855577 -0.00639303
v 0.03718268 -0.01825408 -0.00652510
v 0.03676019 -0.01703888 -0.00630195
v 0.03626006 -0.01680123 -0.00646589
v 0.03599645 -0.01703888 -0.00667538
v 0.04074858 -0.01698832 -0.00047118
v 0.04108260 -0.01779732 -0.00047118
v 0.04123426 -0.01847150 -0.00047118
v 0.04127218 -0.01897882 -0.00089167
v 0.04117107 -0.01866532 -0.00120894
v 0.04096524 -0.01860465 -0.00209092
v 0.04077205 -0.01860465 -0.00290003
v 0.04055720 -0.01862150 -0.00374254
v 0.02313574 -0.01031230 0.00647231
v 0.02467765 -0.01079602 0.00651026
v 0.02872563 -0.01294495 0.00687155
v 0.03041379 -0.01375228 0.00691558
v 0.03196653 -0.01456297 0.00693076
v 0.03277360 -0.01456297 0.00674252
v 0.03192681 -0.01373879 0.00656946
v 0.02386697 -0.01067298 0.00659527
v 0.02313574 -0.01114996 0.00703398
v 0.02313574 -0.01212920 0.00740135
v 0.02467765 -0.01234999 0.00728901
v 0.02527708 -0.01245786 0.00724954
v 0.03277360 -0.01403543 0.00647383
v 0.03318706 -0.01415172 0.00640855
v 0.03372872 -0.01431016 0.00631595
v 0.03520022 -0.01517984 0.00630381
v 0.03596034 -0.01543097 0.00613682
v 0.03442565 -0.01457308 0.00621880
v 0.03619867 -0.01591975 0.00632658
v 0.03710324 -0.01667482 0.00634328
v 0.03974652 -0.01643044 0.00340436
v 0.03770989 -0.01690404 0.00606699
v 0.03741559 -0.01618268 0.00575276
v 0.03782364 -0.01618268 0.00542638
v 0.03889070 -0.01653156 0.00482524
v 0.03802225 -0.01659729 0.00558578
v 0.03977180 -0.01779732 0.00493758
v 0.04006790 -0.01779732 0.00438198
v 0.03975555 -0.01719562 0.00438198
v 0.03919583 -0.01706079 0.00496338
v 0.03880765 -0.01744001 0.00556604
v 0.03926805 -0.01774339 0.00537477
v 0.04035498 -0.01775182 0.00364573
v 0.04042900 -0.01745350 0.00307495
v 0.04037484 -0.01673550 0.00195160
v 0.04052470 -0.01728832 0.00253605
v 0.04047775 -0.01655516 0.00033186
v 0.04059872 -0.01713832 0.00195160
v 0.04095260 -0.01779732 0.00195160
v 0.04061858 -0.01692932 0.00107418
v 0.04070344 -0.01698832 0.00033186
v 0.03520022 -0.01779732 -0.00709436
v 0.03334775 -0.01718888 -0.00738582
v 0.03360414 -0.01694618 -0.00730537
v 0.03311665 -0.01664786 -0.00734484
v 0.03257680 -0.01645235 -0.00738734
v 0.03281693 -0.01618268 -0.00728108
v 0.03215972 -0.01591132 -0.00732055
v 0.03041379 -0.01495062 -0.00736002
v 0.03736323 -0.01879510 -0.00661618
v 0.03600909 -0.01779732 -0.00687273
v 0.03012129 -0.01485961 -0.00738279
v 0.02946950 -0.01457983 -0.00740404
v 0.02872563 -0.01456297 -0.00746780
v 0.02313574 -0.01294158 -0.00757254
v 0.02386697 -0.01375059 -0.00768184
v 0.02823452 -0.01456129 -0.00750575
v 0.02791495 -0.01456129 -0.00753004
v 0.04047956 -0.01890129 -0.00416455
v 0.04026290 -0.01941366 -0.00462907
v 0.03986026 -0.01941366 -0.00507993
v 0.03845918 -0.01863330 -0.00593458
v 0.03931139 -0.01941366 -0.00548524
v 0.03890695 -0.01941366 -0.00577974
v 0.03843751 -0.01941366 -0.00610157
v 0.03787780 -0.01941366 -0.00645982
v 0.03661394 -0.01779732 -0.00663895
v 0.03645144 -0.01734057 -0.00656305
v 0.04103566 -0.01779732 0.00114249
v 0.04106094 -0.01779732 0.00033186
v 0.04124510 -0.01834172 0.00114249
v 0.04123968 -0.01837374 0.00033186
v 0.04142565 -0.01941366 0.00033186
v 0.04155384 -0.02022435 0.00033186
v 0.04144912 -0.02022435 -0.00047118
v 0.04131732 -0.02022435 -0.00108295
v 0.04073955 -0.02022435 -0.00371066
v 0.02313574 -0.01050275 0.00662563
v 0.02823452 -0.01298203 0.00696871
v 0.03115585 -0.01456297 0.00705827
v 0.02755745 -0.01332923 0.00722222
v 0.03277360 -0.01537030 0.00704005
v 0.03358247 -0.01537030 0.00685637
v 0.03442565 -0.01532310 0.00660590
v 0.03418010 -0.01485118 0.00646472
v 0.03350845 -0.01457308 0.00653151
v 0.02313574 -0.01294158 0.00753190
v 0.02386697 -0.01294158 0.00747573
v 0.02467765 -0.01294158 0.00741045
v 0.02786259 -0.01301237 0.00704309
v 0.03471995 -0.01501804 0.00637971
v 0.03520022 -0.01558435 0.00649508
v 0.03565882 -0.01574109 0.00642070
v 0.03656158 -0.01645909 0.00646320
v 0.03739573 -0.01721248 0.00649963
v 0.03793378 -0.01757316 0.00633113
v 0.03826780 -0.01713495 0.00579071
v 0.03992346 -0.01860465 0.00511215
v 0.04035137 -0.01853218 0.00439108
v 0.04045609 -0.01821531 0.00396603
v 0.03955513 -0.01860465 0.00551747
v 0.03901167 -0.01797598 0.00571177
v 0.04056622 -0.01799115 0.00342410
v 0.04069261 -0.01775182 0.00278804
v 0.04103746 -0.01860465 0.00276072
v 0.04122885 -0.01857263 0.00202599
v 0.03439135 -0.01779732 -0.00724161
v 0.03600909 -0.01860465 -0.00698658
v 0.03345609 -0.01779732 -0.00740100
v 0.03277360 -0.01779732 -0.00747842
v 0.03196653 -0.01698832 -0.00752700
v 0.03281693 -0.01694618 -0.00742833
v 0.03386052 -0.01779732 -0.00733269
v 0.03115585 -0.01618268 -0.00750575
v 0.03191959 -0.01618268 -0.00741922
v 0.03747156 -0.01941366 -0.00665717
v 0.03681796 -0.01941366 -0.00685451
v 0.03687394 -0.01855577 -0.00673307
v 0.02953630 -0.01537030 -0.00752396
v 0.02313574 -0.01375059 -0.00773042
v 0.02713135 -0.01456129 -0.00758468
v 0.02633692 -0.01456129 -0.00763933
v 0.04051025 -0.01941366 -0.00422679
v 0.04055539 -0.02022435 -0.00428144
v 0.04024484 -0.02022435 -0.00468676
v 0.03984040 -0.02022435 -0.00506323
v 0.03888709 -0.02004570 -0.00576760
v 0.03851335 -0.02027829 -0.00599530
v 0.03741379 -0.02006424 -0.00662377
v 0.04130468 -0.01882544 0.00180739
v 0.04131913 -0.01874623 0.00114249
v 0.04153037 -0.02022435 0.00114249
v 0.04158092 -0.02103336 0.00033186
v 0.04142384 -0.01941366 0.00114249
v 0.04146898 -0.02103336 -0.00047118
v 0.04093274 -0.02103336 -0.00290003
v 0.04073053 -0.02103336 -0.00371066
v 0.03202973 -0.01539052 0.00715846
v 0.03196653 -0.01698832 0.00746055
v 0.03277360 -0.01698832 0.00738768
v 0.03234208 -0.01578828 0.00721159
v 0.03277360 -0.01594672 0.00717819
v 0.03354275 -0.01622818 0.00710685
v 0.03520022 -0.01698832 0.00697781
v 0.03439135 -0.01618268 0.00692772
v 0.03600909 -0.01698832 0.00680931
v 0.03520022 -0.01618268 0.00673493
v 0.03596034 -0.01618773 0.00653303
v 0.02313574 -0.01375059 0.00762601
v 0.03682699 -0.01696135 0.00658616
v 0.03681796 -0.01779732 0.00685030
v 0.03765031 -0.01782429 0.00656491
v 0.03807641 -0.01811082 0.00643132
v 0.03961110 -0.01941366 0.00555542
v 0.03997582 -0.01941366 0.00515162
v 0.04038206 -0.01941366 0.00465067
v 0.04061136 -0.01941366 0.00424687
v 0.04052831 -0.01875465 0.00413150
v 0.04067094 -0.01853218 0.00364573
v 0.03914889 -0.01860465 0.00580741
v 0.03864515 -0.01941366 0.00629166
v 0.03920667 -0.01941366 0.00588938
v 0.04119996 -0.01934287 0.00274402
v 0.04127038 -0.01902601 0.00234629
v 0.04092733 -0.01941366 0.00357135
v 0.03520022 -0.01860465 -0.00713079
v 0.03600909 -0.01941366 -0.00700783
v 0.03345067 -0.01860465 -0.00739038
v 0.03439135 -0.01860465 -0.00725831
v 0.03439135 -0.01941366 -0.00725527
v 0.03385511 -0.01860465 -0.00733725
v 0.03334053 -0.01927040 -0.00737216
v 0.03277360 -0.01860465 -0.00744199
v 0.03196653 -0.01779732 -0.00752700
v 0.03115585 -0.01698832 -0.00757406
v 0.03041379 -0.01625009 -0.00756647
v 0.03041379 -0.01618268 -0.00756040
v 0.03687394 -0.02029009 -0.00669664
v 0.03600909 -0.02022435 -0.00688184
v 0.02872563 -0.01537030 -0.00758013
v 0.02313574 -0.01382981 -0.00773952
v 0.02548472 -0.01456129 -0.00769398
v 0.04053914 -0.02103336 -0.00423894
v 0.04017442 -0.02103336 -0.00464122
v 0.03976818 -0.02103336 -0.00500858
v 0.03883293 -0.02058504 -0.00572813
v 0.03834363 -0.02103336 -0.00592092
v 0.03766114 -0.02029009 -0.00645375
v 0.03874987 -0.02103336 -0.00567955
v 0.03718268 -0.02060358 -0.00653421
v 0.03762684 -0.02103336 -0.00624122
v 0.04142023 -0.02022435 0.00195160
v 0.04151954 -0.02103336 0.00114249
v 0.04140940 -0.02183563 0.00033186
v 0.04136246 -0.02176484 -0.00047118
v 0.04130107 -0.02160473 -0.00101160
v 0.04101580 -0.02184406 -0.00209092
v 0.04080455 -0.02184406 -0.00290003
v 0.04048678 -0.02148338 -0.00415393
v 0.03115585 -0.01698832 0.00750305
v 0.03277360 -0.01779732 0.00745296
v 0.03358247 -0.01779732 0.00739376
v 0.03438954 -0.01779227 0.00728901
v 0.03354275 -0.01700517 0.00727838
v 0.03324665 -0.01652988 0.00722677
v 0.03438954 -0.01700517 0.00712810
v 0.03411871 -0.01728832 0.00723740
v 0.03600909 -0.01779732 0.00700362
v 0.02313574 -0.01456129 0.00769433
v 0.02386697 -0.01456129 0.00766093
v 0.03681796 -0.01860465 0.00697326
v 0.03762684 -0.01860465 0.00669698
v 0.03601992 -0.01859454 0.00714935
v 0.03814502 -0.01860465 0.00646927
v 0.03854946 -0.01860465 0.00621424
v 0.03997582 -0.02022435 0.00513492
v 0.04038206 -0.02022435 0.00469469
v 0.03919222 -0.02022435 0.00591064
v 0.03959666 -0.02022435 0.00553872
v 0.04070344 -0.02022435 0.00428938
v 0.04108080 -0.02022435 0.00357135
v 0.03859279 -0.02022435 0.00631595
v 0.03824071 -0.01941366 0.00650115
v 0.04124510 -0.02022435 0.00300967
v 0.04129024 -0.01956703 0.00246470
v 0.03520022 -0.02022435 -0.00702757
v 0.03520022 -0.01941366 -0.00713383
v 0.03359872 -0.01948782 -0.00733876
v 0.03439135 -0.02022435 -0.00714749
v 0.03277360 -0.01936310 -0.00738734
v 0.03277360 -0.01976760 -0.00734787
v 0.03196653 -0.01860465 -0.00747235
v 0.03041379 -0.01779732 -0.00757709
v 0.03041379 -0.01706079 -0.00760290
v 0.03041379 -0.01698832 -0.00760442
v 0.02823452 -0.01618099 -0.00766666
v 0.02872563 -0.01618268 -0.00764389
v 0.02629540 -0.01537198 -0.00771220
v 0.02713135 -0.01537030 -0.00767121
v 0.03034518 -0.01618268 -0.00756495
v 0.03664463 -0.02078223 -0.00659189
v 0.03597840 -0.02104516 -0.00664199
v 0.03520022 -0.02103336 -0.00679227
v 0.02791495 -0.01537030 -0.00763023
v 0.02467765 -0.01456129 -0.00773649
v 0.02386697 -0.01456129 -0.00777596
v 0.02313574 -0.01456129 -0.00780632
v 0.03968874 -0.02151371 -0.00495090
v 0.03924639 -0.02103336 -0.00535773
v 0.03927708 -0.02180698 -0.00514672
v 0.03844835 -0.02189631 -0.00560972
v 0.03818835 -0.02166203 -0.00581466
v 0.03683602 -0.02268172 -0.00589511
v 0.03681796 -0.02184406 -0.00619417
v 0.03597840 -0.02179181 -0.00640821
v 0.03767739 -0.02189631 -0.00592244
v 0.03798072 -0.02220306 -0.00571750
v 0.04131190 -0.02022435 0.00260739
v 0.04130649 -0.02079066 0.00258311
v 0.04130468 -0.02152046 0.00169202
v 0.04136426 -0.02169406 0.00114249
v 0.04126857 -0.02224182 0.00033186
v 0.04109343 -0.02265307 -0.00047118
v 0.04125593 -0.02217103 -0.00047118
v 0.04101219 -0.02265307 -0.00128181
v 0.04119454 -0.02186260 -0.00128333
v 0.04083163 -0.02265307 -0.00209092
v 0.04056622 -0.02178844 -0.00366057
v 0.04049220 -0.02230081 -0.00335696
v 0.04030623 -0.02202103 -0.00389586
v 0.03976638 -0.02241711 -0.00427689
v 0.03956597 -0.02205305 -0.00481883
v 0.04058067 -0.02260251 -0.00285449
v 0.03034518 -0.01698832 0.00754100
v 0.03358247 -0.01860465 0.00736491
v 0.03575993 -0.01914736 0.00724043
v 0.03575993 -0.01885746 0.00724043
v 0.03196653 -0.01779732 0.00748180
v 0.03494745 -0.01805688 0.00724195
v 0.03465856 -0.01752091 0.00718882
v 0.03548730 -0.01831644 0.00719338
v 0.02313574 -0.01537198 0.00770040
v 0.02386697 -0.01537198 0.00769433
v 0.02713135 -0.01618099 0.00762146
v 0.03681796 -0.01941366 0.00699907
v 0.03762684 -0.01941366 0.00673948
v 0.04065289 -0.02103336 0.00418767
v 0.03905139 -0.02103336 0.00578616
v 0.03945583 -0.02103336 0.00540210
v 0.04026290 -0.02103336 0.00459146
v 0.04098510 -0.02103336 0.00357135
v 0.03818835 -0.02022435 0.00646320
v 0.03807099 -0.02065583 0.00641462
v 0.03837974 -0.02096763 0.00618388
v 0.03439135 -0.02103336 -0.00686969
v 0.03358247 -0.02022435 -0.00718696
v 0.03115585 -0.01860465 -0.00749664
v 0.03277360 -0.02022435 -0.00715964
v 0.03196653 -0.01971535 -0.00733573
v 0.02663844 -0.01901590 -0.00735850
v 0.02713135 -0.01861982 -0.00746324
v 0.02791495 -0.01860465 -0.00748753
v 0.02823452 -0.01860465 -0.00749512
v 0.02872563 -0.01860465 -0.00750575
v 0.02629540 -0.01779564 -0.00762112
v 0.02710427 -0.01779564 -0.00762719
v 0.02791495 -0.01779564 -0.00762871
v 0.02823452 -0.01779564 -0.00762719
v 0.02872563 -0.01779395 -0.00762112
v 0.02953630 -0.01779395 -0.00760442
v 0.02953630 -0.01698832 -0.00763174
v 0.02791495 -0.01618099 -0.00767729
v 0.02548472 -0.01537198 -0.00774560
v 0.03568590 -0.02149012 -0.00656001
v 0.03520022 -0.02157270 -0.00660404
v 0.02313574 -0.01464050 -0.00780784
v 0.03902792 -0.02247947 -0.00506778
v 0.03744087 -0.02243059 -0.00580100
v 0.03711949 -0.02296993 -0.00569170
v 0.03657964 -0.02312499 -0.00578581
v 0.03600909 -0.02265307 -0.00609398
v 0.03767739 -0.02268172 -0.00560820
v 0.03848626 -0.02271037 -0.00523477
v 0.04119996 -0.02104685 0.00281537
v 0.04124329 -0.02133000 0.00223092
v 0.04092913 -0.02184406 0.00276072
v 0.04101219 -0.02265307 0.00114249
v 0.04111691 -0.02265307 0.00033186
v 0.04080275 -0.02346208 0.00033186
v 0.04067817 -0.02336938 -0.00128181
v 0.04059331 -0.02322106 -0.00209092
v 0.04049942 -0.02310308 -0.00255392
v 0.04030623 -0.02284015 -0.00309434
v 0.03955874 -0.02295645 -0.00400820
v 0.03929153 -0.02271880 -0.00457898
v 0.02953630 -0.01698832 0.00756833
v 0.03115585 -0.01779732 0.00749091
v 0.03041379 -0.01779732 0.00749546
v 0.02823452 -0.01779564 0.00750609
v 0.03277360 -0.01860465 0.00736643
v 0.03277360 -0.01925860 0.00725865
v 0.03439135 -0.01924006 0.00725865
v 0.03520022 -0.01922658 0.00725561
v 0.03600909 -0.02022435 0.00699451
v 0.03601992 -0.01941534 0.00715998
v 0.03520022 -0.01963108 0.00717819
v 0.02872563 -0.01698832 0.00758503
v 0.02313574 -0.01617762 0.00766397
v 0.02386697 -0.01617762 0.00766397
v 0.02633692 -0.01617762 0.00764119
v 0.03681796 -0.02022435 0.00685334
v 0.03762684 -0.02022435 0.00663626
v 0.04052831 -0.02157102 0.00404497
v 0.03844835 -0.02182046 0.00579830
v 0.03818655 -0.02243228 0.00569052
v 0.03890153 -0.02153731 0.00565105
v 0.03982054 -0.02265307 0.00413302
v 0.04004984 -0.02182889 0.00437287
v 0.04065289 -0.02184237 0.00358197
v 0.04052831 -0.02241711 0.00331783
v 0.03661936 -0.02163001 0.00646320
v 0.03627811 -0.02217103 0.00637667
v 0.03762684 -0.02184406 0.00612012
v 0.03520022 -0.02197889 -0.00643857
v 0.03439135 -0.02159461 -0.00662377
v 0.03196653 -0.02022435 -0.00711561
v 0.03115585 -0.01967153 -0.00731599
v 0.03358247 -0.02103336 -0.00683629
v 0.02609679 -0.01897207 -0.00734332
v 0.02386697 -0.01779564 -0.00754673
v 0.02467765 -0.01779564 -0.00758013
v 0.02548472 -0.01779564 -0.00760442
v 0.02633692 -0.01783778 -0.00761353
v 0.02313574 -0.01706416 -0.00768791
v 0.02313574 -0.01698663 -0.00770157
v 0.02386697 -0.01698663 -0.00770916
v 0.02548472 -0.01698663 -0.00771827
v 0.02629540 -0.01698663 -0.00771524
v 0.02713135 -0.01698663 -0.00769854
v 0.02823452 -0.01698663 -0.00766970
v 0.02713135 -0.01618099 -0.00770157
v 0.02467765 -0.01537198 -0.00776989
v 0.02386697 -0.01537198 -0.00778810
v 0.02313574 -0.01537198 -0.00780176
v 0.03878779 -0.02301881 -0.00487651
v 0.03824794 -0.02317050 -0.00504046
v 0.03762684 -0.02330702 -0.00518164
v 0.03683421 -0.02347051 -0.00533648
v 0.03655075 -0.02391209 -0.00498277
v 0.03600909 -0.02317218 -0.00583287
v 0.03520022 -0.02265307 -0.00611067
v 0.04040553 -0.02295645 0.00300967
v 0.04059872 -0.02267161 0.00274857
v 0.04066914 -0.02351601 0.00118651
v 0.04053553 -0.02394917 0.00094818
v 0.04054997 -0.02396097 0.00033186
v 0.04050303 -0.02390872 -0.00025106
v 0.04042359 -0.02383962 -0.00078997
v 0.04030262 -0.02377389 -0.00128181
v 0.04003359 -0.02365422 -0.00210155
v 0.04004443 -0.02328342 -0.00285449
v 0.03976457 -0.02315533 -0.00347081
v 0.02823452 -0.01698832 0.00758958
v 0.02633692 -0.01698663 0.00760173
v 0.02467765 -0.01698663 0.00760780
v 0.02713135 -0.01779564 0.00750761
v 0.03041379 -0.01926197 0.00725865
v 0.03041379 -0.01966816 0.00718882
v 0.03196653 -0.01966985 0.00718730
v 0.03277360 -0.01966479 0.00718578
v 0.03573646 -0.02227890 0.00642677
v 0.03600909 -0.02103336 0.00676225
v 0.03520022 -0.02022435 0.00703398
v 0.03520022 -0.02103336 0.00682146
v 0.03439135 -0.02022435 0.00704157
v 0.03277360 -0.02022435 0.00705372
v 0.02313574 -0.01698663 0.00757592
v 0.02386697 -0.01698663 0.00759565
v 0.03600909 -0.02187777 0.00651633
v 0.04038567 -0.02211204 0.00385825
v 0.03827502 -0.02315364 0.00496794
v 0.03881487 -0.02303903 0.00476604
v 0.03872640 -0.02207496 0.00549621
v 0.03762684 -0.02256037 0.00578768
v 0.03762684 -0.02296656 0.00549925
v 0.03968152 -0.02307948 0.00400399
v 0.04023942 -0.02267161 0.00358197
v 0.03439135 -0.02200081 -0.00642035
v 0.02633692 -0.01933781 -0.00716115
v 0.02548472 -0.01941534 -0.00703364
v 0.02548472 -0.01889960 -0.00731903
v 0.02313574 -0.01822711 -0.00736912
v 0.02386697 -0.01830633 -0.00739948
v 0.02313574 -0.01785800 -0.00748450
v 0.02313574 -0.01625684 -0.00778203
v 0.02313574 -0.01617762 -0.00778810
v 0.02386697 -0.01617762 -0.00777596
v 0.02633692 -0.01617762 -0.00772434
v 0.03901709 -0.02317387 -0.00433609
v 0.03804572 -0.02387670 -0.00412964
v 0.03762684 -0.02399973 -0.00428448
v 0.03762684 -0.02371321 -0.00468979
v 0.03708879 -0.02381602 -0.00486740
v 0.03681977 -0.02413120 -0.00456683
v 0.03687935 -0.02458626 -0.00371825
v 0.03594590 -0.02412445 -0.00459719
v 0.03617159 -0.02391209 -0.00498277
v 0.03520022 -0.02313679 -0.00581162
v 0.02809189 -0.02067268 -0.00657216
v 0.03358247 -0.02193170 -0.00638240
v 0.03983499 -0.02320758 0.00357135
v 0.04042539 -0.02382108 0.00148709
v 0.04049039 -0.02311151 0.00247077
v 0.04011665 -0.02416491 0.00118651
v 0.03950097 -0.02458121 0.00114249
v 0.04005707 -0.02428963 0.00033186
v 0.04011484 -0.02407558 -0.00050154
v 0.03989999 -0.02398962 -0.00128181
v 0.03974832 -0.02391041 -0.00184196
v 0.03958222 -0.02383119 -0.00238238
v 0.03928611 -0.02373680 -0.00296683
v 0.03926986 -0.02334241 -0.00372736
v 0.02633692 -0.01779564 0.00750609
v 0.02710427 -0.01779564 0.00750761
v 0.03034518 -0.01926197 0.00725865
v 0.03034518 -0.01966816 0.00718882
v 0.03196653 -0.02022435 0.00705675
v 0.03439135 -0.02103336 0.00682753
v 0.03541508 -0.02227890 0.00642677
v 0.03572924 -0.02306600 0.00560399
v 0.03626909 -0.02304578 0.00558122
v 0.03681796 -0.02302218 0.00555390
v 0.02313574 -0.01779564 0.00739527
v 0.02386697 -0.01779564 0.00743626
v 0.02467765 -0.01779564 0.00746966
v 0.02548472 -0.01779564 0.00749243
v 0.03762684 -0.02323623 0.00509393
v 0.03785072 -0.02383793 0.00391898
v 0.03843751 -0.02460143 0.00222485
v 0.03894667 -0.02474301 0.00166166
v 0.03890514 -0.02389524 0.00321461
v 0.03920306 -0.02358680 0.00351822
v 0.03924639 -0.02318061 0.00418463
v 0.03520022 -0.02382108 0.00471139
v 0.03971582 -0.02390872 0.00244041
v 0.03944319 -0.02377557 0.00298235
v 0.02872563 -0.02072661 -0.00660404
v 0.02633692 -0.02011817 -0.00670423
v 0.02349323 -0.01981311 -0.00654180
v 0.02467765 -0.01941534 -0.00693345
v 0.02823452 -0.02068448 -0.00657975
v 0.02313574 -0.01937826 -0.00676039
v 0.02313574 -0.01857263 -0.00720214
v 0.03863612 -0.02374523 -0.00371066
v 0.03823349 -0.02397445 -0.00371066
v 0.03762684 -0.02429974 -0.00371066
v 0.03882390 -0.02385647 -0.00328106
v 0.03719351 -0.02467054 -0.00327954
v 0.03665186 -0.02472616 -0.00345411
v 0.03563354 -0.02386153 -0.00491598
v 0.03620409 -0.02472616 -0.00345411
v 0.03596395 -0.02457278 -0.00371825
v 0.03520022 -0.02405535 -0.00443932
v 0.03221389 -0.02309128 -0.00497367
v 0.03520022 -0.02381602 -0.00484463
v 0.03520022 -0.02349073 -0.00533040
v 0.03470190 -0.02307948 -0.00575849
v 0.02313574 -0.01977940 -0.00651295
v 0.02712954 -0.02057998 -0.00650992
v 0.02755384 -0.02062212 -0.00653876
v 0.03987471 -0.02401996 0.00195160
v 0.03909653 -0.02482054 0.00114249
v 0.03950097 -0.02459975 0.00033186
v 0.03909653 -0.02480874 0.00033186
v 0.03894667 -0.02472616 -0.00024651
v 0.03924639 -0.02429974 -0.00128181
v 0.03863251 -0.02458289 -0.00128181
v 0.03928611 -0.02405030 -0.00210155
v 0.02953630 -0.01966647 0.00718730
v 0.02953630 -0.01926028 0.00725865
v 0.03115585 -0.02022435 0.00704764
v 0.03358247 -0.02103336 0.00682297
v 0.03544216 -0.02306600 0.00560399
v 0.02872563 -0.01963445 0.00717516
v 0.02823452 -0.01960074 0.00715694
v 0.02791495 -0.01957883 0.00714480
v 0.02872563 -0.02022435 0.00689736
v 0.02823452 -0.02022435 0.00684878
v 0.02791495 -0.02022435 0.00681690
v 0.02712954 -0.02022435 0.00673189
v 0.02548472 -0.02012323 0.00660438
v 0.02467765 -0.02004064 0.00656036
v 0.02386697 -0.01995974 0.00651330
v 0.03487703 -0.02222665 0.00639185
v 0.03439135 -0.02260756 0.00594707
v 0.03439135 -0.02301207 0.00555086
v 0.03490411 -0.02304915 0.00558730
v 0.02313574 -0.01825071 0.00726776
v 0.02548472 -0.01896028 0.00720248
v 0.02467765 -0.01847656 0.00729205
v 0.02592346 -0.01900241 0.00721463
v 0.02713135 -0.01910860 0.00724651
v 0.02791495 -0.01917433 0.00725713
v 0.03600909 -0.02377051 0.00460665
v 0.03681796 -0.02370647 0.00448368
v 0.03759975 -0.02366770 0.00431518
v 0.03795544 -0.02466548 0.00233263
v 0.03843751 -0.02482054 0.00181954
v 0.03843751 -0.02505482 0.00114249
v 0.03518397 -0.02335084 0.00526699
v 0.03439135 -0.02381771 0.00469773
v 0.03520022 -0.02404355 0.00430607
v 0.02313574 -0.01944737 -0.00672092
v 0.03681796 -0.02503965 -0.00209092
v 0.03687935 -0.02481886 -0.00296531
v 0.03808002 -0.02469919 -0.00176303
v 0.03822807 -0.02476155 -0.00128181
v 0.03848446 -0.02485594 -0.00049850
v 0.03843751 -0.02506324 0.00033186
v 0.03762684 -0.02497560 -0.00128181
v 0.03600909 -0.02509190 -0.00209092
v 0.03596395 -0.02483065 -0.00295620
v 0.03520022 -0.02474638 -0.00269358
v 0.02386697 -0.02177496 -0.00371218
v 0.02331268 -0.02147495 -0.00419795
v 0.03387136 -0.02389692 -0.00417214
v 0.03439135 -0.02396097 -0.00428448
v 0.03167404 -0.02303061 -0.00487499
v 0.02445015 -0.02140079 -0.00485830
v 0.02499000 -0.02145978 -0.00495393
v 0.02313574 -0.02084628 -0.00522870
v 0.02313574 -0.02054964 -0.00562946
v 0.02413960 -0.02065920 -0.00577519
v 0.02313574 -0.02020244 -0.00604084
v 0.02313574 -0.02014514 -0.00610612
v 0.03878598 -0.02465031 -0.00078541
v 0.02467765 -0.01888106 0.00717668
v 0.02386697 -0.01879510 0.00714328
v 0.02712954 -0.01951310 0.00710381
v 0.02467765 -0.01941534 0.00692468
v 0.02386697 -0.01941534 0.00684726
v 0.02313574 -0.01941534 0.00675315
v 0.02313574 -0.01988221 0.00645713
v 0.02548472 -0.02052942 0.00631747
v 0.02612748 -0.02058841 0.00637364
v 0.03358247 -0.02253846 0.00588179
v 0.03115585 -0.02232609 0.00567534
v 0.03196653 -0.02239688 0.00574517
v 0.03277360 -0.02246936 0.00581196
v 0.03358247 -0.02294465 0.00548255
v 0.03439135 -0.02341320 0.00514707
v 0.02313574 -0.01830970 0.00724954
v 0.03600909 -0.02398794 0.00420133
v 0.03741559 -0.02470762 0.00241612
v 0.03766295 -0.02486436 0.00201840
v 0.03762684 -0.02517785 0.00114249
v 0.03762684 -0.02522673 0.00033186
v 0.03439135 -0.02401827 0.00429241
v 0.03358247 -0.02333399 0.00507724
v 0.03064489 -0.02227385 0.00562525
v 0.02667636 -0.02144461 0.00560248
v 0.02329282 -0.02066931 0.00564043
v 0.02313574 -0.02079740 0.00540513
v 0.02313574 -0.02091201 0.00523815
v 0.03358247 -0.02374018 0.00452164
v 0.03520022 -0.02437221 0.00357135
v 0.03600909 -0.02459638 0.00299449
v 0.03600909 -0.02431491 0.00357135
v 0.03681796 -0.02518122 -0.00128181
v 0.03762684 -0.02513740 -0.00047118
v 0.03600909 -0.02521325 -0.00128181
v 0.03520022 -0.02493178 -0.00209092
v 0.02313574 -0.02162158 -0.00365146
v 0.02313574 -0.02159461 -0.00373799
v 0.02313574 -0.02145304 -0.00414178
v 0.02313574 -0.02133674 -0.00439226
v 0.02313574 -0.02127607 -0.00451674
v 0.02386697 -0.02153899 -0.00433002
v 0.02386697 -0.02133506 -0.00473534
v 0.02313574 -0.02089010 -0.00516494
v 0.02313574 -0.01871589 0.00710533
v 0.02313574 -0.02033896 0.00596680
v 0.02386697 -0.02036425 0.00612012
v 0.02467765 -0.02044515 0.00622639
v 0.03681796 -0.02474470 0.00249658
v 0.03681796 -0.02499751 0.00195160
v 0.03681796 -0.02524190 0.00114249
v 0.03681796 -0.02529583 0.00033186
v 0.03681796 -0.02526044 -0.00047118
v 0.03439135 -0.02428120 0.00357135
v 0.03358247 -0.02392389 0.00411784
v 0.02467765 -0.02081931 0.00582107
v 0.02386697 -0.02073167 0.00571633
v 0.02313574 -0.02046537 0.00582866
v 0.02313574 -0.02135023 0.00444270
v 0.02371711 -0.02138899 0.00466129
v 0.02425696 -0.02144124 0.00479033
v 0.03520022 -0.02460143 0.00292011
v 0.03600909 -0.02502111 0.00195160
v 0.03600909 -0.02477672 0.00259070
v 0.03600909 -0.02523179 -0.00047118
v 0.03520022 -0.02505313 -0.00128181
v 0.03394538 -0.02468739 -0.00172507
v 0.02430752 -0.02224014 -0.00243096
v 0.02313574 -0.02184574 -0.00290155
v 0.02386697 -0.02201934 -0.00290155
v 0.03600909 -0.02520651 0.00114249
v 0.03600909 -0.02524190 0.00033186
v 0.03520022 -0.02490481 0.00195160
v 0.03520022 -0.02473795 0.00251479
v 0.03315457 -0.02387333 0.00399184
v 0.02313574 -0.02164012 0.00363359
v 0.02313574 -0.02144630 0.00420588
v 0.03520022 -0.02506156 -0.00047118
v 0.02352573 -0.02223340 -0.00047421
v 0.02359975 -0.02221654 -0.00128333
v 0.02313574 -0.02200418 -0.00209547
v 0.03520022 -0.02503459 0.00114249
v 0.03520022 -0.02506156 0.00033186
v 0.03397608 -0.02468065 0.00156147
v 0.02313574 -0.02185249 0.00276223
v 0.02320615 -0.02149517 0.00411936
v 0.02313574 -0.02152888 0.00397059
v 0.02313574 -0.02210193 0.00043661
v 0.02313574 -0.02213733 -0.00047421
v 0.02313574 -0.02210193 -0.00128333
v 0.02313574 -0.02198732 0.00195312
v 0.02417030 -0.02227216 0.00170265
v 0.02313574 -0.02206822 0.00114249
f 1 2 3
f 1 3 10
f 1 10 24
f 1 24 43
f 1 43 26
f 1 26 11
f 1 11 4
f 1 4 5
f 1 5 2
f 2 6 7
f 2 7 8
f 2 8 3
f 2 5 9
f 2 9 6
f 3 8 10
f 4 11 12
f 4 12 5
f 5 12 13
f 5 13 14
f 5 14 15
f 5 15 9
f 6 16 17
f 6 17 7
f 6 9 18
f 6 18 16
f 7 17 19
f 7 19 20
f 7 20 10
f 7 10 8
f 9 15 21
f 9 21 22
f 9 22 23
f 9 23 18
f 10 20 25
f 10 25 24
f 11 26 27
f 11 27 28
f 11 28 12
f 12 29 13
f 12 28 30
f 12 30 29
f 13 29 14
f 14 31 15
f 14 29 32
f 14 32 33
f 14 33 31
f 15 31 21
f 16 34 35
f 16 35 17
f 16 18 34
f 17 36 37
f 17 37 19
f 17 35 36
f 18 23 38
f 18 38 39
f 18 39 35
f 18 35 34
f 19 37 25
f 19 25 20
f 21 31 22
f 22 31 33
f 22 33 40
f 22 40 41
f 22 41 23
f 23 41 42
f 23 42 38
f 24 25 37
f 24 37 44
f 24 44 43
f 26 43 70
f 26 70 69
f 26 69 68
f 26 68 67
f 26 67 66
f 26 66 65
f 26 65 96
f 26 96 136
f 26 136 193
f 26 193 250
f 26 250 248
f 26 248 190
f 26 190 247
f 26 247 316
f 26 316 384
f 26 384 465
f 26 465 530
f 26 530 591
f 26 591 657
f 26 657 726
f 26 726 794
f 26 794 846
f 26 846 845
f 26 845 785
f 26 785 784
f 26 784 844
f 26 844 842
f 26 842 903
f 26 903 902
f 26 902 963
f 26 963 918
f 26 918 985
f 26 985 984
f 26 984 982
f 26 982 981
f 26 981 1030
f 26 1030 1027
f 26 1027 1026
f 26 1026 1025
f 26 1025 1024
f 26 1024 1023
f 26 1023 1055
f 26 1055 1067
f 26 1067 1076
f 26 1076 1075
f 26 1075 1074
f 26 1074 1079
f 26 1079 1077
f 26 1077 1071
f 26 1071 1062
f 26 1062 1073
f 26 1073 1063
f 26 1063 1045
f 26 1045 1014
f 26 1014 1013
f 26 1013 1044
f 26 1044 1032
f 26 1032 993
f 26 993 992
f 26 992 1031
f 26 1031 1002
f 26 1002 948
f 26 948 883
f 26 883 827
f 26 827 758
f 26 758 692
f 26 692 619
f 26 619 559
f 26 559 497
f 26 497 420
f 26 420 353
f 26 353 352
f 26 352 419
f 26 419 488
f 26 488 411
f 26 411 359
f 26 359 286
f 26 286 219
f 26 219 159
f 26 159 155
f 26 155 104
f 26 104 77
f 26 77 48
f 26 48 47
f 26 47 45
f 26 45 27
f 27 46 28
f 27 45 47
f 27 47 48
f 27 48 46
f 28 46 30
f 29 30 46
f 29 46 49
f 29 49 50
f 29 50 51
f 29 51 52
f 29 52 53
f 29 53 32
f 32 53 54
f 32 54 33
f 33 54 40
f 35 39 38
f 35 38 55
f 35 55 56
f 35 56 57
f 35 57 58
f 35 58 59
f 35 59 36
f 36 60 44
f 36 44 37
f 36 59 58
f 36 58 61
f 36 61 62
f 36 62 63
f 36 63 64
f 36 64 65
f 36 65 66
f 36 66 67
f 36 67 68
f 36 68 69
f 36 69 70
f 36 70 43
f 36 43 60
f 38 42 71
f 38 71 55
f 40 54 72
f 40 72 73
f 40 73 41
f 41 73 74
f 41 74 75
f 41 75 42
f 42 75 76
f 42 76 71
f 43 44 60
f 46 48 77
f 46 77 78
f 46 78 79
f 46 79 80
f 46 80 49
f 49 80 50
f 50 80 51
f 51 81 52
f 51 80 82
f 51 82 81
f 52 81 83
f 52 83 84
f 52 84 85
f 52 85 53
f 53 85 86
f 53 86 54
f 54 86 87
f 54 87 72
f 55 71 88
f 55 88 56
f 56 89 57
f 56 88 89
f 57 90 58
f 57 89 91
f 57 91 90
f 58 90 61
f 61 90 92
f 61 92 62
f 62 92 93
f 62 93 94
f 62 94 63
f 63 94 95
f 63 95 64
f 64 96 65
f 64 95 96
f 71 76 97
f 71 97 98
f 71 98 88
f 72 87 99
f 72 99 73
f 73 99 100
f 73 100 74
f 74 100 101
f 74 101 75
f 75 101 76
f 76 101 102
f 76 102 103
f 76 103 97
f 77 104 78
f 78 104 105
f 78 105 79
f 79 105 106
f 79 106 107
f 79 107 108
f 79 108 109
f 79 109 110
f 79 110 111
f 79 111 112
f 79 112 80
f 80 112 82
f 81 82 113
f 81 113 114
f 81 114 115
f 81 115 83
f 82 112 114
f 82 114 113
f 83 116 84
f 83 115 117
f 83 117 118
f 83 118 119
f 83 119 120
f 83 120 121
f 83 121 122
f 83 122 123
f 83 123 116
f 84 116 85
f 85 124 86
f 85 116 124
f 86 124 125
f 86 125 126
f 86 126 100
f 86 100 87
f 87 100 99
f 88 98 127
f 88 127 128
f 88 128 129
f 88 129 130
f 88 130 89
f 89 130 91
f 90 91 92
f 91 130 92
f 92 130 129
f 92 129 128
f 92 128 93
f 93 128 95
f 93 95 94
f 95 131 132
f 95 132 133
f 95 133 134
f 95 134 96
f 95 128 131
f 96 135 136
f 96 134 137
f 96 137 138
f 96 138 139
f 96 139 140
f 96 140 135
f 97 103 141
f 97 141 142
f 97 142 98
f 98 143 144
f 98 144 145
f 98 145 146
f 98 146 147
f 98 147 148
f 98 148 127
f 98 142 149
f 98 149 150
f 98 150 143
f 100 126 101
f 101 126 102
f 102 141 103
f 102 126 151
f 102 151 152
f 102 152 153
f 102 153 154
f 102 154 141
f 104 155 105
f 105 155 107
f 105 107 106
f 107 156 157
f 107 157 158
f 107 158 108
f 107 155 159
f 107 159 160
f 107 160 156
f 108 158 109
f 109 158 161
f 109 161 110
f 110 161 162
f 110 162 163
f 110 163 164
f 110 164 111
f 111 164 112
f 112 164 163
f 112 163 114
f 114 165 115
f 114 163 165
f 115 165 117
f 116 123 166
f 116 166 125
f 116 125 124
f 117 165 118
f 118 167 168
f 118 168 169
f 118 169 170
f 118 170 171
f 118 171 119
f 118 165 163
f 118 163 167
f 119 171 120
f 120 171 172
f 120 172 227
f 120 227 173
f 120 173 121
f 121 174 122
f 121 173 175
f 121 175 176
f 121 176 177
f 121 177 174
f 122 174 123
f 123 174 178
f 123 178 166
f 125 166 178
f 125 178 179
f 125 179 126
f 126 179 180
f 126 180 151
f 127 148 128
f 128 148 181
f 128 181 182
f 128 182 183
f 128 183 131
f 131 183 184
f 131 184 185
f 131 185 186
f 131 186 132
f 132 186 133
f 133 137 134
f 133 186 187
f 133 187 139
f 133 139 137
f 135 188 189
f 135 189 190
f 135 190 191
f 135 191 136
f 135 140 192
f 135 192 188
f 136 191 193
f 137 139 138
f 139 187 186
f 139 186 194
f 139 194 140
f 140 194 195
f 140 195 192
f 141 154 142
f 142 154 153
f 142 153 196
f 142 196 149
f 143 150 197
f 143 197 144
f 144 197 150
f 144 150 198
f 144 198 199
f 144 199 145
f 145 199 146
f 146 200 201
f 146 201 202
f 146 202 181
f 146 181 203
f 146 203 148
f 146 148 147
f 146 199 198
f 146 198 200
f 148 203 204
f 148 204 181
f 149 205 206
f 149 206 207
f 149 207 208
f 149 208 150
f 149 196 205
f 150 208 209
f 150 209 210
f 150 210 211
f 150 211 198
f 151 180 212
f 151 212 152
f 152 212 213
f 152 213 153
f 153 213 205
f 153 205 196
f 156 214 215
f 156 215 157
f 156 160 214
f 157 215 216
f 157 216 158
f 158 216 217
f 158 217 218
f 158 218 161
f 159 219 220
f 159 220 160
f 160 220 214
f 161 218 162
f 162 218 163
f 163 218 221
f 163 221 168
f 163 168 167
f 168 222 223
f 168 223 224
f 168 224 170
f 168 170 169
f 168 221 225
f 168 225 226
f 168 226 222
f 170 224 223
f 170 223 171
f 171 223 172
f 172 223 227
f 173 227 228
f 173 228 175
f 174 177 229
f 174 229 230
f 174 230 231
f 174 231 178
f 175 228 232
f 175 232 176
f 176 232 233
f 176 233 234
f 176 234 229
f 176 229 177
f 178 231 179
f 179 231 180
f 180 231 230
f 180 230 229
f 180 229 235
f 180 235 212
f 181 236 237
f 181 237 182
f 181 204 203
f 181 202 238
f 181 238 236
f 182 237 183
f 183 237 184
f 184 237 239
f 184 239 185
f 185 240 186
f 185 239 241
f 185 241 240
f 186 240 242
f 186 242 243
f 186 243 244
f 186 244 194
f 188 245 189
f 188 192 245
f 189 245 246
f 189 246 190
f 190 248 191
f 190 246 249
f 190 249 247
f 191 248 250
f 191 250 193
f 192 195 251
f 192 251 252
f 192 252 253
f 192 253 245
f 194 244 195
f 195 244 251
f 198 211 210
f 198 210 254
f 198 254 255
f 198 255 256
f 198 256 257
f 198 257 258
f 198 258 259
f 198 259 200
f 200 259 201
f 201 259 260
f 201 260 261
f 201 261 202
f 202 261 238
f 205 262 263
f 205 263 264
f 205 264 206
f 205 213 212
f 205 212 262
f 206 264 265
f 206 265 207
f 207 265 266
f 207 266 267
f 207 267 268
f 207 268 269
f 207 269 270
f 207 270 208
f 208 270 209
f 209 270 210
f 210 270 271
f 210 271 272
f 210 272 273
f 210 273 255
f 210 255 254
f 212 235 274
f 212 274 275
f 212 275 262
f 214 276 277
f 214 277 215
f 214 220 276
f 215 277 278
f 215 278 279
f 215 279 280
f 215 280 281
f 215 281 216
f 216 281 282
f 216 282 283
f 216 283 217
f 217 283 284
f 217 284 285
f 217 285 226
f 217 226 218
f 218 226 221
f 219 286 287
f 219 287 288
f 219 288 220
f 220 288 276
f 221 226 225
f 222 226 223
f 223 289 227
f 223 226 290
f 223 290 291
f 223 291 289
f 226 285 292
f 226 292 293
f 226 293 290
f 227 289 294
f 227 294 228
f 228 294 233
f 228 233 232
f 229 234 295
f 229 295 274
f 229 274 235
f 233 294 296
f 233 296 297
f 233 297 234
f 234 297 298
f 234 298 299
f 234 299 295
f 236 238 300
f 236 300 301
f 236 301 237
f 237 301 239
f 238 261 302
f 238 302 300
f 239 301 260
f 239 260 241
f 240 241 303
f 240 303 304
f 240 304 305
f 240 305 306
f 240 306 242
f 241 260 307
f 241 307 308
f 241 308 309
f 241 309 310
f 241 310 303
f 242 306 311
f 242 311 243
f 243 312 251
f 243 251 244
f 243 311 312
f 245 313 246
f 245 253 313
f 246 313 314
f 246 314 249
f 247 249 315
f 247 315 316
f 249 317 318
f 249 318 315
f 249 314 317
f 251 312 319
f 251 319 320
f 251 320 252
f 252 320 253
f 253 320 314
f 253 314 313
f 255 273 272
f 255 272 321
f 255 321 322
f 255 322 323
f 255 323 324
f 255 324 325
f 255 325 256
f 256 325 326
f 256 326 257
f 257 327 258
f 257 326 327
f 258 327 328
f 258 328 307
f 258 307 260
f 258 260 259
f 260 302 261
f 260 301 300
f 260 300 302
f 262 275 329
f 262 329 295
f 262 295 263
f 263 295 330
f 263 330 331
f 263 331 264
f 264 331 265
f 265 331 332
f 265 332 266
f 266 332 333
f 266 333 334
f 266 334 267
f 267 334 335
f 267 335 336
f 267 336 337
f 267 337 268
f 268 338 339
f 268 339 269
f 268 337 338
f 269 339 338
f 269 338 340
f 269 340 270
f 270 272 271
f 270 340 341
f 270 341 321
f 270 321 272
f 274 329 275
f 274 295 329
f 276 288 342
f 276 342 277
f 277 343 344
f 277 344 278
f 277 342 345
f 277 345 343
f 278 346 347
f 278 347 348
f 278 348 349
f 278 349 279
f 278 344 343
f 278 343 350
f 278 350 351
f 278 351 352
f 278 352 353
f 278 353 346
f 279 349 354
f 279 354 355
f 279 355 284
f 279 284 356
f 279 356 280
f 280 356 281
f 281 356 282
f 282 356 284
f 282 284 283
f 284 357 358
f 284 358 292
f 284 292 285
f 284 355 357
f 286 359 342
f 286 342 288
f 286 288 287
f 289 360 294
f 289 291 361
f 289 361 362
f 289 362 363
f 289 363 364
f 289 364 365
f 289 365 360
f 290 293 291
f 291 293 366
f 291 366 292
f 291 292 361
f 292 358 361
f 292 366 293
f 294 360 367
f 294 367 296
f 295 299 330
f 296 368 369
f 296 369 297
f 296 367 368
f 297 369 298
f 298 369 370
f 298 370 371
f 298 371 372
f 298 372 299
f 299 372 373
f 299 373 333
f 299 333 330
f 303 310 304
f 304 374 375
f 304 375 305
f 304 310 376
f 304 376 377
f 304 377 374
f 305 375 378
f 305 378 311
f 305 311 306
f 307 328 379
f 307 379 380
f 307 380 308
f 308 380 309
f 309 380 310
f 310 380 376
f 311 381 312
f 311 378 381
f 312 381 319
f 314 320 382
f 314 382 381
f 314 381 317
f 315 318 383
f 315 383 316
f 316 383 385
f 316 385 384
f 317 381 318
f 318 386 383
f 318 381 387
f 318 387 388
f 318 388 389
f 318 389 386
f 319 381 320
f 320 381 382
f 321 341 340
f 321 340 390
f 321 390 391
f 321 391 322
f 322 391 323
f 323 391 390
f 323 390 392
f 323 392 393
f 323 393 394
f 323 394 395
f 323 395 396
f 323 396 397
f 323 397 325
f 323 325 324
f 325 397 326
f 326 397 398
f 326 398 399
f 326 399 400
f 326 400 327
f 327 400 401
f 327 401 328
f 328 401 402
f 328 402 377
f 328 377 376
f 328 376 380
f 328 380 379
f 330 333 332
f 330 332 331
f 333 373 334
f 334 403 404
f 334 404 335
f 334 373 403
f 335 404 405
f 335 405 406
f 335 406 407
f 335 407 408
f 335 408 336
f 336 408 409
f 336 409 410
f 336 410 337
f 337 410 390
f 337 390 340
f 337 340 338
f 342 359 411
f 342 411 412
f 342 412 345
f 343 351 350
f 343 345 351
f 345 412 351
f 346 413 414
f 346 414 348
f 346 348 347
f 346 353 413
f 348 414 415
f 348 415 416
f 348 416 417
f 348 417 349
f 349 417 354
f 351 412 418
f 351 418 419
f 351 419 352
f 353 420 421
f 353 421 422
f 353 422 413
f 354 417 423
f 354 423 424
f 354 424 355
f 355 424 425
f 355 425 357
f 357 426 427
f 357 427 358
f 357 425 428
f 357 428 426
f 358 427 429
f 358 429 430
f 358 430 361
f 360 365 431
f 360 431 367
f 361 430 432
f 361 432 433
f 361 433 434
f 361 434 362
f 362 434 363
f 363 435 364
f 363 434 436
f 363 436 435
f 364 437 438
f 364 438 439
f 364 439 365
f 364 435 440
f 364 440 441
f 364 441 442
f 364 442 437
f 365 439 438
f 365 438 443
f 365 443 444
f 365 444 431
f 367 431 368
f 368 445 369
f 368 431 446
f 368 446 445
f 369 445 370
f 370 447 371
f 370 445 448
f 370 448 449
f 370 449 450
f 370 450 451
f 370 451 447
f 371 447 372
f 372 447 373
f 373 447 403
f 374 377 452
f 374 452 453
f 374 453 454
f 374 454 455
f 374 455 375
f 375 455 456
f 375 456 457
f 375 457 458
f 375 458 459
f 375 459 381
f 375 381 378
f 377 402 460
f 377 460 461
f 377 461 452
f 381 459 462
f 381 462 463
f 381 463 464
f 381 464 387
f 383 386 385
f 384 385 465
f 385 386 465
f 386 466 465
f 386 389 388
f 386 388 467
f 386 467 468
f 386 468 466
f 387 464 467
f 387 467 388
f 390 469 392
f 390 410 469
f 392 469 470
f 392 470 393
f 393 470 471
f 393 471 394
f 394 472 395
f 394 471 473
f 394 473 474
f 394 474 475
f 394 475 476
f 394 476 460
f 394 460 472
f 395 472 396
f 396 472 397
f 397 472 398
f 398 472 460
f 398 460 399
f 399 460 477
f 399 477 402
f 399 402 478
f 399 478 400
f 400 478 401
f 401 478 402
f 402 477 460
f 403 451 479
f 403 479 480
f 403 480 404
f 403 447 451
f 404 480 481
f 404 481 482
f 404 482 405
f 405 482 483
f 405 483 484
f 405 484 406
f 406 484 485
f 406 485 486
f 406 486 487
f 406 487 408
f 406 408 407
f 408 487 409
f 409 487 469
f 409 469 410
f 411 488 412
f 412 488 418
f 413 489 414
f 413 422 489
f 414 490 415
f 414 489 491
f 414 491 490
f 415 490 492
f 415 492 493
f 415 493 416
f 416 493 494
f 416 494 495
f 416 495 496
f 416 496 423
f 416 423 417
f 418 488 419
f 420 497 498
f 420 498 499
f 420 499 491
f 420 491 421
f 421 491 422
f 422 491 500
f 422 500 489
f 423 496 424
f 424 496 495
f 424 495 501
f 424 501 425
f 425 501 426
f 425 426 428
f 426 502 503
f 426 503 429
f 426 429 427
f 426 501 502
f 429 503 504
f 429 504 430
f 430 504 505
f 430 505 432
f 431 444 446
f 432 506 507
f 432 507 436
f 432 436 433
f 432 505 506
f 433 436 434
f 435 436 507
f 435 507 440
f 437 508 509
f 437 509 510
f 437 510 438
f 437 442 511
f 437 511 508
f 438 510 443
f 440 507 441
f 441 512 442
f 441 507 506
f 441 506 512
f 442 512 511
f 443 510 513
f 443 513 444
f 444 513 514
f 444 514 446
f 445 446 448
f 446 514 449
f 446 449 448
f 449 514 515
f 449 515 516
f 449 516 481
f 449 481 479
f 449 479 450
f 450 479 451
f 452 517 453
f 452 461 518
f 452 518 517
f 453 519 520
f 453 520 521
f 453 521 522
f 453 522 455
f 453 455 454
f 453 517 523
f 453 523 519
f 455 522 456
f 456 521 524
f 456 524 525
f 456 525 462
f 456 462 459
f 456 459 458
f 456 458 457
f 456 522 521
f 460 526 527
f 460 527 528
f 460 528 461
f 460 476 526
f 461 528 518
f 462 525 524
f 462 524 463
f 463 524 529
f 463 529 464
f 464 529 467
f 465 466 530
f 466 468 531
f 466 531 532
f 466 532 530
f 467 529 468
f 468 529 531
f 469 533 470
f 469 487 533
f 470 533 534
f 470 534 535
f 470 535 471
f 471 535 536
f 471 536 473
f 473 537 474
f 473 536 537
f 474 537 475
f 475 538 476
f 475 537 538
f 476 538 539
f 476 539 526
f 479 481 480
f 481 516 540
f 481 540 541
f 481 541 482
f 482 541 483
f 483 541 484
f 484 542 543
f 484 543 485
f 484 541 544
f 484 544 542
f 485 543 545
f 485 545 486
f 486 545 487
f 487 545 546
f 487 546 547
f 487 547 534
f 487 534 533
f 489 500 491
f 490 548 492
f 490 491 548
f 491 549 550
f 491 550 551
f 491 551 548
f 491 499 549
f 492 552 553
f 492 553 554
f 492 554 555
f 492 555 493
f 492 548 551
f 492 551 552
f 493 555 556
f 493 556 557
f 493 557 558
f 493 558 494
f 494 558 502
f 494 502 495
f 495 502 501
f 497 559 549
f 497 549 498
f 498 549 499
f 502 558 503
f 503 558 504
f 504 560 505
f 504 558 560
f 505 560 561
f 505 561 562
f 505 562 506
f 506 562 563
f 506 563 512
f 508 511 564
f 508 564 565
f 508 565 566
f 508 566 509
f 509 566 567
f 509 567 568
f 509 568 510
f 510 568 569
f 510 569 515
f 510 515 513
f 511 512 563
f 511 563 570
f 511 570 571
f 511 571 572
f 511 572 564
f 513 515 514
f 515 573 574
f 515 574 516
f 515 569 575
f 515 575 573
f 516 574 540
f 517 518 576
f 517 576 523
f 518 528 527
f 518 527 577
f 518 577 576
f 519 578 520
f 519 523 576
f 519 576 579
f 519 579 580
f 519 580 581
f 519 581 578
f 520 578 582
f 520 582 583
f 520 583 584
f 520 584 521
f 521 584 585
f 521 585 586
f 521 586 587
f 521 587 524
f 524 587 529
f 526 539 527
f 527 539 588
f 527 588 589
f 527 589 577
f 529 590 531
f 529 587 590
f 530 532 592
f 530 592 591
f 531 590 532
f 532 590 592
f 534 547 593
f 534 593 535
f 535 594 536
f 535 593 594
f 536 594 595
f 536 595 537
f 537 596 538
f 537 595 596
f 538 597 598
f 538 598 539
f 538 596 599
f 538 599 597
f 539 600 588
f 539 598 601
f 539 601 600
f 540 542 544
f 540 544 541
f 540 574 542
f 542 602 603
f 542 603 543
f 542 574 602
f 543 603 604
f 543 604 605
f 543 605 545
f 545 605 606
f 545 606 546
f 546 606 607
f 546 607 547
f 547 607 608
f 547 608 609
f 547 609 593
f 549 559 610
f 549 610 611
f 549 611 612
f 549 612 550
f 550 612 613
f 550 613 614
f 550 614 551
f 551 614 615
f 551 615 552
f 552 615 553
f 553 615 616
f 553 616 554
f 554 616 617
f 554 617 618
f 554 618 561
f 554 561 556
f 554 556 555
f 556 561 560
f 556 560 557
f 557 560 558
f 559 619 620
f 559 620 610
f 561 621 622
f 561 622 562
f 561 618 623
f 561 623 621
f 562 622 563
f 563 624 571
f 563 571 625
f 563 625 570
f 563 622 624
f 564 626 627
f 564 627 565
f 564 572 628
f 564 628 629
f 564 629 626
f 565 627 566
f 566 627 630
f 566 630 567
f 567 630 631
f 567 631 575
f 567 575 568
f 568 575 569
f 570 625 571
f 571 632 628
f 571 628 572
f 571 624 633
f 571 633 632
f 573 634 574
f 573 575 631
f 573 631 634
f 574 634 635
f 574 635 602
f 576 577 579
f 577 589 636
f 577 636 637
f 577 637 579
f 578 581 580
f 578 580 638
f 578 638 582
f 579 637 580
f 580 637 636
f 580 636 639
f 580 639 638
f 582 640 583
f 582 638 641
f 582 641 640
f 583 640 642
f 583 642 584
f 584 642 643
f 584 643 644
f 584 644 645
f 584 645 585
f 585 645 646
f 585 646 647
f 585 647 586
f 586 647 648
f 586 648 649
f 586 649 650
f 586 650 587
f 587 650 590
f 588 600 651
f 588 651 652
f 588 652 589
f 589 652 653
f 589 653 636
f 590 650 654
f 590 654 592
f 591 592 655
f 591 655 656
f 591 656 657
f 592 654 655
f 593 609 594
f 594 609 658
f 594 658 595
f 595 658 659
f 595 659 596
f 596 659 599
f 597 599 660
f 597 660 661
f 597 661 662
f 597 662 598
f 598 662 601
f 599 659 660
f 600 663 664
f 600 664 665
f 600 665 651
f 600 601 666
f 600 666 663
f 601 662 667
f 601 667 666
f 602 635 668
f 602 668 669
f 602 669 603
f 603 669 670
f 603 670 671
f 603 671 604
f 604 671 672
f 604 672 673
f 604 673 674
f 604 674 605
f 605 674 675
f 605 675 676
f 605 676 606
f 606 676 607
f 607 676 677
f 607 677 608
f 608 677 678
f 608 678 609
f 609 679 680
f 609 680 681
f 609 681 682
f 609 682 658
f 609 678 683
f 609 683 679
f 610 620 684
f 610 684 611
f 611 685 686
f 611 686 687
f 611 687 612
f 611 684 688
f 611 688 685
f 612 687 613
f 613 689 690
f 613 690 617
f 613 617 614
f 613 687 689
f 614 617 616
f 614 616 615
f 617 690 618
f 618 691 623
f 618 690 689
f 618 689 691
f 619 692 693
f 619 693 694
f 619 694 684
f 619 684 620
f 621 623 687
f 621 687 695
f 621 695 696
f 621 696 622
f 622 696 633
f 622 633 624
f 623 691 689
f 623 689 687
f 626 697 627
f 626 629 697
f 627 697 630
f 628 632 698
f 628 698 629
f 629 698 699
f 629 699 700
f 629 700 697
f 630 697 701
f 630 701 631
f 631 669 634
f 631 701 669
f 632 633 696
f 632 696 702
f 632 702 703
f 632 703 704
f 632 704 698
f 634 669 668
f 634 668 635
f 636 653 639
f 638 639 641
f 639 653 705
f 639 705 706
f 639 706 641
f 640 641 707
f 640 707 642
f 641 708 709
f 641 709 710
f 641 710 711
f 641 711 712
f 641 712 713
f 641 713 714
f 641 714 715
f 641 715 716
f 641 716 717
f 641 717 718
f 641 718 719
f 641 719 707
f 641 706 708
f 642 707 720
f 642 720 643
f 643 720 644
f 644 720 721
f 644 721 645
f 645 721 722
f 645 722 646
f 646 722 723
f 646 723 648
f 646 648 647
f 648 723 657
f 648 657 656
f 648 656 655
f 648 655 649
f 649 654 650
f 649 655 654
f 651 665 652
f 652 665 724
f 652 724 653
f 653 724 725
f 653 725 705
f 657 723 726
f 658 682 727
f 658 727 660
f 658 660 659
f 660 727 661
f 661 667 662
f 661 727 667
f 663 666 728
f 663 728 729
f 663 729 730
f 663 730 731
f 663 731 665
f 663 665 664
f 665 731 725
f 665 725 724
f 666 667 728
f 667 732 729
f 667 729 728
f 667 727 733
f 667 733 732
f 669 701 734
f 669 734 670
f 670 734 735
f 670 735 736
f 670 736 737
f 670 737 671
f 671 737 672
f 672 737 738
f 672 738 673
f 673 738 739
f 673 739 675
f 673 675 674
f 675 739 740
f 675 740 741
f 675 741 677
f 675 677 676
f 677 741 742
f 677 742 683
f 677 683 678
f 679 683 742
f 679 742 743
f 679 743 680
f 680 743 681
f 681 743 744
f 681 744 745
f 681 745 682
f 682 745 727
f 684 694 746
f 684 746 688
f 685 688 747
f 685 747 748
f 685 748 749
f 685 749 750
f 685 750 751
f 685 751 752
f 685 752 753
f 685 753 686
f 686 754 755
f 686 755 695
f 686 695 687
f 686 753 756
f 686 756 754
f 688 746 757
f 688 757 747
f 692 758 759
f 692 759 693
f 693 759 760
f 693 760 694
f 694 760 746
f 695 755 761
f 695 761 762
f 695 762 702
f 695 702 696
f 697 763 701
f 697 700 763
f 698 704 764
f 698 764 765
f 698 765 766
f 698 766 699
f 699 766 767
f 699 767 768
f 699 768 763
f 699 763 700
f 701 763 769
f 701 769 770
f 701 770 736
f 701 736 734
f 702 762 703
f 703 762 761
f 703 761 771
f 703 771 772
f 703 772 773
f 703 773 704
f 704 773 765
f 704 765 764
f 705 725 774
f 705 774 775
f 705 775 708
f 705 708 706
f 707 719 720
f 708 776 777
f 708 777 709
f 708 775 778
f 708 778 776
f 709 777 710
f 710 779 780
f 710 780 781
f 710 781 782
f 710 782 711
f 710 777 776
f 710 776 778
f 710 778 775
f 710 775 779
f 711 782 712
f 712 782 713
f 713 782 714
f 714 782 783
f 714 783 715
f 715 783 782
f 715 782 784
f 715 784 785
f 715 785 786
f 715 786 716
f 716 786 787
f 716 787 717
f 717 787 788
f 717 788 718
f 718 788 719
f 719 789 720
f 719 788 789
f 720 789 790
f 720 790 721
f 721 790 791
f 721 791 722
f 722 791 723
f 723 792 726
f 723 791 792
f 725 731 774
f 726 792 793
f 726 793 794
f 727 745 795
f 727 795 733
f 729 732 733
f 729 733 796
f 729 796 730
f 730 796 797
f 730 797 798
f 730 798 799
f 730 799 800
f 730 800 731
f 731 800 801
f 731 801 774
f 733 795 796
f 734 736 735
f 736 770 802
f 736 802 803
f 736 803 804
f 736 804 737
f 737 804 805
f 737 805 738
f 738 805 739
f 739 805 806
f 739 806 740
f 740 806 807
f 740 807 808
f 740 808 741
f 741 808 809
f 741 809 810
f 741 810 742
f 742 810 811
f 742 811 812
f 742 812 744
f 742 744 743
f 744 795 745
f 744 812 795
f 746 760 757
f 747 757 813
f 747 813 814
f 747 814 748
f 748 814 749
f 749 814 815
f 749 815 816
f 749 816 751
f 749 751 750
f 751 816 817
f 751 817 818
f 751 818 819
f 751 819 752
f 752 756 753
f 752 819 820
f 752 820 756
f 754 821 822
f 754 822 761
f 754 761 755
f 754 756 823
f 754 823 824
f 754 824 821
f 756 825 823
f 756 820 826
f 756 826 825
f 757 760 813
f 758 827 828
f 758 828 815
f 758 815 759
f 759 815 814
f 759 814 813
f 759 813 760
f 761 822 829
f 761 829 772
f 761 772 771
f 763 768 767
f 763 767 830
f 763 830 769
f 765 831 832
f 765 832 833
f 765 833 766
f 765 773 772
f 765 772 834
f 765 834 835
f 765 835 831
f 766 833 767
f 767 836 830
f 767 833 836
f 769 830 770
f 770 830 837
f 770 837 802
f 772 829 821
f 772 821 834
f 774 801 775
f 775 801 838
f 775 838 779
f 779 839 840
f 779 840 841
f 779 841 842
f 779 842 843
f 779 843 844
f 779 844 780
f 779 838 839
f 780 844 784
f 780 784 781
f 781 784 782
f 785 845 786
f 786 845 787
f 787 845 846
f 787 846 788
f 788 846 847
f 788 847 789
f 789 847 793
f 789 793 792
f 789 792 848
f 789 848 790
f 790 848 791
f 791 848 792
f 793 847 794
f 794 847 846
f 795 812 849
f 795 849 850
f 795 850 851
f 795 851 796
f 796 851 852
f 796 852 853
f 796 853 797
f 797 853 798
f 798 853 799
f 799 853 854
f 799 854 855
f 799 855 856
f 799 856 857
f 799 857 800
f 800 857 858
f 800 858 801
f 801 858 859
f 801 859 860
f 801 860 838
f 802 837 836
f 802 836 861
f 802 861 862
f 802 862 805
f 802 805 863
f 802 863 803
f 803 863 804
f 804 863 805
f 805 862 864
f 805 864 865
f 805 865 866
f 805 866 806
f 806 866 807
f 807 866 808
f 808 866 867
f 808 867 868
f 808 868 809
f 809 868 869
f 809 869 870
f 809 870 810
f 810 870 811
f 811 870 871
f 811 871 812
f 812 871 872
f 812 872 849
f 815 828 873
f 815 873 874
f 815 874 816
f 816 874 875
f 816 875 817
f 817 875 876
f 817 876 818
f 818 876 877
f 818 877 819
f 819 877 820
f 820 877 826
f 821 829 822
f 821 824 878
f 821 878 879
f 821 879 933
f 821 933 880
f 821 880 881
f 821 881 882
f 821 882 835
f 821 835 834
f 823 825 824
f 824 825 826
f 824 826 878
f 826 877 878
f 827 883 884
f 827 884 885
f 827 885 886
f 827 886 828
f 828 886 873
f 830 836 837
f 831 835 887
f 831 887 888
f 831 888 889
f 831 889 890
f 831 890 891
f 831 891 832
f 832 891 892
f 832 892 893
f 832 893 836
f 832 836 833
f 835 882 894
f 835 894 887
f 836 895 861
f 836 893 892
f 836 892 896
f 836 896 895
f 838 860 897
f 838 897 839
f 839 897 840
f 840 898 899
f 840 899 900
f 840 900 841
f 840 897 901
f 840 901 859
f 840 859 898
f 841 900 902
f 841 902 903
f 841 903 842
f 842 844 843
f 849 872 904
f 849 904 850
f 850 905 906
f 850 906 851
f 850 904 907
f 850 907 905
f 851 906 855
f 851 855 854
f 851 854 853
f 851 853 852
f 855 908 909
f 855 909 856
f 855 906 908
f 856 910 857
f 856 909 911
f 856 911 912
f 856 912 913
f 856 913 914
f 856 914 915
f 856 915 910
f 857 910 916
f 857 916 858
f 858 916 917
f 858 917 918
f 858 918 899
f 858 899 919
f 858 919 920
f 858 920 859
f 859 920 898
f 859 901 860
f 860 901 897
f 861 895 862
f 862 895 921
f 862 921 864
f 864 921 890
f 864 890 865
f 865 890 922
f 865 922 866
f 866 922 923
f 866 923 867
f 867 923 924
f 867 924 868
f 868 924 925
f 868 925 869
f 869 925 926
f 869 926 927
f 869 927 928
f 869 928 870
f 870 906 907
f 870 907 871
f 870 928 908
f 870 908 906
f 871 907 904
f 871 904 872
f 873 886 929
f 873 929 930
f 873 930 874
f 874 930 875
f 875 930 876
f 876 930 929
f 876 929 877
f 877 929 931
f 877 931 932
f 877 932 878
f 878 932 879
f 879 932 931
f 879 931 934
f 879 934 935
f 879 935 936
f 879 936 937
f 879 937 938
f 879 938 939
f 879 939 940
f 879 940 941
f 879 941 942
f 879 942 943
f 879 943 944
f 879 944 945
f 879 945 946
f 879 946 947
f 879 947 933
f 880 933 894
f 880 894 881
f 881 894 882
f 883 948 949
f 883 949 950
f 883 950 884
f 884 950 949
f 884 949 951
f 884 951 952
f 884 952 885
f 885 952 953
f 885 953 886
f 886 953 929
f 887 894 954
f 887 954 955
f 887 955 956
f 887 956 888
f 888 957 958
f 888 958 889
f 888 956 955
f 888 955 957
f 889 958 890
f 890 921 895
f 890 895 896
f 890 896 891
f 890 958 959
f 890 959 922
f 891 896 892
f 894 960 961
f 894 961 962
f 894 962 954
f 894 933 960
f 898 920 899
f 899 918 963
f 899 963 900
f 899 920 919
f 900 963 902
f 905 907 906
f 908 964 965
f 908 965 909
f 908 928 966
f 908 966 967
f 908 967 968
f 908 968 969
f 908 969 970
f 908 970 964
f 909 965 964
f 909 964 971
f 909 971 911
f 910 915 914
f 910 914 916
f 911 971 972
f 911 972 973
f 911 973 974
f 911 974 975
f 911 975 912
f 912 975 976
f 912 976 977
f 912 977 913
f 913 977 978
f 913 978 914
f 914 978 979
f 914 979 980
f 914 980 981
f 914 981 917
f 914 917 916
f 917 981 982
f 917 982 983
f 917 983 984
f 917 984 985
f 917 985 918
f 922 924 923
f 922 959 969
f 922 969 924
f 924 969 968
f 924 968 925
f 925 986 926
f 925 968 967
f 925 967 966
f 925 966 986
f 926 986 927
f 927 986 966
f 927 966 928
f 929 953 934
f 929 934 931
f 933 947 961
f 933 961 960
f 934 953 952
f 934 952 951
f 934 951 949
f 934 949 935
f 935 949 936
f 936 949 987
f 936 987 988
f 936 988 989
f 936 989 990
f 936 990 937
f 937 990 991
f 937 991 938
f 938 991 939
f 939 991 940
f 940 991 941
f 941 991 942
f 942 991 943
f 943 991 992
f 943 992 993
f 943 993 994
f 943 994 995
f 943 995 944
f 944 996 945
f 944 995 997
f 944 997 998
f 944 998 999
f 944 999 996
f 945 996 946
f 946 996 1000
f 946 1000 1001
f 946 1001 947
f 947 1001 961
f 948 1002 987
f 948 987 949
f 954 962 1003
f 954 1003 955
f 955 1003 957
f 957 1003 1004
f 957 1004 1005
f 957 1005 958
f 958 1005 1006
f 958 1006 959
f 959 1006 1007
f 959 1007 969
f 961 1008 962
f 961 1001 1009
f 961 1009 1010
f 961 1010 1011
f 961 1011 1012
f 961 1012 1013
f 961 1013 1014
f 961 1014 1015
f 961 1015 1008
f 962 1016 1017
f 962 1017 1018
f 962 1018 1003
f 962 1008 1016
f 964 1019 971
f 964 970 1020
f 964 1020 1019
f 969 1007 1020
f 969 1020 970
f 971 1019 1021
f 971 1021 1052
f 971 1052 1022
f 971 1022 972
f 972 1022 973
f 973 1022 974
f 974 1023 1024
f 974 1024 975
f 974 1022 1023
f 975 1024 1025
f 975 1025 1026
f 975 1026 1027
f 975 1027 1028
f 975 1028 976
f 976 1028 977
f 977 1028 1029
f 977 1029 978
f 978 1029 979
f 979 1029 1030
f 979 1030 980
f 980 1030 981
f 982 984 983
f 987 1002 988
f 988 991 990
f 988 990 989
f 988 1002 1031
f 988 1031 991
f 991 1031 992
f 993 1032 1033
f 993 1033 1034
f 993 1034 994
f 994 1034 1010
f 994 1010 997
f 994 997 995
f 996 999 1000
f 997 1010 1009
f 997 1009 1001
f 997 1001 1000
f 997 1000 998
f 998 1000 999
f 1003 1018 1004
f 1004 1018 1035
f 1004 1035 1005
f 1005 1035 1036
f 1005 1036 1006
f 1006 1036 1037
f 1006 1037 1038
f 1006 1038 1007
f 1007 1038 1039
f 1007 1039 1019
f 1007 1019 1020
f 1008 1040 1016
f 1008 1015 1041
f 1008 1041 1040
f 1010 1034 1042
f 1010 1042 1011
f 1011 1042 1043
f 1011 1043 1012
f 1012 1043 1044
f 1012 1044 1013
f 1014 1045 1046
f 1014 1046 1047
f 1014 1047 1015
f 1015 1047 1046
f 1015 1046 1041
f 1016 1048 1049
f 1016 1049 1050
f 1016 1050 1017
f 1016 1040 1048
f 1017 1050 1036
f 1017 1036 1035
f 1017 1035 1018
f 1019 1039 1021
f 1021 1039 1038
f 1021 1038 1051
f 1021 1051 1052
f 1022 1052 1053
f 1022 1053 1054
f 1022 1054 1055
f 1022 1055 1056
f 1022 1056 1023
f 1023 1056 1055
f 1027 1030 1029
f 1027 1029 1028
f 1032 1044 1033
f 1033 1042 1034
f 1033 1044 1042
f 1036 1050 1049
f 1036 1049 1037
f 1037 1049 1057
f 1037 1057 1038
f 1038 1057 1058
f 1038 1058 1051
f 1040 1059 1060
f 1040 1060 1048
f 1040 1041 1061
f 1040 1061 1062
f 1040 1062 1059
f 1041 1046 1045
f 1041 1045 1063
f 1041 1063 1061
f 1042 1044 1043
f 1048 1060 1049
f 1049 1060 1059
f 1049 1059 1057
f 1051 1058 1052
f 1052 1058 1064
f 1052 1064 1065
f 1052 1065 1066
f 1052 1066 1067
f 1052 1067 1053
f 1053 1067 1054
f 1054 1067 1055
f 1057 1059 1068
f 1057 1068 1058
f 1058 1068 1069
f 1058 1069 1064
f 1059 1070 1068
f 1059 1062 1071
f 1059 1071 1070
f 1061 1063 1072
f 1061 1072 1073
f 1061 1073 1062
f 1063 1073 1072
f 1064 1069 1065
f 1065 1069 1068
f 1065 1068 1074
f 1065 1074 1075
f 1065 1075 1066
f 1066 1075 1076
f 1066 1076 1067
f 1068 1070 1077
f 1068 1077 1078
f 1068 1078 1079
f 1068 1079 1074
f 1070 1071 1077
f 1077 1079 1078

