# https://github.com/mikedh/trimesh
v 0.02435532 0.01057327 0.00518095
v 0.02385946 0.01055296 0.00518095
v 0.01451598 0.00981478 0.00556106
v 0.01288257 0.00937684 0.00593464
v 0.01369927 0.00939490 0.00593791
v 0.02436990 0.01025498 0.00543055
v 0.02514772 0.00993442 0.00568667
v 0.02566788 0.00993442 0.00568667
v 0.02514772 0.01034076 0.00536366
v 0.02514772 0.01056650 0.00518095
v 0.03176399 0.00615776 -0.00130379
v 0.01158459 0.00615776 -0.00130379
v 0.01445278 0.01012630 0.00518095
v 0.01288257 0.00978543 0.00551538
v 0.01369927 0.00980349 0.00553659
v 0.01288257 0.00883957 0.00634412
v 0.01124430 0.00933621 0.00590039
v 0.00876502 0.00878765 0.00626581
v 0.00878446 0.00839486 0.00659698
v 0.02514772 0.00951454 0.00599827
v 0.02594984 0.00959355 0.00593954
v 0.02620749 0.00991411 0.00567362
v 0.02591581 0.01046717 0.00518095
v 0.03418494 0.00591395 -0.00130379
v 0.04154500 -0.00045423 -0.00756992
v 0.03615864 -0.00057388 -0.00829588
v 0.00654825 -0.01021081 -0.00171326
v -0.00556620 0.00099052 0.00567689
v -0.00478838 0.00262940 0.00565078
v -0.00383556 0.00410124 0.00576824
v -0.00229938 0.00501550 0.00567852
v 0.00736495 0.00943779 0.00518095
v 0.00792401 0.00969965 0.00518095
v 0.00799693 0.00972448 0.00518095
v 0.00876502 0.00984864 0.00518095
v 0.00960603 0.00989830 0.00518095
v 0.01288257 0.01005407 0.00518095
v 0.00960603 0.00970191 0.00541913
v 0.00878446 0.00927300 0.00584818
v 0.02597414 0.00895470 0.00640774
v 0.00878446 0.00787565 0.00694447
v 0.00796776 0.00923688 0.00582045
v 0.00824972 0.00836777 0.00657741
v 0.02679085 0.00893890 0.00639959
v 0.02679085 0.00944908 0.00599174
v 0.02679085 0.00985767 0.00561326
v 0.02679085 0.01025498 0.00520379
v 0.02679085 0.01027303 0.00518095
v 0.03460787 0.00585752 -0.00130379
v 0.04154500 -0.00012465 -0.00701199
v 0.04202141 -0.00058065 -0.00747530
v 0.04161306 -0.00119467 -0.00758623
v 0.04072343 -0.00113146 -0.00773142
v 0.03631906 -0.00066192 -0.00827957
v 0.03615864 -0.00079736 -0.00829588
v 0.00637324 -0.01096253 -0.00171326
v -0.00559051 -0.00031427 0.00565568
v -0.00574121 -0.00031427 0.00609289
v -0.00568773 0.00050291 0.00609289
v -0.00560509 0.00112596 0.00609289
v -0.00550300 0.00153907 0.00609289
v -0.00524049 0.00214180 0.00609289
v -0.00489533 0.00278742 0.00609289
v -0.00398140 0.00425249 0.00631476
v -0.00312095 0.00502001 0.00645995
v -0.00284871 0.00485974 0.00591344
v -0.00312095 0.00502001 0.00657088
v -0.00273690 0.00516675 0.00687106
v -0.00249383 0.00515320 0.00743062
v 0.00747190 0.00917593 0.00576335
v 0.00876502 0.00967482 0.00539792
v 0.02597414 0.00854159 0.00664429
v 0.00960603 0.00736773 0.00728706
v -0.00186672 0.00523447 0.00748609
v 0.02731101 0.00843549 0.00657251
v 0.02742282 0.00930009 0.00588081
v 0.02679085 0.00852805 0.00662798
v 0.02741310 0.01004052 0.00518095
v 0.03467593 0.00592750 -0.00002152
v 0.04219642 -0.00041134 -0.00619466
v 0.04212836 -0.00046101 -0.00701199
v 0.04361107 -0.00478623 -0.00272472
v 0.04202141 -0.00096441 -0.00747530
v 0.04138944 -0.00172968 -0.00749977
v 0.04072343 -0.00188544 -0.00756502
v 0.04193390 -0.00151071 -0.00740678
v 0.03663019 -0.00195091 -0.00808707
v 0.03615864 -0.00155360 -0.00823389
v 0.03615864 -0.00149491 -0.00824531
v 0.03615864 -0.00105471 -0.00829262
v 0.03631906 -0.00097344 -0.00827957
v 0.00656769 -0.01161041 -0.00171326
v -0.00558078 -0.00158295 0.00566220
v -0.00559051 -0.00112695 0.00565242
v -0.00583357 -0.00031427 0.00691021
v -0.00573148 -0.00112695 0.00609289
v -0.00561967 0.00112145 0.00667692
v -0.00474463 0.00337661 0.00732458
v -0.00474463 0.00337661 0.00729032
v -0.00471546 0.00333372 0.00674218
v -0.00397168 0.00424120 0.00691021
v -0.00304316 0.00495229 0.00711739
v -0.00393279 0.00419831 0.00732947
v -0.00186672 0.00460013 0.00765249
v -0.00351471 0.00435633 0.00740941
v -0.00273690 0.00464754 0.00752035
v 0.02597414 0.00787791 0.00699015
v 0.00960603 0.00695462 0.00740778
v 0.02597414 0.00725712 0.00725769
v 0.02679085 0.00787791 0.00694773
v 0.04154014 -0.00059194 0.00738331
v 0.04195335 -0.00072287 0.00731969
v 0.02762700 0.00992088 0.00518095
v 0.03468079 0.00594556 0.00036022
v 0.04219642 -0.00041134 0.00518095
v 0.04382010 -0.00522642 0.00035533
v 0.04362565 -0.00476817 -0.00209664
v 0.04380552 -0.00522642 -0.00002152
v 0.04378121 -0.00522642 -0.00045547
v 0.04373260 -0.00522642 -0.00127769
v 0.04361107 -0.00499391 -0.00272472
v 0.04352842 -0.00525126 -0.00296453
v 0.04309576 -0.00529415 -0.00380959
v 0.04133110 -0.00333019 -0.00668734
v 0.04072343 -0.00277261 -0.00715065
v 0.04072343 -0.00229403 -0.00739373
v 0.03615864 -0.00406611 -0.00744920
v 0.03615864 -0.00360108 -0.00762702
v 0.03615864 -0.00277261 -0.00792556
v 0.04286242 -0.00506615 -0.00426964
v 0.04275061 -0.00561244 -0.00413260
v 0.04198738 -0.00407062 -0.00583576
v 0.04157903 -0.00359657 -0.00637901
v 0.03615864 -0.00194639 -0.00814906
v 0.00713647 -0.01218831 -0.00171326
v 0.00692257 -0.01201901 -0.00171326
v 0.00671840 -0.01180230 -0.00171326
v -0.00396196 -0.00403902 0.00565405
v -0.00402515 -0.00411577 0.00609289
v -0.00562940 -0.00166196 0.00609289
v -0.00582385 -0.00112695 0.00691021
v -0.00568773 -0.00112695 0.00744041
v -0.00567801 -0.00031427 0.00743714
v -0.00560509 0.00025008 0.00737189
v -0.00567801 0.00051646 0.00693468
v -0.00480297 0.00296125 0.00738494
v -0.00433142 0.00296125 0.00754971
v -0.00425364 0.00369942 0.00739473
v -0.00351471 0.00378069 0.00757581
v -0.00351471 0.00296125 0.00765249
v 0.01124430 0.00214180 0.00795429
v 0.01124430 0.00296350 0.00793145
v 0.01042273 0.00377843 0.00789393
v 0.01042273 0.00460013 0.00785804
v 0.01042273 0.00541958 0.00773732
v 0.00960603 0.00623676 0.00757744
v 0.02597414 0.00623902 0.00752035
v 0.02597414 0.00684627 0.00737678
v 0.02679085 0.00680789 0.00736536
v 0.02679085 0.00721649 0.00722996
v 0.03464676 0.00102438 0.00818921
v 0.03494331 0.00045325 0.00824468
v 0.03498706 -0.00031879 0.00832135
v 0.03625587 -0.00069352 0.00815332
v 0.04154014 -0.00091023 0.00738331
v 0.04195335 -0.00072513 0.00731969
v 0.04209433 -0.00105019 0.00689063
v 0.04207488 -0.00056711 0.00691021
v 0.02786034 0.00976963 0.00518095
v 0.03462732 0.00588912 0.00181378
v 0.03468079 0.00594104 0.00117917
v 0.04219156 -0.00041134 0.00608963
v 0.04365482 -0.00473882 0.00117591
v 0.04378608 -0.00522642 0.00117591
v 0.04372288 -0.00587205 0.00117591
v 0.04372773 -0.00608876 0.00028681
v 0.04371801 -0.00610005 -0.00002152
v 0.04370343 -0.00611585 -0.00042937
v 0.04368399 -0.00590591 -0.00127769
v 0.04364023 -0.00574563 -0.00191066
v 0.04364996 -0.00525126 -0.00215047
v 0.04357704 -0.00554021 -0.00245554
v 0.04295478 -0.00583819 -0.00358609
v 0.04154500 -0.00425573 -0.00597606
v 0.04113178 -0.00481557 -0.00578356
v 0.04080608 -0.00449051 -0.00612288
v 0.04072343 -0.00389229 -0.00654541
v 0.04072343 -0.00348144 -0.00677054
v 0.03615864 -0.00445890 -0.00725669
v 0.03629962 -0.00403451 -0.00743778
v 0.00765663 -0.01236439 -0.00171326
v 0.00733092 -0.01231021 -0.00171326
v 0.04240545 -0.00606619 -0.00376065
v 0.04220614 -0.00575015 -0.00427616
v 0.04154500 -0.00511130 -0.00528272
v 0.04209919 -0.00495779 -0.00511632
v 0.04154500 -0.00466658 -0.00569057
v 0.00726286 -0.01234408 -0.00127769
v 0.00685451 -0.01208447 -0.00127769
v -0.00404946 -0.00415415 0.00691021
v -0.00443351 -0.00358754 0.00691021
v 0.00678159 -0.01215445 -0.00045873
v -0.00354874 -0.00456274 0.00691021
v -0.00564884 -0.00168904 0.00691021
v -0.00560995 -0.00162132 0.00737515
v -0.00515298 -0.00191704 0.00748445
v -0.00514812 -0.00112695 0.00760518
v -0.00514812 -0.00031427 0.00760191
v -0.00490992 0.00214180 0.00746488
v -0.00433142 0.00214180 0.00762965
v -0.00433142 0.00132461 0.00765086
v -0.00433142 -0.00112695 0.00765086
v -0.00433142 -0.00194865 0.00764922
v 0.03416063 -0.00031879 0.00837029
v 0.03416063 0.00050291 0.00832298
v 0.02597414 0.00541958 0.00768185
v 0.02679085 0.00623902 0.00749261
v 0.03416063 0.00113273 0.00819900
v 0.03579890 -0.00098473 0.00818758
v 0.03625587 -0.00082671 0.00815332
v 0.03416063 -0.00112695 0.00830667
v 0.03663019 -0.00195316 0.00791514
v 0.04054356 -0.00165970 0.00736863
v 0.04108803 -0.00151522 0.00730990
v 0.04197766 -0.00403225 0.00570625
v 0.04284297 -0.00495779 0.00422496
v 0.04116095 -0.00320603 0.00651868
v 0.04352842 -0.00522642 0.00221673
v 0.04366454 -0.00522642 0.00180725
v 0.04231795 -0.00113146 0.00608963
v 0.04363537 -0.00476365 0.00174689
v 0.04364510 -0.00574337 0.00171916
v 0.04343606 -0.00628290 0.00117591
v 0.04364023 -0.00608876 0.00090184
v 0.04359648 -0.00646124 -0.00002642
v 0.04359648 -0.00646124 -0.00013409
v 0.04357704 -0.00643415 -0.00068386
v 0.04347009 -0.00631676 -0.00127769
v 0.04302770 -0.00610230 -0.00282423
v 0.04260477 -0.00638448 -0.00305752
v 0.04083524 -0.00527383 -0.00542465
v 0.03990673 -0.00547700 -0.00561389
v 0.04058731 -0.00493070 -0.00588144
v 0.04154500 -0.00534155 -0.00503638
v 0.03990673 -0.00506615 -0.00597443
v 0.03995534 -0.00437312 -0.00642143
v 0.03615864 -0.00517225 -0.00682601
v 0.00796290 -0.01239600 -0.00171326
v 0.00796290 -0.01245920 -0.00127769
v 0.04206030 -0.00649961 -0.00338543
v 0.04154014 -0.00610230 -0.00413913
v 0.04154014 -0.00587205 -0.00443114
v 0.04055329 -0.00574112 -0.00503638
v 0.04053870 -0.00572080 -0.00506738
v 0.04108803 -0.00561696 -0.00494176
v 0.04154014 -0.00552215 -0.00483899
v 0.00718994 -0.01235536 -0.00045873
v 0.00796290 -0.01248855 -0.00045873
v -0.00399599 -0.00409320 0.00739310
v 0.00681562 -0.01214994 0.00036022
v -0.00311608 -0.00482460 0.00732947
v -0.00488075 -0.00259427 0.00742899
v -0.00415641 -0.00358754 0.00745835
v -0.00351471 -0.00358754 0.00762475
v -0.00351471 -0.00276583 0.00765249
v -0.00269315 -0.00358754 0.00765249
v -0.00186672 -0.00440698 0.00765086
v 0.03252236 -0.00112695 0.00831483
v 0.03334393 -0.00112695 0.00832625
v 0.03504053 -0.00119918 0.00822510
v 0.03409743 -0.00194413 0.00819247
v 0.03579890 -0.00139332 0.00811743
v 0.03334393 -0.00194639 0.00823652
v 0.03579890 -0.00194639 0.00801139
v 0.03498706 -0.00276583 0.00793145
v 0.03498706 -0.00358528 0.00773895
v 0.04077691 -0.00193962 0.00720549
v 0.03498706 -0.00427605 0.00747467
v 0.04072343 -0.00277261 0.00685474
v 0.04215753 -0.00496231 0.00498029
v 0.04154014 -0.00414963 0.00578129
v 0.04154014 -0.00455823 0.00551375
v 0.04238601 -0.00523320 0.00445661
v 0.04261935 -0.00550409 0.00391500
v 0.04285756 -0.00572983 0.00337012
v 0.04072343 -0.00330987 0.00658230
v 0.04072343 -0.00372072 0.00631802
v 0.04299854 -0.00590365 0.00281055
v 0.04323188 -0.00608876 0.00204217
v 0.04275547 -0.00644769 0.00238476
v 0.04290617 -0.00654024 0.00183499
v 0.04351870 -0.00638900 0.00051683
v 0.04302770 -0.00660797 0.00117591
v 0.04359162 -0.00646349 -0.00002152
v 0.04236170 -0.00704139 0.00035533
v 0.04325619 -0.00662151 -0.00042937
v 0.04236170 -0.00693304 -0.00127769
v 0.04305687 -0.00660120 -0.00127769
v 0.04277492 -0.00645898 -0.00251264
v 0.04113665 -0.00727842 -0.00251101
v 0.04103942 -0.00555149 -0.00503638
v 0.03990673 -0.00582013 -0.00520605
v 0.03149662 -0.00976610 -0.00171326
v 0.02487062 -0.01056749 -0.00171326
v 0.01762723 -0.01140273 -0.00171326
v 0.01205614 -0.01200998 -0.00171326
v 0.01019425 -0.01220637 -0.00171326
v 0.01069983 -0.01218154 -0.00150445
v 0.00960603 -0.01230344 -0.00127769
v 0.01042273 -0.01227635 -0.00045873
v 0.00960603 -0.01235085 -0.00045873
v 0.00878446 -0.01242083 -0.00045873
v 0.04072343 -0.00736420 -0.00264641
v 0.04072343 -0.00711589 -0.00305752
v 0.04154014 -0.00658314 -0.00349963
v 0.04154014 -0.00628064 -0.00391073
v 0.00720453 -0.01233956 -0.00002152
v 0.00796776 -0.01243437 0.00036022
v 0.00751565 -0.01221089 0.00328039
v 0.00745732 -0.01223572 0.00281545
v 0.00722397 -0.01232602 0.00036022
v 0.01042273 -0.01227861 0.00036022
v 0.00960603 -0.01233730 0.00036022
v -0.00343693 -0.00437989 0.00743551
v 0.00689340 -0.01210705 0.00117917
v -0.00269315 -0.00492167 0.00740941
v -0.00148268 -0.00564405 0.00733274
v -0.00269315 -0.00440698 0.00757418
v -0.00105488 -0.00522417 0.00755297
v -0.00023331 -0.00522417 0.00758723
v 0.00905184 -0.00899180 0.00734905
v 0.00960117 -0.00850194 0.00742736
v 0.03252236 -0.00194639 0.00824468
v 0.03378145 -0.00237079 0.00814353
v 0.00960117 -0.00900535 0.00735721
v 0.03252236 -0.00245205 0.00816474
v 0.03334393 -0.00241368 0.00815332
v 0.03416063 -0.00358528 0.00783194
v 0.03418494 -0.00447245 0.00750403
v 0.03447176 -0.00479300 0.00730174
v 0.03498706 -0.00468690 0.00724301
v 0.04154014 -0.00511807 0.00510427
v 0.04108803 -0.00561922 0.00484488
v 0.04154014 -0.00552892 0.00471927
v 0.04207002 -0.00569823 0.00414013
v 0.04066510 -0.00442730 0.00587102
v 0.04089844 -0.00471173 0.00561000
v 0.04235198 -0.00587205 0.00363929
v 0.04291589 -0.00608876 0.00266862
v 0.03949351 -0.00399613 0.00650073
v 0.04239087 -0.00608876 0.00326244
v 0.04243462 -0.00632127 0.00285623
v 0.04157903 -0.00626935 0.00364745
v 0.04100053 -0.00638900 0.00392805
v 0.04133110 -0.00654024 0.00338317
v 0.04157903 -0.00669826 0.00285623
v 0.04098595 -0.00721747 0.00228035
v 0.04129707 -0.00734840 0.00173547
v 0.04243462 -0.00670504 0.00206338
v 0.04184640 -0.00722650 0.00117591
v 0.04236170 -0.00696915 0.00117591
v 0.04190474 -0.00725359 0.00035533
v 0.04143805 -0.00742064 0.00117591
v 0.04236170 -0.00703462 -0.00045547
v 0.04177348 -0.00719715 -0.00127769
v 0.04122901 -0.00731680 -0.00209664
v 0.04163736 -0.00712266 -0.00209664
v 0.04236170 -0.00676599 -0.00209664
v 0.04072343 -0.00751771 -0.00209664
v 0.04088872 -0.00638448 -0.00404124
v 0.04034425 -0.00646575 -0.00415544
v 0.03990673 -0.00594203 -0.00503638
v 0.03190983 -0.00968483 -0.00171326
v 0.03200706 -0.00971644 -0.00151750
v 0.03172510 -0.00979093 -0.00125811
v 0.03088895 -0.00991058 -0.00127769
v 0.03007225 -0.01001216 -0.00127769
v 0.02539564 -0.01053362 -0.00154034
v 0.03990673 -0.00623098 -0.00462854
v 0.02187118 -0.01098737 -0.00127769
v 0.01813767 -0.01136436 -0.00159417
v 0.01119082 -0.01214768 -0.00124995
v 0.02105933 -0.01107766 -0.00127769
v 0.01205614 -0.01205287 -0.00127769
v 0.01103040 -0.01221315 -0.00045873
v 0.01206100 -0.01214317 0.00036022
v 0.03547319 -0.00895117 -0.00171326
v 0.03498220 -0.00907307 -0.00171326
v 0.04066023 -0.00666214 -0.00375738
v 0.00796776 -0.01234633 0.00158049
v 0.00796776 -0.01231473 0.00199649
v 0.00774900 -0.01221089 0.00328039
v 0.00878446 -0.01123342 0.00537997
v 0.00845389 -0.01132598 0.00518095
v 0.00811846 -0.01141853 0.00497539
v 0.00757399 -0.01136661 0.00485630
v 0.01104984 -0.01220412 0.00095241
v 0.00960603 -0.01227635 0.00117917
v -0.00179866 -0.00522191 0.00745998
v -0.00105488 -0.00569371 0.00738657
v 0.00810388 -0.01075485 0.00592812
v 0.00820110 -0.00996475 0.00668834
v 0.00878446 -0.01005054 0.00677644
v 0.00877960 -0.00928978 0.00718265
v 0.00960117 -0.00941394 0.00713697
v 0.01013105 -0.00895117 0.00733926
v 0.03334393 -0.00490813 0.00737352
v 0.03334393 -0.00440472 0.00759213
v 0.03334393 -0.00282001 0.00805381
v 0.03392729 -0.00485846 0.00734742
v 0.03481691 -0.00572757 0.00656762
v 0.03504539 -0.00530092 0.00680417
v 0.03231332 -0.00649961 0.00653825
v 0.03285779 -0.00643415 0.00648605
v 0.03416063 -0.00624452 0.00635554
v 0.03916780 -0.00439569 0.00633107
v 0.03894905 -0.00411352 0.00657088
v 0.04035397 -0.00483363 0.00569320
v 0.04071857 -0.00522642 0.00527067
v 0.04045606 -0.00651767 0.00412871
v 0.03990673 -0.00532801 0.00543381
v 0.04054356 -0.00571854 0.00492808
v 0.03416063 -0.00720844 0.00561652
v 0.04154014 -0.00583819 0.00430816
v 0.04072343 -0.00665763 0.00364745
v 0.04071857 -0.00707751 0.00278934
v 0.04044148 -0.00732131 0.00250385
v 0.04071857 -0.00744547 0.00200302
v 0.04072343 -0.00769604 0.00117591
v 0.04149638 -0.00743870 0.00035533
v 0.04145263 -0.00740484 -0.00045547
v 0.04136513 -0.00737098 -0.00127769
v 0.04072343 -0.00761478 -0.00127769
v 0.03559472 -0.00899632 -0.00127769
v 0.03498220 -0.00915660 -0.00127769
v 0.03217234 -0.00974578 -0.00097262
v 0.03334879 -0.00948166 -0.00127769
v 0.03170566 -0.00985640 -0.00045873
v 0.03088895 -0.00997830 -0.00045873
v 0.02569219 -0.01056974 -0.00099383
v 0.02269760 -0.01089030 -0.00127769
v 0.02187118 -0.01105283 -0.00045873
v 0.02105933 -0.01114313 -0.00045873
v 0.01205614 -0.01210479 -0.00045873
v 0.01287771 -0.01205738 0.00036022
v 0.01206100 -0.01209350 0.00117917
v 0.00878446 -0.01226507 0.00199649
v 0.00799693 -0.01224024 0.00285460
v 0.00878446 -0.01196032 0.00363277
v 0.00878446 -0.01163299 0.00445335
v 0.00878446 -0.01141628 0.00497050
v 0.00878446 -0.01132372 0.00518095
v 0.00925115 -0.01219734 0.00244512
v 0.00828861 -0.01218154 0.00315314
v 0.03040768 -0.00972547 0.00236682
v 0.02986321 -0.00975933 0.00247612
v 0.02925068 -0.00979996 0.00258216
v 0.00878446 -0.01082483 0.00600969
v 0.03137022 -0.00893085 0.00406508
v 0.01129291 -0.01216348 0.00120691
v 0.01071927 -0.01218380 0.00149729
v 0.00878446 -0.01046139 0.00642080
v 0.00960117 -0.00997378 0.00673076
v 0.03504539 -0.00601878 0.00628702
v 0.03536624 -0.00562147 0.00649421
v 0.03416063 -0.00679759 0.00594770
v 0.03170566 -0.00695561 0.00622503
v 0.03311544 -0.00730100 0.00570788
v 0.03365505 -0.00725585 0.00566547
v 0.03990673 -0.00491716 0.00575845
v 0.03429675 -0.00751319 0.00518095
v 0.03535652 -0.00808658 0.00403082
v 0.03498706 -0.00664634 0.00583024
v 0.03283349 -0.00807981 0.00483999
v 0.03411202 -0.00756286 0.00518095
v 0.03416549 -0.00755157 0.00518095
v 0.03500650 -0.00876832 0.00278282
v 0.03528846 -0.00889022 0.00228688
v 0.04072343 -0.00772765 0.00035533
v 0.03543430 -0.00893988 0.00174200
v 0.03498220 -0.00911822 0.00117917
v 0.03498220 -0.00918594 0.00036022
v 0.03498220 -0.00922658 -0.00045873
v 0.04072343 -0.00770282 -0.00002152
v 0.03334879 -0.00955616 -0.00045873
v 0.03225985 -0.00976159 -0.00045873
v 0.03266820 -0.00968483 -0.00045873
v 0.03170566 -0.00986317 -0.00002152
v 0.03088895 -0.00998959 0.00036022
v 0.03007225 -0.01008440 -0.00002152
v 0.02761241 -0.01038915 0.00036022
v 0.02761241 -0.01037560 -0.00045873
v 0.02269760 -0.01095576 -0.00045873
v 0.02351431 -0.01087224 0.00036022
v 0.02269274 -0.01096705 0.00036022
v 0.01287771 -0.01200546 0.00117917
v 0.00960603 -0.01185873 0.00363277
v 0.02797701 -0.00972772 0.00321024
v 0.01123944 -0.01205287 0.00199649
v 0.02269274 -0.01089481 0.00117917
v 0.02106419 -0.01092642 0.00199649
v 0.02376710 -0.01053362 0.00232114
v 0.03088895 -0.00978190 0.00181704
v 0.03088895 -0.00969386 0.00222652
v 0.03170566 -0.00936879 0.00281545
v 0.03088895 -0.00949521 0.00281545
v 0.02761241 -0.01014986 0.00199649
v 0.02842426 -0.01005054 0.00199649
v 0.02925068 -0.00994895 0.00199649
v 0.03088895 -0.00864868 0.00451861
v 0.03088409 -0.00823783 0.00504065
v 0.03006253 -0.00829878 0.00512059
v 0.03006253 -0.00824911 0.00518095
v 0.03006253 -0.00795565 0.00553006
v 0.03088895 -0.00917014 0.00363277
v 0.03166677 -0.00904147 0.00365887
v 0.03306683 -0.00893988 0.00328365
v 0.03191955 -0.00887216 0.00394925
v 0.03416549 -0.00794210 0.00463443
v 0.03334393 -0.00803014 0.00476494
v 0.03228902 -0.00812495 0.00489872
v 0.03170566 -0.00741161 0.00581718
v 0.03088409 -0.00812044 0.00518095
v 0.03504539 -0.00832135 0.00370781
v 0.03416549 -0.00883153 0.00303079
v 0.03473913 -0.00894891 0.00248917
v 0.03416549 -0.00917691 0.00199649
v 0.03500650 -0.00900309 0.00200628
v 0.03416549 -0.00929656 0.00117917
v 0.03416549 -0.00936428 0.00036022
v 0.03334393 -0.00954262 0.00036022
v 0.03267792 -0.00968258 0.00036022
v 0.03226471 -0.00976610 0.00036022
v 0.03245916 -0.00972772 -0.00002152
v 0.03226471 -0.00976384 -0.00002152
v 0.03170566 -0.00986768 0.00036022
v 0.03218693 -0.00975030 0.00086268
v 0.03088895 -0.00990380 0.00117917
v 0.02577483 -0.01057877 0.00090999
v 0.02514772 -0.01068036 0.00036022
v 0.02586233 -0.01059006 -0.00002152
v 0.02351431 -0.01079774 0.00117917
v 0.02480742 -0.01056071 0.00162454
v 0.03138481 -0.00975030 0.00166206
v 0.03168135 -0.00963291 0.00195897
v 0.03252236 -0.00922432 0.00281545
v 0.02679085 -0.01040721 0.00117917
v 0.03416549 -0.00900309 0.00262131
v 0.03252236 -0.00947489 0.00199649
v 0.03334393 -0.00933042 0.00199649
v 0.03193414 -0.00970289 0.00140757
v 0.03168135 -0.00979093 0.00115144
v 0.02510882 -0.01060812 0.00118243
f 1 2 3
f 1 3 4
f 1 4 5
f 1 5 6
f 1 6 7
f 1 7 8
f 1 8 9
f 1 9 10
f 1 10 11
f 1 11 12
f 1 12 2
f 2 13 14
f 2 14 15
f 2 15 3
f 2 12 13
f 3 15 4
f 4 16 5
f 4 15 17
f 4 17 18
f 4 18 19
f 4 19 16
f 5 16 7
f 5 7 6
f 7 16 20
f 7 20 8
f 8 21 22
f 8 22 10
f 8 10 9
f 8 20 21
f 10 22 23
f 10 23 24
f 10 24 11
f 11 24 25
f 11 25 26
f 11 26 12
f 12 27 28
f 12 28 29
f 12 29 30
f 12 30 31
f 12 31 32
f 12 32 33
f 12 33 34
f 12 34 35
f 12 35 36
f 12 36 37
f 12 37 13
f 12 26 27
f 13 37 14
f 14 37 36
f 14 36 38
f 14 38 39
f 14 39 15
f 15 39 17
f 16 40 20
f 16 19 41
f 16 41 40
f 17 39 18
f 18 42 43
f 18 43 19
f 18 39 42
f 19 43 41
f 20 40 21
f 21 40 44
f 21 44 22
f 22 44 45
f 22 45 46
f 22 46 23
f 23 46 47
f 23 47 48
f 23 48 49
f 23 49 24
f 24 49 25
f 25 50 51
f 25 51 52
f 25 52 53
f 25 53 26
f 25 49 50
f 26 53 54
f 26 54 91
f 26 91 55
f 26 55 56
f 26 56 27
f 27 56 28
f 28 57 58
f 28 58 59
f 28 59 60
f 28 60 61
f 28 61 62
f 28 62 29
f 28 56 57
f 29 62 63
f 29 63 30
f 30 63 64
f 30 64 65
f 30 65 66
f 30 66 31
f 31 66 65
f 31 65 32
f 32 65 33
f 33 65 67
f 33 67 68
f 33 68 69
f 33 69 34
f 34 69 70
f 34 70 42
f 34 42 35
f 35 42 71
f 35 71 36
f 36 71 38
f 38 71 39
f 39 71 42
f 40 72 44
f 40 41 73
f 40 73 72
f 41 43 74
f 41 74 73
f 42 70 69
f 42 69 74
f 42 74 43
f 44 75 76
f 44 76 45
f 44 72 77
f 44 77 75
f 45 76 46
f 46 76 78
f 46 78 47
f 47 78 48
f 48 78 49
f 49 78 79
f 49 79 80
f 49 80 81
f 49 81 50
f 50 81 51
f 51 81 82
f 51 82 121
f 51 121 83
f 51 83 52
f 52 84 85
f 52 85 53
f 52 83 86
f 52 86 84
f 53 85 87
f 53 87 88
f 53 88 89
f 53 89 90
f 53 90 91
f 53 91 54
f 55 91 90
f 55 90 56
f 56 90 92
f 56 92 93
f 56 93 94
f 56 94 57
f 57 94 58
f 58 95 59
f 58 94 96
f 58 96 141
f 58 141 95
f 59 95 60
f 60 95 97
f 60 97 61
f 61 97 98
f 61 98 99
f 61 99 62
f 62 99 100
f 62 100 63
f 63 100 64
f 64 101 67
f 64 67 65
f 64 100 99
f 64 99 98
f 64 98 101
f 67 102 68
f 67 101 103
f 67 103 102
f 68 102 69
f 69 104 74
f 69 102 103
f 69 103 105
f 69 105 106
f 69 106 104
f 72 107 77
f 72 73 107
f 73 74 108
f 73 108 109
f 73 109 107
f 74 104 108
f 75 77 110
f 75 110 111
f 75 111 112
f 75 112 76
f 76 113 78
f 76 112 113
f 77 107 110
f 78 113 114
f 78 114 79
f 79 114 80
f 80 115 116
f 80 116 117
f 80 117 82
f 80 82 81
f 80 114 115
f 82 117 116
f 82 116 118
f 82 118 119
f 82 119 120
f 82 120 121
f 83 121 122
f 83 122 123
f 83 123 86
f 84 124 125
f 84 125 126
f 84 126 85
f 84 86 124
f 85 126 127
f 85 127 128
f 85 128 129
f 85 129 87
f 86 123 130
f 86 130 131
f 86 131 132
f 86 132 133
f 86 133 124
f 87 129 134
f 87 134 88
f 88 134 135
f 88 135 89
f 89 135 136
f 89 136 137
f 89 137 92
f 89 92 90
f 92 137 138
f 92 138 93
f 93 139 140
f 93 140 96
f 93 96 94
f 93 138 139
f 95 141 142
f 95 142 143
f 95 143 144
f 95 144 145
f 95 145 97
f 96 140 141
f 97 145 144
f 97 144 98
f 98 146 147
f 98 147 148
f 98 148 103
f 98 103 101
f 98 144 146
f 103 148 105
f 104 106 149
f 104 149 150
f 104 150 151
f 104 151 152
f 104 152 153
f 104 153 154
f 104 154 155
f 104 155 156
f 104 156 108
f 105 148 149
f 105 149 106
f 107 109 110
f 108 156 157
f 108 157 158
f 108 158 109
f 109 158 159
f 109 159 160
f 109 160 110
f 110 160 161
f 110 161 111
f 111 161 162
f 111 162 163
f 111 163 164
f 111 164 220
f 111 220 165
f 111 165 166
f 111 166 112
f 112 166 167
f 112 167 168
f 112 168 169
f 112 169 113
f 113 169 170
f 113 170 171
f 113 171 114
f 114 171 172
f 114 172 115
f 115 172 173
f 115 173 116
f 116 173 174
f 116 174 175
f 116 175 176
f 116 176 177
f 116 177 178
f 116 178 118
f 118 178 179
f 118 179 119
f 119 179 120
f 120 179 180
f 120 180 181
f 120 181 121
f 121 181 180
f 121 180 182
f 121 182 122
f 122 182 183
f 122 183 123
f 123 183 131
f 123 131 130
f 124 133 184
f 124 184 185
f 124 185 186
f 124 186 187
f 124 187 188
f 124 188 125
f 125 188 189
f 125 189 126
f 126 189 190
f 126 190 127
f 127 190 189
f 127 189 191
f 127 191 192
f 127 192 128
f 128 192 129
f 129 192 134
f 131 193 194
f 131 194 195
f 131 195 196
f 131 196 132
f 131 183 193
f 132 196 197
f 132 197 184
f 132 184 133
f 134 192 135
f 135 192 198
f 135 198 199
f 135 199 136
f 136 199 139
f 136 139 138
f 136 138 137
f 139 200 201
f 139 201 140
f 139 199 202
f 139 202 203
f 139 203 200
f 140 204 141
f 140 201 204
f 141 204 205
f 141 205 142
f 142 205 206
f 142 206 207
f 142 207 208
f 142 208 143
f 143 208 209
f 143 209 146
f 143 146 144
f 146 209 147
f 147 210 149
f 147 149 148
f 147 209 210
f 149 210 150
f 150 210 211
f 150 211 151
f 151 211 212
f 151 212 213
f 151 213 214
f 151 214 152
f 152 214 153
f 153 214 154
f 154 214 215
f 154 215 216
f 154 216 155
f 155 216 157
f 155 157 156
f 157 216 217
f 157 217 159
f 157 159 158
f 159 217 218
f 159 218 161
f 159 161 160
f 161 218 215
f 161 215 162
f 162 215 163
f 163 219 220
f 163 220 164
f 163 215 214
f 163 214 221
f 163 221 219
f 165 220 222
f 165 222 223
f 165 223 224
f 165 224 166
f 166 225 226
f 166 226 167
f 166 224 227
f 166 227 225
f 167 226 228
f 167 228 229
f 167 229 168
f 168 229 230
f 168 230 172
f 168 172 169
f 169 172 170
f 170 172 171
f 172 230 231
f 172 231 173
f 173 231 174
f 174 231 229
f 174 229 232
f 174 232 175
f 175 232 233
f 175 233 234
f 175 234 235
f 175 235 176
f 176 235 236
f 176 236 177
f 177 236 178
f 178 236 237
f 178 237 179
f 179 237 180
f 180 237 238
f 180 238 183
f 180 183 182
f 183 238 239
f 183 239 240
f 183 240 193
f 184 197 185
f 185 241 242
f 185 242 243
f 185 243 186
f 185 197 196
f 185 196 195
f 185 195 244
f 185 244 241
f 186 243 245
f 186 245 187
f 187 245 246
f 187 246 247
f 187 247 189
f 187 189 188
f 189 247 248
f 189 248 191
f 191 248 249
f 191 249 198
f 191 198 192
f 193 240 250
f 193 250 194
f 194 250 251
f 194 251 252
f 194 252 253
f 194 253 254
f 194 254 255
f 194 255 256
f 194 256 244
f 194 244 195
f 198 257 202
f 198 202 199
f 198 249 258
f 198 258 257
f 200 203 259
f 200 259 201
f 201 259 205
f 201 205 204
f 202 257 260
f 202 260 203
f 203 260 261
f 203 261 259
f 205 259 262
f 205 262 206
f 206 262 263
f 206 263 264
f 206 264 207
f 207 213 212
f 207 212 211
f 207 211 208
f 207 264 213
f 208 211 210
f 208 210 209
f 213 264 265
f 213 265 214
f 214 265 266
f 214 266 267
f 214 267 268
f 214 268 269
f 214 269 221
f 215 218 217
f 215 217 216
f 219 221 270
f 219 270 271
f 219 271 272
f 219 272 222
f 219 222 220
f 221 269 273
f 221 273 271
f 221 271 270
f 222 272 274
f 222 274 275
f 222 275 276
f 222 276 223
f 223 277 224
f 223 276 278
f 223 278 277
f 224 277 279
f 224 279 227
f 225 280 226
f 225 227 281
f 225 281 282
f 225 282 280
f 226 280 283
f 226 283 284
f 226 284 285
f 226 285 232
f 226 232 228
f 227 279 286
f 227 286 287
f 227 287 282
f 227 282 281
f 228 232 229
f 229 231 230
f 232 285 288
f 232 288 289
f 232 289 233
f 233 289 290
f 233 290 291
f 233 291 292
f 233 292 234
f 234 292 235
f 235 292 293
f 235 293 294
f 235 294 295
f 235 295 296
f 235 296 236
f 236 296 237
f 237 296 297
f 237 297 298
f 237 298 299
f 237 299 238
f 238 299 239
f 239 299 240
f 240 299 300
f 240 300 250
f 241 244 301
f 241 301 242
f 242 302 247
f 242 247 245
f 242 245 243
f 242 301 254
f 242 254 302
f 244 256 255
f 244 255 301
f 245 247 246
f 247 302 303
f 247 303 304
f 247 304 305
f 247 305 306
f 247 306 307
f 247 307 248
f 248 307 249
f 249 307 308
f 249 308 309
f 249 309 310
f 249 310 311
f 249 311 312
f 249 312 258
f 250 300 313
f 250 313 314
f 250 314 315
f 250 315 316
f 250 316 251
f 251 316 253
f 251 253 252
f 253 316 302
f 253 302 254
f 254 301 255
f 257 258 317
f 257 317 260
f 258 318 319
f 258 319 320
f 258 320 321
f 258 321 317
f 258 312 322
f 258 322 323
f 258 323 318
f 259 263 262
f 259 261 324
f 259 324 264
f 259 264 263
f 260 325 261
f 260 317 321
f 260 321 320
f 260 320 325
f 261 326 324
f 261 325 319
f 261 319 327
f 261 327 326
f 264 324 328
f 264 328 267
f 264 267 266
f 264 266 265
f 267 328 329
f 267 329 330
f 267 330 331
f 267 331 332
f 267 332 269
f 267 269 268
f 269 332 333
f 269 333 273
f 271 273 334
f 271 334 274
f 271 274 272
f 273 333 335
f 273 335 336
f 273 336 337
f 273 337 334
f 274 334 275
f 275 334 338
f 275 338 276
f 276 338 339
f 276 339 278
f 277 278 279
f 278 339 340
f 278 340 341
f 278 341 286
f 278 286 279
f 280 282 342
f 280 342 343
f 280 343 344
f 280 344 345
f 280 345 283
f 282 287 346
f 282 346 347
f 282 347 342
f 283 345 284
f 284 345 348
f 284 348 285
f 285 348 290
f 285 290 349
f 285 349 288
f 286 341 350
f 286 350 287
f 287 350 346
f 288 349 289
f 289 349 290
f 290 348 351
f 290 351 352
f 290 352 353
f 290 353 354
f 290 354 355
f 290 355 356
f 290 356 357
f 290 357 358
f 290 358 359
f 290 359 291
f 291 293 292
f 291 359 358
f 291 358 360
f 291 360 361
f 291 361 293
f 293 361 294
f 294 361 360
f 294 360 295
f 295 362 296
f 295 360 363
f 295 363 362
f 296 362 364
f 296 364 297
f 297 364 365
f 297 365 366
f 297 366 367
f 297 367 298
f 298 367 368
f 298 368 299
f 299 368 300
f 300 367 366
f 300 366 369
f 300 369 313
f 300 368 367
f 302 316 370
f 302 370 371
f 302 371 372
f 302 372 303
f 303 373 374
f 303 374 375
f 303 375 376
f 303 376 377
f 303 377 378
f 303 378 304
f 303 372 379
f 303 379 371
f 303 371 314
f 303 314 373
f 304 378 380
f 304 380 381
f 304 381 305
f 305 381 306
f 306 381 308
f 306 308 307
f 308 382 310
f 308 310 309
f 308 381 383
f 308 383 384
f 308 384 382
f 310 382 385
f 310 385 386
f 310 386 311
f 311 386 312
f 312 386 322
f 313 369 387
f 313 387 388
f 313 388 314
f 314 388 373
f 314 371 389
f 314 389 315
f 315 389 370
f 315 370 316
f 318 390 319
f 318 323 390
f 319 390 391
f 319 391 392
f 319 392 393
f 319 393 394
f 319 394 395
f 319 395 396
f 319 396 327
f 319 325 320
f 322 397 323
f 322 386 397
f 323 397 398
f 323 398 390
f 324 326 328
f 326 327 399
f 326 399 328
f 327 400 399
f 327 396 401
f 327 401 402
f 327 402 403
f 327 403 400
f 328 399 329
f 329 399 400
f 329 400 331
f 329 331 330
f 331 404 335
f 331 335 332
f 331 400 404
f 332 335 333
f 334 337 338
f 335 404 403
f 335 403 405
f 335 405 406
f 335 406 407
f 335 407 339
f 335 339 408
f 335 408 338
f 335 338 409
f 335 409 337
f 335 337 336
f 337 409 338
f 338 408 339
f 339 407 410
f 339 410 340
f 340 411 412
f 340 412 341
f 340 410 413
f 340 413 414
f 340 414 415
f 340 415 411
f 341 412 416
f 341 416 417
f 341 417 350
f 342 347 418
f 342 418 419
f 342 419 343
f 343 420 344
f 343 419 421
f 343 421 422
f 343 422 423
f 343 423 420
f 344 420 424
f 344 424 345
f 345 424 420
f 345 420 354
f 345 354 353
f 345 353 348
f 346 350 418
f 346 418 347
f 348 353 351
f 350 417 416
f 350 416 418
f 351 353 352
f 354 420 355
f 355 420 425
f 355 425 356
f 356 425 426
f 356 426 357
f 357 426 427
f 357 427 428
f 357 428 358
f 358 428 429
f 358 429 363
f 358 363 360
f 362 363 430
f 362 430 364
f 363 429 430
f 364 430 431
f 364 431 432
f 364 432 365
f 365 432 366
f 366 432 369
f 369 432 433
f 369 433 434
f 369 434 435
f 369 435 387
f 370 389 371
f 371 379 372
f 373 388 374
f 374 436 375
f 374 388 435
f 374 435 437
f 374 437 436
f 375 436 438
f 375 438 439
f 375 439 376
f 376 439 377
f 377 439 440
f 377 440 441
f 377 441 378
f 378 441 380
f 380 441 440
f 380 440 442
f 380 442 443
f 380 443 383
f 380 383 381
f 382 384 443
f 382 443 444
f 382 444 385
f 383 443 384
f 385 444 445
f 385 445 386
f 386 445 446
f 386 446 397
f 387 435 388
f 390 447 391
f 390 398 447
f 391 447 448
f 391 448 392
f 392 449 450
f 392 450 451
f 392 451 452
f 392 452 393
f 392 448 453
f 392 453 454
f 392 454 455
f 392 455 456
f 392 456 457
f 392 457 449
f 393 458 394
f 393 452 459
f 393 459 458
f 394 458 395
f 395 458 401
f 395 401 396
f 397 460 461
f 397 461 398
f 397 446 460
f 398 461 447
f 400 403 404
f 401 458 462
f 401 462 402
f 402 462 403
f 403 462 463
f 403 463 413
f 403 413 405
f 405 413 410
f 405 410 406
f 406 410 407
f 411 464 465
f 411 465 416
f 411 416 412
f 411 415 466
f 411 466 464
f 413 467 468
f 413 468 469
f 413 469 423
f 413 423 466
f 413 466 414
f 413 463 462
f 413 462 467
f 414 466 415
f 416 470 418
f 416 465 470
f 418 470 421
f 418 421 419
f 420 471 472
f 420 472 427
f 420 427 425
f 420 423 471
f 421 470 473
f 421 473 422
f 422 473 423
f 423 469 474
f 423 474 475
f 423 475 476
f 423 476 471
f 423 473 466
f 425 427 426
f 427 472 477
f 427 477 478
f 427 478 428
f 428 478 429
f 429 479 430
f 429 478 480
f 429 480 481
f 429 481 482
f 429 482 483
f 429 483 479
f 430 479 431
f 431 479 484
f 431 484 433
f 431 433 432
f 433 484 483
f 433 483 434
f 434 483 435
f 435 483 485
f 435 485 436
f 435 436 437
f 436 486 438
f 436 485 487
f 436 487 486
f 438 486 488
f 438 488 439
f 439 489 490
f 439 490 491
f 439 491 492
f 439 492 440
f 439 488 489
f 440 492 493
f 440 493 442
f 442 493 494
f 442 494 495
f 442 495 443
f 443 445 444
f 443 495 445
f 445 495 496
f 445 496 446
f 446 496 453
f 446 453 461
f 446 461 460
f 447 461 453
f 447 453 448
f 449 457 497
f 449 497 450
f 450 497 498
f 450 498 451
f 451 498 459
f 451 459 452
f 453 496 499
f 453 499 454
f 454 499 500
f 454 500 501
f 454 501 502
f 454 502 455
f 455 503 504
f 455 504 505
f 455 505 506
f 455 506 456
f 455 502 507
f 455 507 508
f 455 508 509
f 455 509 503
f 456 506 457
f 457 506 498
f 457 498 497
f 458 459 510
f 458 510 511
f 458 511 512
f 458 512 513
f 458 513 514
f 458 514 462
f 459 498 515
f 459 515 506
f 459 506 505
f 459 505 516
f 459 516 517
f 459 517 518
f 459 518 472
f 459 472 519
f 459 519 520
f 459 520 474
f 459 474 521
f 459 521 511
f 459 511 510
f 462 514 468
f 462 468 522
f 462 522 467
f 464 470 465
f 464 466 470
f 466 473 470
f 467 522 468
f 468 514 469
f 469 514 523
f 469 523 521
f 469 521 474
f 471 476 472
f 472 476 519
f 472 518 524
f 472 524 477
f 474 520 475
f 475 520 476
f 476 520 519
f 477 524 525
f 477 525 526
f 477 526 478
f 478 526 527
f 478 527 528
f 478 528 480
f 479 483 484
f 480 528 481
f 481 528 529
f 481 529 530
f 481 530 482
f 482 530 483
f 483 530 531
f 483 531 532
f 483 532 533
f 483 533 485
f 485 533 534
f 485 534 487
f 486 487 534
f 486 534 535
f 486 535 536
f 486 536 488
f 488 536 489
f 489 536 537
f 489 537 538
f 489 538 539
f 489 539 491
f 489 491 490
f 491 539 540
f 491 540 541
f 491 541 492
f 492 541 493
f 493 540 494
f 493 541 540
f 494 540 539
f 494 539 495
f 495 539 496
f 496 539 500
f 496 500 499
f 498 506 515
f 500 542 543
f 500 543 501
f 500 539 542
f 501 543 507
f 501 507 502
f 503 509 508
f 503 508 538
f 503 538 544
f 503 544 504
f 504 544 545
f 504 545 526
f 504 526 505
f 505 546 516
f 505 526 546
f 507 543 547
f 507 547 508
f 508 547 538
f 511 521 523
f 511 523 513
f 511 513 512
f 513 523 514
f 516 546 517
f 517 546 548
f 517 548 526
f 517 526 525
f 517 525 518
f 518 525 524
f 526 548 546
f 526 545 549
f 526 549 550
f 526 550 527
f 527 550 551
f 527 551 537
f 527 537 528
f 528 537 529
f 529 537 531
f 529 531 530
f 531 537 532
f 532 537 533
f 533 535 534
f 533 537 536
f 533 536 535
f 537 551 552
f 537 552 538
f 538 552 544
f 538 547 539
f 539 547 553
f 539 553 542
f 542 553 543
f 543 553 547
f 544 552 551
f 544 551 550
f 544 550 545
f 545 550 549

