# https://github.com/mikedh/trimesh
v 0.02433491 0.01268293 -0.00046140
v 0.02433491 0.01257000 -0.00127957
v 0.02351533 0.01257491 -0.00127957
v 0.02351533 0.01265347 -0.00046140
v 0.02307966 0.01262401 -0.00002291
v 0.02269576 0.01259701 0.00035676
v 0.02351533 0.01262401 0.00035676
v 0.02433491 0.01263629 0.00035676
v 0.02515448 0.01260683 0.00035676
v 0.02515448 0.01262401 -0.00002291
v 0.02515448 0.01264365 -0.00046140
v 0.02433491 0.01243007 -0.00185175
v 0.02351533 0.01245216 -0.00193330
v 0.02515448 0.01251845 -0.00127957
v 0.02269576 0.01244480 -0.00193464
v 0.02269576 0.01254054 -0.00127957
v 0.02269576 0.01260683 -0.00046140
v 0.02225578 0.01257491 -0.00002291
v 0.02187618 0.01254545 0.00035676
v 0.02187618 0.01246198 0.00117627
v 0.02269576 0.01249881 0.00117627
v 0.02351533 0.01250863 0.00117627
v 0.02433491 0.01250863 0.00117627
v 0.02515448 0.01247917 0.00117627
v 0.02556427 0.01238588 0.00158669
v 0.02589210 0.01241534 0.00113215
v 0.02644855 0.01239324 0.00082601
v 0.02597406 0.01249635 0.00035676
v 0.02575406 0.01243252 -0.00127957
v 0.02603444 0.01248162 -0.00048547
v 0.02433491 0.01231714 -0.00226217
v 0.02515448 0.01240061 -0.00175015
v 0.02515448 0.01229013 -0.00216057
v 0.02351533 0.01233678 -0.00234238
v 0.02269576 0.01234414 -0.00234372
v 0.02557721 0.01238588 -0.00169400
v 0.02187618 0.01231959 -0.00222340
v 0.02187618 0.01241043 -0.00181298
v 0.02142326 0.01238833 -0.00170871
v 0.02187618 0.01247426 -0.00127957
v 0.02187618 0.01254545 -0.00046140
v 0.02105661 0.01247180 0.00035676
v 0.02112994 0.01240797 0.00111343
v 0.02145346 0.01238588 0.00159337
v 0.02187618 0.01240061 0.00166021
v 0.02269576 0.01241534 0.00174577
v 0.02351533 0.01241534 0.00176449
v 0.02433491 0.01234660 0.00217224
v 0.02515448 0.01233432 0.00208267
v 0.02589210 0.01227786 0.00191556
v 0.02611209 0.01235151 0.00137279
v 0.02515448 0.01218702 0.00281393
v 0.02675049 0.01228768 0.00113215
v 0.02688853 0.01231959 0.00035676
v 0.02647874 0.01240306 0.00035676
v 0.02616385 0.01235396 -0.00127957
v 0.02679363 0.01211828 -0.00209774
v 0.02644423 0.01240061 -0.00022745
v 0.02634933 0.01237606 -0.00077423
v 0.02679363 0.01221648 -0.00127957
v 0.02597406 0.01198817 -0.00291590
v 0.02590072 0.01226804 -0.00202020
v 0.02679363 0.01191943 -0.00291590
v 0.02351533 0.01210846 -0.00291590
v 0.02515448 0.01203236 -0.00291590
v 0.02433491 0.01207409 -0.00291590
v 0.02269576 0.01211092 -0.00291590
v 0.02187618 0.01207409 -0.00291590
v 0.02106092 0.01200781 -0.00291590
v 0.00714110 0.01082942 -0.00276082
v 0.00714110 0.01096199 -0.00209774
v 0.02087544 0.01236378 -0.00145470
v 0.02111269 0.01240797 -0.00122075
v 0.02106092 0.01246935 -0.00046140
v 0.02106092 0.01247180 -0.00002291
v 0.02061231 0.01238833 0.00079659
v 0.00714110 0.01111910 -0.00046140
v 0.00714110 0.01111174 0.00035676
v 0.00714110 0.01104791 0.00117627
v 0.00714110 0.01097672 0.00199443
v 0.02112994 0.01227786 0.00191689
v 0.02187618 0.01230486 0.00207063
v 0.00714110 0.01084169 0.00265217
v 0.02269576 0.01233432 0.00215486
v 0.02351533 0.01234660 0.00217625
v 0.02433491 0.01219439 0.00281393
v 0.02597406 0.01204463 0.00281393
v 0.02519330 0.01178441 0.00371098
v 0.02597406 0.01174267 0.00354119
v 0.02679363 0.01206182 0.00199443
v 0.02747517 0.01175249 0.00199443
v 0.02766928 0.01182123 0.00112413
v 0.02761320 0.01195625 0.00035676
v 0.02722498 0.01214283 -0.00002291
v 0.02761320 0.01187033 -0.00127957
v 0.02674618 0.01229995 -0.00048547
v 0.02765634 0.01175986 -0.00204025
v 0.02742341 0.01171812 -0.00291590
v 0.02597406 0.01170094 -0.00357231
v 0.02515448 0.01171567 -0.00364717
v 0.02433491 0.01173285 -0.00371000
v 0.02679363 0.01167393 -0.00350012
v 0.02728969 0.01162483 -0.00341456
v 0.02433491 0.01155364 -0.00412042
v 0.02351533 0.01174513 -0.00371936
v 0.02351533 0.01155855 -0.00413112
v 0.02269576 0.01174267 -0.00369129
v 0.02187618 0.01173040 -0.00364049
v 0.02106092 0.01170339 -0.00357899
v 0.01041940 0.01066248 -0.00393460
v 0.00796068 0.01054955 -0.00373674
v 0.00796068 0.01072385 -0.00326483
v 0.00714110 0.01067230 -0.00316991
v 0.00665798 0.01079014 -0.00264318
v 0.00714110 0.01105282 -0.00127957
v 0.02061231 0.01238833 -0.00090792
v 0.01230873 0.01158064 -0.00098947
v 0.00658897 0.01083433 -0.00209774
v 0.00652858 0.01088097 -0.00127957
v 0.00648544 0.01091289 -0.00046140
v 0.00678739 0.01100863 -0.00002291
v 0.00648113 0.01091043 0.00035676
v 0.00651132 0.01087852 0.00117627
v 0.00655877 0.01084415 0.00199443
v 0.00663210 0.01079750 0.00252250
v 0.02105661 0.01198326 0.00281393
v 0.02187618 0.01205200 0.00281393
v 0.02269576 0.01211583 0.00281393
v 0.00802969 0.01084906 0.00286073
v 0.00714110 0.01065511 0.00306259
v 0.00780539 0.01072385 0.00316420
v 0.02351533 0.01216247 0.00281393
v 0.02430040 0.01178195 0.00370964
v 0.02657795 0.01163465 0.00338211
v 0.02682814 0.01175495 0.00285270
v 0.02549525 0.01156100 0.00403584
v 0.02455058 0.01158064 0.00406658
v 0.02494743 0.01158064 0.00406658
v 0.02597406 0.01151927 0.00395161
v 0.02682814 0.01142598 0.00364814
v 0.02712577 0.01153891 0.00315083
v 0.02733714 0.01163956 0.00260672
v 0.02761320 0.01137688 0.00285270
v 0.02811358 0.01083678 0.00342890
v 0.02788927 0.01145298 0.00199443
v 0.02797986 0.01152172 0.00136209
v 0.02802730 0.01157573 0.00081531
v 0.02806613 0.01161010 0.00035676
v 0.02783751 0.01180405 -0.00002291
v 0.02761320 0.01193661 -0.00046140
v 0.02806181 0.01159783 -0.00127957
v 0.02803162 0.01157573 -0.00173010
v 0.02796260 0.01148735 -0.00227688
v 0.03457527 0.00502583 -0.00418727
v 0.02679363 0.01139161 -0.00390920
v 0.02638816 0.01074595 -0.00496666
v 0.02597406 0.01146280 -0.00398273
v 0.02515448 0.01151927 -0.00405759
v 0.02735008 0.01087606 -0.00431962
v 0.02693166 0.01066002 -0.00486774
v 0.03390667 0.00507002 -0.00513377
v 0.03379021 0.00421569 -0.00663642
v 0.02433491 0.01119766 -0.00455624
v 0.02351533 0.01119766 -0.00455624
v 0.02269576 0.01154136 -0.00410037
v 0.02187618 0.01150945 -0.00404957
v 0.00796068 0.01016412 -0.00453218
v 0.00714110 0.01041452 -0.00373674
v -0.00252987 0.00507493 -0.00748400
v -0.00306044 0.00497919 -0.00701342
v 0.00648544 0.01091289 -0.00002291
v -0.00299142 0.00490799 -0.00619525
v 0.00658465 0.01010274 0.00348906
v 0.00673994 0.00992107 0.00403584
v 0.00728345 0.01004628 0.00424706
v 0.00767598 0.00988670 0.00479251
v 0.00795205 0.01013220 0.00449438
v -0.00392746 0.00419850 -0.00656423
v -0.00382825 0.00410030 -0.00601745
v -0.00468665 0.00331471 -0.00619525
v -0.00491527 0.00276970 -0.00570729
v 0.01041940 0.01083678 0.00347034
v 0.01123466 0.01072140 0.00397701
v 0.00834890 0.01074840 0.00322837
v 0.01171778 0.01074104 0.00403049
v 0.02351533 0.01178932 0.00359601
v 0.00878025 0.01029668 0.00445428
v 0.00878025 0.01061583 0.00368825
v 0.00878025 0.01001682 0.00497833
v 0.02519330 0.01131305 0.00438610
v 0.02576701 0.01079750 0.00491550
v 0.02601288 0.01106755 0.00452246
v 0.00959551 0.01004382 0.00501042
v 0.02430040 0.01131796 0.00438610
v 0.02433491 0.01085151 0.00495962
v 0.02515448 0.01084415 0.00495560
v 0.02679363 0.01100127 0.00435802
v 0.02742341 0.01087115 0.00420829
v 0.02766497 0.01102336 0.00367488
v 0.02797123 0.01070176 0.00397434
v 0.03459684 0.00585807 -0.00131032
v 0.02819122 0.01093989 0.00281393
v 0.02807907 0.01161747 -0.00002291
v 0.02809201 0.01162729 -0.00046140
v 0.03457527 0.00583352 -0.00175550
v 0.03825473 -0.00093733 -0.00503484
v 0.02648737 0.01063056 -0.00503618
v 0.02678932 0.00974431 -0.00565515
v 0.02597406 0.00983024 -0.00572066
v 0.02597406 0.01033596 -0.00532361
v 0.02515448 0.00987688 -0.00574873
v 0.02597406 0.01068948 -0.00503618
v 0.02597406 0.01075822 -0.00497870
v 0.02723792 0.01029668 -0.00503618
v 0.02737596 0.00921404 -0.00586371
v 0.02681951 0.01050781 -0.00503618
v 0.03614972 -0.00057399 -0.00829414
v 0.03376432 0.00337854 -0.00742918
v 0.02738890 0.01011256 -0.00511907
v 0.02515448 0.01078032 -0.00499608
v 0.02433491 0.01079996 -0.00501212
v 0.02351533 0.01079505 -0.00500677
v 0.02269576 0.01114856 -0.00455624
v 0.00847399 0.00986706 -0.00503618
v 0.00840929 0.00992598 -0.00496132
v 0.00796068 0.00991125 -0.00494260
v 0.00714110 0.01008065 -0.00439181
v -0.00275849 0.00466986 -0.00755218
v -0.00325455 0.00444155 -0.00750004
v 0.00760265 0.00908883 -0.00577948
v 0.00085195 0.00585562 -0.00745191
v -0.00187421 0.00513631 -0.00752678
v -0.00380668 0.00407084 -0.00718053
v -0.00352199 0.00449801 -0.00694925
v -0.00392746 0.00419850 -0.00663374
v 0.00673563 0.00908883 0.00485133
v 0.00716698 0.00928278 0.00518287
v 0.00725325 0.00937361 0.00518287
v 0.00736109 0.00943989 0.00518287
v 0.00792185 0.00970258 0.00518287
v 0.00799518 0.00972958 0.00518287
v 0.00822380 0.00997508 0.00492753
v -0.00421216 0.00380816 -0.00625274
v -0.00501448 0.00290718 -0.00619525
v -0.00541564 0.00214368 -0.00615247
v -0.00551485 0.00132371 -0.00583697
v 0.00683053 0.00869849 0.00518287
v 0.00687798 0.00883597 0.00518287
v 0.00878025 0.00985479 0.00518287
v 0.02592229 0.01047099 0.00518287
v 0.02679363 0.01027459 0.00518287
v 0.02631051 0.01072876 0.00484464
v 0.00922886 0.00988179 0.00518287
v 0.00959551 0.00990143 0.00518287
v 0.02351533 0.01082696 0.00494090
v 0.01184287 0.01000945 0.00518287
v 0.01358123 0.01009047 0.00518287
v 0.02386042 0.01055446 0.00518287
v 0.02435216 0.01057164 0.00518287
v 0.02515448 0.01056673 0.00518287
v 0.02679363 0.01066493 0.00476711
v 0.02761320 0.01010029 0.00504384
v 0.02805750 0.00997508 0.00491283
v 0.03825473 -0.00094715 -0.00002425
v 0.03825473 -0.00093733 -0.00503217
v 0.03825473 -0.00277857 -0.00503484
v 0.02671167 0.01036297 -0.00519126
v 0.02678932 0.00933924 -0.00595194
v 0.02597406 0.00886543 -0.00642920
v 0.02515448 0.00946690 -0.00605221
v 0.02515448 0.01033596 -0.00537040
v 0.02433491 0.00990389 -0.00576879
v 0.02515448 0.01073613 -0.00503618
v 0.02718616 0.00827869 -0.00660032
v 0.03614972 -0.00079494 -0.00829414
v 0.03498074 -0.00031622 -0.00843719
v 0.03495055 0.00045956 -0.00835697
v 0.03465723 0.00103648 -0.00830484
v 0.02683245 0.00703892 -0.00732357
v 0.02686265 0.00794972 -0.00687973
v 0.02433491 0.01077541 -0.00503618
v 0.02351533 0.01076068 -0.00503618
v 0.00828851 0.00832533 -0.00663776
v 0.00878025 0.00916248 -0.00584365
v 0.00855595 0.00915266 -0.00583563
v 0.00815479 0.00984251 -0.00503618
v 0.00815047 0.00913548 -0.00581825
v 0.00795205 0.00982533 -0.00503618
v -0.00187421 0.00459866 -0.00764041
v -0.00268947 0.00377870 -0.00765378
v -0.00350905 0.00296119 -0.00765110
v -0.00352199 0.00379097 -0.00755886
v -0.00403099 0.00352584 -0.00749603
v 0.00058020 0.00546282 -0.00753212
v 0.00878025 0.00787607 -0.00686636
v 0.00960414 0.00651846 -0.00737838
v 0.00960414 0.00610848 -0.00751875
v -0.00479017 0.00262731 -0.00746662
v -0.00460469 0.00320669 -0.00701342
v -0.00414314 0.00379097 -0.00694925
v -0.00492389 0.00279671 -0.00701342
v -0.00562269 0.00187118 -0.00685700
v -0.00562269 0.00187118 -0.00639712
v -0.00567445 0.00132371 -0.00624605
v -0.00555367 0.00090391 -0.00578884
v 0.00683053 0.00857820 0.00518287
v -0.00557955 0.00035645 -0.00576344
v -0.00560112 -0.00031131 -0.00573938
v 0.02691010 0.01023286 0.00518287
v 0.02741478 0.01004137 0.00518287
v 0.02763046 0.00992353 0.00518287
v 0.02786770 0.00977132 0.00518287
v 0.02813946 0.00942271 0.00518287
v 0.03012369 0.00609621 0.00518287
v 0.03825473 -0.00277857 -0.00002425
v 0.03743947 -0.00490704 -0.00503484
v 0.03614972 -0.00445778 -0.00725673
v 0.03614972 -0.00406252 -0.00744924
v 0.03614972 -0.00390295 -0.00751073
v 0.03614972 -0.00359362 -0.00762704
v 0.03614972 -0.00276629 -0.00792516
v 0.03614972 -0.00194142 -0.00814842
v 0.03614972 -0.00154616 -0.00823532
v 0.03614972 -0.00148724 -0.00824334
v 0.03614972 -0.00105026 -0.00829147
v 0.02663834 0.00838425 -0.00667519
v 0.02597406 0.00845545 -0.00671930
v 0.02515448 0.00887525 -0.00646129
v 0.02433491 0.00949636 -0.00605889
v 0.02433491 0.01033596 -0.00540650
v 0.02351533 0.00989652 -0.00576344
v 0.02351533 0.01033596 -0.00539714
v 0.03498074 -0.00112636 -0.00838104
v 0.03416117 -0.00031622 -0.00847462
v 0.03416117 0.00050375 -0.00845991
v 0.03586071 -0.00119510 -0.00831419
v 0.03416117 0.00117151 -0.00833692
v 0.02658658 0.00675414 -0.00744523
v 0.02597406 0.00714448 -0.00733828
v 0.02597406 0.00787607 -0.00704416
v 0.00855595 0.00833024 -0.00664043
v -0.00105464 0.00459866 -0.00765378
v -0.00432862 0.00132371 -0.00765512
v -0.00432862 0.00209458 -0.00763239
v -0.00432862 0.00214122 -0.00762971
v -0.00431568 0.00292436 -0.00754014
v 0.01041940 0.00541617 -0.00765378
v 0.00878025 0.00833024 -0.00664310
v 0.02597406 0.00541617 -0.00771795
v -0.00497134 0.00214122 -0.00751474
v -0.00564857 0.00116905 -0.00749870
v -0.00554073 0.00171406 -0.00740378
v -0.00536387 0.00214368 -0.00708293
v -0.00541132 0.00209458 -0.00704149
v -0.00570896 0.00139491 -0.00708293
v -0.00581248 0.00050375 -0.00701342
v -0.00569170 0.00059213 -0.00611771
v -0.00569170 0.00057985 -0.00611504
v 0.00684347 0.00797181 0.00518287
v -0.00572621 -0.00031131 -0.00619525
v -0.00558818 -0.00112882 -0.00575408
v 0.03599874 -0.00843240 -0.00002425
v 0.03743947 -0.00488985 -0.00002425
v 0.00786578 0.00609621 0.00518287
v 0.03743947 -0.00490704 -0.00503083
v 0.03605050 -0.00843240 -0.00053226
v 0.03598149 -0.00843240 -0.00135176
v 0.03583051 -0.00853796 -0.00171405
v 0.03564072 -0.00836857 -0.00291858
v 0.03551563 -0.00822127 -0.00356295
v 0.03533446 -0.00806660 -0.00410973
v 0.03614972 -0.00516727 -0.00682893
v 0.03582620 -0.00527774 -0.00687706
v 0.03580032 -0.00454615 -0.00730619
v 0.03580032 -0.00413617 -0.00748132
v 0.03498074 -0.00358871 -0.00784094
v 0.03580032 -0.00358871 -0.00769522
v 0.03580032 -0.00276629 -0.00797998
v 0.03498074 -0.00276629 -0.00809762
v 0.03586071 -0.00193651 -0.00818719
v 0.03562778 -0.00165664 -0.00826339
v 0.03498074 -0.00180394 -0.00828345
v 0.03441136 -0.00231212 -0.00823665
v 0.03414823 -0.00200279 -0.00828879
v 0.03416117 -0.00112636 -0.00840510
v 0.03334591 -0.00112636 -0.00841580
v 0.03252634 -0.00112636 -0.00840911
v -0.00187421 -0.00440622 -0.00765244
v -0.00350905 -0.00276875 -0.00765378
v -0.00432862 -0.00195124 -0.00765110
v -0.00432862 -0.00112882 -0.00765378
v 0.02678932 0.00459866 -0.00785565
v 0.02678932 0.00541617 -0.00771260
v -0.00514820 0.00050375 -0.00762704
v -0.00522153 0.00139491 -0.00756153
v -0.00565720 0.00059213 -0.00750940
v -0.00565720 0.00050375 -0.00751073
v -0.00559681 -0.00007072 -0.00746528
v -0.00568308 -0.00033095 -0.00704817
v -0.00561837 -0.00094960 -0.00679818
v -0.00561837 -0.00118528 -0.00613509
v -0.00555798 -0.00154125 -0.00578349
v -0.00473841 -0.00317627 -0.00578750
v 0.00730933 0.00710029 0.00518287
v 0.03497643 -0.00907069 -0.00171405
v 0.03547680 -0.00895040 -0.00171405
v 0.03600737 -0.00843240 -0.00006302
v 0.01311968 -0.00843240 -0.00002425
v 0.00796068 -0.01239720 -0.00171405
v 0.01019078 -0.01220571 -0.00171405
v 0.01206286 -0.01200931 -0.00171405
v 0.01762303 -0.01140293 -0.00171405
v 0.02487410 -0.01056578 -0.00171405
v 0.03149540 -0.00976300 -0.00171405
v 0.03190518 -0.00968444 -0.00171405
v 0.03605050 -0.00843240 -0.00046274
v 0.00656309 -0.01160915 -0.00171405
v 0.00671837 -0.01180064 -0.00171405
v 0.00692111 -0.01201667 -0.00171405
v 0.00714110 -0.01218607 -0.00171405
v 0.00732659 -0.01230636 -0.00171405
v 0.00766304 -0.01236283 -0.00171405
v 0.03565366 -0.00876382 -0.00171405
v 0.03544661 -0.00893812 -0.00181967
v 0.03524818 -0.00887675 -0.00236645
v 0.03542504 -0.00731538 -0.00501345
v 0.03501957 -0.00843485 -0.00358701
v 0.03502388 -0.00833665 -0.00379690
v 0.03478663 -0.00816480 -0.00426748
v 0.03502388 -0.00787020 -0.00454689
v 0.03547249 -0.00655188 -0.00589980
v 0.03557601 -0.00573928 -0.00666984
v 0.03498074 -0.00522373 -0.00710031
v 0.03498074 -0.00471064 -0.00737838
v 0.03498074 -0.00430066 -0.00755084
v 0.03450194 -0.00479902 -0.00741581
v 0.03416117 -0.00358871 -0.00793720
v 0.03498074 -0.00221392 -0.00821660
v 0.03414823 -0.00269755 -0.00817917
v 0.03386354 -0.00237840 -0.00824601
v 0.03334591 -0.00194633 -0.00831954
v 0.03252634 -0.00194633 -0.00832623
v 0.00959983 -0.00849868 -0.00733159
v -0.00187421 -0.00510098 -0.00753881
v -0.00350905 -0.00358871 -0.00763239
v -0.00432862 -0.00276875 -0.00761635
v -0.00489801 -0.00195124 -0.00753613
v -0.00482468 -0.00276875 -0.00750138
v -0.00476860 -0.00324010 -0.00745592
v -0.00554936 -0.00149706 -0.00636904
v -0.00555798 -0.00154125 -0.00582226
v -0.00480311 -0.00330393 -0.00701342
v -0.00479449 -0.00328429 -0.00633429
v -0.00455724 -0.00356907 -0.00611504
v -0.00401805 -0.00408462 -0.00571665
v 0.03497643 -0.00899459 -0.00209640
v 0.03146089 -0.00976054 -0.00178491
v 0.03416117 -0.00915907 -0.00210041
v 0.00959983 -0.01222780 -0.00193597
v 0.01015627 -0.01220325 -0.00177956
v 0.00749481 -0.01222535 -0.00266056
v 0.00796068 -0.01233828 -0.00210041
v 0.00859045 -0.01220816 -0.00262847
v 0.01206286 -0.01197003 -0.00210041
v 0.01758852 -0.01140047 -0.00178357
v 0.02484391 -0.01056332 -0.00175149
v -0.00410432 -0.00414599 -0.00619525
v -0.00313377 -0.00484075 -0.00639311
v -0.00313377 -0.00484075 -0.00674872
v 0.00739129 -0.01227690 -0.00210041
v 0.03470468 -0.00894058 -0.00258970
v 0.03497643 -0.00876382 -0.00288649
v 0.03498937 -0.00750196 -0.00503484
v 0.03498074 -0.00742585 -0.00513645
v 0.03416117 -0.00858952 -0.00373674
v 0.03469174 -0.00843485 -0.00377417
v 0.03416117 -0.00824582 -0.00438512
v 0.03416117 -0.00796840 -0.00479554
v 0.03498074 -0.00707724 -0.00554687
v 0.03498074 -0.00666481 -0.00601210
v 0.03498074 -0.00624500 -0.00642118
v 0.03498074 -0.00583257 -0.00673535
v 0.03420431 -0.00516481 -0.00723935
v 0.03395843 -0.00485057 -0.00744122
v 0.03420431 -0.00447742 -0.00757624
v 0.03334591 -0.00440377 -0.00766046
v 0.00959983 -0.00932356 -0.00708293
v 0.03334591 -0.00358871 -0.00796393
v 0.03334591 -0.00280557 -0.00817115
v 0.03334591 -0.00239804 -0.00825002
v -0.00250399 -0.00494386 -0.00750004
v -0.00274124 -0.00446023 -0.00756153
v 0.00878025 -0.00932356 -0.00700406
v 0.00878025 -0.00995940 -0.00672866
v -0.00079151 -0.00564353 -0.00743453
v -0.00133933 -0.00561162 -0.00735165
v -0.00350905 -0.00420737 -0.00751742
v -0.00400511 -0.00405270 -0.00747196
v -0.00429843 -0.00354452 -0.00751742
v -0.00500585 -0.00276875 -0.00701342
v -0.00450548 -0.00371391 -0.00701342
v 0.03170245 -0.00937757 -0.00291858
v 0.03172402 -0.00962797 -0.00207501
v 0.03416117 -0.00899459 -0.00274344
v 0.02678932 -0.01026382 -0.00210041
v 0.03088719 -0.00979982 -0.00193196
v 0.03008918 -0.00964025 -0.00288649
v 0.03088719 -0.00951259 -0.00291858
v 0.00959983 -0.01216397 -0.00234639
v 0.01124329 -0.01205595 -0.00210041
v -0.00274124 -0.00501751 -0.00701876
v -0.00305181 -0.00476465 -0.00729550
v 0.00738697 -0.01149622 -0.00439181
v 0.00760265 -0.01135383 -0.00493859
v 0.00796068 -0.01194793 -0.00373674
v 0.00796068 -0.01214433 -0.00312044
v 0.00796068 -0.01223026 -0.00271136
v 0.00882770 -0.01214188 -0.00290788
v 0.00959983 -0.01206577 -0.00291858
v 0.01041940 -0.01197740 -0.00291858
v 0.01124329 -0.01188411 -0.00291858
v 0.02382591 -0.01054123 -0.00245468
v -0.00409569 -0.00412390 -0.00701342
v 0.03367805 -0.00889884 -0.00328622
v 0.03416117 -0.00884729 -0.00315386
v 0.03416117 -0.00776710 -0.00503484
v 0.03416117 -0.00755842 -0.00528083
v 0.03313455 -0.00895285 -0.00341322
v 0.03252634 -0.00881537 -0.00395465
v 0.03190518 -0.00887429 -0.00407764
v 0.03136168 -0.00892339 -0.00416187
v 0.03334160 -0.00804205 -0.00489848
v 0.03416117 -0.00718281 -0.00568991
v 0.03416117 -0.00677283 -0.00609632
v 0.03416117 -0.00631865 -0.00650540
v 0.03416117 -0.00590867 -0.00678882
v 0.00959983 -0.00994712 -0.00674471
v 0.00878025 -0.01037183 -0.00648535
v 0.00813322 -0.01072781 -0.00599606
v 0.03252634 -0.00900932 -0.00354423
v 0.03252634 -0.00923272 -0.00291858
v 0.02678932 -0.01006005 -0.00291858
v 0.02760458 -0.00995694 -0.00291858
v 0.02870453 -0.00971390 -0.00326750
v 0.03088719 -0.00920326 -0.00373674
v 0.00815047 -0.01142257 -0.00506960
v 0.00791323 -0.01157478 -0.00462175
v 0.00878025 -0.01163861 -0.00455491
v 0.00878025 -0.01194303 -0.00373674
v 0.02328240 -0.01057069 -0.00258436
v 0.03309141 -0.00797331 -0.00503484
v 0.03334160 -0.00757561 -0.00543858
v 0.03306553 -0.00730065 -0.00581424
v 0.03361335 -0.00724173 -0.00575275
v 0.03165931 -0.00905596 -0.00377818
v 0.03006330 -0.00932356 -0.00373674
v 0.03088719 -0.00896267 -0.00421267
v 0.03231928 -0.00812798 -0.00500811
v 0.03279378 -0.00802487 -0.00503484
v 0.03252634 -0.00735466 -0.00586504
v 0.03170676 -0.00742831 -0.00592654
v 0.03334591 -0.00638248 -0.00655487
v 0.00959983 -0.01035465 -0.00640380
v 0.00878025 -0.01077936 -0.00607627
v 0.02207461 -0.01052404 -0.00323942
v 0.02816534 -0.00975072 -0.00337044
v 0.00878025 -0.01118689 -0.00547468
v 0.00878025 -0.01142011 -0.00506559
v 0.00900456 -0.01140784 -0.00503484
v 0.02152679 -0.01055596 -0.00333969
v 0.03170676 -0.00783829 -0.00548403
v 0.03256516 -0.00782356 -0.00531960
v 0.03088719 -0.00843485 -0.00489848
v 0.03170245 -0.00820654 -0.00503484
v 0.03088719 -0.00789230 -0.00556157
v 0.03088719 -0.00823354 -0.00515249
f 1 2 3
f 1 3 4
f 1 4 5
f 1 5 6
f 1 6 7
f 1 7 8
f 1 8 9
f 1 9 10
f 1 10 11
f 1 11 2
f 2 12 13
f 2 13 3
f 2 11 14
f 2 14 12
f 3 13 15
f 3 15 16
f 3 16 4
f 4 16 17
f 4 17 5
f 5 17 6
f 6 17 18
f 6 18 19
f 6 19 20
f 6 20 21
f 6 21 7
f 7 21 8
f 8 21 22
f 8 22 23
f 8 23 24
f 8 24 9
f 9 24 25
f 9 25 26
f 9 26 27
f 9 27 28
f 9 28 10
f 10 28 11
f 11 29 14
f 11 28 30
f 11 30 29
f 12 31 13
f 12 14 32
f 12 32 33
f 12 33 31
f 13 31 34
f 13 34 35
f 13 35 15
f 14 29 36
f 14 36 32
f 15 35 37
f 15 37 38
f 15 38 16
f 16 38 39
f 16 39 40
f 16 40 41
f 16 41 17
f 17 41 18
f 18 41 19
f 19 41 42
f 19 42 43
f 19 43 44
f 19 44 20
f 20 44 45
f 20 45 21
f 21 45 46
f 21 46 22
f 22 46 47
f 22 47 23
f 23 47 48
f 23 48 49
f 23 49 24
f 24 49 25
f 25 50 51
f 25 51 26
f 25 49 52
f 25 52 50
f 26 51 27
f 27 53 54
f 27 54 55
f 27 55 28
f 27 51 53
f 28 55 30
f 29 30 56
f 29 56 57
f 29 57 36
f 30 55 54
f 30 54 58
f 30 58 59
f 30 59 60
f 30 60 57
f 30 57 56
f 31 33 61
f 31 61 34
f 32 36 33
f 33 36 62
f 33 62 63
f 33 63 61
f 34 64 35
f 34 61 65
f 34 65 66
f 34 66 64
f 35 67 68
f 35 68 69
f 35 69 37
f 35 64 67
f 36 57 62
f 37 69 70
f 37 70 38
f 38 70 71
f 38 71 39
f 39 72 40
f 39 71 72
f 40 72 73
f 40 73 74
f 40 74 41
f 41 74 75
f 41 75 42
f 42 76 43
f 42 75 77
f 42 77 78
f 42 78 79
f 42 79 80
f 42 80 76
f 43 76 80
f 43 80 44
f 44 81 82
f 44 82 45
f 44 80 83
f 44 83 81
f 45 82 84
f 45 84 46
f 46 84 85
f 46 85 47
f 47 85 48
f 48 86 52
f 48 52 49
f 48 85 86
f 50 52 87
f 50 87 53
f 50 53 51
f 52 88 89
f 52 89 87
f 52 86 88
f 53 87 90
f 53 90 91
f 53 91 92
f 53 92 93
f 53 93 54
f 54 94 95
f 54 95 60
f 54 60 96
f 54 96 58
f 54 93 94
f 57 60 95
f 57 95 97
f 57 97 98
f 57 98 63
f 57 63 62
f 58 96 59
f 59 96 60
f 61 99 100
f 61 100 101
f 61 101 65
f 61 63 102
f 61 102 99
f 63 98 103
f 63 103 102
f 64 66 101
f 64 101 104
f 64 104 105
f 64 105 67
f 65 101 66
f 67 105 106
f 67 106 107
f 67 107 108
f 67 108 68
f 68 108 109
f 68 109 69
f 69 109 110
f 69 110 111
f 69 111 112
f 69 112 70
f 70 112 111
f 70 111 113
f 70 113 114
f 70 114 71
f 71 114 115
f 71 115 72
f 72 116 73
f 72 115 117
f 72 117 116
f 73 116 74
f 74 116 117
f 74 117 77
f 74 77 75
f 77 115 118
f 77 118 119
f 77 119 120
f 77 120 121
f 77 121 78
f 77 117 115
f 78 121 122
f 78 122 123
f 78 123 124
f 78 124 79
f 79 124 80
f 80 124 125
f 80 125 83
f 81 83 82
f 82 126 127
f 82 127 128
f 82 128 84
f 82 83 129
f 82 129 126
f 83 130 131
f 83 131 129
f 83 125 130
f 84 128 132
f 84 132 86
f 84 86 85
f 86 133 88
f 86 132 133
f 87 89 134
f 87 134 135
f 87 135 90
f 88 136 89
f 88 133 137
f 88 137 138
f 88 138 136
f 89 136 139
f 89 139 140
f 89 140 134
f 90 135 141
f 90 141 142
f 90 142 91
f 91 143 144
f 91 144 145
f 91 145 92
f 91 142 143
f 92 145 146
f 92 146 147
f 92 147 148
f 92 148 93
f 93 148 149
f 93 149 150
f 93 150 94
f 94 150 95
f 95 150 151
f 95 151 152
f 95 152 97
f 97 152 98
f 98 152 153
f 98 153 154
f 98 154 103
f 99 104 100
f 99 102 104
f 100 104 101
f 102 155 156
f 102 156 157
f 102 157 158
f 102 158 104
f 102 103 155
f 103 159 160
f 103 160 156
f 103 156 155
f 103 154 161
f 103 161 162
f 103 162 159
f 104 158 156
f 104 156 163
f 104 163 106
f 104 106 105
f 106 163 164
f 106 164 165
f 106 165 107
f 107 165 108
f 108 166 109
f 108 165 166
f 109 166 167
f 109 167 110
f 110 167 111
f 111 167 168
f 111 168 113
f 113 168 114
f 114 118 115
f 114 168 169
f 114 169 170
f 114 170 118
f 118 170 119
f 119 170 120
f 120 122 171
f 120 171 121
f 120 170 122
f 121 171 122
f 122 170 123
f 123 170 124
f 124 170 172
f 124 172 125
f 125 173 174
f 125 174 175
f 125 175 176
f 125 176 177
f 125 177 130
f 125 172 178
f 125 178 179
f 125 179 180
f 125 180 181
f 125 181 173
f 126 182 183
f 126 183 127
f 126 129 184
f 126 184 182
f 127 183 185
f 127 185 128
f 128 185 186
f 128 186 133
f 128 133 132
f 129 131 184
f 130 177 187
f 130 187 131
f 131 187 188
f 131 188 184
f 133 186 185
f 133 185 189
f 133 189 137
f 134 140 141
f 134 141 135
f 136 138 190
f 136 190 191
f 136 191 192
f 136 192 139
f 137 189 193
f 137 193 194
f 137 194 195
f 137 195 138
f 138 195 196
f 138 196 190
f 139 192 197
f 139 197 140
f 140 197 198
f 140 198 141
f 141 198 199
f 141 199 142
f 142 199 143
f 143 199 144
f 144 199 200
f 144 200 201
f 144 201 202
f 144 202 145
f 145 202 201
f 145 201 146
f 146 201 147
f 147 201 148
f 148 203 149
f 148 201 203
f 149 203 204
f 149 204 150
f 150 204 151
f 151 204 201
f 151 201 205
f 151 205 152
f 152 205 153
f 153 205 154
f 154 205 206
f 154 206 162
f 154 162 161
f 156 160 207
f 156 207 208
f 156 208 209
f 156 209 210
f 156 210 211
f 156 211 212
f 156 212 213
f 156 213 163
f 156 158 157
f 159 214 160
f 159 162 214
f 160 214 215
f 160 215 216
f 160 216 207
f 162 206 217
f 162 217 218
f 162 218 219
f 162 219 214
f 163 213 220
f 163 220 221
f 163 221 164
f 164 221 222
f 164 222 223
f 164 223 165
f 165 223 224
f 165 224 225
f 165 225 226
f 165 226 167
f 165 167 166
f 167 226 227
f 167 227 168
f 168 227 169
f 169 228 229
f 169 229 170
f 169 227 226
f 169 226 230
f 169 230 231
f 169 231 232
f 169 232 228
f 170 229 233
f 170 233 234
f 170 234 235
f 170 235 178
f 170 178 172
f 173 181 174
f 174 181 236
f 174 236 237
f 174 237 238
f 174 238 239
f 174 239 176
f 174 176 175
f 176 239 240
f 176 240 241
f 176 241 242
f 176 242 177
f 177 242 187
f 178 235 180
f 178 180 243
f 178 243 179
f 179 243 180
f 180 244 181
f 180 235 244
f 181 244 245
f 181 245 246
f 181 246 247
f 181 247 248
f 181 248 236
f 182 184 183
f 183 184 188
f 183 188 187
f 183 187 185
f 185 187 189
f 187 242 189
f 189 242 249
f 189 249 193
f 190 196 191
f 191 196 250
f 191 250 251
f 191 251 252
f 191 252 192
f 192 252 197
f 193 249 253
f 193 253 254
f 193 254 255
f 193 255 194
f 194 255 195
f 195 255 254
f 195 254 256
f 195 256 257
f 195 257 258
f 195 258 259
f 195 259 260
f 195 260 196
f 196 260 250
f 197 252 261
f 197 261 198
f 198 262 263
f 198 263 200
f 198 200 199
f 198 261 262
f 200 263 201
f 201 263 264
f 201 264 265
f 201 265 206
f 201 206 205
f 201 204 203
f 206 265 264
f 206 264 315
f 206 315 266
f 206 266 275
f 206 275 217
f 207 267 208
f 207 216 267
f 208 267 215
f 208 215 268
f 208 268 269
f 208 269 209
f 209 269 270
f 209 270 211
f 209 211 210
f 211 271 212
f 211 270 272
f 211 272 271
f 212 271 273
f 212 273 213
f 213 273 220
f 214 219 215
f 215 274 268
f 215 267 216
f 215 219 218
f 215 218 274
f 217 275 276
f 217 276 277
f 217 277 278
f 217 278 218
f 218 278 279
f 218 279 280
f 218 280 274
f 220 273 281
f 220 281 221
f 221 281 222
f 222 281 282
f 222 282 283
f 222 283 284
f 222 284 224
f 222 224 223
f 224 284 285
f 224 285 286
f 224 286 226
f 224 226 225
f 226 286 287
f 226 287 288
f 226 288 230
f 228 232 289
f 228 289 290
f 228 290 291
f 228 291 292
f 228 292 229
f 229 292 293
f 229 293 233
f 230 288 287
f 230 287 283
f 230 283 231
f 231 294 232
f 231 283 295
f 231 295 296
f 231 296 297
f 231 297 294
f 232 294 289
f 233 293 298
f 233 298 299
f 233 299 300
f 233 300 235
f 233 235 234
f 235 300 299
f 235 299 301
f 235 301 244
f 236 248 237
f 237 248 247
f 237 247 306
f 237 306 359
f 237 359 404
f 237 404 364
f 237 364 314
f 237 314 313
f 237 313 312
f 237 312 311
f 237 311 310
f 237 310 309
f 237 309 251
f 237 251 250
f 237 250 260
f 237 260 259
f 237 259 258
f 237 258 257
f 237 257 256
f 237 256 254
f 237 254 253
f 237 253 249
f 237 249 241
f 237 241 240
f 237 240 239
f 237 239 238
f 241 249 242
f 244 301 302
f 244 302 303
f 244 303 245
f 245 303 246
f 246 303 304
f 246 304 305
f 246 305 247
f 247 305 307
f 247 307 308
f 247 308 306
f 251 309 261
f 251 261 252
f 261 309 262
f 262 309 310
f 262 310 311
f 262 311 263
f 263 311 312
f 263 312 313
f 263 313 314
f 263 314 264
f 264 314 315
f 266 315 365
f 266 365 316
f 266 316 317
f 266 317 318
f 266 318 319
f 266 319 320
f 266 320 321
f 266 321 322
f 266 322 323
f 266 323 324
f 266 324 325
f 266 325 275
f 268 326 269
f 268 274 326
f 269 327 270
f 269 326 327
f 270 327 328
f 270 328 329
f 270 329 272
f 271 272 273
f 272 330 273
f 272 329 331
f 272 331 332
f 272 332 330
f 273 330 281
f 274 280 326
f 275 325 276
f 276 333 334
f 276 334 335
f 276 335 277
f 276 325 336
f 276 336 333
f 277 335 278
f 278 335 337
f 278 337 279
f 279 338 339
f 279 339 340
f 279 340 280
f 279 337 338
f 280 340 326
f 281 330 332
f 281 332 282
f 282 332 283
f 283 287 285
f 283 285 284
f 283 332 331
f 283 331 341
f 283 341 295
f 285 287 286
f 289 294 342
f 289 342 335
f 289 335 290
f 290 335 334
f 290 334 291
f 291 334 343
f 291 343 344
f 291 344 345
f 291 345 292
f 292 345 346
f 292 346 293
f 293 346 298
f 294 297 347
f 294 347 342
f 295 341 348
f 295 348 340
f 295 340 339
f 295 339 296
f 296 339 297
f 297 339 338
f 297 338 349
f 297 349 347
f 298 350 351
f 298 351 352
f 298 352 299
f 298 346 350
f 299 352 301
f 301 353 354
f 301 354 302
f 301 352 353
f 302 355 303
f 302 354 352
f 302 352 355
f 303 355 356
f 303 356 304
f 304 356 357
f 304 357 305
f 305 357 358
f 305 358 307
f 306 308 359
f 307 358 308
f 308 358 360
f 308 360 361
f 308 361 359
f 314 362 363
f 314 363 315
f 314 364 408
f 314 408 362
f 315 363 365
f 316 365 416
f 316 416 366
f 316 366 367
f 316 367 368
f 316 368 369
f 316 369 370
f 316 370 371
f 316 371 372
f 316 372 317
f 317 372 373
f 317 373 374
f 317 374 318
f 318 374 375
f 318 375 376
f 318 376 377
f 318 377 319
f 319 377 320
f 320 377 321
f 321 377 376
f 321 376 378
f 321 378 322
f 322 378 379
f 322 379 380
f 322 380 323
f 323 380 381
f 323 381 336
f 323 336 324
f 324 336 325
f 326 340 327
f 327 340 348
f 327 348 328
f 328 348 329
f 329 348 341
f 329 341 331
f 333 382 383
f 333 383 384
f 333 384 385
f 333 385 334
f 333 336 381
f 333 381 382
f 334 385 386
f 334 386 387
f 334 387 388
f 334 388 389
f 334 389 390
f 334 390 391
f 334 391 343
f 335 392 393
f 335 393 337
f 335 342 347
f 335 347 392
f 337 393 338
f 338 393 349
f 343 391 394
f 343 394 344
f 344 394 345
f 345 394 395
f 345 395 346
f 346 395 350
f 347 349 392
f 349 393 392
f 350 395 351
f 351 396 356
f 351 356 355
f 351 355 352
f 351 395 394
f 351 394 396
f 352 354 353
f 356 360 358
f 356 358 357
f 356 396 397
f 356 397 398
f 356 398 399
f 356 399 400
f 356 400 401
f 356 401 360
f 359 361 402
f 359 402 403
f 359 403 404
f 360 401 402
f 360 402 361
f 362 405 406
f 362 406 407
f 362 407 363
f 362 408 409
f 362 409 410
f 362 410 411
f 362 411 412
f 362 412 413
f 362 413 414
f 362 414 415
f 362 415 405
f 363 416 365
f 363 407 416
f 364 404 403
f 364 403 417
f 364 417 418
f 364 418 419
f 364 419 420
f 364 420 421
f 364 421 422
f 364 422 409
f 364 409 408
f 366 416 406
f 366 406 423
f 366 423 367
f 367 423 368
f 368 423 369
f 369 423 406
f 369 406 424
f 369 424 370
f 370 424 425
f 370 425 371
f 371 426 372
f 371 425 427
f 371 427 428
f 371 428 429
f 371 429 430
f 371 430 426
f 372 426 431
f 372 431 432
f 372 432 373
f 373 432 374
f 374 432 433
f 374 433 434
f 374 434 375
f 375 434 435
f 375 435 376
f 376 435 436
f 376 436 437
f 376 437 379
f 376 379 378
f 379 438 380
f 379 437 439
f 379 439 438
f 380 438 381
f 381 438 382
f 382 438 383
f 383 438 439
f 383 439 440
f 383 440 384
f 384 440 441
f 384 441 385
f 385 441 386
f 386 441 442
f 386 442 387
f 387 442 388
f 388 443 444
f 388 444 445
f 388 445 389
f 388 442 443
f 389 445 390
f 390 445 446
f 390 446 394
f 390 394 391
f 394 447 397
f 394 397 396
f 394 446 447
f 397 447 448
f 397 448 398
f 398 400 399
f 398 448 449
f 398 449 400
f 400 449 450
f 400 450 401
f 401 450 451
f 401 451 402
f 402 451 452
f 402 452 453
f 402 453 403
f 403 453 454
f 403 454 455
f 403 455 417
f 405 456 425
f 405 425 424
f 405 424 406
f 405 415 457
f 405 457 458
f 405 458 456
f 406 416 407
f 409 459 460
f 409 460 410
f 409 422 461
f 409 461 462
f 409 462 463
f 409 463 459
f 410 460 411
f 411 460 464
f 411 464 465
f 411 465 412
f 412 465 413
f 413 466 457
f 413 457 414
f 413 465 466
f 414 457 415
f 417 455 418
f 418 455 419
f 419 455 467
f 419 467 420
f 420 467 468
f 420 468 469
f 420 469 421
f 421 470 422
f 421 469 470
f 422 470 461
f 425 456 471
f 425 471 472
f 425 472 427
f 426 430 473
f 426 473 474
f 426 474 431
f 427 472 475
f 427 475 476
f 427 476 428
f 428 476 429
f 429 476 475
f 429 475 477
f 429 477 478
f 429 478 430
f 430 478 474
f 430 474 473
f 431 474 479
f 431 479 480
f 431 480 432
f 432 480 481
f 432 481 482
f 432 482 433
f 433 482 483
f 433 483 436
f 433 436 434
f 434 436 435
f 436 483 484
f 436 484 485
f 436 485 437
f 437 485 486
f 437 486 487
f 437 487 443
f 437 443 488
f 437 488 439
f 439 488 443
f 439 443 489
f 439 489 440
f 440 489 490
f 440 490 441
f 441 490 442
f 442 490 443
f 443 487 444
f 443 490 489
f 444 491 492
f 444 492 445
f 444 487 493
f 444 493 494
f 444 494 495
f 444 495 496
f 444 496 491
f 445 492 491
f 445 491 497
f 445 497 498
f 445 498 499
f 445 499 446
f 446 499 449
f 446 449 448
f 446 448 447
f 449 452 500
f 449 500 450
f 449 499 498
f 449 498 501
f 449 501 452
f 450 500 452
f 450 452 451
f 452 501 453
f 453 501 454
f 454 501 467
f 454 467 455
f 456 458 471
f 457 502 503
f 457 503 504
f 457 504 471
f 457 471 458
f 457 466 505
f 457 505 506
f 457 506 507
f 457 507 508
f 457 508 502
f 459 463 509
f 459 509 460
f 460 510 464
f 460 509 510
f 461 470 469
f 461 469 511
f 461 511 512
f 461 512 513
f 461 513 514
f 461 514 515
f 461 515 516
f 461 516 517
f 461 517 462
f 462 517 463
f 463 518 509
f 463 517 518
f 464 510 519
f 464 519 520
f 464 520 521
f 464 521 522
f 464 522 465
f 465 522 466
f 466 522 505
f 467 501 523
f 467 523 469
f 467 469 468
f 469 512 511
f 469 523 512
f 471 504 524
f 471 524 525
f 471 525 472
f 472 525 475
f 474 478 526
f 474 526 527
f 474 527 479
f 475 525 524
f 475 524 528
f 475 528 529
f 475 529 477
f 477 529 530
f 477 530 531
f 477 531 478
f 478 531 532
f 478 532 526
f 479 527 480
f 480 527 533
f 480 533 534
f 480 534 481
f 481 534 535
f 481 535 482
f 482 535 536
f 482 536 483
f 483 536 537
f 483 537 484
f 484 486 485
f 484 537 487
f 484 487 486
f 487 537 494
f 487 494 493
f 491 512 498
f 491 498 497
f 491 496 512
f 494 537 538
f 494 538 496
f 494 496 495
f 496 538 539
f 496 539 514
f 496 514 512
f 498 523 501
f 498 512 523
f 502 508 540
f 502 540 528
f 502 528 541
f 502 541 503
f 503 541 504
f 504 541 524
f 505 522 542
f 505 542 506
f 506 542 543
f 506 543 507
f 507 543 544
f 507 544 508
f 508 544 545
f 508 545 540
f 509 518 510
f 510 518 519
f 512 514 513
f 514 539 546
f 514 546 547
f 514 547 515
f 515 547 546
f 515 546 548
f 515 548 549
f 515 549 516
f 516 549 518
f 516 518 517
f 518 549 519
f 519 549 520
f 520 549 521
f 521 550 522
f 521 549 550
f 522 550 542
f 524 541 528
f 526 532 527
f 527 532 551
f 527 551 552
f 527 552 553
f 527 553 554
f 527 554 533
f 528 540 529
f 529 540 530
f 530 555 545
f 530 545 531
f 530 540 555
f 531 545 556
f 531 556 557
f 531 557 558
f 531 558 532
f 532 558 559
f 532 559 551
f 533 554 534
f 534 554 553
f 534 553 560
f 534 560 535
f 535 560 561
f 535 561 537
f 535 537 562
f 535 562 536
f 536 562 537
f 537 563 538
f 537 561 563
f 538 563 564
f 538 564 539
f 539 564 546
f 540 545 555
f 542 550 565
f 542 565 566
f 542 566 544
f 542 544 543
f 544 566 545
f 545 566 556
f 546 564 567
f 546 567 568
f 546 568 548
f 548 568 569
f 548 569 566
f 548 566 549
f 549 566 570
f 549 570 565
f 549 565 550
f 551 559 571
f 551 571 572
f 551 572 553
f 551 553 552
f 553 572 571
f 553 571 560
f 556 566 569
f 556 569 557
f 557 573 574
f 557 574 558
f 557 569 567
f 557 567 564
f 557 564 573
f 558 574 571
f 558 571 559
f 560 571 561
f 561 571 575
f 561 575 563
f 563 575 564
f 564 575 571
f 564 571 576
f 564 576 574
f 564 574 573
f 565 570 566
f 567 569 568
f 571 574 576

