# https://github.com/mikedh/trimesh
v 0.02435532 0.01057327 0.00518095
v 0.01288257 0.01005407 0.00518095
v 0.01369927 0.00980349 0.00553659
v 0.01451598 0.00981478 0.00556106
v 0.01288257 0.00937458 0.00593464
v 0.01369927 0.00939264 0.00593791
v 0.02436990 0.01025272 0.00543055
v 0.02514772 0.00993216 0.00568667
v 0.02566302 0.00993216 0.00568667
v 0.02514772 0.01034076 0.00536366
v 0.02514772 0.01056650 0.00518095
v 0.03176399 0.00615776 -0.00130379
v 0.01158459 0.00615776 -0.00130379
v 0.01206100 0.00976512 0.00549091
v 0.00960603 0.00989379 0.00518095
v 0.00878446 0.00927074 0.00584818
v 0.01206100 0.00935652 0.00591833
v 0.00877474 0.00839486 0.00659535
v 0.01288257 0.00883957 0.00634412
v 0.02514772 0.00951454 0.00599827
v 0.02594984 0.00959355 0.00593954
v 0.02620749 0.00991411 0.00567362
v 0.02591581 0.01046717 0.00518095
v 0.03418494 0.00591395 -0.00130379
v 0.04154500 -0.00045423 -0.00756992
v 0.03615864 -0.00057388 -0.00829588
v 0.00654825 -0.01021081 -0.00171326
v -0.00556620 0.00099052 0.00567689
v -0.00478838 0.00262940 0.00565078
v -0.00383556 0.00410124 0.00576824
v -0.00229938 0.00501550 0.00567852
v 0.00736495 0.00943779 0.00518095
v 0.00793373 0.00969965 0.00518095
v 0.00799693 0.00972222 0.00518095
v 0.00878446 0.00984864 0.00518095
v 0.00960603 0.00970191 0.00541913
v 0.00877474 0.00967256 0.00539792
v 0.00796776 0.00923688 0.00582045
v 0.00877474 0.00878765 0.00626581
v 0.00824972 0.00836551 0.00657741
v 0.00878446 0.00787565 0.00694447
v 0.02596928 0.00895244 0.00640774
v 0.02679085 0.00893890 0.00639959
v 0.02679085 0.00944682 0.00599174
v 0.02679085 0.00985767 0.00561326
v 0.02679085 0.01025272 0.00520379
v 0.02679085 0.01027303 0.00518095
v 0.03460787 0.00585752 -0.00130379
v 0.04154500 -0.00012465 -0.00701199
v 0.04202141 -0.00058065 -0.00747530
v 0.04161306 -0.00119467 -0.00758623
v 0.04072343 -0.00113146 -0.00773142
v 0.03631906 -0.00066192 -0.00827957
v 0.03615864 -0.00079736 -0.00829588
v 0.00637324 -0.01096253 -0.00171326
v -0.00559051 -0.00031427 0.00565568
v -0.00574121 -0.00031427 0.00609289
v -0.00568773 0.00050291 0.00609289
v -0.00560509 0.00112596 0.00609289
v -0.00550300 0.00153907 0.00609289
v -0.00524049 0.00214180 0.00609289
v -0.00489533 0.00278742 0.00609289
v -0.00398140 0.00425249 0.00631476
v -0.00312095 0.00502001 0.00645995
v -0.00284871 0.00485974 0.00591344
v -0.00312095 0.00502001 0.00657088
v -0.00273690 0.00516675 0.00687106
v -0.00249383 0.00515320 0.00743062
v 0.00747190 0.00917593 0.00576335
v -0.00186672 0.00523447 0.00748609
v 0.00960603 0.00736548 0.00728706
v 0.02596928 0.00854159 0.00664429
v 0.02679085 0.00852805 0.00662798
v 0.02731101 0.00843324 0.00657251
v 0.02742282 0.00929783 0.00588081
v 0.02740337 0.01003826 0.00518095
v 0.03467593 0.00592750 -0.00002152
v 0.04219642 -0.00041134 -0.00619466
v 0.04212836 -0.00046101 -0.00701199
v 0.04361107 -0.00478623 -0.00272472
v 0.04202141 -0.00096441 -0.00747530
v 0.04138944 -0.00172968 -0.00749977
v 0.04072343 -0.00188544 -0.00756502
v 0.04193390 -0.00151071 -0.00740678
v 0.03663019 -0.00195091 -0.00808707
v 0.03615864 -0.00155360 -0.00823389
v 0.03615864 -0.00149491 -0.00824531
v 0.03615864 -0.00105471 -0.00829262
v 0.03631906 -0.00097344 -0.00827957
v 0.00656769 -0.01161041 -0.00171326
v -0.00558078 -0.00158295 0.00566220
v -0.00559051 -0.00112695 0.00565242
v -0.00583357 -0.00031427 0.00691021
v -0.00573148 -0.00112695 0.00609289
v -0.00561967 0.00112145 0.00667692
v -0.00474463 0.00337661 0.00732458
v -0.00474463 0.00337661 0.00729032
v -0.00471546 0.00333372 0.00674218
v -0.00397168 0.00424120 0.00691021
v -0.00304316 0.00495229 0.00711739
v -0.00393279 0.00419831 0.00732947
v -0.00186672 0.00460013 0.00765249
v -0.00351471 0.00435633 0.00740941
v -0.00273690 0.00464754 0.00752035
v 0.00960603 0.00695237 0.00740778
v 0.02596928 0.00725712 0.00725769
v 0.02596928 0.00787791 0.00699015
v 0.02679085 0.00787791 0.00694773
v 0.04154014 -0.00059194 0.00738331
v 0.04195335 -0.00072287 0.00731969
v 0.02762700 0.00991862 0.00518095
v 0.03468079 0.00594556 0.00036022
v 0.04219642 -0.00041134 0.00518095
v 0.04382010 -0.00522642 0.00035533
v 0.04362565 -0.00476817 -0.00209664
v 0.04380552 -0.00522642 -0.00002152
v 0.04378121 -0.00522642 -0.00045547
v 0.04373260 -0.00522642 -0.00127769
v 0.04361107 -0.00499391 -0.00272472
v 0.04352842 -0.00525126 -0.00296453
v 0.04309576 -0.00529415 -0.00380959
v 0.04133110 -0.00333019 -0.00668734
v 0.04072343 -0.00277261 -0.00715065
v 0.04072343 -0.00229403 -0.00739373
v 0.03615864 -0.00406611 -0.00744920
v 0.03615864 -0.00360108 -0.00762702
v 0.03615864 -0.00277261 -0.00792556
v 0.04286242 -0.00506615 -0.00426964
v 0.04275061 -0.00561244 -0.00413260
v 0.04198738 -0.00407062 -0.00583576
v 0.04157903 -0.00359657 -0.00637901
v 0.03615864 -0.00194639 -0.00814906
v 0.00713647 -0.01218831 -0.00171326
v 0.00692743 -0.01201901 -0.00171326
v 0.00672326 -0.01180230 -0.00171326
v -0.00396196 -0.00403902 0.00565405
v -0.00402515 -0.00411577 0.00609289
v -0.00562940 -0.00166196 0.00609289
v -0.00582385 -0.00112695 0.00691021
v -0.00568773 -0.00112695 0.00744041
v -0.00567801 -0.00031427 0.00743714
v -0.00560509 0.00025008 0.00737189
v -0.00567801 0.00051646 0.00693468
v -0.00480297 0.00296125 0.00738494
v -0.00433142 0.00296125 0.00754971
v -0.00425364 0.00369942 0.00739473
v -0.00351471 0.00378069 0.00757581
v -0.00351471 0.00296125 0.00765249
v 0.01124430 0.00214406 0.00795429
v 0.01124430 0.00296350 0.00793145
v 0.01042273 0.00377617 0.00789393
v 0.01042273 0.00459788 0.00785804
v 0.01042273 0.00541732 0.00773732
v 0.00960603 0.00623451 0.00757744
v 0.02596928 0.00684627 0.00737678
v 0.02679085 0.00680789 0.00736536
v 0.02679085 0.00721649 0.00722996
v 0.03464676 0.00102438 0.00818921
v 0.03494331 0.00045325 0.00824468
v 0.03498706 -0.00031879 0.00832135
v 0.03625587 -0.00069352 0.00815332
v 0.04154014 -0.00091023 0.00738331
v 0.04195335 -0.00072513 0.00731969
v 0.04209433 -0.00105019 0.00689063
v 0.04207488 -0.00056711 0.00691021
v 0.02786034 0.00976737 0.00518095
v 0.03462732 0.00588912 0.00181378
v 0.03468079 0.00594104 0.00117917
v 0.04219156 -0.00041134 0.00608963
v 0.04365482 -0.00473882 0.00117591
v 0.04378608 -0.00522642 0.00117591
v 0.04372288 -0.00587205 0.00117591
v 0.04372773 -0.00608876 0.00028681
v 0.04371801 -0.00610005 -0.00002152
v 0.04370343 -0.00611585 -0.00042937
v 0.04368399 -0.00590591 -0.00127769
v 0.04364023 -0.00574563 -0.00191066
v 0.04364996 -0.00525126 -0.00215047
v 0.04357704 -0.00554021 -0.00245554
v 0.04295478 -0.00583819 -0.00358609
v 0.04154500 -0.00425573 -0.00597606
v 0.04113178 -0.00481557 -0.00578356
v 0.04080608 -0.00449051 -0.00612288
v 0.04072343 -0.00389229 -0.00654541
v 0.04072343 -0.00348144 -0.00677054
v 0.03615864 -0.00445890 -0.00725669
v 0.03629962 -0.00403451 -0.00743778
v 0.00765663 -0.01236439 -0.00171326
v 0.00733092 -0.01231021 -0.00171326
v 0.04240545 -0.00606619 -0.00376065
v 0.04220614 -0.00575015 -0.00427616
v 0.04154500 -0.00511130 -0.00528272
v 0.04209919 -0.00495779 -0.00511632
v 0.04154500 -0.00466658 -0.00569057
v 0.00726286 -0.01234408 -0.00127769
v 0.00685451 -0.01208447 -0.00127769
v -0.00404946 -0.00415415 0.00691021
v -0.00443351 -0.00358754 0.00691021
v 0.00678159 -0.01215445 -0.00045873
v -0.00354874 -0.00456274 0.00691021
v -0.00564884 -0.00168904 0.00691021
v -0.00560995 -0.00162132 0.00737515
v -0.00515298 -0.00191704 0.00748445
v -0.00514812 -0.00112695 0.00760518
v -0.00514812 -0.00031427 0.00760191
v -0.00490992 0.00214180 0.00746488
v -0.00433142 0.00214180 0.00762965
v -0.00433142 0.00132461 0.00765086
v -0.00433142 -0.00112695 0.00765086
v -0.00433142 -0.00194865 0.00764922
v 0.03416063 -0.00031879 0.00837029
v 0.03416063 0.00050291 0.00832298
v 0.02596928 0.00541958 0.00768185
v 0.02596928 0.00623676 0.00752035
v 0.02679085 0.00623676 0.00749261
v 0.03416063 0.00113273 0.00819900
v 0.03579890 -0.00098473 0.00818758
v 0.03625587 -0.00082671 0.00815332
v 0.03416063 -0.00112695 0.00830667
v 0.03663019 -0.00195316 0.00791514
v 0.04054356 -0.00165970 0.00736863
v 0.04108803 -0.00151522 0.00730990
v 0.04197766 -0.00403225 0.00570625
v 0.04284297 -0.00495779 0.00422496
v 0.04116095 -0.00320603 0.00651868
v 0.04352842 -0.00522642 0.00221673
v 0.04366454 -0.00522642 0.00180725
v 0.04231795 -0.00113146 0.00608963
v 0.04363537 -0.00476365 0.00174689
v 0.04364510 -0.00574337 0.00171916
v 0.04343606 -0.00628290 0.00117591
v 0.04364023 -0.00608876 0.00090184
v 0.04359648 -0.00646124 -0.00002642
v 0.04359648 -0.00646124 -0.00013409
v 0.04357704 -0.00643415 -0.00068386
v 0.04347009 -0.00631676 -0.00127769
v 0.04302770 -0.00610230 -0.00282423
v 0.04260477 -0.00638448 -0.00305752
v 0.04083524 -0.00527383 -0.00542465
v 0.03990673 -0.00547700 -0.00561389
v 0.04058731 -0.00493070 -0.00588144
v 0.04154500 -0.00534155 -0.00503638
v 0.03990673 -0.00506615 -0.00597443
v 0.03995534 -0.00437312 -0.00642143
v 0.03615864 -0.00517225 -0.00682601
v 0.00796290 -0.01239600 -0.00171326
v 0.00796290 -0.01245920 -0.00127769
v 0.04206030 -0.00649961 -0.00338543
v 0.04154014 -0.00610230 -0.00413913
v 0.04154014 -0.00587205 -0.00443114
v 0.04055329 -0.00574112 -0.00503638
v 0.04053870 -0.00572080 -0.00506738
v 0.04108803 -0.00561696 -0.00494176
v 0.04154014 -0.00552215 -0.00483899
v 0.00796290 -0.01248855 -0.00045873
v 0.00719481 -0.01235536 -0.00045873
v -0.00399599 -0.00409320 0.00739310
v 0.00681562 -0.01214994 0.00036022
v -0.00311608 -0.00482460 0.00732947
v -0.00488075 -0.00259427 0.00742899
v -0.00415641 -0.00358754 0.00745835
v -0.00351471 -0.00358754 0.00762475
v -0.00351471 -0.00276583 0.00765249
v -0.00269315 -0.00358754 0.00765249
v -0.00186672 -0.00440698 0.00765086
v 0.03252236 -0.00112695 0.00831483
v 0.03334393 -0.00112695 0.00832625
v 0.03504053 -0.00119918 0.00822510
v 0.03409743 -0.00194413 0.00819247
v 0.03579890 -0.00139332 0.00811743
v 0.03334393 -0.00194639 0.00823652
v 0.03579890 -0.00194639 0.00801139
v 0.03498706 -0.00276583 0.00793145
v 0.03498706 -0.00358528 0.00773895
v 0.04077691 -0.00193962 0.00720549
v 0.03498706 -0.00427605 0.00747467
v 0.04072343 -0.00277261 0.00685474
v 0.04215753 -0.00496231 0.00498029
v 0.04154014 -0.00414963 0.00578129
v 0.04154014 -0.00455823 0.00551375
v 0.04238601 -0.00523320 0.00445661
v 0.04261935 -0.00550409 0.00391500
v 0.04285756 -0.00572983 0.00337012
v 0.04072343 -0.00330987 0.00658230
v 0.04072343 -0.00372072 0.00631802
v 0.04299854 -0.00590365 0.00281055
v 0.04323188 -0.00608876 0.00204217
v 0.04275547 -0.00644769 0.00238476
v 0.04290617 -0.00654024 0.00183499
v 0.04351870 -0.00638900 0.00051683
v 0.04302770 -0.00660797 0.00117591
v 0.04359162 -0.00646349 -0.00002152
v 0.04236170 -0.00704139 0.00035533
v 0.04325619 -0.00662151 -0.00042937
v 0.04236170 -0.00693304 -0.00127769
v 0.04305687 -0.00660120 -0.00127769
v 0.04277492 -0.00645898 -0.00251264
v 0.04113665 -0.00727842 -0.00251101
v 0.04103942 -0.00555149 -0.00503638
v 0.03990673 -0.00582013 -0.00520605
v 0.03149662 -0.00976610 -0.00171326
v 0.02487062 -0.01056749 -0.00171326
v 0.01763209 -0.01140273 -0.00171326
v 0.01206100 -0.01200998 -0.00171326
v 0.01019425 -0.01220637 -0.00171326
v 0.01070469 -0.01217928 -0.00150445
v 0.00961089 -0.01230344 -0.00127769
v 0.01042273 -0.01227635 -0.00045873
v 0.00961089 -0.01235085 -0.00045873
v 0.04072343 -0.00736420 -0.00264641
v 0.04072343 -0.00711589 -0.00305752
v 0.04154014 -0.00658314 -0.00349963
v 0.04154014 -0.00628064 -0.00391073
v 0.01206100 -0.01214317 0.00036022
v 0.01042273 -0.01227861 0.00036022
v 0.00960603 -0.01233730 0.00036022
v 0.00796776 -0.01243437 0.00036022
v 0.00751565 -0.01221089 0.00328039
v 0.00745732 -0.01223572 0.00281545
v 0.00722397 -0.01232602 0.00036022
v 0.00720453 -0.01233956 -0.00002152
v -0.00343693 -0.00437989 0.00743551
v 0.00689340 -0.01210705 0.00117917
v -0.00269315 -0.00492167 0.00740941
v -0.00148268 -0.00564405 0.00733274
v -0.00269315 -0.00440698 0.00757418
v -0.00105488 -0.00522417 0.00755297
v -0.00023331 -0.00522417 0.00758723
v 0.00905184 -0.00899406 0.00734905
v 0.00960117 -0.00850194 0.00742736
v 0.03252236 -0.00194639 0.00824468
v 0.03378145 -0.00237079 0.00814353
v 0.03334393 -0.00241368 0.00815332
v 0.00960117 -0.00900535 0.00735721
v 0.03252236 -0.00245205 0.00816474
v 0.03416063 -0.00358528 0.00783194
v 0.03418008 -0.00447245 0.00750403
v 0.03447176 -0.00479300 0.00730174
v 0.03498706 -0.00468690 0.00724301
v 0.04154014 -0.00511807 0.00510427
v 0.04108803 -0.00561922 0.00484488
v 0.04154014 -0.00552892 0.00471927
v 0.04207002 -0.00569823 0.00414013
v 0.04066510 -0.00442730 0.00587102
v 0.04089844 -0.00471173 0.00561000
v 0.04235198 -0.00587205 0.00363929
v 0.04291589 -0.00608876 0.00266862
v 0.03949351 -0.00399613 0.00650073
v 0.04239087 -0.00608876 0.00326244
v 0.04243462 -0.00632127 0.00285623
v 0.04157903 -0.00626935 0.00364745
v 0.04100053 -0.00638900 0.00392805
v 0.04133110 -0.00654024 0.00338317
v 0.04157903 -0.00669826 0.00285623
v 0.04098595 -0.00721747 0.00228035
v 0.04129707 -0.00734840 0.00173547
v 0.04243462 -0.00670504 0.00206338
v 0.04184640 -0.00722650 0.00117591
v 0.04236170 -0.00696915 0.00117591
v 0.04190474 -0.00725359 0.00035533
v 0.04143805 -0.00742064 0.00117591
v 0.04236170 -0.00703462 -0.00045547
v 0.04177348 -0.00719715 -0.00127769
v 0.04122901 -0.00731680 -0.00209664
v 0.04163736 -0.00712266 -0.00209664
v 0.04236170 -0.00676599 -0.00209664
v 0.04072343 -0.00751771 -0.00209664
v 0.04088872 -0.00638448 -0.00404124
v 0.04034425 -0.00646575 -0.00415544
v 0.03990673 -0.00594203 -0.00503638
v 0.03190497 -0.00968709 -0.00171326
v 0.03200706 -0.00971644 -0.00151750
v 0.03088409 -0.00991058 -0.00127769
v 0.03006739 -0.01001216 -0.00127769
v 0.02539564 -0.01053362 -0.00154034
v 0.03990673 -0.00623098 -0.00462854
v 0.02187118 -0.01098737 -0.00127769
v 0.01814253 -0.01136436 -0.00159417
v 0.01119082 -0.01214768 -0.00124995
v 0.01615911 -0.01161041 -0.00127769
v 0.01206100 -0.01205287 -0.00127769
v 0.01144361 -0.01217026 -0.00045873
v 0.03547319 -0.00895117 -0.00171326
v 0.03497734 -0.00907307 -0.00171326
v 0.04066023 -0.00666214 -0.00375738
v 0.01287771 -0.01205738 0.00036022
v 0.01206100 -0.01209350 0.00117917
v 0.01104984 -0.01220412 0.00095241
v 0.00960603 -0.01227635 0.00117917
v 0.00796776 -0.01234633 0.00158049
v 0.00796776 -0.01231473 0.00199649
v 0.00774900 -0.01221089 0.00328039
v 0.00878446 -0.01123342 0.00537997
v 0.00845389 -0.01132598 0.00518095
v 0.00811846 -0.01141853 0.00497539
v 0.00757399 -0.01136661 0.00485630
v -0.00179866 -0.00522191 0.00745998
v -0.00105488 -0.00569371 0.00738657
v 0.00810388 -0.01075485 0.00592812
v 0.00820110 -0.00996475 0.00668834
v 0.00878446 -0.01005054 0.00677644
v 0.00877960 -0.00928978 0.00718265
v 0.00960117 -0.00941394 0.00713860
v 0.03334393 -0.00282001 0.00805381
v 0.01013105 -0.00895343 0.00733926
v 0.03334393 -0.00490813 0.00737352
v 0.03334393 -0.00440472 0.00759213
v 0.03392729 -0.00485846 0.00734742
v 0.03481691 -0.00572757 0.00656762
v 0.03504539 -0.00530092 0.00680417
v 0.03231332 -0.00649961 0.00653825
v 0.03285779 -0.00643415 0.00648605
v 0.03416063 -0.00624452 0.00635554
v 0.03916780 -0.00439569 0.00633107
v 0.03894905 -0.00411352 0.00657088
v 0.04035397 -0.00483363 0.00569320
v 0.04071857 -0.00522642 0.00527067
v 0.04045606 -0.00651767 0.00412871
v 0.03990673 -0.00532801 0.00543381
v 0.04054356 -0.00571854 0.00492808
v 0.03416063 -0.00720844 0.00561652
v 0.04154014 -0.00583819 0.00430816
v 0.04072343 -0.00665763 0.00364745
v 0.04071857 -0.00707751 0.00278934
v 0.04044148 -0.00732131 0.00250385
v 0.04071857 -0.00744547 0.00200302
v 0.04072343 -0.00769604 0.00117591
v 0.04149638 -0.00743870 0.00035533
v 0.04145263 -0.00740484 -0.00045547
v 0.04136513 -0.00737098 -0.00127769
v 0.04072343 -0.00761478 -0.00127769
v 0.03558986 -0.00899632 -0.00127769
v 0.03497734 -0.00915660 -0.00127769
v 0.03217234 -0.00974578 -0.00097262
v 0.03172024 -0.00979093 -0.00125811
v 0.03416063 -0.00931913 -0.00127769
v 0.03247861 -0.00965549 -0.00125811
v 0.03088409 -0.00997830 -0.00045873
v 0.02569219 -0.01056974 -0.00099383
v 0.02269274 -0.01089030 -0.00127769
v 0.02187118 -0.01105283 -0.00045873
v 0.02106419 -0.01114313 -0.00045873
v 0.02106419 -0.01107541 -0.00127769
v 0.01206100 -0.01210479 -0.00045873
v 0.02269760 -0.01096705 0.00036022
v 0.01287771 -0.01200546 0.00117917
v 0.00925115 -0.01219734 0.00244512
v 0.01071927 -0.01218380 0.00149729
v 0.01128805 -0.01216348 0.00120691
v 0.00878446 -0.01226507 0.00199649
v 0.00799693 -0.01224024 0.00285460
v 0.00878446 -0.01196032 0.00363277
v 0.00878446 -0.01163299 0.00445335
v 0.00878446 -0.01141628 0.00497050
v 0.00878446 -0.01132372 0.00518095
v 0.00828861 -0.01218154 0.00315314
v 0.03040768 -0.00972547 0.00236682
v 0.02986321 -0.00975933 0.00247612
v 0.02925068 -0.00979996 0.00258216
v 0.00878446 -0.01082483 0.00600969
v 0.03137022 -0.00893085 0.00406508
v 0.00878446 -0.01046139 0.00642080
v 0.00960117 -0.00997378 0.00673076
v 0.03504539 -0.00601878 0.00628702
v 0.03536624 -0.00562147 0.00649421
v 0.03416063 -0.00679759 0.00594770
v 0.03170566 -0.00695561 0.00622503
v 0.03311544 -0.00730100 0.00570788
v 0.03365505 -0.00725585 0.00566547
v 0.03990673 -0.00491716 0.00575845
v 0.03429675 -0.00751319 0.00518095
v 0.03535652 -0.00808658 0.00403082
v 0.03498706 -0.00664634 0.00583024
v 0.03283349 -0.00807981 0.00483999
v 0.03411202 -0.00756286 0.00518095
v 0.03416549 -0.00755157 0.00518095
v 0.03500650 -0.00876832 0.00278282
v 0.03528846 -0.00889022 0.00228688
v 0.04072343 -0.00772765 0.00035533
v 0.03543430 -0.00893988 0.00174200
v 0.03498220 -0.00911822 0.00117917
v 0.03498220 -0.00918594 0.00036022
v 0.03497734 -0.00922658 -0.00045873
v 0.04072343 -0.00770282 -0.00002152
v 0.03416063 -0.00939363 -0.00045873
v 0.03225985 -0.00976159 -0.00045873
v 0.03170566 -0.00985640 -0.00045873
v 0.03334393 -0.00955616 -0.00045873
v 0.03170566 -0.00986317 -0.00002152
v 0.03088895 -0.00998959 0.00036022
v 0.03006739 -0.01008440 -0.00002152
v 0.02761241 -0.01037560 -0.00045873
v 0.02477339 -0.01071873 -0.00002152
v 0.02515258 -0.01068036 0.00036022
v 0.02577483 -0.01057877 0.00090999
v 0.02269760 -0.01089481 0.00117917
v 0.01123944 -0.01205287 0.00199649
v 0.00960603 -0.01185873 0.00363277
v 0.02797215 -0.00972772 0.00321024
v 0.02106419 -0.01092642 0.00199649
v 0.02376710 -0.01053362 0.00232114
v 0.02760755 -0.01014986 0.00199649
v 0.02842426 -0.01005054 0.00199649
v 0.02925068 -0.00994895 0.00199649
v 0.03088895 -0.00978190 0.00181704
v 0.03088895 -0.00969386 0.00222652
v 0.03170080 -0.00936879 0.00281545
v 0.03088895 -0.00949521 0.00281545
v 0.03088895 -0.00864868 0.00451861
v 0.03088409 -0.00823783 0.00504065
v 0.03006253 -0.00829878 0.00512059
v 0.03006253 -0.00824911 0.00518095
v 0.03006253 -0.00795339 0.00553006
v 0.03088895 -0.00917014 0.00363277
v 0.03166677 -0.00904147 0.00365887
v 0.03306683 -0.00893988 0.00328365
v 0.03416549 -0.00883153 0.00303079
v 0.03191469 -0.00887216 0.00394925
v 0.03504539 -0.00832135 0.00370781
v 0.03416549 -0.00794210 0.00463443
v 0.03334393 -0.00803014 0.00476494
v 0.03228902 -0.00812495 0.00489872
v 0.03170566 -0.00741161 0.00581718
v 0.03088409 -0.00812044 0.00518095
v 0.03473913 -0.00894891 0.00248917
v 0.03416549 -0.00917691 0.00199649
v 0.03500650 -0.00900309 0.00200628
v 0.03416549 -0.00929656 0.00117917
v 0.03416549 -0.00936428 0.00036022
v 0.03334393 -0.00954262 0.00036022
v 0.03267792 -0.00968258 0.00036022
v 0.03226471 -0.00976610 0.00036022
v 0.03245916 -0.00972772 -0.00002152
v 0.03226471 -0.00976384 -0.00002152
v 0.03170080 -0.00986768 0.00036022
v 0.03088895 -0.00990380 0.00117917
v 0.02760755 -0.01038915 0.00036022
v 0.03218693 -0.00975030 0.00086268
v 0.02679571 -0.01048622 0.00036022
v 0.02510882 -0.01060812 0.00118243
v 0.02679571 -0.01040721 0.00117917
v 0.02480742 -0.01056071 0.00162454
v 0.02679571 -0.01024693 0.00199649
v 0.03138481 -0.00975030 0.00166206
v 0.03168135 -0.00963291 0.00195897
v 0.03252236 -0.00922432 0.00281545
v 0.03416549 -0.00900309 0.00262131
v 0.03252236 -0.00947489 0.00199649
v 0.03334393 -0.00933042 0.00199649
v 0.03192928 -0.00970289 0.00140757
v 0.03168135 -0.00979093 0.00115144
f 1 2 3
f 1 3 4
f 1 4 5
f 1 5 6
f 1 6 7
f 1 7 8
f 1 8 9
f 1 9 10
f 1 10 11
f 1 11 12
f 1 12 13
f 1 13 2
f 2 14 3
f 2 13 15
f 2 15 14
f 3 14 16
f 3 16 17
f 3 17 4
f 4 17 5
f 5 17 18
f 5 18 19
f 5 19 6
f 6 19 8
f 6 8 7
f 8 20 21
f 8 21 9
f 8 19 20
f 9 11 10
f 9 21 22
f 9 22 11
f 11 22 23
f 11 23 24
f 11 24 12
f 12 24 25
f 12 25 26
f 12 26 13
f 13 27 28
f 13 28 29
f 13 29 30
f 13 30 31
f 13 31 32
f 13 32 33
f 13 33 34
f 13 34 35
f 13 35 15
f 13 26 27
f 14 15 36
f 14 36 16
f 15 35 36
f 16 36 37
f 16 37 38
f 16 38 39
f 16 39 17
f 17 39 18
f 18 39 40
f 18 40 41
f 18 41 19
f 19 42 20
f 19 41 42
f 20 42 21
f 21 42 43
f 21 43 22
f 22 43 44
f 22 44 45
f 22 45 23
f 23 45 46
f 23 46 47
f 23 47 48
f 23 48 24
f 24 48 25
f 25 49 50
f 25 50 51
f 25 51 52
f 25 52 26
f 25 48 49
f 26 52 53
f 26 53 89
f 26 89 54
f 26 54 55
f 26 55 27
f 27 55 28
f 28 56 57
f 28 57 58
f 28 58 59
f 28 59 60
f 28 60 61
f 28 61 29
f 28 55 56
f 29 61 62
f 29 62 30
f 30 62 63
f 30 63 64
f 30 64 65
f 30 65 31
f 31 65 64
f 31 64 32
f 32 64 33
f 33 64 66
f 33 66 67
f 33 67 68
f 33 68 34
f 34 68 69
f 34 69 38
f 34 38 35
f 35 38 37
f 35 37 36
f 38 40 39
f 38 69 68
f 38 68 70
f 38 70 40
f 40 70 41
f 41 71 42
f 41 70 71
f 42 71 72
f 42 72 43
f 43 72 73
f 43 73 74
f 43 74 75
f 43 75 44
f 44 75 45
f 45 75 76
f 45 76 46
f 46 76 47
f 47 76 48
f 48 76 77
f 48 77 78
f 48 78 79
f 48 79 49
f 49 79 50
f 50 79 80
f 50 80 119
f 50 119 81
f 50 81 51
f 51 82 83
f 51 83 52
f 51 81 84
f 51 84 82
f 52 83 85
f 52 85 86
f 52 86 87
f 52 87 88
f 52 88 89
f 52 89 53
f 54 89 88
f 54 88 55
f 55 88 90
f 55 90 91
f 55 91 92
f 55 92 56
f 56 92 57
f 57 93 58
f 57 92 94
f 57 94 139
f 57 139 93
f 58 93 59
f 59 93 95
f 59 95 60
f 60 95 96
f 60 96 97
f 60 97 61
f 61 97 98
f 61 98 62
f 62 98 63
f 63 99 66
f 63 66 64
f 63 98 97
f 63 97 96
f 63 96 99
f 66 100 67
f 66 99 101
f 66 101 100
f 67 100 68
f 68 102 70
f 68 100 101
f 68 101 103
f 68 103 104
f 68 104 102
f 70 102 105
f 70 105 71
f 71 105 106
f 71 106 107
f 71 107 72
f 72 107 73
f 73 107 108
f 73 108 74
f 74 108 109
f 74 109 110
f 74 110 75
f 75 111 76
f 75 110 111
f 76 111 112
f 76 112 77
f 77 112 78
f 78 113 114
f 78 114 115
f 78 115 80
f 78 80 79
f 78 112 113
f 80 115 114
f 80 114 116
f 80 116 117
f 80 117 118
f 80 118 119
f 81 119 120
f 81 120 121
f 81 121 84
f 82 122 123
f 82 123 124
f 82 124 83
f 82 84 122
f 83 124 125
f 83 125 126
f 83 126 127
f 83 127 85
f 84 121 128
f 84 128 129
f 84 129 130
f 84 130 131
f 84 131 122
f 85 127 132
f 85 132 86
f 86 132 133
f 86 133 87
f 87 133 134
f 87 134 135
f 87 135 90
f 87 90 88
f 90 135 136
f 90 136 91
f 91 137 138
f 91 138 94
f 91 94 92
f 91 136 137
f 93 139 140
f 93 140 141
f 93 141 142
f 93 142 143
f 93 143 95
f 94 138 139
f 95 143 142
f 95 142 96
f 96 144 145
f 96 145 146
f 96 146 101
f 96 101 99
f 96 142 144
f 101 146 103
f 102 104 147
f 102 147 148
f 102 148 149
f 102 149 150
f 102 150 151
f 102 151 152
f 102 152 153
f 102 153 154
f 102 154 105
f 103 146 147
f 103 147 104
f 105 154 155
f 105 155 106
f 106 155 156
f 106 156 157
f 106 157 108
f 106 108 107
f 108 157 158
f 108 158 109
f 109 158 159
f 109 159 160
f 109 160 161
f 109 161 218
f 109 218 162
f 109 162 163
f 109 163 110
f 110 163 164
f 110 164 165
f 110 165 166
f 110 166 111
f 111 166 167
f 111 167 168
f 111 168 112
f 112 168 169
f 112 169 113
f 113 169 170
f 113 170 114
f 114 170 171
f 114 171 172
f 114 172 173
f 114 173 174
f 114 174 175
f 114 175 116
f 116 175 176
f 116 176 117
f 117 176 118
f 118 176 177
f 118 177 178
f 118 178 119
f 119 178 177
f 119 177 179
f 119 179 120
f 120 179 180
f 120 180 121
f 121 180 129
f 121 129 128
f 122 131 181
f 122 181 182
f 122 182 183
f 122 183 184
f 122 184 185
f 122 185 123
f 123 185 186
f 123 186 124
f 124 186 187
f 124 187 125
f 125 187 186
f 125 186 188
f 125 188 189
f 125 189 126
f 126 189 127
f 127 189 132
f 129 190 191
f 129 191 192
f 129 192 193
f 129 193 130
f 129 180 190
f 130 193 194
f 130 194 181
f 130 181 131
f 132 189 133
f 133 189 195
f 133 195 196
f 133 196 134
f 134 196 137
f 134 137 136
f 134 136 135
f 137 197 198
f 137 198 138
f 137 196 199
f 137 199 200
f 137 200 197
f 138 201 139
f 138 198 201
f 139 201 202
f 139 202 140
f 140 202 203
f 140 203 204
f 140 204 205
f 140 205 141
f 141 205 206
f 141 206 144
f 141 144 142
f 144 206 145
f 145 207 147
f 145 147 146
f 145 206 207
f 147 207 148
f 148 207 208
f 148 208 149
f 149 208 209
f 149 209 210
f 149 210 211
f 149 211 150
f 150 211 151
f 151 211 152
f 152 211 212
f 152 212 213
f 152 213 153
f 153 213 214
f 153 214 154
f 154 214 155
f 155 214 156
f 156 214 215
f 156 215 216
f 156 216 158
f 156 158 157
f 158 216 212
f 158 212 159
f 159 212 160
f 160 217 218
f 160 218 161
f 160 212 211
f 160 211 219
f 160 219 217
f 162 218 220
f 162 220 221
f 162 221 222
f 162 222 163
f 163 223 224
f 163 224 164
f 163 222 225
f 163 225 223
f 164 224 226
f 164 226 227
f 164 227 165
f 165 227 228
f 165 228 169
f 165 169 166
f 166 169 167
f 167 169 168
f 169 228 229
f 169 229 170
f 170 229 171
f 171 229 227
f 171 227 230
f 171 230 172
f 172 230 231
f 172 231 232
f 172 232 233
f 172 233 173
f 173 233 234
f 173 234 174
f 174 234 175
f 175 234 235
f 175 235 176
f 176 235 177
f 177 235 236
f 177 236 180
f 177 180 179
f 180 236 237
f 180 237 238
f 180 238 190
f 181 194 182
f 182 239 240
f 182 240 241
f 182 241 183
f 182 194 193
f 182 193 192
f 182 192 242
f 182 242 239
f 183 241 243
f 183 243 184
f 184 243 244
f 184 244 245
f 184 245 186
f 184 186 185
f 186 245 246
f 186 246 188
f 188 246 247
f 188 247 195
f 188 195 189
f 190 238 248
f 190 248 191
f 191 248 249
f 191 249 250
f 191 250 251
f 191 251 252
f 191 252 253
f 191 253 254
f 191 254 242
f 191 242 192
f 195 247 255
f 195 255 256
f 195 256 199
f 195 199 196
f 197 200 257
f 197 257 198
f 198 257 202
f 198 202 201
f 199 256 258
f 199 258 200
f 200 258 259
f 200 259 257
f 202 257 260
f 202 260 203
f 203 260 261
f 203 261 262
f 203 262 204
f 204 210 209
f 204 209 208
f 204 208 205
f 204 262 210
f 205 208 207
f 205 207 206
f 210 262 263
f 210 263 211
f 211 263 264
f 211 264 265
f 211 265 266
f 211 266 267
f 211 267 219
f 212 216 215
f 212 215 213
f 213 215 214
f 217 219 268
f 217 268 269
f 217 269 270
f 217 270 220
f 217 220 218
f 219 267 271
f 219 271 269
f 219 269 268
f 220 270 272
f 220 272 273
f 220 273 274
f 220 274 221
f 221 275 222
f 221 274 276
f 221 276 275
f 222 275 277
f 222 277 225
f 223 278 224
f 223 225 279
f 223 279 280
f 223 280 278
f 224 278 281
f 224 281 282
f 224 282 283
f 224 283 230
f 224 230 226
f 225 277 284
f 225 284 285
f 225 285 280
f 225 280 279
f 226 230 227
f 227 229 228
f 230 283 286
f 230 286 287
f 230 287 231
f 231 287 288
f 231 288 289
f 231 289 290
f 231 290 232
f 232 290 233
f 233 290 291
f 233 291 292
f 233 292 293
f 233 293 294
f 233 294 234
f 234 294 235
f 235 294 295
f 235 295 296
f 235 296 297
f 235 297 236
f 236 297 237
f 237 297 238
f 238 297 298
f 238 298 248
f 239 242 299
f 239 299 240
f 240 300 245
f 240 245 243
f 240 243 241
f 240 299 252
f 240 252 300
f 242 254 253
f 242 253 299
f 243 245 244
f 245 300 301
f 245 301 302
f 245 302 303
f 245 303 304
f 245 304 305
f 245 305 246
f 246 305 247
f 247 305 306
f 247 306 307
f 247 307 308
f 247 308 309
f 247 309 255
f 248 298 310
f 248 310 311
f 248 311 312
f 248 312 313
f 248 313 249
f 249 313 251
f 249 251 250
f 251 313 300
f 251 300 252
f 252 299 253
f 255 309 314
f 255 314 315
f 255 315 316
f 255 316 317
f 255 317 318
f 255 318 319
f 255 319 320
f 255 320 321
f 255 321 256
f 256 321 258
f 257 261 260
f 257 259 322
f 257 322 262
f 257 262 261
f 258 323 259
f 258 321 320
f 258 320 319
f 258 319 323
f 259 324 322
f 259 323 318
f 259 318 325
f 259 325 324
f 262 322 326
f 262 326 265
f 262 265 264
f 262 264 263
f 265 326 327
f 265 327 328
f 265 328 329
f 265 329 330
f 265 330 267
f 265 267 266
f 267 330 331
f 267 331 271
f 269 271 332
f 269 332 272
f 269 272 270
f 271 333 332
f 271 331 334
f 271 334 335
f 271 335 333
f 272 332 273
f 273 332 336
f 273 336 274
f 274 336 337
f 274 337 276
f 275 276 277
f 276 337 338
f 276 338 339
f 276 339 284
f 276 284 277
f 278 280 340
f 278 340 341
f 278 341 342
f 278 342 343
f 278 343 281
f 280 285 344
f 280 344 345
f 280 345 340
f 281 343 282
f 282 343 346
f 282 346 283
f 283 346 288
f 283 288 347
f 283 347 286
f 284 339 348
f 284 348 285
f 285 348 344
f 286 347 287
f 287 347 288
f 288 346 349
f 288 349 350
f 288 350 351
f 288 351 352
f 288 352 353
f 288 353 354
f 288 354 355
f 288 355 356
f 288 356 357
f 288 357 289
f 289 291 290
f 289 357 356
f 289 356 358
f 289 358 359
f 289 359 291
f 291 359 292
f 292 359 358
f 292 358 293
f 293 360 294
f 293 358 361
f 293 361 360
f 294 360 362
f 294 362 295
f 295 362 363
f 295 363 364
f 295 364 365
f 295 365 296
f 296 365 366
f 296 366 297
f 297 366 298
f 298 365 364
f 298 364 367
f 298 367 310
f 298 366 365
f 300 313 368
f 300 368 369
f 300 369 370
f 300 370 301
f 301 371 372
f 301 372 373
f 301 373 374
f 301 374 375
f 301 375 302
f 301 370 376
f 301 376 369
f 301 369 311
f 301 311 371
f 302 375 377
f 302 377 378
f 302 378 303
f 303 378 304
f 304 378 306
f 304 306 305
f 306 379 307
f 306 378 380
f 306 380 381
f 306 381 379
f 307 379 308
f 308 379 382
f 308 382 314
f 308 314 309
f 310 367 383
f 310 383 384
f 310 384 371
f 310 371 311
f 311 369 385
f 311 385 312
f 312 385 368
f 312 368 313
f 314 386 387
f 314 387 388
f 314 388 315
f 314 382 386
f 315 388 316
f 316 388 389
f 316 389 390
f 316 390 317
f 317 390 318
f 318 390 391
f 318 391 392
f 318 392 393
f 318 393 394
f 318 394 395
f 318 395 396
f 318 396 325
f 318 323 319
f 322 324 326
f 324 325 397
f 324 397 326
f 325 398 397
f 325 396 399
f 325 399 400
f 325 400 401
f 325 401 398
f 326 397 327
f 327 397 398
f 327 398 329
f 327 329 328
f 329 402 401
f 329 401 403
f 329 403 334
f 329 334 330
f 329 398 402
f 330 334 331
f 332 333 336
f 333 404 336
f 333 335 334
f 333 334 404
f 334 403 405
f 334 405 406
f 334 406 337
f 334 337 407
f 334 407 336
f 334 336 404
f 336 407 337
f 337 406 408
f 337 408 338
f 338 409 410
f 338 410 339
f 338 408 411
f 338 411 412
f 338 412 413
f 338 413 409
f 339 410 414
f 339 414 415
f 339 415 348
f 340 345 416
f 340 416 417
f 340 417 341
f 341 418 342
f 341 417 419
f 341 419 420
f 341 420 421
f 341 421 418
f 342 418 422
f 342 422 343
f 343 422 418
f 343 418 352
f 343 352 351
f 343 351 346
f 344 348 416
f 344 416 345
f 346 351 349
f 348 415 414
f 348 414 416
f 349 351 350
f 352 418 353
f 353 418 423
f 353 423 354
f 354 423 424
f 354 424 355
f 355 424 425
f 355 425 426
f 355 426 356
f 356 426 427
f 356 427 361
f 356 361 358
f 360 361 428
f 360 428 362
f 361 427 428
f 362 428 429
f 362 429 430
f 362 430 363
f 363 430 364
f 364 430 367
f 367 430 431
f 367 431 432
f 367 432 433
f 367 433 383
f 368 385 369
f 369 376 370
f 371 384 372
f 372 434 435
f 372 435 373
f 372 384 433
f 372 433 436
f 372 436 437
f 372 437 434
f 373 435 438
f 373 438 374
f 374 439 440
f 374 440 375
f 374 438 439
f 375 440 377
f 377 440 439
f 377 439 441
f 377 441 442
f 377 442 443
f 377 443 378
f 378 443 380
f 379 381 442
f 379 442 444
f 379 444 382
f 380 443 442
f 380 442 381
f 382 444 386
f 383 433 384
f 386 442 445
f 386 445 446
f 386 446 387
f 386 444 442
f 387 446 447
f 387 447 448
f 387 448 449
f 387 449 388
f 388 449 448
f 388 448 389
f 389 448 450
f 389 450 390
f 390 450 391
f 391 450 451
f 391 451 392
f 392 452 453
f 392 453 454
f 392 454 455
f 392 455 393
f 392 451 447
f 392 447 456
f 392 456 457
f 392 457 458
f 392 458 459
f 392 459 452
f 393 460 394
f 393 455 461
f 393 461 460
f 394 460 395
f 395 460 399
f 395 399 396
f 398 401 402
f 399 460 462
f 399 462 400
f 400 462 401
f 401 462 463
f 401 463 411
f 401 411 403
f 403 411 408
f 403 408 405
f 405 408 406
f 409 464 465
f 409 465 414
f 409 414 410
f 409 413 466
f 409 466 464
f 411 467 468
f 411 468 469
f 411 469 421
f 411 421 466
f 411 466 412
f 411 463 462
f 411 462 467
f 412 466 413
f 414 470 416
f 414 465 470
f 416 470 419
f 416 419 417
f 418 471 472
f 418 472 425
f 418 425 423
f 418 421 471
f 419 470 473
f 419 473 420
f 420 473 421
f 421 469 474
f 421 474 475
f 421 475 476
f 421 476 471
f 421 473 466
f 423 425 424
f 425 472 477
f 425 477 478
f 425 478 426
f 426 478 427
f 427 479 428
f 427 478 480
f 427 480 481
f 427 481 482
f 427 482 483
f 427 483 479
f 428 479 429
f 429 479 484
f 429 484 431
f 429 431 430
f 431 484 483
f 431 483 432
f 432 483 433
f 433 483 485
f 433 485 434
f 433 434 436
f 434 486 487
f 434 487 435
f 434 437 436
f 434 485 488
f 434 488 486
f 435 487 438
f 438 487 489
f 438 489 490
f 438 490 491
f 438 491 492
f 438 492 439
f 439 492 441
f 441 492 493
f 441 493 494
f 441 494 445
f 441 445 442
f 445 494 495
f 445 495 446
f 446 495 496
f 446 496 497
f 446 497 447
f 447 497 456
f 447 451 450
f 447 450 448
f 452 459 498
f 452 498 453
f 453 498 499
f 453 499 454
f 454 499 461
f 454 461 455
f 456 497 496
f 456 496 500
f 456 500 501
f 456 501 457
f 457 501 502
f 457 502 503
f 457 503 504
f 457 504 505
f 457 505 506
f 457 506 507
f 457 507 508
f 457 508 458
f 458 508 459
f 459 508 499
f 459 499 498
f 460 461 509
f 460 509 510
f 460 510 511
f 460 511 512
f 460 512 513
f 460 513 462
f 461 499 514
f 461 514 508
f 461 508 507
f 461 507 515
f 461 515 516
f 461 516 517
f 461 517 518
f 461 518 519
f 461 519 472
f 461 472 520
f 461 520 521
f 461 521 474
f 461 474 522
f 461 522 510
f 461 510 509
f 462 513 468
f 462 468 523
f 462 523 467
f 464 470 465
f 464 466 470
f 466 473 470
f 467 523 468
f 468 513 469
f 469 513 524
f 469 524 522
f 469 522 474
f 471 476 472
f 472 476 520
f 472 519 477
f 474 521 475
f 475 521 476
f 476 521 520
f 477 519 517
f 477 517 525
f 477 525 478
f 478 525 526
f 478 526 527
f 478 527 480
f 479 483 484
f 480 527 481
f 481 527 528
f 481 528 529
f 481 529 482
f 482 529 483
f 483 529 530
f 483 530 531
f 483 531 485
f 485 531 532
f 485 532 488
f 486 533 534
f 486 534 535
f 486 535 489
f 486 489 487
f 486 488 533
f 488 532 533
f 489 535 490
f 490 536 495
f 490 495 537
f 490 537 491
f 490 535 538
f 490 538 536
f 491 537 492
f 492 537 539
f 492 539 493
f 493 539 494
f 494 539 495
f 495 540 496
f 495 539 537
f 495 536 541
f 495 541 540
f 496 540 542
f 496 542 500
f 499 508 514
f 500 542 543
f 500 543 501
f 501 543 502
f 502 543 542
f 502 542 541
f 502 541 503
f 503 541 504
f 504 541 505
f 505 536 544
f 505 544 506
f 505 541 536
f 506 544 545
f 506 545 525
f 506 525 507
f 507 546 515
f 507 525 546
f 510 522 524
f 510 524 512
f 510 512 511
f 512 524 513
f 515 546 516
f 516 547 525
f 516 525 517
f 516 546 547
f 517 519 518
f 525 547 546
f 525 545 548
f 525 548 549
f 525 549 526
f 526 549 550
f 526 550 538
f 526 538 527
f 527 538 528
f 528 538 530
f 528 530 529
f 530 538 531
f 531 538 532
f 532 534 533
f 532 538 535
f 532 535 534
f 536 538 551
f 536 551 544
f 538 550 551
f 540 541 542
f 544 551 550
f 544 550 549
f 544 549 545
f 545 549 548

