# https://github.com/mikedh/trimesh
v 0.02433639 0.01268293 -0.00046140
v 0.02433639 0.01257000 -0.00127957
v 0.02351654 0.01257491 -0.00127957
v 0.02351654 0.01265347 -0.00046140
v 0.02307642 0.01262401 -0.00002291
v 0.02269238 0.01259701 0.00035676
v 0.02351654 0.01262401 0.00035676
v 0.02433639 0.01263629 0.00035676
v 0.02515193 0.01260683 0.00035676
v 0.02515193 0.01262401 -0.00002291
v 0.02515193 0.01264365 -0.00046140
v 0.02515193 0.01251845 -0.00127957
v 0.02433639 0.01243007 -0.00185175
v 0.02351654 0.01245216 -0.00193330
v 0.02269238 0.01244480 -0.00193464
v 0.02269238 0.01254054 -0.00127957
v 0.02269238 0.01260683 -0.00046140
v 0.02225657 0.01257491 -0.00002291
v 0.02187685 0.01254545 0.00035676
v 0.02187685 0.01246198 0.00117627
v 0.02269238 0.01249881 0.00117627
v 0.02351654 0.01250863 0.00117627
v 0.02433639 0.01250863 0.00117627
v 0.02515193 0.01247917 0.00117627
v 0.02556185 0.01238588 0.00158669
v 0.02588979 0.01241534 0.00113215
v 0.02644643 0.01239324 0.00082601
v 0.02597609 0.01249635 0.00035676
v 0.02575603 0.01243252 -0.00127957
v 0.02603650 0.01248162 -0.00048547
v 0.02557480 0.01238588 -0.00169400
v 0.02515193 0.01240061 -0.00175015
v 0.02515193 0.01229013 -0.00216057
v 0.02433639 0.01231714 -0.00226217
v 0.02351654 0.01233678 -0.00234238
v 0.02269238 0.01234414 -0.00234372
v 0.02187685 0.01231959 -0.00222340
v 0.02187685 0.01241043 -0.00181298
v 0.02142377 0.01238833 -0.00170871
v 0.02187685 0.01247426 -0.00127957
v 0.02187685 0.01254545 -0.00046140
v 0.02105700 0.01247180 0.00035676
v 0.02113035 0.01240797 0.00111343
v 0.02145398 0.01238588 0.00159337
v 0.02187685 0.01240061 0.00166021
v 0.02269238 0.01241534 0.00174577
v 0.02351654 0.01241534 0.00176449
v 0.02433639 0.01234660 0.00217224
v 0.02515193 0.01233432 0.00208267
v 0.02588979 0.01227786 0.00191556
v 0.02610986 0.01235151 0.00137279
v 0.02515193 0.01218702 0.00281393
v 0.02674848 0.01228768 0.00113215
v 0.02689087 0.01231959 0.00035676
v 0.02647663 0.01240306 0.00035676
v 0.02616164 0.01235396 -0.00127957
v 0.02679163 0.01211828 -0.00209774
v 0.02644643 0.01240061 -0.00022745
v 0.02634718 0.01237606 -0.00077423
v 0.02679163 0.01221648 -0.00127957
v 0.02590274 0.01226804 -0.00202020
v 0.02679163 0.01191943 -0.00291590
v 0.02597609 0.01198817 -0.00291590
v 0.02515193 0.01203236 -0.00291590
v 0.02433639 0.01207409 -0.00291590
v 0.02351654 0.01210846 -0.00291590
v 0.02269238 0.01211092 -0.00291590
v 0.02187685 0.01207409 -0.00291590
v 0.02106131 0.01200781 -0.00291590
v 0.00714114 0.01082942 -0.00276082
v 0.00714114 0.01096199 -0.00209774
v 0.02087577 0.01236378 -0.00145470
v 0.02111309 0.01240797 -0.00122075
v 0.02106131 0.01246935 -0.00046140
v 0.02106131 0.01247180 -0.00002291
v 0.02061255 0.01238833 0.00079659
v 0.00714114 0.01111910 -0.00046140
v 0.00714114 0.01111174 0.00035676
v 0.00714114 0.01104791 0.00117627
v 0.00714114 0.01097672 0.00199443
v 0.02113035 0.01227786 0.00191689
v 0.02187685 0.01230486 0.00207063
v 0.00714114 0.01084169 0.00265217
v 0.02269238 0.01233432 0.00215486
v 0.02351654 0.01234660 0.00217625
v 0.02433639 0.01219439 0.00281393
v 0.02597609 0.01204463 0.00281393
v 0.02519076 0.01178441 0.00371098
v 0.02597609 0.01174267 0.00354119
v 0.02679163 0.01206182 0.00199443
v 0.02747771 0.01175249 0.00199443
v 0.02767189 0.01182123 0.00112413
v 0.02761148 0.01195625 0.00035676
v 0.02722744 0.01214283 -0.00002291
v 0.02761148 0.01187033 -0.00127957
v 0.02674848 0.01229995 -0.00048547
v 0.02765894 0.01175986 -0.00204025
v 0.02742593 0.01171812 -0.00291590
v 0.02728785 0.01162483 -0.00341456
v 0.02679163 0.01167393 -0.00350012
v 0.02597609 0.01170094 -0.00357231
v 0.02515193 0.01171567 -0.00364717
v 0.02433639 0.01173285 -0.00371000
v 0.02433639 0.01155364 -0.00412042
v 0.02351654 0.01174513 -0.00371936
v 0.02269238 0.01174267 -0.00369129
v 0.02187685 0.01173040 -0.00364049
v 0.02351654 0.01155855 -0.00413112
v 0.02106131 0.01170339 -0.00357899
v 0.01041622 0.01066248 -0.00393460
v 0.00796098 0.01054955 -0.00373674
v 0.00796098 0.01072385 -0.00326483
v 0.00714114 0.01067230 -0.00316991
v 0.00665786 0.01079014 -0.00264318
v 0.00714114 0.01105282 -0.00127957
v 0.02061255 0.01238833 -0.00090792
v 0.01230619 0.01158064 -0.00098947
v 0.00659313 0.01083433 -0.00209774
v 0.00652841 0.01088097 -0.00127957
v 0.00648526 0.01091289 -0.00046140
v 0.00678731 0.01100863 -0.00002291
v 0.00648094 0.01091043 0.00035676
v 0.00651115 0.01087852 0.00117627
v 0.00655861 0.01084415 0.00199443
v 0.00663197 0.01079750 0.00252250
v 0.02105700 0.01198326 0.00281393
v 0.02187685 0.01205200 0.00281393
v 0.02269238 0.01211583 0.00281393
v 0.00803002 0.01084906 0.00286073
v 0.00714114 0.01065511 0.00306259
v 0.00780564 0.01072385 0.00316420
v 0.02351654 0.01216247 0.00281393
v 0.02430187 0.01178195 0.00370964
v 0.02658019 0.01163465 0.00338211
v 0.02683046 0.01175495 0.00285270
v 0.02549281 0.01156100 0.00403584
v 0.02454783 0.01158064 0.00406658
v 0.02494912 0.01158064 0.00406658
v 0.02597609 0.01151927 0.00395161
v 0.02683046 0.01142598 0.00364814
v 0.02733963 0.01163956 0.00260672
v 0.02761148 0.01137688 0.00285270
v 0.02811201 0.01083678 0.00342890
v 0.02788764 0.01145298 0.00199443
v 0.02798256 0.01152172 0.00136209
v 0.02803003 0.01157573 0.00081531
v 0.02806455 0.01161010 0.00035676
v 0.02783585 0.01180405 -0.00002291
v 0.02761148 0.01193661 -0.00046140
v 0.02806455 0.01159783 -0.00127957
v 0.02803003 0.01157573 -0.00173010
v 0.02796099 0.01148735 -0.00227688
v 0.03458019 0.00502583 -0.00418860
v 0.02734826 0.01087606 -0.00431962
v 0.02693402 0.01066002 -0.00486774
v 0.02638602 0.01074595 -0.00496666
v 0.02679163 0.01139161 -0.00390920
v 0.03391137 0.00507002 -0.00513377
v 0.03379486 0.00421569 -0.00663642
v 0.02597609 0.01146280 -0.00398273
v 0.02515193 0.01151927 -0.00405759
v 0.02433639 0.01119766 -0.00455624
v 0.02269238 0.01154136 -0.00410037
v 0.02187685 0.01150945 -0.00404957
v 0.02351654 0.01119766 -0.00455624
v 0.00796098 0.01016412 -0.00453218
v 0.00714114 0.01041452 -0.00373674
v -0.00253309 0.00507493 -0.00748400
v -0.00306383 0.00497919 -0.00701342
v 0.00648526 0.01091289 -0.00002291
v -0.00299479 0.00490799 -0.00619525
v 0.00658450 0.01010274 0.00348906
v 0.00673984 0.00992107 0.00403584
v 0.00728353 0.01004628 0.00424706
v 0.00767620 0.00988670 0.00479251
v 0.00795236 0.01013220 0.00449438
v -0.00393114 0.00419850 -0.00656423
v -0.00383190 0.00410030 -0.00601745
v -0.00469058 0.00331471 -0.00619525
v -0.00491928 0.00276970 -0.00570729
v 0.01041622 0.01083678 0.00347034
v 0.01123607 0.01072140 0.00397701
v 0.00834933 0.01074840 0.00322837
v 0.01171935 0.01074104 0.00403049
v 0.02351654 0.01178932 0.00359601
v 0.00878083 0.01029668 0.00445428
v 0.00878083 0.01061583 0.00368825
v 0.00878083 0.01001682 0.00497833
v 0.02712388 0.01153891 0.00315083
v 0.02519076 0.01131305 0.00438610
v 0.02576466 0.01079750 0.00491550
v 0.02601061 0.01106755 0.00452246
v 0.00959637 0.01004382 0.00501042
v 0.02430187 0.01131796 0.00438610
v 0.02433639 0.01085151 0.00495962
v 0.02515193 0.01084415 0.00495560
v 0.02679163 0.01100127 0.00435802
v 0.02742162 0.01087115 0.00420829
v 0.02766326 0.01102336 0.00367488
v 0.02796962 0.01070176 0.00397434
v 0.03461040 0.00585807 -0.00131032
v 0.02818968 0.01093989 0.00281393
v 0.02807749 0.01161747 -0.00002291
v 0.02809044 0.01162729 -0.00046140
v 0.03458019 0.00583352 -0.00175550
v 0.03826520 -0.00093733 -0.00503484
v 0.02739141 0.01011256 -0.00511907
v 0.02723607 0.01029668 -0.00503618
v 0.02737847 0.00921404 -0.00586371
v 0.02681752 0.01050781 -0.00503618
v 0.02648526 0.01063056 -0.00503618
v 0.02679594 0.00974431 -0.00565515
v 0.02597178 0.00983024 -0.00572066
v 0.02597178 0.01033596 -0.00532361
v 0.02515624 0.00987688 -0.00574873
v 0.02597609 0.01068948 -0.00503618
v 0.02597609 0.01075822 -0.00497870
v 0.03615517 -0.00057399 -0.00829414
v 0.03376034 0.00337854 -0.00742918
v 0.02515193 0.01078032 -0.00499608
v 0.02433639 0.01079996 -0.00501212
v 0.02269238 0.01114856 -0.00455624
v 0.00847447 0.00986706 -0.00503618
v 0.00840974 0.00992598 -0.00496132
v 0.00796098 0.00991125 -0.00494260
v 0.02351654 0.01079505 -0.00500677
v 0.00714114 0.01008065 -0.00439181
v -0.00276178 0.00466986 -0.00755218
v -0.00325800 0.00444155 -0.00750004
v 0.00759853 0.00908883 -0.00577948
v 0.00084987 0.00585562 -0.00745191
v -0.00187721 0.00513631 -0.00752678
v -0.00381032 0.00407084 -0.00718053
v -0.00352553 0.00449801 -0.00694925
v -0.00393114 0.00419850 -0.00663374
v 0.00673553 0.00908883 0.00485133
v 0.00716703 0.00928278 0.00518287
v 0.00725333 0.00937361 0.00518287
v 0.00736120 0.00943989 0.00518287
v 0.00792215 0.00970258 0.00518287
v 0.00799550 0.00972958 0.00518287
v 0.00822420 0.00997508 0.00492753
v -0.00421593 0.00380816 -0.00625274
v -0.00501852 0.00290718 -0.00619525
v -0.00541982 0.00214368 -0.00615247
v -0.00551906 0.00132371 -0.00583697
v 0.00683046 0.00869849 0.00518287
v 0.00687792 0.00883597 0.00518287
v 0.00878083 0.00985479 0.00518287
v 0.02592000 0.01047099 0.00518287
v 0.02679163 0.01027459 0.00518287
v 0.02631266 0.01072876 0.00484464
v 0.00922959 0.00988179 0.00518287
v 0.00959637 0.00990143 0.00518287
v 0.02351654 0.01082696 0.00494090
v 0.01184448 0.01000945 0.00518287
v 0.01358342 0.01009047 0.00518287
v 0.01445074 0.01012975 0.00518287
v 0.02386174 0.01055446 0.00518287
v 0.02435365 0.01057164 0.00518287
v 0.02515193 0.01056673 0.00518287
v 0.02679163 0.01066493 0.00476711
v 0.02761148 0.01010029 0.00504384
v 0.02805592 0.00997508 0.00491283
v 0.03826520 -0.00094715 -0.00002425
v 0.03826520 -0.00093733 -0.00503217
v 0.03826520 -0.00278102 -0.00503484
v 0.02718861 0.00827869 -0.00660032
v 0.02679594 0.00933924 -0.00595194
v 0.02671396 0.01036297 -0.00519126
v 0.02597178 0.00886543 -0.00642920
v 0.02515624 0.00946690 -0.00605221
v 0.02515624 0.01033596 -0.00537040
v 0.02433208 0.00990389 -0.00576879
v 0.02515193 0.01073613 -0.00503618
v 0.03615517 -0.00079494 -0.00829414
v 0.03498580 -0.00031622 -0.00843719
v 0.03494697 0.00045956 -0.00835697
v 0.03466218 0.00103648 -0.00830484
v 0.02683478 0.00703892 -0.00732357
v 0.02686067 0.00794972 -0.00687973
v 0.02433639 0.01077541 -0.00503618
v 0.02433208 0.01077541 -0.00503618
v 0.00878083 0.00916248 -0.00584365
v 0.00855645 0.00915266 -0.00583563
v 0.00815516 0.00984251 -0.00503618
v 0.00814653 0.00913548 -0.00581825
v 0.00795236 0.00982533 -0.00503618
v 0.02351654 0.01076068 -0.00503618
v 0.00828892 0.00832533 -0.00663776
v -0.00351259 0.00296119 -0.00765110
v -0.00352553 0.00379097 -0.00755886
v -0.00187721 0.00459866 -0.00764041
v -0.00269274 0.00377870 -0.00765378
v -0.00403470 0.00352584 -0.00749603
v 0.00057803 0.00546282 -0.00753212
v 0.00878083 0.00787607 -0.00686636
v 0.00960068 0.00651846 -0.00737838
v 0.00960068 0.00610848 -0.00751875
v -0.00479414 0.00262731 -0.00746662
v -0.00460860 0.00320669 -0.00701342
v -0.00414689 0.00379097 -0.00694925
v -0.00492791 0.00279671 -0.00701342
v -0.00562694 0.00187118 -0.00685700
v -0.00562694 0.00187118 -0.00639712
v -0.00567872 0.00132371 -0.00624605
v -0.00555790 0.00090391 -0.00578884
v 0.00683046 0.00857820 0.00518287
v -0.00558379 0.00035645 -0.00576344
v -0.00560536 -0.00031131 -0.00573938
v 0.02690813 0.01023286 0.00518287
v 0.02741299 0.01004137 0.00518287
v 0.02762874 0.00992353 0.00518287
v 0.02787037 0.00977132 0.00518287
v 0.02813790 0.00942271 0.00518287
v 0.03012712 0.00609621 0.00518287
v 0.03826520 -0.00278102 -0.00002425
v 0.03744967 -0.00490704 -0.00503484
v 0.03615517 -0.00445778 -0.00725673
v 0.03615517 -0.00406252 -0.00744924
v 0.03615517 -0.00390295 -0.00751073
v 0.03615517 -0.00359362 -0.00762704
v 0.03615517 -0.00276629 -0.00792516
v 0.03615517 -0.00194142 -0.00814842
v 0.03615517 -0.00154616 -0.00823532
v 0.03615517 -0.00148724 -0.00824334
v 0.03615517 -0.00105026 -0.00829147
v 0.02664060 0.00838425 -0.00667519
v 0.02597178 0.00845545 -0.00671930
v 0.02515624 0.00887525 -0.00646129
v 0.02433208 0.00949636 -0.00605889
v 0.02433208 0.01033596 -0.00540650
v 0.02351223 0.00989652 -0.00576344
v 0.02351223 0.01033596 -0.00539714
v 0.03498580 -0.00112636 -0.00838104
v 0.03416595 -0.00031622 -0.00847462
v 0.03416595 0.00050375 -0.00845991
v 0.03586606 -0.00119510 -0.00831419
v 0.03416595 0.00117151 -0.00833692
v 0.02658882 0.00675414 -0.00744523
v 0.02597178 0.00714448 -0.00733828
v 0.02597178 0.00787607 -0.00704416
v 0.00855645 0.00833024 -0.00664043
v -0.00433244 0.00132371 -0.00765512
v -0.00433244 0.00209458 -0.00763239
v -0.00433244 0.00214122 -0.00762971
v -0.00431949 0.00292436 -0.00754014
v -0.00105736 0.00459866 -0.00765378
v 0.01042053 0.00541617 -0.00765378
v 0.00878083 0.00833024 -0.00664310
v 0.02597178 0.00541617 -0.00771795
v -0.00497537 0.00214122 -0.00751474
v -0.00565283 0.00116905 -0.00749870
v -0.00554495 0.00171406 -0.00740378
v -0.00536804 0.00214368 -0.00708293
v -0.00541550 0.00209458 -0.00704149
v -0.00571323 0.00139491 -0.00708293
v -0.00581680 0.00050375 -0.00701342
v -0.00569598 0.00059213 -0.00611771
v -0.00569598 0.00057985 -0.00611504
v 0.00684340 0.00797181 0.00518287
v -0.00573050 -0.00031131 -0.00619525
v -0.00559242 -0.00112882 -0.00575408
v 0.03600846 -0.00843240 -0.00002558
v 0.03745398 -0.00488985 -0.00002425
v 0.00786605 0.00609621 0.00518287
v 0.03744967 -0.00490704 -0.00503083
v 0.03615517 -0.00516727 -0.00682893
v 0.03605592 -0.00843240 -0.00053359
v 0.03598688 -0.00843240 -0.00135176
v 0.03583154 -0.00853551 -0.00171539
v 0.03564168 -0.00836857 -0.00291858
v 0.03551655 -0.00822127 -0.00356295
v 0.03533532 -0.00806660 -0.00410973
v 0.03583154 -0.00527774 -0.00687706
v 0.03579702 -0.00454615 -0.00730619
v 0.03579702 -0.00413617 -0.00748132
v 0.03498580 -0.00358871 -0.00784094
v 0.03579702 -0.00358871 -0.00769522
v 0.03579702 -0.00276629 -0.00797998
v 0.03498580 -0.00276629 -0.00809762
v 0.03586606 -0.00193651 -0.00818719
v 0.03498580 -0.00221392 -0.00821660
v 0.03562874 -0.00165664 -0.00826339
v 0.03498580 -0.00180394 -0.00828345
v 0.03441191 -0.00231212 -0.00823665
v 0.03414869 -0.00200279 -0.00828879
v 0.03416595 -0.00112636 -0.00840510
v 0.03334179 -0.00112636 -0.00841580
v 0.03252626 -0.00112636 -0.00840911
v -0.00187721 -0.00440622 -0.00765244
v -0.00351259 -0.00276875 -0.00765378
v -0.00433244 -0.00195124 -0.00765110
v -0.00433244 -0.00112882 -0.00765378
v 0.02679594 0.00459866 -0.00785565
v 0.02679594 0.00541617 -0.00771260
v -0.00515229 0.00050375 -0.00762704
v -0.00522564 0.00139491 -0.00756153
v -0.00566146 0.00059213 -0.00750940
v -0.00566146 0.00050375 -0.00751073
v -0.00560105 -0.00007072 -0.00746528
v -0.00568735 -0.00033095 -0.00704817
v -0.00562262 -0.00094960 -0.00679818
v -0.00562262 -0.00118528 -0.00613509
v -0.00556221 -0.00154125 -0.00578349
v -0.00474236 -0.00317627 -0.00578750
v 0.00730511 0.00710029 0.00518287
v 0.03454567 -0.00915662 -0.00171539
v 0.03498149 -0.00906824 -0.00171539
v 0.03547771 -0.00894794 -0.00171539
v 0.03601277 -0.00843240 -0.00006302
v 0.01311309 -0.00843240 -0.00002558
v 0.00796098 -0.01239720 -0.00171539
v 0.01019184 -0.01220325 -0.00171539
v 0.01206023 -0.01200931 -0.00171539
v 0.01762226 -0.01140047 -0.00171539
v 0.02486714 -0.01056578 -0.00171539
v 0.03149497 -0.00976300 -0.00171539
v 0.03190490 -0.00968198 -0.00171539
v 0.03605592 -0.00843240 -0.00046408
v 0.00656293 -0.01160669 -0.00171539
v 0.00671827 -0.01180064 -0.00171539
v 0.00692107 -0.01201667 -0.00171539
v 0.00713682 -0.01218607 -0.00171539
v 0.00733100 -0.01230636 -0.00171539
v 0.00765894 -0.01236283 -0.00171539
v 0.03542593 -0.00731538 -0.00501345
v 0.03548203 -0.00655188 -0.00589980
v 0.03557696 -0.00573928 -0.00666984
v 0.03565031 -0.00876382 -0.00171539
v 0.03544751 -0.00893812 -0.00181967
v 0.03525765 -0.00887675 -0.00236645
v 0.03503327 -0.00833665 -0.00379690
v 0.03479594 -0.00816235 -0.00426748
v 0.03503327 -0.00787020 -0.00454689
v 0.03498580 -0.00522373 -0.00710031
v 0.03498580 -0.00471064 -0.00737838
v 0.03498580 -0.00430066 -0.00755084
v 0.03450684 -0.00479902 -0.00741581
v 0.03416595 -0.00358871 -0.00793720
v 0.03414869 -0.00269755 -0.00817917
v 0.03386822 -0.00237840 -0.00824601
v 0.03334179 -0.00194633 -0.00831954
v 0.03252626 -0.00194633 -0.00832623
v 0.00960068 -0.00849868 -0.00733159
v -0.00187721 -0.00510098 -0.00753881
v -0.00351259 -0.00358871 -0.00763239
v -0.00433244 -0.00276875 -0.00761635
v -0.00483298 -0.00276875 -0.00750138
v -0.00477257 -0.00324010 -0.00745592
v -0.00555358 -0.00149706 -0.00636904
v -0.00556221 -0.00154125 -0.00582226
v -0.00480709 -0.00330393 -0.00701342
v -0.00479846 -0.00328429 -0.00633429
v -0.00456113 -0.00356907 -0.00611504
v -0.00402176 -0.00408462 -0.00571665
v 0.03498149 -0.00899459 -0.00209640
v 0.03145614 -0.00976054 -0.00178491
v 0.03416164 -0.00915907 -0.00210041
v 0.00749497 -0.01222289 -0.00266056
v 0.00796098 -0.01233582 -0.00210041
v 0.00858234 -0.01220816 -0.00262847
v 0.01015732 -0.01220325 -0.00177956
v 0.01206023 -0.01197003 -0.00210041
v 0.01758774 -0.01139802 -0.00178357
v 0.02484988 -0.01056087 -0.00175282
v -0.00410806 -0.00414599 -0.00619525
v -0.00313718 -0.00484075 -0.00639311
v -0.00313718 -0.00484075 -0.00674872
v 0.00739141 -0.01227690 -0.00210041
v 0.03499012 -0.00750441 -0.00503484
v 0.03498580 -0.00742585 -0.00513645
v 0.03498580 -0.00707724 -0.00554687
v 0.03498580 -0.00666481 -0.00601210
v 0.03498580 -0.00624500 -0.00642118
v 0.03498580 -0.00583257 -0.00673535
v 0.03470533 -0.00894058 -0.00258970
v 0.03498149 -0.00876136 -0.00288649
v 0.03502032 -0.00843485 -0.00358701
v 0.03469670 -0.00843485 -0.00377417
v 0.03416164 -0.00858706 -0.00373674
v 0.03416164 -0.00843485 -0.00402818
v 0.03416164 -0.00824582 -0.00438512
v 0.03416164 -0.00796840 -0.00479554
v 0.03420479 -0.00516481 -0.00723935
v 0.03395883 -0.00485057 -0.00744122
v 0.03420479 -0.00447742 -0.00757624
v 0.03334179 -0.00440377 -0.00766046
v 0.00960068 -0.00932356 -0.00708293
v 0.03334179 -0.00358871 -0.00796393
v 0.03334179 -0.00280557 -0.00817115
v 0.03334179 -0.00239804 -0.00825002
v -0.00250719 -0.00494386 -0.00750004
v -0.00274452 -0.00446023 -0.00756153
v 0.00877652 -0.00932356 -0.00700406
v 0.00877652 -0.00995940 -0.00672866
v -0.00079846 -0.00564353 -0.00743453
v -0.00134215 -0.00561162 -0.00735165
v -0.00351259 -0.00420737 -0.00751742
v -0.00400881 -0.00405270 -0.00747196
v -0.00430223 -0.00354452 -0.00751742
v -0.00450935 -0.00371391 -0.00701342
v -0.00500989 -0.00276875 -0.00701342
v 0.03170209 -0.00937757 -0.00291858
v 0.03171504 -0.00962797 -0.00207501
v 0.03416164 -0.00899213 -0.00274344
v 0.02595883 -0.01036201 -0.00210041
v 0.03088224 -0.00979982 -0.00193196
v 0.03037739 -0.00971881 -0.00246404
v 0.03088224 -0.00951259 -0.00291858
v 0.00759853 -0.01135137 -0.00493859
v 0.00796098 -0.01194793 -0.00373674
v 0.00796098 -0.01214188 -0.00312044
v 0.00796098 -0.01223026 -0.00271136
v -0.00274452 -0.00501751 -0.00701876
v -0.00305520 -0.00476465 -0.00729550
v 0.00738709 -0.01149622 -0.00439181
v 0.00882830 -0.01214188 -0.00290788
v 0.00960068 -0.01216397 -0.00234639
v 0.01124038 -0.01205350 -0.00210041
v 0.00960068 -0.01206577 -0.00291858
v 0.01124038 -0.01188411 -0.00291858
v 0.02381859 -0.01053877 -0.00245468
v 0.02513467 -0.01046758 -0.00205629
v -0.00409943 -0.00412390 -0.00701342
v 0.03416164 -0.00776710 -0.00503484
v 0.03416595 -0.00755842 -0.00528083
v 0.03416595 -0.00718281 -0.00568991
v 0.03416595 -0.00677283 -0.00609632
v 0.03416595 -0.00631865 -0.00650540
v 0.03416595 -0.00590867 -0.00678882
v 0.03367836 -0.00889884 -0.00328622
v 0.03416164 -0.00884729 -0.00315386
v 0.03338062 -0.00876136 -0.00370733
v 0.03252194 -0.00881537 -0.00395331
v 0.03190490 -0.00887429 -0.00407764
v 0.03136121 -0.00892339 -0.00416187
v 0.03334179 -0.00804205 -0.00489848
v 0.00960068 -0.00994712 -0.00674471
v 0.00877652 -0.01037183 -0.00648535
v 0.00813358 -0.01072781 -0.00599606
v 0.03252194 -0.00900932 -0.00354423
v 0.03313467 -0.00895040 -0.00341322
v 0.03252194 -0.00923272 -0.00291858
v 0.02678731 -0.01026136 -0.00210041
v 0.02678731 -0.01006005 -0.00291858
v 0.02760285 -0.00995694 -0.00291858
v 0.02924686 -0.00967953 -0.00314050
v 0.03008397 -0.00963779 -0.00288649
v 0.03088224 -0.00920326 -0.00373674
v 0.00814653 -0.01142257 -0.00506960
v 0.00790921 -0.01157478 -0.00462175
v 0.00878083 -0.01163861 -0.00455491
v 0.00878083 -0.01194303 -0.00373674
v 0.02327490 -0.01057069 -0.00258436
v 0.03308721 -0.00797331 -0.00503484
v 0.03306994 -0.00730065 -0.00581424
v 0.03252626 -0.00735466 -0.00586504
v 0.03170641 -0.00742831 -0.00592654
v 0.03334179 -0.00638248 -0.00655487
v 0.03166326 -0.00905351 -0.00377818
v 0.03006239 -0.00932356 -0.00373674
v 0.03088224 -0.00896267 -0.00421267
v 0.03286714 -0.00808133 -0.00495062
v 0.03279810 -0.00802487 -0.00503484
v 0.00960068 -0.01035465 -0.00640380
v 0.00877652 -0.01077936 -0.00607627
v 0.02206671 -0.01052404 -0.00323942
v 0.02815948 -0.00975072 -0.00337044
v 0.02870748 -0.00971390 -0.00326750
v 0.00877652 -0.01118689 -0.00547468
v 0.00877652 -0.01142011 -0.00506559
v 0.00900090 -0.01140784 -0.00503484
v 0.02152733 -0.01055596 -0.00333969
v 0.03170641 -0.00783829 -0.00548403
v 0.03256509 -0.00782356 -0.00531960
v 0.03089087 -0.00789230 -0.00556157
v 0.03088224 -0.00843485 -0.00489848
v 0.03207318 -0.00814516 -0.00503618
v 0.03089087 -0.00823354 -0.00515249
v 0.03170641 -0.00817217 -0.00507361
v 0.03170641 -0.00820163 -0.00503618
f 1 2 3
f 1 3 4
f 1 4 5
f 1 5 6
f 1 6 7
f 1 7 8
f 1 8 9
f 1 9 10
f 1 10 11
f 1 11 2
f 2 11 12
f 2 12 13
f 2 13 14
f 2 14 3
f 3 14 15
f 3 15 16
f 3 16 4
f 4 16 17
f 4 17 5
f 5 17 6
f 6 17 18
f 6 18 19
f 6 19 20
f 6 20 21
f 6 21 7
f 7 21 8
f 8 21 22
f 8 22 23
f 8 23 24
f 8 24 9
f 9 24 25
f 9 25 26
f 9 26 27
f 9 27 28
f 9 28 10
f 10 28 11
f 11 29 12
f 11 28 30
f 11 30 29
f 12 29 31
f 12 31 32
f 12 32 13
f 13 32 33
f 13 33 34
f 13 34 14
f 14 34 35
f 14 35 36
f 14 36 15
f 15 36 37
f 15 37 38
f 15 38 16
f 16 38 39
f 16 39 40
f 16 40 41
f 16 41 17
f 17 41 18
f 18 41 19
f 19 41 42
f 19 42 43
f 19 43 44
f 19 44 20
f 20 44 45
f 20 45 21
f 21 45 46
f 21 46 22
f 22 46 47
f 22 47 23
f 23 48 49
f 23 49 24
f 23 47 48
f 24 49 25
f 25 50 51
f 25 51 26
f 25 49 52
f 25 52 50
f 26 51 27
f 27 53 54
f 27 54 55
f 27 55 28
f 27 51 53
f 28 55 30
f 29 30 56
f 29 56 57
f 29 57 31
f 30 55 54
f 30 54 58
f 30 58 59
f 30 59 60
f 30 60 57
f 30 57 56
f 31 57 61
f 31 61 33
f 31 33 32
f 33 61 62
f 33 62 63
f 33 63 34
f 34 63 35
f 35 63 64
f 35 64 65
f 35 65 66
f 35 66 36
f 36 66 67
f 36 67 68
f 36 68 69
f 36 69 37
f 37 69 70
f 37 70 38
f 38 70 71
f 38 71 39
f 39 72 40
f 39 71 72
f 40 72 73
f 40 73 74
f 40 74 41
f 41 74 75
f 41 75 42
f 42 76 43
f 42 75 77
f 42 77 78
f 42 78 79
f 42 79 80
f 42 80 76
f 43 76 80
f 43 80 44
f 44 81 82
f 44 82 45
f 44 80 83
f 44 83 81
f 45 82 84
f 45 84 46
f 46 84 85
f 46 85 47
f 47 85 48
f 48 86 52
f 48 52 49
f 48 85 86
f 50 52 87
f 50 87 53
f 50 53 51
f 52 86 88
f 52 88 89
f 52 89 87
f 53 87 90
f 53 90 91
f 53 91 92
f 53 92 93
f 53 93 54
f 54 94 95
f 54 95 60
f 54 60 96
f 54 96 58
f 54 93 94
f 57 60 97
f 57 97 98
f 57 98 62
f 57 62 61
f 58 96 59
f 59 96 60
f 60 95 97
f 62 98 99
f 62 99 100
f 62 100 63
f 63 101 102
f 63 102 103
f 63 103 64
f 63 100 101
f 64 103 65
f 65 103 66
f 66 103 104
f 66 104 105
f 66 105 67
f 67 106 107
f 67 107 68
f 67 105 108
f 67 108 106
f 68 107 109
f 68 109 69
f 69 109 110
f 69 110 111
f 69 111 112
f 69 112 70
f 70 112 111
f 70 111 113
f 70 113 114
f 70 114 71
f 71 115 72
f 71 114 115
f 72 116 73
f 72 115 117
f 72 117 116
f 73 116 74
f 74 116 117
f 74 117 77
f 74 77 75
f 77 117 115
f 77 115 118
f 77 118 119
f 77 119 120
f 77 120 121
f 77 121 78
f 78 121 122
f 78 122 123
f 78 123 124
f 78 124 79
f 79 124 80
f 80 124 125
f 80 125 83
f 81 83 82
f 82 126 127
f 82 127 128
f 82 128 84
f 82 83 129
f 82 129 126
f 83 130 131
f 83 131 129
f 83 125 130
f 84 128 132
f 84 132 86
f 84 86 85
f 86 133 88
f 86 132 133
f 87 89 134
f 87 134 135
f 87 135 90
f 88 136 89
f 88 133 137
f 88 137 138
f 88 138 136
f 89 136 139
f 89 139 140
f 89 140 134
f 90 135 141
f 90 141 91
f 91 142 143
f 91 143 144
f 91 144 92
f 91 141 142
f 92 144 145
f 92 145 146
f 92 146 147
f 92 147 93
f 93 147 148
f 93 148 149
f 93 149 94
f 94 149 95
f 95 149 150
f 95 150 151
f 95 151 97
f 97 151 98
f 98 151 152
f 98 152 153
f 98 153 99
f 99 154 155
f 99 155 156
f 99 156 157
f 99 157 100
f 99 153 158
f 99 158 159
f 99 159 154
f 100 157 156
f 100 156 160
f 100 160 161
f 100 161 104
f 100 104 101
f 101 104 102
f 102 104 103
f 104 161 156
f 104 156 162
f 104 162 108
f 104 108 105
f 106 108 163
f 106 163 107
f 107 164 109
f 107 163 164
f 108 162 165
f 108 165 163
f 109 164 166
f 109 166 110
f 110 166 111
f 111 166 167
f 111 167 113
f 113 167 114
f 114 118 115
f 114 167 168
f 114 168 169
f 114 169 118
f 118 169 119
f 119 169 120
f 120 169 122
f 120 122 170
f 120 170 121
f 121 170 122
f 122 169 123
f 123 169 124
f 124 169 171
f 124 171 125
f 125 172 173
f 125 173 174
f 125 174 175
f 125 175 176
f 125 176 130
f 125 171 177
f 125 177 178
f 125 178 179
f 125 179 180
f 125 180 172
f 126 181 182
f 126 182 127
f 126 129 183
f 126 183 181
f 127 182 184
f 127 184 128
f 128 185 133
f 128 133 132
f 128 184 185
f 129 131 183
f 130 176 186
f 130 186 131
f 131 186 187
f 131 187 183
f 133 185 184
f 133 184 188
f 133 188 137
f 134 140 189
f 134 189 135
f 135 189 141
f 136 138 190
f 136 190 191
f 136 191 192
f 136 192 139
f 137 188 193
f 137 193 194
f 137 194 195
f 137 195 138
f 138 195 196
f 138 196 190
f 139 192 197
f 139 197 140
f 140 197 198
f 140 198 189
f 141 189 199
f 141 199 142
f 142 199 143
f 143 199 200
f 143 200 201
f 143 201 202
f 143 202 144
f 144 202 201
f 144 201 145
f 145 201 146
f 146 201 147
f 147 203 148
f 147 201 203
f 148 203 204
f 148 204 149
f 149 204 150
f 150 204 201
f 150 201 205
f 150 205 151
f 151 205 152
f 152 205 153
f 153 205 206
f 153 206 159
f 153 159 158
f 154 207 208
f 154 208 155
f 154 159 207
f 155 208 209
f 155 209 210
f 155 210 211
f 155 211 156
f 156 211 212
f 156 212 213
f 156 213 214
f 156 214 215
f 156 215 216
f 156 216 217
f 156 217 162
f 156 161 160
f 159 206 218
f 159 218 219
f 159 219 207
f 162 217 220
f 162 220 221
f 162 221 165
f 163 165 222
f 163 222 223
f 163 223 224
f 163 224 225
f 163 225 166
f 163 166 164
f 165 221 226
f 165 226 222
f 166 225 227
f 166 227 167
f 167 227 168
f 168 228 229
f 168 229 169
f 168 227 225
f 168 225 230
f 168 230 231
f 168 231 232
f 168 232 228
f 169 229 233
f 169 233 234
f 169 234 235
f 169 235 177
f 169 177 171
f 172 180 173
f 173 180 236
f 173 236 237
f 173 237 238
f 173 238 239
f 173 239 175
f 173 175 174
f 175 239 240
f 175 240 241
f 175 241 242
f 175 242 176
f 176 242 186
f 177 235 179
f 177 179 243
f 177 243 178
f 178 243 179
f 179 244 180
f 179 235 244
f 180 244 245
f 180 245 246
f 180 246 247
f 180 247 248
f 180 248 236
f 181 183 182
f 182 183 187
f 182 187 186
f 182 186 184
f 184 186 188
f 186 242 188
f 188 242 249
f 188 249 193
f 189 198 199
f 190 196 191
f 191 196 250
f 191 250 251
f 191 251 252
f 191 252 192
f 192 252 197
f 193 249 253
f 193 253 254
f 193 254 255
f 193 255 194
f 194 255 195
f 195 255 254
f 195 254 256
f 195 256 257
f 195 257 258
f 195 258 259
f 195 259 260
f 195 260 261
f 195 261 196
f 196 261 250
f 197 262 198
f 197 252 262
f 198 263 264
f 198 264 200
f 198 200 199
f 198 262 263
f 200 264 201
f 201 264 265
f 201 265 266
f 201 266 206
f 201 206 205
f 201 204 203
f 206 266 265
f 206 265 317
f 206 317 267
f 206 267 276
f 206 276 218
f 207 209 208
f 207 219 209
f 209 268 269
f 209 269 212
f 209 212 270
f 209 270 210
f 209 219 268
f 210 270 211
f 211 270 212
f 212 269 271
f 212 271 213
f 213 271 272
f 213 272 215
f 213 215 214
f 215 273 216
f 215 272 274
f 215 274 273
f 216 273 275
f 216 275 217
f 217 275 220
f 218 276 277
f 218 277 278
f 218 278 279
f 218 279 219
f 219 279 280
f 219 280 281
f 219 281 268
f 220 275 282
f 220 282 221
f 221 282 283
f 221 283 226
f 222 226 223
f 223 284 285
f 223 285 286
f 223 286 225
f 223 225 224
f 223 226 284
f 225 286 287
f 225 287 288
f 225 288 230
f 226 283 289
f 226 289 290
f 226 290 284
f 228 291 292
f 228 292 229
f 228 232 293
f 228 293 294
f 228 294 291
f 229 292 295
f 229 295 233
f 230 288 287
f 230 287 290
f 230 290 231
f 231 296 232
f 231 290 297
f 231 297 298
f 231 298 299
f 231 299 296
f 232 296 293
f 233 295 300
f 233 300 301
f 233 301 302
f 233 302 235
f 233 235 234
f 235 302 301
f 235 301 303
f 235 303 244
f 236 248 237
f 237 248 247
f 237 247 308
f 237 308 361
f 237 361 407
f 237 407 366
f 237 366 316
f 237 316 315
f 237 315 314
f 237 314 313
f 237 313 312
f 237 312 311
f 237 311 251
f 237 251 250
f 237 250 261
f 237 261 260
f 237 260 259
f 237 259 258
f 237 258 257
f 237 257 256
f 237 256 254
f 237 254 253
f 237 253 249
f 237 249 241
f 237 241 240
f 237 240 239
f 237 239 238
f 241 249 242
f 244 303 304
f 244 304 305
f 244 305 245
f 245 305 246
f 246 305 306
f 246 306 307
f 246 307 247
f 247 307 309
f 247 309 310
f 247 310 308
f 251 311 262
f 251 262 252
f 262 311 263
f 263 311 312
f 263 312 313
f 263 313 314
f 263 314 264
f 264 314 315
f 264 315 316
f 264 316 265
f 265 316 317
f 267 317 367
f 267 367 318
f 267 318 319
f 267 319 320
f 267 320 321
f 267 321 322
f 267 322 323
f 267 323 324
f 267 324 325
f 267 325 326
f 267 326 327
f 267 327 276
f 268 281 328
f 268 328 269
f 269 328 271
f 271 329 272
f 271 328 329
f 272 329 330
f 272 330 331
f 272 331 274
f 273 274 275
f 274 332 275
f 274 331 333
f 274 333 334
f 274 334 332
f 275 332 282
f 276 327 277
f 277 335 336
f 277 336 337
f 277 337 278
f 277 327 338
f 277 338 335
f 278 337 279
f 279 337 339
f 279 339 280
f 280 340 341
f 280 341 342
f 280 342 281
f 280 339 340
f 281 342 328
f 282 332 283
f 283 332 334
f 283 334 289
f 284 290 285
f 285 290 287
f 285 287 286
f 289 334 290
f 290 334 333
f 290 333 343
f 290 343 297
f 291 294 336
f 291 336 344
f 291 344 345
f 291 345 346
f 291 346 292
f 292 346 347
f 292 347 295
f 293 296 348
f 293 348 337
f 293 337 294
f 294 337 336
f 295 347 300
f 296 299 349
f 296 349 348
f 297 343 350
f 297 350 342
f 297 342 341
f 297 341 298
f 298 341 299
f 299 341 340
f 299 340 351
f 299 351 349
f 300 352 353
f 300 353 354
f 300 354 301
f 300 347 352
f 301 354 303
f 303 355 356
f 303 356 304
f 303 354 355
f 304 357 305
f 304 356 354
f 304 354 357
f 305 357 358
f 305 358 306
f 306 358 359
f 306 359 307
f 307 359 360
f 307 360 309
f 308 310 361
f 309 360 310
f 310 360 362
f 310 362 363
f 310 363 361
f 316 364 365
f 316 365 317
f 316 366 412
f 316 412 364
f 317 365 367
f 318 368 319
f 318 367 420
f 318 420 369
f 318 369 370
f 318 370 371
f 318 371 372
f 318 372 373
f 318 373 374
f 318 374 368
f 319 368 375
f 319 375 376
f 319 376 320
f 320 376 377
f 320 377 378
f 320 378 321
f 321 378 379
f 321 379 322
f 322 379 323
f 323 379 378
f 323 378 380
f 323 380 324
f 324 380 381
f 324 381 382
f 324 382 325
f 325 382 383
f 325 383 384
f 325 384 338
f 325 338 326
f 326 338 327
f 328 342 329
f 329 342 350
f 329 350 330
f 330 350 331
f 331 350 343
f 331 343 333
f 335 385 386
f 335 386 387
f 335 387 388
f 335 388 336
f 335 338 384
f 335 384 385
f 336 388 389
f 336 389 390
f 336 390 391
f 336 391 392
f 336 392 393
f 336 393 394
f 336 394 344
f 337 395 396
f 337 396 339
f 337 348 349
f 337 349 395
f 339 396 340
f 340 396 351
f 344 394 397
f 344 397 345
f 345 397 346
f 346 397 398
f 346 398 347
f 347 398 352
f 349 351 395
f 351 396 395
f 352 398 353
f 353 399 358
f 353 358 357
f 353 357 354
f 353 398 397
f 353 397 399
f 354 356 355
f 358 362 360
f 358 360 359
f 358 399 400
f 358 400 401
f 358 401 402
f 358 402 403
f 358 403 404
f 358 404 362
f 361 363 405
f 361 405 406
f 361 406 407
f 362 404 405
f 362 405 363
f 364 408 409
f 364 409 410
f 364 410 411
f 364 411 365
f 364 412 413
f 364 413 414
f 364 414 415
f 364 415 416
f 364 416 417
f 364 417 418
f 364 418 419
f 364 419 408
f 365 411 420
f 365 420 367
f 366 407 421
f 366 421 422
f 366 422 423
f 366 423 424
f 366 424 425
f 366 425 426
f 366 426 413
f 366 413 412
f 368 374 427
f 368 427 428
f 368 428 429
f 368 429 375
f 369 420 410
f 369 410 430
f 369 430 370
f 370 430 371
f 371 430 372
f 372 430 410
f 372 410 431
f 372 431 373
f 373 431 432
f 373 432 374
f 374 432 433
f 374 433 434
f 374 434 435
f 374 435 427
f 375 429 376
f 376 429 436
f 376 436 437
f 376 437 377
f 377 437 438
f 377 438 378
f 378 438 439
f 378 439 440
f 378 440 381
f 378 381 380
f 381 383 382
f 381 440 441
f 381 441 383
f 383 441 386
f 383 386 385
f 383 385 384
f 386 441 442
f 386 442 387
f 387 442 443
f 387 443 388
f 388 443 389
f 389 443 444
f 389 444 390
f 390 444 391
f 391 445 446
f 391 446 447
f 391 447 392
f 391 444 445
f 392 447 393
f 393 448 397
f 393 397 394
f 393 447 448
f 397 400 399
f 397 448 400
f 400 448 449
f 400 449 401
f 401 403 402
f 401 449 450
f 401 450 403
f 403 450 451
f 403 451 404
f 404 451 452
f 404 452 405
f 405 452 453
f 405 453 454
f 405 454 406
f 406 454 455
f 406 455 456
f 406 456 421
f 406 421 407
f 408 457 409
f 408 419 458
f 408 458 459
f 408 459 457
f 409 457 431
f 409 431 410
f 410 420 411
f 413 426 460
f 413 460 461
f 413 461 462
f 413 462 463
f 413 463 414
f 414 463 415
f 415 463 464
f 415 464 465
f 415 465 416
f 416 465 417
f 417 466 458
f 417 458 418
f 417 465 466
f 418 458 419
f 421 456 422
f 422 456 423
f 423 456 467
f 423 467 424
f 424 467 468
f 424 468 469
f 424 469 470
f 424 470 425
f 425 470 426
f 426 470 460
f 427 435 471
f 427 471 472
f 427 472 428
f 428 472 473
f 428 473 474
f 428 474 429
f 429 474 475
f 429 475 476
f 429 476 436
f 431 457 432
f 432 457 477
f 432 477 478
f 432 478 433
f 433 478 479
f 433 479 480
f 433 480 434
f 434 480 481
f 434 481 482
f 434 482 483
f 434 483 484
f 434 484 435
f 435 484 471
f 436 476 485
f 436 485 439
f 436 439 437
f 437 439 438
f 439 485 486
f 439 486 487
f 439 487 440
f 440 487 488
f 440 488 489
f 440 489 445
f 440 445 490
f 440 490 441
f 441 490 445
f 441 445 491
f 441 491 442
f 442 491 492
f 442 492 443
f 443 492 444
f 444 492 445
f 445 489 446
f 445 492 491
f 446 493 494
f 446 494 447
f 446 489 495
f 446 495 496
f 446 496 497
f 446 497 498
f 446 498 493
f 447 494 493
f 447 493 499
f 447 499 500
f 447 500 501
f 447 501 448
f 448 501 450
f 448 450 449
f 450 502 453
f 450 453 503
f 450 503 451
f 450 501 500
f 450 500 502
f 451 503 453
f 451 453 452
f 453 502 454
f 454 502 455
f 455 502 467
f 455 467 456
f 457 459 477
f 458 504 505
f 458 505 506
f 458 506 477
f 458 477 459
f 458 466 507
f 458 507 508
f 458 508 509
f 458 509 510
f 458 510 504
f 460 511 512
f 460 512 513
f 460 513 514
f 460 514 461
f 460 470 469
f 460 469 515
f 460 515 516
f 460 516 517
f 460 517 511
f 461 514 462
f 462 514 518
f 462 518 519
f 462 519 463
f 463 520 464
f 463 519 520
f 464 520 521
f 464 521 522
f 464 522 523
f 464 523 465
f 465 523 524
f 465 524 466
f 466 524 507
f 467 525 469
f 467 469 468
f 467 502 525
f 469 516 515
f 469 525 516
f 471 484 472
f 472 484 526
f 472 526 527
f 472 527 473
f 473 527 474
f 474 527 528
f 474 528 529
f 474 529 475
f 475 529 530
f 475 530 476
f 476 530 531
f 476 531 485
f 477 506 532
f 477 532 533
f 477 533 478
f 478 533 481
f 478 481 480
f 478 480 479
f 481 533 532
f 481 532 534
f 481 534 535
f 481 535 482
f 482 535 483
f 483 535 536
f 483 536 537
f 483 537 484
f 484 537 538
f 484 538 526
f 485 531 539
f 485 539 486
f 486 488 487
f 486 539 489
f 486 489 488
f 489 539 496
f 489 496 495
f 493 516 500
f 493 500 499
f 493 498 516
f 496 539 540
f 496 540 498
f 496 498 497
f 498 540 541
f 498 541 511
f 498 511 516
f 500 516 525
f 500 525 502
f 504 510 542
f 504 542 543
f 504 543 544
f 504 544 505
f 505 544 506
f 506 544 532
f 507 524 523
f 507 523 545
f 507 545 508
f 508 545 546
f 508 546 547
f 508 547 509
f 509 547 548
f 509 548 549
f 509 549 510
f 510 549 548
f 510 548 550
f 510 550 542
f 511 541 551
f 511 551 552
f 511 552 512
f 511 517 516
f 512 552 551
f 512 551 553
f 512 553 554
f 512 554 513
f 513 554 518
f 513 518 514
f 518 521 520
f 518 520 519
f 518 554 521
f 521 554 522
f 522 555 523
f 522 554 555
f 523 546 545
f 523 555 546
f 526 538 527
f 527 538 556
f 527 556 557
f 527 557 528
f 528 557 529
f 529 557 558
f 529 558 530
f 530 558 559
f 530 559 539
f 530 539 560
f 530 560 531
f 531 560 539
f 532 544 543
f 532 543 534
f 534 543 535
f 535 543 542
f 535 542 536
f 536 561 550
f 536 550 537
f 536 542 561
f 537 550 562
f 537 562 563
f 537 563 564
f 537 564 538
f 538 564 565
f 538 565 556
f 539 566 540
f 539 559 566
f 540 566 567
f 540 567 541
f 541 567 551
f 542 550 561
f 546 555 568
f 546 568 569
f 546 569 570
f 546 570 547
f 547 570 548
f 548 570 550
f 550 570 562
f 551 567 571
f 551 571 572
f 551 572 553
f 553 572 573
f 553 573 569
f 553 569 554
f 554 569 574
f 554 574 568
f 554 568 555
f 556 565 575
f 556 575 576
f 556 576 557
f 557 576 575
f 557 575 558
f 558 575 559
f 559 575 577
f 559 577 566
f 562 570 569
f 562 569 573
f 562 573 563
f 563 578 579
f 563 579 564
f 563 573 571
f 563 571 567
f 563 567 578
f 564 579 565
f 565 579 575
f 566 577 567
f 567 577 575
f 567 575 580
f 567 580 578
f 568 574 569
f 571 573 572
f 575 579 581
f 575 581 580
f 578 580 581
f 578 581 582
f 578 582 579
f 579 582 581

