# https://github.com/mikedh/trimesh
v 0.02348601 -0.00807594 -0.00047421
v 0.02964828 -0.01020146 -0.00128181
v 0.02342281 -0.00807594 -0.00084006
v 0.02346254 -0.00807594 0.00033338
v 0.03277366 -0.01124315 0.00033338
v 0.03034522 -0.01049981 -0.00209244
v 0.02933051 -0.01012055 -0.00171293
v 0.03399420 -0.01172860 -0.00091141
v 0.02332170 -0.00807594 -0.00128333
v 0.02919510 -0.01008853 -0.00189813
v 0.02325851 -0.00807594 0.00114249
v 0.03277366 -0.01128360 0.00114097
v 0.03365656 -0.01160386 0.00112731
v 0.03358434 -0.01154992 0.00033338
v 0.03041563 -0.01061780 -0.00290155
v 0.02949481 -0.01020989 -0.00213798
v 0.02933051 -0.01014247 -0.00200591
v 0.03394003 -0.01174545 -0.00145183
v 0.03399781 -0.01172522 -0.00047118
v 0.03440225 -0.01191064 -0.00047118
v 0.03431558 -0.01188535 -0.00122260
v 0.02324948 -0.00807594 -0.00146245
v 0.02933051 -0.01016775 -0.00226549
v 0.02911204 -0.01011212 -0.00243703
v 0.02902718 -0.01014247 -0.00290155
v 0.02313573 -0.00807594 0.00153111
v 0.02953634 -0.01033631 0.00276072
v 0.03034522 -0.01060600 0.00276072
v 0.03397434 -0.01173534 0.00138993
v 0.03399600 -0.01172691 0.00085103
v 0.03399961 -0.01172522 0.00033338
v 0.03098618 -0.01082850 -0.00290155
v 0.03086341 -0.01087569 -0.00342983
v 0.02833025 -0.01010370 -0.00412509
v 0.02844219 -0.01006661 -0.00371066
v 0.02933051 -0.01024360 -0.00290155
v 0.03510640 -0.01238429 -0.00209244
v 0.03439322 -0.01207920 -0.00209244
v 0.03139062 -0.01098863 -0.00290155
v 0.03440405 -0.01191232 0.00033338
v 0.03520029 -0.01230675 -0.00047118
v 0.03527251 -0.01235732 -0.00126966
v 0.03551084 -0.01257644 -0.00209244
v 0.02313573 -0.00807594 -0.00167498
v 0.02313573 -0.00820573 0.00267874
v 0.03088688 -0.01086726 0.00338311
v 0.03346879 -0.01162072 0.00195160
v 0.03387503 -0.01178085 0.00195160
v 0.03439322 -0.01202694 0.00195160
v 0.03508474 -0.01237923 0.00195160
v 0.03526168 -0.01236237 0.00109391
v 0.03431558 -0.01188367 0.00112731
v 0.03521654 -0.01265735 -0.00293343
v 0.03203700 -0.01148924 -0.00377746
v 0.03114326 -0.01108639 -0.00370459
v 0.02823275 -0.01005650 -0.00402793
v 0.03041563 -0.01109313 -0.00453192
v 0.02980898 -0.01096334 -0.00481124
v 0.02933232 -0.01088243 -0.00498581
v 0.02345712 -0.00929967 -0.00573268
v 0.02313573 -0.00904852 -0.00541086
v 0.02313573 -0.00874512 -0.00459719
v 0.02313573 -0.00871815 -0.00451826
v 0.02313573 -0.00854116 -0.00385032
v 0.02313573 -0.00845183 -0.00345260
v 0.02313573 -0.00815685 -0.00208637
v 0.03600736 -0.01301132 -0.00290155
v 0.03520029 -0.01231012 0.00033338
v 0.03562098 -0.01252925 -0.00047118
v 0.03561556 -0.01253262 -0.00099186
v 0.03593514 -0.01272646 -0.00126966
v 0.03558848 -0.01254947 -0.00153228
v 0.03600736 -0.01284951 -0.00209244
v 0.02313573 -0.00821753 0.00276223
v 0.02313573 -0.00834564 0.00356983
v 0.03040480 -0.01074927 0.00362144
v 0.03071716 -0.01093469 0.00392353
v 0.03331171 -0.01167129 0.00257855
v 0.03494029 -0.01246688 0.00259677
v 0.03358254 -0.01186513 0.00281233
v 0.03653097 -0.01327764 0.00256489
v 0.03600736 -0.01287985 0.00195160
v 0.03557404 -0.01255790 0.00133073
v 0.03561195 -0.01253599 0.00079031
v 0.03404475 -0.01251239 -0.00418277
v 0.03235116 -0.01173871 -0.00409017
v 0.03176256 -0.01164432 -0.00451977
v 0.03115771 -0.01138979 -0.00451977
v 0.03157840 -0.01172185 -0.00493875
v 0.03115771 -0.01163589 -0.00510422
v 0.03041563 -0.01153138 -0.00543059
v 0.03065577 -0.01176568 -0.00568714
v 0.02933232 -0.01093637 -0.00507537
v 0.02313573 -0.00924068 -0.00579492
v 0.03650930 -0.01328776 -0.00290155
v 0.03642805 -0.01333833 -0.00332356
v 0.03561737 -0.01253262 0.00033338
v 0.03602542 -0.01274500 -0.00047118
v 0.03676388 -0.01314954 -0.00047118
v 0.03671874 -0.01316977 -0.00128029
v 0.03662486 -0.01321528 -0.00209244
v 0.02313573 -0.00835744 0.00361992
v 0.03017730 -0.01083355 0.00420740
v 0.02340295 -0.00851251 0.00387192
v 0.03041563 -0.01101728 0.00443814
v 0.03115771 -0.01131394 0.00438046
v 0.03241075 -0.01171174 0.00401917
v 0.03258227 -0.01163083 0.00357135
v 0.03315101 -0.01174377 0.00311897
v 0.03424878 -0.01240957 0.00357135
v 0.03520571 -0.01266746 0.00282296
v 0.03606333 -0.01310572 0.00280322
v 0.03637208 -0.01337204 0.00310379
v 0.03680721 -0.01354734 0.00280322
v 0.03745720 -0.01398390 0.00276072
v 0.03798261 -0.01419629 0.00218690
v 0.03767928 -0.01392491 0.00193187
v 0.03702568 -0.01347654 0.00195160
v 0.03661944 -0.01322371 0.00195160
v 0.03593153 -0.01274669 0.00109391
v 0.03713943 -0.01339901 0.00033338
v 0.03673499 -0.01316302 0.00033338
v 0.03716832 -0.01338046 -0.00047118
v 0.03381725 -0.01264218 -0.00472319
v 0.03356087 -0.01240788 -0.00448031
v 0.03216700 -0.01181793 -0.00451977
v 0.03277366 -0.01207920 -0.00451977
v 0.03327740 -0.01249554 -0.00498126
v 0.03172826 -0.01243654 -0.00582073
v 0.03115771 -0.01228821 -0.00593306
v 0.03041563 -0.01208762 -0.00602415
v 0.03011411 -0.01167466 -0.00578733
v 0.02761526 -0.01168814 -0.00657519
v 0.02710429 -0.01160049 -0.00663136
v 0.02633875 -0.01148250 -0.00669967
v 0.02313573 -0.00962331 -0.00605299
v 0.03702929 -0.01347654 -0.00209244
v 0.03800067 -0.01417943 -0.00236872
v 0.03892691 -0.01490423 -0.00265715
v 0.03877524 -0.01502053 -0.00319757
v 0.03733262 -0.01407661 -0.00343286
v 0.03800428 -0.01498851 -0.00408258
v 0.03709610 -0.01424854 -0.00397176
v 0.03722249 -0.01496828 -0.00492357
v 0.03655624 -0.01405638 -0.00426930
v 0.03563903 -0.01332315 -0.00415393
v 0.03712318 -0.01341249 -0.00128029
v 0.02313573 -0.00861533 0.00433947
v 0.02989203 -0.01093637 0.00474782
v 0.03161992 -0.01170331 0.00482221
v 0.03215978 -0.01182636 0.00456110
v 0.03357892 -0.01237586 0.00437287
v 0.03408267 -0.01249216 0.00409962
v 0.03298671 -0.01181287 0.00357135
v 0.03358434 -0.01208931 0.00357135
v 0.03465141 -0.01261521 0.00357135
v 0.03579612 -0.01324056 0.00357135
v 0.03563001 -0.01333158 0.00400854
v 0.03620056 -0.01349003 0.00357135
v 0.03731457 -0.01409347 0.00329051
v 0.03818844 -0.01484861 0.00357135
v 0.03859108 -0.01514527 0.00357135
v 0.03786164 -0.01428225 0.00276072
v 0.03846650 -0.01473061 0.00271669
v 0.03896482 -0.01487557 0.00195160
v 0.03837261 -0.01443058 0.00193187
v 0.03806206 -0.01413729 0.00164648
v 0.03708346 -0.01343272 0.00114097
v 0.03810539 -0.01410864 0.00114097
v 0.03762512 -0.01379006 0.00114097
v 0.03762512 -0.01371590 0.00033338
v 0.03815414 -0.01407155 0.00033338
v 0.03762512 -0.01369061 -0.00047118
v 0.03479585 -0.01335181 -0.00492205
v 0.03425780 -0.01318494 -0.00507993
v 0.03353017 -0.01297424 -0.00530004
v 0.03226811 -0.01260341 -0.00567500
v 0.03277366 -0.01316134 -0.00590726
v 0.03218506 -0.01345800 -0.00646438
v 0.03164520 -0.01330798 -0.00657064
v 0.02990828 -0.01255622 -0.00653421
v 0.02937023 -0.01244497 -0.00660555
v 0.02879246 -0.01233372 -0.00666476
v 0.02710429 -0.01213314 -0.00688791
v 0.02633875 -0.01213314 -0.00700783
v 0.02313573 -0.01184827 -0.00732207
v 0.02313573 -0.01132237 -0.00705641
v 0.02313573 -0.01072230 -0.00671941
v 0.02313573 -0.01030428 -0.00647956
v 0.03768831 -0.01392154 -0.00209396
v 0.03806386 -0.01413561 -0.00182830
v 0.03837441 -0.01440024 -0.00209396
v 0.03899552 -0.01485198 -0.00209244
v 0.03939995 -0.01523123 -0.00209244
v 0.03970328 -0.01570151 -0.00262223
v 0.03925371 -0.01535934 -0.00290914
v 0.03899732 -0.01560543 -0.00371066
v 0.03885107 -0.01576893 -0.00412964
v 0.03840330 -0.01557509 -0.00444691
v 0.03811261 -0.01570151 -0.00499947
v 0.03823539 -0.01481658 -0.00354216
v 0.03780748 -0.01512841 -0.00451977
v 0.03740304 -0.01483344 -0.00451977
v 0.03754567 -0.01540822 -0.00509815
v 0.03681805 -0.01483175 -0.00504957
v 0.03574195 -0.01406818 -0.00500555
v 0.03628000 -0.01424517 -0.00481124
v 0.03520029 -0.01348329 -0.00475052
v 0.03762512 -0.01375635 -0.00128029
v 0.02313573 -0.00864061 0.00439867
v 0.02933232 -0.01085715 0.00490114
v 0.02958690 -0.01111673 0.00517287
v 0.03035244 -0.01144879 0.00522752
v 0.02438155 -0.00925585 0.00484498
v 0.03008522 -0.01165780 0.00566623
v 0.03062688 -0.01179265 0.00552506
v 0.03330629 -0.01248542 0.00485257
v 0.03384434 -0.01261184 0.00463701
v 0.03436975 -0.01277197 0.00437287
v 0.03540071 -0.01349171 0.00454896
v 0.03805303 -0.01495480 0.00399943
v 0.03711235 -0.01423337 0.00382941
v 0.03683069 -0.01390805 0.00356527
v 0.03515876 -0.01320179 0.00431822
v 0.03486446 -0.01330461 0.00484042
v 0.03893954 -0.01567960 0.00408444
v 0.03906413 -0.01555149 0.00357135
v 0.03875719 -0.01503570 0.00296110
v 0.03886732 -0.01494805 0.00241916
v 0.03936745 -0.01526157 0.00195160
v 0.03949023 -0.01512841 0.00114097
v 0.03908579 -0.01478961 0.00114097
v 0.03851163 -0.01438339 0.00114097
v 0.03815594 -0.01406312 -0.00047118
v 0.03855858 -0.01436316 0.00033338
v 0.03449975 -0.01368555 -0.00539113
v 0.03324671 -0.01330798 -0.00577367
v 0.03520029 -0.01388782 -0.00516494
v 0.03420183 -0.01401930 -0.00585109
v 0.03283505 -0.01373612 -0.00635052
v 0.03260574 -0.01399739 -0.00662832
v 0.03314740 -0.01418280 -0.00652813
v 0.03193770 -0.01373612 -0.00669208
v 0.03115771 -0.01375298 -0.00686058
v 0.03115771 -0.01321359 -0.00662681
v 0.02872566 -0.01294390 -0.00696533
v 0.02823275 -0.01294221 -0.00704578
v 0.02791497 -0.01294221 -0.00709588
v 0.02633875 -0.01217696 -0.00702605
v 0.02629541 -0.01213314 -0.00701390
v 0.02313573 -0.01188704 -0.00733421
v 0.02548654 -0.01213314 -0.00712472
v 0.02500446 -0.01256802 -0.00734635
v 0.03810900 -0.01410021 -0.00128029
v 0.03851344 -0.01440867 -0.00128029
v 0.03903885 -0.01481321 -0.00128029
v 0.03944148 -0.01518572 -0.00128029
v 0.03975023 -0.01563409 -0.00209244
v 0.04045800 -0.01658981 -0.00166891
v 0.04061508 -0.01711908 -0.00209244
v 0.03984231 -0.01617179 -0.00289548
v 0.03957870 -0.01589198 -0.00316265
v 0.03895940 -0.01626281 -0.00444691
v 0.03884205 -0.01658644 -0.00492357
v 0.03865247 -0.01604705 -0.00466854
v 0.03940357 -0.01617179 -0.00371673
v 0.03956967 -0.01670612 -0.00398998
v 0.03840330 -0.01626281 -0.00508600
v 0.03761609 -0.01617853 -0.00553534
v 0.03709971 -0.01590546 -0.00567803
v 0.03622583 -0.01512167 -0.00563098
v 0.03568778 -0.01491434 -0.00577519
v 0.03598389 -0.01457891 -0.00531978
v 0.02313573 -0.00906201 0.00506661
v 0.02386697 -0.00917157 0.00494061
v 0.02933232 -0.01109145 0.00525485
v 0.02872566 -0.01103414 0.00543853
v 0.02953634 -0.01156004 0.00576642
v 0.02953634 -0.01200503 0.00617174
v 0.03005453 -0.01249216 0.00643588
v 0.03041563 -0.01228315 0.00610798
v 0.03115771 -0.01233035 0.00581045
v 0.03170839 -0.01246688 0.00567079
v 0.03358615 -0.01294221 0.00519261
v 0.03494752 -0.01408167 0.00566775
v 0.03439322 -0.01316640 0.00498160
v 0.03578889 -0.01402941 0.00497097
v 0.03725679 -0.01494468 0.00481462
v 0.03548376 -0.01422157 0.00551291
v 0.03949745 -0.01617010 0.00363207
v 0.03642264 -0.01495985 0.00560399
v 0.03809817 -0.01571331 0.00484042
v 0.03863802 -0.01599480 0.00462334
v 0.03966176 -0.01737866 0.00479792
v 0.03963829 -0.01661004 0.00394478
v 0.03957870 -0.01589198 0.00293984
v 0.03966356 -0.01576050 0.00239942
v 0.03973037 -0.01566274 0.00195160
v 0.03951370 -0.01510313 0.00033338
v 0.03982064 -0.01553464 0.00114097
v 0.03984412 -0.01550767 0.00033338
v 0.03910926 -0.01476601 0.00033338
v 0.03856038 -0.01438001 -0.00047118
v 0.03520029 -0.01434799 -0.00557025
v 0.03474169 -0.01419797 -0.00570232
v 0.03358434 -0.01476770 -0.00663895
v 0.03439322 -0.01618190 -0.00696988
v 0.03358434 -0.01537282 -0.00688943
v 0.03283505 -0.01449969 -0.00676039
v 0.03597667 -0.01538462 -0.00591029
v 0.03455572 -0.01516887 -0.00643402
v 0.03488252 -0.01570825 -0.00658278
v 0.03433002 -0.01541159 -0.00666020
v 0.03196659 -0.01456374 -0.00698354
v 0.03041563 -0.01375298 -0.00699417
v 0.02933232 -0.01420303 -0.00734484
v 0.02915718 -0.01414572 -0.00735698
v 0.02947134 -0.01382714 -0.00718544
v 0.02933232 -0.01396873 -0.00726286
v 0.02823455 -0.01322539 -0.00715356
v 0.02791497 -0.01351194 -0.00730689
v 0.02739137 -0.01340406 -0.00734180
v 0.02711512 -0.01299447 -0.00722643
v 0.02446461 -0.01248374 -0.00737368
v 0.02313573 -0.01225113 -0.00742226
v 0.02685152 -0.01329956 -0.00737216
v 0.03907496 -0.01478455 -0.00047118
v 0.03947940 -0.01514358 -0.00047118
v 0.03978814 -0.01558858 -0.00128029
v 0.04024675 -0.01624427 -0.00135164
v 0.04048147 -0.01655778 -0.00113000
v 0.04067466 -0.01691176 -0.00135164
v 0.04052300 -0.01804784 -0.00349510
v 0.04051036 -0.01729438 -0.00262223
v 0.04103757 -0.01779669 -0.00128029
v 0.04085160 -0.01779669 -0.00209244
v 0.04026300 -0.01701120 -0.00289548
v 0.04030091 -0.01778657 -0.00374406
v 0.03973037 -0.01643305 -0.00345108
v 0.03974120 -0.01724550 -0.00425564
v 0.03954079 -0.01757250 -0.00479757
v 0.03970509 -0.01810852 -0.00496456
v 0.03896121 -0.01699098 -0.00501162
v 0.03836900 -0.01704492 -0.00543515
v 0.03788150 -0.01681062 -0.00565830
v 0.03734165 -0.01644485 -0.00579341
v 0.03572028 -0.01647350 -0.00660252
v 0.03542057 -0.01593412 -0.00645982
v 0.03655805 -0.01566274 -0.00579948
v 0.02313573 -0.00940418 0.00547041
v 0.02386697 -0.00951037 0.00534745
v 0.02823275 -0.01096334 0.00553720
v 0.02933232 -0.01152970 0.00580134
v 0.02823275 -0.01174882 0.00637060
v 0.02933232 -0.01294221 0.00676984
v 0.02953634 -0.01294390 0.00673341
v 0.03033258 -0.01291187 0.00656795
v 0.03115771 -0.01375298 0.00677592
v 0.03115771 -0.01318325 0.00649508
v 0.03163076 -0.01331304 0.00642677
v 0.03059438 -0.01262195 0.00634631
v 0.02824358 -0.01176399 0.00637971
v 0.02823275 -0.01177242 0.00638882
v 0.02770192 -0.01166960 0.00645106
v 0.02313573 -0.01122124 0.00707497
v 0.02313573 -0.01162240 0.00726472
v 0.03333157 -0.01327427 0.00567079
v 0.03386961 -0.01340912 0.00553416
v 0.03520932 -0.01451823 0.00588483
v 0.03600736 -0.01480647 0.00572088
v 0.03217061 -0.01346137 0.00633113
v 0.03603625 -0.01438844 0.00522145
v 0.03974481 -0.01643137 0.00340436
v 0.03710151 -0.01667409 0.00634328
v 0.03770817 -0.01690501 0.00606851
v 0.03741748 -0.01618190 0.00575124
v 0.03722249 -0.01577567 0.00559489
v 0.03889080 -0.01653419 0.00482676
v 0.03782192 -0.01618190 0.00542638
v 0.03802053 -0.01659655 0.00558730
v 0.03977189 -0.01779669 0.00493758
v 0.04006620 -0.01779669 0.00438046
v 0.03975384 -0.01719830 0.00438046
v 0.03919412 -0.01706177 0.00496187
v 0.03880594 -0.01744103 0.00556756
v 0.03926635 -0.01774275 0.00537477
v 0.04035328 -0.01775117 0.00364421
v 0.04042730 -0.01745788 0.00307495
v 0.03981884 -0.01617010 0.00270455
v 0.04004814 -0.01618190 0.00195160
v 0.03982245 -0.01554812 -0.00047118
v 0.04043994 -0.01662352 0.00129733
v 0.04026119 -0.01626112 0.00107418
v 0.04025036 -0.01615156 0.00033338
v 0.04049230 -0.01653587 -0.00047118
v 0.04022689 -0.01613302 -0.00047118
v 0.03439322 -0.01699098 -0.00717330
v 0.03358434 -0.01618190 -0.00715356
v 0.03517140 -0.01619707 -0.00670271
v 0.03520029 -0.01699098 -0.00697292
v 0.03277366 -0.01537282 -0.00707311
v 0.03012133 -0.01486209 -0.00738279
v 0.03215978 -0.01591389 -0.00732207
v 0.02933232 -0.01438507 -0.00738279
v 0.02933232 -0.01457723 -0.00741618
v 0.02879246 -0.01462948 -0.00747235
v 0.02872566 -0.01407155 -0.00737975
v 0.02471196 -0.01287985 -0.00744351
v 0.02313573 -0.01230506 -0.00743440
v 0.02823275 -0.01397547 -0.00740100
v 0.02711512 -0.01370241 -0.00743592
v 0.02629541 -0.01375129 -0.00751182
v 0.04074688 -0.01699098 -0.00047118
v 0.04108271 -0.01779669 -0.00047118
v 0.04055730 -0.01862262 -0.00374406
v 0.04042911 -0.01836135 -0.00403400
v 0.04040383 -0.01751519 -0.00316265
v 0.04123257 -0.01847429 -0.00047118
v 0.04127229 -0.01897996 -0.00089167
v 0.04117118 -0.01866645 -0.00121046
v 0.04096535 -0.01860408 -0.00209244
v 0.04077216 -0.01860408 -0.00290155
v 0.03988203 -0.01782197 -0.00452433
v 0.04023772 -0.01862262 -0.00446816
v 0.03979898 -0.01860408 -0.00503591
v 0.03888177 -0.01892097 -0.00576456
v 0.03874274 -0.01838327 -0.00567196
v 0.03858385 -0.01779669 -0.00557177
v 0.03805664 -0.01735169 -0.00575090
v 0.03763054 -0.01855520 -0.00639303
v 0.03718276 -0.01825516 -0.00652358
v 0.03676027 -0.01703817 -0.00630346
v 0.03625833 -0.01680219 -0.00646589
v 0.03599653 -0.01703817 -0.00667690
v 0.02313573 -0.00985929 0.00600324
v 0.02467766 -0.01003290 0.00568293
v 0.02511640 -0.01009864 0.00560855
v 0.02324768 -0.01017618 0.00633265
v 0.02521029 -0.01087906 0.00644195
v 0.02872566 -0.01294221 0.00687155
v 0.03034522 -0.01375298 0.00692620
v 0.02527890 -0.01245677 0.00724954
v 0.03196659 -0.01456374 0.00692924
v 0.03277366 -0.01456374 0.00674100
v 0.03192686 -0.01373949 0.00656946
v 0.03277366 -0.01403616 0.00647383
v 0.03318893 -0.01415415 0.00640855
v 0.02467766 -0.01079478 0.00651026
v 0.02313573 -0.01115044 0.00703398
v 0.02313573 -0.01212976 0.00740135
v 0.02467766 -0.01234889 0.00728901
v 0.03520029 -0.01518235 0.00630381
v 0.03596042 -0.01543350 0.00613682
v 0.03372878 -0.01431090 0.00631595
v 0.03442933 -0.01457386 0.00621880
v 0.03619694 -0.01592232 0.00632658
v 0.04069091 -0.01775117 0.00278804
v 0.04052480 -0.01728933 0.00253605
v 0.03656166 -0.01646171 0.00646320
v 0.03739401 -0.01721179 0.00649963
v 0.03793386 -0.01757587 0.00633113
v 0.03826608 -0.01713594 0.00579223
v 0.03992175 -0.01860408 0.00511215
v 0.04035147 -0.01853160 0.00439108
v 0.04045439 -0.01821471 0.00396452
v 0.03955342 -0.01860408 0.00551747
v 0.03901177 -0.01797367 0.00571026
v 0.04056452 -0.01799053 0.00342562
v 0.04037314 -0.01673477 0.00195160
v 0.04046161 -0.01658307 0.00075691
v 0.04059883 -0.01714099 0.00195160
v 0.04095091 -0.01779669 0.00195160
v 0.04061688 -0.01693030 0.00107418
v 0.04047786 -0.01655778 0.00033338
v 0.03334782 -0.01718988 -0.00738582
v 0.03360601 -0.01694547 -0.00730689
v 0.03311671 -0.01665049 -0.00734635
v 0.03520029 -0.01779669 -0.00709284
v 0.03281699 -0.01618190 -0.00728108
v 0.03736151 -0.01879455 -0.00661466
v 0.03600736 -0.01779669 -0.00687424
v 0.02947134 -0.01457891 -0.00740252
v 0.03257686 -0.01645496 -0.00738734
v 0.03192145 -0.01618190 -0.00741770
v 0.03115771 -0.01618190 -0.00750423
v 0.02933232 -0.01516887 -0.00750878
v 0.02823275 -0.01456037 -0.00750575
v 0.02386697 -0.01294221 -0.00751941
v 0.02313573 -0.01294221 -0.00757254
v 0.02791497 -0.01456037 -0.00752852
v 0.02633875 -0.01456206 -0.00763933
v 0.02386697 -0.01375129 -0.00768184
v 0.04070355 -0.01699098 0.00033338
v 0.04103577 -0.01779669 0.00114097
v 0.04124521 -0.01834113 0.00114097
v 0.04123979 -0.01837147 0.00033338
v 0.04073785 -0.02022392 -0.00371066
v 0.04047786 -0.01890243 -0.00416304
v 0.04142576 -0.01941484 0.00033338
v 0.04155395 -0.02022392 0.00033338
v 0.04144743 -0.02022392 -0.00047118
v 0.04131562 -0.02022392 -0.00108295
v 0.04026300 -0.01941484 -0.00463059
v 0.03985856 -0.01941484 -0.00508145
v 0.03845747 -0.01863273 -0.00593458
v 0.03890705 -0.01941484 -0.00578126
v 0.03843761 -0.01941484 -0.00610308
v 0.03787609 -0.01941484 -0.00645982
v 0.03661402 -0.01779669 -0.00663895
v 0.03645152 -0.01734158 -0.00656305
v 0.02313573 -0.01002447 0.00619603
v 0.02313573 -0.01031271 0.00647231
v 0.02786261 -0.01301132 0.00704309
v 0.02755748 -0.01332990 0.00722222
v 0.03115771 -0.01456374 0.00705979
v 0.03277366 -0.01537282 0.00704005
v 0.03358434 -0.01537282 0.00685637
v 0.03442933 -0.01532394 0.00660590
v 0.03418197 -0.01485198 0.00646472
v 0.03350851 -0.01457386 0.00653151
v 0.03472182 -0.01502053 0.00637971
v 0.02313573 -0.01050318 0.00662563
v 0.02386697 -0.01067511 0.00659527
v 0.02313573 -0.01294221 0.00753190
v 0.02386697 -0.01294221 0.00747573
v 0.02467766 -0.01294221 0.00741045
v 0.03565890 -0.01574028 0.00642221
v 0.04103757 -0.01860408 0.00276072
v 0.03682527 -0.01696064 0.00658616
v 0.03596042 -0.01618864 0.00653303
v 0.03681805 -0.01779669 0.00685030
v 0.03765040 -0.01782365 0.00656491
v 0.03807470 -0.01811189 0.00643284
v 0.03960940 -0.01941484 0.00555693
v 0.03997411 -0.01941484 0.00515010
v 0.04037855 -0.01941484 0.00465067
v 0.04060966 -0.01941484 0.00424687
v 0.04052661 -0.01875409 0.00413150
v 0.04067105 -0.01853160 0.00364421
v 0.03914899 -0.01860408 0.00580741
v 0.03920496 -0.01941484 0.00588938
v 0.04122896 -0.01857374 0.00202599
v 0.03345795 -0.01779669 -0.00740100
v 0.03277366 -0.01779669 -0.00747690
v 0.03196659 -0.01699098 -0.00752548
v 0.03281699 -0.01694547 -0.00742985
v 0.03439322 -0.01779669 -0.00724313
v 0.03386059 -0.01779669 -0.00733421
v 0.03600736 -0.01860408 -0.00698506
v 0.03747165 -0.01941484 -0.00665717
v 0.03681805 -0.01941484 -0.00685603
v 0.03687402 -0.01855520 -0.00673307
v 0.03041563 -0.01618190 -0.00756040
v 0.02953634 -0.01537282 -0.00752245
v 0.02823275 -0.01487726 -0.00755129
v 0.02313573 -0.01375129 -0.00773042
v 0.02548654 -0.01456206 -0.00769398
v 0.02879246 -0.01537282 -0.00757558
v 0.04130298 -0.01882489 0.00180587
v 0.04131562 -0.01874735 0.00114097
v 0.04146729 -0.02103469 -0.00047118
v 0.04093285 -0.02103469 -0.00290155
v 0.04072883 -0.02103469 -0.00371066
v 0.04055549 -0.02022392 -0.00428296
v 0.04051036 -0.01941484 -0.00422528
v 0.04142215 -0.01941484 0.00114097
v 0.04152868 -0.02022392 0.00114097
v 0.04157923 -0.02103469 0.00033338
v 0.04024314 -0.02022392 -0.00468828
v 0.03983870 -0.02022392 -0.00506475
v 0.03888357 -0.02004525 -0.00576760
v 0.03851163 -0.02027955 -0.00599379
v 0.03741207 -0.02006548 -0.00662225
v 0.03234394 -0.01578916 0.00721007
v 0.03202978 -0.01539305 0.00715846
v 0.03196659 -0.01699098 0.00746207
v 0.03277366 -0.01699098 0.00738920
v 0.03277366 -0.01594929 0.00717819
v 0.03354462 -0.01623078 0.00710837
v 0.03520029 -0.01699098 0.00697781
v 0.03439322 -0.01618190 0.00692620
v 0.03600736 -0.01699098 0.00681083
v 0.03520029 -0.01618190 0.00673493
v 0.03520029 -0.01558689 0.00649508
v 0.02313573 -0.01375129 0.00762601
v 0.04119826 -0.01934405 0.00274402
v 0.04126868 -0.01902716 0.00234477
v 0.04092563 -0.01941484 0.00357135
v 0.03681805 -0.01860408 0.00697326
v 0.03762512 -0.01860408 0.00669698
v 0.03600736 -0.01779669 0.00700514
v 0.03601820 -0.01859396 0.00715087
v 0.03814331 -0.01860408 0.00646927
v 0.03864344 -0.01941484 0.00629166
v 0.03854774 -0.01860408 0.00621424
v 0.03959495 -0.02022392 0.00553872
v 0.03997411 -0.02022392 0.00513492
v 0.04038036 -0.02022392 0.00469317
v 0.03919232 -0.02022392 0.00591064
v 0.04069994 -0.02022392 0.00428938
v 0.04107910 -0.02022392 0.00357135
v 0.03345254 -0.01860408 -0.00739038
v 0.03520029 -0.01860408 -0.00712928
v 0.03439322 -0.01860408 -0.00725983
v 0.03439322 -0.01941484 -0.00725679
v 0.03385698 -0.01860408 -0.00733876
v 0.03334059 -0.01926988 -0.00737216
v 0.03277366 -0.01860408 -0.00744199
v 0.03196659 -0.01779669 -0.00752548
v 0.03115771 -0.01699098 -0.00757406
v 0.03041563 -0.01625101 -0.00756647
v 0.03600736 -0.01941484 -0.00700631
v 0.03687402 -0.02029134 -0.00669664
v 0.03600736 -0.02022392 -0.00688335
v 0.03034522 -0.01618190 -0.00756495
v 0.02933232 -0.01537282 -0.00753763
v 0.02313573 -0.01383220 -0.00773952
v 0.02823275 -0.01537114 -0.00761049
v 0.02791497 -0.01537114 -0.00763023
v 0.02467766 -0.01456206 -0.00773649
v 0.04136076 -0.02176454 -0.00047118
v 0.04130118 -0.02160610 -0.00101160
v 0.04101229 -0.02184376 -0.00209244
v 0.04053925 -0.02103469 -0.00423742
v 0.04080466 -0.02184376 -0.00290155
v 0.04048508 -0.02148305 -0.00415545
v 0.04151784 -0.02103469 0.00114097
v 0.04141854 -0.02022392 0.00195160
v 0.04140770 -0.02183702 0.00033338
v 0.04017272 -0.02103469 -0.00464122
v 0.03976828 -0.02103469 -0.00500706
v 0.03883121 -0.02058464 -0.00572965
v 0.03874635 -0.02103469 -0.00567955
v 0.03834191 -0.02103469 -0.00592244
v 0.03765942 -0.02029134 -0.00645375
v 0.03718276 -0.02060318 -0.00653421
v 0.03762512 -0.02103469 -0.00624122
v 0.02386697 -0.01456206 0.00766093
v 0.03115771 -0.01699098 0.00750305
v 0.03277366 -0.01779669 0.00745448
v 0.03358434 -0.01779669 0.00739527
v 0.03439141 -0.01779163 0.00728749
v 0.03354462 -0.01700783 0.00727687
v 0.03324671 -0.01653250 0.00722525
v 0.03439141 -0.01700783 0.00712810
v 0.02313573 -0.01456206 0.00769433
v 0.04124521 -0.02022392 0.00301119
v 0.03575820 -0.01885692 0.00723892
v 0.03681805 -0.01941484 0.00700058
v 0.03762512 -0.01941484 0.00673948
v 0.03823900 -0.01941484 0.00650115
v 0.03466044 -0.01752531 0.00719034
v 0.03494932 -0.01805795 0.00724043
v 0.03548737 -0.01831753 0.00719489
v 0.03859108 -0.02022392 0.00631595
v 0.04026300 -0.02103469 0.00459298
v 0.04065119 -0.02103469 0.00418767
v 0.03905149 -0.02103469 0.00578768
v 0.03945593 -0.02103469 0.00540361
v 0.04098521 -0.02103469 0.00357135
v 0.03359879 -0.01948901 -0.00734028
v 0.03520029 -0.01941484 -0.00713231
v 0.03520029 -0.02022392 -0.00702757
v 0.03439322 -0.02022392 -0.00714597
v 0.03277366 -0.01976881 -0.00734939
v 0.03277366 -0.01936090 -0.00738734
v 0.03196659 -0.01860408 -0.00747083
v 0.03034522 -0.01779500 -0.00758013
v 0.03041563 -0.01705672 -0.00760442
v 0.03034522 -0.01698929 -0.00760897
v 0.02823275 -0.01618021 -0.00766514
v 0.02879246 -0.01618358 -0.00764085
v 0.02629541 -0.01537114 -0.00771220
v 0.03664291 -0.02078185 -0.00659189
v 0.03597486 -0.02104480 -0.00664199
v 0.03520029 -0.02103469 -0.00679075
v 0.02386697 -0.01456206 -0.00777596
v 0.02313573 -0.01456206 -0.00780632
v 0.04125604 -0.02217077 -0.00047118
v 0.04101049 -0.02265284 -0.00128029
v 0.04119285 -0.02186062 -0.00128181
v 0.04083174 -0.02265284 -0.00209244
v 0.04056452 -0.02178814 -0.00366057
v 0.04049050 -0.02229887 -0.00335696
v 0.04030453 -0.02202244 -0.00389586
v 0.03976648 -0.02241686 -0.00427841
v 0.03956606 -0.02205278 -0.00481731
v 0.03968703 -0.02151339 -0.00494938
v 0.04057716 -0.02260228 -0.00285601
v 0.04130660 -0.02078859 0.00258311
v 0.04136257 -0.02169543 0.00114097
v 0.04126868 -0.02224156 0.00033338
v 0.04109354 -0.02265284 -0.00047118
v 0.03924468 -0.02103469 -0.00535925
v 0.03927718 -0.02180668 -0.00514672
v 0.03844844 -0.02189770 -0.00560820
v 0.03818664 -0.02166341 -0.00581466
v 0.03683610 -0.02267981 -0.00589511
v 0.03681805 -0.02184376 -0.00619417
v 0.03597486 -0.02179320 -0.00640973
v 0.03767748 -0.02189770 -0.00592396
v 0.03798081 -0.02220279 -0.00571902
v 0.03034522 -0.01698929 0.00754100
v 0.03358434 -0.01860408 0.00736643
v 0.03575820 -0.01914684 0.00723892
v 0.03196659 -0.01779669 0.00748332
v 0.03412058 -0.01728933 0.00723588
v 0.02313573 -0.01537114 0.00770040
v 0.02386697 -0.01537114 0.00769433
v 0.02710429 -0.01618021 0.00762146
v 0.02953634 -0.01698929 0.00756985
v 0.03601820 -0.01941653 0.00715998
v 0.03681805 -0.02022392 0.00685334
v 0.03762512 -0.02022392 0.00663777
v 0.03818844 -0.02022392 0.00646320
v 0.03807108 -0.02065543 0.00641462
v 0.03837802 -0.02096895 0.00618388
v 0.04052841 -0.02157070 0.00404497
v 0.03844844 -0.02182185 0.00579982
v 0.03818483 -0.02243372 0.00569052
v 0.03889982 -0.02153699 0.00564953
v 0.03982064 -0.02265284 0.00413302
v 0.04065119 -0.02184208 0.00358197
v 0.04052841 -0.02241686 0.00331632
v 0.04092743 -0.02184376 0.00276072
v 0.04119646 -0.02104817 0.00281537
v 0.03439322 -0.02103469 -0.00687121
v 0.03358434 -0.02022392 -0.00718696
v 0.03277366 -0.02022392 -0.00715812
v 0.03196659 -0.01971656 -0.00733725
v 0.02663666 -0.01901536 -0.00735850
v 0.02791497 -0.01860576 -0.00748753
v 0.02823275 -0.01860576 -0.00749512
v 0.02633875 -0.01783714 -0.00761353
v 0.02629541 -0.01779500 -0.00762112
v 0.02710429 -0.01779500 -0.00762719
v 0.02791497 -0.01779500 -0.00762719
v 0.02872566 -0.01779163 -0.00762415
v 0.03115771 -0.01860408 -0.00749512
v 0.02953634 -0.01779500 -0.00760594
v 0.02953634 -0.01698929 -0.00763326
v 0.02791497 -0.01618021 -0.00767880
v 0.02548654 -0.01537114 -0.00774560
v 0.03568598 -0.02148811 -0.00656001
v 0.03520029 -0.02157239 -0.00660404
v 0.02313573 -0.01464128 -0.00780784
v 0.04080285 -0.02346192 0.00033338
v 0.04067647 -0.02336921 -0.00128029
v 0.04059160 -0.02322257 -0.00209244
v 0.04049772 -0.02310121 -0.00255392
v 0.04030453 -0.02283994 -0.00309434
v 0.03955523 -0.02295456 -0.00400820
v 0.03929162 -0.02271689 -0.00457746
v 0.03902621 -0.02248091 -0.00506930
v 0.04124340 -0.02132966 0.00223092
v 0.04130118 -0.02151845 0.00169050
v 0.04101049 -0.02265284 0.00114097
v 0.04111701 -0.02265284 0.00033338
v 0.03711776 -0.02296973 -0.00569170
v 0.03657972 -0.02312481 -0.00578581
v 0.03600736 -0.02265284 -0.00609549
v 0.03767748 -0.02267981 -0.00560669
v 0.03848636 -0.02271015 -0.00523325
v 0.03115771 -0.01779669 0.00749091
v 0.03041563 -0.01779669 0.00749546
v 0.02933232 -0.01779331 0.00750154
v 0.02791497 -0.01779500 0.00750609
v 0.03277366 -0.01860408 0.00736795
v 0.03358434 -0.01925134 0.00725713
v 0.03439322 -0.01923954 0.00725713
v 0.03520029 -0.01922437 0.00725410
v 0.03520029 -0.01963060 0.00717819
v 0.03600736 -0.02022392 0.00699451
v 0.02933232 -0.01698929 0.00757592
v 0.02872566 -0.01698929 0.00758503
v 0.02313573 -0.01617853 0.00766397
v 0.02386697 -0.01617853 0.00766397
v 0.02633875 -0.01618021 0.00764119
v 0.02633875 -0.01617853 0.00764119
v 0.03600736 -0.02103469 0.00676225
v 0.03600736 -0.02187748 0.00651633
v 0.03627639 -0.02217077 0.00637667
v 0.03661944 -0.02162969 0.00646320
v 0.03762512 -0.02184376 0.00612012
v 0.04038397 -0.02211177 0.00385825
v 0.03827511 -0.02315346 0.00496642
v 0.03850080 -0.02273375 0.00523208
v 0.03872469 -0.02207637 0.00549621
v 0.03762512 -0.02256014 0.00578919
v 0.03762512 -0.02296636 0.00549925
v 0.03968162 -0.02307929 0.00400399
v 0.04059702 -0.02267138 0.00274857
v 0.04023772 -0.02267138 0.00358197
v 0.04040383 -0.02295456 0.00300967
v 0.04066744 -0.02351586 0.00118651
v 0.03520029 -0.02197692 -0.00643705
v 0.03439322 -0.02159430 -0.00662225
v 0.03358434 -0.02103469 -0.00683781
v 0.03196659 -0.02022392 -0.00711409
v 0.03115771 -0.01967105 -0.00731751
v 0.02609681 -0.01897322 -0.00734332
v 0.02386697 -0.01779500 -0.00754673
v 0.02467766 -0.01779500 -0.00758013
v 0.02548654 -0.01779500 -0.00760442
v 0.02313573 -0.01706346 -0.00768791
v 0.02313573 -0.01698592 -0.00770157
v 0.02386697 -0.01698592 -0.00770916
v 0.02548654 -0.01698592 -0.00771827
v 0.02629541 -0.01698592 -0.00771524
v 0.02710429 -0.01698424 -0.00769854
v 0.02933232 -0.01779500 -0.00761049
v 0.02791497 -0.01698424 -0.00767880
v 0.02633875 -0.01618021 -0.00772434
v 0.02633875 -0.01617853 -0.00772434
v 0.02467766 -0.01537114 -0.00776989
v 0.02386697 -0.01537114 -0.00778810
v 0.02313573 -0.01537114 -0.00780176
v 0.04053383 -0.02394905 0.00094818
v 0.04054827 -0.02396254 0.00033338
v 0.04050133 -0.02390860 -0.00025106
v 0.04042369 -0.02383949 -0.00078997
v 0.04030272 -0.02377375 -0.00128029
v 0.04003370 -0.02365408 -0.00210306
v 0.04004272 -0.02328494 -0.00285601
v 0.03976467 -0.02315515 -0.00346929
v 0.03878788 -0.02301861 -0.00487651
v 0.03824803 -0.02317032 -0.00504046
v 0.03762512 -0.02330685 -0.00518164
v 0.03683430 -0.02347035 -0.00533648
v 0.03654902 -0.02391366 -0.00498126
v 0.03600736 -0.02317032 -0.00583287
v 0.03520029 -0.02265284 -0.00611067
v 0.02823455 -0.01698929 0.00758958
v 0.02633875 -0.01698592 0.00760173
v 0.02467766 -0.01698592 0.00760780
v 0.02710429 -0.01779500 0.00750761
v 0.03277366 -0.01925977 0.00725713
v 0.03196659 -0.01966937 0.00718882
v 0.03277366 -0.01966599 0.00718730
v 0.03439322 -0.01964577 0.00718123
v 0.03277366 -0.02022392 0.00705523
v 0.03439322 -0.02022392 0.00704157
v 0.03520029 -0.02022392 0.00703398
v 0.03573834 -0.02228033 0.00642829
v 0.03520029 -0.02103469 0.00682297
v 0.02313573 -0.01698592 0.00757592
v 0.02386697 -0.01698592 0.00759565
v 0.03762512 -0.02323605 0.00509393
v 0.03784901 -0.02383781 0.00392049
v 0.03843761 -0.02460306 0.00222333
v 0.03894496 -0.02474296 0.00166318
v 0.03890343 -0.02389511 0.00321461
v 0.03881496 -0.02303715 0.00476604
v 0.03681805 -0.02302198 0.00555542
v 0.03520029 -0.02382264 0.00470987
v 0.03971412 -0.02391028 0.00244041
v 0.03983509 -0.02320908 0.00357135
v 0.03924468 -0.02318043 0.00418463
v 0.03920135 -0.02358665 0.00351973
v 0.03944329 -0.02377544 0.00298083
v 0.04049050 -0.02311132 0.00247077
v 0.04042550 -0.02382264 0.00148709
v 0.03439322 -0.02200052 -0.00642035
v 0.02633875 -0.01933899 -0.00716115
v 0.02548654 -0.01941484 -0.00703364
v 0.02548654 -0.01889905 -0.00731903
v 0.02313573 -0.01822819 -0.00736912
v 0.02386697 -0.01830573 -0.00739948
v 0.02313573 -0.01785737 -0.00748450
v 0.02313573 -0.01625607 -0.00778203
v 0.02313573 -0.01617853 -0.00778810
v 0.02386697 -0.01617853 -0.00777596
v 0.04011495 -0.02416312 0.00118651
v 0.03949926 -0.02457946 0.00114097
v 0.04005717 -0.02428954 0.00033338
v 0.04011314 -0.02407716 -0.00050002
v 0.03989648 -0.02398951 -0.00128029
v 0.03974662 -0.02391197 -0.00184348
v 0.03958051 -0.02383106 -0.00238238
v 0.03928621 -0.02373667 -0.00296531
v 0.03926996 -0.02334224 -0.00372736
v 0.03901718 -0.02317200 -0.00433761
v 0.03804581 -0.02387489 -0.00413116
v 0.03762512 -0.02399962 -0.00428600
v 0.03762512 -0.02371139 -0.00469131
v 0.03708888 -0.02381589 -0.00486740
v 0.03617167 -0.02391366 -0.00498126
v 0.03681805 -0.02413110 -0.00456532
v 0.03687943 -0.02458452 -0.00371825
v 0.03594597 -0.02412267 -0.00459568
v 0.03520029 -0.02313660 -0.00581162
v 0.02823275 -0.02068577 -0.00658126
v 0.03358434 -0.02193141 -0.00638240
v 0.02633875 -0.01779500 0.00750609
v 0.02791497 -0.01860576 0.00736947
v 0.03034522 -0.01966768 0.00718882
v 0.03196659 -0.02022392 0.00705827
v 0.03439322 -0.02103469 0.00682905
v 0.03541696 -0.02228033 0.00642829
v 0.03572931 -0.02306581 0.00560551
v 0.03626916 -0.02304727 0.00558274
v 0.02313573 -0.01779500 0.00739527
v 0.02386697 -0.01779500 0.00743626
v 0.02467766 -0.01779500 0.00746966
v 0.02548654 -0.01779500 0.00749243
v 0.03600736 -0.02376870 0.00460665
v 0.03681805 -0.02370464 0.00448368
v 0.03759804 -0.02366925 0.00431366
v 0.03600736 -0.02398782 0.00420133
v 0.03741387 -0.02470925 0.00241612
v 0.03795553 -0.02466374 0.00233111
v 0.03843761 -0.02482050 0.00181802
v 0.03909482 -0.02482050 0.00114097
v 0.03987301 -0.02402153 0.00195160
v 0.03843761 -0.02505479 0.00114097
v 0.03518585 -0.02335067 0.00526547
v 0.03439322 -0.02381758 0.00469621
v 0.03520029 -0.02404345 0.00430456
v 0.03544404 -0.02306581 0.00560551
v 0.02823275 -0.02048687 -0.00669360
v 0.02809192 -0.02067229 -0.00657367
v 0.02633875 -0.02011773 -0.00670423
v 0.02349142 -0.01981264 -0.00654180
v 0.02467766 -0.01941484 -0.00693345
v 0.02313573 -0.01937945 -0.00676039
v 0.02313573 -0.01857037 -0.00720214
v 0.03949926 -0.02460137 0.00033338
v 0.03909482 -0.02480701 0.00033338
v 0.03894496 -0.02472611 -0.00024651
v 0.03878427 -0.02465194 -0.00078541
v 0.03807831 -0.02469914 -0.00176454
v 0.03838344 -0.02447664 -0.00205601
v 0.03763054 -0.02456092 -0.00296379
v 0.03719179 -0.02466880 -0.00327954
v 0.03762512 -0.02430134 -0.00371066
v 0.03882219 -0.02385803 -0.00328106
v 0.03863441 -0.02374510 -0.00371066
v 0.03823178 -0.02397602 -0.00371066
v 0.03563181 -0.02385972 -0.00491598
v 0.03520029 -0.02349058 -0.00533040
v 0.03665194 -0.02472611 -0.00345260
v 0.03596403 -0.02457272 -0.00371825
v 0.03520029 -0.02405693 -0.00443932
v 0.03520029 -0.02381589 -0.00484312
v 0.03620236 -0.02472611 -0.00345260
v 0.03470377 -0.02307929 -0.00575849
v 0.02313573 -0.01977893 -0.00651295
v 0.02755206 -0.02062003 -0.00654028
v 0.02953634 -0.01966599 0.00718730
v 0.03115771 -0.02022392 0.00704764
v 0.03358434 -0.02103469 0.00682449
v 0.02879246 -0.01963734 0.00717668
v 0.02872566 -0.01963397 0.00717516
v 0.02823275 -0.01960026 0.00715694
v 0.02791497 -0.01957834 0.00714480
v 0.02879246 -0.02022224 0.00690191
v 0.02872566 -0.02022224 0.00689584
v 0.02823275 -0.02022392 0.00684878
v 0.02791497 -0.02022392 0.00681690
v 0.02710429 -0.02022392 0.00672886
v 0.02548654 -0.02012447 0.00660438
v 0.02467766 -0.02004019 0.00656036
v 0.02386697 -0.01995928 0.00651330
v 0.02612750 -0.02058969 0.00637364
v 0.03487891 -0.02222470 0.00639185
v 0.03358434 -0.02253991 0.00588179
v 0.03439322 -0.02260733 0.00594707
v 0.03439322 -0.02301356 0.00555238
v 0.03490599 -0.02305064 0.00558881
v 0.02313573 -0.01825179 0.00726776
v 0.02467766 -0.01847766 0.00729205
v 0.02592347 -0.01900356 0.00721463
v 0.02710429 -0.01910638 0.00724499
v 0.02791497 -0.01917380 0.00725713
v 0.02933232 -0.01965588 0.00718578
v 0.03600736 -0.02431651 0.00357135
v 0.03681805 -0.02474465 0.00249810
v 0.03766123 -0.02486432 0.00201840
v 0.03762512 -0.02517784 0.00114097
v 0.03843761 -0.02506491 0.00033338
v 0.03762512 -0.02522672 0.00033338
v 0.03439322 -0.02401985 0.00429241
v 0.03439322 -0.02341304 0.00514555
v 0.03358434 -0.02333550 0.00507724
v 0.03064494 -0.02227527 0.00562525
v 0.02667638 -0.02144260 0.00560248
v 0.02329282 -0.02066723 0.00564043
v 0.02313573 -0.02079870 0.00540513
v 0.02313573 -0.02091164 0.00523815
v 0.03358434 -0.02374004 0.00452315
v 0.03520029 -0.02437382 0.00357135
v 0.03600736 -0.02459800 0.00299298
v 0.02313573 -0.01944687 -0.00672092
v 0.03848455 -0.02485421 -0.00049698
v 0.03822636 -0.02476319 -0.00128029
v 0.03681805 -0.02503962 -0.00209244
v 0.03687943 -0.02481881 -0.00296379
v 0.03762512 -0.02497557 -0.00128029
v 0.03221394 -0.02309278 -0.00497215
v 0.03600736 -0.02509188 -0.00209244
v 0.03386961 -0.02389680 -0.00417063
v 0.03439322 -0.02396085 -0.00428600
v 0.02331268 -0.02147462 -0.00419795
v 0.03167409 -0.02303041 -0.00487499
v 0.03596403 -0.02483230 -0.00295468
v 0.03520029 -0.02474465 -0.00269358
v 0.02386697 -0.02177634 -0.00371218
v 0.02313573 -0.02084759 -0.00522870
v 0.02313573 -0.02054924 -0.00562946
v 0.02413961 -0.02065712 -0.00577519
v 0.02467766 -0.02071611 -0.00585109
v 0.02313573 -0.02020369 -0.00604084
v 0.02548654 -0.01896142 0.00720248
v 0.02467766 -0.01888051 0.00717668
v 0.02386697 -0.01879455 0.00714328
v 0.02710429 -0.01951092 0.00710229
v 0.02467766 -0.01941484 0.00692468
v 0.02386697 -0.01941484 0.00684726
v 0.02313573 -0.01941484 0.00675315
v 0.02313573 -0.01988175 0.00645713
v 0.02548654 -0.02052901 0.00631747
v 0.03115771 -0.02232584 0.00567534
v 0.03196659 -0.02239832 0.00574365
v 0.03358434 -0.02294276 0.00548255
v 0.02313573 -0.01830910 0.00724954
v 0.03681805 -0.02499917 0.00195160
v 0.03681805 -0.02524189 0.00114097
v 0.03681805 -0.02529583 0.00033338
v 0.03762512 -0.02513739 -0.00047118
v 0.03681805 -0.02526212 -0.00047118
v 0.03681805 -0.02518121 -0.00128029
v 0.03439322 -0.02427943 0.00357135
v 0.03358434 -0.02392377 0.00411784
v 0.02467766 -0.02044473 0.00622639
v 0.02467766 -0.02082062 0.00582107
v 0.02386697 -0.02073128 0.00571633
v 0.02313573 -0.02046496 0.00582866
v 0.02313573 -0.02134989 0.00444270
v 0.02371712 -0.02138866 0.00466129
v 0.02425877 -0.02144091 0.00479033
v 0.03520029 -0.02460306 0.00292011
v 0.03600736 -0.02501940 0.00195160
v 0.03600736 -0.02477667 0.00259070
v 0.02445016 -0.02140046 -0.00485830
v 0.02499002 -0.02145945 -0.00495393
v 0.03600736 -0.02521324 -0.00128029
v 0.03520029 -0.02505311 -0.00128029
v 0.03520029 -0.02493006 -0.00209244
v 0.02386697 -0.02154036 -0.00433002
v 0.02386697 -0.02133640 -0.00473534
v 0.02313573 -0.02145271 -0.00414178
v 0.02313573 -0.02133640 -0.00439226
v 0.02386697 -0.02201906 -0.00290155
v 0.02313573 -0.02162127 -0.00365146
v 0.02313573 -0.02159430 -0.00373799
v 0.02313573 -0.02088973 -0.00516494
v 0.02313573 -0.01871533 0.00710533
v 0.02313573 -0.02033854 0.00596680
v 0.02386697 -0.02036382 0.00612012
v 0.03600736 -0.02520650 0.00114097
v 0.03600736 -0.02524189 0.00033338
v 0.03600736 -0.02523347 -0.00047118
v 0.03520029 -0.02490309 0.00195160
v 0.03520029 -0.02473622 0.00251479
v 0.03315462 -0.02387320 0.00399032
v 0.02313573 -0.02163812 0.00363359
v 0.02313573 -0.02144597 0.00420588
v 0.03520029 -0.02506154 -0.00047118
v 0.02352573 -0.02223313 -0.00047421
v 0.02359976 -0.02221628 -0.00128333
v 0.02313573 -0.02201906 -0.00197555
v 0.02313573 -0.02200389 -0.00209547
v 0.03394725 -0.02468902 -0.00172659
v 0.02430752 -0.02223987 -0.00243096
v 0.02313573 -0.02184545 -0.00290155
v 0.02313573 -0.02127404 -0.00451674
v 0.03520029 -0.02503457 0.00114097
v 0.03520029 -0.02506154 0.00033338
v 0.03397795 -0.02468060 0.00156299
v 0.02313573 -0.02185219 0.00276223
v 0.02320615 -0.02149485 0.00411936
v 0.02313573 -0.02152856 0.00397059
v 0.02313573 -0.02210503 0.00033338
v 0.02313573 -0.02213706 -0.00047421
v 0.02313573 -0.02210166 -0.00128333
v 0.02417030 -0.02227359 0.00170265
v 0.02313573 -0.02206795 0.00114249
v 0.02313573 -0.02198704 0.00195312
f 1 2 3
f 1 3 9
f 1 9 22
f 1 22 44
f 1 44 26
f 1 26 11
f 1 11 4
f 1 4 5
f 1 5 2
f 2 6 7
f 2 7 3
f 2 5 8
f 2 8 6
f 3 7 10
f 3 10 9
f 4 11 12
f 4 12 5
f 5 12 13
f 5 13 14
f 5 14 8
f 6 15 16
f 6 16 17
f 6 17 7
f 6 8 18
f 6 18 15
f 7 17 10
f 8 14 19
f 8 19 20
f 8 20 21
f 8 21 18
f 9 10 17
f 9 17 16
f 9 16 23
f 9 23 24
f 9 24 25
f 9 25 22
f 11 26 27
f 11 27 28
f 11 28 12
f 12 29 13
f 12 28 29
f 13 29 14
f 14 29 30
f 14 30 31
f 14 31 19
f 15 32 33
f 15 33 34
f 15 34 35
f 15 35 36
f 15 36 24
f 15 24 23
f 15 23 16
f 15 18 32
f 18 21 37
f 18 37 38
f 18 38 33
f 18 33 39
f 18 39 32
f 19 31 20
f 20 31 40
f 20 40 41
f 20 41 42
f 20 42 21
f 21 42 43
f 21 43 37
f 22 25 35
f 22 35 44
f 24 36 25
f 25 36 35
f 26 44 66
f 26 66 65
f 26 65 64
f 26 64 63
f 26 63 62
f 26 62 61
f 26 61 94
f 26 94 136
f 26 136 189
f 26 189 188
f 26 188 187
f 26 187 186
f 26 186 251
f 26 251 325
f 26 325 409
f 26 409 489
f 26 489 556
f 26 556 617
f 26 617 678
f 26 678 746
f 26 746 817
f 26 817 871
f 26 871 870
f 26 870 806
f 26 806 805
f 26 805 869
f 26 869 867
f 26 867 926
f 26 926 925
f 26 925 993
f 26 993 947
f 26 947 1012
f 26 1012 1009
f 26 1009 1008
f 26 1008 1056
f 26 1056 1076
f 26 1076 1052
f 26 1052 1051
f 26 1051 1055
f 26 1055 1054
f 26 1054 1075
f 26 1075 1072
f 26 1072 1071
f 26 1071 1085
f 26 1085 1084
f 26 1084 1083
f 26 1083 1087
f 26 1087 1088
f 26 1088 1080
f 26 1080 1066
f 26 1066 1082
f 26 1082 1067
f 26 1067 1038
f 26 1038 989
f 26 989 988
f 26 988 1037
f 26 1037 1058
f 26 1058 1020
f 26 1020 1019
f 26 1019 1057
f 26 1057 1025
f 26 1025 970
f 26 970 902
f 26 902 846
f 26 846 776
f 26 776 708
f 26 708 646
f 26 646 585
f 26 585 524
f 26 524 450
f 26 450 366
f 26 366 365
f 26 365 449
f 26 449 522
f 26 522 512
f 26 512 511
f 26 511 435
f 26 435 350
f 26 350 274
f 26 274 210
f 26 210 148
f 26 148 102
f 26 102 75
f 26 75 74
f 26 74 45
f 26 45 27
f 27 46 28
f 27 45 46
f 28 46 29
f 29 46 47
f 29 47 48
f 29 48 49
f 29 49 50
f 29 50 51
f 29 51 52
f 29 52 30
f 30 52 40
f 30 40 31
f 32 39 33
f 33 38 37
f 33 37 53
f 33 53 54
f 33 54 55
f 33 55 34
f 34 56 35
f 34 55 57
f 34 57 58
f 34 58 59
f 34 59 60
f 34 60 61
f 34 61 62
f 34 62 63
f 34 63 64
f 34 64 65
f 34 65 66
f 34 66 44
f 34 44 56
f 35 56 44
f 37 43 67
f 37 67 53
f 40 52 68
f 40 68 41
f 41 68 69
f 41 69 70
f 41 70 42
f 42 70 71
f 42 71 72
f 42 72 43
f 43 72 73
f 43 73 67
f 45 74 46
f 46 74 75
f 46 75 76
f 46 76 77
f 46 77 78
f 46 78 47
f 47 78 48
f 48 78 49
f 49 79 50
f 49 78 80
f 49 80 79
f 50 79 81
f 50 81 82
f 50 82 83
f 50 83 51
f 51 83 84
f 51 84 68
f 51 68 52
f 53 67 85
f 53 85 54
f 54 86 87
f 54 87 55
f 54 85 86
f 55 88 57
f 55 87 88
f 57 88 89
f 57 89 58
f 58 89 90
f 58 90 91
f 58 91 59
f 59 91 92
f 59 92 93
f 59 93 60
f 60 94 61
f 60 93 92
f 60 92 94
f 67 73 95
f 67 95 96
f 67 96 85
f 68 84 97
f 68 97 98
f 68 98 69
f 69 98 70
f 70 98 99
f 70 99 71
f 71 99 100
f 71 100 72
f 72 100 73
f 73 100 101
f 73 101 95
f 75 102 76
f 76 103 77
f 76 102 104
f 76 104 103
f 77 105 106
f 77 106 107
f 77 107 108
f 77 108 109
f 77 109 78
f 77 103 105
f 78 109 80
f 79 80 110
f 79 110 111
f 79 111 81
f 80 109 110
f 81 112 113
f 81 113 114
f 81 114 115
f 81 115 116
f 81 116 117
f 81 117 118
f 81 118 119
f 81 119 82
f 81 111 112
f 82 119 83
f 83 119 120
f 83 120 84
f 84 120 121
f 84 121 122
f 84 122 123
f 84 123 99
f 84 99 97
f 85 96 124
f 85 124 125
f 85 125 86
f 86 126 87
f 86 125 127
f 86 127 126
f 87 89 88
f 87 126 89
f 89 126 127
f 89 127 125
f 89 125 128
f 89 128 90
f 90 128 92
f 90 92 91
f 92 129 130
f 92 130 131
f 92 131 132
f 92 132 94
f 92 128 129
f 94 133 134
f 94 134 135
f 94 135 136
f 94 132 133
f 95 101 137
f 95 137 138
f 95 138 96
f 96 138 139
f 96 139 140
f 96 140 141
f 96 141 142
f 96 142 143
f 96 143 144
f 96 144 145
f 96 145 146
f 96 146 124
f 97 99 98
f 99 123 100
f 100 123 147
f 100 147 101
f 101 147 137
f 102 148 104
f 103 149 105
f 103 104 149
f 104 148 149
f 105 150 106
f 105 149 150
f 106 150 151
f 106 151 107
f 107 151 152
f 107 152 153
f 107 153 108
f 108 153 154
f 108 154 109
f 109 154 155
f 109 155 110
f 110 153 156
f 110 156 111
f 110 155 153
f 111 156 112
f 112 156 113
f 113 157 158
f 113 158 159
f 113 159 160
f 113 160 114
f 113 156 153
f 113 153 157
f 114 160 115
f 115 160 161
f 115 161 162
f 115 162 163
f 115 163 116
f 116 163 164
f 116 164 165
f 116 165 166
f 116 166 167
f 116 167 117
f 117 167 118
f 118 168 119
f 118 167 169
f 118 169 170
f 118 170 168
f 119 168 121
f 119 121 120
f 121 123 122
f 121 168 171
f 121 171 123
f 123 171 172
f 123 172 173
f 123 173 147
f 124 128 125
f 124 146 128
f 128 146 174
f 128 174 175
f 128 175 176
f 128 176 177
f 128 177 129
f 129 177 178
f 129 178 179
f 129 179 180
f 129 180 130
f 130 180 131
f 131 180 181
f 131 181 133
f 131 133 132
f 133 181 180
f 133 180 182
f 133 182 183
f 133 183 134
f 134 184 135
f 134 183 184
f 135 184 185
f 135 185 186
f 135 186 187
f 135 187 188
f 135 188 189
f 135 189 136
f 137 147 190
f 137 190 138
f 138 190 191
f 138 191 192
f 138 192 139
f 139 193 194
f 139 194 195
f 139 195 196
f 139 196 140
f 139 192 193
f 140 196 197
f 140 197 198
f 140 198 199
f 140 199 200
f 140 200 142
f 140 142 201
f 140 201 141
f 141 201 142
f 142 200 202
f 142 202 143
f 143 203 144
f 143 202 203
f 144 203 202
f 144 202 200
f 144 200 204
f 144 204 205
f 144 205 206
f 144 206 174
f 144 174 207
f 144 207 146
f 144 146 145
f 146 207 208
f 146 208 174
f 147 173 209
f 147 209 191
f 147 191 190
f 148 210 149
f 149 211 212
f 149 212 213
f 149 213 150
f 149 210 214
f 149 214 211
f 150 213 215
f 150 215 216
f 150 216 217
f 150 217 218
f 150 218 151
f 151 218 152
f 152 218 153
f 153 155 154
f 153 218 219
f 153 219 158
f 153 158 157
f 158 220 221
f 158 221 222
f 158 222 223
f 158 223 159
f 158 219 224
f 158 224 225
f 158 225 220
f 159 223 160
f 160 223 222
f 160 222 221
f 160 221 161
f 161 221 162
f 162 226 227
f 162 227 228
f 162 228 163
f 162 221 226
f 163 228 164
f 164 228 229
f 164 229 165
f 165 229 230
f 165 230 231
f 165 231 232
f 165 232 167
f 165 167 166
f 167 232 233
f 167 233 169
f 168 170 171
f 169 172 171
f 169 171 170
f 169 233 172
f 172 234 173
f 172 233 232
f 172 232 235
f 172 235 234
f 173 234 209
f 174 236 237
f 174 237 175
f 174 208 207
f 174 206 238
f 174 238 236
f 175 237 176
f 176 237 178
f 176 178 177
f 178 237 239
f 178 239 240
f 178 240 179
f 179 241 180
f 179 240 242
f 179 242 241
f 180 241 243
f 180 243 244
f 180 244 245
f 180 245 182
f 182 245 183
f 183 245 246
f 183 246 184
f 184 247 248
f 184 248 249
f 184 249 185
f 184 246 247
f 185 249 250
f 185 250 186
f 186 250 252
f 186 252 253
f 186 253 251
f 191 254 193
f 191 193 192
f 191 209 254
f 193 254 255
f 193 255 256
f 193 256 257
f 193 257 194
f 194 257 258
f 194 258 195
f 195 258 259
f 195 259 260
f 195 260 261
f 195 261 262
f 195 262 196
f 196 262 197
f 197 262 198
f 198 263 264
f 198 264 265
f 198 265 200
f 198 200 199
f 198 262 266
f 198 266 267
f 198 267 263
f 200 265 264
f 200 264 268
f 200 268 269
f 200 269 270
f 200 270 271
f 200 271 204
f 204 271 272
f 204 272 205
f 205 272 273
f 205 273 206
f 206 273 238
f 209 234 254
f 210 274 275
f 210 275 214
f 211 214 212
f 212 215 213
f 212 214 276
f 212 276 215
f 214 275 277
f 214 277 276
f 215 276 277
f 215 277 278
f 215 278 279
f 215 279 280
f 215 280 281
f 215 281 282
f 215 282 283
f 215 283 284
f 215 284 216
f 216 284 217
f 217 284 285
f 217 285 286
f 217 286 225
f 217 225 218
f 218 225 219
f 219 225 224
f 220 225 221
f 221 225 287
f 221 287 288
f 221 288 226
f 225 286 289
f 225 289 287
f 226 290 227
f 226 288 291
f 226 291 292
f 226 292 293
f 226 293 294
f 226 294 295
f 226 295 290
f 227 290 296
f 227 296 297
f 227 297 230
f 227 230 228
f 228 230 229
f 230 297 298
f 230 298 231
f 231 299 232
f 231 298 300
f 231 300 301
f 231 301 299
f 232 299 302
f 232 302 235
f 234 235 302
f 234 302 303
f 234 303 256
f 234 256 255
f 234 255 254
f 236 238 304
f 236 304 305
f 236 305 237
f 237 305 239
f 238 273 304
f 239 305 272
f 239 272 240
f 240 272 242
f 241 242 306
f 241 306 307
f 241 307 308
f 241 308 309
f 241 309 243
f 242 272 310
f 242 310 311
f 242 311 312
f 242 312 313
f 242 313 306
f 243 309 314
f 243 314 244
f 244 315 246
f 244 246 245
f 244 314 316
f 244 316 317
f 244 317 315
f 246 315 318
f 246 318 247
f 247 318 319
f 247 319 320
f 247 320 248
f 248 321 322
f 248 322 323
f 248 323 249
f 248 320 321
f 249 323 252
f 249 252 250
f 251 253 324
f 251 324 325
f 252 323 322
f 252 322 253
f 253 322 326
f 253 326 324
f 256 327 299
f 256 299 328
f 256 328 257
f 256 303 327
f 257 328 329
f 257 329 258
f 258 329 330
f 258 330 259
f 259 330 331
f 259 331 332
f 259 332 260
f 260 333 334
f 260 334 261
f 260 332 335
f 260 335 336
f 260 336 333
f 261 334 337
f 261 337 338
f 261 338 262
f 262 338 339
f 262 339 340
f 262 340 267
f 262 267 266
f 263 267 264
f 264 267 340
f 264 340 341
f 264 341 342
f 264 342 343
f 264 343 268
f 268 344 345
f 268 345 269
f 268 343 344
f 269 345 346
f 269 346 270
f 270 346 347
f 270 347 348
f 270 348 349
f 270 349 272
f 270 272 271
f 272 304 273
f 272 349 310
f 272 305 304
f 274 350 351
f 274 351 275
f 275 351 352
f 275 352 277
f 277 352 278
f 278 353 354
f 278 354 279
f 278 352 353
f 279 354 280
f 280 355 356
f 280 356 357
f 280 357 358
f 280 358 359
f 280 359 360
f 280 360 361
f 280 361 281
f 280 354 362
f 280 362 363
f 280 363 364
f 280 364 365
f 280 365 366
f 280 366 355
f 281 361 282
f 282 361 285
f 282 285 367
f 282 367 283
f 283 367 368
f 283 368 284
f 284 368 285
f 285 369 370
f 285 370 289
f 285 289 286
f 285 368 367
f 285 361 371
f 285 371 369
f 287 289 372
f 287 372 288
f 288 372 291
f 289 370 291
f 289 291 372
f 290 295 373
f 290 373 296
f 291 374 375
f 291 375 376
f 291 376 377
f 291 377 292
f 291 370 374
f 292 377 293
f 293 378 294
f 293 377 379
f 293 379 380
f 293 380 378
f 294 381 382
f 294 382 383
f 294 383 295
f 294 378 384
f 294 384 385
f 294 385 386
f 294 386 381
f 295 383 382
f 295 382 387
f 295 387 388
f 295 388 373
f 296 373 389
f 296 389 297
f 297 389 390
f 297 390 298
f 298 390 300
f 299 327 302
f 299 301 391
f 299 391 329
f 299 329 328
f 300 390 392
f 300 392 393
f 300 393 394
f 300 394 301
f 301 394 395
f 301 395 396
f 301 396 331
f 301 331 391
f 302 327 303
f 306 313 307
f 307 397 398
f 307 398 308
f 307 313 399
f 307 399 400
f 307 400 397
f 308 398 401
f 308 401 314
f 308 314 309
f 310 349 312
f 310 312 311
f 312 399 313
f 312 349 348
f 312 348 347
f 312 347 399
f 314 401 316
f 315 317 319
f 315 319 318
f 316 402 317
f 316 401 398
f 316 398 403
f 316 403 402
f 317 320 319
f 317 402 404
f 317 404 405
f 317 405 406
f 317 406 407
f 317 407 326
f 317 326 322
f 317 322 321
f 317 321 320
f 324 408 409
f 324 409 325
f 324 326 408
f 326 407 410
f 326 410 411
f 326 411 412
f 326 412 408
f 329 391 330
f 330 391 331
f 331 396 395
f 331 395 332
f 332 413 414
f 332 414 335
f 332 395 413
f 333 336 415
f 333 415 416
f 333 416 338
f 333 338 417
f 333 417 334
f 334 417 337
f 335 414 418
f 335 418 419
f 335 419 420
f 335 420 421
f 335 421 336
f 336 421 422
f 336 422 415
f 337 417 338
f 338 416 340
f 338 340 339
f 340 416 423
f 340 423 341
f 341 423 342
f 342 423 416
f 342 416 424
f 342 424 425
f 342 425 426
f 342 426 427
f 342 427 428
f 342 428 429
f 342 429 344
f 342 344 343
f 344 429 345
f 345 430 431
f 345 431 432
f 345 432 346
f 345 429 430
f 346 432 433
f 346 433 347
f 347 434 400
f 347 400 399
f 347 433 434
f 350 435 351
f 351 436 437
f 351 437 352
f 351 435 436
f 352 437 436
f 352 436 438
f 352 438 353
f 353 438 439
f 353 439 354
f 354 439 364
f 354 364 362
f 355 440 441
f 355 441 356
f 355 366 442
f 355 442 440
f 356 441 358
f 356 358 357
f 358 443 444
f 358 444 445
f 358 445 359
f 358 441 443
f 359 445 360
f 360 445 446
f 360 446 447
f 360 447 371
f 360 371 361
f 362 364 363
f 364 439 448
f 364 448 449
f 364 449 365
f 366 450 451
f 366 451 442
f 369 452 453
f 369 453 370
f 369 371 454
f 369 454 455
f 369 455 452
f 370 453 456
f 370 456 374
f 371 447 454
f 373 388 457
f 373 457 458
f 373 458 389
f 374 456 459
f 374 459 460
f 374 460 375
f 375 461 462
f 375 462 380
f 375 380 376
f 375 460 461
f 376 380 377
f 377 380 379
f 378 380 462
f 378 462 385
f 378 385 384
f 381 463 464
f 381 464 465
f 381 465 382
f 381 386 466
f 381 466 463
f 382 465 387
f 385 467 386
f 385 462 461
f 385 461 467
f 386 467 466
f 387 465 468
f 387 468 388
f 388 468 457
f 389 469 390
f 389 458 469
f 390 469 392
f 392 470 393
f 392 469 471
f 392 471 472
f 392 472 473
f 392 473 470
f 393 470 474
f 393 474 394
f 394 474 395
f 395 474 413
f 397 475 476
f 397 476 477
f 397 477 398
f 397 400 478
f 397 478 475
f 398 477 479
f 398 479 403
f 400 434 480
f 400 480 481
f 400 481 478
f 402 482 404
f 402 403 483
f 402 483 484
f 402 484 485
f 402 485 482
f 403 479 483
f 404 482 405
f 405 486 406
f 405 482 485
f 405 485 486
f 406 486 487
f 406 487 407
f 407 487 410
f 408 488 409
f 408 412 488
f 409 488 489
f 410 487 412
f 410 412 411
f 412 487 490
f 412 490 491
f 412 491 492
f 412 492 489
f 412 489 488
f 413 493 494
f 413 494 414
f 413 474 493
f 414 494 495
f 414 495 496
f 414 496 418
f 415 422 497
f 415 497 498
f 415 498 416
f 416 498 424
f 418 496 499
f 418 499 500
f 418 500 419
f 419 500 501
f 419 501 502
f 419 502 497
f 419 497 421
f 419 421 420
f 421 497 422
f 424 498 503
f 424 503 425
f 425 504 426
f 425 503 504
f 426 505 427
f 426 504 506
f 426 506 507
f 426 507 508
f 426 508 480
f 426 480 505
f 427 505 429
f 427 429 428
f 429 505 430
f 430 505 480
f 430 480 431
f 431 480 509
f 431 509 434
f 431 434 510
f 431 510 432
f 432 510 433
f 433 510 434
f 434 509 480
f 435 511 436
f 436 511 438
f 438 511 512
f 438 512 448
f 438 448 439
f 440 442 513
f 440 513 514
f 440 514 441
f 441 515 443
f 441 514 515
f 442 451 514
f 442 514 513
f 443 515 516
f 443 516 517
f 443 517 444
f 444 517 518
f 444 518 519
f 444 519 520
f 444 520 446
f 444 446 445
f 446 520 447
f 447 520 519
f 447 519 521
f 447 521 454
f 448 512 522
f 448 522 523
f 448 523 449
f 449 523 522
f 450 524 525
f 450 525 526
f 450 526 514
f 450 514 451
f 452 527 456
f 452 456 453
f 452 455 454
f 452 454 521
f 452 521 527
f 456 527 459
f 457 472 458
f 457 468 528
f 457 528 472
f 458 472 471
f 458 471 469
f 459 529 460
f 459 527 530
f 459 530 529
f 460 529 531
f 460 531 532
f 460 532 461
f 461 532 533
f 461 533 467
f 463 466 534
f 463 534 535
f 463 535 536
f 463 536 464
f 464 536 537
f 464 537 538
f 464 538 465
f 465 538 539
f 465 539 528
f 465 528 468
f 466 467 533
f 466 533 540
f 466 540 541
f 466 541 534
f 470 473 493
f 470 493 474
f 472 528 542
f 472 542 495
f 472 495 494
f 472 494 473
f 473 494 493
f 475 543 544
f 475 544 545
f 475 545 546
f 475 546 477
f 475 477 476
f 475 478 547
f 475 547 548
f 475 548 543
f 477 546 483
f 477 483 479
f 478 481 549
f 478 549 547
f 480 550 551
f 480 551 552
f 480 552 481
f 480 508 550
f 481 552 549
f 483 485 484
f 483 546 485
f 485 546 545
f 485 545 553
f 485 553 554
f 485 554 486
f 486 554 487
f 487 555 490
f 487 554 555
f 489 492 556
f 490 555 491
f 491 557 556
f 491 556 492
f 491 555 558
f 491 558 557
f 495 542 559
f 495 559 560
f 495 560 499
f 495 499 496
f 497 502 561
f 497 561 562
f 497 562 563
f 497 563 564
f 497 564 565
f 497 565 498
f 498 565 503
f 499 560 566
f 499 566 500
f 500 567 568
f 500 568 501
f 500 566 567
f 501 568 561
f 501 561 502
f 503 565 564
f 503 564 569
f 503 569 504
f 504 569 570
f 504 570 506
f 506 571 507
f 506 570 571
f 507 571 572
f 507 572 508
f 508 572 573
f 508 573 550
f 514 574 575
f 514 575 515
f 514 526 576
f 514 576 577
f 514 577 574
f 515 575 516
f 516 578 579
f 516 579 580
f 516 580 581
f 516 581 517
f 516 575 574
f 516 574 578
f 517 581 582
f 517 582 583
f 517 583 530
f 517 530 518
f 518 530 584
f 518 584 519
f 519 584 521
f 521 584 527
f 524 585 576
f 524 576 525
f 525 576 526
f 527 584 530
f 528 586 587
f 528 587 542
f 528 539 588
f 528 588 586
f 529 530 583
f 529 583 582
f 529 582 531
f 531 589 590
f 531 590 532
f 531 582 580
f 531 580 591
f 531 591 592
f 531 592 589
f 532 590 533
f 533 590 593
f 533 593 594
f 533 594 595
f 533 595 540
f 534 596 597
f 534 597 598
f 534 598 535
f 534 541 599
f 534 599 596
f 535 598 536
f 536 598 600
f 536 600 537
f 537 600 601
f 537 601 588
f 537 588 538
f 538 588 539
f 540 595 594
f 540 594 541
f 541 594 599
f 542 587 559
f 543 602 544
f 543 548 603
f 543 603 604
f 543 604 605
f 543 605 606
f 543 606 602
f 544 602 607
f 544 607 608
f 544 608 609
f 544 609 545
f 545 609 610
f 545 610 611
f 545 611 553
f 547 549 603
f 547 603 548
f 549 612 603
f 549 552 551
f 549 551 612
f 550 573 551
f 551 573 613
f 551 613 614
f 551 614 612
f 553 611 615
f 553 615 558
f 553 558 616
f 553 616 554
f 554 616 555
f 555 616 558
f 556 557 617
f 557 558 618
f 557 618 619
f 557 619 620
f 557 620 617
f 558 615 618
f 559 587 567
f 559 567 566
f 559 566 560
f 561 568 621
f 561 621 622
f 561 622 562
f 562 622 623
f 562 623 563
f 563 624 564
f 563 623 625
f 563 625 626
f 563 626 624
f 564 624 569
f 567 627 568
f 567 587 628
f 567 628 627
f 568 627 629
f 568 629 621
f 569 630 570
f 569 624 630
f 570 630 631
f 570 631 571
f 571 632 572
f 571 631 632
f 572 632 633
f 572 633 634
f 572 634 635
f 572 635 573
f 573 636 613
f 573 635 637
f 573 637 636
f 574 577 578
f 576 585 638
f 576 638 639
f 576 639 640
f 576 640 641
f 576 641 577
f 577 641 642
f 577 642 643
f 577 643 578
f 578 643 644
f 578 644 579
f 579 644 643
f 579 643 645
f 579 645 580
f 580 582 581
f 580 645 591
f 585 646 638
f 586 588 601
f 586 601 647
f 586 647 587
f 587 647 628
f 589 592 648
f 589 648 649
f 589 649 650
f 589 650 590
f 590 650 651
f 590 651 593
f 591 645 652
f 591 652 653
f 591 653 654
f 591 654 592
f 592 654 648
f 593 651 594
f 594 651 655
f 594 655 599
f 596 656 657
f 596 657 597
f 596 599 658
f 596 658 659
f 596 659 656
f 597 657 598
f 598 657 600
f 599 655 658
f 600 657 660
f 600 660 601
f 601 660 647
f 602 606 605
f 602 605 661
f 602 661 607
f 603 612 604
f 604 662 605
f 604 612 662
f 605 662 663
f 605 663 664
f 605 664 661
f 607 665 666
f 607 666 608
f 607 661 665
f 608 666 667
f 608 667 609
f 609 667 668
f 609 668 669
f 609 669 670
f 609 670 610
f 610 670 671
f 610 671 672
f 610 672 611
f 611 672 673
f 611 673 620
f 611 620 619
f 611 619 615
f 612 614 663
f 612 663 662
f 613 636 674
f 613 674 675
f 613 675 614
f 614 675 676
f 614 676 663
f 615 619 618
f 617 620 677
f 617 677 678
f 620 673 677
f 621 629 679
f 621 679 680
f 621 680 622
f 622 680 681
f 622 681 623
f 623 681 682
f 623 682 625
f 624 626 630
f 625 682 683
f 625 683 626
f 626 684 685
f 626 685 686
f 626 686 687
f 626 687 688
f 626 688 630
f 626 683 689
f 626 689 684
f 627 628 690
f 627 690 691
f 627 691 629
f 628 647 690
f 629 691 692
f 629 692 693
f 629 693 679
f 630 688 631
f 631 688 694
f 631 694 632
f 632 694 633
f 633 694 695
f 633 695 634
f 634 696 697
f 634 697 635
f 634 695 696
f 635 697 637
f 636 698 699
f 636 699 700
f 636 700 674
f 636 637 701
f 636 701 698
f 637 697 702
f 637 702 701
f 638 646 703
f 638 703 639
f 639 703 640
f 640 704 705
f 640 705 648
f 640 648 641
f 640 703 706
f 640 706 704
f 641 648 642
f 642 653 652
f 642 652 707
f 642 707 643
f 642 648 653
f 643 707 645
f 645 707 652
f 646 708 709
f 646 709 710
f 646 710 711
f 646 711 703
f 647 660 690
f 648 705 649
f 648 654 653
f 649 705 712
f 649 712 713
f 649 713 714
f 649 714 715
f 649 715 650
f 650 715 655
f 650 655 651
f 655 715 716
f 655 716 717
f 655 717 658
f 656 718 657
f 656 659 718
f 657 718 660
f 658 717 719
f 658 719 720
f 658 720 721
f 658 721 659
f 659 721 722
f 659 722 718
f 660 718 723
f 660 723 724
f 660 724 725
f 660 725 726
f 660 726 690
f 661 664 665
f 663 676 664
f 664 676 727
f 664 727 728
f 664 728 665
f 665 729 730
f 665 730 731
f 665 731 732
f 665 732 733
f 665 733 734
f 665 734 735
f 665 735 736
f 665 736 737
f 665 737 738
f 665 738 739
f 665 739 666
f 665 728 729
f 666 739 667
f 667 739 740
f 667 740 668
f 668 740 669
f 669 740 670
f 670 740 741
f 670 741 742
f 670 742 671
f 671 742 673
f 671 673 672
f 673 742 743
f 673 743 678
f 673 678 677
f 674 700 675
f 675 700 744
f 675 744 676
f 676 744 745
f 676 745 727
f 678 743 746
f 679 693 680
f 680 693 747
f 680 747 748
f 680 748 749
f 680 749 682
f 680 682 681
f 682 749 750
f 682 750 689
f 682 689 683
f 684 689 750
f 684 750 751
f 684 751 685
f 685 751 686
f 686 751 752
f 686 752 753
f 686 753 687
f 687 753 754
f 687 754 688
f 688 754 695
f 688 695 694
f 690 726 755
f 690 755 756
f 690 756 691
f 691 756 757
f 691 757 692
f 692 757 758
f 692 758 693
f 693 758 747
f 695 754 696
f 696 702 697
f 696 754 702
f 698 701 702
f 698 702 759
f 698 759 760
f 698 760 761
f 698 761 700
f 698 700 699
f 700 761 745
f 700 745 744
f 702 762 759
f 702 754 763
f 702 763 762
f 703 711 706
f 704 706 764
f 704 764 765
f 704 765 766
f 704 766 767
f 704 767 836
f 704 836 768
f 704 768 769
f 704 769 770
f 704 770 771
f 704 771 705
f 705 771 772
f 705 772 773
f 705 773 712
f 706 711 774
f 706 774 775
f 706 775 764
f 708 776 777
f 708 777 709
f 709 777 778
f 709 778 779
f 709 779 774
f 709 774 710
f 710 774 711
f 712 773 713
f 713 773 780
f 713 780 781
f 713 781 782
f 713 782 783
f 713 783 716
f 713 716 714
f 714 716 715
f 716 783 782
f 716 782 784
f 716 784 717
f 717 784 720
f 717 720 719
f 718 722 785
f 718 785 723
f 720 786 787
f 720 787 788
f 720 788 721
f 720 784 782
f 720 782 789
f 720 789 790
f 720 790 786
f 721 788 722
f 722 791 785
f 722 788 791
f 723 785 724
f 724 792 725
f 724 785 793
f 724 793 794
f 724 794 792
f 725 792 795
f 725 795 757
f 725 757 755
f 725 755 726
f 727 745 796
f 727 796 797
f 727 797 798
f 727 798 729
f 727 729 728
f 729 798 799
f 729 799 800
f 729 800 730
f 730 800 731
f 731 801 802
f 731 802 803
f 731 803 804
f 731 804 732
f 731 800 799
f 731 799 798
f 731 798 797
f 731 797 801
f 732 804 733
f 733 804 734
f 734 804 735
f 735 804 805
f 735 805 806
f 735 806 807
f 735 807 736
f 736 807 808
f 736 808 737
f 737 808 809
f 737 809 738
f 738 809 810
f 738 810 811
f 738 811 739
f 739 811 740
f 740 811 810
f 740 810 812
f 740 812 741
f 741 812 813
f 741 813 814
f 741 814 742
f 742 814 815
f 742 815 743
f 743 815 746
f 745 761 796
f 746 815 816
f 746 816 817
f 747 758 818
f 747 818 819
f 747 819 748
f 748 819 820
f 748 820 821
f 748 821 749
f 749 821 822
f 749 822 823
f 749 823 750
f 750 823 824
f 750 824 825
f 750 825 752
f 750 752 751
f 752 826 753
f 752 825 826
f 753 826 754
f 754 826 763
f 755 757 756
f 757 795 818
f 757 818 758
f 759 762 763
f 759 763 827
f 759 827 760
f 760 827 828
f 760 828 829
f 760 829 830
f 760 830 831
f 760 831 761
f 761 831 832
f 761 832 796
f 763 826 827
f 764 775 833
f 764 833 834
f 764 834 765
f 765 834 766
f 766 834 835
f 766 835 767
f 767 835 836
f 768 837 769
f 768 836 838
f 768 838 837
f 769 837 838
f 769 838 770
f 770 838 839
f 770 839 840
f 770 840 772
f 770 772 771
f 772 840 841
f 772 841 842
f 772 842 843
f 772 843 773
f 773 844 780
f 773 843 845
f 773 845 844
f 774 779 778
f 774 778 775
f 775 778 833
f 776 846 847
f 776 847 835
f 776 835 777
f 777 835 834
f 777 834 833
f 777 833 778
f 780 844 781
f 781 844 782
f 782 844 789
f 785 791 793
f 786 790 848
f 786 848 849
f 786 849 850
f 786 850 851
f 786 851 852
f 786 852 853
f 786 853 787
f 787 853 788
f 788 853 791
f 789 844 790
f 790 844 854
f 790 854 855
f 790 855 848
f 791 856 857
f 791 857 794
f 791 794 793
f 791 853 858
f 791 858 859
f 791 859 860
f 791 860 856
f 792 794 861
f 792 861 795
f 794 857 862
f 794 862 818
f 794 818 861
f 795 861 818
f 796 832 797
f 797 832 863
f 797 863 801
f 801 864 865
f 801 865 866
f 801 866 867
f 801 867 868
f 801 868 869
f 801 869 802
f 801 863 864
f 802 869 805
f 802 805 803
f 803 805 804
f 806 870 807
f 807 870 808
f 808 870 871
f 808 871 809
f 809 871 872
f 809 872 816
f 809 816 810
f 810 816 813
f 810 813 812
f 813 816 815
f 813 815 814
f 816 872 817
f 817 872 871
f 818 862 873
f 818 873 874
f 818 874 875
f 818 875 819
f 819 875 820
f 820 875 821
f 821 875 876
f 821 876 877
f 821 877 822
f 822 877 878
f 822 878 879
f 822 879 823
f 823 879 824
f 824 879 880
f 824 880 825
f 825 880 881
f 825 881 882
f 825 882 826
f 826 882 883
f 826 883 884
f 826 884 827
f 827 884 885
f 827 885 886
f 827 886 828
f 828 886 829
f 829 886 830
f 830 887 831
f 830 886 888
f 830 888 889
f 830 889 890
f 830 890 887
f 831 887 891
f 831 891 832
f 832 891 892
f 832 892 893
f 832 893 863
f 835 847 894
f 835 894 836
f 836 894 895
f 836 895 896
f 836 896 838
f 838 896 897
f 838 897 839
f 839 841 840
f 839 897 841
f 841 898 845
f 841 845 842
f 841 897 898
f 842 845 843
f 844 845 898
f 844 898 899
f 844 899 919
f 844 919 900
f 844 900 901
f 844 901 854
f 846 902 903
f 846 903 904
f 846 904 905
f 846 905 847
f 847 905 894
f 848 855 906
f 848 906 907
f 848 907 908
f 848 908 849
f 849 908 909
f 849 909 910
f 849 910 911
f 849 911 912
f 849 912 850
f 850 912 851
f 851 913 874
f 851 874 873
f 851 873 914
f 851 914 856
f 851 856 860
f 851 860 859
f 851 859 852
f 851 912 915
f 851 915 913
f 852 859 853
f 853 859 858
f 854 901 855
f 855 916 917
f 855 917 918
f 855 918 906
f 855 901 900
f 855 900 919
f 855 919 916
f 856 914 862
f 856 862 857
f 862 914 873
f 863 893 892
f 863 892 920
f 863 920 864
f 864 920 892
f 864 892 865
f 865 892 921
f 865 921 922
f 865 922 923
f 865 923 924
f 865 924 866
f 866 924 925
f 866 925 926
f 866 926 867
f 867 869 868
f 874 913 875
f 875 913 927
f 875 927 876
f 876 927 877
f 877 927 928
f 877 928 929
f 877 929 878
f 878 929 930
f 878 930 931
f 878 931 932
f 878 932 933
f 878 933 879
f 879 933 934
f 879 934 935
f 879 935 936
f 879 936 880
f 880 936 881
f 881 936 937
f 881 937 882
f 882 937 883
f 883 938 935
f 883 935 884
f 883 937 936
f 883 936 938
f 884 935 889
f 884 889 888
f 884 888 886
f 884 886 885
f 887 890 939
f 887 939 940
f 887 940 891
f 889 934 941
f 889 941 890
f 889 935 934
f 890 942 943
f 890 943 944
f 890 944 939
f 890 941 945
f 890 945 942
f 891 940 946
f 891 946 947
f 891 947 923
f 891 923 948
f 891 948 921
f 891 921 892
f 894 905 949
f 894 949 895
f 895 949 896
f 896 949 897
f 897 949 950
f 897 950 951
f 897 951 898
f 898 951 899
f 899 951 950
f 899 950 952
f 899 952 953
f 899 953 954
f 899 954 955
f 899 955 956
f 899 956 957
f 899 957 958
f 899 958 959
f 899 959 960
f 899 960 961
f 899 961 962
f 899 962 963
f 899 963 964
f 899 964 965
f 899 965 966
f 899 966 967
f 899 967 968
f 899 968 969
f 899 969 919
f 902 970 971
f 902 971 903
f 903 971 972
f 903 972 973
f 903 973 904
f 904 973 974
f 904 974 905
f 905 974 975
f 905 975 949
f 906 918 909
f 906 909 907
f 907 909 908
f 909 976 910
f 909 918 976
f 910 976 977
f 910 977 978
f 910 978 911
f 911 978 912
f 912 978 979
f 912 979 915
f 913 928 927
f 913 915 980
f 913 980 928
f 915 979 981
f 915 981 980
f 916 919 917
f 917 982 918
f 917 919 969
f 917 969 983
f 917 983 984
f 917 984 985
f 917 985 986
f 917 986 987
f 917 987 988
f 917 988 989
f 917 989 990
f 917 990 982
f 918 991 992
f 918 992 976
f 918 982 991
f 921 948 922
f 922 948 923
f 923 947 993
f 923 993 924
f 924 993 925
f 928 980 994
f 928 994 929
f 929 994 995
f 929 995 931
f 929 931 930
f 931 933 932
f 931 995 934
f 931 934 933
f 934 996 997
f 934 997 941
f 934 995 994
f 934 994 980
f 934 980 998
f 934 998 996
f 935 938 936
f 939 944 999
f 939 999 940
f 940 999 946
f 941 997 996
f 941 996 1000
f 941 1000 945
f 942 1001 1002
f 942 1002 943
f 942 945 1003
f 942 1003 1001
f 943 1002 1004
f 943 1004 999
f 943 999 944
f 945 1000 1005
f 945 1005 1006
f 945 1006 1007
f 945 1007 1003
f 946 999 1008
f 946 1008 1009
f 946 1009 1010
f 946 1010 1011
f 946 1011 1012
f 946 1012 947
f 949 975 950
f 950 975 952
f 952 975 974
f 952 974 953
f 953 974 973
f 953 973 972
f 953 972 1013
f 953 1013 954
f 954 1013 955
f 955 1013 1014
f 955 1014 1015
f 955 1015 1016
f 955 1016 1017
f 955 1017 957
f 955 957 956
f 957 1017 958
f 958 1017 1018
f 958 1018 959
f 959 1018 960
f 960 1018 961
f 961 1018 962
f 962 1018 963
f 963 1018 1019
f 963 1019 1020
f 963 1020 964
f 964 1020 1021
f 964 1021 1022
f 964 1022 965
f 965 1022 1023
f 965 1023 966
f 966 968 967
f 966 1023 968
f 968 1024 983
f 968 983 969
f 968 1023 1024
f 970 1025 1014
f 970 1014 1013
f 970 1013 971
f 971 1013 972
f 976 992 977
f 977 1026 978
f 977 992 1026
f 978 1026 979
f 979 1026 1027
f 979 1027 1028
f 979 1028 981
f 980 981 1029
f 980 1029 998
f 981 1028 1030
f 981 1030 1031
f 981 1031 1029
f 982 1032 991
f 982 990 1033
f 982 1033 1032
f 983 1024 1022
f 983 1022 984
f 984 1022 985
f 985 1022 1021
f 985 1021 1034
f 985 1034 1035
f 985 1035 986
f 986 1035 1036
f 986 1036 987
f 987 1036 1037
f 987 1037 988
f 989 1038 1039
f 989 1039 1040
f 989 1040 990
f 990 1040 1039
f 990 1039 1033
f 991 1041 1042
f 991 1042 1043
f 991 1043 992
f 991 1032 1041
f 992 1043 1026
f 996 998 1029
f 996 1029 1031
f 996 1031 1000
f 999 1004 1044
f 999 1044 1045
f 999 1045 1008
f 1000 1031 1046
f 1000 1046 1047
f 1000 1047 1048
f 1000 1048 1005
f 1001 1003 1049
f 1001 1049 1002
f 1002 1049 1050
f 1002 1050 1004
f 1003 1007 1051
f 1003 1051 1052
f 1003 1052 1049
f 1004 1050 1044
f 1005 1048 1006
f 1006 1048 1007
f 1007 1053 1054
f 1007 1054 1055
f 1007 1055 1051
f 1007 1048 1053
f 1008 1045 1044
f 1008 1044 1056
f 1009 1012 1010
f 1010 1012 1011
f 1014 1025 1015
f 1015 1018 1017
f 1015 1017 1016
f 1015 1025 1057
f 1015 1057 1018
f 1018 1057 1019
f 1020 1058 1059
f 1020 1059 1034
f 1020 1034 1021
f 1022 1024 1023
f 1026 1043 1042
f 1026 1042 1027
f 1027 1042 1060
f 1027 1060 1028
f 1028 1060 1061
f 1028 1061 1062
f 1028 1062 1046
f 1028 1046 1030
f 1030 1046 1031
f 1032 1063 1064
f 1032 1064 1041
f 1032 1033 1065
f 1032 1065 1066
f 1032 1066 1063
f 1033 1039 1038
f 1033 1038 1067
f 1033 1067 1065
f 1034 1059 1035
f 1035 1059 1037
f 1035 1037 1036
f 1037 1059 1058
f 1041 1064 1042
f 1042 1064 1063
f 1042 1063 1060
f 1044 1050 1056
f 1046 1062 1047
f 1047 1062 1061
f 1047 1061 1068
f 1047 1068 1069
f 1047 1069 1070
f 1047 1070 1071
f 1047 1071 1072
f 1047 1072 1073
f 1047 1073 1048
f 1048 1073 1074
f 1048 1074 1075
f 1048 1075 1053
f 1049 1052 1076
f 1049 1076 1050
f 1050 1076 1056
f 1053 1075 1054
f 1060 1063 1077
f 1060 1077 1061
f 1061 1077 1078
f 1061 1078 1068
f 1063 1079 1077
f 1063 1066 1080
f 1063 1080 1079
f 1065 1067 1081
f 1065 1081 1082
f 1065 1082 1066
f 1067 1082 1081
f 1068 1078 1069
f 1069 1078 1077
f 1069 1077 1083
f 1069 1083 1084
f 1069 1084 1070
f 1070 1084 1085
f 1070 1085 1071
f 1072 1075 1074
f 1072 1074 1073
f 1077 1079 1086
f 1077 1086 1087
f 1077 1087 1083
f 1079 1080 1088
f 1079 1088 1086
f 1086 1088 1087

