# https://github.com/mikedh/trimesh
v 0.00038752 0.00509487 -0.00694947
v 0.00119603 0.00495892 -0.00694947
v 0.00038752 0.00491893 -0.00775925
v -0.00042099 0.00501756 -0.00775925
v -0.00042099 0.00509221 -0.00694947
v -0.00042099 0.00509221 -0.00613970
v -0.00042099 0.00508954 -0.00128105
v -0.00042099 0.00508421 0.00600198
v 0.00038752 0.00508154 0.00681175
v 0.00929027 0.00378597 -0.00047128
v 0.00982218 0.00370066 -0.00047128
v 0.00929027 0.00376731 -0.00128105
v 0.00181913 0.00459637 -0.00751566
v 0.00931458 0.00372466 -0.00202499
v 0.00905926 0.00371133 -0.00271297
v 0.00931458 0.00357537 -0.00294998
v 0.00113828 0.00468167 -0.00777571
v 0.00038752 0.00460703 -0.00823820
v -0.00042099 0.00470300 -0.00831062
v -0.00122950 0.00467101 -0.00832543
v -0.00122950 0.00491893 -0.00775925
v -0.00122950 0.00495625 -0.00694947
v -0.00122950 0.00495625 0.00114333
v -0.00122950 0.00495358 0.00681175
v -0.00042099 0.00508154 0.00681175
v 0.00038752 0.00490560 0.00762153
v 0.00119603 0.00495092 0.00681175
v -0.00042099 0.00500157 0.00762153
v 0.00976139 0.00367934 -0.00128105
v 0.00977355 0.00368200 0.00033356
v 0.01022644 0.00355405 -0.00047128
v 0.00082521 0.00449773 -0.00817730
v 0.01038753 0.00282629 -0.00405107
v 0.01089513 0.00230113 -0.00455307
v 0.01115653 0.00191459 -0.00484439
v 0.00970364 0.00365801 -0.00171227
v 0.00960030 0.00362336 -0.00225212
v 0.01009878 0.00329280 -0.00290225
v 0.01063373 0.00290626 -0.00351122
v 0.02312919 -0.01263794 -0.00750414
v 0.02313223 -0.01301915 -0.00758314
v 0.02313223 -0.01374691 -0.00772469
v -0.00042099 0.00406055 -0.00844887
v -0.00122950 0.00406055 -0.00848508
v -0.00189820 0.00458037 -0.00826783
v -0.00244227 0.00446308 -0.00815591
v -0.00212008 0.00462036 -0.00783661
v -0.00203801 0.00468167 -0.00694947
v -0.00203801 0.00468167 -0.00452180
v -0.00203801 0.00467901 0.00681175
v -0.00122950 0.00491093 0.00762153
v -0.00210792 0.00461770 0.00764786
v 0.00038752 0.00459903 0.00809554
v 0.00113828 0.00467901 0.00763634
v 0.00181913 0.00459637 0.00737629
v -0.00042099 0.00469234 0.00816632
v 0.01009878 0.00329013 0.00276124
v 0.01009878 0.00341276 0.00195311
v 0.00971276 0.00366068 0.00080757
v -0.00122950 0.00466568 0.00818113
v 0.01016565 0.00352472 -0.00128105
v 0.01017477 0.00353005 0.00033356
v 0.01090729 0.00323948 0.00033356
v 0.01090729 0.00328214 -0.00047128
v 0.02312919 -0.01030271 -0.00647546
v 0.02312919 -0.01081721 -0.00677172
v 0.02312919 -0.01131038 -0.00704658
v 0.02312919 -0.01184354 -0.00731486
v 0.02312919 -0.01188352 -0.00732803
v 0.02312919 -0.01196350 -0.00735107
v 0.02312919 -0.01230205 -0.00743007
v 0.01090425 0.00271432 -0.00375317
v 0.01146048 0.00218117 -0.00430619
v 0.02313223 -0.00923640 -0.00579077
v 0.02313223 -0.00962027 -0.00605082
v 0.01002279 0.00347674 -0.00202499
v 0.01090729 0.00320483 -0.00128105
v 0.01097112 0.00303155 -0.00212704
v 0.01077963 0.00297557 -0.00290225
v 0.01118693 0.00277830 -0.00290225
v 0.02313223 -0.01263794 -0.00750249
v 0.02347569 -0.00807945 -0.00047292
v 0.02313223 -0.01422941 -0.00777571
v 0.02313223 -0.01455464 -0.00780204
v 0.02305016 -0.01455464 -0.00780862
v -0.00122950 0.00325015 -0.00847521
v -0.00203801 0.00280762 -0.00843571
v -0.00203801 0.00325015 -0.00843900
v -0.00212008 0.00414052 -0.00833860
v 0.02224165 -0.01455464 -0.00782673
v 0.02305016 -0.01536504 -0.00780204
v -0.00284957 0.00386594 -0.00822997
v -0.00326598 0.00366867 -0.00817401
v -0.00333893 0.00373532 -0.00775925
v -0.00340884 0.00379663 -0.00694947
v -0.00288300 0.00420183 -0.00694947
v -0.00246659 0.00447907 -0.00761606
v -0.00247874 0.00448707 -0.00694947
v -0.00247874 0.00448707 -0.00533157
v -0.00247266 0.00448441 0.00681175
v -0.00246354 0.00447641 0.00739440
v -0.00188908 0.00457771 0.00812517
v -0.00242707 0.00444442 0.00793425
v 0.00082825 0.00449773 0.00804123
v -0.00042099 0.00406055 0.00828811
v 0.02313223 -0.01293917 0.00753101
v 0.02312919 -0.01212611 0.00739604
v 0.01090729 0.00221582 0.00421784
v 0.01057598 0.00289560 0.00329121
v 0.01009878 0.00302355 0.00343605
v 0.01120820 0.00120815 0.00558393
v 0.01153647 0.00142142 0.00504408
v -0.00122950 0.00406055 0.00832926
v 0.01071580 0.00297824 0.00276124
v 0.01095288 0.00302889 0.00193994
v 0.01136322 0.00287160 0.00166508
v 0.01142705 0.00290359 0.00114169
v 0.01147872 0.00295958 0.00033356
v 0.01147264 0.00297824 -0.00047128
v 0.02313223 -0.00986019 -0.00619895
v 0.01156079 0.00229046 -0.00371202
v 0.02313223 -0.00874323 -0.00459257
v 0.02313223 -0.00904179 -0.00540399
v 0.01141185 0.00293292 -0.00128105
v 0.01135714 0.00288227 -0.00188180
v 0.01128419 0.00282895 -0.00242165
v 0.02345442 -0.00807945 0.00033356
v 0.02313223 -0.01941437 0.00674921
v 0.02313223 -0.01988355 0.00645460
v 0.02313223 -0.02033673 0.00596577
v 0.02313223 -0.02046469 0.00582752
v 0.02313223 -0.02079791 0.00540452
v 0.02313223 -0.02091254 0.00523829
v 0.02313223 -0.02135240 0.00444333
v 0.02313223 -0.02144570 0.00420138
v 0.02313223 -0.02152834 0.00396931
v 0.02313223 -0.02163763 0.00363191
v 0.02313223 -0.02185090 0.00276124
v 0.02313223 -0.02198685 0.00195146
v 0.02313223 -0.02206683 0.00114333
v 0.02313223 -0.02210415 0.00033191
v 0.02313223 -0.02213880 -0.00047128
v 0.02313223 -0.02210148 -0.00128270
v 0.02313223 -0.02200285 -0.00209412
v 0.02313223 -0.02186156 -0.00282654
v 0.02313223 -0.02184557 -0.00289896
v 0.02313223 -0.02159498 -0.00373671
v 0.02313223 -0.02145369 -0.00414160
v 0.02313223 -0.02133640 -0.00439013
v 0.02313223 -0.02127509 -0.00451521
v 0.02313223 -0.02089121 -0.00516205
v 0.02313223 -0.02084590 -0.00522623
v 0.02313223 -0.02057399 -0.00559327
v 0.02313223 -0.02020344 -0.00603930
v 0.02313223 -0.01981690 -0.00646723
v 0.02313223 -0.01977692 -0.00651002
v 0.02313223 -0.01944636 -0.00671905
v 0.02313223 -0.01937971 -0.00676020
v 0.02313223 -0.01857198 -0.00719965
v 0.02313223 -0.01822809 -0.00736917
v 0.02313223 -0.01785488 -0.00748274
v 0.02313223 -0.01706581 -0.00768354
v 0.02313223 -0.01698584 -0.00770000
v 0.02313223 -0.01674592 -0.00772798
v 0.02313223 -0.01625541 -0.00777900
v 0.02313223 -0.01617544 -0.00778723
v 0.02313223 -0.01536504 -0.00780040
v 0.02313223 -0.01463728 -0.00780533
v 0.02313223 -0.00871657 -0.00451357
v 0.02341186 -0.00807945 -0.00083831
v 0.01188602 0.00260769 0.00033356
v -0.00122950 0.00280762 -0.00846862
v -0.00203801 0.00244241 -0.00843077
v 0.02224165 -0.01536504 -0.00781685
v -0.00284957 0.00170399 -0.00829581
v -0.00284652 0.00244241 -0.00830404
v -0.00284957 0.00325015 -0.00830074
v -0.00426598 0.00244241 -0.00761606
v -0.00412616 0.00293025 -0.00748439
v -0.00331461 0.00325015 -0.00818553
v -0.00446659 0.00082428 -0.00783496
v -0.00451522 0.00161602 -0.00766214
v -0.00490428 0.00133611 -0.00741855
v -0.00381309 0.00337544 -0.00694947
v -0.00340884 0.00380196 -0.00209083
v -0.00381917 0.00337810 -0.00209083
v -0.00288300 0.00420450 -0.00290060
v -0.00247874 0.00448441 0.00033356
v -0.00288300 0.00420450 -0.00209083
v -0.00287996 0.00420183 0.00681175
v -0.00340884 0.00379663 0.00681175
v -0.00268847 0.00390326 0.00808896
v -0.00210792 0.00412719 0.00818278
v -0.00336020 0.00375131 0.00746517
v -0.00412616 0.00293292 0.00732362
v 0.01043009 0.00036577 0.00638712
v 0.02312919 -0.01196350 0.00735490
v 0.02312919 -0.01161961 0.00725943
v 0.02313223 -0.01455464 0.00769395
v 0.02313223 -0.01374691 0.00762153
v 0.02313223 -0.01339236 0.00758203
v 0.02313223 -0.01263794 0.00747998
v 0.01134802 0.00206387 0.00404667
v 0.01112310 0.00270899 0.00276124
v 0.02312919 -0.01121708 0.00706851
v 0.02312919 -0.01114777 0.00702901
v 0.02312919 -0.01049998 0.00662248
v 0.02312919 -0.01031071 0.00646612
v 0.02312919 -0.01002280 0.00619290
v 0.01207750 0.00114684 0.00466552
v 0.01171276 0.00162402 0.00435610
v 0.02312919 -0.00985486 0.00600527
v 0.02313223 -0.00942567 0.00549834
v 0.02313223 -0.00906045 0.00506383
v 0.02312919 -0.00863659 0.00439395
v -0.00203801 0.00325015 0.00825684
v -0.00122950 0.00325015 0.00830786
v 0.01332979 -0.01051064 0.00791285
v 0.02305016 -0.01536504 0.00769889
v 0.02313223 -0.01536504 0.00769724
v 0.01125380 0.00280496 0.00220328
v 0.01166717 0.00257837 0.00193994
v 0.01182826 0.00263168 0.00114169
v 0.02330852 -0.00807945 -0.00128270
v 0.02313223 -0.00853796 -0.00384863
v 0.02312919 -0.00834602 0.00356936
v 0.02312919 -0.00835669 0.00362039
v 0.02312919 -0.00861260 0.00433799
v 0.02313223 -0.00871657 0.00451575
v 0.02313223 -0.01617544 0.00766268
v 0.02313223 -0.01698584 0.00757544
v 0.02313223 -0.01779624 0.00739275
v 0.02313223 -0.01831073 0.00724956
v 0.02313223 -0.01871327 0.00710472
v 0.01226899 0.00222648 0.00114169
v 0.02305016 -0.01941437 0.00674098
v 0.02305016 -0.01987555 0.00644801
v 0.02303192 -0.02033673 0.00594602
v 0.02274925 -0.02060598 0.00556582
v 0.02303192 -0.02088055 0.00525475
v 0.02224165 -0.02081924 0.00507699
v 0.02143314 -0.02070994 0.00491734
v 0.02096201 -0.02064863 0.00481530
v 0.02224165 -0.02117112 0.00438079
v 0.02298025 -0.02134173 0.00438572
v 0.02266110 -0.02143504 0.00396602
v 0.02224165 -0.02150968 0.00340313
v 0.02177356 -0.02145636 0.00322373
v 0.02224165 -0.02164830 0.00276124
v 0.02305016 -0.02204817 0.00114333
v 0.02104104 -0.02143504 0.00232837
v 0.02088906 -0.02147236 0.00179017
v 0.02305016 -0.02208549 0.00033191
v 0.02305016 -0.02208282 -0.00128270
v 0.02029028 -0.02142171 0.00033191
v 0.02026900 -0.02142704 -0.00047128
v 0.02305016 -0.02198419 -0.00208918
v 0.02101369 -0.02144037 -0.00250394
v 0.02186475 -0.02143237 -0.00328080
v 0.02240275 -0.02149901 -0.00348818
v 0.02217782 -0.02136039 -0.00374000
v 0.02276749 -0.02140838 -0.00402639
v 0.02062463 -0.02073660 -0.00436215
v 0.02138147 -0.02082990 -0.00458763
v 0.02107752 -0.02061664 -0.00490200
v 0.02161855 -0.02067795 -0.00499252
v 0.02224165 -0.02074993 -0.00508798
v 0.02305016 -0.02084056 -0.00520978
v 0.02224165 -0.02045136 -0.00549451
v 0.02143314 -0.01995552 -0.00591751
v 0.02224165 -0.02004616 -0.00602120
v 0.02305016 -0.02013413 -0.00610184
v 0.02224165 -0.01968095 -0.00642279
v 0.02305016 -0.01976892 -0.00650179
v 0.02062463 -0.01908115 -0.00659396
v 0.02143314 -0.01918245 -0.00665157
v 0.02224165 -0.01927841 -0.00670424
v 0.02305016 -0.01936638 -0.00675855
v 0.02224165 -0.01860397 -0.00707621
v 0.02270974 -0.01818278 -0.00734778
v 0.02062463 -0.01698584 -0.00756997
v 0.02143314 -0.01698584 -0.00763087
v 0.02224165 -0.01698584 -0.00767695
v 0.02305016 -0.01698584 -0.00770000
v 0.02281308 -0.01674592 -0.00772962
v 0.02224165 -0.01617544 -0.00779217
v 0.02062463 -0.01536504 -0.00783496
v 0.02143314 -0.01536504 -0.00782673
v -0.00122950 0.00244241 -0.00846039
v -0.00203801 0.00170399 -0.00840443
v -0.00284957 0.00082428 -0.00827276
v -0.00284957 0.00163201 -0.00829416
v -0.00336020 0.00082428 -0.00818553
v -0.00337540 0.00163201 -0.00819212
v -0.00336932 0.00244241 -0.00819541
v -0.00334501 0.00280762 -0.00819212
v -0.00415656 0.00297024 -0.00694947
v -0.00478574 0.00179463 -0.00694947
v -0.00447267 0.00244241 -0.00694947
v -0.00377966 0.00163201 -0.00809665
v -0.00446659 0.00000855 -0.00787281
v -0.00498938 0.00001122 -0.00752883
v -0.00495595 0.00082428 -0.00749262
v -0.00733285 -0.00517374 -0.00335487
v -0.00743619 -0.00500313 -0.00290060
v -0.00750003 -0.00477387 -0.00214843
v -0.00340884 0.00380196 -0.00128105
v -0.00381917 0.00338344 0.00357266
v -0.00381917 0.00338344 0.00600198
v -0.00381613 0.00338344 0.00681175
v -0.00281005 0.00325015 0.00811365
v -0.00321735 0.00325015 0.00800667
v -0.00415656 0.00297824 0.00681175
v -0.00425990 0.00280762 0.00681175
v -0.00447267 0.00244241 0.00681011
v -0.00490124 0.00131745 0.00725779
v -0.00426598 0.00244241 0.00743554
v 0.01201671 0.00194124 0.00293570
v 0.01146656 0.00215184 0.00357266
v 0.01174012 0.00226114 0.00270528
v -0.00280093 0.00280762 0.00810542
v -0.00245139 0.00280762 0.00816961
v -0.00275230 0.00170399 0.00808402
v -0.00268543 0.00170399 0.00809554
v -0.00203801 0.00170399 0.00820582
v -0.00122950 0.00170399 0.00825849
v 0.00119907 -0.00403545 0.00808402
v 0.01332675 -0.01131838 0.00785524
v 0.01414134 -0.01213144 0.00781410
v 0.01494985 -0.01293917 0.00777130
v 0.02224165 -0.01617544 0.00765609
v 0.02305016 -0.01617544 0.00766268
v 0.00201670 -0.00519240 0.00804288
v 0.00201670 -0.00534435 0.00803629
v 0.01213830 0.00205054 0.00239750
v 0.01220516 0.00213585 0.00195311
v 0.02305016 -0.01674592 0.00760178
v 0.02143314 -0.01617544 0.00763305
v 0.01981308 -0.01617544 0.00757215
v 0.02224165 -0.01698584 0.00754088
v 0.02305016 -0.01779624 0.00739111
v 0.02183435 -0.01820144 0.00721335
v 0.02129332 -0.01814545 0.00720018
v 0.02231156 -0.01945169 0.00659779
v 0.02062463 -0.01860397 0.00683973
v 0.02262463 -0.01982223 0.00640687
v 0.02231156 -0.02007815 0.00604148
v 0.02143314 -0.02003283 0.00584398
v 0.02224165 -0.02054200 0.00548188
v 0.02143314 -0.02043803 0.00532388
v 0.02143314 -0.02096319 0.00438079
v 0.02066414 -0.02034739 0.00512802
v 0.01984347 -0.02003816 0.00522183
v 0.01900152 -0.01993686 0.00495520
v 0.02042098 -0.02056865 0.00464413
v 0.02066414 -0.02074993 0.00437749
v 0.02224165 -0.02138705 0.00380966
v 0.02147569 -0.02128042 0.00352328
v 0.02062463 -0.02101651 0.00357101
v 0.02062463 -0.02122710 0.00276124
v 0.02119606 -0.02139238 0.00276124
v 0.02160335 -0.02149635 0.00276124
v 0.02037539 -0.02140038 0.00114333
v 0.01981308 -0.02114980 0.00194982
v 0.02062159 -0.02137106 0.00201730
v 0.01981308 -0.02124310 0.00114333
v 0.02224165 -0.02188022 -0.00128270
v 0.02092554 -0.02146436 -0.00208918
v 0.02224165 -0.02178959 -0.00208918
v 0.01981308 -0.02128842 0.00033191
v 0.02143314 -0.02167496 -0.00128270
v 0.01981308 -0.02129641 -0.00047128
v 0.02036323 -0.02140038 -0.00128270
v 0.02052432 -0.02136039 -0.00208918
v 0.01981308 -0.02114980 -0.00208918
v 0.01981308 -0.02098718 -0.00289896
v 0.02069758 -0.02126709 -0.00282489
v 0.02062463 -0.02097652 -0.00371038
v 0.02143314 -0.02118712 -0.00371038
v 0.02062463 -0.02055266 -0.00476539
v 0.02011703 -0.02066196 -0.00419591
v 0.02081612 -0.01988088 -0.00581711
v 0.02138147 -0.02040871 -0.00529042
v 0.01860639 -0.01981690 -0.00492010
v 0.01981308 -0.02001950 -0.00520155
v 0.02057904 -0.02011814 -0.00539576
v 0.02143314 -0.01958765 -0.00632239
v 0.02018086 -0.01902250 -0.00655611
v 0.02062463 -0.01860397 -0.00685895
v 0.02143314 -0.01860397 -0.00697087
v 0.01950001 -0.01736438 -0.00734449
v 0.01978572 -0.01704982 -0.00747286
v 0.02038147 -0.01674592 -0.00761276
v 0.01981308 -0.01617544 -0.00771152
v 0.02118998 -0.01674592 -0.00767202
v 0.02062463 -0.01617544 -0.00776748
v 0.02143314 -0.01617544 -0.00778723
v 0.02281004 -0.01674592 -0.00772962
v 0.01981308 -0.01536504 -0.00782179
v 0.00147263 -0.00365691 -0.00816743
v -0.00122950 0.00170399 -0.00841925
v -0.00203801 0.00082428 -0.00835012
v -0.00257601 -0.00142831 -0.00818060
v -0.00273710 -0.00079385 -0.00820528
v -0.00291643 0.00000855 -0.00822833
v 0.00093463 -0.00355827 -0.00816084
v -0.00301674 0.00000855 -0.00821351
v -0.00329029 0.00000855 -0.00817237
v -0.00331461 0.00018716 -0.00817566
v -0.00354257 0.00000855 -0.00813122
v -0.00376446 0.00082428 -0.00810488
v -0.00425686 0.00280762 -0.00639317
v -0.00415656 0.00297824 0.00519221
v -0.00478574 0.00178663 -0.00290225
v -0.00739060 -0.00424871 -0.00128270
v -0.00739668 -0.00417673 -0.00047292
v -0.00723255 -0.00377153 -0.00047292
v -0.00723255 -0.00376887 0.00033191
v -0.00425990 0.00280762 0.00655335
v -0.00446659 -0.00079385 -0.00784154
v -0.00501066 -0.00079385 -0.00751895
v -0.00362464 0.00000855 -0.00811476
v -0.00566416 -0.00241465 -0.00644090
v -0.00733589 -0.00519240 -0.00335322
v -0.00743619 -0.00544565 -0.00290060
v -0.00746051 -0.00519240 -0.00261586
v -0.00756994 -0.00484318 -0.00128270
v -0.00302282 0.00280762 0.00805933
v -0.00315352 0.00163201 0.00800667
v -0.00450914 0.00160536 0.00746517
v -0.00494987 0.00082428 0.00731375
v -0.00446659 0.00082428 0.00759519
v -0.00446659 0.00001122 0.00762811
v -0.00365808 0.00163201 0.00788158
v -0.00319607 0.00244241 0.00801325
v -0.00478270 0.00177330 0.00519056
v -0.00477662 0.00176797 0.00681011
v -0.00739668 -0.00423538 0.00195311
v -0.00734805 -0.00433402 0.00276124
v -0.00730246 -0.00442998 0.00316942
v -0.00651826 -0.00276387 0.00482847
v -0.00567936 -0.00119639 0.00641016
v -0.00308057 0.00082428 0.00799514
v -0.00267631 0.00082428 0.00806427
v -0.00203801 0.00082428 0.00817290
v -0.00122950 0.00082428 0.00822886
v -0.00123254 0.00000855 0.00819430
v 0.00058509 -0.00403545 0.00805769
v 0.00127506 -0.00480053 0.00804452
v 0.01576444 -0.01374691 0.00771534
v 0.01900152 -0.01536504 0.00765609
v 0.01981308 -0.01536504 0.00767420
v 0.00160637 -0.00525371 0.00802642
v 0.01819301 -0.01536504 0.00761988
v 0.01900152 -0.01617544 0.00752607
v 0.02143314 -0.01698584 0.00749644
v 0.02062463 -0.01698584 0.00744213
v 0.01981308 -0.01748167 0.00724133
v 0.02062463 -0.01803882 0.00715904
v 0.02143314 -0.01924376 0.00657639
v 0.01981308 -0.01788421 0.00706687
v 0.01983131 -0.01864396 0.00662742
v 0.02011399 -0.01904649 0.00643485
v 0.02062463 -0.01912380 0.00649081
v 0.02208663 -0.01974759 0.00633774
v 0.02143314 -0.01964896 0.00624886
v 0.02062463 -0.01991820 0.00571724
v 0.02013527 -0.01984356 0.00563001
v 0.01959423 -0.01975826 0.00551315
v 0.01900152 -0.01964363 0.00536173
v 0.01853040 -0.01984889 0.00482517
v 0.01980092 -0.02048601 0.00437749
v 0.02005928 -0.02067795 0.00410263
v 0.01900152 -0.02022210 0.00438079
v 0.01951824 -0.02059265 0.00384587
v 0.01980092 -0.02075793 0.00357430
v 0.01981308 -0.02097652 0.00276124
v 0.01901368 -0.02072327 0.00271021
v 0.01856991 -0.02064063 0.00240737
v 0.01900152 -0.02087789 0.00194982
v 0.01900152 -0.02097652 0.00114333
v 0.01900152 -0.02102717 0.00033191
v 0.01981308 -0.02123777 -0.00128270
v 0.01900152 -0.02102717 -0.00047128
v 0.01900152 -0.02096319 -0.00128270
v 0.01900152 -0.02087255 -0.00208918
v 0.01854864 -0.02064596 -0.00255990
v 0.01983131 -0.02074460 -0.00369227
v 0.01902280 -0.02072860 -0.00285781
v 0.01876444 -0.02057132 -0.00309975
v 0.01930244 -0.02066462 -0.00341247
v 0.01983131 -0.02043270 -0.00448723
v 0.01957903 -0.02057399 -0.00395068
v 0.01769149 -0.01985422 -0.00419920
v 0.01818997 -0.01994219 -0.00437531
v 0.02027508 -0.01980091 -0.00571012
v 0.01987083 -0.01926508 -0.00616933
v 0.01818997 -0.01974493 -0.00478185
v 0.01681611 -0.01908914 -0.00503202
v 0.01738450 -0.01920111 -0.00518180
v 0.01815958 -0.01931574 -0.00538918
v 0.01892858 -0.01963030 -0.00532170
v 0.01981308 -0.01972360 -0.00560643
v 0.01792250 -0.01814012 -0.00650179
v 0.01846353 -0.01825742 -0.00658409
v 0.01819301 -0.01784155 -0.00679147
v 0.01900152 -0.01779624 -0.00702683
v 0.01900152 -0.01727641 -0.00731486
v 0.01900152 -0.01918245 -0.00593396
v 0.01657599 -0.01835339 -0.00588623
v 0.01738450 -0.01802016 -0.00641785
v 0.01900152 -0.01687121 -0.00744324
v 0.01900152 -0.01674592 -0.00747616
v 0.01900152 -0.01617544 -0.00762264
v 0.01819301 -0.01536504 -0.00770164
v -0.00102281 -0.00343298 -0.00803082
v -0.00123254 -0.00322238 -0.00804892
v 0.01900152 -0.01536504 -0.00777900
v -0.00230853 -0.00196680 -0.00815920
v -0.00243011 -0.00172155 -0.00817072
v -0.00069151 -0.00275054 -0.00816084
v -0.00284349 -0.00165757 -0.00812134
v -0.00312312 -0.00084983 -0.00814932
v -0.00291947 -0.00004743 -0.00822503
v -0.00323862 -0.00035400 -0.00816084
v -0.00365808 -0.00079385 -0.00806867
v -0.00361552 -0.00004743 -0.00811476
v -0.00739972 -0.00417407 0.00033191
v -0.00446659 -0.00160425 -0.00767695
v -0.00496507 -0.00160425 -0.00743830
v -0.00500762 -0.00084983 -0.00751401
v -0.00365808 -0.00084983 -0.00806045
v -0.00365504 -0.00160425 -0.00794359
v -0.00566416 -0.00246530 -0.00643596
v -0.00733589 -0.00530703 -0.00335322
v -0.00747875 -0.00569890 -0.00205626
v -0.00754562 -0.00565358 -0.00128270
v -0.00708057 -0.00585085 -0.00290060
v -0.00721431 -0.00599480 -0.00230150
v -0.00732374 -0.00608011 -0.00176165
v -0.00753042 -0.00565358 -0.00047292
v -0.00753954 -0.00519240 -0.00047292
v -0.00752434 -0.00519240 -0.00001372
v -0.00751522 -0.00484318 0.00033191
v -0.00739972 -0.00420872 0.00114333
v -0.00365808 0.00082428 0.00787170
v -0.00365808 0.00000855 0.00784702
v -0.00498027 0.00001122 0.00734831
v -0.00446659 0.00000855 0.00762811
v -0.00747875 -0.00484318 0.00114333
v -0.00734805 -0.00456594 0.00276124
v -0.00730246 -0.00444331 0.00316942
v -0.00651826 -0.00291582 0.00482847
v -0.00567936 -0.00131368 0.00641016
v -0.00499850 -0.00079385 0.00733185
v -0.00256689 0.00025380 0.00804617
v -0.00209576 0.00000855 0.00809390
v 0.00073707 -0.00450196 0.00803629
v 0.01657295 -0.01455464 0.00765445
v 0.00282217 -0.00646664 0.00793754
v 0.00128418 -0.00557627 0.00792602
v 0.00201670 -0.00646664 0.00786841
v 0.00201670 -0.00617341 0.00791614
v 0.00201366 -0.00574955 0.00798362
v 0.01738450 -0.01536504 0.00756063
v 0.01819301 -0.01617544 0.00744048
v 0.01938147 -0.01739903 0.00721829
v 0.01884043 -0.01728441 0.00717220
v 0.01818997 -0.01713512 0.00709978
v 0.01906839 -0.01771893 0.00697963
v 0.01816262 -0.01785488 0.00666856
v 0.01900152 -0.01841203 0.00654512
v 0.01957903 -0.01893986 0.00635091
v 0.01985563 -0.01940371 0.00599046
v 0.02062463 -0.01952900 0.00612213
v 0.01900152 -0.01923843 0.00584398
v 0.01836019 -0.01910780 0.00570737
v 0.01781915 -0.01899584 0.00557734
v 0.01608663 -0.01823609 0.00563495
v 0.01554559 -0.01812146 0.00546707
v 0.01683131 -0.01907315 0.00487949
v 0.01735107 -0.01962230 0.00437256
v 0.01760031 -0.01988088 0.00409605
v 0.01818997 -0.02024343 0.00357101
v 0.01706231 -0.01978758 0.00384587
v 0.01928724 -0.02066729 0.00330602
v 0.01874621 -0.02057932 0.00294558
v 0.01805927 -0.02052600 0.00194982
v 0.01735107 -0.01995552 0.00357430
v 0.01691034 -0.01984889 0.00330602
v 0.01738450 -0.02012880 0.00276124
v 0.01738450 -0.02038472 0.00114333
v 0.01791642 -0.02058198 0.00114333
v 0.01826292 -0.02075526 0.00033191
v 0.01785563 -0.02060331 0.00033191
v 0.01738450 -0.02042470 0.00033191
v 0.01828724 -0.02075259 -0.00047128
v 0.01835411 -0.02072327 -0.00128270
v 0.01805320 -0.02053400 -0.00208918
v 0.01738450 -0.02028608 -0.00208918
v 0.01738450 -0.02013946 -0.00289896
v 0.01824469 -0.02045669 -0.00285781
v 0.01740578 -0.01992353 -0.00366758
v 0.01818997 -0.02018745 -0.00371038
v 0.01715046 -0.01975292 -0.00390953
v 0.01656079 -0.01922776 -0.00453990
v 0.01740578 -0.01960631 -0.00448723
v 0.01786475 -0.01898251 -0.00569860
v 0.01840274 -0.01907581 -0.00581381
v 0.01627812 -0.01895585 -0.00482135
v 0.01577964 -0.01841203 -0.00532993
v 0.01605927 -0.01825475 -0.00578913
v 0.01738450 -0.01889987 -0.00558668
v 0.01738450 -0.01761763 -0.00669436
v 0.01818997 -0.01710580 -0.00722927
v 0.01774924 -0.01659930 -0.00736095
v 0.01819301 -0.01670060 -0.00739057
v 0.01840578 -0.01674592 -0.00740538
v 0.01654863 -0.01776691 -0.00632239
v 0.01680091 -0.01747901 -0.00660219
v 0.00039056 -0.00568290 -0.00773127
v 0.00043311 -0.00568290 -0.00773621
v -0.00042099 -0.00403545 -0.00797486
v -0.00006841 -0.00519240 -0.00778065
v -0.00042099 -0.00484318 -0.00781027
v -0.00123254 -0.00343298 -0.00800449
v -0.00123254 -0.00403545 -0.00787446
v -0.00182829 -0.00343298 -0.00791396
v -0.00203801 -0.00322238 -0.00792713
v -0.00279789 -0.00246530 -0.00795840
v -0.00284652 -0.00241465 -0.00796005
v -0.00354257 -0.00172155 -0.00794688
v -0.00360640 -0.00084983 -0.00807197
v -0.00435109 -0.00172155 -0.00768025
v -0.00444835 -0.00343298 -0.00704164
v -0.00488908 -0.00203078 -0.00735930
v -0.00520519 -0.00322238 -0.00675032
v -0.00560945 -0.00322238 -0.00638164
v -0.00658513 -0.00541366 -0.00422883
v -0.00641492 -0.00595215 -0.00395890
v -0.00574622 -0.00454461 -0.00581217
v -0.00736629 -0.00613609 -0.00128270
v -0.00738453 -0.00617607 -0.00047292
v -0.00655170 -0.00609877 -0.00341905
v -0.00667632 -0.00617074 -0.00290060
v 0.00316564 -0.01257396 -0.00260105
v -0.00656081 -0.00691450 -0.00025238
v -0.00742100 -0.00569623 0.00035989
v -0.00738149 -0.00545631 0.00114169
v -0.00740276 -0.00486184 0.00195311
v -0.00734805 -0.00613609 0.00011136
v -0.00365808 -0.00079385 0.00774003
v -0.00446659 -0.00079385 0.00757051
v -0.00498027 0.00000855 0.00734831
v -0.00499546 -0.00084983 0.00733021
v -0.00736021 -0.00519240 0.00175889
v -0.00734197 -0.00532569 0.00168154
v -0.00727814 -0.00519240 0.00207490
v -0.00725382 -0.00514175 0.00222139
v -0.00715048 -0.00497114 0.00276124
v -0.00661249 -0.00542699 0.00340642
v -0.00647875 -0.00519773 0.00394627
v -0.00647571 -0.00519240 0.00395286
v -0.00558817 -0.00241465 0.00629330
v -0.00567936 -0.00185483 0.00639699
v 0.00041488 -0.00519240 0.00783549
v 0.00039664 -0.00565625 0.00774168
v 0.00056381 -0.00554961 0.00779599
v 0.01576444 -0.01455464 0.00756886
v 0.00120515 -0.00646664 0.00772193
v 0.00201670 -0.00661593 0.00782397
v 0.00282217 -0.00727438 0.00776307
v 0.01657295 -0.01536504 0.00746517
v 0.01740578 -0.01621009 0.00732198
v 0.01545441 -0.01572492 0.00720018
v 0.01715046 -0.01650600 0.00718702
v 0.01657295 -0.01637004 0.00712447
v 0.01574316 -0.01613545 0.00704876
v 0.01650304 -0.01706315 0.00670642
v 0.01576444 -0.01688454 0.00661589
v 0.01841186 -0.01828141 0.00645954
v 0.01787386 -0.01816145 0.00637724
v 0.01738450 -0.01805482 0.00629330
v 0.01900152 -0.01881723 0.00624722
v 0.01657599 -0.01833473 0.00573864
v 0.01495289 -0.01758297 0.00578637
v 0.01441793 -0.01746035 0.00567116
v 0.01629332 -0.01895585 0.00469186
v 0.01656687 -0.01925176 0.00440547
v 0.01597417 -0.01910780 0.00415365
v 0.01543617 -0.01896918 0.00387056
v 0.01524772 -0.01906515 0.00332742
v 0.01738450 -0.02026475 0.00194982
v 0.01680091 -0.01989688 0.00276124
v 0.01510790 -0.01912646 0.00276124
v 0.01576444 -0.01942770 0.00276124
v 0.01657599 -0.02005149 0.00114333
v 0.01657599 -0.02009414 0.00033191
v 0.01738450 -0.02039005 -0.00047128
v 0.01794985 -0.02056599 -0.00128270
v 0.01738450 -0.02034206 -0.00128270
v 0.01653344 -0.01994486 -0.00201018
v 0.01623252 -0.01978758 -0.00222908
v 0.01678876 -0.01990754 -0.00289896
v 0.01693161 -0.01984089 -0.00336968
v 0.01662462 -0.01960364 -0.00366758
v 0.01600456 -0.01908914 -0.00428150
v 0.01574620 -0.01883323 -0.00453990
v 0.01465502 -0.01814812 -0.00482299
v 0.01519605 -0.01828141 -0.00506165
v 0.01552128 -0.01810813 -0.00560314
v 0.01357599 -0.01747368 -0.00505012
v 0.01446353 -0.01743369 -0.00577761
v 0.01495289 -0.01755632 -0.00587965
v 0.01577964 -0.01782023 -0.00599980
v 0.01654863 -0.01703649 -0.00679641
v 0.01744225 -0.01691386 -0.00712558
v 0.01736019 -0.01674592 -0.00718977
v 0.01721125 -0.01643402 -0.00730828
v 0.00065804 -0.00694649 -0.00740045
v 0.00038752 -0.00649863 -0.00750414
v 0.00120819 -0.00646664 -0.00764404
v 0.01494985 -0.01695118 -0.00630923
v 0.01576444 -0.01720976 -0.00642608
v 0.01576444 -0.01680456 -0.00668613
v -0.00039364 -0.00568290 -0.00761276
v -0.00041795 -0.00565625 -0.00761606
v -0.00042099 -0.00519240 -0.00772798
v -0.00204105 -0.00343298 -0.00786623
v -0.00123254 -0.00484318 -0.00765391
v -0.00204105 -0.00403545 -0.00768025
v -0.00263984 -0.00343298 -0.00769341
v -0.00284652 -0.00246530 -0.00794359
v -0.00360640 -0.00246530 -0.00769835
v -0.00365504 -0.00241465 -0.00769835
v -0.00453346 -0.00409676 -0.00677007
v -0.00506233 -0.00386750 -0.00663840
v -0.00415352 -0.00343298 -0.00715027
v -0.00515960 -0.00343298 -0.00671576
v -0.00612009 -0.00570423 -0.00454484
v -0.00582525 -0.00545631 -0.00508140
v -0.00560641 -0.00599480 -0.00486085
v -0.00587388 -0.00616808 -0.00432100
v -0.00483741 -0.00440866 -0.00653142
v -0.00550306 -0.00508310 -0.00562125
v -0.00656081 -0.00691450 0.00008668
v 0.00386169 -0.01265127 -0.00354085
v 0.00349695 -0.01263794 -0.00298125
v 0.00360637 -0.01274457 -0.00288085
v 0.00484041 -0.01334970 -0.00331701
v 0.00432674 -0.01317643 -0.00290060
v 0.00416868 -0.01326973 -0.00209083
v 0.00363069 -0.01294984 -0.00209083
v 0.00308357 -0.01261928 -0.00209083
v -0.00002889 -0.01092651 -0.00090250
v -0.00025382 -0.01081721 -0.00046634
v -0.00691644 -0.00648531 0.00036977
v -0.00653042 -0.00610143 0.00246004
v -0.00727206 -0.00599213 0.00065121
v -0.00496507 -0.00144430 0.00728412
v -0.00453346 -0.00167090 0.00737465
v -0.00041795 -0.00565625 0.00755734
v -0.00705626 -0.00561892 0.00194982
v -0.00671887 -0.00568024 0.00274313
v -0.00701674 -0.00519240 0.00275630
v -0.00641492 -0.00596548 0.00299989
v -0.00630246 -0.00568024 0.00363355
v -0.00573103 -0.00608810 0.00403844
v -0.00588908 -0.00561626 0.00433799
v -0.00572495 -0.00532036 0.00483669
v -0.00491948 -0.00372888 0.00645460
v -0.00497723 -0.00343298 0.00652208
v -0.00517480 -0.00246530 0.00671465
v -0.00518391 -0.00241465 0.00672452
v 0.00201062 -0.00727438 0.00762153
v -0.00095899 -0.00618141 0.00726766
v 0.00039664 -0.00646664 0.00751784
v 0.00119299 -0.00706378 0.00749480
v 0.01574316 -0.01541836 0.00733021
v 0.01495289 -0.01558630 0.00714587
v 0.01495289 -0.01617544 0.00682163
v 0.01495289 -0.01669793 0.00648422
v 0.01576444 -0.01728707 0.00633280
v 0.01672493 -0.01750300 0.00648258
v 0.01495289 -0.01710313 0.00619126
v 0.01411398 -0.01674592 0.00612378
v 0.01331459 -0.01674592 0.00575181
v 0.01287082 -0.01661529 0.00563495
v 0.01387690 -0.01731106 0.00546542
v 0.01414742 -0.01760963 0.00519385
v 0.01519301 -0.01828408 0.00492886
v 0.01465198 -0.01814812 0.00468692
v 0.01304711 -0.01733239 0.00466552
v 0.01438146 -0.01828941 0.00414872
v 0.01496809 -0.01882790 0.00358747
v 0.01279179 -0.01746301 0.00412732
v 0.01120820 -0.01663662 0.00410428
v 0.01384346 -0.01814545 0.00382777
v 0.01365501 -0.01824675 0.00328792
v 0.01350000 -0.01832673 0.00276124
v 0.01414742 -0.01865462 0.00276124
v 0.01470365 -0.01893186 0.00276124
v 0.01655471 -0.01993420 0.00187081
v 0.01626900 -0.01977425 0.00208642
v 0.01460030 -0.01898518 0.00217530
v 0.01584651 -0.01961697 0.00187081
v 0.01616870 -0.01981690 0.00154657
v 0.01612006 -0.01984356 0.00114333
v 0.01605927 -0.01986755 0.00033191
v 0.01657599 -0.02005949 -0.00047128
v 0.01567933 -0.01968361 -0.00047128
v 0.01608359 -0.01985422 -0.00047128
v 0.01657599 -0.02001151 -0.00128270
v 0.01616870 -0.01981690 -0.00168923
v 0.01495289 -0.01930241 -0.00128270
v 0.01445137 -0.01906249 -0.00128270
v 0.01490730 -0.01917178 -0.00206778
v 0.01460334 -0.01898251 -0.00231960
v 0.01414742 -0.01865462 -0.00289896
v 0.01576444 -0.01942770 -0.00289896
v 0.01638450 -0.01971827 -0.00289896
v 0.01526596 -0.01905182 -0.00343058
v 0.01574620 -0.01918245 -0.00370544
v 0.01546657 -0.01895585 -0.00397043
v 0.01384346 -0.01814812 -0.00399841
v 0.01438450 -0.01828408 -0.00428314
v 0.01276444 -0.01747368 -0.00428644
v 0.01303495 -0.01733772 -0.00482464
v 0.01198024 -0.01665795 -0.00503696
v 0.01257599 -0.01677524 -0.00531511
v 0.01288298 -0.01660996 -0.00575950
v 0.01334498 -0.01613279 -0.00628289
v 0.01414742 -0.01597017 -0.00667297
v 0.01494681 -0.01622076 -0.00677666
v 0.01174620 -0.01457597 -0.00673057
v 0.01252735 -0.01455464 -0.00695112
v 0.00011700 -0.00678920 -0.00730334
v -0.00004713 -0.00661593 -0.00734284
v -0.00084652 -0.00608011 -0.00736424
v -0.00041795 -0.00621606 -0.00743007
v 0.01090729 -0.01428006 -0.00662853
v 0.01481611 -0.01674592 -0.00640140
v 0.01308359 -0.01569293 -0.00649356
v 0.01467021 -0.01651666 -0.00650179
v 0.01362158 -0.01583422 -0.00658573
v -0.00116263 -0.00559493 -0.00743501
v -0.00119607 -0.00519240 -0.00755351
v -0.00283437 -0.00343298 -0.00762593
v -0.00157297 -0.00519240 -0.00743666
v -0.00344531 -0.00343298 -0.00740703
v -0.00360337 -0.00397947 -0.00715027
v -0.00167023 -0.00528304 -0.00736917
v -0.00546355 -0.00519240 -0.00556693
v -0.00528422 -0.00565625 -0.00532993
v -0.00460641 -0.00585885 -0.00557845
v -0.00370975 -0.00617341 -0.00585825
v -0.00370975 -0.00619473 -0.00584015
v -0.00263072 -0.00695715 -0.00584179
v 0.00077658 -0.00931104 -0.00574469
v 0.00231457 -0.01097982 -0.00500075
v -0.00340276 -0.00536034 -0.00661371
v -0.00250306 -0.00610143 -0.00657257
v -0.00392251 -0.00519240 -0.00646723
v -0.00453346 -0.00486717 -0.00636848
v -0.00496507 -0.00532036 -0.00578748
v -0.00004409 -0.01093717 0.00032698
v -0.00001370 -0.01091851 0.00075490
v 0.00156685 -0.01174757 0.00168154
v 0.00200454 -0.01196350 0.00200084
v 0.00164892 -0.01169692 0.00221809
v 0.00223859 -0.01196350 0.00276288
v -0.00644835 -0.00683452 0.00062653
v 0.00406534 -0.01251798 -0.00407905
v 0.00488601 -0.01339236 -0.00326599
v 0.00964893 -0.01579956 -0.00416299
v 0.01222340 -0.01733772 -0.00394903
v 0.00470060 -0.01339236 -0.00290060
v 0.00299239 -0.01266993 -0.00127941
v 0.00179482 -0.01196350 -0.00127941
v 0.00149694 -0.01178755 -0.00127776
v 0.00457294 -0.01350165 -0.00208754
v 0.00562765 -0.01416810 -0.00176165
v -0.00005321 -0.01093983 -0.00046634
v -0.00632677 -0.00674389 0.00114169
v -0.00586173 -0.00617874 0.00357101
v -0.00484653 -0.00198279 0.00720512
v -0.00312312 -0.00425404 0.00717879
v -0.00258209 -0.00459260 0.00724627
v -0.00206537 -0.00485384 0.00732033
v -0.00122646 -0.00565891 0.00734502
v -0.00190731 -0.00519240 0.00728577
v -0.00181309 -0.00538700 0.00726437
v -0.00541492 -0.00585885 0.00457829
v -0.00000761 -0.01010544 0.00396931
v -0.00075230 -0.00925239 0.00469844
v -0.00519911 -0.00561626 0.00496672
v -0.00484653 -0.00522705 0.00557570
v -0.00475230 -0.00426737 0.00632622
v -0.00447571 -0.00401146 0.00662742
v 0.00118995 -0.00731436 0.00739604
v 0.00201062 -0.00792483 0.00733185
v -0.00059120 -0.00671989 0.00712283
v -0.00005625 -0.00689850 0.00722652
v -0.00025078 -0.00661593 0.00729071
v -0.00036020 -0.00645865 0.00732527
v -0.00235716 -0.00513375 0.00718208
v -0.00149698 -0.00592816 0.00714587
v 0.00039056 -0.00661593 0.00746023
v 0.01415653 -0.01532772 0.00704382
v 0.00144831 -0.00776755 0.00725614
v 0.00201062 -0.00833003 0.00713599
v 0.00125682 -0.00807945 0.00703889
v 0.01252735 -0.01523442 0.00657968
v 0.01421429 -0.01617544 0.00658298
v 0.01452432 -0.01659397 0.00641180
v 0.01398936 -0.01644468 0.00630976
v 0.01138753 -0.01491452 0.00637560
v 0.01090729 -0.01477324 0.00626697
v 0.01186170 -0.01592219 0.00574358
v 0.01032066 -0.01506914 0.00571230
v 0.01132066 -0.01576757 0.00558722
v 0.01042097 -0.01581822 0.00484822
v 0.01198024 -0.01665261 0.00489265
v 0.01144529 -0.01650866 0.00464413
v 0.01171276 -0.01677791 0.00437585
v 0.01103495 -0.01673525 0.00357101
v 0.01207447 -0.01742036 0.00324183
v 0.01225380 -0.01732173 0.00378004
v 0.00964589 -0.01580223 0.00404173
v 0.01252431 -0.01755632 0.00353480
v 0.01309270 -0.01811346 0.00276124
v 0.01296200 -0.01818278 0.00215884
v 0.01452736 -0.01902250 0.00163545
v 0.01421429 -0.01883323 0.00192513
v 0.01571277 -0.01964896 0.00114333
v 0.01566110 -0.01968095 0.00033191
v 0.01495289 -0.01935839 -0.00047128
v 0.01613830 -0.01983023 -0.00128270
v 0.01573404 -0.01965429 -0.00128270
v 0.01439970 -0.01908914 -0.00047128
v 0.01399240 -0.01887588 -0.00047128
v 0.01405015 -0.01884656 -0.00128270
v 0.01339666 -0.01839071 -0.00208918
v 0.01350000 -0.01832939 -0.00289896
v 0.01452128 -0.01902250 -0.00178140
v 0.01361854 -0.01826275 -0.00345856
v 0.01171276 -0.01679124 -0.00451850
v 0.01250912 -0.01721243 -0.00453990
v 0.01144225 -0.01650866 -0.00478514
v 0.01131459 -0.01577024 -0.00573317
v 0.01149696 -0.01485854 -0.00647052
v 0.01203799 -0.01500782 -0.00657586
v 0.01252735 -0.01513845 -0.00665486
v -0.00042403 -0.00661593 -0.00719965
v 0.01073404 -0.01422941 -0.00659726
v -0.00094075 -0.00617341 -0.00726219
v -0.00248786 -0.00448063 -0.00736917
v -0.00366719 -0.00564025 -0.00628125
v -0.00283437 -0.00645332 -0.00613805
v -0.00226294 -0.00661593 -0.00633391
v -0.00159728 -0.00684519 -0.00652484
v -0.00061856 -0.00756495 -0.00644583
v -0.00137236 -0.00661593 -0.00677830
v -0.00304105 -0.00590150 -0.00643267
v -0.00416872 -0.00519240 -0.00633227
v -0.00446963 -0.00519240 -0.00616274
v 0.00169755 -0.01196350 -0.00047128
v 0.00286777 -0.01263794 -0.00047128
v 0.00862765 -0.01591952 0.00033356
v 0.00867325 -0.01589553 0.00114333
v 0.00363069 -0.01293384 0.00194982
v 0.00311701 -0.01263794 0.00194982
v 0.00267628 -0.01238202 0.00194982
v 0.00314740 -0.01257929 0.00255056
v 0.00229330 -0.01180888 0.00334388
v 0.00285257 -0.01234470 0.00279580
v 0.00325986 -0.01251531 0.00308548
v -0.00592252 -0.00702113 0.00114169
v 0.01206535 -0.01742303 -0.00341083
v 0.01121124 -0.01664195 -0.00424858
v 0.00883434 -0.01580223 -0.00259447
v 0.00449695 -0.01354964 -0.00127941
v 0.00712917 -0.01504248 -0.00127941
v 0.00567628 -0.01422941 -0.00127941
v 0.01309574 -0.01811080 -0.00289896
v 0.01325988 -0.01841203 -0.00133701
v 0.01288298 -0.01822809 -0.00110330
v -0.00442100 -0.00343298 0.00687430
v -0.00361248 -0.00400346 0.00706193
v -0.00383437 -0.00343298 0.00715739
v -0.00079181 -0.00846065 0.00556911
v 0.00010181 -0.00841533 0.00632622
v 0.00277962 -0.01199815 0.00359734
v 0.00150606 -0.01097716 0.00409440
v 0.00136625 -0.01081721 0.00423101
v 0.00327202 -0.01169692 0.00473959
v 0.00077354 -0.01011877 0.00479884
v -0.00021430 -0.00941767 0.00492063
v -0.00050306 -0.00894849 0.00524323
v -0.00064287 -0.00871657 0.00539959
v -0.00481309 -0.00519240 0.00562507
v -0.00022646 -0.00787418 0.00655335
v -0.00421431 -0.00456327 0.00650397
v 0.00039056 -0.00704245 0.00729235
v 0.00091032 -0.00761293 0.00718372
v 0.00037840 -0.00807945 0.00671300
v 0.00039056 -0.00744765 0.00709978
v -0.00232677 -0.00519240 0.00716233
v 0.00118995 -0.00807945 0.00701584
v 0.01193161 -0.01506647 0.00647764
v 0.01350000 -0.01590619 0.00649739
v 0.00119907 -0.00871390 0.00661260
v 0.00063676 -0.00857528 0.00648752
v 0.00929331 -0.01436804 0.00580941
v 0.01090729 -0.01523975 0.00586043
v 0.00877659 -0.01421609 0.00566622
v 0.00977963 -0.01491452 0.00553455
v 0.00888297 -0.01496517 0.00478896
v 0.00988297 -0.01566361 0.00457829
v 0.00808054 -0.01495984 0.00396931
v 0.00949999 -0.01588220 0.00357101
v 0.01050911 -0.01657531 0.00315296
v 0.01194984 -0.01748701 0.00276124
v 0.01252735 -0.01780690 0.00276124
v 0.01291945 -0.01820677 0.00161899
v 0.01327507 -0.01836405 0.00191361
v 0.00882522 -0.01580756 0.00249625
v 0.00726899 -0.01496517 0.00236622
v 0.01139665 -0.01734305 0.00194982
v 0.01180395 -0.01756964 0.00194982
v 0.01133586 -0.01737771 0.00142149
v 0.01128419 -0.01740703 0.00088164
v 0.01448784 -0.01904116 0.00114333
v 0.01495289 -0.01927575 0.00114333
v 0.01495289 -0.01933440 0.00033191
v 0.01443009 -0.01907048 0.00033191
v 0.01333586 -0.01850800 0.00033191
v 0.01283738 -0.01824942 0.00033191
v 0.01171580 -0.01765228 0.00033191
v 0.01333586 -0.01852133 -0.00047128
v -0.00102889 -0.00706378 -0.00664005
v 0.01049392 -0.01415744 -0.00654788
v -0.00105929 -0.00702379 -0.00665322
v -0.00117783 -0.00661593 -0.00686883
v -0.00037540 -0.00728504 -0.00676020
v 0.00669452 -0.01483188 -0.00047292
v 0.00974316 -0.01655398 0.00033356
v 0.01019300 -0.01676191 0.00114333
v 0.00524771 -0.01385887 0.00194982
v 0.00429330 -0.01319509 0.00275794
v 0.00327506 -0.01263794 0.00262463
v 0.00344224 -0.01240868 0.00357101
v 0.00476139 -0.01339236 0.00303774
v 0.00480394 -0.01336837 0.00321879
v 0.00862461 -0.01591952 -0.00047292
v 0.01131459 -0.01738837 -0.00085641
v 0.01097416 -0.01722043 -0.00054041
v 0.00767932 -0.01538903 -0.00047292
v 0.00709878 -0.01506114 -0.00047292
v 0.01283738 -0.01824942 -0.00047128
v 0.00725379 -0.01336037 0.00560861
v 0.00402278 -0.01254464 0.00399729
v 0.00249087 -0.01168092 0.00388373
v 0.00329330 -0.01196350 0.00427709
v 0.00350607 -0.01196350 0.00450752
v 0.00554558 -0.01339236 0.00410098
v 0.00581002 -0.01325640 0.00462602
v 0.00480698 -0.01255797 0.00481036
v 0.00037840 -0.00811943 0.00668667
v 0.00876443 -0.01422941 0.00564153
v 0.00383129 -0.01263794 0.00357101
v 0.01248176 -0.01801483 0.00114333
v 0.01333586 -0.01845469 0.00114333
v 0.00524771 -0.01373624 0.00275794
v 0.00470060 -0.01342701 0.00275794
v 0.00874619 -0.01585021 0.00195146
v 0.01127203 -0.01741236 0.00033191
v 0.01015045 -0.01678324 0.00033191
v 0.01086778 -0.01718577 0.00033191
v 0.01128723 -0.01740437 -0.00031821
f 1 2 3
f 1 3 4
f 1 4 5
f 1 5 6
f 1 6 7
f 1 7 8
f 1 8 9
f 1 9 10
f 1 10 11
f 1 11 12
f 1 12 2
f 2 13 3
f 2 12 14
f 2 14 15
f 2 15 16
f 2 16 13
f 3 13 17
f 3 17 18
f 3 18 19
f 3 19 4
f 4 19 20
f 4 20 21
f 4 21 5
f 5 21 22
f 5 22 23
f 5 23 6
f 6 23 24
f 6 24 7
f 7 24 8
f 8 24 25
f 8 25 9
f 9 26 27
f 9 27 11
f 9 11 10
f 9 25 28
f 9 28 26
f 11 29 12
f 11 27 30
f 11 30 31
f 11 31 29
f 12 29 14
f 13 32 17
f 13 16 33
f 13 33 34
f 13 34 35
f 13 35 32
f 14 29 36
f 14 36 37
f 14 37 15
f 15 37 16
f 16 37 38
f 16 38 39
f 16 39 33
f 17 32 18
f 18 32 40
f 18 40 41
f 18 41 42
f 18 42 43
f 18 43 19
f 19 43 44
f 19 44 20
f 20 44 45
f 20 45 21
f 21 45 46
f 21 46 47
f 21 47 22
f 22 47 48
f 22 48 49
f 22 49 23
f 23 49 50
f 23 50 24
f 24 51 25
f 24 50 52
f 24 52 51
f 25 51 28
f 26 53 54
f 26 54 55
f 26 55 27
f 26 28 56
f 26 56 53
f 27 55 57
f 27 57 58
f 27 58 59
f 27 59 30
f 28 51 60
f 28 60 56
f 29 31 61
f 29 61 36
f 30 59 58
f 30 58 62
f 30 62 31
f 31 62 63
f 31 63 64
f 31 64 61
f 32 35 65
f 32 65 66
f 32 66 67
f 32 67 68
f 32 68 69
f 32 69 70
f 32 70 71
f 32 71 40
f 33 39 72
f 33 72 73
f 33 73 34
f 34 73 35
f 35 73 74
f 35 74 75
f 35 75 65
f 36 61 37
f 37 61 76
f 37 76 38
f 38 76 77
f 38 77 78
f 38 78 79
f 38 79 39
f 39 79 80
f 39 80 72
f 40 71 81
f 40 81 41
f 41 81 82
f 41 82 42
f 42 82 83
f 42 83 43
f 43 83 84
f 43 84 85
f 43 85 44
f 44 86 87
f 44 87 88
f 44 88 89
f 44 89 45
f 44 85 90
f 44 90 91
f 44 91 86
f 45 89 92
f 45 92 46
f 46 92 93
f 46 93 94
f 46 94 95
f 46 95 96
f 46 96 97
f 46 97 47
f 47 97 48
f 48 97 98
f 48 98 99
f 48 99 49
f 49 99 50
f 50 99 100
f 50 100 101
f 50 101 52
f 51 52 102
f 51 102 60
f 52 101 103
f 52 103 102
f 53 104 54
f 53 56 105
f 53 105 106
f 53 106 107
f 53 107 104
f 54 104 55
f 55 108 109
f 55 109 110
f 55 110 57
f 55 104 111
f 55 111 112
f 55 112 108
f 56 60 113
f 56 113 105
f 57 110 109
f 57 109 114
f 57 114 115
f 57 115 58
f 58 63 62
f 58 115 63
f 60 102 113
f 61 64 77
f 61 77 76
f 63 115 116
f 63 116 117
f 63 117 118
f 63 118 64
f 64 118 119
f 64 119 77
f 65 75 120
f 65 120 66
f 66 120 67
f 67 120 82
f 67 82 68
f 68 82 69
f 69 82 81
f 69 81 70
f 70 81 71
f 72 80 121
f 72 121 73
f 73 121 122
f 73 122 123
f 73 123 74
f 74 123 82
f 74 82 75
f 75 82 120
f 77 119 124
f 77 124 125
f 77 125 126
f 77 126 78
f 78 126 79
f 79 126 80
f 80 126 121
f 82 127 128
f 82 128 129
f 82 129 130
f 82 130 131
f 82 131 132
f 82 132 133
f 82 133 134
f 82 134 135
f 82 135 136
f 82 136 137
f 82 137 138
f 82 138 139
f 82 139 140
f 82 140 141
f 82 141 142
f 82 142 143
f 82 143 144
f 82 144 145
f 82 145 146
f 82 146 147
f 82 147 148
f 82 148 149
f 82 149 150
f 82 150 151
f 82 151 152
f 82 152 153
f 82 153 154
f 82 154 155
f 82 155 156
f 82 156 157
f 82 157 158
f 82 158 159
f 82 159 160
f 82 160 161
f 82 161 162
f 82 162 163
f 82 163 164
f 82 164 165
f 82 165 166
f 82 166 167
f 82 167 168
f 82 168 84
f 82 84 83
f 82 123 122
f 82 122 169
f 82 169 170
f 82 170 124
f 82 124 119
f 82 119 171
f 82 171 127
f 84 168 85
f 85 168 167
f 85 167 90
f 86 172 173
f 86 173 87
f 86 91 174
f 86 174 172
f 87 173 175
f 87 175 176
f 87 176 88
f 88 176 177
f 88 177 89
f 89 177 93
f 89 93 92
f 90 167 91
f 91 167 166
f 91 166 174
f 93 178 179
f 93 179 94
f 93 177 180
f 93 180 181
f 93 181 182
f 93 182 183
f 93 183 178
f 94 179 184
f 94 184 95
f 95 185 96
f 95 184 186
f 95 186 185
f 96 185 187
f 96 187 98
f 96 98 97
f 98 187 189
f 98 189 99
f 99 188 100
f 99 189 188
f 100 188 190
f 100 190 101
f 101 190 191
f 101 191 103
f 102 103 192
f 102 192 193
f 102 193 113
f 103 191 194
f 103 194 195
f 103 195 192
f 104 196 111
f 104 107 197
f 104 197 198
f 104 198 196
f 105 113 199
f 105 199 200
f 105 200 201
f 105 201 106
f 106 201 127
f 106 127 202
f 106 202 107
f 107 202 197
f 108 112 203
f 108 203 109
f 109 203 204
f 109 204 114
f 111 205 206
f 111 206 207
f 111 207 208
f 111 208 209
f 111 209 112
f 111 196 205
f 112 210 211
f 112 211 203
f 112 209 212
f 112 212 213
f 112 213 214
f 112 214 215
f 112 215 210
f 113 193 216
f 113 216 217
f 113 217 218
f 113 218 219
f 113 219 220
f 113 220 199
f 114 204 221
f 114 221 116
f 114 116 115
f 116 221 222
f 116 222 223
f 116 223 117
f 117 223 118
f 118 223 171
f 118 171 119
f 121 126 125
f 121 125 224
f 121 224 225
f 121 225 169
f 121 169 122
f 124 170 125
f 125 170 224
f 127 226 227
f 127 227 228
f 127 228 215
f 127 215 229
f 127 229 214
f 127 214 213
f 127 213 209
f 127 209 208
f 127 208 207
f 127 207 206
f 127 206 205
f 127 205 198
f 127 198 197
f 127 197 202
f 127 201 200
f 127 200 199
f 127 199 220
f 127 220 230
f 127 230 231
f 127 231 232
f 127 232 233
f 127 233 234
f 127 234 128
f 127 171 235
f 127 235 226
f 128 234 236
f 128 236 129
f 129 236 237
f 129 237 130
f 130 237 131
f 131 237 238
f 131 238 239
f 131 239 132
f 132 239 240
f 132 240 133
f 133 240 241
f 133 241 134
f 134 241 242
f 134 242 243
f 134 243 244
f 134 244 245
f 134 245 246
f 134 246 135
f 135 246 136
f 136 246 137
f 137 246 247
f 137 247 138
f 138 247 248
f 138 248 249
f 138 249 139
f 139 250 140
f 139 249 251
f 139 251 252
f 139 252 250
f 140 250 253
f 140 253 141
f 141 253 142
f 142 254 143
f 142 253 255
f 142 255 256
f 142 256 254
f 143 254 144
f 144 254 257
f 144 257 258
f 144 258 145
f 145 258 146
f 146 258 259
f 146 259 260
f 146 260 147
f 147 260 261
f 147 261 262
f 147 262 148
f 148 262 263
f 148 263 264
f 148 264 265
f 148 265 149
f 149 265 150
f 150 265 266
f 150 266 151
f 151 266 267
f 151 267 268
f 151 268 152
f 152 268 153
f 153 268 269
f 153 269 270
f 153 270 271
f 153 271 154
f 154 271 272
f 154 272 155
f 155 272 273
f 155 273 274
f 155 274 156
f 156 274 275
f 156 275 276
f 156 276 277
f 156 277 278
f 156 278 157
f 157 278 158
f 158 278 159
f 159 278 279
f 159 279 280
f 159 280 160
f 160 280 281
f 160 281 282
f 160 282 161
f 161 282 283
f 161 283 162
f 162 283 284
f 162 284 163
f 163 284 398
f 163 398 285
f 163 285 164
f 164 285 286
f 164 286 165
f 165 286 166
f 166 286 287
f 166 287 288
f 166 288 174
f 169 225 170
f 170 225 224
f 171 223 235
f 172 289 173
f 172 174 288
f 172 288 289
f 173 290 291
f 173 291 292
f 173 292 175
f 173 289 290
f 175 292 293
f 175 293 294
f 175 294 176
f 176 294 295
f 176 295 177
f 177 295 296
f 177 296 180
f 178 183 179
f 179 297 184
f 179 183 298
f 179 298 299
f 179 299 297
f 180 296 300
f 180 300 181
f 181 301 302
f 181 302 303
f 181 303 182
f 181 300 301
f 182 303 183
f 183 303 304
f 183 304 305
f 183 305 306
f 183 306 298
f 184 297 186
f 185 307 189
f 185 189 187
f 185 186 308
f 185 308 309
f 185 309 307
f 186 297 308
f 188 189 190
f 189 307 190
f 190 307 191
f 191 307 309
f 191 309 310
f 191 310 194
f 192 311 193
f 192 195 312
f 192 312 311
f 193 311 216
f 194 310 195
f 195 310 313
f 195 313 314
f 195 314 315
f 195 315 316
f 195 316 317
f 195 317 312
f 196 198 205
f 203 211 318
f 203 318 319
f 203 319 204
f 204 319 320
f 204 320 221
f 209 213 212
f 210 215 211
f 211 215 228
f 211 228 318
f 214 229 215
f 216 311 321
f 216 321 322
f 216 322 323
f 216 323 324
f 216 324 325
f 216 325 326
f 216 326 217
f 217 326 327
f 217 327 218
f 218 328 329
f 218 329 330
f 218 330 331
f 218 331 332
f 218 332 219
f 218 327 333
f 218 333 334
f 218 334 328
f 219 332 230
f 219 230 220
f 221 320 222
f 222 320 335
f 222 335 336
f 222 336 223
f 223 336 235
f 226 235 336
f 226 336 227
f 227 336 335
f 227 335 228
f 228 335 318
f 230 332 337
f 230 337 231
f 231 337 331
f 231 331 338
f 231 338 339
f 231 339 340
f 231 340 341
f 231 341 232
f 232 341 233
f 233 341 342
f 233 342 234
f 234 342 343
f 234 343 236
f 236 344 237
f 236 343 345
f 236 345 344
f 237 344 346
f 237 346 238
f 238 346 347
f 238 347 239
f 239 347 348
f 239 348 349
f 239 349 241
f 239 241 240
f 241 349 350
f 241 350 242
f 242 350 243
f 243 351 244
f 243 350 352
f 243 352 353
f 243 353 354
f 243 354 355
f 243 355 356
f 243 356 351
f 244 357 246
f 244 246 245
f 244 351 357
f 246 357 247
f 247 357 248
f 248 358 359
f 248 359 360
f 248 360 361
f 248 361 251
f 248 251 362
f 248 362 249
f 248 357 358
f 249 362 251
f 250 252 363
f 250 363 255
f 250 255 253
f 251 361 360
f 251 360 364
f 251 364 365
f 251 365 252
f 252 365 366
f 252 366 363
f 254 367 368
f 254 368 258
f 254 258 369
f 254 369 257
f 254 256 367
f 255 363 370
f 255 370 256
f 256 371 367
f 256 370 372
f 256 372 373
f 256 373 371
f 257 369 258
f 258 368 374
f 258 374 375
f 258 375 376
f 258 376 377
f 258 377 259
f 259 377 378
f 259 378 379
f 259 379 260
f 260 379 261
f 261 379 262
f 262 379 263
f 263 380 265
f 263 265 264
f 263 379 378
f 263 378 381
f 263 381 380
f 265 382 383
f 265 383 266
f 265 380 384
f 265 384 385
f 265 385 386
f 265 386 382
f 266 383 267
f 267 383 269
f 267 269 268
f 269 383 270
f 270 383 382
f 270 382 387
f 270 387 271
f 271 387 273
f 271 273 272
f 273 387 388
f 273 388 275
f 273 275 274
f 275 388 389
f 275 389 276
f 276 390 277
f 276 389 390
f 277 390 279
f 277 279 278
f 279 390 391
f 279 391 280
f 280 391 281
f 281 391 392
f 281 392 393
f 281 393 282
f 282 393 394
f 282 394 395
f 282 395 283
f 283 395 396
f 283 396 284
f 284 396 397
f 284 397 398
f 285 398 286
f 286 398 397
f 286 397 287
f 287 397 399
f 287 399 289
f 287 289 288
f 289 400 401
f 289 401 290
f 289 399 400
f 290 402 403
f 290 403 404
f 290 404 405
f 290 405 291
f 290 401 400
f 290 400 406
f 290 406 402
f 291 405 407
f 291 407 408
f 291 408 409
f 291 409 293
f 291 293 292
f 293 409 410
f 293 410 411
f 293 411 294
f 294 411 295
f 295 411 300
f 295 300 296
f 297 412 413
f 297 413 308
f 297 299 412
f 298 414 315
f 298 315 299
f 298 306 415
f 298 415 416
f 298 416 417
f 298 417 418
f 298 418 414
f 299 315 314
f 299 314 419
f 299 419 412
f 300 411 301
f 301 420 421
f 301 421 302
f 301 411 422
f 301 422 420
f 302 421 423
f 302 423 424
f 302 424 303
f 303 424 304
f 304 424 305
f 305 424 535
f 305 535 425
f 305 425 426
f 305 426 306
f 306 426 427
f 306 427 415
f 308 413 313
f 308 313 309
f 309 313 310
f 311 312 428
f 311 428 429
f 311 429 321
f 312 317 316
f 312 316 430
f 312 430 431
f 312 431 432
f 312 432 433
f 312 433 434
f 312 434 435
f 312 435 428
f 313 413 419
f 313 419 314
f 315 414 436
f 315 436 437
f 315 437 316
f 316 431 430
f 316 437 438
f 316 438 439
f 316 439 440
f 316 440 441
f 316 441 442
f 316 442 431
f 318 335 319
f 319 335 320
f 321 323 322
f 321 429 323
f 323 429 443
f 323 443 324
f 324 443 444
f 324 444 325
f 325 444 445
f 325 445 446
f 325 446 326
f 326 446 327
f 327 446 447
f 327 447 448
f 327 448 449
f 327 449 334
f 327 334 333
f 328 334 329
f 329 334 330
f 330 450 451
f 330 451 452
f 330 452 331
f 330 334 450
f 331 337 332
f 331 452 451
f 331 451 338
f 334 449 453
f 334 453 450
f 338 451 339
f 339 451 454
f 339 454 455
f 339 455 456
f 339 456 340
f 340 456 341
f 341 456 343
f 341 343 342
f 343 457 455
f 343 455 458
f 343 458 459
f 343 459 345
f 343 456 457
f 344 460 346
f 344 345 460
f 345 459 461
f 345 461 462
f 345 462 463
f 345 463 464
f 345 464 460
f 346 460 464
f 346 464 463
f 346 463 465
f 346 465 347
f 347 465 348
f 348 466 467
f 348 467 349
f 348 465 466
f 349 467 350
f 350 467 468
f 350 468 352
f 351 356 358
f 351 358 357
f 352 468 353
f 353 468 469
f 353 469 354
f 354 470 471
f 354 471 355
f 354 469 470
f 355 472 473
f 355 473 356
f 355 471 474
f 355 474 472
f 356 473 358
f 358 473 359
f 359 473 475
f 359 475 476
f 359 476 477
f 359 477 360
f 360 477 364
f 363 366 370
f 364 366 365
f 364 477 478
f 364 478 479
f 364 479 480
f 364 480 481
f 364 481 366
f 366 481 482
f 366 482 370
f 367 371 368
f 368 371 373
f 368 373 374
f 370 482 372
f 372 483 373
f 372 482 484
f 372 484 483
f 373 483 374
f 374 483 375
f 375 483 485
f 375 485 486
f 375 486 487
f 375 487 376
f 376 488 378
f 376 378 377
f 376 487 489
f 376 489 490
f 376 490 491
f 376 491 488
f 378 488 381
f 380 381 492
f 380 492 384
f 381 488 493
f 381 493 494
f 381 494 495
f 381 495 492
f 382 386 496
f 382 496 497
f 382 497 388
f 382 388 387
f 384 495 498
f 384 498 499
f 384 499 500
f 384 500 501
f 384 501 502
f 384 502 503
f 384 503 385
f 384 492 495
f 385 503 496
f 385 496 386
f 388 504 505
f 388 505 506
f 388 506 507
f 388 507 508
f 388 508 389
f 388 497 509
f 388 509 510
f 388 510 511
f 388 511 504
f 389 508 391
f 389 391 390
f 391 508 512
f 391 512 392
f 392 394 393
f 392 512 394
f 394 396 395
f 394 512 513
f 394 513 514
f 394 514 515
f 394 515 516
f 394 516 517
f 394 517 518
f 394 518 396
f 396 518 399
f 396 399 397
f 399 518 406
f 399 406 400
f 402 519 520
f 402 520 403
f 402 406 521
f 402 521 519
f 403 520 522
f 403 522 523
f 403 523 404
f 404 523 524
f 404 524 405
f 405 524 407
f 406 519 521
f 406 518 519
f 407 524 525
f 407 525 408
f 408 525 526
f 408 526 410
f 408 410 409
f 410 527 422
f 410 422 411
f 410 526 527
f 412 419 413
f 414 418 436
f 415 427 416
f 416 427 528
f 416 528 417
f 417 528 418
f 418 528 438
f 418 438 437
f 418 437 436
f 420 529 530
f 420 530 531
f 420 531 421
f 420 422 526
f 420 526 532
f 420 532 533
f 420 533 529
f 421 531 534
f 421 534 423
f 422 527 526
f 423 534 535
f 423 535 424
f 425 536 537
f 425 537 427
f 425 427 426
f 425 535 538
f 425 538 539
f 425 539 540
f 425 540 536
f 427 537 541
f 427 541 542
f 427 542 543
f 427 543 544
f 427 544 438
f 427 438 545
f 427 545 528
f 428 435 429
f 429 435 546
f 429 546 547
f 429 547 443
f 431 442 548
f 431 548 432
f 432 548 433
f 433 548 654
f 433 654 549
f 433 549 434
f 434 546 435
f 434 549 546
f 438 528 545
f 438 544 550
f 438 550 439
f 439 550 551
f 439 551 552
f 439 552 440
f 440 552 553
f 440 553 441
f 441 553 554
f 441 554 442
f 442 554 555
f 442 555 548
f 443 547 444
f 444 547 445
f 445 547 556
f 445 556 557
f 445 557 558
f 445 558 447
f 445 447 446
f 447 558 448
f 448 558 449
f 449 558 453
f 450 559 451
f 450 453 560
f 450 560 559
f 451 559 454
f 453 561 562
f 453 562 563
f 453 563 564
f 453 564 560
f 453 558 561
f 454 559 455
f 455 559 565
f 455 565 566
f 455 566 458
f 455 457 456
f 458 566 567
f 458 567 459
f 459 567 568
f 459 568 461
f 461 568 569
f 461 569 570
f 461 570 462
f 462 570 571
f 462 571 572
f 462 572 463
f 463 572 573
f 463 573 574
f 463 574 575
f 463 575 466
f 463 466 465
f 466 575 467
f 467 575 468
f 468 574 576
f 468 576 469
f 468 575 574
f 469 576 577
f 469 577 470
f 470 577 578
f 470 578 471
f 471 578 579
f 471 579 580
f 471 580 581
f 471 581 582
f 471 582 583
f 471 583 474
f 472 474 583
f 472 583 473
f 473 583 475
f 475 584 476
f 475 583 585
f 475 585 584
f 476 584 586
f 476 586 477
f 477 586 584
f 477 584 587
f 477 587 478
f 478 587 479
f 479 588 480
f 479 587 589
f 479 589 590
f 479 590 591
f 479 591 588
f 480 588 592
f 480 592 593
f 480 593 481
f 481 593 482
f 482 594 484
f 482 593 594
f 483 484 485
f 484 594 595
f 484 595 596
f 484 596 597
f 484 597 598
f 484 598 485
f 485 598 599
f 485 599 486
f 486 599 487
f 487 490 489
f 487 599 600
f 487 600 601
f 487 601 602
f 487 602 490
f 488 491 493
f 490 602 601
f 490 601 603
f 490 603 604
f 490 604 491
f 491 604 494
f 491 494 493
f 494 603 605
f 494 605 606
f 494 606 607
f 494 607 498
f 494 498 495
f 494 604 603
f 496 503 608
f 496 608 609
f 496 609 509
f 496 509 497
f 498 607 499
f 499 607 606
f 499 606 610
f 499 610 611
f 499 611 612
f 499 612 500
f 500 612 613
f 500 613 501
f 501 503 502
f 501 613 608
f 501 608 503
f 504 506 505
f 504 511 506
f 506 511 614
f 506 614 615
f 506 615 507
f 507 615 508
f 508 615 616
f 508 616 617
f 508 617 618
f 508 618 512
f 509 609 510
f 510 612 511
f 510 609 612
f 511 612 619
f 511 619 620
f 511 620 614
f 512 618 513
f 513 618 514
f 514 618 617
f 514 617 616
f 514 616 621
f 514 621 622
f 514 622 515
f 515 622 623
f 515 623 516
f 516 623 624
f 516 624 625
f 516 625 517
f 517 625 626
f 517 626 519
f 517 519 518
f 519 626 627
f 519 627 628
f 519 628 629
f 519 629 630
f 519 630 631
f 519 631 522
f 519 522 520
f 522 631 632
f 522 632 533
f 522 533 532
f 522 532 633
f 522 633 523
f 523 633 526
f 523 526 525
f 523 525 524
f 526 633 532
f 529 533 632
f 529 632 634
f 529 634 635
f 529 635 636
f 529 636 530
f 530 636 637
f 530 637 638
f 530 638 531
f 531 638 534
f 534 638 535
f 535 639 640
f 535 640 538
f 535 638 641
f 535 641 639
f 536 540 642
f 536 642 537
f 537 642 643
f 537 643 541
f 538 640 644
f 538 644 539
f 539 644 645
f 539 645 540
f 540 645 646
f 540 646 647
f 540 647 642
f 541 648 649
f 541 649 650
f 541 650 550
f 541 550 543
f 541 543 542
f 541 643 651
f 541 651 648
f 543 550 544
f 546 549 547
f 547 652 558
f 547 558 557
f 547 557 556
f 547 549 653
f 547 653 652
f 548 555 654
f 549 654 555
f 549 555 655
f 549 655 653
f 550 650 551
f 551 656 657
f 551 657 552
f 551 650 656
f 552 658 659
f 552 659 660
f 552 660 661
f 552 661 662
f 552 662 663
f 552 663 664
f 552 664 665
f 552 665 553
f 552 657 658
f 553 665 554
f 554 665 555
f 555 665 655
f 558 666 667
f 558 667 668
f 558 668 561
f 558 652 653
f 558 653 666
f 559 560 562
f 559 562 669
f 559 669 565
f 560 564 563
f 560 563 562
f 561 670 562
f 561 668 670
f 562 670 671
f 562 671 672
f 562 672 673
f 562 673 669
f 565 669 673
f 565 673 566
f 566 673 674
f 566 674 567
f 567 674 675
f 567 675 676
f 567 676 568
f 568 676 569
f 569 571 570
f 569 676 677
f 569 677 678
f 569 678 679
f 569 679 571
f 571 679 680
f 571 680 572
f 572 680 681
f 572 681 573
f 573 681 682
f 573 682 683
f 573 683 684
f 573 684 576
f 573 576 574
f 576 684 685
f 576 685 579
f 576 579 577
f 577 579 578
f 579 685 686
f 579 686 687
f 579 687 580
f 580 688 581
f 580 687 688
f 581 688 582
f 582 688 689
f 582 689 585
f 582 585 583
f 584 585 589
f 584 589 587
f 585 590 589
f 585 689 690
f 585 690 691
f 585 691 692
f 585 692 590
f 588 591 693
f 588 693 592
f 590 694 591
f 590 692 695
f 590 695 696
f 590 696 694
f 591 694 693
f 592 693 697
f 592 697 698
f 592 698 596
f 592 596 595
f 592 595 594
f 592 594 593
f 596 698 810
f 596 810 699
f 596 699 597
f 597 700 598
f 597 699 701
f 597 701 700
f 598 700 600
f 598 600 599
f 600 701 702
f 600 702 703
f 600 703 704
f 600 704 601
f 600 700 701
f 601 704 705
f 601 705 603
f 603 705 605
f 605 705 706
f 605 706 707
f 605 707 606
f 606 707 610
f 608 613 612
f 608 612 609
f 610 707 708
f 610 708 709
f 610 709 710
f 610 710 611
f 611 711 612
f 611 710 712
f 611 712 711
f 612 711 713
f 612 713 714
f 612 714 715
f 612 715 619
f 614 620 716
f 614 716 615
f 615 716 717
f 615 717 718
f 615 718 719
f 615 719 616
f 616 719 720
f 616 720 721
f 616 721 722
f 616 722 621
f 619 715 723
f 619 723 724
f 619 724 620
f 620 724 725
f 620 725 716
f 621 722 726
f 621 726 727
f 621 727 728
f 621 728 624
f 621 624 622
f 622 624 623
f 624 728 625
f 625 728 627
f 625 627 626
f 627 728 727
f 627 727 628
f 628 727 629
f 629 729 630
f 629 727 729
f 630 729 730
f 630 730 731
f 630 731 631
f 631 731 732
f 631 732 733
f 631 733 734
f 631 734 735
f 631 735 632
f 632 735 634
f 634 735 635
f 635 736 737
f 635 737 636
f 635 735 734
f 635 734 738
f 635 738 736
f 636 737 739
f 636 739 637
f 637 739 641
f 637 641 638
f 639 740 640
f 639 641 741
f 639 741 740
f 640 740 742
f 640 742 743
f 640 743 644
f 641 739 737
f 641 737 744
f 641 744 745
f 641 745 741
f 642 647 643
f 643 746 651
f 643 647 746
f 644 743 747
f 644 747 748
f 644 748 646
f 644 646 645
f 646 748 749
f 646 749 750
f 646 750 751
f 646 751 752
f 646 752 753
f 646 753 754
f 646 754 755
f 646 755 647
f 647 755 756
f 647 756 746
f 648 651 649
f 649 651 657
f 649 657 656
f 649 656 650
f 651 746 757
f 651 757 758
f 651 758 759
f 651 759 657
f 653 655 760
f 653 760 761
f 653 761 762
f 653 762 666
f 655 665 760
f 657 759 763
f 657 763 658
f 658 763 764
f 658 764 659
f 659 764 765
f 659 765 660
f 660 765 661
f 661 765 764
f 661 764 766
f 661 766 767
f 661 767 662
f 662 767 768
f 662 768 769
f 662 769 770
f 662 770 663
f 663 770 664
f 664 770 771
f 664 771 772
f 664 772 773
f 664 773 774
f 664 774 665
f 665 774 760
f 666 762 667
f 667 670 668
f 667 762 670
f 670 775 671
f 670 762 776
f 670 776 777
f 670 777 778
f 670 778 775
f 671 775 672
f 672 775 675
f 672 675 779
f 672 779 673
f 673 779 675
f 673 675 674
f 675 780 781
f 675 781 678
f 675 678 677
f 675 677 676
f 675 775 780
f 678 781 679
f 679 781 680
f 680 781 782
f 680 782 783
f 680 783 784
f 680 784 681
f 681 784 682
f 682 784 783
f 682 783 683
f 683 783 785
f 683 785 686
f 683 686 684
f 684 686 685
f 686 785 687
f 687 786 787
f 687 787 788
f 687 788 789
f 687 789 790
f 687 790 791
f 687 791 688
f 687 785 786
f 688 791 690
f 688 690 689
f 690 791 792
f 690 792 793
f 690 793 794
f 690 794 691
f 691 795 692
f 691 794 796
f 691 796 797
f 691 797 798
f 691 798 795
f 692 795 799
f 692 799 800
f 692 800 801
f 692 801 802
f 692 802 695
f 693 694 803
f 693 803 697
f 694 696 804
f 694 804 803
f 695 802 805
f 695 805 806
f 695 806 804
f 695 804 696
f 697 803 807
f 697 807 808
f 697 808 809
f 697 809 698
f 698 809 811
f 698 811 812
f 698 812 810
f 699 810 813
f 699 813 701
f 701 813 702
f 702 813 814
f 702 814 703
f 703 814 815
f 703 815 816
f 703 816 817
f 703 817 818
f 703 818 819
f 703 819 820
f 703 820 821
f 703 821 704
f 704 821 822
f 704 822 705
f 705 822 706
f 706 822 823
f 706 823 824
f 706 824 707
f 707 824 825
f 707 825 826
f 707 826 708
f 708 826 709
f 709 826 827
f 709 827 828
f 709 828 710
f 710 828 712
f 711 712 829
f 711 829 830
f 711 830 713
f 712 828 829
f 713 830 831
f 713 831 714
f 714 723 715
f 714 831 832
f 714 832 723
f 716 725 833
f 716 833 834
f 716 834 717
f 717 834 835
f 717 835 718
f 718 835 719
f 719 835 836
f 719 836 720
f 720 837 838
f 720 838 839
f 720 839 840
f 720 840 721
f 720 836 835
f 720 835 841
f 720 841 837
f 721 840 726
f 721 726 722
f 723 842 724
f 723 832 843
f 723 843 842
f 724 842 843
f 724 843 844
f 724 844 725
f 725 844 845
f 725 845 833
f 726 840 727
f 727 840 839
f 727 839 846
f 727 846 847
f 727 847 730
f 727 730 729
f 730 847 731
f 731 847 846
f 731 846 732
f 732 848 734
f 732 734 733
f 732 846 849
f 732 849 848
f 734 850 738
f 734 848 850
f 736 744 737
f 736 738 851
f 736 851 852
f 736 852 839
f 736 839 744
f 738 850 851
f 740 741 742
f 741 745 742
f 742 745 853
f 742 853 854
f 742 854 855
f 742 855 856
f 742 856 857
f 742 857 858
f 742 858 859
f 742 859 860
f 742 860 743
f 743 860 747
f 744 861 862
f 744 862 863
f 744 863 864
f 744 864 865
f 744 865 853
f 744 853 745
f 744 839 861
f 746 756 866
f 746 866 867
f 746 867 868
f 746 868 869
f 746 869 870
f 746 870 871
f 746 871 872
f 746 872 757
f 747 860 873
f 747 873 750
f 747 750 748
f 748 750 749
f 750 874 751
f 750 873 875
f 750 875 876
f 750 876 874
f 751 874 877
f 751 877 752
f 752 878 879
f 752 879 880
f 752 880 753
f 752 877 881
f 752 881 882
f 752 882 878
f 753 880 755
f 753 755 754
f 755 880 879
f 755 879 878
f 755 878 883
f 755 883 756
f 756 883 866
f 757 872 758
f 758 766 764
f 758 764 763
f 758 763 759
f 758 872 884
f 758 884 885
f 758 885 768
f 758 768 766
f 760 886 761
f 760 774 886
f 761 886 887
f 761 887 888
f 761 888 889
f 761 889 762
f 762 890 776
f 762 889 891
f 762 891 892
f 762 892 890
f 766 768 767
f 768 893 770
f 768 770 769
f 768 885 894
f 768 894 895
f 768 895 893
f 770 893 896
f 770 896 897
f 770 897 898
f 770 898 771
f 771 898 899
f 771 899 886
f 771 886 772
f 772 886 773
f 773 886 774
f 775 778 900
f 775 900 901
f 775 901 780
f 776 902 903
f 776 903 904
f 776 904 905
f 776 905 777
f 776 890 892
f 776 892 906
f 776 906 907
f 776 907 902
f 777 908 778
f 777 905 908
f 778 908 900
f 780 909 781
f 780 901 910
f 780 910 911
f 780 911 909
f 781 909 911
f 781 911 912
f 781 912 913
f 781 913 914
f 781 914 782
f 782 914 915
f 782 915 785
f 782 785 783
f 785 915 916
f 785 916 786
f 786 916 917
f 786 917 787
f 787 917 918
f 787 918 919
f 787 919 788
f 788 919 920
f 788 920 921
f 788 921 922
f 788 922 789
f 789 922 923
f 789 923 790
f 790 923 793
f 790 793 792
f 790 792 791
f 793 923 924
f 793 924 794
f 794 924 925
f 794 925 796
f 795 798 799
f 796 925 797
f 797 926 927
f 797 927 928
f 797 928 798
f 797 925 924
f 797 924 929
f 797 929 926
f 798 928 930
f 798 930 799
f 799 930 927
f 799 927 931
f 799 931 800
f 800 931 932
f 800 932 801
f 801 932 802
f 802 932 805
f 803 804 807
f 804 806 807
f 805 933 807
f 805 807 806
f 805 932 934
f 805 934 933
f 807 933 808
f 808 933 935
f 808 935 936
f 808 936 809
f 809 936 937
f 809 937 811
f 810 812 938
f 810 938 813
f 811 939 814
f 811 814 938
f 811 938 812
f 811 937 939
f 813 938 814
f 814 939 815
f 815 939 937
f 815 937 816
f 816 940 941
f 816 941 942
f 816 942 943
f 816 943 944
f 816 944 945
f 816 945 817
f 816 937 940
f 817 945 818
f 818 945 944
f 818 944 819
f 819 944 946
f 819 946 820
f 820 822 821
f 820 946 822
f 822 946 823
f 823 946 824
f 824 946 825
f 825 946 827
f 825 827 826
f 827 876 947
f 827 947 948
f 827 948 828
f 827 946 876
f 828 948 949
f 828 949 829
f 829 949 860
f 829 860 950
f 829 950 831
f 829 831 830
f 831 950 951
f 831 951 832
f 832 951 952
f 832 952 843
f 833 845 953
f 833 953 834
f 834 953 835
f 835 953 952
f 835 952 841
f 837 954 839
f 837 839 838
f 837 841 955
f 837 955 954
f 839 954 956
f 839 956 861
f 839 852 846
f 841 952 955
f 843 845 844
f 843 952 845
f 845 952 953
f 846 852 849
f 848 849 852
f 848 852 957
f 848 957 850
f 850 957 851
f 851 957 852
f 853 865 854
f 854 865 855
f 855 865 856
f 856 958 959
f 856 959 858
f 856 858 857
f 856 865 958
f 858 959 960
f 858 960 961
f 858 961 859
f 859 961 962
f 859 962 950
f 859 950 860
f 860 875 873
f 860 949 875
f 861 956 862
f 862 956 963
f 862 963 961
f 862 961 964
f 862 964 863
f 863 964 958
f 863 958 965
f 863 965 864
f 864 966 865
f 864 965 966
f 865 966 958
f 866 883 967
f 866 967 968
f 866 968 969
f 866 969 970
f 866 970 971
f 866 971 972
f 866 972 973
f 866 973 867
f 867 973 868
f 868 973 974
f 868 974 869
f 869 974 870
f 870 974 871
f 871 975 894
f 871 894 872
f 871 974 976
f 871 976 977
f 871 977 975
f 872 978 884
f 872 894 978
f 874 876 979
f 874 979 877
f 875 949 980
f 875 980 876
f 876 946 979
f 876 980 947
f 877 979 981
f 877 981 881
f 878 882 982
f 878 982 967
f 878 967 883
f 881 981 882
f 882 983 984
f 882 984 982
f 882 981 985
f 882 985 943
f 882 943 986
f 882 986 987
f 882 987 983
f 884 978 894
f 884 894 885
f 886 899 988
f 886 988 989
f 886 989 990
f 886 990 887
f 887 990 989
f 887 989 906
f 887 906 888
f 888 906 891
f 888 891 889
f 891 906 892
f 893 895 991
f 893 991 992
f 893 992 896
f 894 975 993
f 894 993 994
f 894 994 995
f 894 995 895
f 895 995 996
f 895 996 997
f 895 997 998
f 895 998 999
f 895 999 1000
f 895 1000 991
f 896 992 897
f 897 1001 898
f 897 992 1002
f 897 1002 1001
f 898 1001 1003
f 898 1003 899
f 899 1003 906
f 899 906 989
f 899 989 988
f 900 908 905
f 900 905 1004
f 900 1004 1005
f 900 1005 910
f 900 910 901
f 902 907 1002
f 902 1002 1006
f 902 1006 1007
f 902 1007 903
f 903 1007 1005
f 903 1005 1004
f 903 1004 904
f 904 1004 905
f 906 1008 907
f 906 1003 1008
f 907 1008 1003
f 907 1003 1002
f 910 1005 911
f 911 1005 912
f 912 1005 1007
f 912 1007 1009
f 912 1009 1010
f 912 1010 913
f 913 1010 914
f 914 1010 1011
f 914 1011 915
f 915 1011 917
f 915 917 916
f 917 1011 1010
f 917 1010 1009
f 917 1009 1012
f 917 1012 1013
f 917 1013 918
f 918 1013 1014
f 918 1014 1015
f 918 1015 919
f 919 1015 1014
f 919 1014 920
f 920 1014 1016
f 920 1016 921
f 921 1016 1017
f 921 1017 922
f 922 1017 1018
f 922 1018 1019
f 922 1019 924
f 922 924 923
f 924 1019 1020
f 924 1020 929
f 926 929 1020
f 926 1020 1021
f 926 1021 927
f 927 1021 1022
f 927 1022 1023
f 927 1023 1024
f 927 1024 931
f 927 930 928
f 931 1024 932
f 932 1025 1026
f 932 1026 933
f 932 933 934
f 932 1024 1023
f 932 1023 1027
f 932 1027 1028
f 932 1028 1029
f 932 1029 1030
f 932 1030 1031
f 932 1031 1032
f 932 1032 1025
f 933 1033 1034
f 933 1034 935
f 933 1026 1025
f 933 1025 1033
f 935 1034 1035
f 935 1035 936
f 936 1035 940
f 936 940 937
f 940 1035 1036
f 940 1036 1037
f 940 1037 1038
f 940 1038 941
f 941 1038 1039
f 941 1039 1040
f 941 1040 942
f 942 1040 987
f 942 987 986
f 942 986 943
f 943 985 944
f 944 985 946
f 946 985 979
f 947 980 949
f 947 949 948
f 950 962 1041
f 950 1041 1042
f 950 1042 951
f 951 1042 955
f 951 955 952
f 954 1041 1043
f 954 1043 1044
f 954 1044 956
f 954 955 1042
f 954 1042 1045
f 954 1045 1041
f 956 1044 963
f 958 966 965
f 958 964 960
f 958 960 959
f 960 964 961
f 961 963 1044
f 961 1044 1043
f 961 1043 1041
f 961 1041 962
f 967 982 984
f 967 984 968
f 968 984 1046
f 968 1046 969
f 969 1046 1047
f 969 1047 1032
f 969 1032 970
f 970 1032 1048
f 970 1048 1049
f 970 1049 971
f 971 1049 1028
f 971 1028 974
f 971 974 972
f 972 974 973
f 974 1028 1050
f 974 1050 1051
f 974 1051 976
f 975 977 993
f 976 1051 977
f 977 1052 993
f 977 1051 1050
f 977 1050 1053
f 977 1053 1054
f 977 1054 1052
f 979 985 981
f 983 1055 984
f 983 987 1056
f 983 1056 1057
f 983 1057 1055
f 984 1055 1058
f 984 1058 1059
f 984 1059 1046
f 987 1040 1060
f 987 1060 1056
f 991 1000 992
f 992 1013 1002
f 992 1000 999
f 992 999 998
f 992 998 996
f 992 996 1061
f 992 1061 1016
f 992 1016 1013
f 993 1052 1062
f 993 1062 1063
f 993 1063 994
f 994 1063 1064
f 994 1064 996
f 994 996 995
f 996 1064 1065
f 996 1065 1066
f 996 1066 1067
f 996 1067 1068
f 996 1068 1061
f 996 998 997
f 1001 1002 1003
f 1002 1013 1069
f 1002 1069 1006
f 1006 1013 1012
f 1006 1012 1009
f 1006 1009 1007
f 1006 1069 1013
f 1013 1016 1014
f 1016 1070 1017
f 1016 1061 1070
f 1017 1070 1068
f 1017 1068 1018
f 1018 1068 1067
f 1018 1067 1020
f 1018 1020 1019
f 1020 1067 1066
f 1020 1066 1062
f 1020 1062 1052
f 1020 1052 1071
f 1020 1071 1054
f 1020 1054 1021
f 1021 1054 1022
f 1022 1054 1023
f 1023 1054 1053
f 1023 1053 1027
f 1025 1032 1072
f 1025 1072 1073
f 1025 1073 1033
f 1027 1053 1074
f 1027 1074 1028
f 1028 1074 1075
f 1028 1075 1050
f 1028 1049 1048
f 1028 1048 1076
f 1028 1076 1031
f 1028 1031 1029
f 1029 1031 1030
f 1031 1076 1048
f 1031 1048 1032
f 1032 1077 1039
f 1032 1039 1038
f 1032 1038 1072
f 1032 1047 1078
f 1032 1078 1079
f 1032 1079 1077
f 1033 1035 1034
f 1033 1073 1036
f 1033 1036 1035
f 1036 1073 1037
f 1037 1073 1072
f 1037 1072 1038
f 1039 1077 1040
f 1040 1077 1060
f 1041 1045 1042
f 1046 1059 1047
f 1047 1059 1058
f 1047 1058 1078
f 1050 1075 1053
f 1052 1054 1071
f 1053 1075 1074
f 1055 1079 1078
f 1055 1078 1058
f 1055 1057 1080
f 1055 1080 1077
f 1055 1077 1079
f 1056 1060 1057
f 1057 1060 1080
f 1060 1077 1080
f 1061 1068 1070
f 1062 1064 1063
f 1062 1066 1064
f 1064 1066 1065

