# https://github.com/mikedh/trimesh
v 0.03050356 -0.00851250 0.10366557
v 0.03050356 -0.00888012 0.10366557
v 0.03147270 -0.00851562 0.10366557
v 0.03147270 -0.00759033 0.10356807
v 0.03147270 -0.00586127 0.10325064
v 0.02962181 -0.00586127 0.10304658
v 0.02978107 -0.00782399 0.10338668
v 0.03147270 -0.00888947 0.10366557
v 0.02978107 -0.00952190 0.10338668
v 0.02962181 -0.01141297 0.10305565
v 0.03147270 -0.01141297 0.10342069
v 0.03147270 -0.00981475 0.10362022
v 0.03241076 -0.00859662 0.10365877
v 0.03332163 -0.00586127 0.10279717
v 0.03147270 -0.00401070 0.10263845
v 0.02962181 -0.00401070 0.10246613
v 0.02805255 -0.00586127 0.10230515
v 0.02865462 -0.00303246 0.10183127
v 0.02839631 -0.00401070 0.10202626
v 0.02792048 -0.00771184 0.10242759
v 0.03241076 -0.00872747 0.10365877
v 0.02794573 -0.00956240 0.10240945
v 0.02184734 -0.01659393 0.09862748
v 0.02184734 -0.01817657 0.09838941
v 0.02962181 -0.01326042 0.10264752
v 0.03147270 -0.01511099 0.10272234
v 0.03147270 -0.01326042 0.10308512
v 0.03332163 -0.01511099 0.10254549
v 0.03332163 -0.01326042 0.10283798
v 0.03314684 -0.00943155 0.10334587
v 0.03314684 -0.00787384 0.10328012
v 0.03480350 -0.00771184 0.10231195
v 0.03456073 -0.00586127 0.10208975
v 0.03435098 -0.00473348 0.10189929
v 0.03330221 -0.00407301 0.10217818
v 0.03267295 -0.00284865 0.10194010
v 0.03147270 -0.00268665 0.10203080
v 0.02962181 -0.00282684 0.10194917
v 0.02712808 -0.00586127 0.10153198
v 0.02184734 -0.01446609 0.09850278
v 0.02962181 -0.00190156 0.10140047
v 0.02832639 -0.00087658 0.10023731
v 0.02787387 -0.00233460 0.10077241
v 0.02673770 -0.00286734 0.10007406
v 0.02747184 -0.00401070 0.10124402
v 0.03332163 -0.01141297 0.10309646
v 0.02184734 -0.01949128 0.09793367
v 0.03062980 -0.01787126 0.10179726
v 0.03008016 -0.01663443 0.10201493
v 0.02952665 -0.01511410 0.10218498
v 0.03133674 -0.01713601 0.10211923
v 0.03262634 -0.01796472 0.10184714
v 0.03327502 -0.01699582 0.10206027
v 0.03441896 -0.01640077 0.10191743
v 0.03459375 -0.01511099 0.10204667
v 0.03489090 -0.00956240 0.10236183
v 0.03484817 -0.01141297 0.10228474
v 0.03581537 -0.00956240 0.10150477
v 0.03572991 -0.00771184 0.10140500
v 0.03548714 -0.00586127 0.10114199
v 0.03508900 -0.00416648 0.10078828
v 0.03459375 -0.00256514 0.10033254
v 0.03390622 -0.00349666 0.10156826
v 0.03614942 -0.00483318 0.10001057
v 0.03341680 -0.00208848 0.10094019
v 0.03292737 -0.00080804 0.10031440
v 0.03147270 -0.00054323 0.10053207
v 0.03147270 -0.00176136 0.10145715
v 0.02650464 -0.00401070 0.10031894
v 0.02622692 -0.00586127 0.10060689
v 0.02184734 -0.01148774 0.09737816
v 0.02962181 -0.00059619 0.10047312
v 0.02709118 -0.00163363 0.09968861
v 0.02962181 0.00032909 0.09967501
v 0.02827201 0.00092725 0.09847104
v 0.02768160 -0.00024103 0.09907869
v 0.02501889 -0.00316642 0.09805611
v 0.02547724 -0.00387363 0.09898572
v 0.02626964 -0.00221310 0.09905375
v 0.03474330 -0.01326042 0.10217364
v 0.02184734 -0.02065645 0.09716957
v 0.02868569 -0.01974986 0.09995843
v 0.02962181 -0.01994302 0.10013075
v 0.03133674 -0.01867504 0.10134605
v 0.03186113 -0.01796472 0.10184714
v 0.03385961 -0.01763448 0.10171790
v 0.03147270 -0.02012994 0.10031213
v 0.03332163 -0.02003337 0.10023731
v 0.03327502 -0.01867504 0.10123949
v 0.03552016 -0.01511099 0.10132111
v 0.03623294 -0.01811115 0.10006953
v 0.03639219 -0.01696467 0.10023958
v 0.03577458 -0.01141297 0.10147983
v 0.03566971 -0.01326042 0.10140727
v 0.03664079 -0.00956240 0.10057968
v 0.03663496 -0.01141297 0.10055474
v 0.03654562 -0.00771184 0.10047992
v 0.03632227 -0.00586127 0.10021691
v 0.03582702 -0.00359947 0.09961379
v 0.03523660 -0.00205110 0.09912177
v 0.03416065 -0.00133143 0.09986320
v 0.03707001 -0.00586127 0.09902654
v 0.03648736 -0.00413221 0.09900840
v 0.03628343 -0.00277076 0.09838034
v 0.03350614 -0.00016938 0.09918979
v 0.03285357 0.00094906 0.09851638
v 0.03147270 0.00038205 0.09970901
v 0.02478195 -0.00215702 0.09671609
v 0.02425368 -0.00215702 0.09532620
v 0.02184734 -0.00953436 0.09545090
v 0.02703874 0.00039763 0.09785658
v 0.02658622 -0.00083608 0.09845516
v 0.02962181 0.00116091 0.09874765
v 0.02851672 0.00256286 0.09641227
v 0.02777870 0.00152853 0.09713556
v 0.02528108 -0.00215702 0.09764118
v 0.02496645 -0.00118812 0.09630116
v 0.02184734 -0.02147581 0.09638506
v 0.02962181 -0.02086830 0.09922380
v 0.03447722 -0.01987448 0.10008313
v 0.03512590 -0.01876227 0.10041870
v 0.02962181 -0.02173127 0.09829645
v 0.03147270 -0.02105834 0.09929862
v 0.03332163 -0.02096176 0.09915578
v 0.03651455 -0.01511099 0.10039603
v 0.03571243 -0.01934485 0.09971808
v 0.03777113 -0.01942274 0.09792006
v 0.03807799 -0.01818903 0.09824657
v 0.03731666 -0.01696467 0.09929636
v 0.03657864 -0.01326042 0.10048219
v 0.03756720 -0.00956240 0.09939612
v 0.03755943 -0.01141297 0.09948001
v 0.03829162 -0.01141297 0.09855493
v 0.03744096 -0.01511099 0.09938478
v 0.03750311 -0.01326042 0.09945054
v 0.03830328 -0.01326042 0.09852545
v 0.03818675 -0.00956240 0.09847104
v 0.03754778 -0.00761526 0.09895625
v 0.03587946 -0.00153705 0.09775681
v 0.03464425 -0.00076754 0.09862975
v 0.03408685 0.00046617 0.09788152
v 0.03791679 -0.00693298 0.09801529
v 0.03777113 -0.00586127 0.09760717
v 0.03745261 -0.00416648 0.09701765
v 0.03654757 -0.00215702 0.09715369
v 0.03623682 -0.00103547 0.09652337
v 0.03147270 0.00117649 0.09878166
v 0.03330804 0.00151919 0.09714009
v 0.03252729 0.00255039 0.09639866
v 0.03147270 0.00210177 0.09751194
v 0.02478583 -0.00087035 0.09532620
v 0.02184734 0.00017643 0.08456981
v 0.02184734 -0.00074885 0.08571484
v 0.02662700 0.00089298 0.09662313
v 0.02598997 -0.00039680 0.09707887
v 0.02962181 0.00208619 0.09752101
v 0.02684452 0.00246939 0.09440338
v 0.02728345 0.00212981 0.09563683
v 0.02962181 0.00266878 0.09659592
v 0.02962181 0.00326071 0.09532620
v 0.02962181 0.00388691 0.09347376
v 0.02777093 0.00326071 0.09347376
v 0.02784862 0.00274043 0.09514254
v 0.02538402 0.00005493 0.09532620
v 0.02184734 -0.02678450 0.09023143
v 0.02861189 -0.02162847 0.09815133
v 0.03429077 -0.02160354 0.09812186
v 0.03500160 -0.02061284 0.09891997
v 0.03653785 -0.02011748 0.09848237
v 0.03147270 -0.02177178 0.09837354
v 0.03332163 -0.02167208 0.09823069
v 0.03818675 -0.01696467 0.09837127
v 0.03829939 -0.02012371 0.09668662
v 0.03959093 -0.01881523 0.09592025
v 0.03859849 -0.01880900 0.09725346
v 0.03978903 -0.01771860 0.09623088
v 0.03922969 -0.01326042 0.09726706
v 0.03983759 -0.01212952 0.09631250
v 0.03825861 -0.01511099 0.09845970
v 0.03918308 -0.01511099 0.09725119
v 0.03805662 -0.00816669 0.09829191
v 0.03518417 -0.00028465 0.09720131
v 0.03448887 0.00085248 0.09664807
v 0.03972688 -0.01089581 0.09606536
v 0.03996577 -0.00993625 0.09483191
v 0.03811100 -0.00586127 0.09668208
v 0.03796534 -0.00488926 0.09629436
v 0.03780414 -0.00351224 0.09532620
v 0.03721567 -0.00215702 0.09532620
v 0.03643492 -0.00070523 0.09532620
v 0.03574933 0.00022005 0.09532620
v 0.03377416 0.00208931 0.09532620
v 0.03284774 0.00277159 0.09532620
v 0.03147270 0.00382149 0.09347376
v 0.03147270 0.00322644 0.09532620
v 0.03147270 0.00265943 0.09658685
v 0.02511600 0.00044125 0.09399299
v 0.02184734 0.00157526 0.08237047
v 0.02184734 0.00142261 0.08263575
v 0.02184734 0.00084002 0.08364473
v 0.02184734 0.00071229 0.08383065
v 0.02641531 0.00152542 0.09514254
v 0.02671051 0.00260647 0.09347376
v 0.02184734 0.00253170 0.08050443
v 0.03064145 0.00433553 0.09092070
v 0.03039479 0.00433553 0.09092070
v 0.02971504 0.00420780 0.09157371
v 0.02777093 0.00359718 0.09162586
v 0.02184734 -0.02732970 0.08932448
v 0.03501326 -0.02185278 0.09715369
v 0.03638054 -0.02173439 0.09652110
v 0.03552404 -0.02135119 0.09775455
v 0.03707583 -0.02073745 0.09722172
v 0.03924329 -0.01704567 0.09701538
v 0.03990750 -0.01989006 0.09459384
v 0.03761381 -0.02135742 0.09584316
v 0.03880824 -0.02062218 0.09521963
v 0.04012503 -0.01881523 0.09499516
v 0.04112135 -0.01696467 0.09347376
v 0.04022019 -0.01704567 0.09549852
v 0.03982788 -0.01648489 0.09629210
v 0.03984924 -0.01511099 0.09632611
v 0.03985701 -0.01326042 0.09634198
v 0.04034449 -0.01326042 0.09532620
v 0.04105338 -0.01326042 0.09347376
v 0.04011143 -0.01147528 0.09539875
v 0.03482292 0.00116403 0.09532620
v 0.03978126 -0.00870254 0.09433082
v 0.03914229 -0.00771184 0.09532620
v 0.04078342 -0.01141297 0.09347376
v 0.03859072 -0.00586127 0.09532620
v 0.03813043 -0.00443752 0.09532620
v 0.03794980 -0.00308542 0.09439884
v 0.03811489 -0.00278946 0.09316313
v 0.03765265 -0.00216637 0.09365741
v 0.03657476 -0.00019119 0.09344655
v 0.03600959 0.00050355 0.09404514
v 0.03410238 0.00234477 0.09390456
v 0.03342068 0.00295851 0.09336266
v 0.03134451 0.00414238 0.09157371
v 0.03332163 0.00327006 0.09162586
v 0.02184734 0.00227935 0.08104406
v 0.02184734 0.00214227 0.08130254
v 0.03039479 0.00433553 0.09060101
v 0.02962181 0.00268436 0.08050443
v 0.02184734 -0.02707424 0.08050443
v 0.03064145 0.00433553 0.09060101
v 0.02184734 -0.02738890 0.08894356
v 0.02326706 -0.02718016 0.08891636
v 0.03517251 -0.02246029 0.09532620
v 0.03808576 -0.02168143 0.09460744
v 0.03700786 -0.02192755 0.09526498
v 0.03929961 -0.02112065 0.09347376
v 0.04012503 -0.02019537 0.09347376
v 0.04076594 -0.01881523 0.09347376
v 0.04153698 -0.01687743 0.09152156
v 0.04112524 -0.01511099 0.09347376
v 0.04035809 -0.01511099 0.09532620
v 0.04153504 -0.01520756 0.09152156
v 0.04137190 -0.01326042 0.09162586
v 0.04111164 -0.01141297 0.09162586
v 0.04019300 -0.00941598 0.09361887
v 0.03995217 -0.00812930 0.09309738
v 0.03916754 -0.00586127 0.09347376
v 0.04065329 -0.00956240 0.09162586
v 0.03842563 -0.00382378 0.09365741
v 0.03891506 -0.00401070 0.09162586
v 0.03825278 -0.00256826 0.09162586
v 0.03770703 -0.00164298 0.09162586
v 0.03615136 0.00068425 0.09280942
v 0.03514532 0.00151607 0.09335586
v 0.03428106 0.00249743 0.09266885
v 0.03134451 0.00408942 0.08990039
v 0.03332163 0.00323267 0.08977342
v 0.03433544 0.00254105 0.09162586
v 0.03431990 0.00252858 0.08977342
v 0.03147270 0.00261893 0.08050443
v 0.02215614 -0.02702128 0.08050443
v 0.02184734 -0.02719574 0.08237047
v 0.03246902 0.00249743 0.08050443
v 0.02184734 -0.02748548 0.08792325
v 0.02221829 -0.02741694 0.08792325
v 0.02334086 -0.02718951 0.08792325
v 0.03248456 -0.02531090 0.08521375
v 0.03702339 -0.02240421 0.09347376
v 0.03837320 -0.02184966 0.09347376
v 0.03950354 -0.02132315 0.09162586
v 0.04028040 -0.02039787 0.09162586
v 0.04110776 -0.01881523 0.09162586
v 0.04166710 -0.01620139 0.09083455
v 0.04166710 -0.01588673 0.09083455
v 0.04135247 -0.01870619 0.08050443
v 0.04134859 -0.00939728 0.08050443
v 0.04114078 -0.00771184 0.08050443
v 0.04083586 -0.00586127 0.08050443
v 0.04083974 -0.00956240 0.08977342
v 0.03976767 -0.00689248 0.09231060
v 0.04035420 -0.00771184 0.08977342
v 0.04006288 -0.00759033 0.09166667
v 0.03966279 -0.00539707 0.08977342
v 0.03975019 -0.00510422 0.08847422
v 0.03983370 -0.00486745 0.08724077
v 0.03957151 -0.00594227 0.09166667
v 0.04021437 -0.00397643 0.08050443
v 0.03979292 -0.00310411 0.08050443
v 0.03689133 -0.00030646 0.09162586
v 0.03620574 0.00075279 0.09162586
v 0.03526185 0.00167807 0.09162586
v 0.03924134 -0.00220999 0.08050443
v 0.03340126 0.00214850 0.08050443
v 0.03631645 0.00075279 0.08050443
v 0.03564446 0.00111106 0.08050443
v 0.03530846 0.00128553 0.08050443
v 0.03827803 -0.00087035 0.08050443
v 0.03709331 0.00016709 0.08050443
v 0.03686608 0.00033844 0.08050443
v 0.02406917 -0.02668170 0.08050443
v 0.02406917 -0.02680320 0.08237047
v 0.02184734 -0.02729855 0.08395082
v 0.02184734 -0.02741694 0.08607308
v 0.02324958 -0.02716459 0.08607308
v 0.02777093 -0.02629227 0.08607308
v 0.02417405 -0.02699324 0.08607308
v 0.02962181 -0.02590284 0.08422064
v 0.03147270 -0.02553833 0.08422064
v 0.03253894 -0.02532337 0.08422064
v 0.03346535 -0.02511775 0.08422064
v 0.03517251 -0.02459436 0.08422064
v 0.03712244 -0.02379369 0.08419116
v 0.03802749 -0.02348838 0.08355630
v 0.03857906 -0.02199297 0.09162586
v 0.04000850 -0.02182474 0.08237047
v 0.04070185 -0.02066580 0.08052030
v 0.04070767 -0.02065022 0.08050443
v 0.04080867 -0.02035426 0.08050443
v 0.04133499 -0.01877785 0.08050443
v 0.04166710 -0.01620139 0.09036520
v 0.04168653 -0.01410782 0.08050443
v 0.04160301 -0.01696467 0.08050443
v 0.04166516 -0.01326042 0.08050443
v 0.04162826 -0.01241302 0.08050443
v 0.04153892 -0.01141297 0.08050443
v 0.04135636 -0.00947829 0.08050443
v 0.04022213 -0.00399824 0.08050443
v 0.04002986 -0.00577715 0.08788244
v 0.02590646 -0.02635457 0.08050443
v 0.02777093 -0.02614584 0.08237047
v 0.02292136 -0.02710539 0.08390548
v 0.02227073 -0.02725182 0.08440203
v 0.02184734 -0.02732347 0.08436122
v 0.02314665 -0.02714278 0.08513892
v 0.02777093 -0.02624865 0.08422064
v 0.03250010 -0.02531402 0.08290330
v 0.03319928 -0.02511775 0.08232059
v 0.03517251 -0.02459124 0.08237047
v 0.03702339 -0.02393077 0.08237047
v 0.03803914 -0.02349773 0.08237047
v 0.03896556 -0.02275002 0.08237047
v 0.04005122 -0.02183408 0.08052030
v 0.04069991 -0.02066580 0.08050443
v 0.04005511 -0.02182474 0.08050443
v 0.04163797 -0.01609858 0.08050443
v 0.04167099 -0.01511099 0.08050443
v 0.02775734 -0.02602122 0.08050443
v 0.02777093 -0.02602122 0.08052030
v 0.02962181 -0.02581561 0.08237047
v 0.03161642 -0.02544798 0.08232059
v 0.03232725 -0.02527975 0.08166985
v 0.03332163 -0.02491525 0.08052030
v 0.03517251 -0.02439185 0.08050443
v 0.03709525 -0.02372827 0.08061326
v 0.03799253 -0.02346969 0.08129347
v 0.04005122 -0.02183097 0.08050443
v 0.03871502 -0.02284037 0.08061326
v 0.03873250 -0.02280610 0.08050443
v 0.02960822 -0.02568164 0.08050443
v 0.02962181 -0.02568164 0.08052030
v 0.03204563 -0.02522367 0.08050443
v 0.03112311 -0.02540125 0.08050443
v 0.03332163 -0.02491213 0.08050443
v 0.03698844 -0.02375007 0.08050443
v 0.03706612 -0.02372204 0.08050443
v 0.03784493 -0.02339492 0.08050443
f 1 2 8
f 1 8 3
f 1 3 4
f 1 4 5
f 1 5 6
f 1 6 7
f 1 7 9
f 1 9 2
f 2 9 10
f 2 10 11
f 2 11 12
f 2 12 8
f 3 8 21
f 3 21 13
f 3 13 4
f 4 13 5
f 5 13 14
f 5 14 15
f 5 15 16
f 5 16 6
f 6 17 7
f 6 16 18
f 6 18 19
f 6 19 17
f 7 20 9
f 7 17 20
f 8 12 21
f 9 22 23
f 9 23 10
f 9 20 22
f 10 23 24
f 10 24 25
f 10 25 26
f 10 26 27
f 10 27 11
f 11 21 12
f 11 27 28
f 11 28 29
f 11 29 21
f 13 21 30
f 13 30 31
f 13 31 14
f 14 31 32
f 14 32 33
f 14 33 34
f 14 34 35
f 14 35 36
f 14 36 15
f 15 36 37
f 15 37 38
f 15 38 16
f 16 38 18
f 17 19 39
f 17 39 40
f 17 40 20
f 18 38 41
f 18 41 42
f 18 42 43
f 18 43 44
f 18 44 45
f 18 45 19
f 19 45 39
f 20 40 23
f 20 23 22
f 21 29 46
f 21 46 30
f 23 40 71
f 23 71 110
f 23 110 153
f 23 153 152
f 23 152 201
f 23 201 200
f 23 200 199
f 23 199 198
f 23 198 243
f 23 243 242
f 23 242 204
f 23 204 246
f 23 246 279
f 23 279 319
f 23 319 350
f 23 350 320
f 23 320 281
f 23 281 248
f 23 248 209
f 23 209 165
f 23 165 118
f 23 118 81
f 23 81 47
f 23 47 24
f 24 47 48
f 24 48 49
f 24 49 50
f 24 50 25
f 25 50 49
f 25 49 26
f 26 28 27
f 26 49 48
f 26 48 51
f 26 51 52
f 26 52 53
f 26 53 28
f 28 53 54
f 28 54 29
f 29 54 55
f 29 55 46
f 30 56 31
f 30 46 57
f 30 57 56
f 31 56 32
f 32 56 58
f 32 58 59
f 32 59 33
f 33 59 60
f 33 60 34
f 34 61 62
f 34 62 63
f 34 63 35
f 34 60 64
f 34 64 61
f 35 63 36
f 36 63 65
f 36 65 66
f 36 66 67
f 36 67 68
f 36 68 37
f 37 68 41
f 37 41 38
f 39 45 69
f 39 69 70
f 39 70 40
f 40 70 69
f 40 69 71
f 41 68 72
f 41 72 42
f 42 73 43
f 42 72 74
f 42 74 75
f 42 75 76
f 42 76 73
f 43 73 44
f 44 77 78
f 44 78 69
f 44 69 45
f 44 73 79
f 44 79 77
f 46 55 80
f 46 80 57
f 47 81 82
f 47 82 48
f 48 82 83
f 48 83 84
f 48 84 85
f 48 85 51
f 51 85 52
f 52 86 53
f 52 85 84
f 52 84 87
f 52 87 88
f 52 88 89
f 52 89 86
f 53 86 54
f 54 90 55
f 54 86 91
f 54 91 92
f 54 92 90
f 55 90 80
f 56 57 93
f 56 93 58
f 57 80 94
f 57 94 93
f 58 95 59
f 58 93 96
f 58 96 95
f 59 95 97
f 59 97 98
f 59 98 60
f 60 98 64
f 61 64 99
f 61 99 62
f 62 99 100
f 62 100 101
f 62 101 63
f 63 101 65
f 64 98 102
f 64 102 103
f 64 103 104
f 64 104 99
f 65 101 66
f 66 101 105
f 66 105 106
f 66 106 107
f 66 107 67
f 67 72 68
f 67 107 74
f 67 74 72
f 69 78 71
f 71 78 77
f 71 77 108
f 71 108 109
f 71 109 110
f 73 76 111
f 73 111 112
f 73 112 79
f 74 107 113
f 74 113 75
f 75 111 76
f 75 113 114
f 75 114 115
f 75 115 111
f 77 79 112
f 77 112 116
f 77 116 117
f 77 117 108
f 80 90 94
f 81 83 82
f 81 118 83
f 83 87 84
f 83 118 119
f 83 119 87
f 86 89 120
f 86 120 121
f 86 121 91
f 87 119 122
f 87 122 123
f 87 123 88
f 88 123 124
f 88 124 120
f 88 120 89
f 90 92 125
f 90 125 94
f 91 121 126
f 91 126 127
f 91 127 128
f 91 128 92
f 92 128 129
f 92 129 125
f 93 94 125
f 93 125 130
f 93 130 96
f 95 131 97
f 95 96 132
f 95 132 133
f 95 133 131
f 96 130 134
f 96 134 135
f 96 135 136
f 96 136 132
f 97 131 137
f 97 137 138
f 97 138 98
f 98 138 102
f 99 104 100
f 100 139 101
f 100 104 139
f 101 139 140
f 101 140 141
f 101 141 105
f 102 138 142
f 102 142 143
f 102 143 103
f 103 143 144
f 103 144 104
f 104 144 145
f 104 145 146
f 104 146 139
f 105 141 106
f 106 147 107
f 106 141 148
f 106 148 149
f 106 149 150
f 106 150 147
f 107 147 113
f 108 117 109
f 109 117 151
f 109 151 152
f 109 152 153
f 109 153 110
f 111 115 154
f 111 154 155
f 111 155 112
f 112 155 117
f 112 117 116
f 113 147 156
f 113 156 114
f 114 157 158
f 114 158 115
f 114 156 159
f 114 159 160
f 114 160 161
f 114 161 162
f 114 162 163
f 114 163 157
f 115 158 154
f 117 155 154
f 117 154 164
f 117 164 151
f 118 165 166
f 118 166 119
f 119 166 122
f 120 126 121
f 120 124 167
f 120 167 168
f 120 168 169
f 120 169 126
f 122 170 123
f 122 166 165
f 122 165 170
f 123 170 124
f 124 170 171
f 124 171 167
f 125 134 130
f 125 129 172
f 125 172 134
f 126 169 127
f 127 169 173
f 127 173 174
f 127 174 175
f 127 175 128
f 128 175 176
f 128 176 172
f 128 172 129
f 131 133 137
f 132 136 133
f 133 136 177
f 133 177 178
f 133 178 137
f 134 179 135
f 134 172 179
f 135 179 136
f 136 179 180
f 136 180 177
f 137 181 138
f 137 178 181
f 138 181 142
f 139 146 182
f 139 182 140
f 140 182 141
f 141 183 148
f 141 182 183
f 142 181 184
f 142 184 185
f 142 185 143
f 143 185 186
f 143 186 187
f 143 187 144
f 144 187 188
f 144 188 145
f 145 188 189
f 145 189 146
f 146 190 191
f 146 191 183
f 146 183 182
f 146 189 190
f 147 150 156
f 148 183 149
f 149 183 192
f 149 192 193
f 149 193 194
f 149 194 195
f 149 195 196
f 149 196 150
f 150 196 159
f 150 159 156
f 151 164 197
f 151 197 198
f 151 198 199
f 151 199 200
f 151 200 201
f 151 201 152
f 154 158 157
f 154 157 202
f 154 202 164
f 157 163 162
f 157 162 203
f 157 203 204
f 157 204 197
f 157 197 202
f 159 196 160
f 160 196 195
f 160 195 161
f 161 195 194
f 161 194 205
f 161 205 206
f 161 206 207
f 161 207 208
f 161 208 162
f 162 208 204
f 162 204 203
f 164 202 197
f 165 209 170
f 167 210 211
f 167 211 212
f 167 212 168
f 167 171 209
f 167 209 210
f 168 212 169
f 169 212 213
f 169 213 173
f 170 209 171
f 172 176 214
f 172 214 179
f 173 215 174
f 173 213 216
f 173 216 217
f 173 217 215
f 174 218 176
f 174 176 175
f 174 215 218
f 176 219 220
f 176 220 221
f 176 221 214
f 176 218 219
f 177 180 222
f 177 222 223
f 177 223 178
f 178 223 224
f 178 224 225
f 178 225 226
f 178 226 184
f 178 184 181
f 179 214 180
f 180 214 221
f 180 221 222
f 183 191 227
f 183 227 192
f 184 226 185
f 185 228 229
f 185 229 186
f 185 226 230
f 185 230 228
f 186 229 187
f 187 229 231
f 187 231 232
f 187 232 188
f 188 233 189
f 188 232 233
f 189 233 234
f 189 234 235
f 189 235 190
f 190 236 237
f 190 237 191
f 190 235 236
f 191 237 227
f 192 238 193
f 192 227 238
f 193 239 194
f 193 238 239
f 194 240 205
f 194 239 241
f 194 241 240
f 197 204 242
f 197 242 243
f 197 243 198
f 204 208 207
f 204 207 244
f 204 244 245
f 204 245 277
f 204 277 280
f 204 280 310
f 204 310 313
f 204 313 312
f 204 312 311
f 204 311 316
f 204 316 315
f 204 315 314
f 204 314 309
f 204 309 305
f 204 305 304
f 204 304 344
f 204 344 295
f 204 295 294
f 204 294 293
f 204 293 343
f 204 343 342
f 204 342 341
f 204 341 340
f 204 340 338
f 204 338 363
f 204 363 362
f 204 362 339
f 204 339 292
f 204 292 336
f 204 336 335
f 204 335 334
f 204 334 360
f 204 360 361
f 204 361 373
f 204 373 375
f 204 375 383
f 204 383 382
f 204 382 381
f 204 381 370
f 204 370 380
f 204 380 378
f 204 378 379
f 204 379 376
f 204 376 364
f 204 364 346
f 204 346 317
f 204 317 278
f 204 278 246
f 205 240 247
f 205 247 244
f 205 244 206
f 206 244 207
f 209 248 249
f 209 249 210
f 210 250 211
f 210 249 250
f 211 251 216
f 211 216 213
f 211 213 212
f 211 250 252
f 211 252 251
f 215 217 251
f 215 251 253
f 215 253 254
f 215 254 255
f 215 255 218
f 216 251 217
f 218 255 219
f 219 255 256
f 219 256 257
f 219 257 258
f 219 258 220
f 220 258 222
f 220 222 221
f 222 258 223
f 223 258 224
f 224 258 257
f 224 257 225
f 225 257 259
f 225 259 260
f 225 260 261
f 225 261 230
f 225 230 226
f 227 237 238
f 228 230 262
f 228 262 263
f 228 263 264
f 228 264 231
f 228 231 229
f 230 261 265
f 230 265 263
f 230 263 262
f 231 264 232
f 232 266 233
f 232 264 266
f 233 266 234
f 234 266 267
f 234 267 268
f 234 268 236
f 234 236 235
f 236 268 269
f 236 269 270
f 236 270 237
f 237 270 271
f 237 271 238
f 238 271 272
f 238 272 239
f 239 272 241
f 240 273 247
f 240 241 274
f 240 274 273
f 241 272 275
f 241 275 276
f 241 276 274
f 244 247 245
f 245 247 277
f 246 278 279
f 247 273 280
f 247 280 277
f 248 281 249
f 249 281 282
f 249 282 283
f 249 283 284
f 249 284 285
f 249 285 250
f 250 285 252
f 251 252 285
f 251 285 286
f 251 286 253
f 253 287 254
f 253 286 287
f 254 287 288
f 254 288 289
f 254 289 255
f 255 289 256
f 256 290 291
f 256 291 259
f 256 259 257
f 256 289 292
f 256 292 290
f 259 291 260
f 260 291 293
f 260 293 294
f 260 294 261
f 261 294 295
f 261 295 296
f 261 296 265
f 263 297 264
f 263 265 297
f 264 297 266
f 265 296 295
f 265 295 298
f 265 298 299
f 265 299 297
f 266 297 267
f 267 300 301
f 267 301 302
f 267 302 268
f 267 297 303
f 267 303 300
f 268 302 304
f 268 304 305
f 268 305 269
f 269 306 270
f 269 305 306
f 270 307 308
f 270 308 272
f 270 272 271
f 270 306 309
f 270 309 307
f 272 308 275
f 273 274 310
f 273 310 280
f 274 276 311
f 274 311 312
f 274 312 313
f 274 313 310
f 275 308 314
f 275 314 315
f 275 315 276
f 276 315 316
f 276 316 311
f 278 317 318
f 278 318 319
f 278 319 279
f 281 320 321
f 281 321 282
f 282 322 283
f 282 321 323
f 282 323 324
f 282 324 325
f 282 325 322
f 283 322 326
f 283 326 284
f 284 326 327
f 284 327 328
f 284 328 285
f 285 328 286
f 286 328 329
f 286 329 330
f 286 330 331
f 286 331 287
f 287 331 330
f 287 330 332
f 287 332 288
f 288 332 289
f 289 332 333
f 289 333 334
f 289 334 335
f 289 335 336
f 289 336 292
f 290 337 338
f 290 338 291
f 290 292 339
f 290 339 337
f 291 338 340
f 291 340 341
f 291 341 342
f 291 342 343
f 291 343 293
f 295 344 302
f 295 302 345
f 295 345 298
f 297 299 303
f 298 303 299
f 298 345 301
f 298 301 303
f 300 303 301
f 301 345 302
f 302 344 304
f 305 309 306
f 307 309 314
f 307 314 308
f 317 346 347
f 317 347 318
f 318 347 348
f 318 348 319
f 319 348 349
f 319 349 350
f 320 350 351
f 320 351 321
f 321 351 352
f 321 352 323
f 322 325 326
f 323 352 353
f 323 353 324
f 324 353 325
f 325 353 326
f 326 353 327
f 327 354 355
f 327 355 328
f 327 353 354
f 328 355 356
f 328 356 330
f 328 330 329
f 330 356 357
f 330 357 358
f 330 358 332
f 332 358 359
f 332 359 333
f 333 360 334
f 333 359 361
f 333 361 360
f 337 362 363
f 337 363 338
f 337 339 362
f 346 364 365
f 346 365 366
f 346 366 347
f 347 351 348
f 347 366 351
f 348 351 349
f 349 351 350
f 351 366 367
f 351 367 352
f 352 367 353
f 353 367 368
f 353 368 354
f 354 368 369
f 354 369 355
f 355 370 371
f 355 371 356
f 355 369 370
f 356 371 372
f 356 372 357
f 357 372 359
f 357 359 358
f 359 373 361
f 359 372 374
f 359 374 375
f 359 375 373
f 364 376 377
f 364 377 365
f 365 377 368
f 365 368 366
f 366 368 367
f 368 378 369
f 368 377 379
f 368 379 378
f 369 378 380
f 369 380 370
f 370 381 371
f 371 381 382
f 371 382 372
f 372 382 383
f 372 383 375
f 372 375 374
f 376 379 377

