# https://github.com/mikedh/trimesh
v 0.00440060 0.00287302 0.08050443
v 0.00440060 -0.02916401 0.08050443
v -0.01901371 -0.00403858 0.09038877
v -0.00924642 -0.00022775 0.09902796
v -0.00924642 -0.00033524 0.10087878
v 0.01112411 0.00077544 0.09915401
v 0.01111211 0.00100669 0.09717714
v 0.02184734 0.00253103 0.08050443
v 0.00440060 -0.02922589 0.08121463
v -0.00369882 -0.03035937 0.09038877
v -0.00493473 -0.03038543 0.09038877
v -0.00554668 -0.03039520 0.09038877
v -0.00739455 -0.03033006 0.09038877
v -0.00863446 -0.03024863 0.09038877
v -0.01048633 -0.03012160 0.09038877
v -0.01233419 -0.02999132 0.09038877
v -0.01294615 -0.02994572 0.09038877
v -0.01418606 -0.02983823 0.09038877
v -0.01479801 -0.02977309 0.09038877
v -0.01603793 -0.02956138 0.09038877
v -0.01664188 -0.02944738 0.09038877
v -0.01815777 -0.02913469 0.09038877
v -0.01901371 -0.02887413 0.09038877
v 0.00743638 -0.02892298 0.08050443
v -0.01901371 -0.00413630 0.09060091
v -0.01215821 -0.00295396 0.10390096
v -0.01241019 -0.00270968 0.10272652
v -0.01109828 -0.00168369 0.10289254
v -0.01048633 -0.00103552 0.10238525
v -0.01075031 -0.00085963 0.10087878
v -0.01085830 -0.00079775 0.09902796
v -0.00739455 -0.00072284 0.10272652
v -0.00739455 -0.00026358 0.10087878
v -0.00939441 -0.00087592 0.10289254
v 0.01175207 0.00063213 0.09999641
v 0.01212004 0.00063213 0.09999641
v 0.01282399 0.00071681 0.09886809
v 0.01334795 0.00049533 0.09937845
v 0.01425589 -0.00096061 0.10231147
v 0.01549180 -0.00147197 0.10120159
v 0.02184734 0.00227372 0.08104553
v 0.02184734 -0.02706968 0.08050443
v 0.00440060 -0.02953206 0.08491626
v 0.00440060 -0.02962326 0.08607532
v 0.00440060 -0.02975029 0.08792306
v -0.00184695 -0.03023560 0.09038877
v -0.00369882 -0.03024212 0.09162777
v -0.00554668 -0.03027143 0.09162777
v -0.00739455 -0.03020954 0.09162777
v -0.00924642 -0.03008903 0.09162777
v -0.01109828 -0.02995549 0.09162777
v -0.01294615 -0.02981869 0.09162777
v -0.01479801 -0.02962326 0.09162777
v -0.01802578 -0.02910538 0.09105592
v -0.01901371 -0.02872755 0.09120657
v 0.00924425 -0.02876338 0.08050443
v 0.00806433 -0.02897184 0.08170654
v -0.01901371 -0.00755627 0.09722941
v -0.01393008 -0.00486264 0.10377183
v -0.01179823 -0.00331550 0.10513688
v -0.01114628 -0.00247191 0.10454044
v -0.01010635 -0.00125049 0.10361811
v -0.01287815 -0.00409070 0.10445436
v -0.00887444 -0.00114300 0.10385484
v 0.01112411 0.00030967 0.10071891
v -0.00739455 -0.00113323 0.10387329
v 0.01111211 -0.00063815 0.10272652
v 0.01232803 -0.00118535 0.10372571
v 0.01295198 -0.00080101 0.10284642
v 0.01282399 0.00020544 0.10071891
v 0.01467186 -0.00271619 0.10439902
v 0.01484784 -0.00178140 0.10284642
v 0.01355594 -0.00130260 0.10354432
v 0.01599976 -0.00279436 0.10272652
v 0.02184734 0.00157343 0.08237369
v 0.02184734 -0.02732374 0.08436286
v 0.02056343 -0.02730094 0.08050443
v 0.00740838 -0.02938549 0.08607532
v 0.00555651 -0.02953206 0.08607532
v 0.00555651 -0.02966235 0.08792306
v 0.00440060 -0.02977635 0.08977388
v -0.00184695 -0.03011835 0.09162777
v -0.00554668 -0.02719996 0.10384869
v -0.00739455 -0.02723905 0.10398704
v -0.00924642 -0.02720648 0.10389173
v -0.01069031 -0.02717065 0.10377183
v -0.01192622 -0.02713157 0.10361503
v -0.01662188 -0.02926172 0.09165544
v -0.01389408 -0.02714785 0.10183185
v -0.01901371 -0.02864287 0.09164929
v -0.01901371 -0.02870150 0.09135107
v 0.01111211 -0.02858750 0.08050443
v 0.00865229 -0.02902395 0.08293939
v -0.01901371 -0.00854970 0.09844996
v -0.01359810 -0.00532840 0.10500775
v -0.01236619 -0.00454669 0.10597621
v -0.01123427 -0.00390178 0.10656035
v -0.01056232 -0.00279762 0.10591472
v -0.00939441 -0.00156969 0.10451277
v -0.00924642 -0.00256962 0.10623753
v -0.00739455 -0.00160551 0.10479869
v 0.01295998 -0.00291488 0.10567491
v 0.01295198 -0.00187911 0.10443591
v -0.00739455 -0.00253379 0.10628673
v -0.00739455 -0.00320802 0.10721213
v 0.01395991 -0.00302888 0.10556116
v 0.01573978 -0.00308099 0.10366115
v 0.01696769 -0.00405813 0.10273881
v 0.01735566 -0.00341973 0.10087878
v 0.02184734 0.00083733 0.08364651
v 0.02184734 -0.02741168 0.08607532
v 0.01851158 -0.02801424 0.08607532
v 0.01665971 -0.02834647 0.08607532
v 0.01851158 -0.02790350 0.08422451
v 0.01851158 -0.02777973 0.08237369
v 0.01851158 -0.02764293 0.08050443
v 0.00926025 -0.02922589 0.08607532
v 0.00740838 -0.02950601 0.08792306
v 0.00926025 -0.02933338 0.08792306
v 0.00740838 -0.02948321 0.08977388
v 0.01059215 -0.02903372 0.09078537
v 0.00000492 -0.02992617 0.09162777
v 0.01480785 -0.02605997 0.10087878
v -0.00554668 -0.02681888 0.10477410
v -0.00739455 -0.02694591 0.10491245
v 0.01480785 -0.02557792 0.10254513
v 0.01387191 -0.02528804 0.10365193
v -0.00924642 -0.02692962 0.10482022
v -0.01122627 -0.02690683 0.10446358
v -0.01294615 -0.02644757 0.10457733
v -0.01294615 -0.02700454 0.10318461
v -0.01462603 -0.02652900 0.10255742
v -0.01901371 -0.02773739 0.09324800
v -0.01577394 -0.02533689 0.10372264
v 0.01043216 -0.02901744 0.08486399
v 0.01294798 -0.02840184 0.08050443
v 0.01295998 -0.02856144 0.08237369
v 0.01287999 -0.02889041 0.08614296
v -0.01901371 -0.00955940 0.09906485
v -0.01392608 -0.00852364 0.10742427
v -0.01399807 -0.00656285 0.10572717
v -0.01297815 -0.00582349 0.10646812
v -0.01190622 -0.00508412 0.10720906
v -0.01067031 -0.00449458 0.10779320
v -0.00924642 -0.00325036 0.10715987
v 0.01238402 -0.00487566 0.10739660
v 0.01298398 -0.00415584 0.10672637
v 0.01361193 -0.00499943 0.10731359
v -0.00739455 -0.00413304 0.10814062
v -0.00739455 -0.00512320 0.10906295
v -0.00924642 -0.00417213 0.10810680
v 0.01467186 -0.00415910 0.10591472
v 0.01577578 -0.00487892 0.10555193
v 0.01519582 -0.00364447 0.10490015
v 0.01604376 -0.00415910 0.10439902
v 0.01743966 -0.00519486 0.10335985
v 0.01771564 -0.00469978 0.10212700
v 0.02184734 0.00070704 0.08383405
v 0.02184734 -0.02748659 0.08792306
v 0.02035945 -0.02776345 0.08792306
v 0.01851158 -0.02809893 0.08792306
v 0.01665971 -0.02842464 0.08792306
v 0.01480785 -0.02864938 0.08607532
v 0.01665971 -0.02821944 0.08422451
v 0.01665971 -0.02807613 0.08237369
v 0.01665971 -0.02791653 0.08050443
v 0.01107212 -0.02906304 0.08614296
v 0.01220803 -0.02900767 0.08680397
v 0.01111211 -0.02913795 0.08792306
v 0.01218004 -0.02900767 0.08911595
v 0.00926025 -0.02929104 0.08977388
v 0.01182406 -0.02896533 0.09034880
v 0.01665971 -0.02824550 0.08977388
v 0.01851158 -0.02790350 0.08977388
v 0.01665971 -0.02613489 0.09902489
v 0.01675171 -0.02566912 0.10096793
v 0.01619575 -0.02545415 0.10217927
v -0.00739455 -0.02620003 0.10642815
v -0.00924642 -0.02620980 0.10642815
v 0.01480785 -0.02519358 0.10347053
v 0.01442387 -0.02364319 0.10572717
v 0.01295998 -0.02379302 0.10587782
v 0.01313997 -0.02483204 0.10443898
v -0.00739455 -0.02546718 0.10757184
v -0.01120227 -0.02587106 0.10658495
v -0.01294615 -0.02565935 0.10603462
v -0.01401807 -0.02539878 0.10564109
v -0.01470202 -0.02564958 0.10443284
v -0.01901371 -0.02705014 0.09392131
v -0.01698986 -0.02432393 0.10269885
v -0.01768981 -0.02368228 0.10206551
v -0.01602592 -0.02419039 0.10443284
v -0.01525398 -0.02469524 0.10495549
v -0.01573795 -0.02346079 0.10551811
v 0.01479585 -0.02817385 0.08050443
v 0.01480785 -0.02850281 0.08422451
v -0.01901371 -0.01328881 0.10079884
v -0.01407007 -0.00956592 0.10764255
v -0.01330612 -0.00956592 0.10856796
v -0.01214221 -0.00840638 0.10932428
v -0.01287015 -0.00784941 0.10819903
v -0.01236219 -0.00631857 0.10773786
v -0.01359410 -0.00728919 0.10696003
v -0.01178223 -0.00717193 0.10897379
v -0.01122627 -0.00574206 0.10838350
v -0.01054632 -0.00639348 0.10946877
v -0.00924642 -0.00515903 0.10902913
v 0.01298398 -0.00571600 0.10779320
v -0.00739455 -0.00604497 0.10969629
v -0.00735855 -0.00784941 0.11069240
v 0.01295998 -0.00771587 0.10873091
v 0.01435588 -0.00623388 0.10766100
v 0.01490784 -0.00571600 0.10690776
v -0.00924642 -0.00608406 0.10967476
v 0.01605975 -0.00586257 0.10590242
v 0.01701569 -0.00583326 0.10456811
v 0.01558779 -0.00706445 0.10721828
v 0.01775163 -0.00642931 0.10394707
v 0.01798362 -0.00583326 0.10273881
v 0.02184734 -0.00075215 0.08571869
v 0.02184734 0.00016962 0.08457192
v 0.02184734 -0.02738562 0.08894378
v 0.01480785 -0.02854841 0.08977388
v 0.01286399 -0.02886110 0.08974929
v 0.01480785 -0.02870801 0.08792306
v 0.01319196 -0.02891647 0.08792306
v 0.01480785 -0.02817385 0.08052288
v 0.01116811 -0.02908584 0.08974929
v 0.02184734 -0.02732699 0.08932501
v 0.01788762 -0.02545415 0.10041146
v 0.01742766 -0.02521638 0.10164431
v 0.01675171 -0.02486461 0.10276956
v -0.00924642 -0.02548998 0.10760566
v -0.01065831 -0.02540855 0.10750113
v 0.01494784 -0.02422947 0.10474335
v 0.01565978 -0.02339239 0.10546892
v 0.01405990 -0.02171498 0.10743349
v 0.01295998 -0.02274097 0.10680323
v -0.00739455 -0.02359433 0.10932428
v -0.00739455 -0.02451936 0.10849725
v -0.00924642 -0.02458775 0.10853107
v -0.01189023 -0.02524569 0.10730744
v -0.01294615 -0.02480924 0.10696003
v -0.01389008 -0.02346405 0.10736893
v -0.01457403 -0.02407964 0.10619756
v -0.01901371 -0.02673745 0.09417649
v -0.01824577 -0.02251297 0.10087878
v -0.01740183 -0.02251297 0.10330144
v -0.01782579 -0.02251297 0.10237603
v -0.01404607 -0.02251297 0.10752265
v -0.01497000 -0.02251297 0.10657880
v -0.01584594 -0.02251297 0.10565031
v -0.01659788 -0.02251297 0.10457733
v -0.01901371 -0.01390766 0.10090645
v -0.01601393 -0.01511605 0.10595469
v -0.01533797 -0.01326601 0.10664029
v -0.01427405 -0.01141596 0.10793770
v -0.01357810 -0.01141596 0.10886311
v -0.01238219 -0.00956592 0.10956101
v -0.01107028 -0.00945517 0.11057558
v -0.01113828 -0.00776147 0.10978237
v -0.00986637 -0.00876141 0.11101215
v -0.00795051 -0.00855621 0.11109208
v -0.00863446 -0.00855621 0.11109208
v 0.01295998 -0.00891449 0.10913981
v 0.01401590 -0.01020757 0.10926586
v 0.01490784 -0.00769633 0.10794385
v -0.00924642 -0.00784941 0.11066781
v 0.01736366 -0.00729896 0.10517993
v 0.01587177 -0.00829890 0.10749498
v 0.01661571 -0.00780056 0.10638818
v 0.01762364 -0.00853341 0.10555501
v 0.01790762 -0.00783639 0.10456811
v 0.01863557 -0.00771587 0.10272652
v 0.02184734 -0.01149413 0.09737698
v 0.02184734 -0.00953986 0.09545238
v 0.02184734 -0.02678305 0.09023197
v 0.01976749 -0.02382233 0.10055903
v 0.01919153 -0.02510889 0.09902489
v 0.01865957 -0.02452261 0.10110321
v 0.01943151 -0.02342822 0.10179496
v 0.01812361 -0.02392656 0.10272652
v 0.01769164 -0.02354548 0.10375953
v 0.01665971 -0.02388748 0.10416843
v -0.01040233 -0.02355525 0.10929046
v 0.01620375 -0.02216120 0.10588397
v 0.01540380 -0.02066292 0.10717216
v 0.01447987 -0.02066292 0.10767022
v 0.01295998 -0.02066292 0.10803301
v -0.00739455 -0.02251297 0.10992687
v -0.00924642 -0.02251297 0.11003140
v -0.00924642 -0.02366273 0.10937654
v -0.01163424 -0.02308948 0.10904450
v -0.01294615 -0.02388422 0.10770712
v -0.01217020 -0.02185503 0.10931813
v -0.01901371 -0.02064664 0.09897570
v -0.01901371 -0.01695307 0.10078347
v -0.01685787 -0.02066292 0.10457733
v -0.01751382 -0.02066292 0.10352280
v -0.01791379 -0.02066292 0.10259739
v -0.01424606 -0.02066292 0.10772557
v -0.01234619 -0.02066292 0.10947185
v -0.01327013 -0.02066292 0.10865097
v -0.01517399 -0.02066292 0.10676019
v -0.01598993 -0.02066292 0.10583478
v -0.01901371 -0.01511605 0.10104172
v -0.01710185 -0.01714198 0.10439287
v -0.01609392 -0.01695958 0.10601310
v -0.01540597 -0.01511605 0.10688009
v -0.01441004 -0.01326601 0.10808220
v -0.01369810 -0.01326601 0.10900761
v -0.01265417 -0.01141596 0.10982234
v -0.01161425 -0.01141596 0.11074774
v -0.01043433 -0.00999586 0.11120276
v -0.00924642 -0.00945517 0.11129807
v -0.00735855 -0.00943238 0.11130114
v -0.00671860 -0.00872558 0.11102752
v 0.01295998 -0.00983951 0.10934272
v -0.00739455 -0.01141596 0.11175001
v 0.01295998 -0.01141596 0.10955178
v 0.01415189 -0.01141596 0.10932735
v 0.01507983 -0.01141596 0.10878010
v 0.01470385 -0.00958220 0.10868172
v 0.01604776 -0.00956592 0.10768560
v 0.01697569 -0.00956592 0.10664336
v 0.01774364 -0.00956592 0.10571795
v 0.01834359 -0.00956592 0.10457733
v 0.02184734 -0.01446463 0.09850223
v 0.01928752 -0.01141596 0.10323687
v 0.01939151 -0.01272207 0.10354124
v 0.02184734 -0.02147069 0.09638394
v 0.02141537 -0.02194297 0.09858524
v 0.02103140 -0.02254228 0.09913249
v 0.02014346 -0.02269211 0.10105709
v 0.01901954 -0.02269211 0.10277571
v 0.01970349 -0.02219377 0.10218849
v 0.01799562 -0.02251297 0.10409465
v -0.01105029 -0.02249017 0.10956408
v 0.01573178 -0.01972813 0.10735356
v 0.01743966 -0.02099515 0.10536747
v 0.01295998 -0.01881288 0.10862330
v 0.01499183 -0.01899202 0.10791003
v -0.00814650 -0.01987144 0.11109208
v -0.00747454 -0.02055544 0.11073237
v -0.00860246 -0.01987144 0.11109208
v -0.00922642 -0.02055544 0.11081231
v -0.01109828 -0.02066292 0.11020049
v -0.01709785 -0.01863374 0.10439287
v -0.01606992 -0.01880962 0.10594546
v -0.01754982 -0.01912882 0.10359658
v -0.01436205 -0.01880962 0.10784854
v -0.01343411 -0.01880962 0.10877395
v -0.01355811 -0.01695958 0.10889386
v -0.01098229 -0.01882591 0.11063399
v -0.01141426 -0.01695958 0.11069855
v -0.01167424 -0.01511605 0.11082460
v -0.01251018 -0.01880962 0.10964095
v -0.01528998 -0.01880962 0.10687087
v -0.01757381 -0.01789437 0.10365193
v -0.01757381 -0.01788134 0.10365193
v -0.01538197 -0.01695958 0.10693851
v -0.01448204 -0.01511605 0.10806990
v -0.01367010 -0.01511605 0.10899531
v -0.01277416 -0.01326601 0.10993609
v -0.01176223 -0.01326601 0.11086457
v -0.01069031 -0.01141596 0.11135034
v -0.00924642 -0.01141596 0.11175309
v -0.00924642 -0.01326601 0.11190989
v -0.00739455 -0.01326601 0.11189759
v 0.01295998 -0.01326601 0.10952411
v 0.01412390 -0.01326601 0.10931813
v 0.01505183 -0.01326601 0.10878317
v 0.01623174 -0.01326601 0.10785469
v 0.01621175 -0.01141596 0.10785469
v 0.01713168 -0.01141596 0.10683090
v 0.01789162 -0.01141596 0.10590549
v 0.01866757 -0.01141596 0.10457733
v 0.02134338 -0.01576747 0.10008864
v 0.02184734 -0.01658827 0.09862521
v 0.01946351 -0.01394674 0.10369804
v 0.02005547 -0.01510628 0.10272652
v 0.02184734 -0.02065315 0.09717100
v 0.02148736 -0.02056195 0.09913249
v 0.02125138 -0.02111892 0.09982424
v 0.01988748 -0.02066292 0.10247749
v 0.01924352 -0.02066292 0.10340290
v 0.01586777 -0.01849694 0.10747039
v 0.01480785 -0.01696284 0.10838042
v 0.01759164 -0.01976396 0.10550889
v 0.01817560 -0.02049356 0.10468186
v 0.01397591 -0.01449068 0.10925049
v 0.01334795 -0.01572513 0.10915826
v 0.01282399 -0.01679672 0.10902606
v -0.00739455 -0.01511605 0.11175924
v -0.00924642 -0.01511605 0.11178691
v -0.00922642 -0.01882591 0.11119354
v -0.00983437 -0.01945128 0.11100600
v -0.00924642 -0.01695958 0.11149791
v -0.01029034 -0.01821683 0.11110746
v -0.01445804 -0.01695958 0.10796844
v -0.01263417 -0.01695958 0.10977315
v -0.01274616 -0.01511605 0.10990227
v -0.01049433 -0.01695958 0.11121199
v -0.01075031 -0.01511605 0.11135956
v -0.01083830 -0.01326601 0.11143027
v 0.01600376 -0.01696284 0.10759951
v 0.01613975 -0.01510628 0.10773786
v 0.01467586 -0.01510628 0.10874320
v 0.01706768 -0.01510628 0.10677556
v 0.01715568 -0.01326601 0.10686472
v 0.01793162 -0.01326601 0.10593624
v 0.01949551 -0.01510628 0.10373801
v 0.02095940 -0.01696284 0.10104172
v 0.02135137 -0.01696284 0.10011631
v 0.02131938 -0.01881288 0.10003023
v 0.02129538 -0.01988122 0.09997796
v 0.02184734 -0.01817123 0.09838847
v 0.01994747 -0.01709964 0.10290484
v 0.02184734 -0.01948710 0.09793346
v 0.02088741 -0.02056195 0.10070661
v 0.01997547 -0.01881288 0.10263736
v 0.01942751 -0.01780969 0.10364270
v 0.01937152 -0.01881288 0.10356584
v 0.01851558 -0.01881288 0.10457733
v 0.01777163 -0.01696284 0.10571488
v 0.01693169 -0.01696284 0.10664029
v 0.01787962 -0.01510628 0.10584708
v 0.01948351 -0.01657524 0.10371956
v 0.02089941 -0.01881288 0.10095564
f 1 2 23
f 1 23 3
f 1 3 4
f 1 4 5
f 1 5 6
f 1 6 7
f 1 7 8
f 1 8 42
f 1 42 77
f 1 77 116
f 1 116 166
f 1 166 195
f 1 195 136
f 1 136 92
f 1 92 56
f 1 56 24
f 1 24 2
f 2 9 10
f 2 10 11
f 2 11 12
f 2 12 13
f 2 13 14
f 2 14 15
f 2 15 16
f 2 16 17
f 2 17 18
f 2 18 19
f 2 19 20
f 2 20 21
f 2 21 22
f 2 22 23
f 2 24 9
f 3 23 55
f 3 55 91
f 3 91 90
f 3 90 133
f 3 133 189
f 3 189 246
f 3 246 296
f 3 296 297
f 3 297 306
f 3 306 254
f 3 254 197
f 3 197 139
f 3 139 94
f 3 94 58
f 3 58 25
f 3 25 26
f 3 26 27
f 3 27 28
f 3 28 29
f 3 29 30
f 3 30 31
f 3 31 4
f 4 31 30
f 4 30 5
f 5 32 33
f 5 33 6
f 5 30 29
f 5 29 34
f 5 34 32
f 6 35 36
f 6 36 8
f 6 8 7
f 6 33 35
f 8 36 37
f 8 37 38
f 8 38 39
f 8 39 40
f 8 40 41
f 8 41 75
f 8 75 110
f 8 110 158
f 8 158 221
f 8 221 220
f 8 220 276
f 8 276 275
f 8 275 328
f 8 328 379
f 8 379 417
f 8 417 419
f 8 419 382
f 8 382 331
f 8 331 277
f 8 277 229
f 8 229 222
f 8 222 159
f 8 159 111
f 8 111 76
f 8 76 42
f 9 43 10
f 9 24 43
f 10 43 44
f 10 44 45
f 10 45 46
f 10 46 82
f 10 82 47
f 10 47 11
f 11 47 12
f 12 47 48
f 12 48 49
f 12 49 13
f 13 49 50
f 13 50 14
f 14 50 15
f 15 50 16
f 16 50 51
f 16 51 52
f 16 52 17
f 17 52 18
f 18 52 53
f 18 53 19
f 19 53 20
f 20 53 54
f 20 54 21
f 21 54 22
f 22 54 23
f 23 54 55
f 24 56 57
f 24 57 43
f 25 58 59
f 25 59 26
f 26 60 61
f 26 61 62
f 26 62 28
f 26 28 27
f 26 59 63
f 26 63 60
f 28 62 29
f 29 62 34
f 32 34 64
f 32 64 35
f 32 35 33
f 34 62 64
f 35 65 36
f 35 64 66
f 35 66 65
f 36 65 67
f 36 67 68
f 36 68 69
f 36 69 70
f 36 70 38
f 36 38 37
f 38 70 39
f 39 71 72
f 39 72 40
f 39 70 73
f 39 73 71
f 40 72 74
f 40 74 41
f 41 74 75
f 42 76 77
f 43 57 78
f 43 78 79
f 43 79 44
f 44 79 80
f 44 80 45
f 45 81 46
f 45 80 81
f 46 81 82
f 47 82 83
f 47 83 84
f 47 84 48
f 48 84 85
f 48 85 49
f 49 85 86
f 49 86 87
f 49 87 50
f 50 87 51
f 51 87 52
f 52 87 53
f 53 88 54
f 53 87 88
f 54 89 90
f 54 90 91
f 54 91 55
f 54 88 87
f 54 87 89
f 56 92 93
f 56 93 57
f 57 93 78
f 58 94 95
f 58 95 59
f 59 95 63
f 60 63 96
f 60 96 97
f 60 97 98
f 60 98 61
f 61 98 62
f 62 99 64
f 62 98 100
f 62 100 99
f 63 95 96
f 64 101 66
f 64 99 100
f 64 100 101
f 65 66 67
f 66 101 67
f 67 101 68
f 68 102 103
f 68 103 73
f 68 73 69
f 68 101 104
f 68 104 105
f 68 105 102
f 69 73 70
f 71 73 106
f 71 106 107
f 71 107 72
f 72 107 74
f 73 103 106
f 74 107 108
f 74 108 109
f 74 109 75
f 75 109 110
f 76 111 112
f 76 112 113
f 76 113 114
f 76 114 77
f 77 114 115
f 77 115 116
f 78 93 117
f 78 117 118
f 78 118 80
f 78 80 79
f 80 118 81
f 81 118 119
f 81 119 120
f 81 120 121
f 81 121 82
f 82 121 122
f 82 122 123
f 82 123 83
f 83 124 125
f 83 125 84
f 83 123 126
f 83 126 127
f 83 127 124
f 84 125 128
f 84 128 85
f 85 128 86
f 86 128 129
f 86 129 87
f 87 129 130
f 87 130 131
f 87 131 89
f 89 131 130
f 89 130 132
f 89 132 90
f 90 132 134
f 90 134 133
f 92 135 93
f 92 136 137
f 92 137 138
f 92 138 135
f 93 135 117
f 94 139 140
f 94 140 141
f 94 141 95
f 95 141 142
f 95 142 96
f 96 143 97
f 96 142 143
f 97 143 144
f 97 144 98
f 98 144 145
f 98 145 100
f 100 145 105
f 100 105 104
f 100 104 101
f 102 146 147
f 102 147 148
f 102 148 106
f 102 106 103
f 102 105 149
f 102 149 150
f 102 150 146
f 105 145 151
f 105 151 149
f 106 148 152
f 106 152 153
f 106 153 154
f 106 154 107
f 107 154 153
f 107 153 155
f 107 155 156
f 107 156 108
f 108 156 157
f 108 157 109
f 109 157 110
f 110 157 158
f 111 159 160
f 111 160 161
f 111 161 112
f 112 161 113
f 113 162 163
f 113 163 164
f 113 164 115
f 113 115 114
f 113 161 162
f 115 164 116
f 116 164 165
f 116 165 166
f 117 135 167
f 117 167 168
f 117 168 118
f 118 168 119
f 119 168 169
f 119 169 170
f 119 170 120
f 120 170 171
f 120 171 172
f 120 172 121
f 121 172 123
f 121 123 122
f 123 172 173
f 123 173 174
f 123 174 175
f 123 175 176
f 123 176 177
f 123 177 126
f 124 178 125
f 124 127 178
f 125 178 179
f 125 179 128
f 126 177 180
f 126 180 127
f 127 180 181
f 127 181 182
f 127 182 183
f 127 183 184
f 127 184 178
f 128 179 129
f 129 185 130
f 129 179 185
f 130 185 186
f 130 186 187
f 130 187 188
f 130 188 132
f 132 188 134
f 133 134 190
f 133 190 191
f 133 191 189
f 134 192 190
f 134 188 187
f 134 187 193
f 134 193 194
f 134 194 192
f 135 138 167
f 136 195 196
f 136 196 137
f 137 196 138
f 138 168 167
f 138 196 163
f 138 163 168
f 139 197 140
f 140 198 199
f 140 199 200
f 140 200 201
f 140 201 202
f 140 202 203
f 140 203 141
f 140 197 198
f 141 203 142
f 142 203 202
f 142 202 143
f 143 202 204
f 143 204 205
f 143 205 144
f 144 206 207
f 144 207 151
f 144 151 145
f 144 205 206
f 146 208 148
f 146 148 147
f 146 150 209
f 146 209 210
f 146 210 208
f 148 208 211
f 148 211 212
f 148 212 213
f 148 213 152
f 149 151 207
f 149 207 150
f 150 207 214
f 150 214 209
f 152 213 153
f 153 215 216
f 153 216 156
f 153 156 155
f 153 213 217
f 153 217 215
f 156 218 219
f 156 219 157
f 156 216 218
f 157 219 220
f 157 220 221
f 157 221 158
f 159 222 160
f 160 222 173
f 160 173 161
f 161 173 162
f 162 173 223
f 162 223 224
f 162 224 225
f 162 225 163
f 163 225 226
f 163 226 168
f 163 196 165
f 163 165 164
f 165 196 166
f 166 196 227
f 166 227 195
f 168 226 169
f 169 226 170
f 170 224 172
f 170 172 228
f 170 228 171
f 170 226 225
f 170 225 224
f 171 228 172
f 172 224 223
f 172 223 173
f 173 222 174
f 174 222 229
f 174 229 176
f 174 176 175
f 176 229 230
f 176 230 231
f 176 231 177
f 177 231 232
f 177 232 180
f 178 184 233
f 178 233 179
f 179 233 234
f 179 234 185
f 180 232 235
f 180 235 181
f 181 235 236
f 181 236 237
f 181 237 238
f 181 238 182
f 182 238 239
f 182 239 240
f 182 240 184
f 182 184 183
f 184 240 241
f 184 241 233
f 185 234 242
f 185 242 186
f 186 242 187
f 187 242 243
f 187 243 244
f 187 244 245
f 187 245 194
f 187 194 193
f 189 191 247
f 189 247 246
f 190 192 191
f 191 192 194
f 191 194 248
f 191 248 249
f 191 249 247
f 194 245 244
f 194 244 250
f 194 250 251
f 194 251 252
f 194 252 253
f 194 253 248
f 195 227 196
f 197 254 255
f 197 255 256
f 197 256 257
f 197 257 198
f 198 257 258
f 198 258 199
f 199 258 259
f 199 259 200
f 200 259 260
f 200 260 261
f 200 261 204
f 200 204 201
f 201 204 202
f 204 261 206
f 204 206 205
f 206 262 214
f 206 214 207
f 206 261 262
f 208 210 263
f 208 263 211
f 209 214 264
f 209 264 263
f 209 263 210
f 211 265 266
f 211 266 212
f 211 263 265
f 212 266 267
f 212 267 217
f 212 217 213
f 214 262 268
f 214 268 264
f 215 217 269
f 215 269 216
f 216 269 218
f 217 270 271
f 217 271 269
f 217 267 270
f 218 269 272
f 218 272 273
f 218 273 274
f 218 274 219
f 219 274 275
f 219 275 276
f 219 276 220
f 229 277 278
f 229 278 279
f 229 279 230
f 230 279 280
f 230 280 231
f 231 280 281
f 231 281 282
f 231 282 283
f 231 283 232
f 232 284 236
f 232 236 235
f 232 283 284
f 233 241 234
f 234 241 285
f 234 285 242
f 236 284 283
f 236 283 286
f 236 286 237
f 237 286 287
f 237 287 288
f 237 288 289
f 237 289 290
f 237 290 239
f 237 239 238
f 239 290 291
f 239 291 292
f 239 292 240
f 240 292 241
f 241 292 285
f 242 285 293
f 242 293 294
f 242 294 243
f 243 294 244
f 244 294 293
f 244 293 295
f 244 295 250
f 246 247 296
f 247 297 296
f 247 249 297
f 248 253 298
f 248 298 299
f 248 299 249
f 249 299 300
f 249 300 297
f 250 301 251
f 250 295 302
f 250 302 303
f 250 303 301
f 251 304 252
f 251 301 304
f 252 305 253
f 252 304 305
f 253 305 298
f 254 306 255
f 255 306 307
f 255 307 308
f 255 308 309
f 255 309 310
f 255 310 257
f 255 257 256
f 257 310 258
f 258 311 312
f 258 312 259
f 258 310 311
f 259 312 313
f 259 313 260
f 260 313 314
f 260 314 262
f 260 262 261
f 262 314 315
f 262 315 264
f 262 264 268
f 263 264 316
f 263 316 317
f 263 317 265
f 264 315 316
f 265 318 266
f 265 317 316
f 265 316 319
f 265 319 318
f 266 318 320
f 266 320 321
f 266 321 322
f 266 322 323
f 266 323 267
f 267 323 270
f 269 271 272
f 270 324 325
f 270 325 272
f 270 272 271
f 270 323 324
f 272 326 327
f 272 327 273
f 272 325 326
f 273 327 275
f 273 275 274
f 275 327 329
f 275 329 330
f 275 330 328
f 277 331 332
f 277 332 333
f 277 333 278
f 278 333 334
f 278 334 281
f 278 281 280
f 278 280 279
f 281 335 283
f 281 283 282
f 281 334 336
f 281 336 335
f 283 335 337
f 283 337 286
f 285 292 291
f 285 291 338
f 285 338 293
f 286 339 287
f 286 337 340
f 286 340 339
f 287 339 288
f 288 341 289
f 288 339 342
f 288 342 341
f 289 341 343
f 289 343 344
f 289 344 290
f 290 344 343
f 290 343 291
f 291 343 345
f 291 345 346
f 291 346 338
f 293 338 295
f 295 338 347
f 295 347 302
f 297 300 299
f 297 299 306
f 298 348 299
f 298 305 349
f 298 349 348
f 299 350 306
f 299 348 350
f 301 351 304
f 301 303 352
f 301 352 353
f 301 353 351
f 302 347 354
f 302 354 355
f 302 355 356
f 302 356 357
f 302 357 303
f 303 357 352
f 304 351 358
f 304 358 305
f 305 358 349
f 306 350 359
f 306 359 360
f 306 360 307
f 307 360 308
f 308 360 359
f 308 359 348
f 308 348 349
f 308 349 361
f 308 361 309
f 309 361 362
f 309 362 311
f 309 311 310
f 311 362 363
f 311 363 364
f 311 364 312
f 312 364 365
f 312 365 313
f 313 365 366
f 313 366 314
f 314 366 367
f 314 367 315
f 315 367 316
f 316 367 319
f 318 319 320
f 319 367 368
f 319 368 369
f 319 369 320
f 320 370 371
f 320 371 321
f 320 369 370
f 321 371 372
f 321 372 322
f 322 372 373
f 322 373 374
f 322 374 324
f 322 324 323
f 324 374 375
f 324 375 325
f 325 375 326
f 326 376 377
f 326 377 327
f 326 375 376
f 327 377 330
f 327 330 329
f 328 378 379
f 328 330 378
f 330 377 380
f 330 380 381
f 330 381 378
f 331 382 332
f 332 383 384
f 332 384 333
f 332 382 383
f 333 384 334
f 334 384 336
f 335 336 337
f 336 384 385
f 336 385 386
f 336 386 337
f 337 386 340
f 338 346 347
f 339 387 388
f 339 388 342
f 339 340 389
f 339 389 387
f 340 386 390
f 340 390 389
f 341 342 391
f 341 391 392
f 341 392 393
f 341 393 343
f 342 388 391
f 343 394 395
f 343 395 345
f 343 393 392
f 343 392 394
f 345 396 397
f 345 397 346
f 345 395 398
f 345 398 396
f 346 397 347
f 347 397 399
f 347 399 354
f 348 359 350
f 349 358 361
f 351 353 400
f 351 400 358
f 352 357 401
f 352 401 353
f 353 363 400
f 353 401 402
f 353 402 363
f 354 399 403
f 354 403 355
f 355 403 404
f 355 404 356
f 356 404 405
f 356 405 365
f 356 365 402
f 356 402 401
f 356 401 357
f 358 400 361
f 361 400 363
f 361 363 362
f 363 402 364
f 364 402 365
f 365 405 366
f 366 368 367
f 366 405 368
f 368 395 369
f 368 405 404
f 368 404 395
f 369 395 394
f 369 394 370
f 370 391 371
f 370 394 391
f 371 391 372
f 372 387 406
f 372 406 407
f 372 407 373
f 372 391 408
f 372 408 388
f 372 388 387
f 373 409 410
f 373 410 374
f 373 407 409
f 374 410 375
f 375 410 411
f 375 411 376
f 376 411 412
f 376 412 380
f 376 380 377
f 378 381 413
f 378 413 414
f 378 414 379
f 379 414 415
f 379 415 416
f 379 416 417
f 380 412 381
f 381 418 413
f 381 412 418
f 382 419 383
f 383 416 384
f 383 419 417
f 383 417 416
f 384 416 420
f 384 420 385
f 385 420 421
f 385 421 422
f 385 422 423
f 385 423 386
f 386 423 389
f 386 389 390
f 387 389 406
f 388 408 391
f 389 423 424
f 389 424 425
f 389 425 409
f 389 409 426
f 389 426 406
f 391 394 392
f 395 404 403
f 395 403 399
f 395 399 397
f 395 397 398
f 396 398 397
f 406 426 407
f 407 426 409
f 409 425 427
f 409 427 410
f 410 427 411
f 411 427 428
f 411 428 412
f 412 428 418
f 413 429 416
f 413 416 415
f 413 415 414
f 413 418 429
f 416 429 420
f 418 421 429
f 418 428 421
f 420 429 421
f 421 428 422
f 422 428 427
f 422 427 425
f 422 425 424
f 422 424 423

