# https://github.com/mikedh/trimesh
v -0.03881190 -0.01881453 0.09532744
v -0.03871695 -0.01881453 0.09717844
v -0.03878477 -0.01696462 0.09532744
v -0.03873245 -0.01696462 0.09347643
v -0.03866268 -0.01696462 0.09162542
v -0.03861036 -0.01696462 0.09038542
v -0.03870338 -0.01881453 0.09347643
v -0.03829447 -0.02082187 0.09523219
v -0.03838555 -0.02066443 0.09717844
v -0.03825959 -0.01881453 0.09894319
v -0.03823633 -0.01696462 0.09891264
v -0.03866850 -0.01696462 0.09717844
v -0.03812393 -0.02066443 0.09858557
v -0.03849795 -0.01511169 0.09717844
v -0.03856385 -0.01511169 0.09532744
v -0.03851734 -0.01511169 0.09347643
v -0.03843788 -0.01511169 0.09038542
v -0.03845726 -0.01881453 0.09038542
v -0.03856385 -0.01881453 0.09162542
v -0.03800183 -0.02169384 0.09578570
v -0.03825571 -0.02046158 0.09347643
v -0.03801347 -0.02171200 0.09717844
v -0.03797470 -0.02165145 0.09819740
v -0.03790300 -0.01881453 0.09986690
v -0.03789525 -0.01696462 0.09983635
v -0.03785843 -0.01511169 0.09972313
v -0.03817238 -0.01511169 0.09879943
v -0.03774409 -0.02066443 0.09951108
v -0.03807354 -0.01369777 0.09852268
v -0.03816269 -0.01315582 0.09722337
v -0.03830416 -0.01326482 0.09532744
v -0.03792238 -0.01063378 0.09162542
v -0.03814331 -0.01270167 0.09038542
v -0.03809098 -0.02005890 0.09038542
v -0.03791657 -0.02154548 0.09455109
v -0.03698441 -0.02206927 0.09038542
v -0.03666464 -0.02246892 0.09038542
v -0.03734293 -0.02239323 0.09523219
v -0.03628480 -0.02361035 0.09532744
v -0.03728285 -0.02263847 0.09717844
v -0.03608713 -0.02158484 0.10180058
v -0.03624411 -0.02356191 0.09843641
v -0.03697472 -0.02247800 0.09893421
v -0.03647085 -0.02207229 0.10056777
v -0.03732355 -0.01881453 0.10087867
v -0.03733518 -0.01696462 0.10087867
v -0.03729642 -0.01511169 0.10087867
v -0.03705611 -0.01326482 0.10087867
v -0.03680224 -0.02084609 0.10106197
v -0.03773634 -0.01315582 0.09909595
v -0.03790300 -0.01246551 0.09787033
v -0.03799796 -0.01215064 0.09663752
v -0.03804835 -0.01188723 0.09532744
v -0.03790300 -0.01066405 0.09347643
v -0.03805804 -0.01159052 0.09347643
v -0.03773827 -0.00956198 0.09162542
v -0.03774215 -0.00956198 0.09038542
v -0.03790494 -0.01076397 0.09038542
v -0.03794370 -0.01106976 0.09038542
v -0.03801928 -0.01168740 0.09038542
v -0.03762006 -0.02098536 0.09038542
v -0.03538171 -0.02374054 0.09038542
v -0.03506001 -0.02395550 0.09038542
v -0.03516272 -0.02424616 0.09532744
v -0.03635845 -0.02366182 0.09717844
v -0.03592047 -0.02330455 0.09966922
v -0.03538559 -0.02275352 0.10118238
v -0.03423057 -0.02343777 0.10179698
v -0.03473831 -0.02209349 0.10272968
v -0.03428871 -0.02164842 0.10370370
v -0.03452126 -0.02066443 0.10393912
v -0.03557357 -0.02084609 0.10271350
v -0.03630419 -0.02035258 0.10208632
v -0.03516272 -0.02429763 0.09717844
v -0.03524800 -0.02390403 0.09904383
v -0.03468599 -0.02369815 0.10056238
v -0.03643403 -0.01881453 0.10226243
v -0.03645535 -0.01696462 0.10230736
v -0.03645147 -0.01511169 0.10232713
v -0.03635845 -0.01326482 0.10223008
v -0.03620922 -0.01190237 0.10201803
v -0.03604062 -0.01066708 0.10167478
v -0.03649798 -0.01133619 0.10098649
v -0.03627124 -0.00992530 0.10044018
v -0.03723247 -0.01141189 0.09902945
v -0.03607551 -0.00682195 0.09802668
v -0.03769370 -0.01148455 0.09722337
v -0.03677511 -0.00771208 0.09532744
v -0.03736812 -0.00956198 0.09532744
v -0.03705224 -0.00771208 0.09347643
v -0.03728867 -0.00771208 0.09162542
v -0.03760843 -0.00956198 0.09347643
v -0.03736425 -0.00771208 0.09038542
v -0.03336236 -0.02489105 0.09038542
v -0.03349221 -0.02399486 0.10106017
v -0.03299609 -0.02368907 0.10226063
v -0.03199610 -0.02332878 0.10349524
v -0.03349221 -0.02303509 0.10281953
v -0.03210269 -0.02139107 0.10538578
v -0.03267439 -0.02015578 0.10572364
v -0.03331198 -0.02201174 0.10406492
v -0.03291276 -0.01881453 0.10595007
v -0.03383910 -0.01881453 0.10513240
v -0.03475963 -0.01881453 0.10420689
v -0.03568597 -0.01881453 0.10318794
v -0.03331198 -0.02485472 0.09717844
v -0.03331198 -0.02461856 0.09902945
v -0.03238563 -0.02528768 0.09038542
v -0.03573830 -0.01696462 0.10323286
v -0.03577318 -0.01511169 0.10325263
v -0.03575768 -0.01326482 0.10315559
v -0.03472087 -0.01141189 0.10434347
v -0.03452901 -0.00956198 0.10413680
v -0.03435847 -0.00821467 0.10387263
v -0.03417824 -0.00697939 0.10350962
v -0.03590497 -0.00941060 0.10098649
v -0.03540110 -0.00771208 0.10087867
v -0.03607163 -0.00869002 0.09990105
v -0.03627318 -0.00805723 0.09866824
v -0.03593985 -0.00754859 0.09918400
v -0.03467824 -0.00575318 0.10097751
v -0.03418987 -0.00506287 0.10165861
v -0.03536427 -0.00585915 0.09902945
v -0.03461041 -0.00427265 0.09902945
v -0.03581388 -0.00591365 0.09731682
v -0.03617046 -0.00656762 0.09679207
v -0.03628287 -0.00632844 0.09532744
v -0.03642046 -0.00610742 0.09347643
v -0.03654643 -0.00594695 0.09162542
v -0.03654837 -0.00575621 0.09038542
v -0.03146122 -0.02457920 0.10087867
v -0.03141277 -0.02382834 0.10281953
v -0.03086821 -0.02173622 0.10563199
v -0.03076162 -0.02349530 0.10373066
v -0.03147479 -0.02073104 0.10601117
v -0.03137595 -0.01878122 0.10690074
v -0.03185075 -0.01696462 0.10704810
v -0.03303679 -0.01696462 0.10612259
v -0.03396313 -0.01696462 0.10521326
v -0.03481389 -0.01696462 0.10428776
v -0.02540122 -0.02725263 0.09038542
v -0.01978114 -0.02868472 0.09038542
v -0.01901565 -0.02887849 0.09038542
v -0.01901565 -0.02873316 0.09120310
v -0.01901565 -0.02870591 0.09134867
v -0.01901565 -0.02864838 0.09164698
v -0.03484684 -0.01511169 0.10433808
v -0.03405809 -0.01326482 0.10530491
v -0.03483133 -0.01326482 0.10437941
v -0.03405421 -0.01141189 0.10526897
v -0.03393018 -0.00956198 0.10506231
v -0.03374027 -0.00764244 0.10452677
v -0.03295539 -0.00591970 0.10460584
v -0.03266276 -0.00454211 0.10400561
v -0.03396894 -0.00575318 0.10282672
v -0.03441468 -0.00629816 0.10227681
v -0.03303291 -0.00396080 0.10276742
v -0.03387980 -0.00400925 0.10097751
v -0.03439530 -0.00462689 0.10042580
v -0.03409685 -0.00334619 0.09902945
v -0.03421313 -0.00312517 0.09789908
v -0.03474025 -0.00384878 0.09724134
v -0.03587590 -0.00540197 0.09532744
v -0.03595729 -0.00518095 0.09347643
v -0.03603868 -0.00502049 0.09162542
v -0.03623248 -0.00518398 0.09038542
v -0.02961047 -0.02483050 0.10087867
v -0.02961047 -0.02416441 0.10272968
v -0.02961047 -0.02280196 0.10477837
v -0.02961047 -0.02187852 0.10575599
v -0.02961047 -0.02066443 0.10657007
v -0.02961047 -0.02358310 0.10385286
v -0.02961047 -0.01939887 0.10724398
v -0.03070348 -0.01814239 0.10743268
v -0.03092635 -0.01696462 0.10754589
v -0.03114728 -0.01511169 0.10768787
v -0.03207168 -0.01511169 0.10714514
v -0.03220928 -0.01326482 0.10721882
v -0.03308911 -0.01511169 0.10621964
v -0.03313368 -0.01326482 0.10629332
v -0.03401352 -0.01511169 0.10526358
v -0.01901565 -0.00403347 0.09038542
v -0.02772484 -0.02506060 0.10074928
v -0.01901565 -0.02774008 0.09324640
v -0.02592447 -0.02397367 0.10281594
v -0.02776166 -0.02428249 0.10272968
v -0.03312787 -0.01141189 0.10630051
v -0.03300578 -0.00956198 0.10616932
v -0.03273446 -0.00771208 0.10587639
v -0.03250191 -0.00657671 0.10562839
v -0.03215501 -0.00534445 0.10523842
v -0.03156393 -0.00386695 0.10470469
v -0.03220734 -0.00330985 0.10340898
v -0.03261818 -0.00280121 0.10217617
v -0.03279841 -0.00217448 0.10069357
v -0.03330810 -0.00215934 0.09902945
v -0.03374027 -0.00229861 0.09724134
v -0.03428677 -0.00300709 0.09666448
v -0.03506389 -0.00400925 0.09532744
v -0.03608132 -0.00494782 0.09061545
v -0.03591465 -0.00469047 0.09038542
v -0.02776166 -0.02276260 0.10481610
v -0.02776166 -0.02361943 0.10389060
v -0.02776166 -0.02183917 0.10571645
v -0.02776166 -0.02066443 0.10646404
v -0.02776166 -0.01922629 0.10717929
v -0.02776166 -0.01830285 0.10748839
v -0.02961047 -0.01847240 0.10754050
v -0.02961047 -0.01696462 0.10788375
v -0.02961047 -0.01511169 0.10818387
v -0.02961047 -0.01326482 0.10845882
v -0.03128487 -0.01326482 0.10781366
v -0.03131975 -0.01141189 0.10789633
v -0.03224610 -0.01141189 0.10722601
v -0.02083152 -0.00208365 0.09038542
v -0.02323652 0.00051711 0.09532744
v -0.02328497 0.00045353 0.09717844
v -0.02254467 -0.00046991 0.09717844
v -0.02161833 -0.00176877 0.09717844
v -0.02118229 -0.00289507 0.09854604
v -0.01901565 -0.00413338 0.09059568
v -0.01901565 -0.02705280 0.09391672
v -0.02316869 -0.02341052 0.10177003
v -0.02440318 -0.02376779 0.10225524
v -0.02531789 -0.02327125 0.10348985
v -0.02655043 -0.02354374 0.10378098
v -0.03211819 -0.00956198 0.10709482
v -0.03181393 -0.00771208 0.10680190
v -0.03063953 -0.00662212 0.10743447
v -0.03139727 -0.00598328 0.10636700
v -0.03092053 -0.00442706 0.10587100
v -0.03037790 -0.00319480 0.10540555
v -0.03097480 -0.00261046 0.10417274
v -0.03151355 -0.00208971 0.10281594
v -0.03082170 -0.00097553 0.10222290
v -0.03205424 -0.00156895 0.10118777
v -0.03238757 -0.00123288 0.09995316
v -0.03252322 -0.00108755 0.09902945
v -0.03435072 -0.00291323 0.09532744
v -0.03270927 -0.00088772 0.09717844
v -0.03369182 -0.00198677 0.09532744
v -0.03522474 -0.00400925 0.09347643
v -0.03443018 -0.00281937 0.09347643
v -0.03537009 -0.00400925 0.09162542
v -0.03551156 -0.00411521 0.09038542
v -0.02669772 -0.02168173 0.10557807
v -0.02682175 -0.01791228 0.10736439
v -0.02776166 -0.01696462 0.10782085
v -0.02776166 -0.01511169 0.10819824
v -0.02776166 -0.01326482 0.10854508
v -0.02776166 -0.01141189 0.10874456
v -0.02961047 -0.01141189 0.10862056
v -0.02961047 -0.00956198 0.10851453
v -0.03119379 -0.00956198 0.10784062
v -0.02279855 -0.00035485 0.09038542
v -0.02334505 0.00044445 0.09347643
v -0.02416093 0.00117412 0.09532744
v -0.02421132 0.00117412 0.09717844
v -0.02447876 0.00097429 0.09902945
v -0.02355241 0.00018710 0.09902945
v -0.02275397 -0.00073634 0.09902945
v -0.02174623 -0.00222898 0.09910853
v -0.02132763 -0.00320691 0.09977884
v -0.01901565 -0.00755161 0.09722697
v -0.01901565 -0.02674398 0.09417190
v -0.02273265 -0.02217524 0.10225704
v -0.02455046 -0.02203899 0.10400382
v -0.03088759 -0.00771208 0.10761778
v -0.02961047 -0.00771208 0.10811557
v -0.02961047 -0.00621339 0.10760340
v -0.02961047 -0.00528692 0.10716132
v -0.02969962 -0.00389117 0.10621245
v -0.02914342 -0.00284057 0.10571106
v -0.02973256 -0.00210787 0.10465257
v -0.03031977 -0.00137518 0.10345570
v -0.02966667 -0.00058798 0.10279617
v -0.02972287 0.00035059 0.10105299
v -0.03041473 0.00054133 0.09967281
v -0.03144766 -0.00075451 0.10069357
v -0.03134107 -0.00005209 0.09904563
v -0.03064341 0.00070483 0.09844001
v -0.03168796 0.00003874 0.09717844
v -0.03276547 -0.00084836 0.09532744
v -0.03449607 -0.00277396 0.09162542
v -0.03526738 -0.00377006 0.09038542
v -0.02546324 -0.02099747 0.10523842
v -0.02601168 -0.02049488 0.10580271
v -0.02497100 -0.01976521 0.10551697
v -0.02569579 -0.01696462 0.10685401
v -0.02531014 -0.01511169 0.10712358
v -0.02507565 -0.01393393 0.10729250
v -0.02662020 -0.01696462 0.10748300
v -0.02623648 -0.01511169 0.10770224
v -0.02577913 -0.01329812 0.10784421
v -0.02590897 -0.01141189 0.10819105
v -0.02590897 -0.00956198 0.10818027
v -0.02776166 -0.00956198 0.10866728
v -0.02776166 -0.00771208 0.10832224
v -0.02375202 0.00026582 0.09038542
v -0.02355241 0.00032940 0.09162542
v -0.02426946 0.00103484 0.09347643
v -0.02590897 0.00190378 0.09532744
v -0.02590897 0.00190984 0.09717844
v -0.02590897 0.00152230 0.09902945
v -0.02477526 0.00075933 0.10026945
v -0.02401946 -0.00028522 0.10090383
v -0.02297684 -0.00102700 0.10030360
v -0.02252529 -0.00208365 0.10090383
v -0.02284699 -0.00264982 0.10226603
v -0.02153499 -0.00389722 0.10098829
v -0.02132570 -0.00512948 0.10167837
v -0.02112609 -0.00444220 0.10044557
v -0.01901565 -0.00854469 0.09845079
v -0.01901565 -0.02065232 0.09897554
v -0.02331598 -0.02113977 0.10349165
v -0.02776166 -0.00591667 0.10772021
v -0.02776166 -0.00499021 0.10733024
v -0.02776166 -0.00272854 0.10580451
v -0.02776166 -0.00180208 0.10494010
v -0.02908722 -0.00102700 0.10389779
v -0.02776166 -0.00400925 0.10670306
v -0.02918025 0.00087438 0.10055339
v -0.02972287 0.00108026 0.09904563
v -0.02961047 0.00148899 0.09717844
v -0.03076356 0.00079566 0.09717844
v -0.03172091 0.00007507 0.09532744
v -0.03274221 -0.00091194 0.09347643
v -0.03450769 -0.00279212 0.09038542
v -0.02307761 -0.01990449 0.10371089
v -0.02389155 -0.01881453 0.10479814
v -0.02481790 -0.01881453 0.10565894
v -0.02452527 -0.01696462 0.10592851
v -0.02423651 -0.01511169 0.10619807
v -0.02315513 -0.01409440 0.10548283
v -0.02488573 -0.01270167 0.10744346
v -0.02479077 -0.01141189 0.10752792
v -0.02477139 -0.00956198 0.10754230
v -0.02486053 -0.00810568 0.10746323
v -0.02574618 -0.00757886 0.10779569
v -0.02625393 -0.00622852 0.10759082
v -0.02467837 0.00076841 0.09038542
v -0.02447682 0.00087741 0.09162542
v -0.02590897 0.00162221 0.09347643
v -0.02776166 0.00177965 0.09347643
v -0.02776166 0.00204608 0.09532744
v -0.02776166 0.00204608 0.09717844
v -0.02776166 0.00167671 0.09902945
v -0.02776166 0.00101971 0.10086609
v -0.02590897 0.00093190 0.10065223
v -0.02590897 0.00049895 0.10157774
v -0.02497100 -0.00122077 0.10366776
v -0.02461054 -0.00088167 0.10272968
v -0.02326365 -0.00141454 0.10153820
v -0.02363380 -0.00208365 0.10282133
v -0.02323459 -0.00327050 0.10349883
v -0.02248459 -0.00393658 0.10282133
v -0.02165321 -0.00579254 0.10267217
v -0.02119585 -0.00636174 0.10201803
v -0.01901565 -0.00955593 0.09906540
v -0.02291095 -0.00450578 0.10394451
v -0.01901565 -0.01695251 0.10078162
v -0.02577525 -0.00385786 0.10617651
v -0.02630044 -0.00285268 0.10569848
v -0.02590897 -0.00107241 0.10384028
v -0.02776166 -0.00092708 0.10401460
v -0.02776166 -0.00000667 0.10272968
v -0.02776166 0.00061097 0.10179159
v -0.02961047 0.00151624 0.09532744
v -0.03079457 0.00081988 0.09532744
v -0.03162401 0.00001452 0.09347643
v -0.03265695 -0.00100883 0.09162542
v -0.03319957 -0.00158711 0.09038542
v -0.03350577 -0.00186566 0.09038542
v -0.02359892 -0.01696462 0.10506950
v -0.02331017 -0.01511169 0.10533906
v -0.02302335 -0.01286214 0.10562480
v -0.02386442 -0.01141189 0.10665094
v -0.02384504 -0.00956198 0.10665274
v -0.02301947 -0.00815109 0.10562839
v -0.02401365 -0.00751225 0.10648201
v -0.02502138 -0.00687039 0.10733743
v -0.02574618 -0.00571079 0.10715952
v -0.02515123 0.00090465 0.09038542
v -0.02590897 0.00129220 0.09162542
v -0.02776166 0.00123770 0.09038542
v -0.02776166 0.00145569 0.09162542
v -0.02953683 0.00091979 0.09038542
v -0.02961047 0.00131642 0.09347643
v -0.02590897 -0.00026705 0.10272968
v -0.02506789 -0.00313728 0.10546845
v -0.02458728 -0.00215934 0.10409906
v -0.02393419 -0.00382153 0.10470648
v -0.02263963 -0.00585915 0.10430753
v -0.02149624 -0.00771208 0.10316637
v -0.01901565 -0.01328601 0.10079780
v -0.02463379 -0.00437257 0.10584225
v -0.02335668 -0.00585915 0.10523303
v -0.01901565 -0.01511169 0.10104041
v -0.03050193 0.00060189 0.09084548
v -0.03060077 0.00066850 0.09208008
v -0.03069961 0.00074419 0.09347643
v -0.03131588 0.00004783 0.09152658
v -0.03258137 -0.00107544 0.09038542
v -0.02293420 -0.01141189 0.10572544
v -0.02293033 -0.00956198 0.10572723
v -0.02249429 -0.00760611 0.10474422
v -0.02316482 -0.00691883 0.10546845
v -0.01901565 -0.01390668 0.10090383
v -0.02428302 -0.00585915 0.10620526
v -0.02590897 0.00106815 0.09038542
v -0.03013954 0.00069272 0.09038542
v -0.03043023 0.00057464 0.09038542
v -0.03141084 -0.00015806 0.09038542
f 1 2 3
f 1 3 4
f 1 4 5
f 1 5 6
f 1 6 7
f 1 7 8
f 1 8 9
f 1 9 2
f 2 10 11
f 2 11 12
f 2 12 3
f 2 9 13
f 2 13 10
f 3 12 14
f 3 14 15
f 3 15 16
f 3 16 17
f 3 17 4
f 4 17 5
f 5 17 6
f 6 17 33
f 6 33 60
f 6 60 59
f 6 59 58
f 6 58 57
f 6 57 93
f 6 93 130
f 6 130 166
f 6 166 201
f 6 201 245
f 6 245 285
f 6 285 328
f 6 328 373
f 6 373 372
f 6 372 403
f 6 403 413
f 6 413 412
f 6 412 411
f 6 411 387
f 6 387 385
f 6 385 410
f 6 410 383
f 6 383 341
f 6 341 299
f 6 299 255
f 6 255 215
f 6 215 182
f 6 182 143
f 6 143 142
f 6 142 141
f 6 141 108
f 6 108 94
f 6 94 63
f 6 63 62
f 6 62 37
f 6 37 36
f 6 36 61
f 6 61 34
f 6 34 18
f 6 18 19
f 6 19 7
f 7 19 8
f 8 20 9
f 8 19 21
f 8 21 20
f 9 20 22
f 9 22 23
f 9 23 13
f 10 13 24
f 10 24 25
f 10 25 11
f 11 25 26
f 11 26 27
f 11 27 12
f 12 27 14
f 13 23 28
f 13 28 24
f 14 27 29
f 14 29 30
f 14 30 31
f 14 31 15
f 15 31 32
f 15 32 16
f 16 33 17
f 16 32 33
f 18 34 21
f 18 21 19
f 20 21 34
f 20 34 35
f 20 35 36
f 20 36 37
f 20 37 38
f 20 38 39
f 20 39 40
f 20 40 22
f 22 40 23
f 23 41 28
f 23 40 42
f 23 42 43
f 23 43 44
f 23 44 41
f 24 28 45
f 24 45 46
f 24 46 25
f 25 46 47
f 25 47 26
f 26 47 48
f 26 48 29
f 26 29 27
f 28 41 49
f 28 49 45
f 29 48 50
f 29 50 51
f 29 51 30
f 30 51 52
f 30 52 53
f 30 53 31
f 31 53 54
f 31 54 55
f 31 55 32
f 32 55 54
f 32 54 56
f 32 56 57
f 32 57 58
f 32 58 59
f 32 59 60
f 32 60 33
f 34 61 35
f 35 61 36
f 37 62 39
f 37 39 38
f 39 62 63
f 39 63 64
f 39 64 65
f 39 65 40
f 40 65 42
f 41 44 66
f 41 66 67
f 41 67 68
f 41 68 69
f 41 69 70
f 41 70 71
f 41 71 72
f 41 72 73
f 41 73 49
f 42 65 74
f 42 74 75
f 42 75 76
f 42 76 66
f 42 66 43
f 43 66 44
f 45 49 73
f 45 73 77
f 45 77 78
f 45 78 46
f 46 78 79
f 46 79 47
f 47 79 80
f 47 80 48
f 48 80 81
f 48 81 82
f 48 82 83
f 48 83 50
f 50 83 84
f 50 84 85
f 50 85 51
f 51 85 86
f 51 86 87
f 51 87 52
f 52 87 86
f 52 86 88
f 52 88 89
f 52 89 90
f 52 90 91
f 52 91 92
f 52 92 54
f 52 54 53
f 54 92 91
f 54 91 93
f 54 93 56
f 56 93 57
f 63 94 64
f 64 94 74
f 64 74 65
f 66 76 68
f 66 68 67
f 68 76 95
f 68 95 96
f 68 96 97
f 68 97 98
f 68 98 70
f 68 70 69
f 70 99 100
f 70 100 71
f 70 98 101
f 70 101 99
f 71 100 102
f 71 102 103
f 71 103 104
f 71 104 73
f 71 73 72
f 73 104 105
f 73 105 77
f 74 106 107
f 74 107 75
f 74 94 108
f 74 108 106
f 75 107 76
f 76 107 95
f 77 105 109
f 77 109 78
f 78 109 110
f 78 110 79
f 79 110 111
f 79 111 80
f 80 111 112
f 80 112 113
f 80 113 81
f 81 113 114
f 81 114 82
f 82 84 83
f 82 114 115
f 82 115 116
f 82 116 84
f 84 116 117
f 84 117 118
f 84 118 85
f 85 118 119
f 85 119 86
f 86 120 121
f 86 121 122
f 86 122 123
f 86 123 124
f 86 124 125
f 86 125 126
f 86 126 90
f 86 90 88
f 86 119 120
f 88 90 89
f 90 126 127
f 90 127 91
f 91 127 128
f 91 128 129
f 91 129 130
f 91 130 93
f 95 107 131
f 95 131 96
f 96 131 132
f 96 132 97
f 97 133 99
f 97 99 101
f 97 101 98
f 97 132 134
f 97 134 133
f 99 135 100
f 99 133 135
f 100 135 136
f 100 136 102
f 102 136 137
f 102 137 138
f 102 138 103
f 103 138 139
f 103 139 104
f 104 139 140
f 104 140 105
f 105 140 109
f 106 108 141
f 106 141 142
f 106 142 143
f 106 143 107
f 107 143 144
f 107 144 145
f 107 145 146
f 107 146 131
f 109 140 147
f 109 147 110
f 110 147 148
f 110 148 149
f 110 149 111
f 111 149 150
f 111 150 112
f 112 150 151
f 112 151 113
f 113 151 114
f 114 151 152
f 114 152 115
f 115 152 153
f 115 153 154
f 115 154 155
f 115 155 122
f 115 122 156
f 115 156 117
f 115 117 116
f 117 156 120
f 117 120 118
f 118 120 119
f 120 156 121
f 121 156 122
f 122 155 157
f 122 157 158
f 122 158 159
f 122 159 123
f 123 159 124
f 124 159 160
f 124 160 161
f 124 161 162
f 124 162 125
f 125 163 127
f 125 127 126
f 125 162 163
f 127 163 128
f 128 163 129
f 129 163 164
f 129 164 165
f 129 165 130
f 130 165 166
f 131 167 168
f 131 168 132
f 131 146 167
f 132 168 134
f 133 134 169
f 133 169 170
f 133 170 171
f 133 171 135
f 134 168 172
f 134 172 169
f 135 171 173
f 135 173 174
f 135 174 136
f 136 174 137
f 137 174 175
f 137 175 176
f 137 176 177
f 137 177 138
f 138 177 178
f 138 178 179
f 138 179 139
f 139 179 180
f 139 180 181
f 139 181 140
f 140 181 148
f 140 148 147
f 143 182 221
f 143 221 264
f 143 264 313
f 143 313 359
f 143 359 395
f 143 395 408
f 143 408 398
f 143 398 361
f 143 361 314
f 143 314 265
f 143 265 222
f 143 222 184
f 143 184 146
f 143 146 145
f 143 145 144
f 146 183 167
f 146 184 185
f 146 185 186
f 146 186 183
f 148 181 180
f 148 180 187
f 148 187 150
f 148 150 149
f 150 187 188
f 150 188 151
f 151 188 189
f 151 189 152
f 152 189 190
f 152 190 153
f 153 190 191
f 153 191 154
f 154 192 193
f 154 193 157
f 154 157 155
f 154 191 192
f 157 193 194
f 157 194 158
f 158 160 159
f 158 194 195
f 158 195 160
f 160 195 196
f 160 196 161
f 161 196 197
f 161 197 198
f 161 198 162
f 162 198 199
f 162 199 163
f 163 199 164
f 164 199 165
f 165 200 166
f 165 199 200
f 166 200 201
f 167 183 168
f 168 183 186
f 168 186 172
f 169 202 170
f 169 172 203
f 169 203 202
f 170 204 171
f 170 202 204
f 171 205 173
f 171 204 205
f 172 186 203
f 173 206 207
f 173 207 208
f 173 208 174
f 173 205 206
f 174 208 209
f 174 209 210
f 174 210 211
f 174 211 175
f 175 211 176
f 176 211 212
f 176 212 177
f 177 212 178
f 178 180 179
f 178 212 213
f 178 213 214
f 178 214 180
f 180 214 187
f 182 215 216
f 182 216 217
f 182 217 218
f 182 218 219
f 182 219 220
f 182 220 221
f 184 222 223
f 184 223 224
f 184 224 185
f 185 224 225
f 185 225 226
f 185 226 186
f 186 226 203
f 187 214 188
f 188 214 227
f 188 227 189
f 189 228 190
f 189 227 228
f 190 228 229
f 190 229 230
f 190 230 191
f 191 230 231
f 191 231 192
f 192 232 233
f 192 233 193
f 192 231 232
f 193 233 234
f 193 234 194
f 194 234 235
f 194 235 236
f 194 236 237
f 194 237 195
f 195 237 196
f 196 237 238
f 196 238 197
f 197 239 198
f 197 238 240
f 197 240 241
f 197 241 239
f 198 239 199
f 199 239 242
f 199 242 200
f 200 242 239
f 200 239 243
f 200 243 244
f 200 244 201
f 201 244 245
f 202 203 226
f 202 226 204
f 204 226 246
f 204 246 205
f 205 246 206
f 206 247 207
f 206 246 247
f 207 247 248
f 207 248 208
f 208 248 209
f 209 248 249
f 209 249 250
f 209 250 210
f 210 250 211
f 211 250 251
f 211 251 252
f 211 252 212
f 212 252 213
f 213 252 253
f 213 253 254
f 213 254 214
f 214 254 227
f 215 255 256
f 215 256 216
f 216 256 257
f 216 257 258
f 216 258 217
f 217 258 259
f 217 259 260
f 217 260 261
f 217 261 218
f 218 261 219
f 219 262 220
f 219 261 262
f 220 262 263
f 220 263 264
f 220 264 221
f 222 265 223
f 223 266 267
f 223 267 225
f 223 225 224
f 223 265 266
f 225 267 246
f 225 246 226
f 227 254 268
f 227 268 228
f 228 268 229
f 229 268 269
f 229 269 270
f 229 270 271
f 229 271 232
f 229 232 231
f 229 231 230
f 232 271 272
f 232 272 273
f 232 273 274
f 232 274 275
f 232 275 233
f 233 275 234
f 234 275 235
f 235 275 276
f 235 276 277
f 235 277 278
f 235 278 279
f 235 279 236
f 236 279 237
f 237 279 278
f 237 278 280
f 237 280 238
f 238 280 281
f 238 281 282
f 238 282 240
f 239 241 243
f 240 282 283
f 240 283 241
f 241 284 243
f 241 283 284
f 243 284 285
f 243 285 245
f 243 245 244
f 246 286 287
f 246 287 247
f 246 267 286
f 247 287 288
f 247 288 289
f 247 289 290
f 247 290 291
f 247 291 292
f 247 292 249
f 247 249 248
f 249 292 250
f 250 292 293
f 250 293 294
f 250 294 295
f 250 295 251
f 251 295 296
f 251 296 297
f 251 297 252
f 252 297 253
f 253 297 298
f 253 298 269
f 253 269 268
f 253 268 254
f 255 299 300
f 255 300 256
f 256 300 301
f 256 301 257
f 257 301 302
f 257 302 303
f 257 303 258
f 258 303 259
f 259 303 304
f 259 304 305
f 259 305 260
f 260 306 307
f 260 307 261
f 260 305 306
f 261 307 262
f 262 307 263
f 263 307 308
f 263 308 309
f 263 309 310
f 263 310 311
f 263 311 312
f 263 312 313
f 263 313 264
f 265 314 266
f 266 314 315
f 266 315 267
f 267 315 288
f 267 288 286
f 269 298 316
f 269 316 270
f 270 316 317
f 270 317 271
f 271 317 273
f 271 273 272
f 273 318 319
f 273 319 320
f 273 320 274
f 273 317 321
f 273 321 318
f 274 320 275
f 275 320 276
f 276 320 322
f 276 322 277
f 277 322 278
f 278 322 323
f 278 323 281
f 278 281 280
f 281 323 324
f 281 324 325
f 281 325 282
f 282 326 283
f 282 325 326
f 283 327 328
f 283 328 284
f 283 326 327
f 284 328 285
f 286 288 287
f 288 315 329
f 288 329 330
f 288 330 331
f 288 331 291
f 288 291 290
f 288 290 289
f 291 294 293
f 291 293 292
f 291 331 332
f 291 332 333
f 291 333 334
f 291 334 335
f 291 335 294
f 294 335 295
f 295 336 337
f 295 337 296
f 295 335 336
f 296 337 338
f 296 338 339
f 296 339 297
f 297 339 298
f 298 339 340
f 298 340 316
f 299 341 342
f 299 342 301
f 299 301 300
f 301 342 302
f 302 343 344
f 302 344 345
f 302 345 303
f 302 342 341
f 302 341 343
f 303 346 347
f 303 347 304
f 303 345 346
f 304 347 348
f 304 348 349
f 304 349 305
f 305 349 350
f 305 350 351
f 305 351 352
f 305 352 306
f 306 352 353
f 306 353 307
f 307 353 308
f 308 353 309
f 309 353 354
f 309 354 355
f 309 355 356
f 309 356 310
f 310 356 311
f 311 357 358
f 311 358 359
f 311 359 313
f 311 313 312
f 311 356 360
f 311 360 357
f 314 361 315
f 315 361 329
f 316 340 317
f 317 340 362
f 317 362 363
f 317 363 321
f 318 321 363
f 318 363 319
f 319 363 364
f 319 364 365
f 319 365 320
f 320 365 366
f 320 366 367
f 320 367 322
f 322 367 348
f 322 348 347
f 322 347 323
f 323 347 324
f 324 347 346
f 324 346 368
f 324 368 369
f 324 369 325
f 325 369 326
f 326 370 327
f 326 369 370
f 327 370 371
f 327 371 372
f 327 372 373
f 327 373 328
f 329 361 330
f 330 361 374
f 330 374 331
f 331 374 332
f 332 374 375
f 332 375 333
f 333 375 334
f 334 376 335
f 334 375 361
f 334 361 376
f 335 376 377
f 335 377 336
f 336 377 337
f 337 377 378
f 337 378 338
f 338 378 379
f 338 379 380
f 338 380 381
f 338 381 339
f 339 381 340
f 340 382 362
f 340 381 382
f 341 383 343
f 343 384 385
f 343 385 386
f 343 386 344
f 343 383 384
f 344 386 387
f 344 387 345
f 345 387 388
f 345 388 368
f 345 368 346
f 348 367 349
f 349 367 350
f 350 366 389
f 350 389 351
f 350 367 366
f 351 389 364
f 351 364 363
f 351 363 390
f 351 390 391
f 351 391 355
f 351 355 354
f 351 354 353
f 351 353 352
f 355 390 392
f 355 392 360
f 355 360 356
f 355 391 390
f 357 360 393
f 357 393 394
f 357 394 395
f 357 395 358
f 358 395 359
f 360 392 396
f 360 396 397
f 360 397 393
f 361 398 376
f 361 375 374
f 362 390 363
f 362 382 390
f 364 389 365
f 365 389 366
f 368 388 399
f 368 399 400
f 368 400 401
f 368 401 369
f 369 401 370
f 370 402 403
f 370 403 371
f 370 401 402
f 371 403 372
f 376 398 404
f 376 404 377
f 377 404 378
f 378 405 379
f 378 404 405
f 379 406 407
f 379 407 380
f 379 405 408
f 379 408 395
f 379 395 406
f 380 407 381
f 381 407 409
f 381 409 396
f 381 396 390
f 381 390 382
f 383 410 384
f 384 410 385
f 385 387 386
f 387 411 388
f 388 411 412
f 388 412 399
f 390 396 392
f 393 397 407
f 393 407 406
f 393 406 394
f 394 406 395
f 396 409 397
f 397 409 407
f 398 408 405
f 398 405 404
f 399 412 413
f 399 413 400
f 400 413 402
f 400 402 401
f 402 413 403

