# https://github.com/mikedh/trimesh
v -0.00091018 -0.00057938 -0.00738308
v -0.00121118 -0.00424000 -0.00698037
v -0.00137411 -0.00072440 -0.00731786
v -0.00195125 0.00210009 -0.00732211
v -0.00195125 0.00210235 -0.00732211
v 0.00024411 0.00198112 -0.00724695
v 0.01042836 -0.00696818 -0.00685701
v 0.01040074 -0.00696818 -0.00685842
v 0.01034828 -0.00696818 -0.00685984
v 0.00600450 -0.00696818 -0.00691373
v 0.00238700 -0.00580803 -0.00697186
v 0.00231244 -0.00580803 -0.00696903
v -0.00035237 -0.00641190 -0.00648266
v -0.00459120 -0.00325658 -0.00637772
v -0.00189050 -0.00340953 -0.00698888
v -0.00353633 -0.00140532 -0.00700731
v -0.00240965 0.00327950 -0.00729375
v 0.00000110 0.00210235 -0.00725121
v 0.00028277 0.00210235 -0.00722427
v 0.01368964 -0.00696818 -0.00638340
v 0.00432002 -0.00696818 -0.00688395
v 0.00241461 -0.00585448 -0.00696761
v -0.00019773 -0.00696818 -0.00620756
v -0.00477346 -0.00556104 -0.00517526
v 0.00085991 -0.00696818 -0.00645855
v 0.00051749 -0.00696818 -0.00638198
v -0.00646623 -0.00440881 -0.00443365
v -0.00443104 0.00111780 -0.00643303
v -0.00351147 0.00210235 -0.00682581
v -0.00163921 0.00428331 -0.00639190
v -0.00011488 0.00460621 -0.00656490
v 0.00084058 0.00381540 -0.00688962
v -0.00386494 0.00256687 -0.00626145
v 0.01011907 0.00116086 -0.00579918
v 0.01553705 -0.00696818 -0.00594665
v -0.00038551 -0.00696818 -0.00601614
v -0.00638891 -0.00682883 -0.00077806
v -0.00613210 -0.00639943 -0.00329358
v -0.00772822 -0.00494131 -0.00129563
v -0.00404720 0.00210235 -0.00631675
v -0.00296194 0.00352422 -0.00547871
v -0.00287358 0.00360013 0.00597727
v -0.00159502 0.00430484 0.00604959
v -0.00027781 0.00459148 0.00525125
v 0.00119129 0.00446685 0.00523849
v 0.01002242 0.00340073 -0.00275049
v 0.01088952 0.00249436 -0.00433865
v -0.00389532 0.00248756 0.00625378
v 0.01124299 0.00092860 -0.00545886
v 0.01653394 -0.00696818 -0.00562335
v -0.00109796 -0.00696818 -0.00506182
v -0.00740237 -0.00528006 0.00181403
v -0.00517663 -0.00693646 0.00091928
v -0.00593879 -0.00671100 0.00213167
v -0.00724220 -0.00429098 0.00177008
v -0.00228815 0.00331463 0.00703084
v 0.00015022 0.00410770 0.00697128
v 0.01004175 0.00237653 0.00481593
v 0.00909457 0.00349590 0.00220540
v 0.01091990 0.00305404 0.00214584
v 0.01201067 0.00234594 -0.00243853
v 0.01270656 0.00101017 -0.00351196
v 0.01926502 -0.00696818 -0.00340986
v -0.00638339 -0.00340840 0.00358369
v -0.00573445 -0.00274562 0.00494780
v -0.00388703 0.00210235 0.00630908
v -0.00387875 0.00210235 0.00631475
v 0.01783458 -0.00696818 -0.00493846
v -0.00111729 -0.00696818 -0.00475270
v -0.00648556 -0.00487446 0.00373400
v -0.00596917 -0.00340840 0.00456920
v -0.00113110 -0.00696818 0.00457629
v -0.00105378 -0.00696818 0.00491235
v -0.00079144 -0.00696818 0.00570076
v -0.00480384 -0.00565508 0.00459756
v -0.00375448 -0.00072554 0.00675149
v -0.00136030 -0.00238986 0.00710316
v 0.00741009 -0.00696818 0.00694576
v 0.01076526 -0.00696818 0.00680254
v 0.01107454 -0.00696818 0.00678836
v 0.01164064 -0.00696818 0.00672597
v 0.01490744 -0.00696818 0.00635020
v 0.00947289 0.00063516 0.00578584
v 0.01153294 0.00099204 0.00524558
v 0.01201067 0.00227003 0.00263789
v 0.02048282 -0.00696818 -0.00137220
v -0.00506617 -0.00340840 0.00555754
v -0.00382628 -0.00092267 0.00673731
v -0.00469890 -0.00377435 0.00589077
v 0.00018888 -0.00696818 0.00626370
v -0.00257258 -0.00340840 0.00674866
v -0.00242898 -0.00370297 0.00674866
v 0.00118852 -0.00580803 0.00686635
v 0.00351091 -0.00580803 0.00702375
v 0.00381191 -0.00601762 0.00701808
v 0.00541355 -0.00696818 0.00695710
v 0.01515045 -0.00696818 0.00628355
v 0.01550668 -0.00696818 0.00615877
v 0.01735133 -0.00696818 0.00548381
v 0.01817700 -0.00696818 0.00501020
v 0.01941966 -0.00696818 0.00352272
v 0.01965438 -0.00696818 0.00319942
v 0.02033094 -0.00696818 0.00172754
v -0.00458568 -0.00340840 0.00600137
v -0.00288462 -0.00364066 0.00659126
v -0.00288462 -0.00456063 0.00622116
v -0.00288462 -0.00371770 0.00657708
v -0.00079973 -0.00580803 0.00643528
v 0.00142049 -0.00696818 0.00658417
v -0.00126641 -0.00525967 0.00651469
v 0.00060862 -0.00580803 0.00679120
v 0.00181261 -0.00664189 0.00680680
v 0.00281226 -0.00696818 0.00681105
v 0.00228206 -0.00696818 0.00674582
f 1 2 3
f 1 3 4
f 1 4 5
f 1 5 6
f 1 6 7
f 1 7 8
f 1 8 9
f 1 9 10
f 1 10 11
f 1 11 12
f 1 12 2
f 2 12 13
f 2 13 14
f 2 14 15
f 2 15 3
f 3 15 16
f 3 16 4
f 4 17 5
f 4 16 17
f 5 17 18
f 5 18 6
f 6 19 20
f 6 20 7
f 6 18 19
f 7 20 35
f 7 35 50
f 7 50 68
f 7 68 63
f 7 63 86
f 7 86 103
f 7 103 102
f 7 102 101
f 7 101 100
f 7 100 99
f 7 99 98
f 7 98 97
f 7 97 82
f 7 82 81
f 7 81 80
f 7 80 79
f 7 79 78
f 7 78 96
f 7 96 113
f 7 113 114
f 7 114 109
f 7 109 90
f 7 90 74
f 7 74 73
f 7 73 72
f 7 72 69
f 7 69 51
f 7 51 36
f 7 36 23
f 7 23 26
f 7 26 25
f 7 25 21
f 7 21 10
f 7 10 9
f 7 9 8
f 10 21 22
f 10 22 11
f 11 22 12
f 12 22 21
f 12 21 13
f 13 23 24
f 13 24 14
f 13 21 25
f 13 25 26
f 13 26 23
f 14 24 27
f 14 27 28
f 14 28 16
f 14 16 15
f 16 28 29
f 16 29 17
f 17 30 31
f 17 31 32
f 17 32 19
f 17 19 18
f 17 29 33
f 17 33 30
f 19 32 34
f 19 34 20
f 20 34 35
f 23 36 37
f 23 37 38
f 23 38 24
f 24 38 27
f 27 38 39
f 27 39 28
f 28 40 29
f 28 39 40
f 29 40 33
f 30 33 41
f 30 41 42
f 30 42 43
f 30 43 44
f 30 44 31
f 31 44 45
f 31 45 46
f 31 46 47
f 31 47 34
f 31 34 32
f 33 48 42
f 33 42 41
f 33 40 39
f 33 39 48
f 34 47 49
f 34 49 50
f 34 50 35
f 36 51 37
f 37 52 39
f 37 39 38
f 37 51 53
f 37 53 54
f 37 54 52
f 39 52 55
f 39 55 48
f 42 56 43
f 42 48 56
f 43 56 57
f 43 57 44
f 44 57 45
f 45 58 59
f 45 59 46
f 45 57 58
f 46 59 60
f 46 60 61
f 46 61 47
f 47 61 62
f 47 62 63
f 47 63 49
f 48 55 64
f 48 64 65
f 48 65 66
f 48 66 67
f 48 67 56
f 49 63 68
f 49 68 50
f 51 69 53
f 52 54 70
f 52 70 71
f 52 71 65
f 52 65 64
f 52 64 55
f 53 69 72
f 53 72 73
f 53 73 74
f 53 74 54
f 54 74 75
f 54 75 70
f 56 76 77
f 56 77 57
f 56 67 76
f 57 77 78
f 57 78 79
f 57 79 80
f 57 80 81
f 57 81 82
f 57 82 83
f 57 83 84
f 57 84 58
f 58 84 85
f 58 85 60
f 58 60 59
f 60 85 61
f 61 85 86
f 61 86 62
f 62 86 63
f 65 71 87
f 65 87 88
f 65 88 66
f 66 88 67
f 67 88 76
f 70 75 89
f 70 89 87
f 70 87 71
f 74 90 75
f 75 90 89
f 76 88 77
f 77 88 91
f 77 91 92
f 77 92 93
f 77 93 94
f 77 94 78
f 78 94 95
f 78 95 96
f 82 97 84
f 82 84 83
f 84 97 98
f 84 98 99
f 84 99 100
f 84 100 101
f 84 101 102
f 84 102 85
f 85 102 103
f 85 103 86
f 87 89 104
f 87 104 88
f 88 104 105
f 88 105 92
f 88 92 91
f 89 90 106
f 89 106 107
f 89 107 104
f 90 108 106
f 90 109 108
f 92 105 107
f 92 107 110
f 92 110 111
f 92 111 93
f 93 111 112
f 93 112 94
f 94 112 95
f 95 112 96
f 96 112 113
f 104 107 105
f 106 108 110
f 106 110 107
f 108 109 112
f 108 112 110
f 109 114 112
f 110 112 111
f 112 114 113

