# https://github.com/mikedh/trimesh
v 0.02048053 -0.00696865 -0.00137148
v 0.01926712 -0.00696865 -0.00340978
v 0.02033390 -0.00696865 0.00171451
v 0.02257742 -0.00743618 -0.00107253
v 0.01783376 -0.00696865 -0.00494122
v 0.02549180 -0.00808635 -0.00065807
v 0.02585473 -0.00876720 -0.00381472
v 0.02033023 -0.00696865 0.00172674
v 0.02588406 -0.00834350 0.00187214
v 0.01653237 -0.00696865 -0.00562473
v 0.03016582 -0.00973442 0.00140197
v 0.02841719 -0.00910471 -0.00106437
v 0.03022447 -0.00994920 -0.00176963
v 0.02809459 -0.00998865 -0.00425907
v 0.02513988 -0.00973588 -0.00541818
v 0.01965204 -0.00696865 0.00319840
v 0.02590605 -0.00872776 0.00343756
v 0.01962638 -0.00696865 0.00323508
v 0.01942109 -0.00696865 0.00352181
v 0.01817469 -0.00696865 0.00500977
v 0.01554624 -0.00696865 -0.00594678
v 0.02822656 -0.01008508 0.00437653
v 0.03278326 -0.01184857 0.00333156
v 0.03467853 -0.01272812 0.00154873
v 0.03155152 -0.01044596 0.00014230
v 0.03403700 -0.01227227 -0.00177234
v 0.03261830 -0.01211156 -0.00392615
v 0.03085867 -0.01224598 -0.00513826
v 0.02458266 -0.01086528 -0.00623351
v 0.01369863 -0.00696865 -0.00638434
v 0.01735353 -0.00696865 0.00548401
v 0.02432972 -0.00912955 0.00495269
v 0.02591705 -0.01033199 0.00559136
v 0.03195477 -0.01257033 0.00499890
v 0.03468953 -0.01403431 0.00377591
v 0.03596526 -0.01632816 0.00217245
v 0.03550702 -0.01425493 -0.00102904
v 0.03523208 -0.01442733 -0.00324400
v 0.03356776 -0.01470347 -0.00509749
v 0.03029779 -0.01364567 -0.00592097
v 0.03054340 -0.01561371 -0.00626476
v 0.02718911 -0.01406645 -0.00644821
v 0.02257742 -0.01246952 -0.00672542
v 0.01927445 -0.01132697 -0.00692381
v 0.01044332 -0.00696865 -0.00685723
v 0.01551325 -0.00696865 0.00615937
v 0.02461199 -0.01100554 0.00621100
v 0.03181913 -0.01350687 0.00565659
v 0.01515399 -0.00696865 0.00628302
v 0.01512100 -0.00696865 0.00629390
v 0.01490838 -0.00696865 0.00635097
v 0.03375839 -0.01562978 0.00517283
v 0.03511844 -0.01715074 0.00397974
v 0.03589560 -0.01937008 0.00110710
v 0.03621820 -0.01735674 -0.00140001
v 0.03508178 -0.01790464 -0.00399001
v 0.03238735 -0.01694911 -0.00587069
v 0.03009250 -0.01762704 -0.00628786
v 0.01801705 -0.01391158 -0.00684228
v 0.00600759 -0.00696865 -0.00691566
v 0.01044332 -0.00698326 -0.00685994
v 0.01041399 -0.00696865 -0.00685858
v 0.02910637 -0.01381076 0.00634146
v 0.01164940 -0.00696865 0.00672602
v 0.01112884 -0.00696865 0.00678445
v 0.03115561 -0.01604326 0.00632379
v 0.03213807 -0.01888501 0.00572045
v 0.03442558 -0.01958339 0.00381124
v 0.03395268 -0.02129867 0.00174848
v 0.03396368 -0.02128990 -0.00166092
v 0.03518442 -0.01978794 -0.00244226
v 0.03344312 -0.02026570 -0.00416803
v 0.03217106 -0.01909394 -0.00551195
v 0.02956828 -0.01941683 -0.00556630
v 0.01796206 -0.01597020 -0.00626884
v 0.01573320 -0.01476337 -0.00645772
v 0.00432128 -0.00696865 -0.00688576
v 0.01036634 -0.00696865 -0.00685994
v 0.02357821 -0.01242422 0.00658877
v 0.02770967 -0.01540477 0.00661459
v 0.01108485 -0.00696865 0.00678716
v 0.03040410 -0.01794847 0.00629797
v 0.03292990 -0.02102837 0.00359926
v 0.02986155 -0.01936569 0.00561718
v 0.03057640 -0.02075516 0.00434528
v 0.03084767 -0.02169315 0.00225534
v 0.03214540 -0.02189478 -0.00048414
v 0.03146721 -0.02126068 -0.00378618
v 0.01862192 -0.01761681 -0.00506896
v 0.01448313 -0.01633108 -0.00510836
v 0.01426685 -0.01516955 -0.00591825
v 0.00051975 -0.00696865 -0.00638298
v 0.00086068 -0.00696865 -0.00645908
v 0.01077325 -0.00696865 0.00680211
v 0.00884499 -0.00734414 0.00691626
v 0.00742263 -0.00696865 0.00694615
v 0.00541738 -0.00696865 0.00695838
v 0.01550592 -0.01310654 0.00669340
v 0.01742318 -0.01533026 0.00624498
v 0.01591283 -0.01646550 0.00547042
v 0.01756981 -0.01793678 0.00407351
v 0.03004851 -0.02170046 0.00056491
v 0.01719223 -0.01843792 0.00244422
v 0.02974791 -0.02146523 -0.00216641
v 0.01699793 -0.01804928 -0.00369922
v 0.01214063 -0.01635884 -0.00342337
v -0.00052136 -0.00918068 -0.00416667
v 0.00993376 -0.01393788 -0.00507711
v 0.00011284 -0.00806736 -0.00566414
v -0.00019510 -0.00696865 -0.00620633
v 0.00281460 -0.00696865 0.00681162
v 0.01308643 -0.01349225 0.00634417
v 0.01209664 -0.01440980 0.00561174
v 0.01228726 -0.01556549 0.00474615
v 0.01265385 -0.01651956 0.00362508
v 0.01757715 -0.01878712 -0.00014985
v 0.01415687 -0.01773370 0.00074564
v 0.01809770 -0.01873160 -0.00201558
v 0.01435116 -0.01769571 -0.00172614
v 0.01066694 -0.01612215 -0.00081162
v 0.00446425 -0.01267260 -0.00187426
v 0.00446425 -0.01266530 -0.00190959
v 0.00328750 -0.01200636 -0.00204819
v -0.00105291 -0.00954010 -0.00268822
v -0.00070832 -0.00930779 -0.00365030
v -0.00109691 -0.00696865 -0.00506216
v -0.00047004 -0.00830551 -0.00490046
v -0.00002647 -0.00830551 -0.00534345
v -0.00038572 -0.00696865 -0.00601745
v 0.00228305 -0.00696865 0.00674640
v 0.00141790 -0.00696865 0.00658469
v 0.00069938 -0.00756768 0.00617432
v -0.00000814 -0.00830551 0.00529513
v -0.00032340 -0.00863425 0.00490242
v -0.00056535 -0.00930779 0.00356121
v -0.00075964 -0.00983816 0.00249722
v 0.01100787 -0.01625073 0.00151340
v 0.00446425 -0.01286108 0.00055676
v 0.00446425 -0.01288007 -0.00043250
v -0.00013644 -0.01047518 -0.00015257
v 0.00308588 -0.01200636 -0.00141632
v -0.00011445 -0.01047518 -0.00023275
v -0.00123254 -0.00938815 0.00105138
v -0.00111523 -0.00696865 -0.00475234
v -0.00036373 -0.01035391 -0.00013763
v 0.00018982 -0.00696865 0.00626264
v -0.00078531 -0.00696865 0.00570143
v -0.00041505 -0.00830551 0.00506276
v -0.00105291 -0.00696865 0.00491193
v -0.00069732 -0.00992144 0.00207461
v -0.00013278 -0.01047518 -0.00010501
v -0.00112990 -0.00696865 0.00457629
f 1 2 5
f 1 5 10
f 1 10 21
f 1 21 30
f 1 30 45
f 1 45 62
f 1 62 78
f 1 78 60
f 1 60 77
f 1 77 93
f 1 93 92
f 1 92 110
f 1 110 129
f 1 129 126
f 1 126 144
f 1 144 152
f 1 152 149
f 1 149 147
f 1 147 146
f 1 146 131
f 1 131 130
f 1 130 111
f 1 111 97
f 1 97 96
f 1 96 94
f 1 94 81
f 1 81 65
f 1 65 64
f 1 64 51
f 1 51 50
f 1 50 49
f 1 49 46
f 1 46 31
f 1 31 20
f 1 20 19
f 1 19 18
f 1 18 16
f 1 16 8
f 1 8 3
f 1 3 4
f 1 4 2
f 2 4 6
f 2 6 7
f 2 7 5
f 3 8 9
f 3 9 6
f 3 6 4
f 5 7 10
f 6 9 11
f 6 11 12
f 6 12 7
f 7 12 13
f 7 13 14
f 7 14 15
f 7 15 10
f 8 16 9
f 9 17 11
f 9 16 18
f 9 18 19
f 9 19 20
f 9 20 17
f 10 15 21
f 11 13 12
f 11 17 22
f 11 22 23
f 11 23 24
f 11 24 25
f 11 25 13
f 13 25 26
f 13 26 27
f 13 27 14
f 14 27 28
f 14 28 15
f 15 28 29
f 15 29 30
f 15 30 21
f 17 20 22
f 20 31 22
f 22 31 32
f 22 32 33
f 22 33 34
f 22 34 23
f 23 34 35
f 23 35 24
f 24 35 36
f 24 36 37
f 24 37 26
f 24 26 25
f 26 37 38
f 26 38 27
f 27 38 39
f 27 39 28
f 28 39 40
f 28 40 29
f 29 40 41
f 29 41 42
f 29 42 43
f 29 43 44
f 29 44 45
f 29 45 30
f 31 46 33
f 31 33 32
f 33 47 48
f 33 48 34
f 33 46 49
f 33 49 50
f 33 50 51
f 33 51 47
f 34 48 35
f 35 48 52
f 35 52 53
f 35 53 36
f 36 54 55
f 36 55 37
f 36 53 54
f 37 55 38
f 38 55 56
f 38 56 39
f 39 57 41
f 39 41 40
f 39 56 57
f 41 58 44
f 41 44 43
f 41 43 42
f 41 57 58
f 44 59 60
f 44 60 61
f 44 61 45
f 44 58 59
f 45 61 62
f 47 63 48
f 47 51 64
f 47 64 65
f 47 65 63
f 48 63 66
f 48 66 52
f 52 66 67
f 52 67 53
f 53 67 68
f 53 68 54
f 54 68 69
f 54 69 70
f 54 70 71
f 54 71 55
f 55 71 56
f 56 71 72
f 56 72 73
f 56 73 57
f 57 73 58
f 58 73 74
f 58 74 75
f 58 75 59
f 59 75 76
f 59 76 77
f 59 77 60
f 60 78 61
f 61 78 62
f 63 65 79
f 63 79 80
f 63 80 66
f 65 81 79
f 66 80 82
f 66 82 67
f 67 83 68
f 67 82 84
f 67 84 85
f 67 85 83
f 68 83 69
f 69 83 86
f 69 86 87
f 69 87 70
f 70 87 88
f 70 88 72
f 70 72 71
f 72 88 73
f 73 88 74
f 74 88 89
f 74 89 75
f 75 89 90
f 75 90 91
f 75 91 76
f 76 91 92
f 76 92 93
f 76 93 77
f 79 81 80
f 80 81 94
f 80 94 95
f 80 95 96
f 80 96 97
f 80 97 98
f 80 98 82
f 82 98 99
f 82 99 84
f 83 85 86
f 84 99 100
f 84 100 85
f 85 100 101
f 85 101 86
f 86 102 87
f 86 101 103
f 86 103 102
f 87 102 104
f 87 104 88
f 88 104 105
f 88 105 89
f 89 105 90
f 90 105 106
f 90 106 107
f 90 107 108
f 90 108 109
f 90 109 91
f 91 109 110
f 91 110 92
f 94 96 95
f 97 111 98
f 98 111 112
f 98 112 99
f 99 112 100
f 100 112 113
f 100 113 114
f 100 114 115
f 100 115 101
f 101 115 103
f 102 103 116
f 102 116 104
f 103 115 117
f 103 117 116
f 104 116 118
f 104 118 105
f 105 118 119
f 105 119 106
f 106 120 121
f 106 121 122
f 106 122 123
f 106 123 124
f 106 124 125
f 106 125 107
f 106 119 120
f 107 125 126
f 107 126 127
f 107 127 128
f 107 128 108
f 108 128 109
f 109 128 110
f 110 128 129
f 111 130 112
f 112 130 131
f 112 131 132
f 112 132 113
f 113 132 133
f 113 133 134
f 113 134 114
f 114 134 115
f 115 134 135
f 115 135 136
f 115 136 137
f 115 137 117
f 116 117 119
f 116 119 118
f 117 137 120
f 117 120 119
f 120 137 138
f 120 138 139
f 120 139 140
f 120 140 141
f 120 141 121
f 121 141 123
f 121 123 122
f 123 141 142
f 123 142 124
f 124 143 144
f 124 144 126
f 124 126 125
f 124 142 145
f 124 145 143
f 126 129 127
f 127 129 128
f 131 146 132
f 132 146 147
f 132 147 148
f 132 148 133
f 133 148 134
f 134 148 136
f 134 136 135
f 136 148 147
f 136 147 149
f 136 149 143
f 136 143 150
f 136 150 137
f 137 150 138
f 138 150 151
f 138 151 140
f 138 140 139
f 140 151 145
f 140 145 142
f 140 142 141
f 143 149 152
f 143 152 144
f 143 145 150
f 145 151 150

