# https://github.com/mikedh/trimesh
v 0.02435208 0.01057327 0.00518252
v 0.02385626 0.01055296 0.00518252
v 0.01369692 0.00980349 0.00553949
v 0.01451356 0.00981478 0.00556180
v 0.01288028 0.00937684 0.00593583
v 0.01369692 0.00939490 0.00593977
v 0.02437638 0.01025498 0.00543056
v 0.02515413 0.00993442 0.00568779
v 0.02566939 0.00993442 0.00568910
v 0.02515413 0.01034076 0.00536495
v 0.02515413 0.01056650 0.00518252
v 0.03176986 0.00616001 -0.00130457
v 0.01158728 0.00616001 -0.00130457
v 0.01444550 0.01012630 0.00518252
v 0.01288028 0.00978543 0.00551587
v 0.00878252 0.00927300 0.00584790
v 0.01124215 0.00933621 0.00590040
v 0.00876308 0.00878765 0.00626655
v 0.00878252 0.00839486 0.00659858
v 0.01288028 0.00883957 0.00634529
v 0.02515413 0.00951454 0.00599751
v 0.02595132 0.00959355 0.00594108
v 0.02620895 0.00991411 0.00567335
v 0.02591730 0.01046717 0.00518252
v 0.03460378 0.00585978 -0.00130457
v 0.03418574 0.00591395 -0.00130457
v 0.04154519 -0.00006370 -0.00503697
v 0.00654649 -0.01020856 -0.00171272
v -0.00556695 0.00099052 0.00567729
v -0.00478920 0.00262940 0.00564973
v -0.00383159 0.00410124 0.00576916
v -0.00328717 0.00431344 0.00563923
v -0.00229554 0.00501550 0.00567860
v 0.00736313 0.00943779 0.00518121
v 0.00792213 0.00969965 0.00518121
v 0.00799991 0.00972448 0.00518121
v 0.00876308 0.00984864 0.00518384
v 0.00960402 0.00989830 0.00518252
v 0.01288028 0.01005407 0.00518252
v 0.04146255 -0.00008402 -0.00503697
v 0.04072369 -0.00028041 -0.00503697
v 0.03826406 -0.00094409 -0.00503697
v 0.01205879 0.00976512 0.00549225
v 0.00960402 0.00970191 0.00542006
v 0.00876308 0.00967482 0.00539907
v 0.00796102 0.00923688 0.00582165
v 0.00824782 0.00836777 0.00657890
v 0.00878252 0.00787565 0.00694505
v 0.02597563 0.00895470 0.00641091
v 0.02679227 0.00893890 0.00640304
v 0.02679227 0.00944908 0.00599226
v 0.02679227 0.00985767 0.00561430
v 0.02679227 0.01025498 0.00520483
v 0.02679227 0.01027303 0.00518252
v 0.02741446 0.01004052 0.00518252
v 0.03465239 0.00590267 -0.00045939
v 0.04219655 -0.00041134 -0.00503697
v 0.04158408 -0.00008402 -0.00503697
v 0.00637150 -0.01096028 -0.00171272
v 0.03745715 -0.00278164 -0.00503697
v -0.00558639 -0.00031427 0.00565761
v -0.00573708 -0.00031427 0.00609332
v -0.00568847 0.00050291 0.00609332
v -0.00560584 0.00112596 0.00609332
v -0.00549890 0.00153907 0.00609332
v -0.00523640 0.00214180 0.00609332
v -0.00489128 0.00278742 0.00609332
v -0.00397742 0.00425249 0.00631511
v -0.00312190 0.00502001 0.00645947
v -0.00284483 0.00485974 0.00591352
v -0.00312190 0.00502001 0.00657233
v -0.00273789 0.00516675 0.00687287
v -0.00248998 0.00515320 0.00743194
v 0.00747007 0.00917593 0.00576391
v -0.00187264 0.00523447 0.00748706
v 0.00960402 0.00736773 0.00729021
v 0.02597563 0.00854159 0.00664452
v 0.02679227 0.00852805 0.00663008
v 0.02731238 0.00843549 0.00657365
v 0.02742419 0.00930009 0.00588333
v 0.02762835 0.00992088 0.00518252
v 0.03468642 0.00594556 0.00036084
v 0.03467183 0.00592524 -0.00002106
v 0.04219655 -0.00041134 0.00609332
v 0.04382496 -0.00522642 0.00035822
v 0.04362567 -0.00476591 -0.00209724
v 0.04361108 -0.00478623 -0.00272850
v 0.04234238 -0.00113146 -0.00503697
v 0.03745715 -0.00490813 -0.00503697
v 0.00656593 -0.01160816 -0.00171272
v -0.00558153 -0.00158295 0.00566286
v -0.00559611 -0.00112695 0.00565236
v -0.00572736 -0.00112695 0.00609332
v -0.00583430 -0.00049938 0.00691224
v -0.00583430 -0.00031427 0.00691224
v -0.00561556 0.00112145 0.00667864
v -0.00474059 0.00337661 0.00732564
v -0.00474059 0.00337661 0.00729021
v -0.00471628 0.00333372 0.00674426
v -0.00397256 0.00424120 0.00691224
v -0.00304412 0.00495229 0.00711828
v -0.00392881 0.00419831 0.00733089
v -0.00351077 0.00435633 0.00740963
v -0.00273789 0.00464754 0.00751987
v -0.00187264 0.00460013 0.00765242
v 0.00960402 0.00695462 0.00740701
v 0.02597563 0.00684627 0.00737813
v 0.02597563 0.00725712 0.00725871
v 0.02597563 0.00787791 0.00699098
v 0.02679227 0.00787791 0.00694899
v 0.04154519 -0.00059194 0.00738470
v 0.04195351 -0.00072287 0.00732170
v 0.02786653 0.00976963 0.00518252
v 0.03468642 0.00594330 0.00117977
v 0.04207503 -0.00056711 0.00691224
v 0.04231808 -0.00113146 0.00609332
v 0.04363539 -0.00476365 0.00174803
v 0.04365969 -0.00473882 0.00117845
v 0.03463295 0.00589138 0.00181233
v 0.04378608 -0.00522642 0.00117845
v 0.04372289 -0.00587205 0.00117845
v 0.04372775 -0.00608650 0.00029129
v 0.04371802 -0.00610005 -0.00002237
v 0.04370344 -0.00611585 -0.00043052
v 0.04368400 -0.00590591 -0.00127832
v 0.04378122 -0.00522642 -0.00045939
v 0.04373261 -0.00522642 -0.00127832
v 0.04361108 -0.00499391 -0.00272850
v 0.04352845 -0.00525126 -0.00296604
v 0.04288681 -0.00440698 -0.00435322
v 0.04248821 -0.00404354 -0.00503697
v 0.03925083 -0.00585850 -0.00503697
v 0.00732910 -0.01231021 -0.00171272
v 0.00713952 -0.01218606 -0.00171272
v 0.00693050 -0.01201901 -0.00171272
v 0.00672634 -0.01180004 -0.00171272
v -0.00396284 -0.00403902 0.00565367
v -0.00563500 -0.00166196 0.00609332
v -0.00402117 -0.00411577 0.00609332
v -0.00582458 -0.00112695 0.00691224
v -0.00568361 -0.00112695 0.00743982
v -0.00567875 -0.00031427 0.00743850
v -0.00560098 0.00025008 0.00737289
v -0.00567389 0.00051646 0.00693586
v -0.00480378 0.00296125 0.00738601
v -0.00432741 0.00296125 0.00755137
v -0.00425450 0.00369942 0.00739388
v -0.00351077 0.00378069 0.00757630
v -0.00351077 0.00296125 0.00765242
v 0.01124215 0.00214180 0.00795427
v 0.01124215 0.00296350 0.00793327
v 0.01042551 0.00377843 0.00789521
v 0.01042551 0.00460013 0.00785978
v 0.01042551 0.00541958 0.00773773
v 0.00960402 0.00623676 0.00757762
v 0.02597563 0.00623902 0.00752118
v 0.02679227 0.00680789 0.00736632
v 0.02679227 0.00721649 0.00723246
v 0.03464753 0.00102438 0.00819050
v 0.03494404 0.00045325 0.00824562
v 0.03498293 -0.00031653 0.00832174
v 0.03625650 -0.00069352 0.00815506
v 0.04154519 -0.00091023 0.00738470
v 0.04195351 -0.00072513 0.00732170
v 0.04209447 -0.00105019 0.00689255
v 0.04366455 -0.00522642 0.00180840
v 0.04364511 -0.00574337 0.00171916
v 0.04359650 -0.00645898 -0.00002631
v 0.04343609 -0.00628064 0.00117845
v 0.04352359 -0.00638900 0.00051964
v 0.04359650 -0.00645898 -0.00013786
v 0.04357706 -0.00643415 -0.00068381
v 0.04364025 -0.00574563 -0.00191089
v 0.04364997 -0.00525126 -0.00215105
v 0.04357706 -0.00554021 -0.00245684
v 0.04295486 -0.00583819 -0.00358679
v 0.04309583 -0.00529415 -0.00380990
v 0.04286250 -0.00506615 -0.00427054
v 0.04263890 -0.00440698 -0.00476269
v 0.04244446 -0.00439118 -0.00503697
v 0.03944041 -0.00591268 -0.00503697
v 0.00765964 -0.01236439 -0.00171272
v 0.00726105 -0.01234408 -0.00127701
v 0.00685759 -0.01208222 -0.00127701
v -0.00443435 -0.00358754 0.00691224
v -0.00565445 -0.00168904 0.00691224
v -0.00354966 -0.00456274 0.00691224
v -0.00404548 -0.00415415 0.00691224
v 0.00678468 -0.01215220 -0.00045808
v -0.00561069 -0.00162132 0.00737420
v -0.00515377 -0.00191704 0.00748444
v -0.00514891 -0.00112695 0.00760518
v -0.00527043 -0.00049938 0.00756581
v -0.00514891 -0.00031427 0.00760255
v -0.00490586 0.00214180 0.00746606
v -0.00432741 0.00214180 0.00763011
v -0.00432741 0.00132461 0.00765111
v -0.00432741 -0.00112695 0.00765242
v -0.00432741 -0.00194865 0.00765111
v 0.03416144 -0.00031653 0.00837029
v 0.02597563 0.00541958 0.00768392
v 0.03416144 0.00050291 0.00832436
v 0.02679227 0.00623902 0.00749362
v 0.03416144 0.00113273 0.00819968
v 0.03416144 -0.00112695 0.00830599
v 0.03579957 -0.00098473 0.00819050
v 0.03625650 -0.00082671 0.00815506
v 0.03663079 -0.00195091 0.00791621
v 0.04054384 -0.00165970 0.00737026
v 0.04108826 -0.00151522 0.00731120
v 0.04197781 -0.00403225 0.00570616
v 0.04284306 -0.00495779 0.00422711
v 0.04116117 -0.00320603 0.00651984
v 0.04352845 -0.00522642 0.00221786
v 0.04285764 -0.00572757 0.00337013
v 0.04299861 -0.00590365 0.00281368
v 0.04322221 -0.00609553 0.00205119
v 0.04302777 -0.00660571 0.00117845
v 0.04359164 -0.00646124 -0.00002237
v 0.04236182 -0.00704139 0.00035822
v 0.04325624 -0.00662151 -0.00043052
v 0.04275556 -0.00644769 0.00238453
v 0.04290625 -0.00654024 0.00183858
v 0.04236182 -0.00693304 -0.00127832
v 0.04305694 -0.00660120 -0.00127832
v 0.04277500 -0.00645898 -0.00251327
v 0.04347012 -0.00631676 -0.00127832
v 0.04302777 -0.00610230 -0.00282561
v 0.04260487 -0.00638448 -0.00306053
v 0.04240557 -0.00606619 -0.00376003
v 0.04275070 -0.00561019 -0.00413406
v 0.04228891 -0.00475011 -0.00503697
v 0.03990705 -0.00593977 -0.00503697
v 0.00796588 -0.01239374 -0.00171272
v 0.00796588 -0.01245695 -0.00127701
v 0.00719786 -0.01235311 -0.00045808
v 0.00796588 -0.01248855 -0.00045808
v -0.00399201 -0.00409320 0.00739388
v 0.00681870 -0.01214768 0.00036215
v -0.00311704 -0.00482460 0.00733089
v -0.00487670 -0.00259427 0.00742932
v -0.00415242 -0.00358754 0.00745819
v -0.00351077 -0.00358754 0.00762486
v -0.00351077 -0.00276583 0.00765242
v -0.00268928 -0.00358754 0.00765242
v -0.00187264 -0.00440698 0.00765111
v 0.03252330 -0.00112695 0.00831780
v 0.03334480 -0.00112695 0.00832830
v 0.03334480 -0.00194639 0.00823774
v 0.03410310 -0.00194413 0.00819181
v 0.03504126 -0.00119918 0.00822593
v 0.03579957 -0.00139332 0.00811832
v 0.03579957 -0.00194639 0.00801333
v 0.03639260 -0.00195091 0.00794377
v 0.03498293 -0.00276583 0.00793327
v 0.03498293 -0.00358528 0.00774166
v 0.04077716 -0.00193962 0.00720621
v 0.03498293 -0.00427605 0.00747656
v 0.04072369 -0.00277261 0.00685581
v 0.04154519 -0.00414963 0.00578359
v 0.04154519 -0.00455823 0.00551456
v 0.04215767 -0.00496231 0.00498304
v 0.04238613 -0.00523320 0.00445809
v 0.04261945 -0.00550409 0.00391608
v 0.04072369 -0.00330987 0.00658415
v 0.04072369 -0.00372072 0.00631905
v 0.04235210 -0.00587205 0.00363917
v 0.04236182 -0.00696915 0.00117845
v 0.04184657 -0.00722650 0.00117845
v 0.04143825 -0.00741838 0.00117845
v 0.04190490 -0.00725359 0.00035822
v 0.04236182 -0.00703462 -0.00045939
v 0.04243474 -0.00632127 0.00285699
v 0.04100076 -0.00638900 0.00392920
v 0.04132645 -0.00654024 0.00338325
v 0.04157921 -0.00669826 0.00285699
v 0.04098618 -0.00721747 0.00228348
v 0.04129728 -0.00734840 0.00173622
v 0.04243474 -0.00670504 0.00206562
v 0.04177365 -0.00719715 -0.00127832
v 0.04122923 -0.00731454 -0.00209724
v 0.04163755 -0.00712266 -0.00209724
v 0.04236182 -0.00676599 -0.00209724
v 0.04113687 -0.00727616 -0.00251064
v 0.04206045 -0.00649961 -0.00338731
v 0.04237641 -0.00610230 -0.00372984
v 0.04220628 -0.00574789 -0.00427579
v 0.04154519 -0.00534155 -0.00503697
v 0.04214308 -0.00500294 -0.00503697
v 0.04011608 -0.00587882 -0.00503697
v 0.04034454 -0.00646349 -0.00415768
v 0.03990705 -0.00622872 -0.00462882
v 0.03148792 -0.00976610 -0.00171272
v 0.02486734 -0.01056749 -0.00171272
v 0.01763427 -0.01140047 -0.00171272
v 0.01206365 -0.01200998 -0.00171272
v 0.01019705 -0.01220637 -0.00171272
v 0.00960888 -0.01230119 -0.00127701
v 0.01042551 -0.01227410 -0.00045808
v 0.00960888 -0.01235085 -0.00045808
v 0.00722702 -0.01232602 0.00036215
v 0.01206365 -0.01214317 0.00036215
v 0.01115951 -0.01221766 0.00036215
v 0.01042065 -0.01227635 0.00036215
v 0.00960888 -0.01233505 0.00036215
v 0.00797074 -0.01245920 -0.00001844
v 0.00751868 -0.01220863 0.00328089
v 0.00746035 -0.01223346 0.00281499
v 0.00738257 -0.01226507 0.00199607
v -0.00343786 -0.00437989 0.00743588
v 0.00689648 -0.01210479 0.00118108
v -0.00147891 -0.00564405 0.00733220
v -0.00268928 -0.00492167 0.00740963
v -0.00268928 -0.00440698 0.00757499
v -0.00105114 -0.00522417 0.00755399
v -0.00023451 -0.00522417 0.00758812
v 0.00904987 -0.00899180 0.00735057
v 0.00960402 -0.00850194 0.00742801
v 0.03252330 -0.00194639 0.00824562
v 0.03334480 -0.00241368 0.00815506
v 0.03378228 -0.00237079 0.00814456
v 0.00960402 -0.00900535 0.00735714
v 0.03252330 -0.00245205 0.00816556
v 0.03416144 -0.00358528 0.00783353
v 0.03418574 -0.00447245 0.00750544
v 0.03447253 -0.00479300 0.00730464
v 0.03498293 -0.00468690 0.00724296
v 0.04154033 -0.00501423 0.00518252
v 0.04089868 -0.00471173 0.00561167
v 0.04207017 -0.00569823 0.00413918
v 0.04154033 -0.00511807 0.00510509
v 0.04108826 -0.00561922 0.00484656
v 0.04154033 -0.00552892 0.00472057
v 0.03894945 -0.00411352 0.00657233
v 0.03949388 -0.00399613 0.00650147
v 0.04066536 -0.00442504 0.00587152
v 0.04149658 -0.00743870 0.00035822
v 0.04072369 -0.00769604 0.00117845
v 0.04166671 -0.00734614 -0.00002237
v 0.04145283 -0.00740484 -0.00045939
v 0.04136533 -0.00737098 -0.00127832
v 0.04045634 -0.00651767 0.00413000
v 0.04072369 -0.00665763 0.00364573
v 0.04071883 -0.00707751 0.00279137
v 0.04044176 -0.00732131 0.00250396
v 0.04071883 -0.00744547 0.00200263
v 0.04072369 -0.00751771 -0.00209724
v 0.04072369 -0.00736420 -0.00264713
v 0.04072369 -0.00711363 -0.00305791
v 0.04154519 -0.00658314 -0.00350280
v 0.04154519 -0.00628064 -0.00391227
v 0.04154519 -0.00610230 -0.00413931
v 0.04154519 -0.00587205 -0.00443065
v 0.04108826 -0.00561696 -0.00494248
v 0.04154519 -0.00552215 -0.00484012
v 0.04103965 -0.00555149 -0.00503697
v 0.04055356 -0.00573886 -0.00503697
v 0.04088896 -0.00638448 -0.00404482
v 0.04066050 -0.00665989 -0.00375740
v 0.03190596 -0.00968483 -0.00171272
v 0.03200804 -0.00971418 -0.00151848
v 0.03088031 -0.00991058 -0.00127701
v 0.03006853 -0.01000990 -0.00127701
v 0.02539718 -0.01053137 -0.00153948
v 0.02187300 -0.01098511 -0.00127701
v 0.01813981 -0.01136210 -0.00159460
v 0.02107095 -0.01107541 -0.00127701
v 0.01615655 -0.01160816 -0.00127701
v 0.01070259 -0.01217703 -0.00150405
v 0.01119354 -0.01214542 -0.00124945
v 0.01145117 -0.01216800 -0.00045808
v 0.01206365 -0.01212511 -0.00001844
v 0.02107095 -0.01114087 -0.00045808
v 0.01288028 -0.01205513 0.00036215
v 0.01206365 -0.01209350 0.00118108
v 0.01105257 -0.01220186 0.00095273
v 0.00960888 -0.01227635 0.00118108
v 0.00797074 -0.01243212 0.00036215
v 0.00774714 -0.01220863 0.00328089
v 0.00845198 -0.01132598 0.00518252
v 0.00812143 -0.01141853 0.00497517
v 0.00758187 -0.01136436 0.00485705
v 0.00797074 -0.01234408 0.00158267
v 0.00797074 -0.01231247 0.00199607
v -0.00105114 -0.00569371 0.00738732
v -0.00179973 -0.00522191 0.00745950
v 0.00810685 -0.01075485 0.00592927
v 0.00819921 -0.00996475 0.00669176
v 0.00878252 -0.01005054 0.00677838
v 0.00878252 -0.00928978 0.00718259
v 0.00960402 -0.00941394 0.00713928
v 0.03334480 -0.00282001 0.00805532
v 0.03334480 -0.00440472 0.00759205
v 0.01013386 -0.00895117 0.00734139
v 0.03334480 -0.00490813 0.00737420
v 0.03393297 -0.00485846 0.00734926
v 0.03231428 -0.00649961 0.00653821
v 0.03285871 -0.00643415 0.00648834
v 0.03416144 -0.00624452 0.00635710
v 0.03481766 -0.00572757 0.00656971
v 0.03504612 -0.00530092 0.00680594
v 0.03916819 -0.00439569 0.00633086
v 0.04035426 -0.00483138 0.00569435
v 0.04154033 -0.00583819 0.00430979
v 0.04116117 -0.00516773 0.00518252
v 0.04079661 -0.00530995 0.00518252
v 0.04067508 -0.00535510 0.00518252
v 0.03990705 -0.00532575 0.00543450
v 0.03498293 -0.00664634 0.00583084
v 0.03416144 -0.00720844 0.00561823
v 0.04147713 -0.00742290 -0.00002237
v 0.04072369 -0.00772765 0.00035822
v 0.03528917 -0.00889022 0.00228742
v 0.03543014 -0.00893763 0.00174147
v 0.03498293 -0.00911596 0.00118108
v 0.03498293 -0.00918369 0.00036084
v 0.03498293 -0.00920400 -0.00002106
v 0.03497807 -0.00922432 -0.00045808
v 0.04072369 -0.00770282 -0.00002237
v 0.04072369 -0.00761252 -0.00127832
v 0.03429268 -0.00751094 0.00518252
v 0.03535236 -0.00808432 0.00403026
v 0.03500238 -0.00876606 0.00278349
v 0.03558569 -0.00899406 -0.00127701
v 0.03497807 -0.00915660 -0.00127701
v 0.03547389 -0.00894891 -0.00171272
v 0.03497807 -0.00907081 -0.00171272
v 0.03247469 -0.00965323 -0.00125863
v 0.03217332 -0.00974353 -0.00097122
v 0.03171639 -0.00978867 -0.00125863
v 0.03088031 -0.00997604 -0.00045808
v 0.03006853 -0.01007537 -0.00045808
v 0.02568883 -0.01056749 -0.00099353
v 0.02268964 -0.01088804 -0.00127701
v 0.02187300 -0.01105057 -0.00045808
v 0.01206365 -0.01205061 -0.00127701
v 0.02231049 -0.01100543 -0.00002106
v 0.02269450 -0.01096253 0.00036084
v 0.01288028 -0.01200321 0.00118108
v 0.01129076 -0.01216348 0.00120864
v 0.00925403 -0.01219734 0.00244490
v 0.01072203 -0.01218154 0.00149999
v 0.00878738 -0.01226507 0.00199607
v 0.00878738 -0.01196032 0.00363260
v 0.00878738 -0.01163299 0.00445153
v 0.00878738 -0.01141628 0.00496992
v 0.00878738 -0.01132372 0.00518121
v 0.00878252 -0.01123342 0.00538069
v 0.00799991 -0.01224024 0.00285436
v 0.00828670 -0.01218154 0.00315359
v 0.02985951 -0.00975933 0.00247640
v 0.00878252 -0.01082483 0.00601195
v 0.00878252 -0.01046139 0.00642141
v 0.00960402 -0.00997378 0.00672982
v 0.03170667 -0.00695561 0.00622718
v 0.03311147 -0.00730100 0.00571010
v 0.03365590 -0.00725585 0.00566679
v 0.03416144 -0.00679759 0.00594764
v 0.03504612 -0.00601878 0.00628886
v 0.03990705 -0.00491716 0.00575997
v 0.03282954 -0.00807755 0.00484131
v 0.03411283 -0.00756060 0.00518121
v 0.03415657 -0.00754931 0.00518121
v 0.03473989 -0.00894891 0.00248952
v 0.03415657 -0.00917466 0.00199607
v 0.03500238 -0.00900309 0.00200657
v 0.03415657 -0.00929656 0.00118108
v 0.03415657 -0.00936428 0.00036084
v 0.03334480 -0.00954036 0.00036084
v 0.03415657 -0.00939137 -0.00045808
v 0.03267399 -0.00968258 0.00036084
v 0.03415657 -0.00793985 0.00463395
v 0.03480794 -0.00814527 0.00412081
v 0.03136640 -0.00892860 0.00406569
v 0.03191083 -0.00887216 0.00395020
v 0.03504126 -0.00831909 0.00370741
v 0.03415657 -0.00883153 0.00303022
v 0.03334480 -0.00955390 -0.00045808
v 0.03225595 -0.00975933 -0.00045808
v 0.03170180 -0.00985414 -0.00045808
v 0.03266427 -0.00968258 -0.00045808
v 0.03170180 -0.00986317 -0.00002106
v 0.03088517 -0.00998733 0.00036084
v 0.02842554 -0.01028305 -0.00002106
v 0.02760890 -0.01037335 -0.00045808
v 0.02313198 -0.01091061 -0.00002106
v 0.02515413 -0.01067810 0.00036084
v 0.02577633 -0.01057877 0.00091335
v 0.01124215 -0.01205061 0.00199607
v 0.02269450 -0.01089255 0.00118108
v 0.00960888 -0.01185873 0.00363260
v 0.02796861 -0.00972772 0.00321002
v 0.02107095 -0.01092416 0.00199607
v 0.02679713 -0.01024467 0.00199607
v 0.02376391 -0.01053137 0.00232022
v 0.03040394 -0.00972321 0.00236616
v 0.03088517 -0.00949295 0.00281499
v 0.03088031 -0.00823783 0.00504079
v 0.03006367 -0.00824686 0.00518252
v 0.03006367 -0.00795565 0.00553162
v 0.03170667 -0.00741161 0.00581772
v 0.03089003 -0.00811818 0.00518252
v 0.03228998 -0.00812270 0.00489905
v 0.03334480 -0.00802789 0.00476650
v 0.03306773 -0.00893763 0.00328351
v 0.03415657 -0.00900309 0.00262207
v 0.03251844 -0.00922432 0.00281499
v 0.03170180 -0.00936879 0.00281499
v 0.03088517 -0.00969161 0.00222573
v 0.03167750 -0.00963066 0.00195932
v 0.03334480 -0.00932816 0.00199607
v 0.03192541 -0.00970289 0.00141075
v 0.03218790 -0.00975030 0.00086348
v 0.03334480 -0.00946586 0.00118108
v 0.03226567 -0.00976384 0.00036084
v 0.03088517 -0.00916788 0.00363260
v 0.03166292 -0.00903921 0.00365885
v 0.03170180 -0.00986543 0.00036084
v 0.02759918 -0.01038689 0.00036084
v 0.03088517 -0.00990155 0.00118108
v 0.02679713 -0.01048396 0.00036084
v 0.02511038 -0.01060812 0.00118370
v 0.02432777 -0.01070067 0.00118108
v 0.02842554 -0.01020630 0.00118108
v 0.02679713 -0.01040721 0.00118108
v 0.02480414 -0.01055846 0.00162598
v 0.02534857 -0.01052685 0.00145799
v 0.02842554 -0.01004828 0.00199607
v 0.03138098 -0.00975030 0.00166404
v 0.03167750 -0.00979093 0.00115483
f 1 2 3
f 1 3 4
f 1 4 5
f 1 5 6
f 1 6 7
f 1 7 8
f 1 8 9
f 1 9 10
f 1 10 11
f 1 11 12
f 1 12 13
f 1 13 2
f 2 13 14
f 2 14 3
f 3 14 15
f 3 15 16
f 3 16 17
f 3 17 5
f 3 5 4
f 5 17 18
f 5 18 19
f 5 19 6
f 6 19 20
f 6 20 8
f 6 8 7
f 8 20 21
f 8 21 9
f 9 11 10
f 9 21 22
f 9 22 23
f 9 23 11
f 11 23 24
f 11 24 25
f 11 25 26
f 11 26 12
f 12 26 27
f 12 27 13
f 13 28 29
f 13 29 30
f 13 30 31
f 13 31 32
f 13 32 33
f 13 33 34
f 13 34 35
f 13 35 36
f 13 36 37
f 13 37 38
f 13 38 39
f 13 39 14
f 13 27 40
f 13 40 41
f 13 41 42
f 13 42 28
f 14 39 15
f 15 39 38
f 15 38 43
f 15 43 16
f 16 44 45
f 16 45 46
f 16 46 18
f 16 18 17
f 16 43 44
f 18 46 47
f 18 47 19
f 19 47 48
f 19 48 49
f 19 49 20
f 20 49 21
f 21 49 22
f 22 49 50
f 22 50 23
f 23 50 51
f 23 51 52
f 23 52 24
f 24 52 53
f 24 53 54
f 24 54 25
f 25 54 55
f 25 55 56
f 25 56 57
f 25 57 58
f 25 58 27
f 25 27 26
f 27 58 57
f 27 57 88
f 27 88 131
f 27 131 180
f 27 180 232
f 27 232 289
f 27 289 288
f 27 288 356
f 27 356 357
f 27 357 290
f 27 290 233
f 27 233 181
f 27 181 132
f 27 132 89
f 27 89 60
f 27 60 42
f 27 42 41
f 27 41 40
f 28 59 29
f 28 42 60
f 28 60 59
f 29 61 62
f 29 62 63
f 29 63 64
f 29 64 65
f 29 65 66
f 29 66 30
f 29 59 61
f 30 66 67
f 30 67 31
f 31 68 69
f 31 69 70
f 31 70 33
f 31 33 32
f 31 67 68
f 33 70 69
f 33 69 34
f 34 69 35
f 35 69 71
f 35 71 72
f 35 72 73
f 35 73 36
f 36 73 74
f 36 74 46
f 36 46 37
f 37 46 45
f 37 45 38
f 38 45 44
f 38 44 43
f 46 74 73
f 46 73 75
f 46 75 47
f 47 75 48
f 48 76 49
f 48 75 76
f 49 77 50
f 49 76 77
f 50 78 79
f 50 79 80
f 50 80 51
f 50 77 78
f 51 80 52
f 52 80 55
f 52 55 53
f 53 55 54
f 55 80 81
f 55 81 82
f 55 82 83
f 55 83 56
f 56 83 57
f 57 84 85
f 57 85 86
f 57 86 87
f 57 87 88
f 57 83 82
f 57 82 84
f 59 60 89
f 59 89 90
f 59 90 91
f 59 91 92
f 59 92 61
f 61 92 62
f 62 93 94
f 62 94 95
f 62 95 63
f 62 92 93
f 63 95 64
f 64 96 65
f 64 95 96
f 65 96 97
f 65 97 98
f 65 98 66
f 66 98 99
f 66 99 67
f 67 99 68
f 68 100 71
f 68 71 69
f 68 99 98
f 68 98 97
f 68 97 100
f 71 101 72
f 71 100 102
f 71 102 101
f 72 101 73
f 73 101 102
f 73 102 103
f 73 103 104
f 73 104 105
f 73 105 75
f 75 105 106
f 75 106 76
f 76 106 107
f 76 107 108
f 76 108 109
f 76 109 77
f 77 109 78
f 78 109 110
f 78 110 79
f 79 110 111
f 79 111 112
f 79 112 80
f 80 112 81
f 81 112 113
f 81 113 114
f 81 114 82
f 82 114 84
f 84 115 116
f 84 116 117
f 84 117 118
f 84 118 85
f 84 114 119
f 84 119 113
f 84 113 115
f 85 120 121
f 85 121 122
f 85 122 123
f 85 123 124
f 85 124 125
f 85 125 126
f 85 126 87
f 85 87 86
f 85 118 120
f 87 126 127
f 87 127 128
f 87 128 129
f 87 129 130
f 87 130 88
f 88 130 131
f 89 132 133
f 89 133 134
f 89 134 135
f 89 135 136
f 89 136 90
f 90 136 137
f 90 137 91
f 91 138 93
f 91 93 92
f 91 137 139
f 91 139 138
f 93 140 94
f 93 138 140
f 94 140 141
f 94 141 95
f 95 141 142
f 95 142 143
f 95 143 144
f 95 144 96
f 96 143 97
f 96 144 143
f 97 145 146
f 97 146 147
f 97 147 102
f 97 102 100
f 97 143 145
f 102 147 103
f 103 147 148
f 103 148 104
f 104 148 105
f 105 148 149
f 105 149 150
f 105 150 151
f 105 151 152
f 105 152 153
f 105 153 154
f 105 154 155
f 105 155 106
f 106 155 107
f 107 156 157
f 107 157 108
f 107 155 156
f 108 157 158
f 108 158 110
f 108 110 109
f 110 158 159
f 110 159 111
f 111 159 160
f 111 160 161
f 111 161 162
f 111 162 207
f 111 207 163
f 111 163 164
f 111 164 112
f 112 164 165
f 112 165 115
f 112 115 113
f 113 119 114
f 115 165 166
f 115 166 116
f 116 166 117
f 117 166 120
f 117 120 118
f 120 166 167
f 120 167 121
f 121 168 122
f 121 167 169
f 121 169 170
f 121 170 168
f 122 168 171
f 122 171 123
f 123 171 124
f 124 171 172
f 124 172 125
f 125 173 127
f 125 127 126
f 125 172 173
f 127 173 174
f 127 174 128
f 128 174 173
f 128 173 175
f 128 175 129
f 129 175 176
f 129 176 177
f 129 177 130
f 130 178 179
f 130 179 131
f 130 177 178
f 131 179 180
f 132 181 133
f 133 182 183
f 133 183 184
f 133 184 134
f 133 181 182
f 134 184 135
f 135 184 137
f 135 137 136
f 137 184 139
f 138 139 185
f 138 185 186
f 138 186 140
f 139 187 188
f 139 188 185
f 139 184 189
f 139 189 187
f 140 186 190
f 140 190 141
f 141 190 191
f 141 191 192
f 141 192 193
f 141 193 142
f 142 193 194
f 142 194 195
f 142 195 145
f 142 145 143
f 145 195 146
f 146 196 148
f 146 148 147
f 146 195 196
f 148 196 149
f 149 196 197
f 149 197 150
f 150 197 198
f 150 198 199
f 150 199 200
f 150 200 151
f 151 200 152
f 152 200 153
f 153 201 154
f 153 200 202
f 153 202 201
f 154 201 156
f 154 156 155
f 156 201 203
f 156 203 157
f 157 203 204
f 157 204 159
f 157 159 158
f 159 204 202
f 159 202 160
f 160 202 161
f 161 202 200
f 161 200 205
f 161 205 206
f 161 206 207
f 161 207 162
f 163 207 208
f 163 208 209
f 163 209 210
f 163 210 164
f 164 211 212
f 164 212 165
f 164 210 213
f 164 213 211
f 165 212 214
f 165 214 166
f 166 214 167
f 167 214 212
f 167 212 215
f 167 215 216
f 167 216 217
f 167 217 169
f 168 170 218
f 168 218 219
f 168 219 220
f 168 220 221
f 168 221 171
f 169 217 222
f 169 222 223
f 169 223 170
f 170 223 218
f 171 221 172
f 172 221 224
f 172 224 225
f 172 225 226
f 172 226 227
f 172 227 173
f 173 227 176
f 173 176 175
f 176 227 228
f 176 228 229
f 176 229 230
f 176 230 231
f 176 231 177
f 177 231 178
f 178 231 232
f 178 232 180
f 178 180 179
f 181 233 234
f 181 234 182
f 182 234 235
f 182 235 183
f 183 236 189
f 183 189 184
f 183 235 237
f 183 237 236
f 185 188 238
f 185 238 190
f 185 190 186
f 187 189 239
f 187 239 240
f 187 240 238
f 187 238 188
f 189 236 239
f 190 238 241
f 190 241 191
f 191 241 242
f 191 242 243
f 191 243 192
f 192 194 193
f 192 243 199
f 192 199 198
f 192 198 197
f 192 197 194
f 194 197 196
f 194 196 195
f 199 243 244
f 199 244 200
f 200 244 245
f 200 245 246
f 200 246 247
f 200 247 248
f 200 248 205
f 201 202 203
f 202 204 203
f 205 248 249
f 205 249 250
f 205 250 251
f 205 251 206
f 206 251 250
f 206 250 252
f 206 252 208
f 206 208 207
f 208 252 253
f 208 253 254
f 208 254 255
f 208 255 256
f 208 256 209
f 209 257 210
f 209 256 258
f 209 258 257
f 210 257 259
f 210 259 213
f 211 213 260
f 211 260 261
f 211 261 262
f 211 262 212
f 212 262 263
f 212 263 264
f 212 264 215
f 213 259 265
f 213 265 266
f 213 266 260
f 215 264 267
f 215 267 222
f 215 222 216
f 216 222 217
f 218 223 268
f 218 268 219
f 219 268 269
f 219 269 220
f 220 269 270
f 220 270 271
f 220 271 221
f 221 271 272
f 221 272 224
f 222 273 274
f 222 274 275
f 222 275 276
f 222 276 277
f 222 277 278
f 222 278 279
f 222 279 223
f 222 267 273
f 223 279 278
f 223 278 269
f 223 269 268
f 224 272 280
f 224 280 281
f 224 281 282
f 224 282 225
f 225 282 283
f 225 283 226
f 226 283 284
f 226 284 229
f 226 229 228
f 226 228 227
f 229 285 286
f 229 286 230
f 229 284 285
f 230 286 287
f 230 287 231
f 231 287 288
f 231 288 289
f 231 289 232
f 233 290 291
f 233 291 292
f 233 292 293
f 233 293 294
f 233 294 295
f 233 295 296
f 233 296 297
f 233 297 234
f 234 297 235
f 235 297 298
f 235 298 299
f 235 299 300
f 235 300 237
f 236 237 301
f 236 301 239
f 237 300 302
f 237 302 303
f 237 303 304
f 237 304 305
f 237 305 306
f 237 306 307
f 237 307 308
f 237 308 309
f 237 309 301
f 238 242 241
f 238 240 310
f 238 310 243
f 238 243 242
f 239 301 309
f 239 309 308
f 239 308 311
f 239 311 240
f 240 312 313
f 240 313 310
f 240 311 307
f 240 307 312
f 243 310 314
f 243 314 246
f 243 246 245
f 243 245 244
f 246 314 315
f 246 315 316
f 246 316 317
f 246 317 318
f 246 318 248
f 246 248 247
f 248 318 319
f 248 319 249
f 249 320 321
f 249 321 250
f 249 319 322
f 249 322 323
f 249 323 320
f 250 321 252
f 252 321 253
f 253 255 254
f 253 321 255
f 255 324 256
f 255 321 324
f 256 324 325
f 256 325 258
f 257 258 259
f 258 325 326
f 258 326 327
f 258 327 265
f 258 265 259
f 260 266 261
f 261 328 262
f 261 266 329
f 261 329 328
f 262 330 263
f 262 328 331
f 262 331 332
f 262 332 333
f 262 333 330
f 263 330 264
f 264 330 267
f 265 327 334
f 265 334 335
f 265 335 266
f 266 336 329
f 266 335 336
f 267 330 274
f 267 274 273
f 269 278 270
f 270 337 271
f 270 278 338
f 270 338 337
f 271 337 272
f 272 337 339
f 272 339 340
f 272 340 341
f 272 341 280
f 274 342 275
f 274 330 342
f 275 342 343
f 275 343 276
f 276 343 344
f 276 344 277
f 277 344 345
f 277 345 346
f 277 346 278
f 278 346 338
f 280 341 281
f 281 341 347
f 281 347 284
f 281 284 282
f 282 284 283
f 284 347 348
f 284 348 285
f 285 287 286
f 285 348 349
f 285 349 350
f 285 350 351
f 285 351 287
f 287 351 352
f 287 352 353
f 287 353 354
f 287 354 355
f 287 355 288
f 288 355 356
f 290 357 351
f 290 351 358
f 290 358 291
f 291 358 350
f 291 350 359
f 291 359 349
f 291 349 293
f 291 293 292
f 293 360 361
f 293 361 362
f 293 362 363
f 293 363 294
f 293 349 360
f 294 364 365
f 294 365 366
f 294 366 295
f 294 363 364
f 295 366 296
f 296 366 367
f 296 367 368
f 296 368 369
f 296 369 297
f 297 369 298
f 298 369 370
f 298 370 299
f 299 370 371
f 299 371 302
f 299 302 300
f 302 371 372
f 302 372 373
f 302 373 374
f 302 374 375
f 302 375 376
f 302 376 303
f 303 376 304
f 304 376 305
f 305 376 377
f 305 377 378
f 305 378 306
f 306 378 307
f 307 379 380
f 307 380 381
f 307 381 382
f 307 382 312
f 307 311 308
f 307 378 383
f 307 383 384
f 307 384 379
f 310 313 314
f 312 385 386
f 312 386 313
f 312 382 387
f 312 387 388
f 312 388 389
f 312 389 385
f 313 386 314
f 314 386 315
f 315 386 385
f 315 385 317
f 315 317 316
f 317 390 389
f 317 389 391
f 317 391 322
f 317 322 318
f 317 385 390
f 318 322 319
f 320 392 324
f 320 324 321
f 320 323 322
f 320 322 392
f 322 393 324
f 322 324 392
f 322 391 394
f 322 394 325
f 322 325 393
f 324 393 325
f 325 394 395
f 325 395 396
f 325 396 326
f 326 396 397
f 326 397 398
f 326 398 399
f 326 399 400
f 326 400 401
f 326 401 327
f 327 401 402
f 327 402 334
f 328 329 331
f 329 336 403
f 329 403 331
f 330 333 404
f 330 404 342
f 331 403 405
f 331 405 406
f 331 406 332
f 332 342 333
f 332 406 407
f 332 407 408
f 332 408 409
f 332 409 410
f 332 410 342
f 333 342 404
f 334 402 335
f 335 402 403
f 335 403 336
f 337 411 339
f 337 338 412
f 337 412 411
f 338 346 413
f 338 413 414
f 338 414 415
f 338 415 416
f 338 416 417
f 338 417 418
f 338 418 412
f 339 411 340
f 340 411 412
f 340 412 419
f 340 419 420
f 340 420 341
f 341 420 347
f 342 345 343
f 342 410 421
f 342 421 422
f 342 422 345
f 343 345 344
f 345 422 423
f 345 423 413
f 345 413 346
f 347 420 424
f 347 424 425
f 347 425 426
f 347 426 348
f 348 426 427
f 348 427 360
f 348 360 349
f 349 359 350
f 350 358 351
f 351 357 352
f 352 357 353
f 353 357 354
f 354 357 356
f 354 356 355
f 360 427 361
f 361 427 425
f 361 425 428
f 361 428 429
f 361 429 430
f 361 430 362
f 362 431 432
f 362 432 363
f 362 430 431
f 363 432 433
f 363 433 434
f 363 434 364
f 364 434 365
f 365 434 433
f 365 433 435
f 365 435 373
f 365 373 367
f 365 367 366
f 367 373 368
f 368 373 436
f 368 436 369
f 369 436 370
f 370 436 373
f 370 373 371
f 371 373 372
f 373 435 437
f 373 437 374
f 374 437 438
f 374 438 439
f 374 439 375
f 375 440 376
f 375 439 441
f 375 441 442
f 375 442 440
f 376 442 377
f 376 440 442
f 377 442 443
f 377 443 383
f 377 383 378
f 379 444 445
f 379 445 446
f 379 446 447
f 379 447 448
f 379 448 380
f 379 384 449
f 379 449 441
f 379 441 450
f 379 450 451
f 379 451 444
f 380 448 452
f 380 452 381
f 381 452 387
f 381 387 382
f 383 443 384
f 384 443 449
f 385 389 390
f 387 452 453
f 387 453 388
f 388 453 389
f 389 453 454
f 389 454 397
f 389 397 391
f 391 397 396
f 391 396 394
f 394 396 395
f 397 455 456
f 397 456 457
f 397 457 410
f 397 410 398
f 397 454 455
f 398 410 458
f 398 458 399
f 399 458 400
f 400 458 459
f 400 459 460
f 400 460 402
f 400 402 401
f 402 460 403
f 403 406 405
f 403 460 406
f 406 460 408
f 406 408 407
f 408 460 409
f 409 458 410
f 409 460 458
f 410 457 461
f 410 461 462
f 410 462 463
f 410 463 421
f 412 418 419
f 413 423 464
f 413 464 465
f 413 465 466
f 413 466 414
f 414 466 415
f 415 466 467
f 415 467 468
f 415 468 416
f 416 468 417
f 417 468 469
f 417 469 418
f 418 470 425
f 418 425 424
f 418 424 420
f 418 420 419
f 418 469 471
f 418 471 470
f 421 463 422
f 422 463 462
f 422 462 472
f 422 472 473
f 422 473 474
f 422 474 475
f 422 475 476
f 422 476 423
f 423 476 477
f 423 477 464
f 425 470 478
f 425 478 429
f 425 429 428
f 425 427 426
f 429 479 480
f 429 480 430
f 429 478 481
f 429 481 479
f 430 480 431
f 431 480 482
f 431 482 483
f 431 483 484
f 431 484 432
f 432 484 485
f 432 485 433
f 433 485 435
f 435 486 437
f 435 485 486
f 437 486 438
f 438 487 488
f 438 488 439
f 438 486 487
f 439 489 441
f 439 488 490
f 439 490 489
f 441 449 443
f 441 443 442
f 441 489 490
f 441 490 450
f 444 491 445
f 444 451 491
f 445 491 492
f 445 492 446
f 446 492 474
f 446 474 447
f 447 474 448
f 448 474 452
f 450 490 493
f 450 493 494
f 450 494 495
f 450 495 496
f 450 496 451
f 451 496 497
f 451 497 492
f 451 492 491
f 452 474 498
f 452 498 499
f 452 499 500
f 452 500 453
f 453 500 456
f 453 456 501
f 453 501 455
f 453 455 454
f 455 501 456
f 456 500 457
f 457 500 502
f 457 502 503
f 457 503 461
f 458 460 459
f 461 504 462
f 461 503 474
f 461 474 504
f 462 504 472
f 464 477 505
f 464 505 506
f 464 506 507
f 464 507 508
f 464 508 509
f 464 509 510
f 464 510 511
f 464 511 465
f 465 511 512
f 465 512 513
f 465 513 466
f 466 513 514
f 466 514 467
f 467 514 513
f 467 513 468
f 468 513 469
f 469 513 471
f 470 471 478
f 471 513 515
f 471 515 478
f 472 504 473
f 473 504 474
f 474 492 516
f 474 516 497
f 474 497 508
f 474 508 517
f 474 517 505
f 474 505 475
f 474 503 498
f 475 505 477
f 475 477 476
f 478 515 481
f 479 481 515
f 479 515 482
f 479 482 480
f 482 518 483
f 482 515 518
f 483 519 484
f 483 518 513
f 483 513 520
f 483 520 488
f 483 488 519
f 484 519 521
f 484 521 485
f 485 521 486
f 486 521 487
f 487 521 488
f 488 522 523
f 488 523 490
f 488 521 519
f 488 520 524
f 488 524 525
f 488 525 522
f 490 523 526
f 490 526 493
f 492 497 516
f 493 526 494
f 494 526 527
f 494 527 528
f 494 528 496
f 494 496 495
f 496 528 529
f 496 529 509
f 496 509 508
f 496 508 497
f 498 503 502
f 498 502 499
f 499 502 500
f 505 517 507
f 505 507 506
f 507 517 508
f 509 529 510
f 510 529 511
f 511 529 512
f 512 529 530
f 512 530 513
f 513 530 520
f 513 518 515
f 520 530 529
f 520 529 524
f 522 526 523
f 522 525 527
f 522 527 526
f 524 529 525
f 525 529 528
f 525 528 527

