# https://github.com/mikedh/trimesh
v 0.02433452 0.01268293 -0.00046140
v 0.02433452 0.01263629 0.00035676
v 0.02515249 0.01260683 0.00035676
v 0.02515249 0.01262401 -0.00002291
v 0.02515249 0.01264365 -0.00046140
v 0.02433452 0.01257000 -0.00127957
v 0.02351655 0.01257491 -0.00127957
v 0.02351655 0.01265347 -0.00046140
v 0.02307683 0.01262401 -0.00002291
v 0.02269386 0.01259701 0.00035676
v 0.02351655 0.01262401 0.00035676
v 0.02433452 0.01250863 0.00117627
v 0.02269386 0.01249881 0.00117627
v 0.02351655 0.01250863 0.00117627
v 0.02556383 0.01238588 0.00158669
v 0.02589008 0.01241534 0.00113215
v 0.02644799 0.01239324 0.00082601
v 0.02597518 0.01249635 0.00035676
v 0.02515249 0.01247917 0.00117627
v 0.02575296 0.01243252 -0.00127957
v 0.02515249 0.01251845 -0.00127957
v 0.02603192 0.01248162 -0.00048547
v 0.02433452 0.01243007 -0.00185175
v 0.02351655 0.01245216 -0.00193330
v 0.02269386 0.01244480 -0.00193464
v 0.02269386 0.01254054 -0.00127957
v 0.02269386 0.01260683 -0.00046140
v 0.02225887 0.01257491 -0.00002291
v 0.02187589 0.01254545 0.00035676
v 0.02187589 0.01246198 0.00117627
v 0.02433452 0.01234660 0.00217224
v 0.02515249 0.01233432 0.00208267
v 0.02351655 0.01241534 0.00176449
v 0.02187589 0.01240061 0.00166021
v 0.02269386 0.01241534 0.00174577
v 0.02589008 0.01227786 0.00191556
v 0.02611230 0.01235151 0.00137279
v 0.02515249 0.01218702 0.00281393
v 0.02647636 0.01240306 0.00035676
v 0.02675060 0.01228768 0.00113215
v 0.02688771 0.01231959 0.00035676
v 0.02557802 0.01238588 -0.00169400
v 0.02616431 0.01235396 -0.00127957
v 0.02679315 0.01211828 -0.00209774
v 0.02515249 0.01240061 -0.00175015
v 0.02644327 0.01240061 -0.00022745
v 0.02634870 0.01237606 -0.00077423
v 0.02679315 0.01221648 -0.00127957
v 0.02515249 0.01229013 -0.00216057
v 0.02433452 0.01231714 -0.00226217
v 0.02351655 0.01233678 -0.00234238
v 0.02269386 0.01234414 -0.00234372
v 0.02187589 0.01231959 -0.00222340
v 0.02187589 0.01241043 -0.00181298
v 0.02142199 0.01238833 -0.00170871
v 0.02187589 0.01247426 -0.00127957
v 0.02187589 0.01254545 -0.00046140
v 0.02105792 0.01247180 0.00035676
v 0.02112884 0.01240797 0.00111343
v 0.02145036 0.01238588 0.00159337
v 0.02433452 0.01219439 0.00281393
v 0.02351655 0.01234660 0.00217625
v 0.02269386 0.01233432 0.00215486
v 0.02187589 0.01230486 0.00207063
v 0.02597518 0.01204463 0.00281393
v 0.02519031 0.01178441 0.00371098
v 0.02597518 0.01174267 0.00354119
v 0.02679315 0.01206182 0.00199443
v 0.02747873 0.01175249 0.00199443
v 0.02767258 0.01182123 0.00112413
v 0.02761112 0.01195625 0.00035676
v 0.02722814 0.01214283 -0.00002291
v 0.02674587 0.01229995 -0.00048547
v 0.02589953 0.01226804 -0.00202020
v 0.02765840 0.01175986 -0.00204025
v 0.02742672 0.01171812 -0.00291590
v 0.02679315 0.01191943 -0.00291590
v 0.02761112 0.01187033 -0.00127957
v 0.02597518 0.01198817 -0.00291590
v 0.02351655 0.01210846 -0.00291590
v 0.02515249 0.01203236 -0.00291590
v 0.02433452 0.01207409 -0.00291590
v 0.02269386 0.01211092 -0.00291590
v 0.02187589 0.01207409 -0.00291590
v 0.02105792 0.01200781 -0.00291590
v 0.00714302 0.01082942 -0.00276082
v 0.00714302 0.01096199 -0.00209774
v 0.02087352 0.01236378 -0.00145470
v 0.02110993 0.01240797 -0.00122075
v 0.02105792 0.01246935 -0.00046140
v 0.02105792 0.01247180 -0.00002291
v 0.02061348 0.01238833 0.00079659
v 0.00714302 0.01111910 -0.00046140
v 0.00713829 0.01111174 0.00035676
v 0.00713829 0.01104791 0.00117627
v 0.00713829 0.01097672 0.00199443
v 0.02112884 0.01227786 0.00191689
v 0.00713829 0.01084169 0.00265217
v 0.02430142 0.01178195 0.00370964
v 0.02351655 0.01216247 0.00281393
v 0.02269386 0.01211583 0.00281393
v 0.02105792 0.01198326 0.00281393
v 0.02187589 0.01205200 0.00281393
v 0.00803191 0.01084906 0.00286073
v 0.02657565 0.01163465 0.00338211
v 0.02683097 0.01175495 0.00285270
v 0.02549291 0.01156100 0.00403584
v 0.02454729 0.01158064 0.00406658
v 0.02494918 0.01158064 0.00406658
v 0.02597518 0.01151927 0.00395161
v 0.02683097 0.01142598 0.00364814
v 0.02712412 0.01153891 0.00315083
v 0.02733688 0.01163956 0.00260672
v 0.02761112 0.01137688 0.00285270
v 0.02811230 0.01083678 0.00342890
v 0.02788535 0.01145298 0.00199443
v 0.02797991 0.01152172 0.00136209
v 0.02802719 0.01157573 0.00081531
v 0.02806502 0.01161010 0.00035676
v 0.02807920 0.01161747 -0.00002291
v 0.02809339 0.01162729 -0.00046140
v 0.02761112 0.01193661 -0.00046140
v 0.02803192 0.01157573 -0.00173010
v 0.02728960 0.01162483 -0.00341456
v 0.02796100 0.01148735 -0.00227688
v 0.04212176 -0.00046106 -0.00701342
v 0.02679315 0.01167393 -0.00350012
v 0.02806029 0.01159783 -0.00127957
v 0.02597518 0.01170094 -0.00357231
v 0.02515249 0.01171567 -0.00364717
v 0.02433452 0.01173285 -0.00371000
v 0.02351655 0.01174513 -0.00371936
v 0.02433452 0.01155364 -0.00412042
v 0.02351655 0.01155855 -0.00413112
v 0.02269386 0.01174267 -0.00369129
v 0.02187589 0.01173040 -0.00364049
v 0.02105792 0.01170339 -0.00357899
v 0.01041962 0.01066248 -0.00393460
v 0.00796099 0.01054955 -0.00373674
v 0.00796099 0.01072385 -0.00326483
v 0.00714302 0.01067230 -0.00316991
v 0.00666075 0.01079014 -0.00264318
v 0.00714302 0.01105282 -0.00127957
v 0.01230614 0.01158064 -0.00098947
v 0.02060875 0.01238833 -0.00090792
v 0.00658983 0.01083433 -0.00209774
v 0.00652836 0.01088097 -0.00127957
v 0.00648581 0.01091289 -0.00046140
v 0.00678841 0.01100863 -0.00002291
v 0.00648108 0.01091043 0.00035676
v 0.00651418 0.01087852 0.00117627
v 0.00655673 0.01084415 0.00199443
v 0.00663238 0.01079750 0.00252250
v 0.00713829 0.01065511 0.00306259
v 0.00780496 0.01072385 0.00316420
v 0.02351655 0.01178932 0.00359601
v 0.01171985 0.01074104 0.00403049
v 0.00877895 0.01001682 0.00497833
v 0.00834869 0.01074840 0.00322837
v 0.01041962 0.01083678 0.00347034
v 0.01123758 0.01072140 0.00397701
v 0.02519031 0.01131305 0.00438610
v 0.02576714 0.01079750 0.00491550
v 0.02600828 0.01106755 0.00452246
v 0.00959692 0.01004382 0.00501042
v 0.02430142 0.01131796 0.00438610
v 0.02433452 0.01085151 0.00495962
v 0.02515249 0.01084415 0.00495560
v 0.02679315 0.01100127 0.00435802
v 0.02742199 0.01087115 0.00420829
v 0.02766313 0.01102336 0.00367488
v 0.02819268 0.01093989 0.00281393
v 0.02797045 0.01070176 0.00397434
v 0.04219741 -0.00040705 -0.00503618
v 0.04219741 -0.00040705 -0.00619391
v 0.02735107 0.01087606 -0.00431962
v 0.02693499 0.01066002 -0.00486774
v 0.02638653 0.01074595 -0.00496666
v 0.02679315 0.01139161 -0.00390920
v 0.04201774 -0.00058135 -0.00747597
v 0.04233453 -0.00112636 -0.00619391
v 0.04214540 -0.00119019 -0.00708427
v 0.02597518 0.01146280 -0.00398273
v 0.02515249 0.01151927 -0.00405759
v 0.02433452 0.01119766 -0.00455624
v 0.02351655 0.01119766 -0.00455624
v 0.02269386 0.01154136 -0.00410037
v 0.02187589 0.01150945 -0.00404957
v 0.00796099 0.01016412 -0.00453218
v 0.00714302 0.01041452 -0.00373674
v -0.00253074 0.00507493 -0.00748400
v -0.00306502 0.00497919 -0.00701342
v 0.00648581 0.01091289 -0.00002291
v -0.00299410 0.00490799 -0.00619525
v 0.00658510 0.01010274 0.00348906
v 0.00674113 0.00992107 0.00403584
v 0.00728486 0.01004628 0.00424706
v 0.00767730 0.00988670 0.00479251
v 0.00795153 0.01013220 0.00449438
v -0.00393027 0.00419850 -0.00656423
v -0.00383098 0.00410030 -0.00601745
v -0.00469150 0.00331471 -0.00619525
v -0.00492318 0.00276970 -0.00570729
v 0.00877895 0.01029668 0.00445428
v 0.00877895 0.01061583 0.00368825
v 0.00822103 0.00997508 0.00492753
v 0.00877895 0.00985479 0.00518287
v 0.02592317 0.01047099 0.00518287
v 0.02679315 0.01027459 0.00518287
v 0.02631088 0.01072876 0.00484464
v 0.00922813 0.00988179 0.00518287
v 0.00959692 0.00990143 0.00518287
v 0.02351655 0.01082696 0.00494090
v 0.01184279 0.01000945 0.00518287
v 0.01358274 0.01009047 0.00518287
v 0.01445272 0.01012975 0.00518287
v 0.02386171 0.01055446 0.00518287
v 0.02435343 0.01057164 0.00518287
v 0.02515249 0.01056673 0.00518287
v 0.02679315 0.01066493 0.00476711
v 0.02761112 0.01010029 0.00504384
v 0.02805556 0.00997508 0.00491283
v 0.03012648 0.00609621 0.00518287
v 0.03826360 -0.00094715 -0.00002425
v 0.04233453 -0.00112636 -0.00503618
v 0.04233926 -0.00112636 -0.00537575
v 0.02723759 0.01029668 -0.00503618
v 0.02737944 0.00921404 -0.00586371
v 0.02681679 0.01050781 -0.00503618
v 0.02648582 0.01063056 -0.00503618
v 0.02679315 0.00974431 -0.00565515
v 0.02597045 0.00983024 -0.00572066
v 0.02597045 0.01033596 -0.00532361
v 0.02515249 0.00987688 -0.00574873
v 0.02597518 0.01068948 -0.00503618
v 0.02597518 0.01075822 -0.00497870
v 0.04201774 -0.00095942 -0.00747597
v 0.04161112 -0.00119019 -0.00758693
v 0.04154020 -0.00045369 -0.00756956
v 0.02739362 0.01011256 -0.00511907
v 0.04248583 -0.00404043 -0.00503618
v 0.04244328 -0.00438904 -0.00503618
v 0.02515249 0.01078032 -0.00499608
v 0.02433452 0.01079996 -0.00501212
v 0.02351655 0.01079505 -0.00500677
v 0.02269386 0.01114856 -0.00455624
v 0.00847163 0.00986706 -0.00503618
v 0.00841016 0.00992598 -0.00496132
v 0.00796099 0.00991125 -0.00494260
v 0.00714302 0.01008065 -0.00439181
v -0.00187353 0.00513631 -0.00752678
v -0.00276242 0.00466986 -0.00755218
v -0.00325888 0.00444155 -0.00750004
v 0.00760165 0.00908883 -0.00577948
v 0.00085460 0.00585562 -0.00745191
v -0.00380734 0.00407084 -0.00718053
v -0.00393027 0.00419850 -0.00663374
v 0.00673640 0.00908883 0.00485133
v 0.00716666 0.00928278 0.00518287
v 0.00725177 0.00937361 0.00518287
v 0.00736051 0.00943989 0.00518287
v 0.00792316 0.00970258 0.00518287
v 0.00799881 0.00972958 0.00518287
v -0.00421396 0.00380816 -0.00625274
v -0.00501774 0.00290718 -0.00619525
v -0.00541964 0.00214368 -0.00615247
v -0.00551893 0.00132371 -0.00583697
v 0.00683096 0.00869849 0.00518287
v 0.00687824 0.00883597 0.00518287
v 0.02691135 0.01023286 0.00518287
v 0.02763003 0.00992353 0.00518287
v 0.02741253 0.01004137 0.00518287
v 0.02787116 0.00977132 0.00518287
v 0.02814067 0.00942271 0.00518287
v 0.03600355 -0.00843240 -0.00002558
v 0.03745036 -0.00488985 -0.00002425
v 0.03826360 -0.00278102 -0.00002425
v 0.00786642 0.00609621 0.00518287
v 0.02718558 0.00827869 -0.00660032
v 0.02679315 0.00933924 -0.00595194
v 0.02671277 0.01036297 -0.00519126
v 0.02597045 0.00886543 -0.00642920
v 0.02515249 0.00946690 -0.00605221
v 0.02515249 0.01033596 -0.00537040
v 0.02433925 0.00990389 -0.00576879
v 0.02515249 0.01073613 -0.00503618
v 0.04193264 -0.00150688 -0.00740512
v 0.04138890 -0.00172292 -0.00750004
v 0.04072223 -0.00188004 -0.00756554
v 0.04072223 -0.00112636 -0.00772998
v 0.03498228 -0.00031622 -0.00843719
v 0.03416431 0.00050129 -0.00845991
v 0.03495391 0.00045956 -0.00835697
v 0.03465604 0.00103648 -0.00830484
v 0.02683097 0.00703892 -0.00732357
v 0.02686407 0.00794972 -0.00687973
v 0.04228725 -0.00474746 -0.00503618
v 0.02433925 0.01077541 -0.00503618
v 0.02433452 0.01077541 -0.00503618
v 0.02351655 0.01076068 -0.00503618
v 0.00828723 0.00832533 -0.00663776
v 0.00878368 0.00916248 -0.00584365
v 0.00856146 0.00915266 -0.00583563
v 0.00815484 0.00984251 -0.00503618
v 0.00815011 0.00913548 -0.00581825
v 0.00795153 0.00982533 -0.00503618
v -0.00187353 0.00459866 -0.00764041
v 0.00057564 0.00546282 -0.00753212
v -0.00269150 0.00377870 -0.00765378
v -0.00351420 0.00296119 -0.00765110
v -0.00352365 0.00379097 -0.00755886
v -0.00403429 0.00352584 -0.00749603
v 0.00878368 0.00787607 -0.00686636
v 0.00960638 0.00651846 -0.00737838
v 0.00960638 0.00610848 -0.00751875
v -0.00479552 0.00262731 -0.00746662
v -0.00460640 0.00320669 -0.00701342
v -0.00414777 0.00379097 -0.00694925
v -0.00492791 0.00279671 -0.00701342
v -0.00562767 0.00187118 -0.00685700
v -0.00562767 0.00187118 -0.00639712
v -0.00567968 0.00132371 -0.00624605
v -0.00555675 0.00090391 -0.00578884
v 0.00683096 0.00857820 0.00518287
v -0.00558039 0.00035645 -0.00576344
v -0.00560403 -0.00031131 -0.00573938
v 0.03498228 -0.00906824 -0.00171539
v 0.03547400 -0.00894794 -0.00171539
v 0.03601301 -0.00843240 -0.00006302
v 0.04214540 -0.00500278 -0.00503618
v 0.01312411 -0.00843240 -0.00002558
v 0.00797044 -0.01239720 -0.00171539
v 0.01019740 -0.01220325 -0.00171539
v 0.01206501 -0.01200931 -0.00171539
v 0.01763948 -0.01140047 -0.00171539
v 0.02486880 -0.01056578 -0.00171539
v 0.03149291 -0.00976300 -0.00171539
v 0.03190899 -0.00968198 -0.00171539
v 0.03454729 -0.00915662 -0.00171539
v 0.00730850 0.00710029 0.00518287
v -0.00473878 -0.00317627 -0.00578750
v 0.00656619 -0.01160669 -0.00171539
v 0.00672694 -0.01180064 -0.00171539
v 0.00692080 -0.01201667 -0.00171539
v 0.00714302 -0.01218607 -0.00171539
v 0.00732742 -0.01230636 -0.00171539
v 0.00766784 -0.01236283 -0.00171539
v 0.02664185 0.00838425 -0.00667519
v 0.02597045 0.00845545 -0.00671930
v 0.02515249 0.00887525 -0.00646129
v 0.02433925 0.00949636 -0.00605889
v 0.02433925 0.01033596 -0.00540650
v 0.02352128 0.00989652 -0.00576344
v 0.02352128 0.01033596 -0.00539714
v 0.04198465 -0.00406743 -0.00583563
v 0.04157330 -0.00359362 -0.00637974
v 0.04132743 -0.00332603 -0.00668722
v 0.04072223 -0.00276629 -0.00714978
v 0.04072223 -0.00228757 -0.00739309
v 0.03580497 -0.00413126 -0.00748132
v 0.03498228 -0.00358380 -0.00784094
v 0.03498228 -0.00276384 -0.00809762
v 0.03662294 -0.00194387 -0.00808693
v 0.03615486 -0.00154371 -0.00823532
v 0.03617377 -0.00150934 -0.00823799
v 0.03586644 -0.00119510 -0.00831419
v 0.03631088 -0.00096679 -0.00827943
v 0.03631088 -0.00065991 -0.00827943
v 0.03498228 -0.00112391 -0.00838104
v 0.03416431 -0.00031622 -0.00847462
v 0.02679315 0.00459866 -0.00785565
v 0.02679315 0.00541617 -0.00771260
v 0.03416431 0.00117151 -0.00833692
v -0.00105557 0.00459866 -0.00765378
v 0.01042907 0.00541617 -0.00765378
v 0.02658984 0.00675414 -0.00744523
v 0.02597045 0.00714448 -0.00733828
v 0.02597045 0.00787607 -0.00704416
v 0.00856146 0.00833024 -0.00664043
v -0.00433216 0.00132371 -0.00765512
v -0.00433216 0.00209458 -0.00763239
v -0.00433216 0.00214122 -0.00762971
v -0.00431798 0.00292436 -0.00754014
v 0.00878368 0.00833024 -0.00664310
v 0.02597045 0.00541617 -0.00771795
v -0.00497519 0.00214122 -0.00751474
v -0.00565604 0.00116905 -0.00749870
v -0.00554257 0.00171406 -0.00740378
v -0.00536762 0.00214368 -0.00708293
v -0.00570805 0.00139491 -0.00708293
v -0.00581680 0.00050375 -0.00701342
v -0.00569387 0.00059213 -0.00611771
v -0.00569387 0.00057985 -0.00611504
v 0.00684042 0.00797181 0.00518287
v -0.00573169 -0.00031131 -0.00619525
v -0.00558985 -0.00112882 -0.00575408
v 0.03498228 -0.00899459 -0.00209640
v 0.03544564 -0.00893812 -0.00181967
v 0.04154020 -0.00533912 -0.00503618
v 0.04154020 -0.00511326 -0.00528350
v 0.04209339 -0.00495614 -0.00511639
v 0.00749763 -0.01222289 -0.00266056
v 0.00797044 -0.01233582 -0.00210041
v 0.00858510 -0.01220816 -0.00262847
v 0.01015957 -0.01220325 -0.00177956
v 0.01206501 -0.01197003 -0.00210041
v 0.01760165 -0.01139802 -0.00178357
v 0.02513357 -0.01046758 -0.00205629
v 0.02596100 -0.01036201 -0.00210041
v 0.03145982 -0.00976054 -0.00178491
v 0.03415958 -0.00915907 -0.00210041
v -0.00556621 -0.00154125 -0.00578349
v -0.00479552 -0.00328429 -0.00633429
v -0.00456384 -0.00356907 -0.00611504
v -0.00402484 -0.00408462 -0.00571665
v -0.00410521 -0.00414599 -0.00619525
v -0.00313595 -0.00484075 -0.00674872
v 0.00739361 -0.01227690 -0.00210041
v 0.04154020 -0.00466645 -0.00569259
v 0.04154020 -0.00425401 -0.00597600
v 0.04113358 -0.00481620 -0.00578483
v 0.04072223 -0.00389067 -0.00654551
v 0.04072223 -0.00347824 -0.00677011
v 0.03580497 -0.00454125 -0.00730619
v 0.03498228 -0.00470818 -0.00737705
v 0.03498228 -0.00429820 -0.00755084
v 0.03450474 -0.00479656 -0.00741581
v 0.03416431 -0.00358380 -0.00793720
v 0.03498228 -0.00221146 -0.00821660
v 0.03586644 -0.00193405 -0.00818719
v 0.03415013 -0.00269755 -0.00817917
v 0.03563003 -0.00165664 -0.00826339
v 0.03498228 -0.00180148 -0.00828345
v 0.03441017 -0.00231212 -0.00823665
v 0.03415013 -0.00200279 -0.00828879
v 0.03416431 -0.00112391 -0.00840510
v 0.03334162 -0.00112391 -0.00841580
v 0.03252365 -0.00112391 -0.00840911
v -0.00187353 -0.00440622 -0.00765244
v -0.00351420 -0.00276875 -0.00765378
v -0.00433216 -0.00195124 -0.00765110
v -0.00433216 -0.00112882 -0.00765378
v -0.00515486 0.00050375 -0.00762704
v -0.00522105 0.00139491 -0.00756153
v -0.00566077 0.00059213 -0.00750940
v -0.00566077 0.00050375 -0.00751073
v -0.00559458 -0.00007072 -0.00746528
v -0.00568441 -0.00033095 -0.00704817
v -0.00561822 -0.00094960 -0.00679818
v -0.00561822 -0.00118528 -0.00613509
v 0.03470332 -0.00894058 -0.00258970
v 0.03525651 -0.00887675 -0.00236645
v 0.04103902 -0.00555024 -0.00503618
v -0.00305557 -0.00476465 -0.00729550
v 0.00738415 -0.01149622 -0.00439181
v 0.00760165 -0.01135137 -0.00493859
v 0.00797044 -0.01194793 -0.00373674
v 0.00797044 -0.01214188 -0.00312044
v 0.00797044 -0.01223026 -0.00271136
v 0.00883096 -0.01214188 -0.00290788
v 0.00960638 -0.01216397 -0.00234639
v 0.01043380 -0.01213206 -0.00207100
v 0.01124231 -0.01205350 -0.00210041
v 0.00960638 -0.01206577 -0.00291858
v 0.01124231 -0.01188411 -0.00291858
v 0.02382861 -0.01053877 -0.00245468
v 0.02678842 -0.01026136 -0.00210041
v 0.03088299 -0.00979982 -0.00193196
v 0.03038180 -0.00971881 -0.00246404
v 0.03088299 -0.00951259 -0.00291858
v 0.03170095 -0.00937757 -0.00291858
v 0.03171986 -0.00962797 -0.00207501
v -0.00556621 -0.00154125 -0.00582226
v -0.00480498 -0.00330393 -0.00701342
v -0.00451183 -0.00371391 -0.00701342
v -0.00410048 -0.00412390 -0.00701342
v 0.04083571 -0.00527283 -0.00542521
v 0.03990427 -0.00547414 -0.00561505
v 0.04058512 -0.00492913 -0.00588109
v 0.04080261 -0.00448724 -0.00612172
v 0.03990427 -0.00506170 -0.00597467
v 0.03558275 -0.00573682 -0.00666984
v 0.03583334 -0.00527774 -0.00687706
v 0.03498228 -0.00521882 -0.00710031
v 0.03420686 -0.00516236 -0.00723801
v 0.03396100 -0.00484812 -0.00744122
v 0.03420686 -0.00447496 -0.00757624
v 0.03498228 -0.00583257 -0.00673668
v 0.03334162 -0.00440131 -0.00766046
v 0.00960638 -0.00932356 -0.00708293
v 0.00960638 -0.00849623 -0.00733159
v 0.03334162 -0.00358380 -0.00796393
v 0.03334162 -0.00280312 -0.00817115
v 0.03386644 -0.00237840 -0.00824601
v 0.03334162 -0.00194387 -0.00831954
v 0.03252365 -0.00194387 -0.00832489
v -0.00187353 -0.00510098 -0.00753881
v -0.00351420 -0.00358871 -0.00763239
v -0.00433216 -0.00276875 -0.00761635
v -0.00490427 -0.00195124 -0.00753613
v -0.00482862 -0.00276875 -0.00750138
v -0.00477188 -0.00324010 -0.00745592
v -0.00555202 -0.00149706 -0.00636904
v 0.03498228 -0.00876136 -0.00288649
v 0.03415958 -0.00899213 -0.00274344
v 0.03367731 -0.00889884 -0.00328622
v 0.03415958 -0.00884729 -0.00315386
v 0.04054729 -0.00573928 -0.00503618
v 0.04053784 -0.00571718 -0.00506693
v -0.00401065 -0.00405270 -0.00747196
v -0.00250710 -0.00494386 -0.00750004
v 0.00813593 -0.01072535 -0.00599606
v 0.00815011 -0.01142257 -0.00506960
v 0.00791371 -0.01157478 -0.00462175
v -0.00133926 -0.00561162 -0.00735165
v 0.00878368 -0.01163861 -0.00455491
v 0.00878368 -0.01194303 -0.00373674
v 0.02328487 -0.01057069 -0.00258436
v 0.02678842 -0.01006005 -0.00291858
v 0.02760639 -0.00995694 -0.00291858
v 0.02924232 -0.00967953 -0.00314050
v 0.03008393 -0.00963779 -0.00288649
v 0.02870804 -0.00971390 -0.00326750
v 0.03088299 -0.00920326 -0.00373674
v 0.03252365 -0.00900932 -0.00354423
v 0.03313358 -0.00895040 -0.00341322
v 0.03252365 -0.00923272 -0.00291858
v -0.00500829 -0.00276875 -0.00701342
v 0.03990427 -0.00581784 -0.00520596
v 0.03498228 -0.00742585 -0.00513645
v 0.03498228 -0.00707479 -0.00554687
v 0.03498228 -0.00666481 -0.00601210
v 0.03498228 -0.00624255 -0.00642386
v 0.03416431 -0.00590622 -0.00678749
v 0.00960638 -0.00994712 -0.00674604
v 0.03416431 -0.00631865 -0.00650540
v 0.00878368 -0.00995940 -0.00673000
v 0.00878368 -0.00932356 -0.00700406
v 0.03334162 -0.00239804 -0.00825002
v -0.00274351 -0.00446023 -0.00756153
v -0.00079552 -0.00564353 -0.00743453
v -0.00351420 -0.00420737 -0.00751742
v -0.00430379 -0.00354452 -0.00751742
v 0.03415958 -0.00858706 -0.00373674
v 0.03469386 -0.00843485 -0.00377417
v 0.03502010 -0.00843485 -0.00358701
v 0.03337944 -0.00876136 -0.00370733
v 0.04011231 -0.00587921 -0.00503618
v 0.03502956 -0.00833665 -0.00379690
v 0.03533216 -0.00806660 -0.00410973
v 0.03479315 -0.00816235 -0.00426748
v 0.00878368 -0.01036938 -0.00648669
v 0.00878368 -0.01077936 -0.00607627
v 0.00878368 -0.01118689 -0.00547468
v 0.00878368 -0.01141766 -0.00506559
v 0.00878368 -0.01143239 -0.00503484
v 0.00901063 -0.01140784 -0.00503484
v 0.02815958 -0.00975072 -0.00337044
v 0.02153073 -0.01055596 -0.00333969
v 0.02207447 -0.01052404 -0.00323942
v 0.03006502 -0.00932356 -0.00373674
v 0.03135580 -0.00892339 -0.00416187
v 0.03190899 -0.00887429 -0.00407764
v 0.03165840 -0.00905351 -0.00377818
v 0.03252365 -0.00881537 -0.00395331
v 0.03415958 -0.00796840 -0.00479554
v 0.03415958 -0.00776710 -0.00503484
v 0.03416431 -0.00755351 -0.00528083
v 0.03416431 -0.00718281 -0.00568991
v 0.03416431 -0.00677283 -0.00609632
v 0.03334162 -0.00638003 -0.00655487
v 0.00960638 -0.01035465 -0.00640380
v 0.03170568 -0.00742585 -0.00592654
v 0.03252365 -0.00735220 -0.00586504
v 0.03415958 -0.00843485 -0.00402818
v 0.03415958 -0.00824582 -0.00438512
v 0.03088299 -0.00789230 -0.00556157
v 0.03170568 -0.00783584 -0.00548403
v 0.03088299 -0.00823354 -0.00515249
v 0.03088299 -0.00843485 -0.00489848
v 0.03088299 -0.00896267 -0.00421267
v 0.03286407 -0.00808133 -0.00495062
v 0.03333689 -0.00804205 -0.00489848
v 0.03308630 -0.00797331 -0.00503484
v 0.03307211 -0.00729574 -0.00581424
v 0.03279788 -0.00802487 -0.00503484
v 0.03206975 -0.00814516 -0.00503618
v 0.03170095 -0.00820408 -0.00503484
f 1 2 3
f 1 3 4
f 1 4 5
f 1 5 6
f 1 6 7
f 1 7 8
f 1 8 9
f 1 9 10
f 1 10 11
f 1 11 2
f 2 12 19
f 2 19 3
f 2 11 13
f 2 13 14
f 2 14 12
f 3 15 16
f 3 16 17
f 3 17 18
f 3 18 4
f 3 19 15
f 4 18 5
f 5 20 21
f 5 21 6
f 5 18 22
f 5 22 20
f 6 21 23
f 6 23 24
f 6 24 7
f 7 24 25
f 7 25 26
f 7 26 8
f 8 26 27
f 8 27 9
f 9 27 10
f 10 27 28
f 10 28 29
f 10 29 30
f 10 30 13
f 10 13 11
f 12 31 32
f 12 32 19
f 12 14 33
f 12 33 31
f 13 30 34
f 13 34 35
f 13 35 14
f 14 35 33
f 15 36 37
f 15 37 16
f 15 19 32
f 15 32 38
f 15 38 36
f 16 37 17
f 17 39 18
f 17 37 40
f 17 40 41
f 17 41 39
f 18 39 22
f 20 42 21
f 20 22 43
f 20 43 44
f 20 44 42
f 21 42 45
f 21 45 23
f 22 39 41
f 22 41 46
f 22 46 47
f 22 47 48
f 22 48 44
f 22 44 43
f 23 45 49
f 23 49 50
f 23 50 24
f 24 51 52
f 24 52 25
f 24 50 51
f 25 52 53
f 25 53 54
f 25 54 26
f 26 54 55
f 26 55 56
f 26 56 57
f 26 57 27
f 27 57 28
f 28 57 29
f 29 57 91
f 29 91 58
f 29 58 59
f 29 59 60
f 29 60 30
f 30 60 34
f 31 61 38
f 31 38 32
f 31 33 62
f 31 62 61
f 33 35 62
f 34 63 35
f 34 60 64
f 34 64 63
f 35 63 62
f 36 38 65
f 36 65 40
f 36 40 37
f 38 61 66
f 38 66 67
f 38 67 65
f 40 68 69
f 40 69 70
f 40 70 71
f 40 71 41
f 40 65 68
f 41 72 48
f 41 48 73
f 41 73 46
f 41 71 72
f 42 44 74
f 42 74 49
f 42 49 45
f 44 48 75
f 44 75 76
f 44 76 77
f 44 77 74
f 46 73 47
f 47 73 48
f 48 72 78
f 48 78 75
f 49 74 77
f 49 77 79
f 49 79 50
f 50 79 51
f 51 80 52
f 51 79 81
f 51 81 82
f 51 82 80
f 52 80 83
f 52 83 84
f 52 84 85
f 52 85 53
f 53 85 86
f 53 86 54
f 54 86 87
f 54 87 55
f 55 88 56
f 55 87 88
f 56 88 89
f 56 89 90
f 56 90 57
f 57 90 91
f 58 92 59
f 58 91 93
f 58 93 94
f 58 94 95
f 58 95 96
f 58 96 92
f 59 92 96
f 59 96 60
f 60 97 64
f 60 96 98
f 60 98 97
f 61 99 66
f 61 62 63
f 61 63 100
f 61 100 99
f 63 64 101
f 63 101 100
f 64 102 103
f 64 103 101
f 64 97 98
f 64 98 104
f 64 104 102
f 65 67 105
f 65 105 106
f 65 106 68
f 66 107 67
f 66 99 108
f 66 108 109
f 66 109 107
f 67 107 110
f 67 110 111
f 67 111 105
f 68 106 112
f 68 112 113
f 68 113 69
f 69 113 114
f 69 114 115
f 69 115 116
f 69 116 70
f 70 116 117
f 70 117 118
f 70 118 119
f 70 119 71
f 71 119 120
f 71 120 121
f 71 121 122
f 71 122 72
f 72 122 78
f 75 78 123
f 75 123 76
f 76 124 77
f 76 123 125
f 76 125 126
f 76 126 124
f 77 124 127
f 77 127 79
f 78 122 128
f 78 128 123
f 79 129 130
f 79 130 131
f 79 131 81
f 79 127 129
f 80 132 83
f 80 82 131
f 80 131 133
f 80 133 132
f 81 131 82
f 83 132 134
f 83 134 135
f 83 135 136
f 83 136 84
f 84 136 137
f 84 137 85
f 85 137 138
f 85 138 139
f 85 139 140
f 85 140 86
f 86 141 142
f 86 142 87
f 86 140 139
f 86 139 141
f 87 142 146
f 87 146 143
f 87 143 88
f 88 143 144
f 88 144 145
f 88 145 89
f 89 145 90
f 90 145 144
f 90 144 93
f 90 93 91
f 93 143 146
f 93 146 147
f 93 147 148
f 93 148 149
f 93 149 94
f 93 144 143
f 94 149 150
f 94 150 151
f 94 151 152
f 94 152 95
f 95 152 96
f 96 152 153
f 96 153 98
f 98 153 154
f 98 154 155
f 98 155 104
f 99 100 101
f 99 101 156
f 99 156 157
f 99 157 158
f 99 158 108
f 101 103 157
f 101 157 156
f 102 104 159
f 102 159 160
f 102 160 161
f 102 161 103
f 103 161 157
f 104 155 159
f 105 111 112
f 105 112 106
f 107 109 162
f 107 162 163
f 107 163 164
f 107 164 110
f 108 158 165
f 108 165 166
f 108 166 167
f 108 167 109
f 109 167 168
f 109 168 162
f 110 164 169
f 110 169 111
f 111 170 112
f 111 169 170
f 112 170 171
f 112 171 113
f 113 171 114
f 114 171 115
f 115 172 116
f 115 171 173
f 115 173 174
f 115 174 172
f 116 172 174
f 116 174 117
f 117 174 118
f 118 174 119
f 119 174 120
f 120 174 121
f 121 128 122
f 121 174 175
f 121 175 128
f 123 128 175
f 123 175 126
f 123 126 125
f 124 176 177
f 124 177 178
f 124 178 179
f 124 179 127
f 124 126 180
f 124 180 176
f 126 175 181
f 126 181 182
f 126 182 180
f 127 179 178
f 127 178 183
f 127 183 184
f 127 184 133
f 127 133 129
f 129 133 130
f 130 133 131
f 132 133 134
f 133 184 178
f 133 178 185
f 133 185 134
f 134 186 187
f 134 187 135
f 134 185 186
f 135 187 136
f 136 187 188
f 136 188 137
f 137 188 189
f 137 189 138
f 138 189 139
f 139 189 190
f 139 190 141
f 141 190 142
f 142 190 191
f 142 191 192
f 142 192 146
f 146 192 147
f 147 192 148
f 148 150 193
f 148 193 149
f 148 192 150
f 149 193 150
f 150 192 151
f 151 192 152
f 152 192 194
f 152 194 153
f 153 195 196
f 153 196 197
f 153 197 198
f 153 198 199
f 153 199 154
f 153 194 200
f 153 200 201
f 153 201 202
f 153 202 203
f 153 203 195
f 154 199 204
f 154 204 155
f 155 204 205
f 155 205 159
f 157 161 204
f 157 204 158
f 158 204 206
f 158 206 207
f 158 207 165
f 159 205 161
f 159 161 160
f 161 205 204
f 162 168 163
f 163 168 208
f 163 208 209
f 163 209 210
f 163 210 164
f 164 210 169
f 165 207 211
f 165 211 212
f 165 212 213
f 165 213 166
f 166 213 167
f 167 213 212
f 167 212 214
f 167 214 215
f 167 215 216
f 167 216 217
f 167 217 218
f 167 218 219
f 167 219 168
f 168 219 208
f 169 220 170
f 169 210 220
f 170 220 221
f 170 221 222
f 170 222 173
f 170 173 171
f 173 222 174
f 174 223 224
f 174 224 225
f 174 225 226
f 174 226 175
f 174 222 223
f 175 226 181
f 176 180 177
f 177 180 227
f 177 227 228
f 177 228 229
f 177 229 230
f 177 230 178
f 178 230 231
f 178 231 232
f 178 232 233
f 178 233 234
f 178 234 235
f 178 235 236
f 178 236 185
f 178 184 183
f 180 182 237
f 180 237 238
f 180 238 239
f 180 239 228
f 180 228 240
f 180 240 227
f 181 226 241
f 181 241 182
f 182 241 242
f 182 242 237
f 185 236 243
f 185 243 244
f 185 244 186
f 186 245 246
f 186 246 187
f 186 244 245
f 187 246 247
f 187 247 248
f 187 248 249
f 187 249 189
f 187 189 188
f 189 249 250
f 189 250 190
f 190 250 191
f 191 251 252
f 191 252 253
f 191 253 192
f 191 250 249
f 191 249 254
f 191 254 255
f 191 255 251
f 192 253 256
f 192 256 257
f 192 257 200
f 192 200 194
f 195 203 196
f 196 203 258
f 196 258 259
f 196 259 260
f 196 260 261
f 196 261 198
f 196 198 197
f 198 261 262
f 198 262 263
f 198 263 206
f 198 206 199
f 199 206 204
f 200 257 202
f 200 202 264
f 200 264 201
f 201 264 202
f 202 265 203
f 202 257 265
f 203 265 266
f 203 266 267
f 203 267 268
f 203 268 269
f 203 269 258
f 206 263 207
f 207 263 262
f 207 262 261
f 207 261 260
f 207 260 259
f 207 259 269
f 207 269 268
f 207 268 324
f 207 324 394
f 207 394 340
f 207 340 278
f 207 278 223
f 207 223 274
f 207 274 273
f 207 273 271
f 207 271 272
f 207 272 270
f 207 270 209
f 207 209 208
f 207 208 219
f 207 219 218
f 207 218 217
f 207 217 216
f 207 216 215
f 207 215 214
f 207 214 212
f 207 212 211
f 209 270 220
f 209 220 210
f 220 270 221
f 221 271 222
f 221 270 272
f 221 272 271
f 222 271 273
f 222 273 274
f 222 274 223
f 223 275 276
f 223 276 277
f 223 277 224
f 223 278 331
f 223 331 275
f 224 277 241
f 224 241 225
f 225 241 226
f 227 240 228
f 228 279 280
f 228 280 231
f 228 231 281
f 228 281 229
f 228 239 279
f 229 281 230
f 230 281 231
f 231 280 282
f 231 282 232
f 232 282 283
f 232 283 234
f 232 234 233
f 234 284 235
f 234 283 285
f 234 285 284
f 235 284 286
f 235 286 236
f 236 286 243
f 237 287 238
f 237 242 287
f 238 287 288
f 238 288 289
f 238 289 290
f 238 290 239
f 239 290 291
f 239 291 292
f 239 292 293
f 239 293 294
f 239 294 295
f 239 295 296
f 239 296 279
f 241 277 242
f 242 277 276
f 242 276 275
f 242 275 297
f 242 297 287
f 243 286 298
f 243 298 244
f 244 298 299
f 244 299 245
f 245 300 301
f 245 301 302
f 245 302 247
f 245 247 246
f 245 299 300
f 247 302 303
f 247 303 304
f 247 304 249
f 247 249 248
f 249 304 305
f 249 305 306
f 249 306 254
f 251 307 252
f 251 255 308
f 251 308 307
f 252 309 310
f 252 310 311
f 252 311 253
f 252 307 309
f 253 311 312
f 253 312 256
f 254 306 305
f 254 305 301
f 254 301 255
f 255 301 313
f 255 313 314
f 255 314 315
f 255 315 308
f 256 312 316
f 256 316 317
f 256 317 318
f 256 318 257
f 257 318 317
f 257 317 319
f 257 319 265
f 258 269 259
f 265 319 320
f 265 320 321
f 265 321 266
f 266 321 267
f 267 321 322
f 267 322 323
f 267 323 268
f 268 323 325
f 268 325 326
f 268 326 324
f 275 327 328
f 275 328 329
f 275 329 330
f 275 330 297
f 275 331 332
f 275 332 333
f 275 333 334
f 275 334 335
f 275 335 336
f 275 336 337
f 275 337 338
f 275 338 339
f 275 339 327
f 278 340 341
f 278 341 342
f 278 342 343
f 278 343 344
f 278 344 345
f 278 345 346
f 278 346 347
f 278 347 332
f 278 332 331
f 279 296 348
f 279 348 280
f 280 348 282
f 282 349 283
f 282 348 349
f 283 349 350
f 283 350 351
f 283 351 285
f 284 285 286
f 285 352 286
f 285 351 353
f 285 353 354
f 285 354 352
f 286 352 298
f 287 355 356
f 287 356 357
f 287 357 288
f 287 297 355
f 288 357 358
f 288 358 359
f 288 359 289
f 289 359 360
f 289 360 361
f 289 361 362
f 289 362 363
f 289 363 290
f 290 363 364
f 290 364 365
f 290 365 366
f 290 366 367
f 290 367 368
f 290 368 291
f 291 368 367
f 291 367 366
f 291 366 369
f 291 369 370
f 291 370 292
f 292 371 372
f 292 372 373
f 292 373 294
f 292 294 293
f 292 370 309
f 292 309 307
f 292 307 374
f 292 374 375
f 292 375 371
f 294 373 295
f 295 376 377
f 295 377 378
f 295 378 296
f 295 373 376
f 296 378 348
f 297 330 355
f 298 352 299
f 299 352 354
f 299 354 300
f 300 354 301
f 301 305 303
f 301 303 302
f 301 354 353
f 301 353 379
f 301 379 313
f 303 305 304
f 307 308 374
f 308 315 375
f 308 375 374
f 309 370 310
f 310 370 380
f 310 380 381
f 310 381 382
f 310 382 311
f 311 382 383
f 311 383 312
f 312 383 316
f 313 379 384
f 313 384 378
f 313 378 377
f 313 377 314
f 314 377 315
f 315 377 376
f 315 376 385
f 315 385 375
f 316 386 387
f 316 387 388
f 316 388 319
f 316 319 317
f 316 383 386
f 319 389 320
f 319 388 389
f 320 390 321
f 320 389 388
f 320 388 390
f 321 390 391
f 321 391 322
f 322 391 392
f 322 392 323
f 323 392 393
f 323 393 325
f 324 326 394
f 325 393 326
f 326 393 395
f 326 395 396
f 326 396 394
f 327 397 398
f 327 398 328
f 327 339 397
f 328 330 329
f 328 398 399
f 328 399 330
f 330 399 400
f 330 400 401
f 330 401 355
f 332 347 402
f 332 402 403
f 332 403 404
f 332 404 405
f 332 405 333
f 333 405 334
f 334 405 406
f 334 406 407
f 334 407 335
f 335 407 336
f 336 408 409
f 336 409 410
f 336 410 337
f 336 407 408
f 337 410 338
f 338 410 339
f 339 410 411
f 339 411 397
f 340 394 341
f 341 412 413
f 341 413 414
f 341 414 415
f 341 415 342
f 341 394 412
f 342 415 343
f 343 415 344
f 344 415 416
f 344 416 345
f 345 416 417
f 345 417 346
f 346 418 347
f 346 417 418
f 347 418 402
f 348 378 349
f 349 378 384
f 349 384 350
f 350 384 351
f 351 384 379
f 351 379 353
f 355 401 419
f 355 419 420
f 355 420 356
f 356 420 357
f 357 421 422
f 357 422 423
f 357 423 358
f 357 420 421
f 358 423 424
f 358 424 359
f 359 424 360
f 360 424 425
f 360 425 426
f 360 426 361
f 361 426 427
f 361 427 428
f 361 428 362
f 362 429 430
f 362 430 363
f 362 428 431
f 362 431 429
f 363 430 364
f 364 366 365
f 364 430 432
f 364 432 366
f 366 432 369
f 369 432 433
f 369 433 434
f 369 434 435
f 369 435 436
f 369 436 370
f 370 436 437
f 370 437 438
f 370 438 439
f 370 439 440
f 370 440 441
f 370 441 442
f 370 442 380
f 371 385 372
f 371 375 385
f 372 385 376
f 372 376 373
f 380 442 443
f 380 443 381
f 381 443 382
f 382 443 444
f 382 444 383
f 383 444 386
f 386 444 387
f 387 445 391
f 387 391 390
f 387 390 388
f 387 444 443
f 387 443 445
f 391 395 392
f 391 445 446
f 391 446 447
f 391 447 448
f 391 448 449
f 391 449 450
f 391 450 395
f 392 395 393
f 394 396 412
f 395 450 412
f 395 412 396
f 397 411 451
f 397 451 452
f 397 452 398
f 398 452 399
f 399 453 400
f 399 452 453
f 400 453 421
f 400 421 401
f 401 421 419
f 402 418 417
f 402 417 454
f 402 454 455
f 402 455 456
f 402 456 457
f 402 457 458
f 402 458 459
f 402 459 403
f 403 459 404
f 404 460 461
f 404 461 405
f 404 459 460
f 405 461 462
f 405 462 463
f 405 463 406
f 406 463 464
f 406 464 465
f 406 465 466
f 406 466 407
f 407 466 408
f 408 466 409
f 409 466 467
f 409 467 468
f 409 468 410
f 410 468 469
f 410 469 470
f 410 470 471
f 410 471 472
f 410 472 451
f 410 451 411
f 412 450 473
f 412 473 474
f 412 474 413
f 413 474 475
f 413 475 414
f 414 475 416
f 414 416 415
f 416 476 417
f 416 475 476
f 417 476 454
f 419 421 420
f 421 453 477
f 421 477 478
f 421 478 479
f 421 479 480
f 421 480 422
f 422 481 482
f 422 482 483
f 422 483 424
f 422 424 423
f 422 480 481
f 424 483 482
f 424 482 484
f 424 484 425
f 425 484 427
f 425 427 426
f 427 485 486
f 427 486 487
f 427 487 428
f 427 484 488
f 427 488 485
f 428 487 489
f 428 489 490
f 428 490 491
f 428 491 492
f 428 492 431
f 429 433 432
f 429 432 430
f 429 431 434
f 429 434 433
f 431 492 491
f 431 491 493
f 431 493 494
f 431 494 434
f 434 494 435
f 435 494 495
f 435 495 436
f 436 495 437
f 437 495 496
f 437 496 438
f 438 496 439
f 439 491 497
f 439 497 498
f 439 498 440
f 439 496 491
f 440 498 441
f 441 498 499
f 441 499 443
f 441 443 442
f 443 499 500
f 443 500 446
f 443 446 445
f 446 500 501
f 446 501 447
f 447 449 448
f 447 501 502
f 447 502 449
f 449 502 503
f 449 503 450
f 450 503 473
f 451 504 452
f 451 472 505
f 451 505 506
f 451 506 507
f 451 507 504
f 452 504 508
f 452 508 453
f 453 508 509
f 453 509 478
f 453 478 477
f 454 476 510
f 454 510 511
f 454 511 456
f 454 456 455
f 456 512 513
f 456 513 514
f 456 514 457
f 456 511 515
f 456 515 512
f 457 513 516
f 457 516 517
f 457 517 458
f 457 514 513
f 458 517 460
f 458 460 459
f 460 464 463
f 460 463 461
f 460 517 464
f 461 463 462
f 464 517 465
f 465 518 466
f 465 517 518
f 466 519 468
f 466 468 467
f 466 518 519
f 468 519 520
f 468 520 469
f 469 520 521
f 469 521 522
f 469 522 470
f 470 522 521
f 470 521 523
f 470 523 524
f 470 524 525
f 470 525 471
f 471 525 526
f 471 526 527
f 471 527 472
f 472 527 505
f 473 503 474
f 474 502 475
f 474 503 528
f 474 528 502
f 475 502 510
f 475 510 476
f 478 481 479
f 478 509 529
f 478 529 530
f 478 530 531
f 478 531 532
f 478 532 533
f 478 533 481
f 479 481 480
f 481 533 482
f 482 533 488
f 482 488 484
f 485 488 534
f 485 534 535
f 485 535 486
f 486 489 487
f 486 535 490
f 486 490 489
f 488 533 536
f 488 536 534
f 490 535 537
f 490 537 538
f 490 538 497
f 490 497 491
f 491 496 539
f 491 539 493
f 493 539 494
f 494 539 495
f 495 539 496
f 497 511 540
f 497 540 498
f 497 538 537
f 497 537 541
f 497 541 515
f 497 515 511
f 498 542 510
f 498 510 543
f 498 543 499
f 498 540 511
f 498 511 542
f 499 502 501
f 499 501 500
f 499 543 502
f 502 528 503
f 502 543 510
f 504 507 544
f 504 544 545
f 504 545 546
f 504 546 508
f 505 527 506
f 506 547 544
f 506 544 507
f 506 527 526
f 506 526 547
f 508 548 529
f 508 529 509
f 508 546 549
f 508 549 550
f 508 550 551
f 508 551 548
f 510 542 511
f 512 552 553
f 512 553 513
f 512 515 552
f 513 553 554
f 513 554 555
f 513 555 556
f 513 556 516
f 515 541 537
f 515 537 552
f 516 556 557
f 516 557 558
f 516 558 517
f 517 558 559
f 517 559 560
f 517 560 518
f 518 560 519
f 519 560 558
f 519 558 523
f 519 523 520
f 520 523 521
f 523 558 561
f 523 561 524
f 524 561 562
f 524 562 563
f 524 563 564
f 524 564 525
f 525 564 563
f 525 563 565
f 525 565 526
f 526 565 547
f 529 548 566
f 529 566 530
f 530 566 567
f 530 567 531
f 531 567 568
f 531 568 532
f 532 568 569
f 532 569 570
f 532 570 533
f 533 570 536
f 534 536 571
f 534 571 535
f 535 572 552
f 535 552 537
f 535 571 536
f 535 536 573
f 535 573 572
f 536 570 574
f 536 574 573
f 544 547 565
f 544 565 575
f 544 575 551
f 544 551 545
f 545 551 549
f 545 549 546
f 548 551 566
f 549 551 550
f 551 575 576
f 551 576 566
f 552 572 553
f 553 572 577
f 553 577 578
f 553 578 579
f 553 579 580
f 553 580 581
f 553 581 554
f 554 557 555
f 554 581 557
f 555 557 556
f 557 581 561
f 557 561 558
f 558 560 559
f 561 581 562
f 562 581 582
f 562 582 583
f 562 583 566
f 562 566 576
f 562 576 563
f 563 576 565
f 565 576 575
f 566 583 567
f 567 583 584
f 567 584 568
f 568 584 585
f 568 585 569
f 569 585 570
f 570 585 574
f 572 573 577
f 573 574 578
f 573 578 577
f 574 585 578
f 578 585 584
f 578 584 586
f 578 586 587
f 578 587 588
f 578 588 579
f 579 588 580
f 580 588 581
f 581 588 587
f 581 587 582
f 582 587 586
f 582 586 583
f 583 586 584

