# https://github.com/mikedh/trimesh
v 0.02348652 -0.00807741 -0.00047421
v 0.02964726 -0.01019937 -0.00128333
v 0.02342333 -0.00807741 -0.00084006
v 0.02346305 -0.00807741 0.00033338
v 0.03277277 -0.01123929 0.00033338
v 0.03034423 -0.01049938 -0.00209244
v 0.02949198 -0.01020780 -0.00213798
v 0.02919405 -0.01008813 -0.00189813
v 0.03399336 -0.01172469 -0.00091293
v 0.02332221 -0.00807741 -0.00128333
v 0.02325902 -0.00807741 0.00114249
v 0.03277277 -0.01127974 0.00114249
v 0.03365571 -0.01160166 0.00112883
v 0.03399517 -0.01172301 0.00085103
v 0.03358169 -0.01154941 0.00033338
v 0.03098522 -0.01082467 -0.00290155
v 0.03034423 -0.01059040 -0.00290307
v 0.03393920 -0.01174323 -0.00145335
v 0.02911280 -0.01011510 -0.00243855
v 0.02953531 -0.01031398 -0.00290307
v 0.03399697 -0.01172132 -0.00047270
v 0.03440143 -0.01190841 -0.00047270
v 0.03431476 -0.01188144 -0.00122260
v 0.02324999 -0.00807741 -0.00146245
v 0.02902794 -0.01014375 -0.00290307
v 0.02313623 -0.00807741 0.00153111
v 0.02953531 -0.01033421 0.00276223
v 0.03034423 -0.01060388 0.00276223
v 0.03397350 -0.01173312 0.00139297
v 0.03041284 -0.01062748 0.00276223
v 0.03088591 -0.01086512 0.00338463
v 0.03399697 -0.01172132 0.00033338
v 0.03431476 -0.01188144 0.00112883
v 0.03440324 -0.01191009 0.00033338
v 0.03138787 -0.01098647 -0.00290155
v 0.03086244 -0.01087523 -0.00343134
v 0.02833097 -0.01010330 -0.00412509
v 0.02844111 -0.01006960 -0.00371066
v 0.03510742 -0.01238033 -0.00209244
v 0.03439240 -0.01207527 -0.00209244
v 0.03519951 -0.01230448 -0.00047270
v 0.03527174 -0.01235505 -0.00127118
v 0.03551188 -0.01257584 -0.00209244
v 0.02313623 -0.00807741 -0.00167498
v 0.02823166 -0.01000386 -0.00371218
v 0.02823166 -0.01005611 -0.00402793
v 0.02313623 -0.00820719 0.00267722
v 0.02313623 -0.00821730 0.00276223
v 0.03346793 -0.01161851 0.00195312
v 0.03387419 -0.01178031 0.00195312
v 0.03439240 -0.01202470 0.00195312
v 0.03508576 -0.01237696 0.00195312
v 0.03526271 -0.01236179 0.00109391
v 0.02313623 -0.00834708 0.00356983
v 0.03041284 -0.01074883 0.00361841
v 0.03071618 -0.01093085 0.00392505
v 0.03315015 -0.01173986 0.00311897
v 0.03331084 -0.01167076 0.00257855
v 0.03519951 -0.01230617 0.00033338
v 0.03521576 -0.01265506 -0.00293343
v 0.03203428 -0.01149042 -0.00377746
v 0.03114231 -0.01108591 -0.00370459
v 0.03041284 -0.01092748 -0.00408410
v 0.03041284 -0.01104209 -0.00439681
v 0.03041284 -0.01109266 -0.00453192
v 0.02980796 -0.01096119 -0.00481124
v 0.02926808 -0.01087186 -0.00500706
v 0.02345763 -0.00930104 -0.00573268
v 0.02313623 -0.00904991 -0.00541086
v 0.02313623 -0.00874484 -0.00459719
v 0.02313623 -0.00871787 -0.00451826
v 0.02313623 -0.00854090 -0.00384880
v 0.02313623 -0.00845158 -0.00345260
v 0.02313623 -0.00815831 -0.00208637
v 0.03600842 -0.01300731 -0.00290155
v 0.03562202 -0.01252696 -0.00047270
v 0.03561661 -0.01253033 -0.00099338
v 0.03593801 -0.01272416 -0.00127118
v 0.03558952 -0.01254719 -0.00153228
v 0.03600842 -0.01284720 -0.00209244
v 0.03493950 -0.01246460 0.00259677
v 0.03358169 -0.01186122 0.00281385
v 0.03653386 -0.01327530 0.00256489
v 0.03600842 -0.01287753 0.00195312
v 0.03557508 -0.01255562 0.00133073
v 0.03561300 -0.01253370 0.00079183
v 0.02313623 -0.00835719 0.00361992
v 0.03115495 -0.01131176 0.00438198
v 0.03240984 -0.01170953 0.00402068
v 0.03258138 -0.01162862 0.00357135
v 0.03017631 -0.01083141 0.00420892
v 0.02988921 -0.01093254 0.00475086
v 0.03041284 -0.01101007 0.00442448
v 0.03298583 -0.01181065 0.00357135
v 0.03408364 -0.01248988 0.00409962
v 0.03424615 -0.01240898 0.00357135
v 0.03561841 -0.01253033 0.00033338
v 0.03404392 -0.01251179 -0.00418429
v 0.03235026 -0.01173649 -0.00409017
v 0.03176163 -0.01164211 -0.00452129
v 0.03115495 -0.01138929 -0.00452129
v 0.03157746 -0.01172132 -0.00494027
v 0.03115495 -0.01163200 -0.00510422
v 0.03041284 -0.01153087 -0.00543211
v 0.03065479 -0.01176515 -0.00568714
v 0.02313623 -0.00924205 -0.00579492
v 0.03651038 -0.01328541 -0.00290155
v 0.03642913 -0.01333597 -0.00332356
v 0.03602648 -0.01274438 -0.00047270
v 0.03676497 -0.01314720 -0.00047270
v 0.03671983 -0.01316911 -0.00128181
v 0.03712429 -0.01340845 -0.00128181
v 0.03662775 -0.01321462 -0.00209244
v 0.03520673 -0.01266517 0.00282296
v 0.03680831 -0.01354497 0.00280474
v 0.03745833 -0.01398149 0.00276223
v 0.03798557 -0.01419555 0.00218842
v 0.03768042 -0.01392250 0.00193187
v 0.03702498 -0.01347418 0.00195312
v 0.03662053 -0.01322136 0.00195312
v 0.03606440 -0.01310338 0.00280474
v 0.03637316 -0.01337137 0.00310379
v 0.03593259 -0.01274607 0.00109391
v 0.03714235 -0.01339496 0.00033338
v 0.03673609 -0.01316069 0.00033338
v 0.03716943 -0.01337811 -0.00047270
v 0.02313623 -0.00861675 0.00433947
v 0.02340166 -0.00851394 0.00387192
v 0.03161899 -0.01170278 0.00482221
v 0.03215886 -0.01182582 0.00456110
v 0.03357627 -0.01237359 0.00437439
v 0.02958587 -0.01111457 0.00517439
v 0.03035145 -0.01144660 0.00522904
v 0.02313623 -0.00864034 0.00439867
v 0.02438210 -0.00925721 0.00484498
v 0.03465061 -0.01261123 0.00357135
v 0.03384350 -0.01260955 0.00463852
v 0.03436713 -0.01276798 0.00437439
v 0.03563286 -0.01332923 0.00400854
v 0.03579717 -0.01323653 0.00357135
v 0.03381641 -0.01263989 -0.00472319
v 0.03356002 -0.01240730 -0.00448031
v 0.03277277 -0.01207527 -0.00452129
v 0.03216428 -0.01181402 -0.00452129
v 0.03327473 -0.01249325 -0.00498277
v 0.03172732 -0.01243426 -0.00582225
v 0.03115495 -0.01228763 -0.00593458
v 0.03041284 -0.01208706 -0.00602566
v 0.03041284 -0.01172301 -0.00573268
v 0.02761595 -0.01168761 -0.00657367
v 0.02713024 -0.01160503 -0.00662984
v 0.02633758 -0.01148368 -0.00669967
v 0.02313623 -0.00962295 -0.00605299
v 0.03011311 -0.01167413 -0.00578733
v 0.03703220 -0.01347249 -0.00209244
v 0.03800182 -0.01417701 -0.00236872
v 0.03733374 -0.01407419 -0.00343438
v 0.03800543 -0.01498602 -0.00408258
v 0.03709721 -0.01424779 -0.00397328
v 0.03722360 -0.01496579 -0.00492509
v 0.03617815 -0.01351463 -0.00386550
v 0.03564008 -0.01332249 -0.00415393
v 0.03892990 -0.01490343 -0.00265867
v 0.03877642 -0.01501804 -0.00319908
v 0.03762806 -0.01368823 -0.00047270
v 0.03762806 -0.01375396 -0.00128181
v 0.03806682 -0.01413318 -0.00182830
v 0.03769125 -0.01391913 -0.00209547
v 0.03731569 -0.01409273 0.00329051
v 0.03818960 -0.01484444 0.00357135
v 0.03786279 -0.01427813 0.00276223
v 0.03806501 -0.01413487 0.00164648
v 0.03846766 -0.01472646 0.00271821
v 0.03896601 -0.01487478 0.00195312
v 0.03908879 -0.01478545 0.00114249
v 0.03708457 -0.01343204 0.00114249
v 0.03810835 -0.01410622 0.00114249
v 0.03762806 -0.01378767 0.00114249
v 0.03620162 -0.01348766 0.00357135
v 0.03762806 -0.01371351 0.00033338
v 0.03815529 -0.01406914 0.00033338
v 0.03008422 -0.01165559 0.00566775
v 0.03062410 -0.01178874 0.00552657
v 0.03330362 -0.01248483 0.00485257
v 0.02872460 -0.01103367 0.00543701
v 0.02313623 -0.00906170 0.00506661
v 0.02386751 -0.00917294 0.00493909
v 0.03486367 -0.01330058 0.00484042
v 0.03515979 -0.01320114 0.00431974
v 0.03540174 -0.01348935 0.00454896
v 0.03805418 -0.01495062 0.00399943
v 0.03711346 -0.01423094 0.00383093
v 0.03683359 -0.01390734 0.00356527
v 0.03479505 -0.01334777 -0.00492357
v 0.03425698 -0.01318091 -0.00507993
v 0.03226720 -0.01259944 -0.00567500
v 0.03164246 -0.01330563 -0.00657216
v 0.03277277 -0.01316069 -0.00590726
v 0.03218414 -0.01345564 -0.00646589
v 0.02990727 -0.01255224 -0.00653572
v 0.02936739 -0.01244101 -0.00660555
v 0.02872460 -0.01231965 -0.00667235
v 0.02713024 -0.01215785 -0.00689398
v 0.02633758 -0.01213257 -0.00700783
v 0.02313623 -0.01184942 -0.00732207
v 0.02313623 -0.01132356 -0.00705489
v 0.02313623 -0.01072186 -0.00671941
v 0.02313623 -0.01030556 -0.00647956
v 0.03837558 -0.01439780 -0.00209547
v 0.03823655 -0.01481410 -0.00354368
v 0.03811377 -0.01570064 -0.00500099
v 0.03781042 -0.01512759 -0.00452129
v 0.03740416 -0.01483096 -0.00452129
v 0.03754680 -0.01540569 -0.00509663
v 0.03681914 -0.01482927 -0.00505109
v 0.03574300 -0.01406577 -0.00500706
v 0.03628107 -0.01424442 -0.00481124
v 0.03519951 -0.01348261 -0.00475052
v 0.03899671 -0.01484781 -0.00209244
v 0.03940117 -0.01522703 -0.00209244
v 0.03970631 -0.01569896 -0.00262375
v 0.03925491 -0.01535681 -0.00291066
v 0.03899851 -0.01560457 -0.00371066
v 0.03885226 -0.01576469 -0.00412964
v 0.03840627 -0.01557423 -0.00444843
v 0.03815710 -0.01406240 -0.00047270
v 0.03811015 -0.01409779 -0.00128181
v 0.03859406 -0.01514445 0.00357135
v 0.03875837 -0.01503321 0.00296110
v 0.03851281 -0.01438263 0.00114249
v 0.03887032 -0.01494556 0.00242219
v 0.03937047 -0.01525737 0.00195312
v 0.03949144 -0.01512759 0.00114249
v 0.03951672 -0.01510062 0.00033338
v 0.03911046 -0.01476522 0.00033338
v 0.03856156 -0.01435903 0.00033338
v 0.02953531 -0.01155784 0.00576794
v 0.02953531 -0.01200111 0.00617326
v 0.03005352 -0.01248988 0.00643739
v 0.03059340 -0.01261966 0.00634783
v 0.03115495 -0.01232808 0.00581196
v 0.03170746 -0.01246292 0.00567231
v 0.03358530 -0.01294158 0.00519261
v 0.03494673 -0.01407925 0.00566927
v 0.03439240 -0.01316406 0.00498160
v 0.02818111 -0.01095782 0.00554631
v 0.02313623 -0.00986060 0.00600324
v 0.02386751 -0.00951172 0.00534745
v 0.02511699 -0.01009825 0.00560855
v 0.03548660 -0.01421746 0.00551291
v 0.03578995 -0.01402869 0.00497249
v 0.03632982 -0.01421577 0.00469317
v 0.03894073 -0.01567873 0.00408444
v 0.03725791 -0.01494219 0.00481462
v 0.03519951 -0.01388542 -0.00516646
v 0.03449893 -0.01368317 -0.00539113
v 0.03324584 -0.01330395 -0.00577367
v 0.03260485 -0.01399498 -0.00662984
v 0.03193497 -0.01373542 -0.00669208
v 0.03115495 -0.01375059 -0.00686058
v 0.03115495 -0.01321125 -0.00662832
v 0.03283416 -0.01373542 -0.00635052
v 0.03314473 -0.01418206 -0.00652965
v 0.02872460 -0.01294327 -0.00696685
v 0.02791388 -0.01294327 -0.00709588
v 0.02633758 -0.01217639 -0.00702605
v 0.02823166 -0.01294327 -0.00704578
v 0.02629425 -0.01213257 -0.00701390
v 0.02548533 -0.01213257 -0.00712472
v 0.02500504 -0.01256910 -0.00734484
v 0.02313623 -0.01188818 -0.00733421
v 0.03865364 -0.01604447 -0.00466854
v 0.03884143 -0.01658549 -0.00492509
v 0.03840627 -0.01626021 -0.00508600
v 0.03761722 -0.01617593 -0.00553686
v 0.03710082 -0.01590289 -0.00567803
v 0.03622690 -0.01511916 -0.00563249
v 0.03568883 -0.01491186 -0.00577519
v 0.03598495 -0.01457814 -0.00531978
v 0.03904004 -0.01481073 -0.00128181
v 0.03944450 -0.01518153 -0.00128181
v 0.03851461 -0.01440623 -0.00128181
v 0.03975326 -0.01563322 -0.00209244
v 0.04046106 -0.01658887 -0.00167042
v 0.04061634 -0.01711809 -0.00209244
v 0.04051161 -0.01729169 -0.00262375
v 0.03984534 -0.01616919 -0.00289548
v 0.03958173 -0.01589110 -0.00316265
v 0.03940478 -0.01616919 -0.00371673
v 0.03957270 -0.01670516 -0.00399150
v 0.03896240 -0.01626021 -0.00444843
v 0.03856156 -0.01437757 -0.00047270
v 0.03906532 -0.01554895 0.00357135
v 0.03966478 -0.01575795 0.00240094
v 0.03973159 -0.01566188 0.00195312
v 0.03982187 -0.01553210 0.00114249
v 0.03948061 -0.01513939 -0.00047270
v 0.03907796 -0.01478208 -0.00047270
v 0.03984715 -0.01550513 0.00033338
v 0.03982548 -0.01554558 -0.00047270
v 0.03979118 -0.01558603 -0.00128181
v 0.02823166 -0.01174998 0.00637060
v 0.02324818 -0.01017578 0.00633265
v 0.02521088 -0.01088029 0.00644195
v 0.02953531 -0.01294327 0.00673645
v 0.03033159 -0.01290956 0.00656795
v 0.03115495 -0.01375059 0.00677592
v 0.03115495 -0.01317923 0.00649508
v 0.02824250 -0.01176346 0.00637819
v 0.02823166 -0.01177357 0.00638882
v 0.02770082 -0.01166908 0.00645106
v 0.02313623 -0.01122243 0.00707497
v 0.02313623 -0.01162357 0.00726472
v 0.03162982 -0.01331238 0.00642677
v 0.03216970 -0.01345901 0.00633265
v 0.03332890 -0.01327024 0.00567231
v 0.03386878 -0.01340508 0.00553416
v 0.03520854 -0.01451746 0.00588483
v 0.03600842 -0.01480399 0.00572240
v 0.02313623 -0.01002577 0.00619603
v 0.02386751 -0.00991454 0.00581804
v 0.03642371 -0.01495736 0.00560399
v 0.03603731 -0.01438600 0.00522145
v 0.03949867 -0.01616751 0.00363359
v 0.03809932 -0.01571075 0.00484042
v 0.03864100 -0.01599222 0.00462334
v 0.03966298 -0.01737597 0.00479792
v 0.03963950 -0.01660909 0.00394478
v 0.03519951 -0.01434723 -0.00557025
v 0.03474089 -0.01419723 -0.00570232
v 0.03378391 -0.01347923 -0.00562035
v 0.03420101 -0.01401689 -0.00585109
v 0.03358169 -0.01476691 -0.00663895
v 0.03439240 -0.01618099 -0.00697140
v 0.03358169 -0.01537029 -0.00688943
v 0.03283416 -0.01449555 -0.00676191
v 0.03196566 -0.01456128 -0.00698506
v 0.02915614 -0.01414330 -0.00735850
v 0.03041284 -0.01375059 -0.00699569
v 0.03656094 -0.01566019 -0.00580100
v 0.03401503 -0.01494388 -0.00655698
v 0.03432740 -0.01541075 -0.00666020
v 0.02947031 -0.01382475 -0.00718544
v 0.02823166 -0.01322473 -0.00715508
v 0.02739025 -0.01340339 -0.00734180
v 0.02713024 -0.01299383 -0.00722643
v 0.02713024 -0.01335283 -0.00735698
v 0.02446516 -0.01248314 -0.00737368
v 0.02685037 -0.01330058 -0.00737216
v 0.02313623 -0.01225224 -0.00742226
v 0.03954381 -0.01757148 -0.00479757
v 0.03970631 -0.01810913 -0.00496608
v 0.03896240 -0.01698831 -0.00501314
v 0.03974423 -0.01724450 -0.00425715
v 0.03837197 -0.01704393 -0.00543667
v 0.03788265 -0.01680966 -0.00565830
v 0.03734277 -0.01644392 -0.00579492
v 0.03572133 -0.01647257 -0.00660252
v 0.04024800 -0.01624335 -0.00135164
v 0.04048272 -0.01655516 -0.00113000
v 0.04067592 -0.01690910 -0.00135164
v 0.04103885 -0.01779732 -0.00128181
v 0.04085468 -0.01779732 -0.00209244
v 0.04052425 -0.01805014 -0.00349510
v 0.04040508 -0.01751249 -0.00316265
v 0.04026425 -0.01700854 -0.00289548
v 0.04030216 -0.01778721 -0.00374406
v 0.03973159 -0.01643212 -0.00345260
v 0.03957992 -0.01588772 0.00293984
v 0.03982006 -0.01616751 0.00270758
v 0.04004938 -0.01618099 0.00195312
v 0.04044300 -0.01661920 0.00129885
v 0.04026064 -0.01625852 0.00107418
v 0.04025161 -0.01615065 0.00033338
v 0.04049356 -0.01653493 -0.00047270
v 0.04022813 -0.01613043 -0.00047270
v 0.02467642 -0.01079602 0.00651026
v 0.02313623 -0.01031398 0.00647231
v 0.02872460 -0.01294327 0.00687155
v 0.02755637 -0.01333092 0.00722222
v 0.03041284 -0.01375228 0.00691558
v 0.02527769 -0.01245786 0.00724954
v 0.03196566 -0.01456128 0.00693227
v 0.03277277 -0.01456128 0.00674404
v 0.03192594 -0.01373879 0.00656946
v 0.02313623 -0.01115165 0.00703398
v 0.02313623 -0.01213088 0.00740135
v 0.02467642 -0.01234999 0.00728901
v 0.03277277 -0.01403374 0.00647383
v 0.03318806 -0.01415172 0.00640855
v 0.03372794 -0.01430847 0.00631747
v 0.03596148 -0.01542929 0.00613682
v 0.03442671 -0.01457140 0.00621880
v 0.03519951 -0.01517984 0.00630532
v 0.03619801 -0.01591975 0.00632810
v 0.03710262 -0.01667314 0.00634479
v 0.03771111 -0.01690236 0.00606851
v 0.03741861 -0.01618099 0.00575276
v 0.03782487 -0.01618099 0.00542790
v 0.03974604 -0.01642875 0.00340588
v 0.03889198 -0.01653156 0.00482676
v 0.03802348 -0.01659561 0.00558730
v 0.03977312 -0.01779732 0.00493909
v 0.04006743 -0.01779732 0.00438198
v 0.03975506 -0.01719562 0.00438198
v 0.03919713 -0.01706079 0.00496490
v 0.03880892 -0.01744001 0.00556756
v 0.03926935 -0.01774339 0.00537477
v 0.04035633 -0.01775182 0.00364725
v 0.04043036 -0.01745518 0.00307647
v 0.03517062 -0.01619279 -0.00670271
v 0.03519951 -0.01698831 -0.00697444
v 0.03439240 -0.01698831 -0.00717482
v 0.03358169 -0.01618099 -0.00715508
v 0.03277277 -0.01537029 -0.00707311
v 0.02823166 -0.01357025 -0.00728260
v 0.03215886 -0.01591132 -0.00732207
v 0.03041284 -0.01495062 -0.00736002
v 0.03012033 -0.01485961 -0.00738279
v 0.02947031 -0.01457814 -0.00740404
v 0.02872460 -0.01456128 -0.00746780
v 0.02872460 -0.01406745 -0.00738127
v 0.03542160 -0.01593155 -0.00646134
v 0.03488172 -0.01570570 -0.00658430
v 0.03455491 -0.01516636 -0.00643553
v 0.02471073 -0.01287922 -0.00744351
v 0.02313623 -0.01230617 -0.00743440
v 0.02823166 -0.01397475 -0.00740252
v 0.02791388 -0.01391576 -0.00741618
v 0.02629425 -0.01375228 -0.00751182
v 0.03988326 -0.01782429 -0.00452585
v 0.04043217 -0.01836195 -0.00403552
v 0.04023716 -0.01862319 -0.00446816
v 0.03980020 -0.01860465 -0.00503742
v 0.03888476 -0.01892320 -0.00576456
v 0.03874212 -0.01838217 -0.00567196
v 0.03858503 -0.01779732 -0.00557329
v 0.03805779 -0.01734900 -0.00575090
v 0.03763167 -0.01855746 -0.00639303
v 0.03736444 -0.01879510 -0.00661618
v 0.03718388 -0.01825576 -0.00652510
v 0.03676136 -0.01703719 -0.00630346
v 0.03625940 -0.01680123 -0.00646741
v 0.03599759 -0.01703719 -0.00667690
v 0.04074815 -0.01698831 -0.00047270
v 0.04108399 -0.01779732 -0.00047270
v 0.04123566 -0.01847318 -0.00047270
v 0.04127358 -0.01897882 -0.00089167
v 0.04117247 -0.01866701 -0.00121046
v 0.04096663 -0.01860465 -0.00209244
v 0.04077162 -0.01860465 -0.00290155
v 0.04055856 -0.01862319 -0.00374406
v 0.04037439 -0.01673381 0.00195312
v 0.04052606 -0.01728664 0.00253605
v 0.04046286 -0.01658212 0.00075843
v 0.04060009 -0.01713832 0.00195312
v 0.04095399 -0.01779732 0.00195312
v 0.04061995 -0.01692932 0.00107418
v 0.04070481 -0.01698831 0.00033338
v 0.04047911 -0.01655516 0.00033338
v 0.02313623 -0.01050444 0.00662563
v 0.02386751 -0.01067467 0.00659375
v 0.02467642 -0.01294327 0.00741045
v 0.03196566 -0.01698831 0.00746207
v 0.03277277 -0.01698831 0.00738920
v 0.03234123 -0.01578828 0.00721311
v 0.03202886 -0.01539052 0.00715846
v 0.03115495 -0.01456128 0.00705979
v 0.03034423 -0.01375228 0.00692620
v 0.03277277 -0.01537029 0.00704005
v 0.03358169 -0.01537029 0.00685637
v 0.03442671 -0.01532142 0.00660590
v 0.03418115 -0.01484949 0.00646624
v 0.03350766 -0.01457140 0.00653151
v 0.02313623 -0.01294327 0.00753038
v 0.02386751 -0.01294327 0.00747421
v 0.03472103 -0.01501635 0.00637971
v 0.03519951 -0.01558266 0.00649508
v 0.03565994 -0.01573941 0.00642221
v 0.03656275 -0.01645909 0.00646472
v 0.03739694 -0.01721079 0.00649963
v 0.03793501 -0.01757316 0.00633265
v 0.03826905 -0.01713326 0.00579223
v 0.03992479 -0.01860465 0.00511215
v 0.04035272 -0.01853218 0.00439260
v 0.04045745 -0.01821531 0.00396603
v 0.03955645 -0.01860465 0.00551747
v 0.03901296 -0.01797598 0.00571329
v 0.04056578 -0.01799115 0.00342562
v 0.04069398 -0.01775182 0.00278956
v 0.03519951 -0.01779732 -0.00709436
v 0.03600842 -0.01779732 -0.00687424
v 0.03334696 -0.01718720 -0.00738582
v 0.03360335 -0.01694449 -0.00730689
v 0.03311584 -0.01664786 -0.00734635
v 0.03257596 -0.01645066 -0.00738734
v 0.03281611 -0.01618099 -0.00728108
v 0.03191872 -0.01618099 -0.00741922
v 0.03041284 -0.01537367 -0.00744351
v 0.03115495 -0.01618099 -0.00750575
v 0.02953531 -0.01537029 -0.00752396
v 0.02823166 -0.01456128 -0.00750575
v 0.02386751 -0.01294327 -0.00751941
v 0.02313623 -0.01294327 -0.00757254
v 0.02791388 -0.01456128 -0.00752852
v 0.02386751 -0.01375228 -0.00768184
v 0.04047911 -0.01890129 -0.00416455
v 0.04026425 -0.01941534 -0.00463059
v 0.03985979 -0.01941534 -0.00508145
v 0.03845864 -0.01863499 -0.00593610
v 0.03931088 -0.01941534 -0.00548524
v 0.03890823 -0.01941534 -0.00578126
v 0.03843877 -0.01941534 -0.00610308
v 0.03787723 -0.01941534 -0.00646134
v 0.03747277 -0.01941534 -0.00665717
v 0.03681914 -0.01941534 -0.00685603
v 0.03687512 -0.01855746 -0.00673307
v 0.03661511 -0.01779732 -0.00663895
v 0.03645260 -0.01733889 -0.00656457
v 0.04103705 -0.01779732 0.00114249
v 0.04124469 -0.01834341 0.00114249
v 0.04124108 -0.01837374 0.00033338
v 0.04142706 -0.01941534 0.00033338
v 0.04155526 -0.02022435 0.00033338
v 0.04144873 -0.02022435 -0.00047270
v 0.04131692 -0.02022435 -0.00108446
v 0.04073912 -0.02022435 -0.00371066
v 0.04103885 -0.01860465 0.00276223
v 0.04123025 -0.01857431 0.00202751
v 0.03115495 -0.01698831 0.00750457
v 0.03277277 -0.01779732 0.00745448
v 0.03358169 -0.01779732 0.00739527
v 0.02313623 -0.01375228 0.00762601
v 0.03439060 -0.01779395 0.00728901
v 0.03354196 -0.01700517 0.00727838
v 0.03324584 -0.01652988 0.00722677
v 0.03277277 -0.01594671 0.00717819
v 0.03354196 -0.01622818 0.00710837
v 0.03519951 -0.01698831 0.00697781
v 0.03439240 -0.01618099 0.00692924
v 0.03600842 -0.01698831 0.00681083
v 0.03519951 -0.01618099 0.00673645
v 0.03596148 -0.01618773 0.00653303
v 0.03682637 -0.01695966 0.00658616
v 0.03681914 -0.01779732 0.00685030
v 0.03764972 -0.01782598 0.00656643
v 0.03807585 -0.01811250 0.00643284
v 0.03997715 -0.01941534 0.00515314
v 0.04038161 -0.01941534 0.00465219
v 0.03961242 -0.01941534 0.00555693
v 0.04061092 -0.01941534 0.00424687
v 0.04052786 -0.01875465 0.00413150
v 0.04067231 -0.01853218 0.00364725
v 0.03915018 -0.01860465 0.00580893
v 0.03864461 -0.01941534 0.00629318
v 0.03920616 -0.01941534 0.00588938
v 0.03439240 -0.01779732 -0.00724313
v 0.03600842 -0.01860465 -0.00698658
v 0.03345529 -0.01779732 -0.00740100
v 0.03277277 -0.01779732 -0.00747842
v 0.03196566 -0.01698831 -0.00752700
v 0.03281611 -0.01694449 -0.00742985
v 0.03385975 -0.01779732 -0.00733421
v 0.03041284 -0.01618099 -0.00756191
v 0.02872460 -0.01537029 -0.00758165
v 0.02823166 -0.01487815 -0.00754977
v 0.02313623 -0.01375228 -0.00773042
v 0.02713024 -0.01456128 -0.00758317
v 0.02633758 -0.01456128 -0.00763782
v 0.04051161 -0.01941534 -0.00422679
v 0.04055675 -0.02022435 -0.00428296
v 0.04024619 -0.02022435 -0.00468828
v 0.03983993 -0.02022435 -0.00506475
v 0.03888657 -0.02004570 -0.00576760
v 0.03851281 -0.02027829 -0.00599530
v 0.03741319 -0.02006424 -0.00662377
v 0.03687512 -0.02029009 -0.00669664
v 0.03600842 -0.02022435 -0.00688335
v 0.03600842 -0.01941534 -0.00700783
v 0.04130608 -0.01882544 0.00180739
v 0.04131872 -0.01874623 0.00114249
v 0.04142525 -0.01941534 0.00114249
v 0.04153178 -0.02022435 0.00114249
v 0.04158234 -0.02103505 0.00033338
v 0.04147039 -0.02103505 -0.00047270
v 0.04093413 -0.02103505 -0.00290155
v 0.04073009 -0.02103505 -0.00371066
v 0.04119955 -0.01934287 0.00274554
v 0.04126997 -0.01902769 0.00234629
v 0.04092871 -0.01941534 0.00357135
v 0.03034423 -0.01698663 0.00754100
v 0.02386751 -0.01456128 0.00766093
v 0.02313623 -0.01456128 0.00769433
v 0.03196566 -0.01779732 0.00748332
v 0.03358169 -0.01860465 0.00736643
v 0.03576106 -0.01914736 0.00724043
v 0.03576106 -0.01885915 0.00724043
v 0.03411795 -0.01728664 0.00723740
v 0.03494853 -0.01805688 0.00724195
v 0.03465963 -0.01752091 0.00719034
v 0.03439060 -0.01700517 0.00712962
v 0.03600842 -0.01779732 0.00700514
v 0.03681914 -0.01860465 0.00697326
v 0.03762806 -0.01860465 0.00669850
v 0.03602106 -0.01859454 0.00714935
v 0.03814627 -0.01860465 0.00647079
v 0.03855072 -0.01860465 0.00621424
v 0.04038342 -0.02022435 0.00469469
v 0.04070301 -0.02022435 0.00429089
v 0.03919171 -0.02022435 0.00591215
v 0.03959798 -0.02022435 0.00553872
v 0.03997715 -0.02022435 0.00513492
v 0.04108038 -0.02022435 0.00357135
v 0.03859406 -0.02022435 0.00631747
v 0.03824016 -0.01941534 0.00650115
v 0.03519951 -0.01860465 -0.00713079
v 0.03439240 -0.01860465 -0.00725983
v 0.03439240 -0.01941534 -0.00725679
v 0.03385614 -0.01860465 -0.00733876
v 0.03344988 -0.01860465 -0.00739038
v 0.03277277 -0.01860465 -0.00744351
v 0.03196566 -0.01779732 -0.00752700
v 0.03333973 -0.01927040 -0.00737216
v 0.03115495 -0.01698831 -0.00757558
v 0.03041284 -0.01625009 -0.00756799
v 0.03034423 -0.01618099 -0.00756647
v 0.02823166 -0.01537029 -0.00761201
v 0.02548533 -0.01456128 -0.00769398
v 0.02313623 -0.01383149 -0.00773952
v 0.04054050 -0.02103505 -0.00423894
v 0.04017577 -0.02103505 -0.00464274
v 0.03976951 -0.02103505 -0.00500858
v 0.03883240 -0.02058504 -0.00572965
v 0.03834488 -0.02103505 -0.00592244
v 0.03766236 -0.02029009 -0.00645527
v 0.03874934 -0.02103505 -0.00567955
v 0.03718388 -0.02060358 -0.00653572
v 0.03762806 -0.02103505 -0.00624122
v 0.03664400 -0.02078223 -0.00659341
v 0.03597773 -0.02104516 -0.00664199
v 0.03519951 -0.02103505 -0.00679227
v 0.03519951 -0.02022435 -0.00702757
v 0.03519951 -0.01941534 -0.00713383
v 0.04141984 -0.02022435 0.00195312
v 0.04151914 -0.02103505 0.00114249
v 0.04141081 -0.02183563 0.00033338
v 0.04136386 -0.02176484 -0.00047270
v 0.04130247 -0.02160641 -0.00101312
v 0.04101538 -0.02184406 -0.00209244
v 0.04080593 -0.02184406 -0.00290155
v 0.04048814 -0.02148337 -0.00415545
v 0.04124469 -0.02022435 0.00301119
v 0.04128983 -0.01956872 0.00246470
v 0.02953531 -0.01698663 0.00756985
v 0.02713024 -0.01617930 0.00762146
v 0.02313623 -0.01537198 0.00770040
v 0.02386751 -0.01537198 0.00769433
v 0.02872460 -0.01698663 0.00758655
v 0.03115495 -0.01779732 0.00749243
v 0.03439240 -0.01924174 0.00725865
v 0.03519951 -0.01922657 0.00725561
v 0.03041284 -0.01779732 0.00749698
v 0.02872460 -0.01779564 0.00750457
v 0.02823166 -0.01779564 0.00750609
v 0.03277277 -0.01860465 0.00736795
v 0.03277277 -0.01926028 0.00725865
v 0.03519951 -0.01963277 0.00717819
v 0.03600842 -0.02022435 0.00699451
v 0.03602106 -0.01941703 0.00715998
v 0.03681914 -0.01941534 0.00700058
v 0.03548841 -0.01831644 0.00719489
v 0.03762806 -0.01941534 0.00674100
v 0.04065426 -0.02103505 0.00418919
v 0.04098649 -0.02103505 0.00357135
v 0.03905268 -0.02103505 0.00578768
v 0.03945714 -0.02103505 0.00540361
v 0.04026425 -0.02103505 0.00459146
v 0.04130789 -0.02079066 0.00258311
v 0.03818960 -0.02022435 0.00646472
v 0.03807224 -0.02065751 0.00641462
v 0.03838100 -0.02096932 0.00618540
v 0.03439240 -0.02022435 -0.00714749
v 0.03359794 -0.01948950 -0.00734028
v 0.03277277 -0.01936309 -0.00738734
v 0.03196566 -0.01860465 -0.00747235
v 0.03041284 -0.01779732 -0.00757861
v 0.03041284 -0.01705910 -0.00760442
v 0.03041284 -0.01698831 -0.00760594
v 0.03277277 -0.01976929 -0.00734939
v 0.03041284 -0.01698663 -0.00760594
v 0.02823166 -0.01617930 -0.00766666
v 0.02629425 -0.01537198 -0.00771220
v 0.02713024 -0.01537029 -0.00767121
v 0.02467642 -0.01456128 -0.00773649
v 0.02791388 -0.01537029 -0.00763023
v 0.02313623 -0.01456128 -0.00780632
v 0.02386751 -0.01456128 -0.00777596
v 0.03968826 -0.02151540 -0.00495090
v 0.03924769 -0.02103505 -0.00535925
v 0.03927658 -0.02180698 -0.00514824
v 0.03844961 -0.02189799 -0.00560972
v 0.03818780 -0.02166372 -0.00581618
v 0.03683720 -0.02268172 -0.00589511
v 0.03681914 -0.02184406 -0.00619568
v 0.03597773 -0.02179181 -0.00640973
v 0.03767861 -0.02189799 -0.00592396
v 0.03798195 -0.02220306 -0.00571902
v 0.03622510 -0.02132157 -0.00650840
v 0.03568703 -0.02149012 -0.00656153
v 0.03519951 -0.02157439 -0.00660404
v 0.03439240 -0.02103505 -0.00687121
v 0.04131331 -0.02022435 0.00260891
v 0.04130428 -0.02152045 0.00169202
v 0.04136567 -0.02169574 0.00114249
v 0.04126997 -0.02224182 0.00033338
v 0.04109483 -0.02265307 -0.00047270
v 0.04125733 -0.02217272 -0.00047270
v 0.04101177 -0.02265307 -0.00128181
v 0.04119413 -0.02186260 -0.00128333
v 0.04083301 -0.02265307 -0.00209244
v 0.04056759 -0.02178844 -0.00366209
v 0.04049356 -0.02230081 -0.00335696
v 0.04030758 -0.02202103 -0.00389586
v 0.03976770 -0.02241711 -0.00427841
v 0.03956728 -0.02205305 -0.00481883
v 0.04058023 -0.02260250 -0.00285601
v 0.02633758 -0.01617593 0.00764119
v 0.02313623 -0.01617593 0.00766397
v 0.02386751 -0.01617593 0.00766397
v 0.02823166 -0.01698663 0.00759110
v 0.03439240 -0.01964625 0.00718123
v 0.03196566 -0.01966984 0.00718882
v 0.03277277 -0.01966479 0.00718730
v 0.03358169 -0.01965636 0.00718427
v 0.02633758 -0.01698494 0.00760173
v 0.02467642 -0.01698494 0.00760780
v 0.02713024 -0.01779564 0.00750761
v 0.03041284 -0.01963277 0.00719641
v 0.03041284 -0.01966816 0.00719034
v 0.03519951 -0.02022435 0.00703550
v 0.03277277 -0.02022435 0.00705523
v 0.03573939 -0.02228059 0.00642829
v 0.03600842 -0.02103505 0.00676225
v 0.03681914 -0.02022435 0.00685334
v 0.03519951 -0.02103505 0.00682297
v 0.03762806 -0.02022435 0.00663777
v 0.04052967 -0.02157270 0.00404497
v 0.04065426 -0.02184237 0.00358197
v 0.04052967 -0.02241711 0.00331783
v 0.04092871 -0.02184406 0.00276223
v 0.04119955 -0.02104853 0.00281537
v 0.03844961 -0.02182046 0.00579982
v 0.03818599 -0.02243396 0.00569204
v 0.03890282 -0.02153731 0.00565105
v 0.03982187 -0.02265307 0.00413454
v 0.04005118 -0.02183058 0.00437287
v 0.03662053 -0.02163001 0.00646472
v 0.03627746 -0.02217272 0.00637819
v 0.03762806 -0.02184406 0.00612012
v 0.03358169 -0.02022435 -0.00718848
v 0.03115495 -0.01860465 -0.00749664
v 0.02953531 -0.01779564 -0.00760594
v 0.02953531 -0.01698663 -0.00763326
v 0.02823166 -0.01860465 -0.00749512
v 0.02872460 -0.01860465 -0.00750575
v 0.02629425 -0.01779395 -0.00762112
v 0.02713024 -0.01779564 -0.00762719
v 0.02791388 -0.01779564 -0.00762871
v 0.02823166 -0.01779564 -0.00762719
v 0.02872460 -0.01779564 -0.00762264
v 0.03277277 -0.02022435 -0.00715964
v 0.03196566 -0.01971704 -0.00733725
v 0.02663731 -0.01901589 -0.00735850
v 0.02791388 -0.01860465 -0.00748753
v 0.02791388 -0.01617930 -0.00767729
v 0.02548533 -0.01537198 -0.00774560
v 0.02313623 -0.01464219 -0.00780784
v 0.03902740 -0.02247947 -0.00506930
v 0.03658080 -0.02312668 -0.00578733
v 0.03600842 -0.02265307 -0.00609549
v 0.03744208 -0.02243228 -0.00580251
v 0.03712068 -0.02296993 -0.00569170
v 0.03767861 -0.02268172 -0.00560820
v 0.03848753 -0.02271037 -0.00523477
v 0.03519951 -0.02197889 -0.00643857
v 0.03439240 -0.02159461 -0.00662377
v 0.03358169 -0.02103505 -0.00683781
v 0.04124469 -0.02133000 0.00223244
v 0.04101357 -0.02265307 0.00114249
v 0.04111830 -0.02265307 0.00033338
v 0.04080412 -0.02346208 0.00033338
v 0.04067954 -0.02336938 -0.00128181
v 0.04059287 -0.02322275 -0.00209244
v 0.04049897 -0.02310308 -0.00255544
v 0.04030577 -0.02284184 -0.00309434
v 0.03955825 -0.02295645 -0.00400972
v 0.03929283 -0.02271880 -0.00457898
v 0.02313623 -0.01698494 0.00757592
v 0.02386751 -0.01698494 0.00759414
v 0.03196566 -0.02022435 0.00705827
v 0.02548533 -0.01779395 0.00749243
v 0.02633758 -0.01779395 0.00750609
v 0.02953531 -0.01966647 0.00718882
v 0.03034423 -0.01966816 0.00719034
v 0.03439240 -0.02103505 0.00682905
v 0.03541618 -0.02228059 0.00642829
v 0.03573036 -0.02306769 0.00560551
v 0.03627024 -0.02304746 0.00558274
v 0.03681914 -0.02302218 0.00555542
v 0.03762806 -0.02296824 0.00549925
v 0.03762806 -0.02256037 0.00578919
v 0.03600842 -0.02187945 0.00651633
v 0.04038703 -0.02211204 0.00385825
v 0.04024077 -0.02267329 0.00358197
v 0.04040689 -0.02295645 0.00301119
v 0.04059828 -0.02267329 0.00275009
v 0.04066870 -0.02351770 0.00118803
v 0.03827627 -0.02315364 0.00496794
v 0.03850197 -0.02273566 0.00523208
v 0.03872767 -0.02207665 0.00549621
v 0.03968284 -0.02307948 0.00400399
v 0.02629425 -0.01698494 -0.00771524
v 0.02713024 -0.01698494 -0.00769702
v 0.02823166 -0.01730349 -0.00765755
v 0.02823166 -0.01698494 -0.00766970
v 0.02633758 -0.01617593 -0.00772434
v 0.02823166 -0.01649617 -0.00766970
v 0.02548533 -0.01779395 -0.00760442
v 0.02633758 -0.01783609 -0.00761353
v 0.02313623 -0.01706416 -0.00768791
v 0.02313623 -0.01698494 -0.00770006
v 0.02386751 -0.01698494 -0.00770916
v 0.02548533 -0.01698494 -0.00771827
v 0.03196566 -0.02022435 -0.00711561
v 0.03115495 -0.01967322 -0.00731751
v 0.02609743 -0.01897039 -0.00734332
v 0.02386751 -0.01779395 -0.00754673
v 0.02467642 -0.01779395 -0.00757861
v 0.02467642 -0.01537198 -0.00776989
v 0.02313623 -0.01537198 -0.00780176
v 0.02386751 -0.01537198 -0.00778810
v 0.03878906 -0.02301881 -0.00487651
v 0.03824918 -0.02317050 -0.00504198
v 0.03762806 -0.02330702 -0.00518316
v 0.03683539 -0.02347219 -0.00533648
v 0.03655191 -0.02391377 -0.00498277
v 0.03600842 -0.02317218 -0.00583439
v 0.03519951 -0.02265307 -0.00611219
v 0.03439240 -0.02200249 -0.00642035
v 0.04053509 -0.02394917 0.00094818
v 0.04054953 -0.02396265 0.00033338
v 0.04050439 -0.02391040 -0.00025106
v 0.04042495 -0.02384130 -0.00078997
v 0.04030397 -0.02377557 -0.00128181
v 0.04003493 -0.02365422 -0.00210306
v 0.04004396 -0.02328511 -0.00285601
v 0.03976590 -0.02315533 -0.00347081
v 0.02313623 -0.01779395 0.00739527
v 0.02386751 -0.01779395 0.00743626
v 0.02467642 -0.01779395 0.00746966
v 0.03115495 -0.02022435 0.00704764
v 0.03358169 -0.02103505 0.00682449
v 0.02791388 -0.01917433 0.00725713
v 0.02872460 -0.01963445 0.00717516
v 0.03544327 -0.02306769 0.00560551
v 0.02823166 -0.01960074 0.00715694
v 0.02791388 -0.01957883 0.00714480
v 0.02872460 -0.02022435 0.00689736
v 0.02823166 -0.02022435 0.00684878
v 0.02791388 -0.02022435 0.00681690
v 0.02713024 -0.02022435 0.00673189
v 0.02548533 -0.02012323 0.00660438
v 0.02467642 -0.02004064 0.00656036
v 0.02386751 -0.01995805 0.00651330
v 0.02612632 -0.02058841 0.00637364
v 0.03487811 -0.02222665 0.00639185
v 0.03439240 -0.02260925 0.00594859
v 0.03439240 -0.02301375 0.00555238
v 0.03490520 -0.02305083 0.00558881
v 0.03519951 -0.02382276 0.00471139
v 0.03762806 -0.02323623 0.00509393
v 0.03983632 -0.02320926 0.00357135
v 0.04042675 -0.02382276 0.00148709
v 0.04049175 -0.02311151 0.00247077
v 0.03843877 -0.02460312 0.00222485
v 0.03894796 -0.02474470 0.00166318
v 0.03890462 -0.02389524 0.00321461
v 0.03881615 -0.02303903 0.00476756
v 0.03785195 -0.02383962 0.00392049
v 0.03971715 -0.02391040 0.00244041
v 0.03924769 -0.02318230 0.00418615
v 0.03920435 -0.02358849 0.00351973
v 0.03944450 -0.02377726 0.00298235
v 0.02313623 -0.01617593 -0.00778810
v 0.02386751 -0.01617593 -0.00777596
v 0.02313623 -0.01785800 -0.00748450
v 0.02313623 -0.01625515 -0.00778203
v 0.02633758 -0.01935298 -0.00715205
v 0.02548533 -0.01941534 -0.00703364
v 0.02548533 -0.01889791 -0.00731903
v 0.02313623 -0.01822711 -0.00736912
v 0.02386751 -0.01830633 -0.00739948
v 0.03901657 -0.02317387 -0.00433761
v 0.03863739 -0.02374692 -0.00371066
v 0.03804696 -0.02387670 -0.00413116
v 0.03762806 -0.02400142 -0.00428600
v 0.03762806 -0.02371321 -0.00469131
v 0.03708998 -0.02381602 -0.00486740
v 0.03682095 -0.02413120 -0.00456683
v 0.03688053 -0.02458626 -0.00371825
v 0.03594703 -0.02412445 -0.00459719
v 0.03617273 -0.02391377 -0.00498277
v 0.03519951 -0.02313679 -0.00581314
v 0.02823166 -0.02068616 -0.00657975
v 0.03358169 -0.02193170 -0.00638240
v 0.02872460 -0.02072830 -0.00660404
v 0.04011619 -0.02416491 0.00118803
v 0.03950047 -0.02458121 0.00114249
v 0.04005841 -0.02429131 0.00033338
v 0.04011438 -0.02407726 -0.00050154
v 0.03989951 -0.02399131 -0.00128181
v 0.03974784 -0.02391209 -0.00184348
v 0.03958353 -0.02383287 -0.00238238
v 0.03928741 -0.02373680 -0.00296683
v 0.03927116 -0.02334241 -0.00372736
v 0.02313623 -0.01824902 0.00726776
v 0.02467642 -0.01847656 0.00729205
v 0.02592229 -0.01900241 0.00721463
v 0.02713024 -0.01910859 0.00724499
v 0.02548533 -0.01896028 0.00720248
v 0.03439240 -0.02381771 0.00469773
v 0.03518507 -0.02335084 0.00526699
v 0.02467642 -0.01887937 0.00717668
v 0.02386751 -0.01879342 0.00714328
v 0.02467642 -0.01941534 0.00692468
v 0.02386751 -0.01941534 0.00684726
v 0.02313623 -0.01941534 0.00675315
v 0.02313623 -0.01988052 0.00645713
v 0.02548533 -0.02052773 0.00631747
v 0.03115495 -0.02232609 0.00567686
v 0.03358169 -0.02254014 0.00588179
v 0.03196566 -0.02239857 0.00574517
v 0.03277277 -0.02246936 0.00581348
v 0.03439240 -0.02341320 0.00514858
v 0.03358169 -0.02294465 0.00548255
v 0.03519951 -0.02404355 0.00430759
v 0.03600842 -0.02377051 0.00460665
v 0.03681914 -0.02370647 0.00448520
v 0.03759917 -0.02366939 0.00431518
v 0.03987604 -0.02402164 0.00195312
v 0.03795668 -0.02466548 0.00233263
v 0.03843877 -0.02482054 0.00181954
v 0.03909782 -0.02482054 0.00114249
v 0.03843877 -0.02505482 0.00114249
v 0.03600842 -0.02398962 0.00420285
v 0.03741680 -0.02470930 0.00241764
v 0.02809263 -0.02067268 -0.00657216
v 0.02755275 -0.02062043 -0.00653876
v 0.02633758 -0.02011649 -0.00670271
v 0.02349194 -0.01981311 -0.00654180
v 0.02467642 -0.01941534 -0.00693345
v 0.02313623 -0.01857094 -0.00720214
v 0.03882518 -0.02385647 -0.00328258
v 0.03823293 -0.02397614 -0.00371066
v 0.03762806 -0.02429974 -0.00371066
v 0.03719471 -0.02467054 -0.00328106
v 0.03665303 -0.02472784 -0.00345411
v 0.03596509 -0.02457447 -0.00371825
v 0.03519951 -0.02405704 -0.00443932
v 0.03519951 -0.02381602 -0.00484463
v 0.03563466 -0.02386153 -0.00491598
v 0.03620524 -0.02472784 -0.00345411
v 0.03519951 -0.02349073 -0.00533040
v 0.03470297 -0.02307948 -0.00575849
v 0.02313623 -0.01977771 -0.00651295
v 0.02713024 -0.02057830 -0.00650992
v 0.03950047 -0.02460143 0.00033338
v 0.03909782 -0.02480874 0.00033338
v 0.03894615 -0.02472784 -0.00024651
v 0.03878545 -0.02465200 -0.00078541
v 0.03863378 -0.02458289 -0.00128181
v 0.03928741 -0.02405030 -0.00210306
v 0.02313623 -0.01830970 0.00724954
v 0.03358169 -0.02333567 0.00507724
v 0.03064396 -0.02227553 0.00562525
v 0.02667703 -0.02144292 0.00560248
v 0.02329332 -0.02066762 0.00564043
v 0.02313623 -0.02079572 0.00540513
v 0.02313623 -0.02091033 0.00523663
v 0.03358169 -0.02374017 0.00452315
v 0.03439240 -0.02401996 0.00429393
v 0.02313623 -0.01871420 0.00710533
v 0.02313623 -0.02033728 0.00596529
v 0.02386751 -0.02036256 0.00611861
v 0.02467642 -0.02044346 0.00622639
v 0.03519951 -0.02437390 0.00357135
v 0.03600842 -0.02459806 0.00299449
v 0.03600842 -0.02431491 0.00357135
v 0.03766417 -0.02486605 0.00201992
v 0.03762806 -0.02517785 0.00114249
v 0.03843877 -0.02506493 0.00033338
v 0.03762806 -0.02522842 0.00033338
v 0.03681914 -0.02474470 0.00249810
v 0.02313623 -0.01944568 -0.00672092
v 0.02313623 -0.01937826 -0.00675887
v 0.03688053 -0.02481886 -0.00296531
v 0.03838641 -0.02447671 -0.00205752
v 0.03808126 -0.02469919 -0.00176454
v 0.03822932 -0.02476324 -0.00128181
v 0.03848572 -0.02485593 -0.00049850
v 0.03762806 -0.02497560 -0.00128181
v 0.03681914 -0.02503965 -0.00209244
v 0.03600842 -0.02509358 -0.00209244
v 0.02331318 -0.02147495 -0.00419643
v 0.03387058 -0.02389692 -0.00417214
v 0.03439240 -0.02396097 -0.00428600
v 0.03167316 -0.02303061 -0.00487499
v 0.03221303 -0.02309128 -0.00497367
v 0.03596509 -0.02483234 -0.00295620
v 0.03519951 -0.02474638 -0.00269358
v 0.02386751 -0.02177496 -0.00371218
v 0.02313623 -0.02084628 -0.00522718
v 0.02313623 -0.02054964 -0.00562946
v 0.02414015 -0.02065751 -0.00577519
v 0.02467642 -0.02071482 -0.00585109
v 0.02313623 -0.02020244 -0.00603933
v 0.02313623 -0.02014514 -0.00610460
v 0.02467642 -0.02081931 0.00581955
v 0.02386751 -0.02072998 0.00571633
v 0.02313623 -0.02046369 0.00582866
v 0.02313623 -0.02134854 0.00444118
v 0.02371764 -0.02138730 0.00466129
v 0.02425752 -0.02143955 0.00479033
v 0.03358169 -0.02392557 0.00411936
v 0.03439240 -0.02428120 0.00357135
v 0.03519951 -0.02460312 0.00292011
v 0.03600842 -0.02502111 0.00195312
v 0.03600842 -0.02477672 0.00259070
v 0.03681914 -0.02499920 0.00195312
v 0.03681914 -0.02524358 0.00114249
v 0.03681914 -0.02529583 0.00033338
v 0.03762806 -0.02513740 -0.00047270
v 0.03681914 -0.02526212 -0.00047270
v 0.03681914 -0.02518291 -0.00128181
v 0.03600842 -0.02521325 -0.00128181
v 0.03519951 -0.02505313 -0.00128181
v 0.03519951 -0.02493178 -0.00209244
v 0.02313623 -0.02159461 -0.00373799
v 0.02313623 -0.02145135 -0.00414027
v 0.02313623 -0.02133506 -0.00439226
v 0.02313623 -0.02127438 -0.00451674
v 0.02386751 -0.02153899 -0.00433002
v 0.02386751 -0.02133506 -0.00473534
v 0.02445072 -0.02139910 -0.00485830
v 0.02499059 -0.02145809 -0.00495393
v 0.02313623 -0.02184574 -0.00290003
v 0.02313623 -0.02088842 -0.00516342
v 0.02313623 -0.02144461 0.00420588
v 0.02320665 -0.02149517 0.00411784
v 0.03315376 -0.02387333 0.00399184
v 0.02313623 -0.02163844 0.00363359
v 0.03519951 -0.02490481 0.00195312
v 0.03519951 -0.02473795 0.00251631
v 0.03600842 -0.02520651 0.00114249
v 0.03600842 -0.02524358 0.00033338
v 0.03600842 -0.02523347 -0.00047270
v 0.03519951 -0.02506156 -0.00047270
v 0.02352444 -0.02223339 -0.00047421
v 0.02360028 -0.02221654 -0.00128333
v 0.02313623 -0.02200417 -0.00209547
v 0.03394642 -0.02468908 -0.00172659
v 0.02430807 -0.02223845 -0.00243096
v 0.02313623 -0.02152888 0.00397059
v 0.02313623 -0.02185080 0.00276223
v 0.03397531 -0.02468233 0.00156299
v 0.03519951 -0.02503459 0.00114249
v 0.03519951 -0.02506156 0.00033338
v 0.02313623 -0.02210530 0.00033338
v 0.02313623 -0.02213732 -0.00047421
v 0.02313623 -0.02210193 -0.00128333
v 0.02313623 -0.02198564 0.00195312
v 0.02416904 -0.02227216 0.00170265
v 0.02313623 -0.02206654 0.00114249
f 1 2 3
f 1 3 10
f 1 10 24
f 1 24 44
f 1 44 26
f 1 26 11
f 1 11 4
f 1 4 5
f 1 5 2
f 2 6 7
f 2 7 8
f 2 8 3
f 2 5 9
f 2 9 6
f 3 8 10
f 4 11 12
f 4 12 5
f 5 12 13
f 5 13 14
f 5 14 15
f 5 15 9
f 6 16 17
f 6 17 7
f 6 9 18
f 6 18 16
f 7 19 10
f 7 10 8
f 7 17 20
f 7 20 19
f 9 21 22
f 9 22 23
f 9 23 18
f 9 15 21
f 10 19 25
f 10 25 24
f 11 26 27
f 11 27 28
f 11 28 12
f 12 29 13
f 12 28 30
f 12 30 31
f 12 31 29
f 13 29 14
f 14 32 15
f 14 29 33
f 14 33 34
f 14 34 32
f 15 32 21
f 16 35 36
f 16 36 17
f 16 18 35
f 17 36 37
f 17 37 38
f 17 38 20
f 18 23 39
f 18 39 40
f 18 40 36
f 18 36 35
f 19 20 25
f 20 38 25
f 21 32 22
f 22 34 41
f 22 41 42
f 22 42 23
f 22 32 34
f 23 42 43
f 23 43 39
f 24 25 38
f 24 38 45
f 24 45 46
f 24 46 44
f 26 44 74
f 26 74 73
f 26 73 72
f 26 72 71
f 26 71 70
f 26 70 69
f 26 69 106
f 26 106 153
f 26 153 208
f 26 208 207
f 26 207 206
f 26 206 205
f 26 205 271
f 26 271 350
f 26 350 427
f 26 427 504
f 26 504 567
f 26 567 629
f 26 629 696
f 26 696 777
f 26 777 840
f 26 840 894
f 26 894 897
f 26 897 831
f 26 831 830
f 26 830 896
f 26 896 901
f 26 901 962
f 26 962 1005
f 26 1005 1004
f 26 1004 975
f 26 975 1027
f 26 1027 1026
f 26 1026 1023
f 26 1023 1022
f 26 1022 1057
f 26 1057 1051
f 26 1051 1050
f 26 1050 1049
f 26 1049 1048
f 26 1048 1056
f 26 1056 1070
f 26 1070 1080
f 26 1080 1079
f 26 1079 1078
f 26 1078 1083
f 26 1083 1081
f 26 1081 1074
f 26 1074 1061
f 26 1061 1073
f 26 1073 1058
f 26 1058 1031
f 26 1031 989
f 26 989 988
f 26 988 1030
f 26 1030 993
f 26 993 938
f 26 938 937
f 26 937 992
f 26 992 983
f 26 983 926
f 26 926 858
f 26 858 798
f 26 798 728
f 26 728 656
f 26 656 593
f 26 593 533
f 26 533 475
f 26 475 387
f 26 387 313
f 26 313 312
f 26 312 386
f 26 386 461
f 26 461 378
f 26 378 320
f 26 320 247
f 26 247 186
f 26 186 134
f 26 134 127
f 26 127 87
f 26 87 54
f 26 54 48
f 26 48 47
f 26 47 27
f 27 31 28
f 27 47 48
f 27 48 31
f 28 31 30
f 29 31 49
f 29 49 50
f 29 50 51
f 29 51 52
f 29 52 53
f 29 53 33
f 31 48 54
f 31 54 55
f 31 55 56
f 31 56 57
f 31 57 58
f 31 58 49
f 33 59 34
f 33 53 59
f 34 59 41
f 36 40 39
f 36 39 60
f 36 60 61
f 36 61 62
f 36 62 63
f 36 63 37
f 37 46 45
f 37 45 38
f 37 63 64
f 37 64 65
f 37 65 66
f 37 66 67
f 37 67 68
f 37 68 69
f 37 69 70
f 37 70 71
f 37 71 72
f 37 72 73
f 37 73 74
f 37 74 44
f 37 44 46
f 39 43 75
f 39 75 60
f 41 59 76
f 41 76 77
f 41 77 42
f 42 77 78
f 42 78 79
f 42 79 43
f 43 79 80
f 43 80 75
f 49 58 50
f 50 58 51
f 51 81 52
f 51 58 82
f 51 82 81
f 52 81 83
f 52 83 84
f 52 84 85
f 52 85 53
f 53 85 86
f 53 86 59
f 54 87 55
f 55 87 56
f 56 88 89
f 56 89 90
f 56 90 57
f 56 87 91
f 56 91 92
f 56 92 93
f 56 93 88
f 57 94 95
f 57 95 96
f 57 96 82
f 57 82 58
f 57 90 94
f 59 86 97
f 59 97 76
f 60 75 98
f 60 98 61
f 61 99 62
f 61 98 99
f 62 100 101
f 62 101 63
f 62 99 100
f 63 101 64
f 64 101 65
f 65 101 102
f 65 102 66
f 66 102 103
f 66 103 104
f 66 104 67
f 67 104 105
f 67 105 68
f 68 106 69
f 68 105 106
f 75 80 107
f 75 107 108
f 75 108 98
f 76 97 109
f 76 109 77
f 77 109 110
f 77 110 78
f 78 110 111
f 78 111 79
f 79 111 80
f 80 111 112
f 80 112 113
f 80 113 107
f 81 82 96
f 81 96 114
f 81 114 83
f 83 115 116
f 83 116 117
f 83 117 118
f 83 118 119
f 83 119 120
f 83 120 84
f 83 114 121
f 83 121 122
f 83 122 115
f 84 120 85
f 85 123 86
f 85 120 123
f 86 123 124
f 86 124 125
f 86 125 126
f 86 126 110
f 86 110 97
f 87 127 128
f 87 128 91
f 88 129 130
f 88 130 89
f 88 93 129
f 89 130 131
f 89 131 95
f 89 95 90
f 90 95 94
f 91 128 92
f 92 132 133
f 92 133 129
f 92 129 93
f 92 128 134
f 92 134 135
f 92 135 132
f 95 136 96
f 95 131 137
f 95 137 138
f 95 138 139
f 95 139 140
f 95 140 122
f 95 122 136
f 96 136 114
f 97 110 109
f 98 108 141
f 98 141 142
f 98 142 143
f 98 143 99
f 99 144 100
f 99 143 144
f 100 102 101
f 100 144 102
f 102 144 143
f 102 143 142
f 102 142 145
f 102 145 103
f 103 145 105
f 103 105 104
f 105 146 147
f 105 147 148
f 105 148 149
f 105 149 106
f 105 145 146
f 106 150 151
f 106 151 152
f 106 152 153
f 106 149 154
f 106 154 150
f 107 113 155
f 107 155 156
f 107 156 108
f 108 157 158
f 108 158 159
f 108 159 160
f 108 160 161
f 108 161 162
f 108 162 141
f 108 156 163
f 108 163 164
f 108 164 157
f 110 126 111
f 111 126 112
f 112 155 113
f 112 126 165
f 112 165 166
f 112 166 167
f 112 167 168
f 112 168 155
f 114 136 121
f 115 169 116
f 115 122 169
f 116 169 170
f 116 170 171
f 116 171 117
f 117 172 118
f 117 171 173
f 117 173 174
f 117 174 175
f 117 175 172
f 118 172 119
f 119 176 120
f 119 172 177
f 119 177 178
f 119 178 176
f 120 176 124
f 120 124 123
f 121 136 122
f 122 140 139
f 122 139 179
f 122 179 169
f 124 126 125
f 124 176 178
f 124 178 180
f 124 180 126
f 126 180 181
f 126 181 165
f 127 134 128
f 129 133 182
f 129 182 183
f 129 183 184
f 129 184 137
f 129 137 130
f 130 137 131
f 132 185 182
f 132 182 133
f 132 135 185
f 134 186 187
f 134 187 135
f 135 187 185
f 137 184 188
f 137 188 138
f 138 188 189
f 138 189 139
f 139 190 191
f 139 191 192
f 139 192 193
f 139 193 179
f 139 189 188
f 139 188 190
f 141 145 142
f 141 162 145
f 145 162 194
f 145 194 195
f 145 195 196
f 145 196 146
f 146 197 147
f 146 196 198
f 146 198 199
f 146 199 197
f 147 197 148
f 148 154 149
f 148 197 200
f 148 200 150
f 148 150 154
f 150 200 197
f 150 197 201
f 150 201 151
f 151 201 202
f 151 202 203
f 151 203 152
f 152 203 204
f 152 204 205
f 152 205 206
f 152 206 207
f 152 207 208
f 152 208 153
f 155 168 156
f 156 168 167
f 156 167 209
f 156 209 163
f 157 164 210
f 157 210 158
f 158 210 164
f 158 164 211
f 158 211 212
f 158 212 159
f 159 213 160
f 159 212 213
f 160 213 212
f 160 212 211
f 160 211 214
f 160 214 215
f 160 215 216
f 160 216 194
f 160 194 217
f 160 217 162
f 160 162 161
f 162 217 218
f 162 218 194
f 163 209 219
f 163 219 220
f 163 220 221
f 163 221 222
f 163 222 164
f 164 222 223
f 164 223 224
f 164 224 225
f 164 225 211
f 165 181 226
f 165 226 166
f 166 226 227
f 166 227 167
f 167 227 219
f 167 219 209
f 169 179 193
f 169 193 191
f 169 191 170
f 170 191 228
f 170 228 171
f 171 228 229
f 171 229 173
f 172 175 230
f 172 230 177
f 173 229 231
f 173 231 174
f 174 231 232
f 174 232 233
f 174 233 175
f 175 233 234
f 175 234 235
f 175 235 236
f 175 236 181
f 175 181 230
f 177 230 181
f 177 181 180
f 177 180 178
f 181 236 226
f 182 185 237
f 182 237 238
f 182 238 239
f 182 239 240
f 182 240 241
f 182 241 242
f 182 242 183
f 183 242 243
f 183 243 184
f 184 243 244
f 184 244 245
f 184 245 188
f 185 187 246
f 185 246 237
f 186 247 248
f 186 248 249
f 186 249 187
f 187 249 246
f 188 245 250
f 188 250 251
f 188 251 252
f 188 252 191
f 188 191 190
f 191 253 228
f 191 193 192
f 191 252 254
f 191 254 253
f 194 218 217
f 194 216 255
f 194 255 256
f 194 256 257
f 194 257 195
f 195 257 196
f 196 257 198
f 197 199 258
f 197 258 259
f 197 259 260
f 197 260 261
f 197 261 201
f 198 257 199
f 199 257 262
f 199 262 263
f 199 263 258
f 201 261 202
f 202 261 264
f 202 264 203
f 203 265 266
f 203 266 204
f 203 264 267
f 203 267 265
f 204 266 268
f 204 268 205
f 205 268 269
f 205 269 270
f 205 270 271
f 211 225 224
f 211 224 272
f 211 272 273
f 211 273 274
f 211 274 275
f 211 275 276
f 211 276 277
f 211 277 214
f 214 277 215
f 215 277 278
f 215 278 279
f 215 279 216
f 216 279 255
f 219 280 281
f 219 281 220
f 219 227 282
f 219 282 280
f 220 281 283
f 220 283 221
f 221 283 284
f 221 284 285
f 221 285 286
f 221 286 287
f 221 287 288
f 221 288 222
f 222 288 223
f 223 288 224
f 224 273 272
f 224 288 289
f 224 289 290
f 224 290 291
f 224 291 273
f 226 236 235
f 226 235 292
f 226 292 280
f 226 280 282
f 226 282 227
f 228 253 293
f 228 293 229
f 229 293 231
f 231 293 232
f 232 293 294
f 232 294 295
f 232 295 233
f 233 295 296
f 233 296 299
f 233 299 234
f 234 297 280
f 234 280 298
f 234 298 235
f 234 299 300
f 234 300 301
f 234 301 297
f 235 298 292
f 237 302 238
f 237 246 303
f 237 303 304
f 237 304 302
f 238 302 239
f 239 305 306
f 239 306 307
f 239 307 308
f 239 308 240
f 239 302 309
f 239 309 310
f 239 310 311
f 239 311 312
f 239 312 313
f 239 313 305
f 240 308 314
f 240 314 315
f 240 315 244
f 240 244 241
f 241 244 316
f 241 316 242
f 242 316 317
f 242 317 243
f 243 317 244
f 244 318 319
f 244 319 250
f 244 250 245
f 244 317 316
f 244 315 318
f 246 249 303
f 247 320 249
f 247 249 321
f 247 321 248
f 248 321 249
f 249 320 303
f 250 319 322
f 250 322 254
f 250 254 323
f 250 323 251
f 251 323 254
f 251 254 252
f 253 324 293
f 253 254 322
f 253 322 325
f 253 325 326
f 253 326 327
f 253 327 328
f 253 328 324
f 255 329 330
f 255 330 256
f 255 279 329
f 256 330 331
f 256 331 257
f 257 331 330
f 257 330 332
f 257 332 262
f 258 263 333
f 258 333 334
f 258 334 335
f 258 335 336
f 258 336 259
f 259 336 337
f 259 337 260
f 260 337 338
f 260 338 339
f 260 339 264
f 260 264 261
f 262 332 278
f 262 278 263
f 263 278 340
f 263 340 341
f 263 341 342
f 263 342 333
f 264 339 343
f 264 343 344
f 264 344 267
f 265 345 346
f 265 346 266
f 265 267 344
f 265 344 345
f 266 346 269
f 266 269 268
f 269 346 347
f 269 347 270
f 270 348 271
f 270 347 349
f 270 349 348
f 271 348 350
f 273 351 352
f 273 352 353
f 273 353 274
f 273 291 354
f 273 354 351
f 274 355 356
f 274 356 275
f 274 353 355
f 275 357 276
f 275 356 357
f 276 357 358
f 276 358 340
f 276 340 277
f 277 340 278
f 278 332 330
f 278 330 329
f 278 329 279
f 280 297 281
f 280 292 298
f 281 297 301
f 281 301 283
f 283 301 359
f 283 359 284
f 284 359 360
f 284 360 361
f 284 361 285
f 285 361 362
f 285 362 363
f 285 363 364
f 285 364 286
f 286 364 365
f 286 365 366
f 286 366 287
f 287 366 367
f 287 367 288
f 288 290 289
f 288 367 368
f 288 368 354
f 288 354 290
f 290 354 291
f 293 324 369
f 293 369 294
f 294 370 371
f 294 371 295
f 294 369 370
f 295 371 296
f 296 371 372
f 296 372 373
f 296 373 374
f 296 374 299
f 299 374 375
f 299 375 376
f 299 376 360
f 299 360 300
f 300 360 359
f 300 359 301
f 302 304 311
f 302 311 309
f 303 377 304
f 303 320 378
f 303 378 377
f 304 377 311
f 305 379 380
f 305 380 381
f 305 381 307
f 305 307 306
f 305 313 382
f 305 382 379
f 307 383 384
f 307 384 385
f 307 385 308
f 307 381 383
f 308 385 314
f 309 311 310
f 311 377 386
f 311 386 312
f 313 387 388
f 313 388 382
f 314 385 389
f 314 389 390
f 314 390 315
f 315 390 391
f 315 391 318
f 318 392 319
f 318 391 393
f 318 393 394
f 318 394 392
f 319 392 395
f 319 395 396
f 319 396 322
f 322 396 397
f 322 397 398
f 322 398 399
f 322 399 326
f 322 326 325
f 324 328 400
f 324 400 369
f 326 401 327
f 326 399 402
f 326 402 401
f 327 403 404
f 327 404 405
f 327 405 328
f 327 401 406
f 327 406 407
f 327 407 408
f 327 408 403
f 328 405 404
f 328 404 409
f 328 409 410
f 328 410 400
f 333 342 334
f 334 342 411
f 334 411 412
f 334 412 413
f 334 413 414
f 334 414 415
f 334 415 335
f 335 415 337
f 335 337 336
f 337 415 338
f 338 416 344
f 338 344 343
f 338 343 339
f 338 415 414
f 338 414 417
f 338 417 418
f 338 418 419
f 338 419 420
f 338 420 421
f 338 421 422
f 338 422 349
f 338 349 347
f 338 347 345
f 338 345 416
f 340 358 423
f 340 423 424
f 340 424 425
f 340 425 341
f 341 425 424
f 341 424 342
f 342 424 411
f 344 416 345
f 345 347 346
f 348 349 426
f 348 426 427
f 348 427 350
f 349 422 428
f 349 428 429
f 349 429 430
f 349 430 426
f 351 354 431
f 351 431 352
f 352 431 432
f 352 432 433
f 352 433 434
f 352 434 435
f 352 435 436
f 352 436 437
f 352 437 438
f 352 438 355
f 352 355 353
f 354 368 367
f 354 367 432
f 354 432 431
f 355 438 356
f 356 438 439
f 356 439 440
f 356 440 441
f 356 441 442
f 356 442 357
f 357 442 443
f 357 443 358
f 358 443 444
f 358 444 412
f 358 412 411
f 358 411 424
f 358 424 423
f 360 376 375
f 360 375 361
f 361 445 446
f 361 446 362
f 361 375 445
f 362 446 447
f 362 447 448
f 362 448 449
f 362 449 450
f 362 450 363
f 363 450 451
f 363 451 452
f 363 452 364
f 364 432 367
f 364 367 365
f 364 452 432
f 365 367 366
f 369 400 370
f 370 453 371
f 370 400 454
f 370 454 453
f 371 453 372
f 372 455 373
f 372 453 456
f 372 456 457
f 372 457 458
f 372 458 459
f 372 459 455
f 373 455 460
f 373 460 374
f 374 460 375
f 375 460 445
f 377 378 461
f 377 461 462
f 377 462 386
f 379 382 380
f 380 382 388
f 380 388 387
f 380 387 463
f 380 463 464
f 380 464 465
f 380 465 466
f 380 466 467
f 380 467 468
f 380 468 469
f 380 469 381
f 381 469 468
f 381 468 383
f 383 470 471
f 383 471 384
f 383 468 470
f 384 471 472
f 384 472 473
f 384 473 474
f 384 474 389
f 384 389 385
f 386 462 461
f 387 475 476
f 387 476 463
f 389 474 390
f 390 474 473
f 390 473 391
f 391 473 477
f 391 477 394
f 391 394 393
f 392 394 395
f 394 477 478
f 394 478 479
f 394 479 395
f 395 479 480
f 395 480 396
f 396 480 481
f 396 481 397
f 397 482 483
f 397 483 402
f 397 402 398
f 397 481 482
f 398 402 399
f 400 410 454
f 401 402 483
f 401 483 406
f 403 484 485
f 403 485 486
f 403 486 404
f 403 408 487
f 403 487 484
f 404 486 409
f 406 483 407
f 407 488 408
f 407 483 482
f 407 482 488
f 408 488 487
f 409 486 489
f 409 489 410
f 410 489 490
f 410 490 454
f 412 491 413
f 412 444 440
f 412 440 492
f 412 492 491
f 413 491 493
f 413 493 494
f 413 494 495
f 413 495 414
f 414 495 496
f 414 496 497
f 414 497 417
f 417 496 418
f 417 497 496
f 418 496 419
f 419 496 498
f 419 498 499
f 419 499 420
f 420 499 500
f 420 500 501
f 420 501 421
f 421 502 422
f 421 501 502
f 422 502 430
f 422 430 428
f 426 503 427
f 426 430 503
f 427 503 504
f 428 430 429
f 430 502 505
f 430 505 506
f 430 506 504
f 430 504 503
f 432 452 507
f 432 507 433
f 433 507 508
f 433 508 434
f 434 508 509
f 434 509 435
f 435 510 436
f 435 509 511
f 435 511 512
f 435 512 513
f 435 513 514
f 435 514 440
f 435 440 510
f 436 510 437
f 437 510 438
f 438 510 439
f 439 510 440
f 440 515 516
f 440 516 517
f 440 517 492
f 440 444 518
f 440 518 441
f 440 514 515
f 441 518 444
f 441 444 519
f 441 519 442
f 442 519 443
f 443 519 444
f 445 459 520
f 445 520 446
f 445 460 459
f 446 520 521
f 446 521 522
f 446 522 447
f 447 522 523
f 447 523 524
f 447 524 448
f 448 524 525
f 448 525 526
f 448 526 527
f 448 527 450
f 448 450 449
f 450 527 451
f 451 527 452
f 452 527 507
f 453 454 456
f 454 490 457
f 454 457 456
f 455 459 460
f 457 490 528
f 457 528 529
f 457 529 521
f 457 521 520
f 457 520 458
f 458 520 459
f 463 476 464
f 464 530 531
f 464 531 532
f 464 532 465
f 464 476 475
f 464 475 533
f 464 533 530
f 465 532 534
f 465 534 535
f 465 535 466
f 466 535 536
f 466 536 537
f 466 537 470
f 466 470 467
f 467 470 468
f 470 537 538
f 470 538 539
f 470 539 540
f 470 540 471
f 471 540 541
f 471 541 542
f 471 542 543
f 471 543 472
f 472 543 478
f 472 478 473
f 473 478 477
f 478 543 479
f 479 543 480
f 480 544 481
f 480 543 544
f 481 544 545
f 481 545 546
f 481 546 482
f 482 546 547
f 482 547 488
f 484 548 549
f 484 549 485
f 484 487 550
f 484 550 548
f 485 549 551
f 485 551 552
f 485 552 486
f 486 552 553
f 486 553 528
f 486 528 489
f 487 488 547
f 487 547 554
f 487 554 555
f 487 555 556
f 487 556 550
f 489 528 490
f 491 557 493
f 491 492 558
f 491 558 557
f 492 517 558
f 493 559 560
f 493 560 561
f 493 561 562
f 493 562 495
f 493 495 494
f 493 557 563
f 493 563 559
f 495 562 496
f 496 500 498
f 496 562 500
f 498 500 499
f 500 562 561
f 500 561 564
f 500 564 501
f 501 564 565
f 501 565 566
f 501 566 502
f 502 566 505
f 504 506 567
f 505 568 506
f 505 566 568
f 506 568 569
f 506 569 567
f 507 570 508
f 507 527 570
f 508 570 571
f 508 571 572
f 508 572 509
f 509 572 573
f 509 573 511
f 511 573 512
f 512 573 574
f 512 574 513
f 513 575 514
f 513 574 575
f 514 575 576
f 514 576 515
f 515 576 516
f 516 576 577
f 516 577 578
f 516 578 579
f 516 579 558
f 516 558 517
f 521 529 580
f 521 580 581
f 521 581 522
f 522 581 523
f 523 581 582
f 523 582 524
f 524 583 584
f 524 584 525
f 524 582 583
f 525 584 585
f 525 585 526
f 526 585 527
f 527 585 586
f 527 586 587
f 527 587 571
f 527 571 570
f 528 588 589
f 528 589 529
f 528 553 590
f 528 590 588
f 529 589 580
f 530 591 531
f 530 533 592
f 530 592 593
f 530 593 591
f 531 591 594
f 531 594 595
f 531 595 596
f 531 596 597
f 531 597 532
f 532 597 534
f 533 593 592
f 534 598 535
f 534 597 599
f 534 599 600
f 534 600 598
f 535 598 601
f 535 601 536
f 536 601 538
f 536 538 537
f 538 601 539
f 539 601 602
f 539 602 545
f 539 545 541
f 539 541 540
f 541 545 544
f 541 544 542
f 542 544 543
f 545 603 604
f 545 604 546
f 545 602 605
f 545 605 603
f 546 604 547
f 547 604 606
f 547 606 555
f 547 555 607
f 547 607 554
f 548 608 549
f 548 550 608
f 549 608 609
f 549 609 551
f 550 556 610
f 550 610 611
f 550 611 612
f 550 612 608
f 551 609 613
f 551 613 590
f 551 590 552
f 552 590 553
f 554 607 555
f 555 614 610
f 555 610 556
f 555 606 615
f 555 615 614
f 557 558 616
f 557 616 563
f 558 579 616
f 559 563 616
f 559 616 617
f 559 617 618
f 559 618 619
f 559 619 620
f 559 620 560
f 560 621 622
f 560 622 561
f 560 620 623
f 560 623 621
f 561 622 624
f 561 624 625
f 561 625 564
f 564 625 626
f 564 626 565
f 565 627 628
f 565 628 569
f 565 569 566
f 565 626 627
f 566 569 568
f 567 569 628
f 567 628 629
f 571 587 630
f 571 630 572
f 572 631 573
f 572 630 631
f 573 631 632
f 573 632 574
f 574 633 575
f 574 632 633
f 575 634 635
f 575 635 576
f 575 633 636
f 575 636 634
f 576 637 577
f 576 635 638
f 576 638 637
f 577 637 639
f 577 639 578
f 578 639 640
f 578 640 641
f 578 641 642
f 578 642 579
f 579 642 643
f 579 643 617
f 579 617 616
f 580 583 582
f 580 582 581
f 580 589 583
f 583 644 645
f 583 645 584
f 583 589 644
f 584 645 646
f 584 646 647
f 584 647 585
f 585 647 648
f 585 648 586
f 586 648 649
f 586 649 587
f 587 649 650
f 587 650 651
f 587 651 630
f 588 652 589
f 588 590 613
f 588 613 652
f 589 652 653
f 589 653 644
f 591 654 594
f 591 593 655
f 591 655 654
f 593 656 657
f 593 657 655
f 594 654 658
f 594 658 659
f 594 659 595
f 595 660 661
f 595 661 596
f 595 659 662
f 595 662 663
f 595 663 664
f 595 664 665
f 595 665 666
f 595 666 660
f 596 661 667
f 596 667 668
f 596 668 669
f 596 669 670
f 596 670 597
f 597 605 671
f 597 671 599
f 597 670 603
f 597 603 605
f 598 600 601
f 599 671 602
f 599 602 600
f 600 602 601
f 602 671 605
f 603 670 672
f 603 672 604
f 604 672 615
f 604 615 606
f 608 612 673
f 608 673 609
f 609 673 674
f 609 674 613
f 610 614 675
f 610 675 611
f 611 675 676
f 611 676 677
f 611 677 673
f 611 673 612
f 613 678 652
f 613 674 678
f 614 615 672
f 614 672 679
f 614 679 680
f 614 680 681
f 614 681 675
f 617 643 618
f 618 682 683
f 618 683 620
f 618 620 619
f 618 643 642
f 618 642 682
f 620 683 623
f 621 623 684
f 621 684 685
f 621 685 622
f 622 685 686
f 622 686 687
f 622 687 688
f 622 688 624
f 623 683 689
f 623 689 684
f 624 688 690
f 624 690 691
f 624 691 692
f 624 692 625
f 625 692 693
f 625 693 626
f 626 693 694
f 626 694 695
f 626 695 627
f 627 695 628
f 628 695 694
f 628 694 629
f 629 694 697
f 629 697 696
f 630 651 631
f 631 651 698
f 631 698 632
f 632 698 699
f 632 699 633
f 633 699 636
f 634 636 700
f 634 700 701
f 634 701 702
f 634 702 635
f 635 702 638
f 636 699 700
f 637 703 704
f 637 704 705
f 637 705 639
f 637 638 706
f 637 706 703
f 638 702 707
f 638 707 706
f 639 705 708
f 639 708 709
f 639 709 640
f 640 709 641
f 641 709 710
f 641 710 711
f 641 711 682
f 641 682 642
f 644 653 712
f 644 712 678
f 644 678 645
f 645 678 713
f 645 713 714
f 645 714 646
f 646 714 715
f 646 715 716
f 646 716 717
f 646 717 647
f 647 717 718
f 647 718 648
f 648 718 719
f 648 719 649
f 649 719 720
f 649 720 650
f 650 720 721
f 650 721 651
f 651 722 723
f 651 723 724
f 651 724 725
f 651 725 698
f 651 721 726
f 651 726 722
f 652 678 712
f 652 712 653
f 654 655 727
f 654 727 658
f 655 657 727
f 656 728 729
f 656 729 657
f 657 729 727
f 658 730 659
f 658 727 730
f 659 730 662
f 660 731 667
f 660 667 661
f 660 666 732
f 660 732 733
f 660 733 734
f 660 734 731
f 662 730 735
f 662 735 663
f 663 735 736
f 663 736 664
f 664 736 737
f 664 737 665
f 665 737 666
f 666 737 738
f 666 738 739
f 666 739 732
f 667 740 668
f 667 731 741
f 667 741 740
f 668 742 743
f 668 743 744
f 668 744 669
f 668 740 745
f 668 745 742
f 669 744 670
f 670 744 746
f 670 746 679
f 670 679 672
f 673 747 674
f 673 677 747
f 674 747 748
f 674 748 749
f 674 749 750
f 674 750 751
f 674 751 678
f 675 681 752
f 675 752 753
f 675 753 754
f 675 754 676
f 676 754 755
f 676 755 756
f 676 756 747
f 676 747 677
f 678 751 713
f 679 746 680
f 680 746 744
f 680 744 757
f 680 757 758
f 680 758 759
f 680 759 681
f 681 759 753
f 681 753 752
f 682 711 760
f 682 760 689
f 682 689 683
f 684 689 761
f 684 761 685
f 685 761 762
f 685 762 686
f 686 762 687
f 687 762 763
f 687 763 688
f 688 763 690
f 689 764 765
f 689 765 766
f 689 766 767
f 689 767 768
f 689 768 769
f 689 769 770
f 689 770 761
f 689 760 771
f 689 771 772
f 689 772 773
f 689 773 774
f 689 774 764
f 690 763 775
f 690 775 691
f 691 775 776
f 691 776 692
f 692 776 696
f 692 696 697
f 692 697 694
f 692 694 693
f 696 776 777
f 698 725 778
f 698 778 700
f 698 700 699
f 700 778 701
f 701 707 702
f 701 778 707
f 703 779 780
f 703 780 705
f 703 705 704
f 703 706 781
f 703 781 782
f 703 782 779
f 705 709 708
f 705 780 710
f 705 710 709
f 706 707 781
f 707 783 782
f 707 782 781
f 707 778 784
f 707 784 783
f 710 780 785
f 710 785 711
f 711 786 787
f 711 787 771
f 711 771 760
f 711 785 786
f 713 751 788
f 713 788 750
f 713 750 789
f 713 789 714
f 714 789 715
f 715 789 790
f 715 790 716
f 716 790 791
f 716 791 718
f 716 718 717
f 718 791 792
f 718 792 793
f 718 793 720
f 718 720 719
f 720 793 794
f 720 794 726
f 720 726 721
f 722 794 795
f 722 795 724
f 722 724 723
f 722 726 794
f 724 795 796
f 724 796 797
f 724 797 725
f 725 797 778
f 727 729 730
f 728 798 799
f 728 799 736
f 728 736 729
f 729 736 735
f 729 735 730
f 731 734 741
f 732 800 733
f 732 739 800
f 733 800 741
f 733 741 734
f 736 799 801
f 736 801 802
f 736 802 737
f 737 802 803
f 737 803 804
f 737 804 738
f 738 804 739
f 739 804 800
f 740 741 745
f 741 800 805
f 741 805 745
f 742 806 865
f 742 865 807
f 742 807 808
f 742 808 809
f 742 809 810
f 742 810 811
f 742 811 758
f 742 758 812
f 742 812 743
f 742 745 805
f 742 805 806
f 743 812 744
f 744 812 758
f 744 758 757
f 747 756 755
f 747 755 813
f 747 813 748
f 748 813 749
f 749 813 814
f 749 814 815
f 749 815 750
f 750 788 751
f 750 815 816
f 750 816 817
f 750 817 789
f 753 818 819
f 753 819 820
f 753 820 754
f 753 759 758
f 753 758 811
f 753 811 810
f 753 810 818
f 754 820 755
f 755 821 813
f 755 820 821
f 761 770 762
f 762 770 822
f 762 822 823
f 762 823 824
f 762 824 825
f 762 825 763
f 763 825 826
f 763 826 827
f 763 827 775
f 764 774 828
f 764 828 765
f 765 828 829
f 765 829 766
f 766 829 828
f 766 828 830
f 766 830 831
f 766 831 832
f 766 832 767
f 767 832 833
f 767 833 768
f 768 833 822
f 768 822 769
f 769 822 770
f 771 834 835
f 771 835 772
f 771 787 834
f 772 835 773
f 773 836 837
f 773 837 838
f 773 838 828
f 773 828 774
f 773 835 834
f 773 834 787
f 773 787 786
f 773 786 836
f 775 827 776
f 776 827 839
f 776 839 777
f 777 839 841
f 777 841 840
f 778 797 842
f 778 842 784
f 779 782 843
f 779 843 844
f 779 844 845
f 779 845 846
f 779 846 847
f 779 847 780
f 780 847 848
f 780 848 785
f 782 783 784
f 782 784 843
f 784 842 843
f 785 848 786
f 786 849 836
f 786 848 849
f 789 817 850
f 789 850 791
f 789 791 790
f 791 850 851
f 791 851 792
f 792 851 852
f 792 852 853
f 792 853 793
f 793 853 854
f 793 854 855
f 793 855 794
f 794 855 856
f 794 856 857
f 794 857 796
f 794 796 795
f 796 842 797
f 796 857 842
f 798 858 859
f 798 859 860
f 798 860 801
f 798 801 799
f 800 804 803
f 800 803 861
f 800 861 862
f 800 862 805
f 801 863 803
f 801 803 802
f 801 860 863
f 803 864 861
f 803 863 864
f 805 862 806
f 806 862 861
f 806 861 864
f 806 864 866
f 806 866 867
f 806 867 868
f 806 868 869
f 806 869 870
f 806 870 871
f 806 871 872
f 806 872 873
f 806 873 874
f 806 874 875
f 806 875 876
f 806 876 877
f 806 877 878
f 806 878 879
f 806 879 865
f 807 865 880
f 807 880 808
f 808 880 809
f 809 880 810
f 810 880 881
f 810 881 818
f 813 821 814
f 814 821 815
f 815 821 882
f 815 882 883
f 815 883 850
f 815 850 884
f 815 884 816
f 816 884 817
f 817 884 850
f 818 885 886
f 818 886 887
f 818 887 888
f 818 888 819
f 818 881 889
f 818 889 885
f 819 888 820
f 820 888 821
f 821 890 882
f 821 888 891
f 821 891 892
f 821 892 893
f 821 893 890
f 822 826 823
f 822 833 894
f 822 894 895
f 822 895 841
f 822 841 826
f 823 826 825
f 823 825 824
f 826 841 839
f 826 839 827
f 828 838 830
f 830 838 837
f 830 837 896
f 831 897 832
f 832 897 833
f 833 897 894
f 836 898 899
f 836 899 900
f 836 900 901
f 836 901 902
f 836 902 896
f 836 896 837
f 836 849 898
f 840 841 895
f 840 895 894
f 842 857 903
f 842 903 904
f 842 904 905
f 842 905 906
f 842 906 843
f 843 906 907
f 843 907 908
f 843 908 844
f 844 908 845
f 845 908 846
f 846 908 909
f 846 909 910
f 846 910 911
f 846 911 912
f 846 912 847
f 847 912 913
f 847 913 848
f 848 913 914
f 848 914 915
f 848 915 849
f 849 915 916
f 849 916 898
f 850 883 917
f 850 917 918
f 850 918 919
f 850 919 851
f 851 919 852
f 852 919 853
f 853 919 920
f 853 920 921
f 853 921 854
f 854 921 922
f 854 922 923
f 854 923 855
f 855 923 856
f 856 923 924
f 856 924 857
f 857 924 925
f 857 925 903
f 858 926 927
f 858 927 859
f 859 927 928
f 859 928 929
f 859 929 860
f 860 929 863
f 863 929 864
f 864 929 928
f 864 928 930
f 864 930 866
f 865 879 931
f 865 931 932
f 865 932 880
f 866 930 867
f 867 930 933
f 867 933 934
f 867 934 935
f 867 935 868
f 868 935 936
f 868 936 869
f 869 936 870
f 870 936 871
f 871 936 872
f 872 936 873
f 873 936 874
f 874 936 937
f 874 937 938
f 874 938 875
f 875 938 939
f 875 939 940
f 875 940 876
f 876 941 877
f 876 940 942
f 876 942 943
f 876 943 941
f 877 941 878
f 878 944 879
f 878 941 945
f 878 945 944
f 879 944 931
f 880 932 931
f 880 931 946
f 880 946 947
f 880 947 881
f 881 947 948
f 881 948 949
f 881 949 889
f 882 890 883
f 883 890 950
f 883 950 917
f 885 889 951
f 885 951 952
f 885 952 886
f 886 953 918
f 886 918 917
f 886 917 950
f 886 950 890
f 886 890 893
f 886 893 892
f 886 892 887
f 886 952 954
f 886 954 953
f 887 892 888
f 888 892 891
f 889 949 948
f 889 948 955
f 889 955 956
f 889 956 951
f 896 902 901
f 898 916 899
f 899 914 957
f 899 957 958
f 899 958 959
f 899 959 960
f 899 960 961
f 899 961 900
f 899 916 914
f 900 961 962
f 900 962 901
f 903 925 904
f 904 925 924
f 904 924 963
f 904 963 905
f 905 963 964
f 905 964 965
f 905 965 906
f 906 965 910
f 906 910 909
f 906 909 908
f 906 908 907
f 910 965 966
f 910 966 967
f 910 967 911
f 911 968 969
f 911 969 970
f 911 970 971
f 911 971 912
f 911 967 972
f 911 972 968
f 912 971 973
f 912 973 913
f 913 973 974
f 913 974 975
f 913 975 960
f 913 960 976
f 913 976 958
f 913 958 957
f 913 957 914
f 914 916 915
f 918 953 919
f 919 953 977
f 919 977 920
f 920 977 978
f 920 978 921
f 921 978 979
f 921 979 922
f 922 979 980
f 922 980 981
f 922 981 982
f 922 982 923
f 923 963 924
f 923 982 966
f 923 966 965
f 923 965 963
f 926 983 933
f 926 933 930
f 926 930 927
f 927 930 928
f 931 944 984
f 931 984 985
f 931 985 986
f 931 986 987
f 931 987 988
f 931 988 989
f 931 989 990
f 931 990 991
f 931 991 946
f 933 983 934
f 934 936 935
f 934 983 992
f 934 992 936
f 936 992 937
f 938 993 994
f 938 994 995
f 938 995 939
f 939 995 985
f 939 985 940
f 940 985 984
f 940 984 944
f 940 944 945
f 940 945 942
f 941 943 945
f 942 945 943
f 946 996 997
f 946 997 998
f 946 998 955
f 946 955 947
f 946 991 996
f 947 955 948
f 951 956 999
f 951 999 952
f 952 999 1000
f 952 1000 954
f 953 978 977
f 953 954 1001
f 953 1001 978
f 954 1000 1002
f 954 1002 1001
f 955 998 956
f 956 998 1003
f 956 1003 999
f 958 976 960
f 958 960 959
f 960 975 1004
f 960 1004 961
f 961 1004 1005
f 961 1005 962
f 963 965 964
f 966 1006 967
f 966 982 1007
f 966 1007 1008
f 966 1008 1009
f 966 1009 1010
f 966 1010 1001
f 966 1001 1011
f 966 1011 1012
f 966 1012 1006
f 967 1006 1012
f 967 1012 1013
f 967 1013 972
f 968 972 1014
f 968 1014 1015
f 968 1015 1016
f 968 1016 969
f 969 1016 1017
f 969 1017 1018
f 969 1018 970
f 970 1018 971
f 971 1018 973
f 972 1013 1019
f 972 1019 1020
f 972 1020 1021
f 972 1021 1014
f 973 1018 974
f 974 1018 1022
f 974 1022 1023
f 974 1023 1024
f 974 1024 1025
f 974 1025 1026
f 974 1026 1027
f 974 1027 975
f 978 1001 1010
f 978 1010 979
f 979 1010 1009
f 979 1009 1008
f 979 1008 980
f 980 1008 981
f 981 1008 1007
f 981 1007 982
f 985 995 1028
f 985 1028 986
f 986 1028 1029
f 986 1029 987
f 987 1029 1030
f 987 1030 988
f 989 1031 1032
f 989 1032 1033
f 989 1033 990
f 990 1034 991
f 990 1033 1032
f 990 1032 1034
f 991 1034 1035
f 991 1035 996
f 993 1030 994
f 994 1028 995
f 994 1030 1028
f 996 1036 1037
f 996 1037 1038
f 996 1038 997
f 996 1035 1036
f 997 1038 1039
f 997 1039 1003
f 997 1003 998
f 999 1003 1039
f 999 1039 1000
f 1000 1039 1040
f 1000 1040 1041
f 1000 1041 1002
f 1001 1002 1042
f 1001 1042 1011
f 1002 1041 1043
f 1002 1043 1044
f 1002 1044 1042
f 1011 1042 1012
f 1012 1044 1013
f 1012 1042 1044
f 1013 1044 1045
f 1013 1045 1046
f 1013 1046 1047
f 1013 1047 1019
f 1014 1021 1048
f 1014 1048 1049
f 1014 1049 1050
f 1014 1050 1051
f 1014 1051 1052
f 1014 1052 1015
f 1015 1052 1016
f 1016 1052 1053
f 1016 1053 1017
f 1017 1053 1054
f 1017 1054 1018
f 1018 1054 1055
f 1018 1055 1022
f 1019 1047 1020
f 1020 1047 1021
f 1021 1056 1048
f 1021 1047 1056
f 1022 1055 1054
f 1022 1054 1057
f 1023 1026 1024
f 1024 1026 1025
f 1028 1030 1029
f 1031 1058 1034
f 1031 1034 1032
f 1034 1058 1059
f 1034 1059 1060
f 1034 1060 1035
f 1035 1060 1061
f 1035 1061 1062
f 1035 1062 1063
f 1035 1063 1036
f 1036 1063 1037
f 1037 1064 1040
f 1037 1040 1039
f 1037 1039 1038
f 1037 1063 1062
f 1037 1062 1064
f 1040 1064 1041
f 1041 1064 1065
f 1041 1065 1066
f 1041 1066 1045
f 1041 1045 1043
f 1043 1045 1044
f 1045 1066 1046
f 1046 1066 1065
f 1046 1065 1067
f 1046 1067 1068
f 1046 1068 1069
f 1046 1069 1070
f 1046 1070 1071
f 1046 1071 1047
f 1047 1071 1072
f 1047 1072 1056
f 1051 1057 1053
f 1051 1053 1052
f 1053 1057 1054
f 1056 1072 1070
f 1058 1073 1059
f 1059 1073 1060
f 1060 1073 1061
f 1061 1074 1062
f 1062 1075 1076
f 1062 1076 1064
f 1062 1074 1075
f 1064 1076 1065
f 1065 1076 1077
f 1065 1077 1067
f 1067 1077 1068
f 1068 1077 1076
f 1068 1076 1078
f 1068 1078 1079
f 1068 1079 1080
f 1068 1080 1069
f 1069 1080 1070
f 1070 1072 1071
f 1074 1081 1075
f 1075 1081 1082
f 1075 1082 1076
f 1076 1082 1083
f 1076 1083 1078
f 1081 1083 1082

