# https://github.com/mikedh/trimesh
v 0.02435023 0.01057327 0.00518189
v 0.02385923 0.01055398 0.00518189
v 0.01451564 0.00981652 0.00556101
v 0.01288221 0.00937705 0.00593537
v 0.01369892 0.00939634 0.00593854
v 0.02436968 0.01025599 0.00543093
v 0.02514750 0.00993443 0.00568632
v 0.02566281 0.00993443 0.00568632
v 0.02514750 0.01034174 0.00536431
v 0.02514750 0.01056684 0.00518189
v 0.03176385 0.00615925 -0.00130437
v 0.01158908 0.00615925 -0.00130437
v 0.01445244 0.01012737 0.00518189
v 0.01288221 0.00978651 0.00551501
v 0.01369892 0.00980366 0.00553721
v 0.01124392 0.00933846 0.00590047
v 0.00876461 0.00879180 0.00626690
v 0.00878406 0.00839520 0.00659843
v 0.01288221 0.00884111 0.00634621
v 0.02514750 0.00951639 0.00599723
v 0.02594477 0.00959357 0.00594013
v 0.02620728 0.00991514 0.00567363
v 0.02591560 0.01046823 0.00518189
v 0.03418483 0.00591486 -0.00130437
v 0.04154497 -0.00045213 -0.00757014
v 0.01120503 0.00095418 -0.00148679
v -0.00556677 0.00099277 0.00567681
v -0.00478895 0.00263061 0.00564984
v -0.00383125 0.00410338 0.00576722
v -0.00229991 0.00501448 0.00567998
v 0.00736453 0.00944136 0.00518189
v 0.00792845 0.00970290 0.00518189
v 0.00799651 0.00972863 0.00518189
v 0.00876461 0.00985082 0.00518189
v 0.00960563 0.00990013 0.00518189
v 0.01288221 0.01005448 0.00518189
v 0.04072340 -0.00051216 -0.00758917
v 0.03826839 -0.00125604 -0.00769863
v 0.03826839 -0.00195277 -0.00783505
v 0.01206550 0.00976721 0.00549121
v 0.00878406 0.00927415 0.00584654
v 0.00796248 0.00923985 0.00581957
v 0.00824930 0.00837162 0.00657781
v 0.00878406 0.00787641 0.00694424
v 0.02597394 0.00895473 0.00640808
v 0.02678093 0.00893972 0.00640173
v 0.02678093 0.00944994 0.00599247
v 0.02678093 0.00985940 0.00561494
v 0.02678093 0.01025599 0.00520410
v 0.02678093 0.01027529 0.00518189
v 0.03460777 0.00585912 -0.00130437
v 0.04154497 -0.00012413 -0.00701336
v 0.04202139 -0.00057861 -0.00747655
v 0.04161303 -0.00119602 -0.00758759
v 0.04072340 -0.00113171 -0.00773194
v 0.01316417 -0.00840766 -0.00002108
v -0.00558135 -0.00158619 0.00566253
v -0.00559594 -0.00112956 0.00565143
v -0.00558622 -0.00031493 0.00565777
v -0.00574178 -0.00031493 0.00609241
v -0.00569316 0.00050399 0.00609241
v -0.00560566 0.00112997 0.00609241
v -0.00549871 0.00153943 0.00609241
v -0.00524106 0.00214397 0.00609241
v -0.00489103 0.00278925 0.00609241
v -0.00398196 0.00425344 0.00631449
v -0.00312149 0.00502305 0.00645884
v -0.00284925 0.00486013 0.00591316
v -0.00312149 0.00502305 0.00657146
v -0.00273744 0.00516883 0.00687127
v -0.00249437 0.00515382 0.00743122
v 0.00747148 0.00917982 0.00576247
v 0.00876461 0.00967503 0.00539921
v 0.00960563 0.00970290 0.00541983
v 0.04072340 -0.00188417 -0.00756538
v 0.03826839 -0.00275454 -0.00753048
v -0.00187211 0.00523743 0.00748674
v 0.00960563 0.00736834 0.00728846
v 0.02597394 0.00854312 0.00664443
v 0.02678093 0.00853026 0.00662857
v 0.02730596 0.00843593 0.00657305
v 0.02742263 0.00930202 0.00588144
v 0.02740319 0.01004162 0.00518189
v 0.03467583 0.00592772 -0.00002266
v 0.04219640 -0.00040926 -0.00619326
v 0.04212348 -0.00045856 -0.00701336
v 0.04361106 -0.00478683 -0.00272567
v 0.04202139 -0.00096449 -0.00747655
v 0.04193388 -0.00151115 -0.00740675
v 0.04138941 -0.00172767 -0.00750034
v 0.00845348 -0.01132747 0.00518189
v 0.00795762 -0.01120742 0.00518189
v 0.00775830 -0.01115597 0.00518189
v 0.00818611 -0.00840766 0.00231074
v -0.00396251 -0.00404294 0.00565460
v 0.03826839 -0.00351986 -0.00719578
v 0.03826839 -0.00356703 -0.00717198
v 0.03826839 -0.00430663 -0.00678969
v 0.03826839 -0.00471609 -0.00647720
v 0.03908511 -0.00514699 -0.00606318
v 0.03990668 -0.00582013 -0.00520501
v 0.03944485 -0.00650399 -0.00422945
v -0.00563483 -0.00166336 0.00609241
v -0.00573206 -0.00112956 0.00609241
v -0.00402571 -0.00411583 0.00609241
v -0.00583900 -0.00031493 0.00691093
v -0.00562024 0.00112568 0.00667774
v -0.00474519 0.00337664 0.00732494
v -0.00474519 0.00337664 0.00729004
v -0.00471602 0.00333591 0.00674278
v -0.00397223 0.00424272 0.00691093
v -0.00304371 0.00495231 0.00711873
v -0.00393334 0.00419985 0.00732970
v -0.00187211 0.00460073 0.00765330
v -0.00351526 0.00435849 0.00741060
v -0.00273744 0.00464789 0.00752005
v 0.04072340 -0.00229577 -0.00739406
v 0.00960563 0.00695673 0.00740584
v 0.02597394 0.00684740 0.00737729
v 0.02597394 0.00725901 0.00725832
v 0.02597394 0.00787855 0.00699024
v 0.02678093 0.00787855 0.00694900
v 0.04154497 -0.00058933 0.00738522
v 0.04195333 -0.00072225 0.00732177
v 0.02762681 0.00992157 0.00518189
v 0.03468069 0.00594702 0.00035963
v 0.04219640 -0.00040926 0.00609241
v 0.04382496 -0.00522630 0.00035646
v 0.04362565 -0.00476754 -0.00209592
v 0.04378121 -0.00522630 -0.00045889
v 0.04373260 -0.00522630 -0.00127740
v 0.04361106 -0.00499478 -0.00272567
v 0.04352842 -0.00525203 -0.00296678
v 0.04310062 -0.00529491 -0.00380909
v 0.04198736 -0.00407081 -0.00583476
v 0.04157900 -0.00359704 -0.00638044
v 0.04133107 -0.00332907 -0.00668659
v 0.04286241 -0.00506552 -0.00427070
v 0.04275060 -0.00561218 -0.00413269
v 0.04072340 -0.00277169 -0.00715136
v 0.00878406 -0.01132318 0.00518189
v 0.00878406 -0.01123529 0.00538017
v 0.00878406 -0.01082583 0.00601151
v 0.00810832 -0.01075508 0.00592744
v 0.04015947 -0.00739151 -0.00268760
v -0.00147834 -0.00564434 0.00733287
v -0.00311663 -0.00482328 0.00732970
v -0.00313607 -0.00483614 0.00691251
v -0.00313607 -0.00483614 0.00639063
v -0.00146862 -0.00564005 0.00568157
v 0.03908511 -0.00418872 -0.00671197
v 0.03908511 -0.00460032 -0.00647244
v 0.03990668 -0.00506552 -0.00597435
v 0.03990668 -0.00547713 -0.00561427
v 0.04053866 -0.00571937 -0.00506700
v 0.04154497 -0.00628104 -0.00391061
v 0.04088868 -0.00638394 -0.00404386
v 0.04034421 -0.00646540 -0.00415648
v 0.03990668 -0.00594232 -0.00503528
v 0.03990668 -0.00622959 -0.00462761
v 0.03990668 -0.00649970 -0.00421835
v -0.00565427 -0.00169123 0.00691251
v -0.00581956 -0.00112956 0.00691251
v -0.00443406 -0.00358847 0.00691251
v -0.00354929 -0.00456388 0.00691251
v -0.00405001 -0.00415442 0.00691251
v -0.00568830 -0.00112956 0.00744074
v -0.00568344 -0.00049929 0.00743915
v -0.00567858 -0.00031493 0.00743757
v -0.00560566 0.00025317 0.00737253
v -0.00567858 0.00051685 0.00693631
v -0.00480353 0.00296289 0.00738522
v -0.00433198 0.00296289 0.00755178
v -0.00425419 0.00370249 0.00739474
v 0.01124392 0.00214397 0.00795310
v 0.01124392 0.00296504 0.00793248
v 0.01042235 0.00377967 0.00789441
v 0.01042235 0.00460073 0.00785952
v 0.01042235 0.00541965 0.00773737
v 0.00960563 0.00623857 0.00757875
v -0.00351526 0.00378181 0.00757557
v -0.00351526 0.00296289 0.00765330
v 0.02597394 0.00624072 0.00752164
v 0.02678093 0.00680881 0.00736618
v 0.02678093 0.00721827 0.00723135
v 0.03464180 0.00102493 0.00818946
v 0.03625092 -0.00069223 0.00815456
v 0.04154497 -0.00090875 0.00738522
v 0.03493834 0.00045468 0.00824498
v 0.03498209 -0.00031707 0.00832112
v 0.04195333 -0.00072439 0.00732177
v 0.04209431 -0.00105024 0.00689189
v 0.04207486 -0.00056361 0.00691251
v 0.02786502 0.00977150 0.00518189
v 0.03468069 0.00594488 0.00117814
v 0.04231793 -0.00113171 0.00609241
v 0.04363537 -0.00476539 0.00174761
v 0.04365968 -0.00473967 0.00117656
v 0.03462721 0.00589128 0.00181265
v 0.04378608 -0.00522630 0.00117656
v 0.04372288 -0.00587158 0.00117656
v 0.04372773 -0.00608810 0.00028666
v 0.04371801 -0.00609882 -0.00002108
v 0.04370343 -0.00611597 -0.00042875
v 0.04368398 -0.00590588 -0.00127740
v 0.04364023 -0.00574724 -0.00190874
v 0.04364996 -0.00525203 -0.00214985
v 0.04357703 -0.00554144 -0.00245759
v 0.04295477 -0.00583728 -0.00358543
v 0.04209917 -0.00495833 -0.00511618
v 0.04154497 -0.00466678 -0.00569199
v 0.04154497 -0.00425518 -0.00597594
v 0.04113175 -0.00481684 -0.00578400
v 0.04080604 -0.00448885 -0.00612187
v 0.04072340 -0.00389074 -0.00654382
v 0.04072340 -0.00348128 -0.00677066
v 0.04237627 -0.00610311 -0.00372819
v 0.04220612 -0.00574938 -0.00427545
v 0.04154497 -0.00511268 -0.00528274
v 0.03995530 -0.00365921 -0.00682776
v 0.03600299 -0.00840766 -0.00002108
v 0.03596896 -0.00840766 0.00035963
v 0.03588145 -0.00840766 0.00117814
v 0.03567727 -0.00840766 0.00270414
v 0.03566269 -0.00840766 0.00278979
v 0.03537100 -0.00840766 0.00325299
v 0.03503071 -0.00840766 0.00352582
v 0.03469527 -0.00840766 0.00367811
v 0.03437442 -0.00840766 0.00379866
v 0.03316879 -0.00840766 0.00424282
v 0.03247848 -0.00840766 0.00446014
v 0.03236180 -0.00840766 0.00449186
v 0.03193400 -0.00840766 0.00460449
v 0.00878406 -0.01046139 0.00642077
v 0.03129716 -0.00840766 0.00474091
v 0.03088394 -0.00840766 0.00482498
v 0.03005750 -0.00829833 0.00512161
v 0.03005750 -0.00824902 0.00518189
v 0.03005750 -0.00795747 0.00553087
v 0.00821041 -0.00996618 0.00669202
v 0.04072340 -0.00736364 -0.00264477
v 0.04072340 -0.00751799 -0.00209592
v 0.00878406 -0.01005193 0.00677768
v -0.00105540 -0.00569579 0.00738681
v -0.00179919 -0.00522416 0.00745977
v -0.00269369 -0.00492189 0.00740901
v -0.00343748 -0.00438380 0.00743598
v -0.00399654 -0.00409439 0.00739315
v 0.03971709 -0.00407724 -0.00665010
v 0.04026156 -0.00397863 -0.00659300
v 0.03995530 -0.00437308 -0.00642168
v 0.04058728 -0.00493046 -0.00588076
v 0.04083521 -0.00527347 -0.00542550
v 0.04103939 -0.00555216 -0.00503528
v 0.04108800 -0.00561647 -0.00494169
v 0.04154497 -0.00587158 -0.00443091
v 0.04154497 -0.00610311 -0.00413904
v 0.04206028 -0.00649970 -0.00338556
v 0.04154497 -0.00658331 -0.00350135
v 0.04066020 -0.00666049 -0.00375674
v 0.04072340 -0.00711497 -0.00305561
v -0.00561052 -0.00162477 0.00737412
v -0.00515355 -0.00191847 0.00748515
v -0.00514869 -0.00112956 0.00760571
v -0.00514869 -0.00031493 0.00760254
v -0.00491048 0.00214397 0.00746612
v -0.00433198 0.00214397 0.00763109
v -0.00433198 0.00132505 0.00765171
v -0.00433198 -0.00112956 0.00765171
v -0.00433198 -0.00195063 0.00765013
v 0.03416052 -0.00031707 0.00837029
v 0.03416052 0.00050399 0.00832271
v 0.02597394 0.00542180 0.00768344
v 0.02678093 0.00624072 0.00749309
v 0.03416052 0.00113426 0.00819898
v 0.03625092 -0.00082300 0.00815456
v 0.03663010 -0.00195277 0.00791503
v 0.04054352 -0.00165907 0.00736936
v 0.04108800 -0.00151544 0.00731067
v 0.03416052 -0.00112956 0.00830684
v 0.03579881 -0.00098593 0.00818787
v 0.04116092 -0.00320687 0.00651753
v 0.04197764 -0.00403223 0.00570536
v 0.04284296 -0.00495833 0.00422537
v 0.04352842 -0.00522630 0.00221715
v 0.04366454 -0.00522630 0.00180631
v 0.04364509 -0.00574295 0.00171906
v 0.04343605 -0.00628318 0.00117656
v 0.04352356 -0.00639037 0.00051667
v 0.04359648 -0.00646112 -0.00002425
v 0.04359648 -0.00646112 -0.00013687
v 0.04357703 -0.00643325 -0.00068255
v 0.04347008 -0.00631748 -0.00127740
v 0.04302770 -0.00610311 -0.00282402
v 0.04260475 -0.00638394 -0.00305879
v 0.04154497 -0.00552214 -0.00484017
v 0.04154497 -0.00534207 -0.00503528
v 0.04072340 -0.00761446 -0.00127740
v 0.04072340 -0.00770236 -0.00002108
v 0.04072340 -0.00772808 0.00035646
v 0.04072340 -0.00769593 0.00117656
v 0.04071854 -0.00744511 0.00200300
v 0.04044144 -0.00732077 0.00250268
v 0.03535642 -0.00808395 0.00403026
v 0.03504043 -0.00831976 0.00370824
v 0.03480708 -0.00814612 0.00412068
v 0.03333408 -0.00830261 0.00435544
v 0.03333408 -0.00802821 0.00476470
v 0.03283336 -0.00807752 0.00484084
v 0.03229374 -0.00812254 0.00489795
v 0.03365493 -0.00725645 0.00566729
v 0.03311046 -0.00730147 0.00570853
v 0.03169579 -0.00741295 0.00581640
v 0.03169579 -0.00695633 0.00622566
v 0.03230833 -0.00650185 0.00653815
v 0.00960077 -0.00997475 0.00673009
v 0.03088394 -0.00823616 0.00504071
v 0.04113662 -0.00727789 -0.00250994
v 0.04122898 -0.00731648 -0.00209592
v 0.04136510 -0.00737222 -0.00127740
v 0.00960077 -0.00941523 0.00713935
v 0.00905143 -0.00899505 0.00735032
v 0.00878406 -0.00929089 0.00718218
v -0.00105540 -0.00522630 0.00755336
v -0.00269369 -0.00440738 0.00757399
v -0.00351040 -0.00358847 0.00762475
v -0.00415697 -0.00358847 0.00745819
v -0.00488131 -0.00259590 0.00742964
v -0.00351040 -0.00276955 0.00765330
v 0.03252223 -0.00112956 0.00831477
v 0.03333894 -0.00112956 0.00832746
v -0.00269369 -0.00358847 0.00765330
v -0.00187211 -0.00440738 0.00765171
v 0.03579881 -0.00139539 0.00811808
v 0.03639190 -0.00195277 0.00794359
v 0.03498209 -0.00276740 0.00793248
v 0.03498209 -0.00358632 0.00774054
v 0.04077687 -0.00193991 0.00720439
v 0.03498209 -0.00427662 0.00747564
v 0.04072340 -0.00277169 0.00685382
v 0.03409732 -0.00194634 0.00819263
v 0.03504043 -0.00120031 0.00822594
v 0.03333894 -0.00194848 0.00823705
v 0.04154497 -0.00415013 0.00578150
v 0.04072340 -0.00330978 0.00658257
v 0.04072340 -0.00372138 0.00631925
v 0.04215751 -0.00496262 0.00498202
v 0.04154497 -0.00455959 0.00551183
v 0.04238599 -0.00523274 0.00445696
v 0.04261934 -0.00550285 0.00391605
v 0.04285755 -0.00573009 0.00336878
v 0.04299853 -0.00590374 0.00281200
v 0.04323187 -0.00608810 0.00204425
v 0.04322215 -0.00609668 0.00205059
v 0.04275546 -0.00644825 0.00238371
v 0.04290616 -0.00654043 0.00183803
v 0.04302770 -0.00660689 0.00117656
v 0.04236168 -0.00696919 0.00117656
v 0.04184638 -0.00722644 0.00117656
v 0.04236168 -0.00704208 0.00035646
v 0.04325618 -0.00662190 -0.00042875
v 0.04305686 -0.00660260 -0.00127740
v 0.04277490 -0.00645897 -0.00251311
v 0.04145260 -0.00740437 -0.00045889
v 0.04149636 -0.00743867 0.00035646
v 0.04143802 -0.00741938 0.00117656
v 0.04129704 -0.00734649 0.00173651
v 0.04098591 -0.00721787 0.00228377
v 0.04071854 -0.00707638 0.00279138
v 0.04072826 -0.00665834 0.00364638
v 0.04045602 -0.00651900 0.00412861
v 0.03429178 -0.00751156 0.00518189
v 0.03415566 -0.00755015 0.00518189
v 0.03411190 -0.00756087 0.00518189
v 0.03415566 -0.00794032 0.00463463
v 0.03416052 -0.00720929 0.00561811
v 0.03416052 -0.00679983 0.00594806
v 0.03285280 -0.00643539 0.00648739
v 0.03447165 -0.00479326 0.00730273
v 0.03392231 -0.00485972 0.00734715
v 0.04236168 -0.00676553 -0.00209592
v 0.04163734 -0.00712354 -0.00209592
v 0.04236168 -0.00693274 -0.00127740
v 0.04177346 -0.00719643 -0.00127740
v 0.04236168 -0.00703350 -0.00045889
v 0.04186096 -0.00723930 -0.00045889
v 0.01013552 -0.00895432 0.00733922
v 0.00960077 -0.00900577 0.00735667
v 0.00960077 -0.00850413 0.00742805
v -0.00023382 -0.00522630 0.00758826
v 0.03252223 -0.00194848 0.00824498
v 0.03579881 -0.00194848 0.00801180
v 0.03378133 -0.00237295 0.00814346
v 0.03416052 -0.00358632 0.00783255
v 0.03417996 -0.00447384 0.00750419
v 0.03498209 -0.00468822 0.00724246
v 0.03252223 -0.00245227 0.00816566
v 0.03333894 -0.00241368 0.00815297
v 0.03894899 -0.00411369 0.00657146
v 0.03949346 -0.00399793 0.00650008
v 0.04066506 -0.00442668 0.00587033
v 0.04089841 -0.00471180 0.00561018
v 0.04154011 -0.00501407 0.00518189
v 0.04154011 -0.00511912 0.00510416
v 0.04108800 -0.00562076 0.00484560
v 0.04154011 -0.00552858 0.00471870
v 0.04207000 -0.00569793 0.00413971
v 0.04235196 -0.00587158 0.00363845
v 0.04291588 -0.00608810 0.00266924
v 0.04243461 -0.00631963 0.00285642
v 0.04100050 -0.00639037 0.00392874
v 0.04133107 -0.00654043 0.00338147
v 0.04157900 -0.00669907 0.00285642
v 0.04243461 -0.00670336 0.00206487
v 0.04239085 -0.00608810 0.00326250
v 0.04190471 -0.00725431 0.00035646
v 0.04154011 -0.00583942 0.00430944
v 0.03498209 -0.00664762 0.00583067
v 0.04054352 -0.00571937 0.00492809
v 0.03990668 -0.00491760 0.00575929
v 0.03504043 -0.00601950 0.00628911
v 0.03481681 -0.00572795 0.00656829
v 0.03416052 -0.00624674 0.00635732
v 0.03504043 -0.00530134 0.00680464
v 0.03333894 -0.00490903 0.00737412
v 0.03333894 -0.00440524 0.00759144
v 0.03333894 -0.00282100 0.00805463
v 0.03916775 -0.00439667 0.00633035
v 0.04035393 -0.00483185 0.00569426
v 0.04067478 -0.00535707 0.00518189
v 0.04157900 -0.00626818 0.00364638
v 0.03990668 -0.00532706 0.00543252
v 0.03536128 -0.00562290 0.00649532
f 1 2 3
f 1 3 4
f 1 4 5
f 1 5 6
f 1 6 7
f 1 7 8
f 1 8 9
f 1 9 10
f 1 10 11
f 1 11 12
f 1 12 2
f 2 12 13
f 2 13 14
f 2 14 15
f 2 15 3
f 3 15 4
f 4 15 16
f 4 16 17
f 4 17 18
f 4 18 5
f 5 18 19
f 5 19 7
f 5 7 6
f 7 20 21
f 7 21 8
f 7 19 20
f 8 10 9
f 8 21 22
f 8 22 10
f 10 22 23
f 10 23 24
f 10 24 11
f 11 24 25
f 11 25 12
f 12 26 27
f 12 27 28
f 12 28 29
f 12 29 30
f 12 30 31
f 12 31 32
f 12 32 33
f 12 33 34
f 12 34 35
f 12 35 36
f 12 36 13
f 12 25 37
f 12 37 38
f 12 38 39
f 12 39 26
f 13 36 14
f 14 36 40
f 14 40 41
f 14 41 16
f 14 16 15
f 16 41 17
f 17 42 43
f 17 43 18
f 17 41 42
f 18 43 44
f 18 44 19
f 19 44 45
f 19 45 20
f 20 45 21
f 21 45 46
f 21 46 22
f 22 46 47
f 22 47 48
f 22 48 23
f 23 48 49
f 23 49 50
f 23 50 51
f 23 51 24
f 24 51 25
f 25 52 53
f 25 53 54
f 25 54 55
f 25 55 37
f 25 51 52
f 26 56 57
f 26 57 58
f 26 58 59
f 26 59 27
f 26 39 56
f 27 59 60
f 27 60 61
f 27 61 62
f 27 62 63
f 27 63 64
f 27 64 28
f 28 64 65
f 28 65 29
f 29 65 66
f 29 66 67
f 29 67 68
f 29 68 30
f 30 68 67
f 30 67 31
f 31 67 32
f 32 67 69
f 32 69 70
f 32 70 71
f 32 71 33
f 33 71 72
f 33 72 42
f 33 42 34
f 34 42 73
f 34 73 35
f 35 74 40
f 35 40 36
f 35 73 74
f 37 55 38
f 38 55 39
f 39 55 75
f 39 75 76
f 39 76 56
f 40 74 41
f 41 74 73
f 41 73 42
f 42 72 71
f 42 71 77
f 42 77 43
f 43 77 44
f 44 77 78
f 44 78 45
f 45 79 46
f 45 78 79
f 46 79 80
f 46 80 81
f 46 81 82
f 46 82 47
f 47 82 48
f 48 82 83
f 48 83 49
f 49 83 50
f 50 83 51
f 51 83 84
f 51 84 85
f 51 85 86
f 51 86 52
f 52 86 53
f 53 86 87
f 53 87 132
f 53 132 88
f 53 88 54
f 54 88 89
f 54 89 90
f 54 90 75
f 54 75 55
f 56 91 92
f 56 92 93
f 56 93 94
f 56 94 95
f 56 95 57
f 56 76 96
f 56 96 97
f 56 97 98
f 56 98 99
f 56 99 100
f 56 100 101
f 56 101 102
f 56 102 91
f 57 103 104
f 57 104 58
f 57 95 105
f 57 105 103
f 58 104 60
f 58 60 59
f 60 106 61
f 60 104 106
f 61 106 62
f 62 106 107
f 62 107 63
f 63 108 109
f 63 109 64
f 63 107 108
f 64 109 110
f 64 110 65
f 65 110 66
f 66 111 69
f 66 69 67
f 66 110 109
f 66 109 108
f 66 108 111
f 69 112 70
f 69 111 113
f 69 113 112
f 70 112 71
f 71 114 77
f 71 112 113
f 71 113 115
f 71 115 116
f 71 116 114
f 75 117 76
f 75 90 117
f 76 117 96
f 77 114 118
f 77 118 78
f 78 118 119
f 78 119 120
f 78 120 121
f 78 121 79
f 79 121 80
f 80 122 81
f 80 121 122
f 81 122 123
f 81 123 124
f 81 124 82
f 82 125 83
f 82 124 125
f 83 125 126
f 83 126 84
f 84 126 85
f 85 127 128
f 85 128 129
f 85 129 87
f 85 87 86
f 85 126 127
f 87 129 128
f 87 128 130
f 87 130 131
f 87 131 132
f 88 132 133
f 88 133 134
f 88 134 89
f 89 135 136
f 89 136 137
f 89 137 90
f 89 134 138
f 89 138 139
f 89 139 135
f 90 137 140
f 90 140 117
f 91 141 142
f 91 142 143
f 91 143 144
f 91 144 92
f 91 102 145
f 91 145 141
f 92 144 93
f 93 144 146
f 93 146 147
f 93 147 148
f 93 148 149
f 93 149 150
f 93 150 95
f 93 95 94
f 95 149 105
f 95 150 149
f 96 117 97
f 97 117 140
f 97 140 151
f 97 151 98
f 98 151 152
f 98 152 100
f 98 100 99
f 100 152 153
f 100 153 154
f 100 154 101
f 101 154 155
f 101 155 156
f 101 156 157
f 101 157 158
f 101 158 159
f 101 159 102
f 102 159 160
f 102 160 161
f 102 161 145
f 103 162 163
f 103 163 104
f 103 105 164
f 103 164 162
f 104 163 106
f 105 149 165
f 105 165 166
f 105 166 164
f 106 163 167
f 106 167 168
f 106 168 169
f 106 169 170
f 106 170 171
f 106 171 107
f 107 170 108
f 107 171 170
f 108 170 172
f 108 172 173
f 108 173 174
f 108 174 113
f 108 113 111
f 113 174 115
f 114 175 176
f 114 176 177
f 114 177 178
f 114 178 179
f 114 179 180
f 114 180 118
f 114 116 181
f 114 181 182
f 114 182 175
f 115 174 181
f 115 181 116
f 118 180 119
f 119 183 184
f 119 184 120
f 119 180 183
f 120 184 185
f 120 185 122
f 120 122 121
f 122 185 186
f 122 186 123
f 123 187 276
f 123 276 188
f 123 188 191
f 123 191 124
f 123 186 189
f 123 189 190
f 123 190 187
f 124 191 192
f 124 192 193
f 124 193 194
f 124 194 125
f 125 194 195
f 125 195 126
f 126 195 127
f 127 193 196
f 127 196 197
f 127 197 198
f 127 198 128
f 127 195 199
f 127 199 194
f 127 194 193
f 128 200 201
f 128 201 202
f 128 202 203
f 128 203 204
f 128 204 205
f 128 205 130
f 128 198 200
f 130 205 131
f 131 205 206
f 131 206 207
f 131 207 132
f 132 208 133
f 132 207 206
f 132 206 208
f 133 208 209
f 133 209 134
f 134 209 139
f 134 139 138
f 135 139 210
f 135 210 211
f 135 211 212
f 135 212 136
f 136 212 137
f 137 213 214
f 137 214 215
f 137 215 216
f 137 216 140
f 137 212 213
f 139 209 217
f 139 217 218
f 139 218 219
f 139 219 210
f 140 216 220
f 140 220 151
f 141 221 222
f 141 222 223
f 141 223 224
f 141 224 225
f 141 225 226
f 141 226 227
f 141 227 228
f 141 228 229
f 141 229 230
f 141 230 231
f 141 231 142
f 141 145 221
f 142 231 232
f 142 232 233
f 142 233 143
f 143 234 144
f 143 233 235
f 143 235 236
f 143 236 237
f 143 237 238
f 143 238 239
f 143 239 234
f 144 234 240
f 144 240 146
f 145 161 241
f 145 241 242
f 145 242 221
f 146 240 243
f 146 243 244
f 146 244 245
f 146 245 246
f 146 246 147
f 147 246 247
f 147 247 248
f 147 248 165
f 147 165 148
f 148 165 149
f 151 220 249
f 151 249 152
f 152 249 250
f 152 250 251
f 152 251 153
f 153 251 215
f 153 215 214
f 153 214 252
f 153 252 154
f 154 252 213
f 154 213 253
f 154 253 254
f 154 254 155
f 155 254 255
f 155 255 256
f 155 256 257
f 155 257 156
f 156 257 258
f 156 258 259
f 156 259 157
f 157 259 158
f 158 161 160
f 158 160 159
f 158 259 260
f 158 260 261
f 158 261 161
f 161 261 241
f 162 164 262
f 162 262 163
f 163 262 167
f 164 166 248
f 164 248 262
f 165 248 166
f 167 262 263
f 167 263 264
f 167 264 265
f 167 265 168
f 168 265 169
f 169 265 266
f 169 266 172
f 169 172 170
f 172 266 173
f 173 267 181
f 173 181 174
f 173 266 267
f 175 182 268
f 175 268 269
f 175 269 270
f 175 270 271
f 175 271 176
f 176 271 177
f 177 271 178
f 178 271 272
f 178 272 273
f 178 273 179
f 179 273 180
f 180 273 183
f 181 267 182
f 182 267 268
f 183 273 274
f 183 274 184
f 184 274 275
f 184 275 186
f 184 186 185
f 186 275 272
f 186 272 189
f 187 190 276
f 188 276 277
f 188 277 278
f 188 278 279
f 188 279 191
f 189 272 190
f 190 272 271
f 190 271 280
f 190 280 281
f 190 281 276
f 191 279 282
f 191 282 283
f 191 283 284
f 191 284 192
f 192 284 285
f 192 285 286
f 192 286 193
f 193 286 196
f 194 199 195
f 196 286 197
f 197 286 200
f 197 200 198
f 200 286 287
f 200 287 201
f 201 287 288
f 201 288 289
f 201 289 290
f 201 290 202
f 202 290 291
f 202 291 203
f 203 291 204
f 204 291 292
f 204 292 205
f 205 292 206
f 206 292 293
f 206 293 209
f 206 209 208
f 209 294 295
f 209 295 217
f 209 293 294
f 210 219 211
f 211 219 213
f 211 213 212
f 213 219 253
f 213 252 214
f 215 251 250
f 215 250 216
f 216 250 249
f 216 249 220
f 217 295 258
f 217 258 218
f 218 258 257
f 218 257 256
f 218 256 255
f 218 255 296
f 218 296 297
f 218 297 219
f 219 297 254
f 219 254 253
f 221 242 298
f 221 298 299
f 221 299 300
f 221 300 222
f 222 300 223
f 223 300 224
f 224 300 225
f 225 300 301
f 225 301 226
f 226 301 302
f 226 302 227
f 227 302 303
f 227 303 304
f 227 304 305
f 227 305 228
f 228 305 304
f 228 304 229
f 229 304 306
f 229 306 230
f 230 306 307
f 230 307 231
f 231 307 308
f 231 308 309
f 231 309 232
f 232 309 233
f 233 309 310
f 233 310 235
f 234 239 311
f 234 311 312
f 234 312 313
f 234 313 314
f 234 314 315
f 234 315 316
f 234 316 243
f 234 243 240
f 235 310 236
f 236 310 317
f 236 317 237
f 237 317 238
f 238 317 239
f 239 317 311
f 241 261 258
f 241 258 318
f 241 318 242
f 242 318 319
f 242 319 320
f 242 320 298
f 243 316 315
f 243 315 321
f 243 321 322
f 243 322 323
f 243 323 244
f 244 324 245
f 244 323 322
f 244 322 324
f 245 324 325
f 245 325 246
f 246 325 247
f 247 325 326
f 247 326 248
f 248 327 328
f 248 328 262
f 248 326 327
f 254 297 296
f 254 296 255
f 258 261 259
f 258 295 318
f 259 261 260
f 262 328 263
f 263 328 327
f 263 327 326
f 263 326 264
f 264 326 270
f 264 270 269
f 264 269 268
f 264 268 265
f 265 268 267
f 265 267 266
f 270 326 329
f 270 329 271
f 271 330 331
f 271 331 280
f 271 329 332
f 271 332 333
f 271 333 330
f 272 275 274
f 272 274 273
f 276 281 277
f 277 281 334
f 277 334 335
f 277 335 336
f 277 336 337
f 277 337 278
f 278 338 279
f 278 337 339
f 278 339 338
f 279 338 340
f 279 340 282
f 280 341 342
f 280 342 281
f 280 331 343
f 280 343 341
f 281 342 341
f 281 341 334
f 282 344 283
f 282 340 345
f 282 345 346
f 282 346 344
f 283 347 284
f 283 344 348
f 283 348 347
f 284 349 350
f 284 350 351
f 284 351 287
f 284 287 285
f 284 347 349
f 285 287 286
f 287 351 352
f 287 352 353
f 287 353 288
f 288 353 354
f 288 354 355
f 288 355 356
f 288 356 289
f 289 356 357
f 289 357 290
f 290 357 358
f 290 358 359
f 290 359 360
f 290 360 361
f 290 361 291
f 291 361 292
f 292 361 362
f 292 362 363
f 292 363 293
f 293 363 294
f 294 363 295
f 295 363 318
f 298 320 364
f 298 364 299
f 299 364 300
f 300 365 301
f 300 364 365
f 301 365 366
f 301 366 367
f 301 367 302
f 302 367 368
f 302 368 303
f 303 368 369
f 303 369 370
f 303 370 371
f 303 371 304
f 304 372 373
f 304 373 374
f 304 374 375
f 304 375 306
f 304 371 372
f 306 375 308
f 306 308 307
f 308 375 374
f 308 374 309
f 309 374 376
f 309 376 311
f 309 311 310
f 310 311 317
f 311 315 312
f 311 376 315
f 312 315 314
f 312 314 313
f 315 376 377
f 315 377 378
f 315 378 379
f 315 379 380
f 315 380 321
f 318 363 381
f 318 381 382
f 318 382 319
f 319 382 383
f 319 383 384
f 319 384 320
f 320 384 385
f 320 385 386
f 320 386 364
f 321 387 388
f 321 388 322
f 321 380 387
f 322 388 389
f 322 389 333
f 322 333 390
f 322 390 324
f 324 390 333
f 324 333 325
f 325 333 326
f 326 333 332
f 326 332 329
f 330 333 331
f 331 333 389
f 331 389 391
f 331 391 343
f 334 341 392
f 334 392 335
f 335 392 336
f 336 392 393
f 336 393 394
f 336 394 337
f 337 394 395
f 337 395 339
f 338 339 340
f 339 395 379
f 339 379 396
f 339 396 345
f 339 345 340
f 341 343 393
f 341 393 392
f 343 391 388
f 343 388 397
f 343 397 398
f 343 398 393
f 344 346 348
f 345 399 400
f 345 400 346
f 345 396 399
f 346 400 401
f 346 401 402
f 346 402 348
f 347 348 403
f 347 403 404
f 347 404 405
f 347 405 406
f 347 406 407
f 347 407 349
f 348 402 403
f 349 407 350
f 350 407 408
f 350 408 351
f 351 355 409
f 351 409 352
f 351 408 355
f 352 409 354
f 352 354 353
f 354 409 355
f 355 410 411
f 355 411 412
f 355 412 370
f 355 370 413
f 355 413 368
f 355 368 367
f 355 367 414
f 355 414 356
f 355 408 415
f 355 415 410
f 356 414 367
f 356 367 359
f 356 359 358
f 356 358 357
f 359 367 366
f 359 366 360
f 360 366 416
f 360 416 361
f 361 416 385
f 361 385 383
f 361 383 362
f 362 383 382
f 362 382 381
f 362 381 363
f 364 386 365
f 365 386 385
f 365 385 416
f 365 416 366
f 368 413 370
f 368 370 369
f 370 412 371
f 371 412 411
f 371 411 407
f 371 407 417
f 371 417 406
f 371 406 405
f 371 405 376
f 371 376 372
f 372 376 373
f 373 376 374
f 376 418 377
f 376 405 419
f 376 419 418
f 377 418 420
f 377 420 421
f 377 421 422
f 377 422 423
f 377 423 378
f 378 423 379
f 379 395 380
f 379 423 422
f 379 422 424
f 379 424 396
f 380 395 425
f 380 425 387
f 383 385 384
f 387 425 395
f 387 395 388
f 388 395 426
f 388 426 394
f 388 394 427
f 388 427 398
f 388 398 397
f 388 391 389
f 393 398 427
f 393 427 394
f 394 426 395
f 396 424 428
f 396 428 399
f 399 428 400
f 400 428 429
f 400 429 401
f 401 429 402
f 402 404 403
f 402 429 404
f 404 429 430
f 404 430 405
f 405 430 419
f 406 417 407
f 407 411 408
f 408 411 431
f 408 431 415
f 410 415 431
f 410 431 411
f 418 419 430
f 418 430 432
f 418 432 420
f 420 432 430
f 420 430 429
f 420 429 428
f 420 428 433
f 420 433 422
f 420 422 421
f 422 433 428
f 422 428 424

