# https://github.com/mikedh/trimesh
v 0.00038829 0.00509519 -0.00613970
v 0.00038829 0.00509519 -0.00694947
v -0.00042334 0.00509252 -0.00694947
v -0.00042334 0.00508719 0.00114333
v -0.00042334 0.00508186 0.00681175
v 0.00038829 0.00508186 0.00681175
v 0.00928886 0.00378632 -0.00047128
v 0.00038829 0.00492192 -0.00775925
v -0.00042334 0.00501522 -0.00775925
v 0.00928886 0.00376766 -0.00128105
v 0.00119688 0.00495924 -0.00694947
v -0.00123193 0.00495391 0.00681175
v -0.00123193 0.00491659 -0.00775925
v -0.00123193 0.00495391 -0.00694947
v -0.00042334 0.00500189 0.00762153
v -0.00123193 0.00491125 0.00762153
v 0.00038829 0.00490592 0.00762153
v 0.00119688 0.00495124 0.00681175
v 0.00982083 0.00369835 -0.00047128
v 0.00038829 0.00460470 -0.00823820
v -0.00042334 0.00470333 -0.00831062
v 0.00182308 0.00459670 -0.00751566
v 0.00113609 0.00468200 -0.00777571
v -0.00123193 0.00467134 -0.00832543
v 0.00976307 0.00367969 -0.00128105
v 0.00931622 0.00372501 -0.00202499
v 0.00906087 0.00371168 -0.00271297
v 0.00931622 0.00357573 -0.00294998
v -0.00204052 0.00468200 -0.00452180
v -0.00204052 0.00467934 0.00681175
v -0.00211043 0.00461803 0.00764786
v -0.00190069 0.00458071 -0.00826783
v -0.00244177 0.00446341 -0.00815591
v -0.00211955 0.00462069 -0.00783661
v -0.00204052 0.00468200 -0.00694947
v -0.00042334 0.00469267 0.00816632
v -0.00123193 0.00466601 0.00818113
v -0.00188853 0.00457804 0.00812517
v 0.00038829 0.00459670 0.00809554
v 0.00113912 0.00467667 0.00763634
v 0.00182308 0.00459403 0.00737629
v 0.01010049 0.00329050 0.00276124
v 0.01010049 0.00341312 0.00195311
v 0.00971139 0.00366103 0.00080757
v 0.00977219 0.00368236 0.00033356
v 0.01022816 0.00355440 -0.00047128
v -0.00042334 0.00406089 -0.00844887
v 0.00082906 0.00449540 -0.00817730
v 0.02312912 -0.01263985 -0.00750414
v 0.02312912 -0.01302104 -0.00758314
v 0.02312912 -0.01339424 -0.00765885
v 0.02312912 -0.01374612 -0.00772469
v -0.00123193 0.00406089 -0.00848508
v 0.01038623 0.00282666 -0.00405107
v 0.01089388 0.00230152 -0.00455307
v 0.01115530 0.00191499 -0.00484439
v 0.00970227 0.00365837 -0.00171227
v 0.01016432 0.00352508 -0.00128105
v 0.00960196 0.00362371 -0.00225212
v 0.01010049 0.00329316 -0.00290225
v 0.01063245 0.00290663 -0.00351122
v -0.00247825 0.00448474 -0.00371038
v -0.00247521 0.00448474 0.00681175
v -0.00246305 0.00447674 0.00739440
v -0.00242657 0.00444209 0.00793425
v -0.00211955 0.00414086 -0.00833860
v -0.00284911 0.00386629 -0.00822997
v -0.00246913 0.00447941 -0.00761606
v -0.00326556 0.00366903 -0.00817401
v -0.00334156 0.00373567 -0.00775925
v -0.00341147 0.00379698 -0.00694947
v -0.00247825 0.00448474 -0.00694947
v -0.00042334 0.00406089 0.00828811
v -0.00123193 0.00406089 0.00832926
v -0.00268800 0.00390361 0.00808896
v -0.00211043 0.00412753 0.00818278
v 0.02312912 -0.01294107 0.00752936
v 0.02312912 -0.01213069 0.00739604
v 0.00082906 0.00449540 0.00804123
v 0.01121002 0.00120857 0.00558393
v 0.01153528 0.00142183 0.00504408
v 0.01090908 0.00221621 0.00421784
v 0.01057774 0.00289597 0.00329121
v 0.01010049 0.00302393 0.00343605
v 0.01071757 0.00297861 0.00276124
v 0.01095467 0.00302659 0.00193994
v 0.01017648 0.00353041 0.00033356
v 0.01090908 0.00314388 0.00114169
v 0.01090908 0.00323985 0.00033356
v 0.01090908 0.00328250 -0.00047128
v 0.02312912 -0.01382609 -0.00773456
v 0.02313216 -0.01423128 -0.00777406
v 0.02313216 -0.01455916 -0.00780040
v 0.02305008 -0.01455916 -0.00780698
v 0.02312912 -0.01030468 -0.00647381
v 0.02312912 -0.01081916 -0.00677172
v 0.02312912 -0.01130965 -0.00704823
v 0.02312912 -0.01184546 -0.00731651
v 0.02312912 -0.01188545 -0.00733132
v 0.02312912 -0.01230663 -0.00743007
v 0.02348174 -0.00807880 -0.00047457
v -0.00123193 0.00325051 -0.00847521
v -0.00204052 0.00244280 -0.00843077
v -0.00204052 0.00325051 -0.00843900
v 0.02223845 -0.01455916 -0.00782673
v 0.01090604 0.00271470 -0.00375317
v 0.01146232 0.00218156 -0.00430619
v 0.02312912 -0.00923839 -0.00579077
v 0.02312912 -0.00945431 -0.00593726
v 0.02312912 -0.00962225 -0.00605082
v 0.01002145 0.00347710 -0.00202499
v 0.01090908 0.00320519 -0.00128105
v 0.01097291 0.00303192 -0.00212704
v 0.01078141 0.00297594 -0.00290225
v -0.00288255 0.00420484 -0.00209083
v -0.00287951 0.00420217 0.00681175
v -0.00341147 0.00379698 0.00681175
v -0.00335979 0.00374900 0.00746517
v -0.00412583 0.00293329 0.00732362
v -0.00284911 0.00325051 -0.00830074
v -0.00288255 0.00420217 -0.00694947
v -0.00426870 0.00244280 -0.00761606
v -0.00412583 0.00292796 -0.00748439
v -0.00331420 0.00325051 -0.00818553
v -0.00446933 0.00082204 -0.00783661
v -0.00451492 0.00161642 -0.00766379
v -0.00490706 0.00133386 -0.00742020
v -0.00381273 0.00337580 -0.00694947
v -0.00341147 0.00380231 -0.00209083
v -0.00381881 0.00337847 -0.00371038
v 0.02313216 -0.01455916 0.00769230
v 0.02305008 -0.01374612 0.00762976
v 0.02312912 -0.01374612 0.00762153
v 0.02312912 -0.01339424 0.00758203
v -0.00204052 0.00325051 0.00825684
v -0.00123193 0.00325051 0.00830786
v 0.01333181 -0.01050994 0.00791285
v 0.02305008 -0.01536688 0.00769724
v 0.02313216 -0.01536688 0.00769559
v 0.02305008 -0.01455916 0.00769559
v -0.00281263 0.00325051 0.00811365
v -0.00321692 0.00325051 0.00800667
v 0.02313216 -0.01423128 0.00766268
v 0.02345438 -0.00807880 0.00033356
v 0.02312912 -0.01162154 0.00726108
v 0.01043183 0.00036354 0.00638712
v 0.02312912 -0.01121902 0.00707016
v 0.02312912 -0.01081916 0.00682328
v 0.02312912 -0.01050194 0.00662248
v 0.02312912 -0.01031267 0.00646612
v 0.02312608 -0.01002211 0.00619126
v 0.02312912 -0.00985950 0.00600198
v 0.02312912 -0.00942499 0.00549834
v 0.02312912 -0.00905978 0.00506383
v 0.02312912 -0.00863860 0.00439395
v 0.01207636 0.00114726 0.00466552
v 0.01171463 0.00162442 0.00435610
v 0.01134985 0.00206426 0.00404667
v 0.01112186 0.00270937 0.00276124
v 0.01125562 0.00280534 0.00220328
v 0.01136505 0.00287198 0.00166508
v 0.01142585 0.00290397 0.00114169
v 0.01148056 0.00295995 0.00033356
v 0.01147144 0.00297861 -0.00047128
v 0.02313216 -0.01463647 -0.00780369
v 0.02313216 -0.01532423 -0.00779875
v 0.02313216 -0.01779535 0.00739275
v 0.02313216 -0.01830983 0.00724791
v 0.02313216 -0.01871502 0.00710472
v 0.02313216 -0.01941344 0.00674757
v 0.02313216 -0.01988261 0.00645460
v 0.02313216 -0.02033845 0.00596412
v 0.02313216 -0.02046373 0.00582752
v 0.02313216 -0.02079695 0.00540288
v 0.02313216 -0.02091158 0.00523829
v 0.02313216 -0.02135142 0.00444168
v 0.02313216 -0.02144472 0.00420138
v 0.02313216 -0.02152736 0.00396931
v 0.02313216 -0.02163665 0.00363026
v 0.02313216 -0.02184991 0.00275959
v 0.02313216 -0.02198586 0.00194982
v 0.02313216 -0.02206583 0.00114333
v 0.02313216 -0.02210582 0.00033027
v 0.02313216 -0.02213781 -0.00047128
v 0.02313216 -0.02210049 -0.00127941
v 0.02313216 -0.02200452 -0.00209412
v 0.02313216 -0.02186057 -0.00282489
v 0.02313216 -0.02184458 -0.00289896
v 0.02313216 -0.02159400 -0.00373506
v 0.02313216 -0.02145272 -0.00414160
v 0.02313216 -0.02133542 -0.00439013
v 0.02313216 -0.02127411 -0.00451357
v 0.02313216 -0.02089025 -0.00516205
v 0.02313216 -0.02084493 -0.00522623
v 0.02313216 -0.02057303 -0.00559162
v 0.02313216 -0.02054904 -0.00562289
v 0.02313216 -0.02020249 -0.00603765
v 0.02313216 -0.01981863 -0.00646723
v 0.02313216 -0.01977331 -0.00650838
v 0.02313216 -0.01937879 -0.00676020
v 0.02313216 -0.01857107 -0.00719965
v 0.02313216 -0.01822720 -0.00736753
v 0.02313216 -0.01792863 -0.00745970
v 0.02313216 -0.01785666 -0.00748109
v 0.02313216 -0.01706494 -0.00768354
v 0.02313216 -0.01698764 -0.00770000
v 0.02313216 -0.01674506 -0.00772633
v 0.02313216 -0.01617726 -0.00778558
v 0.02312912 -0.00904646 -0.00540234
v 0.02312912 -0.00874256 -0.00459257
v 0.02312912 -0.00871591 -0.00451357
v 0.02341790 -0.00807880 -0.00083831
v 0.01141065 0.00293329 -0.00128105
v 0.01188486 0.00260807 0.00033356
v -0.00123193 0.00244280 -0.00845875
v 0.02223845 -0.01532423 -0.00781521
v 0.02143290 -0.01532423 -0.00782673
v -0.00204052 0.00163242 -0.00840114
v -0.00284911 0.00082204 -0.00827441
v -0.00284911 0.00163242 -0.00829416
v -0.00284911 0.00244280 -0.00830404
v 0.01118570 0.00277601 -0.00290225
v 0.01156264 0.00229085 -0.00371202
v 0.01135593 0.00288264 -0.00188180
v 0.01128297 0.00282933 -0.00242165
v -0.00341147 0.00380231 -0.00128105
v -0.00381881 0.00338113 0.00681175
v -0.00415927 0.00297861 0.00681175
v -0.00447237 0.00244280 0.00681175
v -0.00490098 0.00131786 0.00725943
v -0.00426870 0.00244280 0.00743719
v -0.00336891 0.00244280 -0.00819541
v -0.00478851 0.00179236 -0.00694947
v -0.00447541 0.00244280 -0.00694947
v -0.00415623 0.00297061 -0.00694947
v -0.00378233 0.00163242 -0.00809501
v -0.00446933 0.00001433 -0.00787281
v -0.00498913 0.00001433 -0.00752883
v -0.00495874 0.00082204 -0.00749262
v -0.00733283 -0.00517050 -0.00335487
v -0.00743618 -0.00500256 -0.00290060
v -0.00750002 -0.00477064 -0.00214843
v -0.00381881 0.00338113 0.00438243
v -0.00415927 0.00297594 0.00033356
v -0.00415927 0.00297861 0.00438243
v -0.00204052 0.00163242 0.00820417
v -0.00123193 0.00082204 0.00823051
v -0.00123193 0.00244280 0.00828317
v -0.00279135 0.00244280 0.00809719
v -0.00274575 0.00163242 0.00808238
v 0.01333181 -0.01132031 0.00785689
v 0.01414040 -0.01130965 0.00787170
v 0.02223845 -0.01617726 0.00765445
v 0.02305008 -0.01617726 0.00766268
v 0.02313216 -0.01617726 0.00766268
v 0.00119688 -0.00403224 0.00808402
v 0.00201155 -0.00519182 0.00804288
v 0.00201155 -0.00534644 0.00803629
v -0.00319565 0.00244280 0.00801490
v -0.00315309 0.00163242 0.00800667
v -0.00450884 0.00160576 0.00746517
v -0.00494962 0.00082204 0.00731375
v -0.00446933 0.00082204 0.00759684
v -0.00446933 0.00001433 0.00762976
v -0.00366074 0.00163242 0.00788322
v 0.02312912 -0.00835603 0.00362039
v 0.02312912 -0.00861194 0.00433635
v 0.02313216 -0.01698764 0.00757544
v 0.01183014 0.00263206 0.00114169
v 0.01226787 0.00222687 0.00114169
v 0.01201861 0.00194164 0.00293570
v 0.01146536 0.00215223 0.00357266
v 0.01173895 0.00226153 0.00270528
v 0.01166903 0.00257875 0.00193994
v 0.02305008 -0.01617726 -0.00778723
v 0.02305008 -0.01779535 0.00739111
v 0.02183416 -0.01820054 0.00721335
v 0.02305008 -0.01941344 0.00673934
v 0.02129307 -0.01814456 0.00719854
v 0.02305008 -0.01987461 0.00644801
v 0.02302880 -0.02033578 0.00594602
v 0.02274914 -0.02060502 0.00556582
v 0.02302880 -0.02087959 0.00525475
v 0.02223845 -0.02081828 0.00507535
v 0.02142986 -0.02070898 0.00491734
v 0.02223845 -0.02117015 0.00438079
v 0.02297713 -0.02134076 0.00438572
v 0.02266099 -0.02143406 0.00396602
v 0.02297713 -0.02159933 0.00364508
v 0.02223845 -0.02150870 0.00340148
v 0.02177336 -0.02145538 0.00322208
v 0.02223845 -0.02164731 0.00275959
v 0.02223845 -0.02177260 0.00194982
v 0.02088878 -0.02147138 0.00178852
v 0.02305008 -0.02204717 0.00114333
v 0.02104077 -0.02143406 0.00232508
v 0.02028993 -0.02142073 0.00033027
v 0.02305008 -0.02208183 -0.00127941
v 0.02026865 -0.02142606 -0.00047128
v 0.02223845 -0.02178860 -0.00208918
v 0.02101341 -0.02143939 -0.00250394
v 0.02305008 -0.02182592 -0.00289896
v 0.02239956 -0.02149803 -0.00348818
v 0.02217462 -0.02135942 -0.00373836
v 0.02276738 -0.02140740 -0.00402639
v 0.02062127 -0.02073564 -0.00436050
v 0.02138123 -0.02082894 -0.00458763
v 0.02107725 -0.02061568 -0.00490200
v 0.02161833 -0.02067699 -0.00499087
v 0.02223845 -0.02074897 -0.00508798
v 0.02305008 -0.02083960 -0.00520978
v 0.02305008 -0.02053837 -0.00561631
v 0.02223845 -0.02004522 -0.00602120
v 0.02305008 -0.02013319 -0.00610020
v 0.02223845 -0.01968001 -0.00642279
v 0.02305008 -0.01976798 -0.00650179
v 0.02305008 -0.01936546 -0.00675855
v 0.02223845 -0.01860573 -0.00707621
v 0.02270962 -0.01818454 -0.00734778
v 0.02062127 -0.01698764 -0.00756833
v 0.02142986 -0.01698764 -0.00762922
v 0.02223845 -0.01698764 -0.00767531
v 0.02305008 -0.01698764 -0.00770000
v 0.02280994 -0.01674506 -0.00772798
v 0.02223845 -0.01617726 -0.00779217
v 0.02313216 -0.00853730 -0.00384534
v 0.02331455 -0.00807880 -0.00128270
v -0.00123193 0.00163242 -0.00841596
v 0.02062127 -0.01532423 -0.00783496
v 0.02057872 -0.01532423 -0.00783496
v 0.01977013 -0.01532423 -0.00782344
v -0.00231106 -0.00196364 -0.00816084
v -0.00257552 -0.00142516 -0.00818060
v -0.00273663 -0.00079605 -0.00820528
v -0.00291902 0.00001166 -0.00822833
v 0.00147350 -0.00365637 -0.00816743
v 0.00093546 -0.00355774 -0.00816084
v -0.00329292 0.00001166 -0.00817237
v -0.00331420 0.00018493 -0.00817566
v -0.00354218 0.00000900 -0.00813122
v -0.00335979 0.00082204 -0.00818553
v -0.00337803 0.00163242 -0.00819376
v -0.00447541 0.00244280 0.00600198
v -0.00478243 0.00177104 0.00600198
v -0.00477939 0.00176837 0.00681175
v -0.00739666 -0.00423483 0.00195311
v -0.00734803 -0.00433346 0.00276124
v -0.00730243 -0.00442943 0.00316942
v -0.00651816 -0.00276602 0.00482847
v -0.00568221 -0.00119591 0.00640851
v -0.00376409 0.00082204 -0.00810324
v -0.00739058 -0.00424816 -0.00128270
v -0.00739666 -0.00417619 -0.00047292
v -0.00723251 -0.00377100 -0.00047292
v -0.00723251 -0.00376833 0.00033191
v -0.00446933 0.00001166 -0.00787281
v -0.00501041 -0.00079605 -0.00751895
v -0.00566701 -0.00241414 -0.00644583
v -0.00733587 -0.00519449 -0.00335322
v -0.00743618 -0.00544507 -0.00290060
v -0.00746050 -0.00519182 -0.00261586
v -0.00746050 -0.00519449 -0.00261586
v -0.00757297 -0.00484262 -0.00128270
v -0.00308013 0.00082204 0.00799679
v -0.00204052 0.00082204 0.00817455
v -0.00123193 0.00001166 0.00819430
v -0.00122889 0.00000900 0.00819430
v 0.01494899 -0.01294107 0.00777130
v 0.02142986 -0.01617726 0.00763140
v 0.02305008 -0.01674506 0.00760178
v 0.01981268 -0.01536688 0.00767420
v 0.01900105 -0.01536688 0.00765445
v 0.00058588 -0.00403224 0.00805769
v 0.00127288 -0.00479996 0.00804452
v 0.00160422 -0.00525314 0.00802642
v 0.01576062 -0.01374612 0.00771534
v -0.00366074 0.00082204 0.00787335
v -0.00366074 0.00001433 0.00784866
v -0.00498305 0.00001433 0.00734831
v -0.00446933 0.00001166 0.00762976
v 0.01220708 0.00213624 0.00195311
v 0.01213716 0.00205094 0.00239750
v 0.01981268 -0.01617726 0.00757215
v 0.02223845 -0.01698764 0.00754088
v 0.02142986 -0.01698764 0.00749480
v 0.02150890 -0.01784067 0.00728741
v 0.02150890 -0.01852309 0.00701749
v 0.02062127 -0.01860573 0.00683973
v 0.02231141 -0.01945076 0.00659614
v 0.02062127 -0.01698764 0.00744213
v 0.02062127 -0.01763541 0.00727754
v 0.01981268 -0.01748079 0.00723968
v 0.01938103 -0.01740082 0.00721829
v 0.02062127 -0.01803793 0.00715739
v 0.02262451 -0.01982396 0.00640687
v 0.02231141 -0.02007721 0.00604148
v 0.02142986 -0.02003189 0.00584233
v 0.02223845 -0.02054104 0.00548024
v 0.02142986 -0.02043708 0.00532223
v 0.02095869 -0.02064767 0.00481365
v 0.02223845 -0.02138607 0.00380802
v 0.02142986 -0.02096222 0.00438079
v 0.02147242 -0.02127945 0.00352328
v 0.02062127 -0.02101820 0.00357101
v 0.02062127 -0.02122613 0.00275959
v 0.02119276 -0.02139407 0.00275959
v 0.02160009 -0.02149537 0.00275959
v 0.02061823 -0.02137008 0.00201565
v 0.02037201 -0.02139940 0.00114333
v 0.01981268 -0.02114882 0.00194982
v 0.01981268 -0.02129011 0.00033027
v 0.02223845 -0.02187923 -0.00127941
v 0.02142986 -0.02159133 -0.00208918
v 0.02142986 -0.02167397 -0.00127941
v 0.01981268 -0.02129544 -0.00047128
v 0.02035985 -0.02139940 -0.00127941
v 0.02092526 -0.02146338 -0.00208918
v 0.02052096 -0.02135942 -0.00208918
v 0.01981268 -0.02114882 -0.00208918
v 0.01981268 -0.02098622 -0.00289896
v 0.02069727 -0.02126878 -0.00282325
v 0.02186152 -0.02143139 -0.00327916
v 0.02142986 -0.02118614 -0.00371038
v 0.02062127 -0.02097555 -0.00371038
v 0.02011362 -0.02066100 -0.00419591
v 0.02062127 -0.02055170 -0.00476539
v 0.02138123 -0.02040775 -0.00528878
v 0.01860588 -0.01981596 -0.00491845
v 0.01981268 -0.02001856 -0.00519990
v 0.02057568 -0.02011986 -0.00539576
v 0.02081582 -0.01987994 -0.00581546
v 0.02223845 -0.02045041 -0.00549287
v 0.02142986 -0.01995458 -0.00591751
v 0.02142986 -0.01958671 -0.00632239
v 0.02017746 -0.01902425 -0.00655446
v 0.02062127 -0.01908023 -0.00659232
v 0.02142986 -0.01918152 -0.00664992
v 0.02223845 -0.01927749 -0.00670424
v 0.02142986 -0.01860573 -0.00696922
v 0.01949958 -0.01736617 -0.00734449
v 0.01978533 -0.01705161 -0.00747286
v 0.01981268 -0.01617726 -0.00771152
v 0.02062127 -0.01617726 -0.00776583
v 0.02142986 -0.01617726 -0.00778723
v 0.01895850 -0.01532423 -0.00778065
v -0.00182773 -0.00343245 -0.00791396
v -0.00203748 -0.00322452 -0.00792713
v -0.00279743 -0.00246479 -0.00796005
v -0.00284607 -0.00241414 -0.00796169
v -0.00284607 -0.00165975 -0.00812134
v -0.00122889 -0.00322452 -0.00805057
v -0.00122889 -0.00343245 -0.00800613
v -0.00314093 -0.00079605 -0.00814932
v -0.00291902 -0.00004699 -0.00822503
v -0.00323516 -0.00035354 -0.00816084
v -0.00365770 -0.00079605 -0.00806867
v -0.00361514 -0.00004699 -0.00811476
v -0.00362426 0.00000900 -0.00811476
v -0.00739970 -0.00417352 0.00033191
v -0.00739970 -0.00420817 0.00114333
v -0.00751522 -0.00484262 0.00033191
v -0.00747874 -0.00484262 0.00114333
v -0.00734803 -0.00456271 0.00276124
v -0.00730243 -0.00444276 0.00316942
v -0.00651816 -0.00291797 0.00482847
v -0.00568221 -0.00131587 0.00640851
v -0.00499825 -0.00079605 0.00733185
v -0.00446629 -0.00079605 -0.00784154
v -0.00560926 -0.00322452 -0.00638329
v -0.00496482 -0.00160377 -0.00743995
v -0.00733587 -0.00530645 -0.00335322
v -0.00747874 -0.00569831 -0.00205626
v -0.00754561 -0.00565566 -0.00128270
v -0.00708052 -0.00585026 -0.00290060
v -0.00721428 -0.00599421 -0.00230150
v -0.00732371 -0.00608217 -0.00176165
v -0.00753042 -0.00565566 -0.00047292
v -0.00753954 -0.00519449 -0.00047292
v -0.00752434 -0.00519182 -0.00001372
v -0.00256641 0.00025424 0.00804617
v -0.00209827 0.00001166 0.00809390
v 0.00073787 -0.00450140 0.00803629
v 0.01819246 -0.01536688 0.00761988
v 0.01657225 -0.01455916 0.00765116
v 0.00201155 -0.00646870 0.00787006
v 0.00201155 -0.00575163 0.00798362
v 0.00201155 -0.00568232 0.00799350
v 0.00444036 -0.00727642 0.00792273
v 0.00128504 -0.00557569 0.00792602
v -0.00365770 -0.00079605 0.00774003
v -0.00446629 -0.00079605 0.00757051
v -0.00498305 0.00001166 0.00734831
v 0.01900105 -0.01617726 0.00752442
v 0.01981268 -0.01788598 0.00706522
v 0.01983092 -0.01864305 0.00662742
v 0.02011362 -0.01904557 0.00643320
v 0.02062127 -0.01912288 0.00649081
v 0.02142986 -0.01924283 0.00657475
v 0.01981268 -0.01698764 0.00737958
v 0.01819246 -0.01617726 0.00743884
v 0.01740515 -0.01621191 0.00732033
v 0.01545359 -0.01572408 0.00719854
v 0.01883994 -0.01728353 0.00717220
v 0.02208646 -0.01974666 0.00633774
v 0.02142986 -0.01964802 0.00624722
v 0.02062127 -0.01991726 0.00571560
v 0.02013490 -0.01984529 0.00562836
v 0.02066383 -0.02034644 0.00512637
v 0.01984004 -0.02003722 0.00522183
v 0.01900105 -0.01993592 0.00495520
v 0.02042065 -0.02056770 0.00464413
v 0.02066383 -0.02074897 0.00437749
v 0.02005891 -0.02067699 0.00410263
v 0.01951782 -0.02059169 0.00384587
v 0.01928376 -0.02066633 0.00330602
v 0.01981268 -0.02097822 0.00275959
v 0.01981268 -0.02124213 0.00114333
v 0.01901017 -0.02072231 0.00271021
v 0.01856940 -0.02063967 0.00240737
v 0.01900105 -0.02087692 0.00194982
v 0.01900105 -0.02097822 0.00114333
v 0.01900105 -0.02102620 0.00033027
v 0.01981268 -0.02123679 -0.00127941
v 0.01900105 -0.02102620 -0.00047128
v 0.01900105 -0.02096222 -0.00127941
v 0.01900105 -0.02087159 -0.00208918
v 0.01854812 -0.02064500 -0.00255990
v 0.01983092 -0.02074364 -0.00369227
v 0.01902233 -0.02072764 -0.00285781
v 0.01876395 -0.02057036 -0.00309975
v 0.01929896 -0.02066366 -0.00341247
v 0.01957558 -0.02057303 -0.00395068
v 0.01769090 -0.01985595 -0.00419756
v 0.01818943 -0.01994125 -0.00437367
v 0.01983092 -0.02043175 -0.00448723
v 0.01981268 -0.01972533 -0.00560479
v 0.01818943 -0.01974399 -0.00478185
v 0.01681239 -0.01908822 -0.00503202
v 0.01738083 -0.01920018 -0.00518015
v 0.01815599 -0.01931481 -0.00538918
v 0.02027474 -0.01979997 -0.00571012
v 0.01846301 -0.01825652 -0.00658244
v 0.01819246 -0.01784067 -0.00679147
v 0.01900105 -0.01779535 -0.00702683
v 0.01900105 -0.01727553 -0.00731157
v 0.02062127 -0.01860573 -0.00685731
v 0.01987044 -0.01926416 -0.00616933
v 0.01900105 -0.01918152 -0.00593396
v 0.01657528 -0.01835248 -0.00588459
v 0.01738083 -0.01802194 -0.00641785
v 0.01792192 -0.01814189 -0.00650015
v 0.01900105 -0.01687034 -0.00744159
v 0.01900105 -0.01674506 -0.00747616
v 0.01900105 -0.01617726 -0.00762099
v 0.01814687 -0.01532423 -0.00770493
v -0.00123193 -0.00403224 -0.00787446
v -0.00204052 -0.00343245 -0.00786623
v -0.00041726 -0.00565566 -0.00761441
v -0.00088539 -0.00519182 -0.00763745
v -0.00263936 -0.00343245 -0.00769341
v -0.00284607 -0.00246479 -0.00794523
v -0.00123193 -0.00484262 -0.00765391
v -0.00204052 -0.00403224 -0.00768025
v -0.00365770 -0.00241414 -0.00770164
v -0.00365770 -0.00160377 -0.00794523
v 0.00041869 -0.00568232 -0.00773621
v -0.00006768 -0.00519182 -0.00778065
v -0.00042334 -0.00484262 -0.00781027
v -0.00740274 -0.00485861 0.00195311
v -0.00736019 -0.00519449 0.00175889
v -0.00734195 -0.00532511 0.00168154
v -0.00727811 -0.00519449 0.00207490
v -0.00715044 -0.00497057 0.00276124
v -0.00661239 -0.00542641 0.00340642
v -0.00647864 -0.00519716 0.00394627
v -0.00647560 -0.00519182 0.00395286
v -0.00559102 -0.00241414 0.00629495
v -0.00567917 -0.00185434 0.00639699
v -0.00496482 -0.00144382 0.00728577
v -0.00446629 -0.00160377 -0.00767695
v -0.00574605 -0.00454405 -0.00581217
v -0.00520496 -0.00322452 -0.00675032
v -0.00488882 -0.00203028 -0.00736259
v -0.00658503 -0.00541308 -0.00422883
v -0.00641481 -0.00595422 -0.00395890
v -0.00736627 -0.00613549 -0.00128270
v -0.00738451 -0.00617814 -0.00047292
v -0.00655160 -0.00609817 -0.00341905
v -0.00667623 -0.00617014 -0.00290060
v 0.00316668 -0.01257587 -0.00260105
v -0.00656072 -0.00691655 -0.00025238
v -0.00734803 -0.00613549 0.00011136
v -0.00742098 -0.00569565 0.00035989
v -0.00738147 -0.00545840 0.00114169
v 0.00041565 -0.00519182 0.00783549
v 0.00039133 -0.00565566 0.00774168
v 0.01738083 -0.01536688 0.00755899
v 0.00282622 -0.00646870 0.00793589
v 0.01576062 -0.01455916 0.00756721
v 0.00122728 -0.00617281 0.00778941
v 0.00120296 -0.00646870 0.00772193
v 0.00201459 -0.00727642 0.00762153
v 0.00282622 -0.00727642 0.00776307
v 0.01657225 -0.01536688 0.00746352
v 0.01657225 -0.01532423 0.00747505
v -0.00453316 -0.00167041 0.00737465
v -0.00041726 -0.00565566 0.00755899
v -0.00041726 -0.00519182 0.00764786
v 0.01906793 -0.01772071 0.00697963
v 0.01900105 -0.01841113 0.00654348
v 0.01957558 -0.01893894 0.00635091
v 0.01815903 -0.01785399 0.00666692
v 0.01985220 -0.01940278 0.00598881
v 0.02062127 -0.01952807 0.00611884
v 0.01542624 -0.01532423 0.00730881
v 0.01495203 -0.01558547 0.00714587
v 0.01573934 -0.01613461 0.00704876
v 0.01657225 -0.01637452 0.00712447
v 0.01818943 -0.01713425 0.00709978
v 0.01900105 -0.01923750 0.00584233
v 0.01959078 -0.01975732 0.00551151
v 0.01900105 -0.01964269 0.00536173
v 0.01852988 -0.01984795 0.00482517
v 0.01980052 -0.02048506 0.00437749
v 0.01900105 -0.02022382 0.00438079
v 0.01759970 -0.01987994 0.00409440
v 0.01818943 -0.02024248 0.00357101
v 0.01706165 -0.01978664 0.00384587
v 0.01874571 -0.02058103 0.00294558
v 0.01735044 -0.01995458 0.00357430
v 0.01690966 -0.01984795 0.00330602
v 0.01738083 -0.02013052 0.00275959
v 0.01805567 -0.02052505 0.00194982
v 0.01832014 -0.02073031 0.00114333
v 0.01738083 -0.02038376 0.00114333
v 0.01826238 -0.02075430 0.00033027
v 0.01738083 -0.02042375 0.00033027
v 0.01828670 -0.02075163 -0.00047128
v 0.01835357 -0.02072231 -0.00127941
v 0.01738083 -0.02028513 -0.00208918
v 0.01805263 -0.02053304 -0.00208918
v 0.01824414 -0.02045574 -0.00285781
v 0.01738083 -0.02014118 -0.00289896
v 0.01818943 -0.02018917 -0.00371038
v 0.01740515 -0.01992259 -0.00366758
v 0.01714981 -0.01975199 -0.00390788
v 0.01656009 -0.01922684 -0.00453826
v 0.01740515 -0.01960537 -0.00448723
v 0.01786113 -0.01898159 -0.00569860
v 0.01627738 -0.01895760 -0.00481970
v 0.01577885 -0.01841113 -0.00532828
v 0.01605852 -0.01825385 -0.00578913
v 0.01738083 -0.01889896 -0.00558504
v 0.01818943 -0.01710493 -0.00722763
v 0.01738083 -0.01761675 -0.00669436
v 0.01774865 -0.01659844 -0.00735930
v 0.01825326 -0.01674506 -0.00738399
v 0.01840525 -0.01674506 -0.00740538
v 0.01840221 -0.01907489 -0.00581217
v 0.01654793 -0.01776869 -0.00632239
v 0.01819246 -0.01669974 -0.00739057
v 0.01819246 -0.01617726 -0.00751895
v -0.00042334 -0.00519182 -0.00772798
v -0.00038990 -0.00568232 -0.00761276
v -0.00084891 -0.00607951 -0.00736424
v -0.00119545 -0.00519182 -0.00755351
v -0.00115897 -0.00559435 -0.00743501
v -0.00157239 -0.00519182 -0.00743666
v -0.00283391 -0.00343245 -0.00762593
v -0.00360602 -0.00246479 -0.00770164
v -0.00248737 -0.00448008 -0.00736917
v -0.00329900 -0.00367503 -0.00737082
v -0.00360298 -0.00397892 -0.00715027
v -0.00453316 -0.00409621 -0.00677007
v -0.00444805 -0.00343245 -0.00704164
v -0.00469427 -0.00246479 -0.00728853
v 0.00120296 -0.00646870 -0.00764239
v -0.00727203 -0.00599154 0.00065121
v -0.00705621 -0.00561834 0.00194982
v -0.00671879 -0.00567965 0.00274313
v -0.00701669 -0.00519449 0.00275465
v -0.00641481 -0.00596755 0.00299989
v -0.00630233 -0.00567965 0.00363355
v -0.00573085 -0.00609017 0.00403844
v -0.00588892 -0.00561567 0.00433799
v -0.00572477 -0.00531978 0.00483669
v -0.00491922 -0.00372834 0.00645460
v -0.00497698 -0.00343245 0.00652208
v -0.00518976 -0.00241414 0.00672617
v -0.00484626 -0.00198230 0.00720677
v -0.00515936 -0.00343245 -0.00671576
v -0.00506209 -0.00386696 -0.00663840
v -0.00484018 -0.00440544 -0.00653142
v -0.00550286 -0.00508253 -0.00562125
v -0.00582508 -0.00545573 -0.00508140
v -0.00611994 -0.00570364 -0.00454484
v -0.00560622 -0.00599421 -0.00486085
v -0.00587372 -0.00617014 -0.00432100
v -0.00656072 -0.00691655 0.00008668
v 0.00382632 -0.01263985 -0.00351452
v 0.00349802 -0.01263985 -0.00298125
v 0.00333083 -0.01263985 -0.00270639
v 0.00483858 -0.01335159 -0.00331701
v 0.00432789 -0.01317566 -0.00290060
v 0.00470178 -0.01339424 -0.00290060
v 0.00457411 -0.01350354 -0.00209083
v 0.00416982 -0.01326896 -0.00209083
v 0.00363177 -0.01295174 -0.00209083
v 0.00308156 -0.01262385 -0.00209083
v -0.00002816 -0.01092845 -0.00090250
v -0.00025311 -0.01081916 -0.00046963
v -0.00691637 -0.00648470 0.00036977
v -0.00653032 -0.00610084 0.00246004
v 0.00039133 -0.00568232 0.00773509
v -0.00096442 -0.00617281 0.00726931
v 0.00039133 -0.00646870 0.00751784
v 0.00119080 -0.00731640 0.00739604
v 0.00201459 -0.00792685 0.00733185
v -0.00312269 -0.00425083 0.00717879
v -0.00258464 -0.00459204 0.00724627
v -0.00206484 -0.00485328 0.00732033
v -0.00190677 -0.00519182 0.00728577
v -0.00181253 -0.00538909 0.00726602
v -0.00121369 -0.00568232 0.00734173
v 0.01840829 -0.01828051 0.00645954
v 0.01738083 -0.01764873 0.00657968
v 0.01787024 -0.01816055 0.00637724
v 0.01738083 -0.01805392 0.00629330
v 0.01900105 -0.01881632 0.00624557
v 0.01650233 -0.01706228 0.00670477
v 0.01576366 -0.01688367 0.00661425
v 0.01416472 -0.01532423 0.00704712
v 0.01495203 -0.01617726 0.00682163
v 0.00247664 -0.00846000 0.00720018
v 0.00201155 -0.00832938 0.00713435
v 0.01657528 -0.01833382 0.00573864
v 0.01835661 -0.01910688 0.00570737
v 0.01781857 -0.01899492 0.00557570
v 0.01608588 -0.01823519 0.00563495
v 0.01554479 -0.01812057 0.00546542
v 0.01682759 -0.01907489 0.00487784
v 0.01735044 -0.01962137 0.00437256
v 0.01656617 -0.01925083 0.00440547
v 0.01597036 -0.01910955 0.00415365
v 0.01543536 -0.01897093 0.00386892
v 0.01524385 -0.01906423 0.00332742
v 0.01680023 -0.01989594 0.00275959
v 0.01510706 -0.01912554 0.00275959
v 0.01576366 -0.01942677 0.00275959
v 0.01639898 -0.01971733 0.00275959
v 0.01738083 -0.02026647 0.00194982
v 0.01655097 -0.01993592 0.00186917
v 0.01657528 -0.02005055 0.00114333
v 0.01657528 -0.02009320 0.00033027
v 0.01738083 -0.02038909 -0.00047128
v 0.01738083 -0.02034111 -0.00127941
v 0.01794928 -0.02056503 -0.00127941
v 0.01678807 -0.01990660 -0.00289896
v 0.01616795 -0.01981863 -0.00168923
v 0.01653273 -0.01994392 -0.00201018
v 0.01623179 -0.01978664 -0.00222908
v 0.01693094 -0.01983996 -0.00336968
v 0.01662392 -0.01960271 -0.00366758
v 0.01600076 -0.01908822 -0.00427985
v 0.01276640 -0.01747546 -0.00428479
v 0.01465412 -0.01814722 -0.00482135
v 0.01519217 -0.01828051 -0.00506000
v 0.01357803 -0.01747280 -0.00504848
v 0.01552047 -0.01810724 -0.00559985
v 0.01446262 -0.01743548 -0.00577596
v 0.01495203 -0.01755543 -0.00587800
v 0.01577885 -0.01781934 -0.00599980
v 0.01743859 -0.01691566 -0.00712394
v 0.01720757 -0.01643317 -0.00730663
v 0.01680023 -0.01748079 -0.00659890
v 0.01654793 -0.01703828 -0.00679641
v 0.00065275 -0.00694587 -0.00740045
v 0.00038525 -0.00649803 -0.00750249
v 0.01494595 -0.01695298 -0.00630923
v 0.01576366 -0.01720889 -0.00642608
v 0.01626219 -0.01733951 -0.00651002
v -0.00041726 -0.00617281 -0.00744488
v -0.00041726 -0.00621813 -0.00742843
v 0.00011471 -0.00678859 -0.00730498
v -0.00042638 -0.00661798 -0.00719800
v -0.00105866 -0.00702317 -0.00665322
v -0.00137480 -0.00661798 -0.00677830
v -0.00250257 -0.00610350 -0.00657257
v -0.00340539 -0.00535976 -0.00661371
v -0.00185813 -0.00519182 -0.00733296
v -0.00172742 -0.00519182 -0.00738070
v -0.00541471 -0.00585825 0.00457829
v -0.00586156 -0.00617814 0.00357101
v -0.00000688 -0.01010475 0.00396931
v -0.00075164 -0.00925438 0.00469844
v -0.00519888 -0.00561567 0.00496672
v -0.00484626 -0.00522648 0.00557570
v -0.00475203 -0.00426682 0.00632622
v -0.00447541 -0.00401091 0.00662742
v -0.00442069 -0.00343245 0.00687430
v -0.00361210 -0.00400291 0.00706193
v -0.00383401 -0.00343245 0.00715739
v -0.00384616 -0.00519449 -0.00650673
v -0.00392520 -0.00519449 -0.00646558
v -0.00453316 -0.00486661 -0.00636848
v -0.00496482 -0.00531978 -0.00578748
v -0.00503777 -0.00519449 -0.00583357
v -0.00525664 -0.00519449 -0.00569696
v -0.00546334 -0.00519449 -0.00556693
v -0.00528400 -0.00565566 -0.00532993
v -0.00460612 -0.00585825 -0.00557845
v -0.00371241 -0.00617281 -0.00585825
v -0.00371241 -0.00619414 -0.00584015
v -0.00263024 -0.00695653 -0.00584179
v 0.00078043 -0.00931303 -0.00574140
v 0.00231553 -0.01097910 -0.00500404
v 0.00385368 -0.01263985 -0.00355237
v -0.00023791 -0.01081916 0.00032698
v -0.00001600 -0.01092046 0.00075490
v 0.00156774 -0.01175216 0.00167989
v 0.00200547 -0.01196808 0.00200084
v 0.00164677 -0.01169885 0.00221974
v 0.00223954 -0.01196808 0.00276288
v -0.00644824 -0.00683391 0.00062653
v 0.00406646 -0.01251989 -0.00407905
v 0.00964756 -0.01579872 -0.00416299
v 0.01222836 -0.01733951 -0.00394903
v 0.01206725 -0.01742481 -0.00341083
v 0.00883289 -0.01580406 -0.00259447
v 0.00562589 -0.01416997 -0.00176165
v 0.00179572 -0.01196808 -0.00127941
v 0.00299341 -0.01267183 -0.00127941
v 0.00449508 -0.01355152 -0.00127941
v 0.00169845 -0.01196808 -0.00047128
v -0.00005248 -0.01094178 -0.00046799
v -0.00004336 -0.01093912 0.00032698
v -0.00632665 -0.00674327 0.00114169
v -0.00095835 -0.00618081 0.00726766
v -0.00005552 -0.00689789 0.00722652
v -0.00036254 -0.00645538 0.00732527
v -0.00235666 -0.00513051 0.00718208
v -0.00232626 -0.00519449 0.00716233
v -0.00150247 -0.00592756 0.00714587
v 0.00045213 -0.00706316 0.00730058
v 0.00091418 -0.00761230 0.00718372
v 0.01576366 -0.01728620 0.00633280
v 0.01495203 -0.01710226 0.00619126
v 0.01495203 -0.01758476 0.00578472
v 0.01516481 -0.01674506 0.00651879
v 0.01495203 -0.01669707 0.00648258
v 0.00125768 -0.00807880 0.00703889
v 0.01285760 -0.01532423 0.00663400
v 0.01252930 -0.01523359 0.00657968
v 0.01421335 -0.01617726 0.00657968
v 0.01452341 -0.01659311 0.00641016
v 0.01441398 -0.01745947 0.00566787
v 0.01628954 -0.01895760 0.00469186
v 0.01519217 -0.01828584 0.00492886
v 0.01465109 -0.01814722 0.00468692
v 0.01304910 -0.01733151 0.00466552
v 0.01438054 -0.01828851 0.00414872
v 0.01384553 -0.01814722 0.00382777
v 0.01365707 -0.01824586 0.00328792
v 0.01496723 -0.01882698 0.00358747
v 0.01121002 -0.01663843 0.00410263
v 0.01309470 -0.01811523 0.00275959
v 0.01350204 -0.01832583 0.00275959
v 0.01414648 -0.01865371 0.00275959
v 0.01470276 -0.01893095 0.00275959
v 0.01459637 -0.01898693 0.00217530
v 0.01584269 -0.01961604 0.00186917
v 0.01616795 -0.01981863 0.00154493
v 0.01611931 -0.01984262 0.00114333
v 0.01605852 -0.01986928 0.00033027
v 0.01657528 -0.02005854 -0.00047128
v 0.01567550 -0.01968534 -0.00047128
v 0.01608284 -0.01985595 -0.00047128
v 0.01657528 -0.02001056 -0.00127941
v 0.01638378 -0.01971733 -0.00289896
v 0.01526513 -0.01905090 -0.00342893
v 0.01573326 -0.01965602 -0.00127941
v 0.01495203 -0.01930148 -0.00127941
v 0.01576366 -0.01942677 -0.00289896
v 0.01444742 -0.01906157 -0.00127941
v 0.01490643 -0.01917086 -0.00206614
v 0.01460245 -0.01898159 -0.00231960
v 0.01414648 -0.01865371 -0.00289896
v 0.01574542 -0.01918152 -0.00370379
v 0.01546271 -0.01895760 -0.00396878
v 0.01384553 -0.01814989 -0.00399841
v 0.01303695 -0.01733684 -0.00482299
v 0.01362059 -0.01826452 -0.00345691
v 0.01171463 -0.01679570 -0.00451686
v 0.01251106 -0.01720889 -0.00453826
v 0.01198213 -0.01665975 -0.00503367
v 0.01257489 -0.01677438 -0.00531511
v 0.01288191 -0.01660910 -0.00575785
v 0.01335005 -0.01613461 -0.00628125
v 0.01310686 -0.01532423 -0.00672234
v 0.01174807 -0.01457782 -0.00672893
v 0.01252930 -0.01455916 -0.00695112
v 0.01466932 -0.01651847 -0.00650179
v 0.01576366 -0.01680370 -0.00668449
v 0.01414952 -0.01597466 -0.00667132
v 0.01252930 -0.01514029 -0.00665322
v 0.01084220 -0.01423128 -0.00663511
v 0.01204293 -0.01500967 -0.00657586
v 0.01073885 -0.01423128 -0.00659561
v 0.01049870 -0.01415931 -0.00654788
v 0.01131641 -0.01576940 -0.00573152
v -0.00159975 -0.00684457 -0.00652648
v -0.00078204 -0.00846266 0.00556911
v 0.00010559 -0.00841735 0.00632457
v -0.00577644 -0.00692454 0.00169800
v 0.00229425 -0.01181081 0.00334223
v 0.00278062 -0.01200274 0.00359734
v 0.00150390 -0.01097910 0.00409605
v -0.00592236 -0.00702051 0.00114169
v 0.00173189 -0.01081916 0.00462602
v 0.00327611 -0.01169885 0.00474123
v 0.00077739 -0.01012074 0.00479884
v -0.00021359 -0.00941699 0.00492063
v -0.00050237 -0.00895049 0.00524323
v -0.00064220 -0.00871591 0.00539959
v -0.00481283 -0.00519449 0.00562343
v -0.00022271 -0.00787354 0.00655335
v -0.00421398 -0.00456271 0.00650397
v -0.00304366 -0.00590091 -0.00643267
v -0.00366986 -0.00564233 -0.00628125
v -0.00416839 -0.00519449 -0.00633227
v -0.00446933 -0.00519449 -0.00616274
v -0.00283695 -0.00645271 -0.00613805
v -0.00226546 -0.00661798 -0.00633227
v 0.01144408 -0.01650781 -0.00478514
v 0.00151606 -0.01177882 0.00113840
v 0.00267727 -0.01238660 0.00194982
v 0.00315148 -0.01258387 0.00255056
v 0.00285358 -0.01234662 0.00279580
v 0.00326091 -0.01251722 0.00308548
v 0.01121002 -0.01664109 -0.00424529
v 0.01309470 -0.01811257 -0.00289896
v 0.01339868 -0.01838980 -0.00208918
v 0.01326189 -0.01841113 -0.00133372
v 0.01288191 -0.01822720 -0.00110330
v 0.01131641 -0.01739016 -0.00085477
v 0.00713059 -0.01504433 -0.00127941
v 0.00567756 -0.01423128 -0.00127941
v 0.00286878 -0.01263985 -0.00047128
v 0.00862618 -0.01592135 0.00033027
v 0.00174405 -0.01196808 0.00032862
v 0.00039437 -0.01119236 0.00032698
v 0.00567148 -0.01423128 -0.00114774
v -0.00059053 -0.00671928 0.00712283
v 0.00039437 -0.00744702 0.00709814
v -0.00226546 -0.00530378 0.00712447
v 0.00119080 -0.00805747 0.00702901
v 0.01399145 -0.01644649 0.00630976
v 0.01193349 -0.01506832 0.00647435
v 0.01138937 -0.01491637 0.00637560
v 0.01295791 -0.01575874 0.00639370
v 0.01331357 -0.01674506 0.00575181
v 0.01287280 -0.01661710 0.00563495
v 0.01387593 -0.01731285 0.00546378
v 0.01414952 -0.01760875 0.00519221
v 0.01359019 -0.01747013 0.00492557
v 0.01144408 -0.01651047 0.00464083
v 0.01171767 -0.01677971 0.00437585
v 0.01225875 -0.01732085 0.00378004
v 0.01252626 -0.01755543 0.00353316
v 0.01207636 -0.01741948 0.00324183
v 0.00964452 -0.01580139 0.00403844
v 0.01105803 -0.01674506 0.00357101
v 0.01252930 -0.01780601 0.00275959
v 0.01296399 -0.01818454 0.00215884
v 0.01421639 -0.01883231 0.00192513
v 0.01452645 -0.01902158 0.00163381
v 0.01571198 -0.01965069 0.00114333
v 0.01565726 -0.01968001 0.00033027
v 0.01495203 -0.01936013 -0.00047128
v 0.01421031 -0.01882165 -0.00206614
v 0.01452037 -0.01902425 -0.00178140
v 0.01439574 -0.01908822 -0.00047128
v 0.01399449 -0.01887497 -0.00047128
v 0.01333789 -0.01852042 -0.00047128
v 0.01283936 -0.01825119 -0.00047128
v 0.01350204 -0.01832849 -0.00289896
v 0.01165687 -0.01532423 -0.00619566
v 0.01150184 -0.01486039 -0.00647052
v 0.01252930 -0.01554548 -0.00638329
v 0.01271169 -0.01532423 -0.00660219
v 0.01091212 -0.01428193 -0.00662853
v 0.00064060 -0.00857729 0.00648752
v 0.00724914 -0.01335959 0.00560861
v 0.00877817 -0.01421795 0.00566787
v 0.00248576 -0.01168285 0.00388373
v 0.00344330 -0.01241059 0.00357101
v 0.00402391 -0.01254655 0.00399729
v 0.00329435 -0.01196808 0.00427709
v 0.00350410 -0.01196808 0.00450752
v 0.00580524 -0.01325829 0.00462602
v 0.00480818 -0.01255987 0.00481036
v -0.00400120 -0.00519449 0.00615505
v 0.00027886 -0.00807880 0.00666527
v 0.00184436 -0.01196808 0.00114004
v 0.00827052 -0.01566277 0.00114169
v 0.00311804 -0.01263985 0.00194982
v 0.00459843 -0.01349021 0.00194982
v 0.00727042 -0.01496435 0.00236622
v 0.00463491 -0.01339424 0.00275794
v 0.00480210 -0.01337025 0.00322208
v 0.00929190 -0.01629455 -0.00047128
v 0.00862314 -0.01592135 -0.00047128
v 0.00709715 -0.01506299 -0.00047292
v 0.00929190 -0.01629988 0.00033027
v 0.01128601 -0.01740615 0.00087999
v 0.00038221 -0.00807880 0.00671300
v 0.00120904 -0.00873190 0.00660108
v 0.01091212 -0.01477509 0.00626697
v 0.01091212 -0.01524159 0.00586043
v 0.01031935 -0.01507098 0.00571066
v 0.01132553 -0.01576674 0.00558722
v 0.01042575 -0.01582005 0.00484657
v 0.01198213 -0.01665175 0.00489101
v 0.00988162 -0.01566277 0.00457665
v 0.00807901 -0.01495902 0.00396931
v 0.01195173 -0.01748613 0.00275959
v 0.01063549 -0.01651047 0.00357101
v 0.01051694 -0.01657978 0.00315296
v 0.01327405 -0.01836315 0.00191361
v 0.00882377 -0.01580672 0.00249296
v 0.01090908 -0.01706761 0.00194982
v 0.01180582 -0.01756876 0.00194982
v 0.01134073 -0.01737683 0.00141984
v 0.01292143 -0.01820587 0.00161899
v 0.01408264 -0.01883498 0.00114333
v 0.01448693 -0.01904024 0.00114333
v 0.01495203 -0.01927482 0.00114333
v 0.01495203 -0.01933347 0.00033027
v 0.01442614 -0.01906956 0.00033027
v 0.01333789 -0.01850976 0.00033027
v 0.01243506 -0.01803526 0.00033027
v 0.01171767 -0.01765140 0.00033027
v 0.01127385 -0.01741149 0.00033027
v 0.01129209 -0.01740615 -0.00031657
v 0.00038221 -0.00811879 0.00668667
v 0.00929494 -0.01436723 0.00580777
v 0.00977827 -0.01491637 0.00553126
v 0.00385975 -0.01263985 0.00360887
v 0.00555293 -0.01340491 0.00408946
v 0.00888456 -0.01496435 0.00478896
v 0.00633112 -0.01339424 0.00488936
v 0.01019168 -0.01676105 0.00114333
v 0.00834044 -0.01562279 0.00194982
v 0.00894840 -0.01573741 0.00303116
v 0.01086956 -0.01718756 0.00033027
v 0.01014912 -0.01678504 0.00033027
v 0.01288495 -0.01822453 0.00114333
f 1 2 3
f 1 3 4
f 1 4 5
f 1 5 6
f 1 6 7
f 1 7 2
f 2 8 9
f 2 9 3
f 2 7 10
f 2 10 11
f 2 11 8
f 3 12 4
f 3 9 13
f 3 13 14
f 3 14 12
f 4 12 5
f 5 15 6
f 5 12 16
f 5 16 15
f 6 15 17
f 6 17 18
f 6 18 7
f 7 19 10
f 7 18 19
f 8 20 21
f 8 21 9
f 8 11 22
f 8 22 23
f 8 23 20
f 9 21 24
f 9 24 13
f 10 19 25
f 10 25 26
f 10 26 11
f 11 26 27
f 11 27 28
f 11 28 22
f 12 14 35
f 12 35 29
f 12 29 30
f 12 30 31
f 12 31 16
f 13 24 32
f 13 32 33
f 13 33 34
f 13 34 14
f 14 34 35
f 15 36 17
f 15 16 37
f 15 37 36
f 16 31 38
f 16 38 37
f 17 36 39
f 17 39 40
f 17 40 41
f 17 41 18
f 18 41 42
f 18 42 43
f 18 43 44
f 18 44 45
f 18 45 19
f 19 45 46
f 19 46 25
f 20 47 21
f 20 23 48
f 20 48 49
f 20 49 50
f 20 50 51
f 20 51 52
f 20 52 47
f 21 47 53
f 21 53 24
f 22 48 23
f 22 28 54
f 22 54 55
f 22 55 56
f 22 56 48
f 24 53 32
f 25 57 26
f 25 46 58
f 25 58 57
f 26 57 59
f 26 59 27
f 27 59 28
f 28 59 60
f 28 60 61
f 28 61 54
f 29 35 72
f 29 72 62
f 29 62 63
f 29 63 30
f 30 63 64
f 30 64 31
f 31 64 65
f 31 65 38
f 32 53 66
f 32 66 67
f 32 67 33
f 33 68 34
f 33 67 69
f 33 69 70
f 33 70 71
f 33 71 68
f 34 68 35
f 35 68 72
f 36 73 39
f 36 37 74
f 36 74 73
f 37 38 74
f 38 65 75
f 38 75 76
f 38 76 74
f 39 73 77
f 39 77 78
f 39 78 79
f 39 79 40
f 40 79 41
f 41 79 80
f 41 80 81
f 41 81 82
f 41 82 83
f 41 83 84
f 41 84 42
f 42 84 83
f 42 83 85
f 42 85 86
f 42 86 43
f 43 87 45
f 43 45 44
f 43 86 88
f 43 88 89
f 43 89 87
f 45 87 46
f 46 87 89
f 46 89 90
f 46 90 58
f 47 52 91
f 47 91 92
f 47 92 93
f 47 93 94
f 47 94 53
f 48 56 95
f 48 95 96
f 48 96 97
f 48 97 98
f 48 98 99
f 48 99 100
f 48 100 49
f 49 100 101
f 49 101 50
f 50 101 51
f 51 101 92
f 51 92 52
f 52 92 91
f 53 102 103
f 53 103 104
f 53 104 66
f 53 94 105
f 53 105 102
f 54 61 106
f 54 106 107
f 54 107 55
f 55 107 56
f 56 107 108
f 56 108 109
f 56 109 110
f 56 110 95
f 57 58 59
f 58 111 59
f 58 90 112
f 58 112 111
f 59 111 60
f 60 111 112
f 60 112 113
f 60 113 114
f 60 114 61
f 61 114 106
f 62 72 115
f 62 115 63
f 63 115 116
f 63 116 64
f 64 116 117
f 64 117 65
f 65 117 118
f 65 118 119
f 65 119 75
f 66 104 120
f 66 120 69
f 66 69 67
f 68 71 121
f 68 121 72
f 69 122 123
f 69 123 70
f 69 120 124
f 69 124 125
f 69 125 126
f 69 126 127
f 69 127 122
f 70 123 128
f 70 128 71
f 71 129 121
f 71 128 130
f 71 130 129
f 72 121 115
f 73 74 131
f 73 131 132
f 73 132 133
f 73 133 134
f 73 134 77
f 74 76 135
f 74 135 136
f 74 136 137
f 74 137 138
f 74 138 139
f 74 139 140
f 74 140 131
f 75 141 76
f 75 119 142
f 75 142 141
f 76 141 135
f 77 134 143
f 77 143 144
f 77 144 78
f 78 144 145
f 78 145 79
f 79 146 80
f 79 145 146
f 80 146 147
f 80 147 148
f 80 148 149
f 80 149 150
f 80 150 151
f 80 151 81
f 81 151 152
f 81 152 153
f 81 153 154
f 81 154 155
f 81 155 156
f 81 156 157
f 81 157 158
f 81 158 82
f 82 158 83
f 83 158 159
f 83 159 160
f 83 160 85
f 85 160 161
f 85 161 86
f 86 161 88
f 88 161 89
f 89 161 162
f 89 162 163
f 89 163 90
f 90 163 164
f 90 164 112
f 92 101 93
f 93 101 165
f 93 165 94
f 94 165 166
f 94 166 105
f 95 110 101
f 95 101 96
f 96 101 97
f 97 101 98
f 98 101 99
f 99 101 100
f 101 144 167
f 101 167 168
f 101 168 169
f 101 169 170
f 101 170 171
f 101 171 172
f 101 172 173
f 101 173 174
f 101 174 175
f 101 175 176
f 101 176 177
f 101 177 178
f 101 178 179
f 101 179 180
f 101 180 181
f 101 181 182
f 101 182 183
f 101 183 184
f 101 184 185
f 101 185 186
f 101 186 187
f 101 187 188
f 101 188 189
f 101 189 190
f 101 190 191
f 101 191 192
f 101 192 193
f 101 193 194
f 101 194 195
f 101 195 196
f 101 196 197
f 101 197 198
f 101 198 199
f 101 199 200
f 101 200 201
f 101 201 202
f 101 202 203
f 101 203 204
f 101 204 205
f 101 205 206
f 101 206 207
f 101 207 208
f 101 208 166
f 101 166 165
f 101 110 109
f 101 109 108
f 101 108 209
f 101 209 210
f 101 210 211
f 101 211 212
f 101 212 213
f 101 213 164
f 101 164 214
f 101 214 144
f 102 215 103
f 102 105 216
f 102 216 217
f 102 217 215
f 103 215 218
f 103 218 219
f 103 219 220
f 103 220 221
f 103 221 104
f 104 221 120
f 105 166 216
f 106 114 222
f 106 222 223
f 106 223 107
f 107 223 210
f 107 210 209
f 107 209 108
f 112 164 213
f 112 213 224
f 112 224 225
f 112 225 113
f 113 225 114
f 114 225 222
f 115 121 129
f 115 129 226
f 115 226 116
f 116 226 117
f 117 226 227
f 117 227 118
f 118 227 119
f 119 227 228
f 119 228 229
f 119 229 230
f 119 230 231
f 119 231 142
f 120 221 232
f 120 232 124
f 122 127 123
f 123 127 233
f 123 233 234
f 123 234 235
f 123 235 128
f 124 232 236
f 124 236 125
f 125 237 238
f 125 238 239
f 125 239 126
f 125 236 237
f 126 239 127
f 127 239 240
f 127 240 241
f 127 241 242
f 127 242 233
f 128 235 130
f 129 130 243
f 129 243 227
f 129 227 226
f 130 235 244
f 130 244 245
f 130 245 243
f 131 140 139
f 131 139 144
f 131 144 143
f 131 143 133
f 131 133 132
f 133 143 134
f 135 246 247
f 135 247 248
f 135 248 136
f 135 141 249
f 135 249 250
f 135 250 246
f 136 248 137
f 137 251 252
f 137 252 253
f 137 253 254
f 137 254 255
f 137 255 138
f 137 248 256
f 137 256 257
f 137 257 258
f 137 258 251
f 138 255 139
f 139 255 144
f 141 142 259
f 141 259 260
f 141 260 249
f 142 231 230
f 142 230 261
f 142 261 262
f 142 262 263
f 142 263 264
f 142 264 265
f 142 265 259
f 144 266 267
f 144 267 155
f 144 155 154
f 144 154 153
f 144 153 152
f 144 152 150
f 144 150 149
f 144 149 148
f 144 148 147
f 144 147 145
f 144 255 268
f 144 268 167
f 144 214 269
f 144 269 270
f 144 270 266
f 145 147 146
f 150 152 151
f 155 267 157
f 155 157 156
f 157 271 158
f 157 267 271
f 158 271 272
f 158 272 159
f 159 272 273
f 159 273 160
f 160 273 274
f 160 274 161
f 161 274 269
f 161 269 162
f 162 269 163
f 163 269 214
f 163 214 164
f 166 208 275
f 166 275 216
f 167 268 276
f 167 276 168
f 168 276 277
f 168 277 169
f 169 278 170
f 169 277 279
f 169 279 278
f 170 278 171
f 171 278 280
f 171 280 172
f 172 280 281
f 172 281 173
f 173 281 282
f 173 282 174
f 174 282 283
f 174 283 175
f 175 283 284
f 175 284 176
f 176 284 285
f 176 285 286
f 176 286 287
f 176 287 177
f 177 287 288
f 177 288 178
f 178 288 179
f 179 288 289
f 179 289 290
f 179 290 180
f 180 290 291
f 180 291 292
f 180 292 181
f 181 293 294
f 181 294 295
f 181 295 182
f 181 292 296
f 181 296 293
f 182 295 183
f 183 295 297
f 183 297 184
f 184 298 185
f 184 297 299
f 184 299 298
f 185 298 186
f 186 298 300
f 186 300 301
f 186 301 187
f 187 302 188
f 187 301 302
f 188 302 189
f 189 302 303
f 189 303 304
f 189 304 305
f 189 305 190
f 190 305 306
f 190 306 307
f 190 307 308
f 190 308 191
f 191 308 192
f 192 308 309
f 192 309 310
f 192 310 193
f 193 310 311
f 193 311 194
f 194 311 312
f 194 312 195
f 195 312 196
f 196 312 313
f 196 313 197
f 197 313 314
f 197 314 198
f 198 314 313
f 198 313 315
f 198 315 316
f 198 316 199
f 199 316 200
f 200 316 317
f 200 317 201
f 201 317 318
f 201 318 319
f 201 319 202
f 202 319 320
f 202 320 321
f 202 321 203
f 203 321 204
f 204 321 322
f 204 322 205
f 205 322 323
f 205 323 206
f 206 323 324
f 206 324 207
f 207 324 325
f 207 325 275
f 207 275 208
f 210 223 211
f 211 326 212
f 211 223 326
f 212 326 327
f 212 327 224
f 212 224 213
f 215 328 218
f 215 217 329
f 215 329 330
f 215 330 331
f 215 331 328
f 216 275 217
f 217 275 329
f 218 332 333
f 218 333 334
f 218 334 335
f 218 335 219
f 218 328 336
f 218 336 337
f 218 337 332
f 219 335 338
f 219 338 339
f 219 339 340
f 219 340 341
f 219 341 220
f 220 341 342
f 220 342 221
f 221 342 232
f 222 225 223
f 223 225 224
f 223 224 327
f 223 327 326
f 227 243 245
f 227 245 228
f 228 245 234
f 228 234 343
f 228 343 229
f 229 343 344
f 229 344 345
f 229 345 230
f 230 262 261
f 230 345 346
f 230 346 347
f 230 347 348
f 230 348 349
f 230 349 350
f 230 350 262
f 232 342 351
f 232 351 236
f 233 344 343
f 233 343 234
f 233 242 352
f 233 352 353
f 233 353 354
f 233 354 355
f 233 355 344
f 234 245 244
f 234 244 235
f 236 351 237
f 237 356 357
f 237 357 238
f 237 351 356
f 238 357 358
f 238 358 239
f 239 358 359
f 239 359 240
f 240 359 241
f 241 359 471
f 241 471 360
f 241 360 362
f 241 362 361
f 241 361 242
f 242 361 362
f 242 362 363
f 242 363 352
f 246 250 364
f 246 364 365
f 246 365 247
f 247 366 367
f 247 367 256
f 247 256 248
f 247 365 366
f 249 260 250
f 250 260 364
f 251 368 252
f 251 258 368
f 252 368 253
f 253 369 268
f 253 268 370
f 253 370 254
f 253 368 371
f 253 371 372
f 253 372 369
f 254 370 255
f 255 370 268
f 256 367 373
f 256 373 374
f 256 374 258
f 256 258 257
f 258 374 375
f 258 375 376
f 258 376 368
f 259 265 377
f 259 377 260
f 260 377 378
f 260 378 364
f 262 350 379
f 262 379 263
f 263 379 264
f 264 379 492
f 264 492 380
f 264 380 265
f 265 380 377
f 266 270 381
f 266 381 382
f 266 382 267
f 267 382 271
f 268 369 383
f 268 383 384
f 268 384 276
f 269 381 270
f 269 274 381
f 271 382 273
f 271 273 272
f 273 382 274
f 274 382 381
f 275 325 329
f 276 384 385
f 276 385 386
f 276 386 279
f 276 279 277
f 278 387 388
f 278 388 389
f 278 389 280
f 278 279 387
f 279 390 391
f 279 391 392
f 279 392 393
f 279 393 394
f 279 394 388
f 279 388 387
f 279 386 385
f 279 385 390
f 280 389 395
f 280 395 281
f 281 395 396
f 281 396 282
f 282 396 397
f 282 397 398
f 282 398 284
f 282 284 283
f 284 398 399
f 284 399 285
f 285 399 400
f 285 400 286
f 286 401 288
f 286 288 287
f 286 400 402
f 286 402 401
f 288 401 290
f 288 290 289
f 290 401 291
f 291 403 404
f 291 404 405
f 291 405 406
f 291 406 407
f 291 407 292
f 291 401 403
f 292 407 296
f 293 296 294
f 294 296 408
f 294 408 409
f 294 409 295
f 295 409 297
f 296 406 410
f 296 410 408
f 296 407 406
f 297 409 411
f 297 411 299
f 298 412 413
f 298 413 300
f 298 299 412
f 299 414 412
f 299 411 415
f 299 415 416
f 299 416 414
f 300 413 301
f 301 413 417
f 301 417 418
f 301 418 419
f 301 419 420
f 301 420 421
f 301 421 422
f 301 422 302
f 302 422 303
f 303 422 423
f 303 423 304
f 304 423 305
f 305 423 306
f 306 424 425
f 306 425 426
f 306 426 308
f 306 308 307
f 306 423 424
f 308 427 309
f 308 426 428
f 308 428 429
f 308 429 430
f 308 430 431
f 308 431 427
f 309 427 310
f 310 427 432
f 310 432 311
f 311 432 312
f 312 432 433
f 312 433 313
f 313 433 434
f 313 434 315
f 315 434 435
f 315 435 436
f 315 436 316
f 316 436 437
f 316 437 438
f 316 438 317
f 317 438 318
f 318 438 439
f 318 439 440
f 318 440 319
f 319 440 320
f 320 440 441
f 320 441 442
f 320 442 321
f 321 442 443
f 321 443 322
f 322 443 323
f 323 443 444
f 323 444 324
f 324 444 325
f 325 444 330
f 325 330 329
f 328 331 336
f 330 444 331
f 331 444 443
f 331 443 445
f 331 445 337
f 331 337 336
f 332 446 447
f 332 447 448
f 332 448 449
f 332 449 450
f 332 450 333
f 332 337 445
f 332 445 451
f 332 451 452
f 332 452 446
f 333 450 453
f 333 453 334
f 334 453 454
f 334 454 335
f 335 454 455
f 335 455 338
f 338 340 339
f 338 455 456
f 338 456 340
f 340 456 457
f 340 457 458
f 340 458 341
f 341 458 351
f 341 351 342
f 344 355 345
f 345 355 346
f 346 355 459
f 346 459 460
f 346 460 363
f 346 363 461
f 346 461 462
f 346 462 347
f 347 462 463
f 347 463 464
f 347 464 348
f 348 464 465
f 348 465 349
f 349 465 466
f 349 466 350
f 350 466 467
f 350 467 379
f 351 458 356
f 352 363 353
f 353 363 459
f 353 459 354
f 354 459 355
f 356 458 468
f 356 468 357
f 357 469 358
f 357 468 470
f 357 470 469
f 358 469 471
f 358 471 359
f 360 472 473
f 360 473 363
f 360 363 362
f 360 471 474
f 360 474 475
f 360 475 476
f 360 476 472
f 363 473 477
f 363 477 478
f 363 478 479
f 363 479 461
f 363 460 459
f 364 378 365
f 365 480 481
f 365 481 482
f 365 482 366
f 365 378 480
f 366 482 373
f 366 373 367
f 368 376 372
f 368 372 371
f 369 372 383
f 372 483 383
f 372 376 484
f 372 484 483
f 373 482 374
f 374 482 375
f 375 485 486
f 375 486 487
f 375 487 488
f 375 488 376
f 375 482 489
f 375 489 485
f 376 488 484
f 377 380 378
f 378 490 482
f 378 482 481
f 378 481 480
f 378 380 491
f 378 491 490
f 379 467 492
f 380 492 467
f 380 467 491
f 383 483 493
f 383 493 385
f 383 385 384
f 385 493 390
f 388 394 494
f 388 494 495
f 388 495 496
f 388 496 497
f 388 497 498
f 388 498 389
f 389 498 395
f 390 493 391
f 391 493 499
f 391 499 392
f 392 499 393
f 393 493 500
f 393 500 501
f 393 501 502
f 393 502 503
f 393 503 394
f 393 499 493
f 394 503 494
f 395 498 497
f 395 497 496
f 395 496 504
f 395 504 397
f 395 397 396
f 397 505 506
f 397 506 398
f 397 504 505
f 398 506 399
f 399 506 507
f 399 507 508
f 399 508 400
f 400 508 509
f 400 509 510
f 400 510 511
f 400 511 512
f 400 512 402
f 401 402 403
f 402 512 403
f 403 512 513
f 403 513 404
f 404 513 514
f 404 514 515
f 404 515 516
f 404 516 405
f 405 516 410
f 405 410 406
f 408 410 517
f 408 517 409
f 409 517 411
f 410 516 518
f 410 518 519
f 410 519 520
f 410 520 521
f 410 521 517
f 411 517 521
f 411 521 522
f 411 522 415
f 412 414 417
f 412 417 413
f 414 416 417
f 415 523 416
f 415 522 524
f 415 524 523
f 416 418 417
f 416 523 418
f 418 523 419
f 419 523 525
f 419 525 526
f 419 526 527
f 419 527 420
f 420 528 424
f 420 424 421
f 420 527 529
f 420 529 530
f 420 530 531
f 420 531 528
f 421 424 423
f 421 423 422
f 424 528 425
f 425 528 532
f 425 532 533
f 425 533 534
f 425 534 535
f 425 535 426
f 426 535 428
f 427 431 433
f 427 433 432
f 428 536 429
f 428 535 537
f 428 537 538
f 428 538 539
f 428 539 540
f 428 540 536
f 429 536 541
f 429 541 430
f 430 541 431
f 431 434 433
f 431 541 435
f 431 435 434
f 435 542 543
f 435 543 544
f 435 544 545
f 435 545 546
f 435 546 436
f 435 541 547
f 435 547 548
f 435 548 549
f 435 549 550
f 435 550 551
f 435 551 542
f 436 546 437
f 437 546 439
f 437 439 438
f 439 546 440
f 440 545 552
f 440 552 441
f 440 546 545
f 441 552 553
f 441 553 442
f 442 553 554
f 442 554 555
f 442 555 451
f 442 451 445
f 442 445 443
f 446 556 447
f 446 452 556
f 447 557 448
f 447 556 558
f 447 558 559
f 447 559 557
f 448 560 561
f 448 561 449
f 448 557 562
f 448 562 563
f 448 563 560
f 449 561 564
f 449 564 565
f 449 565 450
f 450 565 456
f 450 456 453
f 451 566 567
f 451 567 568
f 451 568 452
f 451 555 566
f 452 568 556
f 453 456 455
f 453 455 454
f 456 458 457
f 456 565 468
f 456 468 458
f 461 479 462
f 462 479 477
f 462 477 569
f 462 569 463
f 463 569 570
f 463 570 571
f 463 571 464
f 464 572 573
f 464 573 574
f 464 574 575
f 464 575 576
f 464 576 577
f 464 577 578
f 464 578 465
f 464 571 572
f 465 578 466
f 466 578 467
f 467 578 579
f 467 579 491
f 468 580 470
f 468 565 580
f 469 581 471
f 469 470 582
f 469 582 581
f 470 580 583
f 470 583 582
f 471 584 585
f 471 585 474
f 471 581 584
f 472 476 586
f 472 586 473
f 473 586 587
f 473 587 477
f 474 585 588
f 474 588 475
f 475 588 589
f 475 589 476
f 476 589 590
f 476 590 591
f 476 591 586
f 477 479 478
f 477 587 592
f 477 592 593
f 477 593 594
f 477 594 569
f 482 595 596
f 482 596 489
f 482 490 491
f 482 491 595
f 483 484 597
f 483 597 493
f 484 488 598
f 484 598 485
f 484 485 599
f 484 599 597
f 485 598 486
f 485 489 600
f 485 600 601
f 485 601 602
f 485 602 603
f 485 603 604
f 485 604 605
f 485 605 599
f 486 598 487
f 487 598 488
f 489 596 600
f 491 579 606
f 491 606 607
f 491 607 608
f 491 608 595
f 493 597 500
f 494 503 609
f 494 609 495
f 495 610 611
f 495 611 496
f 495 609 612
f 495 612 610
f 496 611 613
f 496 613 614
f 496 614 505
f 496 505 504
f 500 597 605
f 500 605 604
f 500 604 501
f 501 604 502
f 502 604 615
f 502 615 603
f 502 603 602
f 502 602 616
f 502 616 617
f 502 617 618
f 502 618 503
f 503 619 609
f 503 618 619
f 505 614 506
f 506 614 507
f 507 613 620
f 507 620 621
f 507 621 509
f 507 509 508
f 507 614 613
f 509 621 510
f 510 621 622
f 510 622 623
f 510 623 511
f 511 624 513
f 511 513 512
f 511 623 625
f 511 625 624
f 513 624 625
f 513 625 626
f 513 626 514
f 514 627 515
f 514 626 628
f 514 628 627
f 515 627 516
f 516 627 629
f 516 629 518
f 518 629 519
f 519 629 630
f 519 630 631
f 519 631 632
f 519 632 633
f 519 633 520
f 520 634 521
f 520 633 635
f 520 635 634
f 521 634 522
f 522 634 636
f 522 636 524
f 523 524 525
f 524 636 637
f 524 637 638
f 524 638 639
f 524 639 525
f 525 639 640
f 525 640 641
f 525 641 526
f 526 641 527
f 527 642 530
f 527 530 529
f 527 641 640
f 527 640 643
f 527 643 642
f 528 531 532
f 530 642 643
f 530 643 644
f 530 644 531
f 531 644 533
f 531 533 532
f 533 645 646
f 533 646 647
f 533 647 648
f 533 648 537
f 533 537 534
f 533 644 645
f 534 537 535
f 536 540 649
f 536 649 541
f 537 648 538
f 538 648 647
f 538 647 650
f 538 650 651
f 538 651 652
f 538 652 539
f 539 652 653
f 539 653 540
f 540 653 649
f 541 548 547
f 541 649 548
f 542 551 543
f 543 654 544
f 543 551 550
f 543 550 655
f 543 655 654
f 544 654 545
f 545 654 656
f 545 656 657
f 545 657 658
f 545 658 552
f 548 659 652
f 548 652 549
f 548 649 659
f 549 652 550
f 550 652 660
f 550 660 655
f 552 658 553
f 553 658 554
f 554 658 661
f 554 661 662
f 554 662 566
f 554 566 555
f 556 568 663
f 556 663 664
f 556 664 558
f 557 559 562
f 558 664 665
f 558 665 559
f 559 665 666
f 559 666 562
f 560 563 667
f 560 667 668
f 560 668 669
f 560 669 670
f 560 670 561
f 561 670 564
f 562 666 563
f 563 666 667
f 564 670 669
f 564 669 671
f 564 671 672
f 564 672 673
f 564 673 674
f 564 674 675
f 564 675 676
f 564 676 580
f 564 580 565
f 566 677 664
f 566 664 663
f 566 663 567
f 566 662 656
f 566 656 677
f 567 663 568
f 569 594 570
f 570 594 571
f 571 594 592
f 571 592 678
f 571 678 679
f 571 679 572
f 572 679 680
f 572 680 681
f 572 681 573
f 573 681 574
f 574 682 683
f 574 683 575
f 574 681 680
f 574 680 682
f 575 683 684
f 575 684 685
f 575 685 686
f 575 686 576
f 576 686 577
f 577 686 687
f 577 687 688
f 577 688 689
f 577 689 578
f 578 689 579
f 579 690 606
f 579 689 690
f 580 676 583
f 581 582 691
f 581 691 692
f 581 692 693
f 581 693 694
f 581 694 695
f 581 695 584
f 582 583 691
f 583 676 692
f 583 692 691
f 584 696 585
f 584 695 696
f 585 696 697
f 585 697 698
f 585 698 588
f 586 591 587
f 587 591 699
f 587 699 592
f 588 698 700
f 588 700 701
f 588 701 702
f 588 702 590
f 588 590 589
f 590 702 703
f 590 703 704
f 590 704 705
f 590 705 706
f 590 706 707
f 590 707 708
f 590 708 709
f 590 709 710
f 590 710 591
f 591 710 711
f 591 711 699
f 592 594 593
f 592 699 712
f 592 712 713
f 592 713 678
f 595 608 596
f 596 608 607
f 596 607 714
f 596 714 601
f 596 601 600
f 597 599 605
f 601 714 607
f 601 607 715
f 601 715 716
f 601 716 602
f 602 716 717
f 602 717 718
f 602 718 616
f 603 615 604
f 606 690 719
f 606 719 720
f 606 720 721
f 606 721 607
f 607 721 722
f 607 722 723
f 607 723 724
f 607 724 715
f 609 619 612
f 610 725 611
f 610 612 726
f 610 726 725
f 611 725 727
f 611 727 728
f 611 728 729
f 611 729 620
f 611 620 613
f 612 730 731
f 612 731 726
f 612 619 730
f 616 732 733
f 616 733 617
f 616 718 734
f 616 734 735
f 616 735 732
f 617 733 618
f 618 733 619
f 619 733 730
f 620 729 736
f 620 736 737
f 620 737 621
f 621 737 622
f 622 737 738
f 622 738 623
f 623 738 739
f 623 739 740
f 623 740 741
f 623 741 742
f 623 742 626
f 623 626 625
f 626 742 628
f 627 628 630
f 627 630 629
f 628 743 744
f 628 744 745
f 628 745 746
f 628 746 631
f 628 631 630
f 628 742 743
f 631 747 632
f 631 746 748
f 631 748 749
f 631 749 750
f 631 750 747
f 632 747 751
f 632 751 633
f 633 751 635
f 634 635 636
f 635 637 636
f 635 751 752
f 635 752 753
f 635 753 754
f 635 754 637
f 637 754 875
f 637 875 755
f 637 755 638
f 638 755 756
f 638 756 757
f 638 757 639
f 639 757 640
f 640 758 643
f 640 757 756
f 640 756 759
f 640 759 760
f 640 760 761
f 640 761 758
f 643 758 762
f 643 762 645
f 643 645 644
f 645 762 646
f 646 762 763
f 646 763 764
f 646 764 647
f 647 764 650
f 649 653 652
f 649 652 659
f 650 764 765
f 650 765 766
f 650 766 767
f 650 767 651
f 651 767 768
f 651 768 769
f 651 769 652
f 652 769 770
f 652 770 771
f 652 771 772
f 652 772 660
f 654 655 773
f 654 773 774
f 654 774 656
f 655 660 775
f 655 775 776
f 655 776 773
f 656 662 661
f 656 661 657
f 656 774 777
f 656 777 778
f 656 778 677
f 657 661 658
f 660 772 779
f 660 779 780
f 660 780 781
f 660 781 775
f 664 778 782
f 664 782 665
f 664 677 778
f 665 667 666
f 665 782 783
f 665 783 777
f 665 777 784
f 665 784 785
f 665 785 786
f 665 786 787
f 665 787 788
f 665 788 789
f 665 789 693
f 665 693 674
f 665 674 790
f 665 790 791
f 665 791 667
f 667 791 668
f 668 791 671
f 668 671 669
f 671 791 674
f 671 674 673
f 671 673 672
f 674 693 692
f 674 692 676
f 674 676 675
f 674 791 790
f 678 713 679
f 679 713 680
f 680 713 682
f 682 713 684
f 682 684 683
f 684 792 686
f 684 686 685
f 684 713 793
f 684 793 794
f 684 794 795
f 684 795 792
f 686 792 796
f 686 796 797
f 686 797 798
f 686 798 687
f 687 798 799
f 687 799 690
f 687 690 688
f 688 690 689
f 690 799 800
f 690 800 801
f 690 801 802
f 690 802 719
f 693 789 803
f 693 803 804
f 693 804 805
f 693 805 806
f 693 806 807
f 693 807 808
f 693 808 809
f 693 809 694
f 694 809 697
f 694 697 695
f 695 697 696
f 697 809 810
f 697 810 811
f 697 811 812
f 697 812 813
f 697 813 814
f 697 814 815
f 697 815 816
f 697 816 698
f 698 816 817
f 698 817 700
f 699 711 818
f 699 818 819
f 699 819 820
f 699 820 821
f 699 821 822
f 699 822 823
f 699 823 824
f 699 824 712
f 700 817 703
f 700 703 701
f 701 703 702
f 703 705 704
f 703 817 825
f 703 825 826
f 703 826 827
f 703 827 828
f 703 828 705
f 705 828 829
f 705 829 706
f 706 829 830
f 706 830 707
f 707 830 708
f 708 830 831
f 708 831 709
f 709 831 710
f 710 831 832
f 710 832 833
f 710 833 834
f 710 834 835
f 710 835 711
f 711 835 836
f 711 836 818
f 712 824 713
f 713 824 837
f 713 837 793
f 715 838 839
f 715 839 840
f 715 840 716
f 715 724 723
f 715 723 841
f 715 841 842
f 715 842 843
f 715 843 838
f 716 840 717
f 717 844 845
f 717 845 718
f 717 840 844
f 718 845 734
f 719 802 801
f 719 801 841
f 719 841 720
f 720 841 723
f 720 723 722
f 720 722 721
f 725 726 731
f 725 731 727
f 727 731 846
f 727 846 728
f 728 846 847
f 728 847 848
f 728 848 729
f 729 848 736
f 730 733 731
f 731 733 849
f 731 849 846
f 732 735 733
f 733 850 849
f 733 735 851
f 733 851 852
f 733 852 853
f 733 853 854
f 733 854 855
f 733 855 850
f 734 845 735
f 735 845 851
f 736 848 739
f 736 739 737
f 737 739 738
f 739 848 856
f 739 856 740
f 740 857 741
f 740 856 857
f 741 857 742
f 742 857 743
f 743 857 744
f 744 857 858
f 744 858 859
f 744 859 860
f 744 860 861
f 744 861 745
f 745 862 863
f 745 863 864
f 745 864 746
f 745 861 865
f 745 865 862
f 746 864 863
f 746 863 866
f 746 866 867
f 746 867 868
f 746 868 869
f 746 869 748
f 747 750 752
f 747 752 751
f 748 869 870
f 748 870 871
f 748 871 749
f 749 871 750
f 750 871 872
f 750 872 752
f 752 872 753
f 753 872 873
f 753 873 874
f 753 874 754
f 754 874 876
f 754 876 877
f 754 877 875
f 755 875 878
f 755 878 756
f 756 878 759
f 758 761 879
f 758 879 880
f 758 880 762
f 759 761 760
f 759 878 877
f 759 877 876
f 759 876 881
f 759 881 882
f 759 882 761
f 761 883 879
f 761 882 884
f 761 884 885
f 761 885 886
f 761 886 887
f 761 887 883
f 762 880 763
f 763 880 888
f 763 888 889
f 763 889 764
f 764 889 890
f 764 890 765
f 765 891 766
f 765 890 892
f 765 892 827
f 765 827 893
f 765 893 894
f 765 894 891
f 766 891 767
f 767 891 768
f 768 891 895
f 768 895 769
f 769 895 896
f 769 896 770
f 770 896 897
f 770 897 898
f 770 898 779
f 770 779 771
f 771 779 772
f 773 776 899
f 773 899 900
f 773 900 774
f 774 900 901
f 774 901 777
f 775 781 776
f 776 781 902
f 776 902 903
f 776 903 904
f 776 904 905
f 776 905 899
f 777 906 784
f 777 783 782
f 777 782 778
f 777 901 900
f 777 900 906
f 779 898 907
f 779 907 902
f 779 902 780
f 780 902 781
f 784 906 908
f 784 908 909
f 784 909 785
f 785 909 786
f 786 909 910
f 786 910 815
f 786 815 911
f 786 911 787
f 787 911 788
f 788 911 803
f 788 803 789
f 792 795 912
f 792 912 913
f 792 913 796
f 793 914 794
f 793 837 914
f 794 823 915
f 794 915 916
f 794 916 917
f 794 917 795
f 794 914 837
f 794 837 918
f 794 918 824
f 794 824 823
f 795 917 919
f 795 919 920
f 795 920 921
f 795 921 922
f 795 922 923
f 795 923 924
f 795 924 912
f 796 913 797
f 797 925 798
f 797 913 926
f 797 926 925
f 798 925 927
f 798 927 799
f 799 927 841
f 799 841 801
f 799 801 800
f 803 911 928
f 803 928 804
f 804 928 929
f 804 929 930
f 804 930 805
f 805 931 806
f 805 930 931
f 806 931 929
f 806 929 812
f 806 812 811
f 806 811 810
f 806 810 809
f 806 809 808
f 806 808 807
f 812 929 932
f 812 932 814
f 812 814 813
f 814 932 933
f 814 933 911
f 814 911 815
f 815 910 816
f 816 826 825
f 816 825 817
f 816 910 895
f 816 895 934
f 816 934 826
f 818 836 819
f 819 836 935
f 819 935 936
f 819 936 820
f 820 936 937
f 820 937 821
f 821 823 822
f 821 937 823
f 823 937 938
f 823 938 939
f 823 939 915
f 824 918 837
f 826 934 893
f 826 893 940
f 826 940 827
f 827 940 893
f 827 892 828
f 828 892 941
f 828 941 829
f 829 941 830
f 830 941 942
f 830 942 943
f 830 943 944
f 830 944 945
f 830 945 946
f 830 946 947
f 830 947 833
f 830 833 832
f 830 832 831
f 833 947 834
f 834 948 949
f 834 949 950
f 834 950 951
f 834 951 836
f 834 836 835
f 834 947 952
f 834 952 948
f 836 951 935
f 838 953 839
f 838 843 953
f 839 953 954
f 839 954 845
f 839 845 844
f 839 844 840
f 841 927 842
f 842 955 843
f 842 927 955
f 843 955 927
f 843 927 926
f 843 926 953
f 845 954 956
f 845 956 851
f 846 849 850
f 846 850 847
f 847 850 855
f 847 855 957
f 847 957 856
f 847 856 848
f 851 956 853
f 851 853 852
f 853 958 854
f 853 956 958
f 854 958 959
f 854 959 960
f 854 960 855
f 855 960 957
f 856 957 961
f 856 961 962
f 856 962 963
f 856 963 858
f 856 858 857
f 858 963 964
f 858 964 859
f 859 964 965
f 859 965 860
f 860 965 966
f 860 966 861
f 861 966 967
f 861 967 865
f 862 968 969
f 862 969 863
f 862 865 968
f 863 969 970
f 863 970 866
f 865 971 972
f 865 972 970
f 865 970 969
f 865 969 968
f 865 967 966
f 865 966 971
f 866 973 974
f 866 974 867
f 866 970 973
f 867 974 868
f 868 974 869
f 869 974 870
f 870 974 975
f 870 975 976
f 870 976 872
f 870 872 871
f 872 976 977
f 872 977 873
f 873 977 874
f 874 977 978
f 874 978 979
f 874 979 876
f 875 877 878
f 876 979 881
f 879 883 880
f 880 889 888
f 880 883 892
f 880 892 889
f 881 979 882
f 882 979 884
f 883 887 892
f 884 980 981
f 884 981 885
f 884 979 982
f 884 982 983
f 884 983 984
f 884 984 985
f 884 985 944
f 884 944 943
f 884 943 942
f 884 942 986
f 884 986 980
f 885 981 886
f 886 981 980
f 886 980 986
f 886 986 887
f 887 986 892
f 889 892 890
f 891 894 893
f 891 893 934
f 891 934 895
f 892 986 941
f 895 910 896
f 896 910 897
f 897 910 987
f 897 987 988
f 897 988 989
f 897 989 898
f 898 989 907
f 899 905 900
f 900 905 907
f 900 907 906
f 902 907 990
f 902 990 904
f 902 904 903
f 904 990 905
f 905 990 907
f 906 991 908
f 906 907 991
f 907 988 991
f 907 989 988
f 908 991 988
f 908 988 909
f 909 988 910
f 910 988 987
f 911 933 928
f 912 924 913
f 913 992 926
f 913 924 923
f 913 923 922
f 913 922 920
f 913 920 993
f 913 993 994
f 913 994 992
f 915 939 916
f 916 995 917
f 916 939 996
f 916 996 997
f 916 997 995
f 917 995 998
f 917 998 999
f 917 999 920
f 917 920 919
f 920 999 1000
f 920 1000 1001
f 920 1001 993
f 920 922 921
f 925 1002 927
f 925 926 1002
f 926 992 1003
f 926 1003 953
f 926 927 1002
f 928 933 929
f 929 931 930
f 929 933 932
f 935 951 1004
f 935 1004 936
f 936 1004 1005
f 936 1005 1006
f 936 1006 937
f 937 1006 1007
f 937 1007 1008
f 937 1008 1009
f 937 1009 939
f 937 939 938
f 939 1009 1010
f 939 1010 996
f 941 986 942
f 944 985 945
f 945 985 1011
f 945 1011 946
f 946 1011 1012
f 946 1012 947
f 947 1013 952
f 947 1012 1013
f 948 1013 949
f 948 952 1013
f 949 1005 950
f 949 1013 1014
f 949 1014 1015
f 949 1015 1005
f 950 1005 951
f 951 1005 1004
f 953 1003 1016
f 953 1016 954
f 954 1016 956
f 956 1016 1017
f 956 1017 959
f 956 959 958
f 957 960 959
f 957 959 961
f 959 1017 992
f 959 992 1018
f 959 1018 961
f 961 1018 1019
f 961 1019 1020
f 961 1020 962
f 962 1020 1021
f 962 1021 1022
f 962 1022 963
f 963 965 964
f 963 1022 1023
f 963 1023 965
f 965 1023 966
f 966 1023 1022
f 966 1022 1024
f 966 1024 1025
f 966 1025 971
f 970 1026 973
f 970 972 1027
f 970 1027 1025
f 970 1025 1028
f 970 1028 1026
f 971 1025 972
f 972 1025 1027
f 973 1026 974
f 974 1029 976
f 974 976 975
f 974 1026 1030
f 974 1030 1008
f 974 1008 1031
f 974 1031 1032
f 974 1032 1033
f 974 1033 1015
f 974 1015 1034
f 974 1034 1029
f 976 1029 1035
f 976 1035 1036
f 976 1036 1037
f 976 1037 977
f 977 1037 1038
f 977 1038 978
f 978 1038 982
f 978 982 979
f 982 1038 1039
f 982 1039 1040
f 982 1040 1041
f 982 1041 983
f 983 1041 1042
f 983 1042 984
f 984 1042 985
f 985 1042 1043
f 985 1043 1044
f 985 1044 1011
f 992 1017 1016
f 992 1016 1045
f 992 1045 1003
f 992 994 1020
f 992 1020 1046
f 992 1046 1018
f 993 1001 994
f 994 1001 1047
f 994 1047 1021
f 994 1021 1020
f 995 997 998
f 996 1010 1048
f 996 1048 997
f 997 1048 1025
f 997 1025 1049
f 997 1049 998
f 998 1049 999
f 999 1049 1025
f 999 1025 1000
f 1000 1025 1050
f 1000 1050 1001
f 1001 1050 1051
f 1001 1051 1047
f 1003 1045 1016
f 1005 1007 1006
f 1005 1015 1052
f 1005 1052 1007
f 1007 1052 1053
f 1007 1053 1008
f 1008 1053 1031
f 1008 1030 1009
f 1009 1030 1010
f 1010 1030 1054
f 1010 1054 1028
f 1010 1028 1025
f 1010 1025 1048
f 1011 1055 1012
f 1011 1044 1055
f 1012 1055 1056
f 1012 1056 1013
f 1013 1056 1014
f 1014 1056 1015
f 1015 1043 1042
f 1015 1042 1041
f 1015 1041 1040
f 1015 1040 1057
f 1015 1057 1034
f 1015 1033 1052
f 1015 1056 1055
f 1015 1055 1043
f 1018 1046 1020
f 1018 1020 1019
f 1021 1047 1022
f 1022 1047 1050
f 1022 1050 1024
f 1024 1050 1025
f 1026 1028 1054
f 1026 1054 1030
f 1029 1034 1057
f 1029 1057 1035
f 1031 1053 1033
f 1031 1033 1032
f 1033 1053 1052
f 1035 1039 1036
f 1035 1057 1039
f 1036 1039 1037
f 1037 1039 1038
f 1039 1057 1040
f 1043 1055 1044
f 1047 1051 1050

