# https://github.com/mikedh/trimesh
v 0.02433517 0.01268293 -0.00046140
v 0.02433517 0.01256959 -0.00127957
v 0.02351523 0.01257452 -0.00127957
v 0.02351523 0.01265336 -0.00046140
v 0.02307937 0.01262380 -0.00002291
v 0.02269530 0.01259669 0.00035676
v 0.02351523 0.01262380 0.00035676
v 0.02433517 0.01263612 0.00035676
v 0.02515510 0.01260655 0.00035676
v 0.02515510 0.01262380 -0.00002291
v 0.02515510 0.01264351 -0.00046140
v 0.02433517 0.01242915 -0.00185175
v 0.02351523 0.01245132 -0.00193330
v 0.02515510 0.01251785 -0.00127957
v 0.02269530 0.01244393 -0.00193464
v 0.02269530 0.01254002 -0.00127957
v 0.02269530 0.01260655 -0.00046140
v 0.02269530 0.01249814 0.00117627
v 0.02187968 0.01254741 0.00035676
v 0.02187968 0.01246364 0.00117627
v 0.02351523 0.01250799 0.00117627
v 0.02433517 0.01250799 0.00117627
v 0.02515510 0.01247843 0.00117627
v 0.02556507 0.01238480 0.00158669
v 0.02588872 0.01241683 0.00113215
v 0.02644542 0.01239465 0.00082601
v 0.02597503 0.01249814 0.00035676
v 0.02575495 0.01243161 -0.00127957
v 0.02603545 0.01248089 -0.00048547
v 0.02433517 0.01231581 -0.00226217
v 0.02515510 0.01240204 -0.00175015
v 0.02515510 0.01229117 -0.00216057
v 0.02351523 0.01233798 -0.00234238
v 0.02269530 0.01234291 -0.00234372
v 0.02557801 0.01238726 -0.00169400
v 0.02187968 0.01232073 -0.00222340
v 0.02187968 0.01241190 -0.00181298
v 0.02142225 0.01238972 -0.00170871
v 0.02187968 0.01247350 -0.00127957
v 0.02187968 0.01254741 -0.00046140
v 0.02269530 0.01241436 0.00174577
v 0.02187968 0.01239958 0.00166021
v 0.02112880 0.01240697 0.00111343
v 0.02145245 0.01238726 0.00159337
v 0.02105543 0.01247103 0.00035676
v 0.02351523 0.01241436 0.00176449
v 0.02433517 0.01241436 0.00176048
v 0.02515510 0.01233305 0.00208267
v 0.02588872 0.01227885 0.00191556
v 0.02610881 0.01235276 0.00137279
v 0.02515510 0.01218768 0.00281393
v 0.02675181 0.01228870 0.00113215
v 0.02688991 0.01232073 0.00035676
v 0.02647994 0.01240451 0.00035676
v 0.02616060 0.01235276 -0.00127957
v 0.02679065 0.01211869 -0.00209774
v 0.02644542 0.01239958 -0.00022745
v 0.02679065 0.01221725 -0.00127957
v 0.02597503 0.01198810 -0.00291590
v 0.02590167 0.01226899 -0.00202020
v 0.02679065 0.01191911 -0.00291590
v 0.02351523 0.01210637 -0.00291590
v 0.02515510 0.01203245 -0.00291590
v 0.02433517 0.01207434 -0.00291590
v 0.02269530 0.01211130 -0.00291590
v 0.02187968 0.01207434 -0.00291590
v 0.02105975 0.01200781 -0.00291590
v 0.00714246 0.01083006 -0.00276082
v 0.02087419 0.01236262 -0.00145470
v 0.00714246 0.01096065 -0.00209774
v 0.00714246 0.01105427 -0.00127957
v 0.02111154 0.01240697 -0.00122075
v 0.02061094 0.01238726 -0.00090792
v 0.02105975 0.01246857 -0.00046140
v 0.02105975 0.01247103 -0.00002291
v 0.02269530 0.01233552 0.00215486
v 0.02351523 0.01234537 0.00217625
v 0.02187968 0.01230595 0.00207063
v 0.02061094 0.01238726 0.00079659
v 0.00713815 0.01097543 0.00199443
v 0.02112880 0.01227885 0.00191689
v 0.00713815 0.01084238 0.00265217
v 0.00714246 0.01112080 -0.00046140
v 0.00713815 0.01111587 -0.00002291
v 0.00713815 0.01111094 0.00035676
v 0.00713815 0.01104935 0.00117627
v 0.02433517 0.01234537 0.00217224
v 0.02597503 0.01204477 0.00281393
v 0.02433517 0.01219507 0.00281393
v 0.02519394 0.01178360 0.00371098
v 0.02597503 0.01174171 0.00354119
v 0.02679065 0.01206202 0.00199443
v 0.02747681 0.01175403 0.00199443
v 0.02767100 0.01182056 0.00112413
v 0.02761490 0.01195607 0.00035676
v 0.02722651 0.01214333 -0.00002291
v 0.02761490 0.01186983 -0.00127957
v 0.02674750 0.01229856 -0.00048547
v 0.02765805 0.01176142 -0.00204025
v 0.02742502 0.01171954 -0.00291590
v 0.02679065 0.01167272 -0.00350012
v 0.02597503 0.01170229 -0.00357231
v 0.02515510 0.01171707 -0.00364717
v 0.02728693 0.01162344 -0.00341456
v 0.02351523 0.01174664 -0.00371936
v 0.02433517 0.01173185 -0.00371000
v 0.02433517 0.01155445 -0.00412042
v 0.02351523 0.01155692 -0.00413112
v 0.02269530 0.01174417 -0.00369129
v 0.02187968 0.01172939 -0.00364049
v 0.02105975 0.01170475 -0.00357899
v 0.00796240 0.01054917 -0.00373674
v 0.00796240 0.01072411 -0.00326483
v 0.00714246 0.01067237 -0.00316991
v 0.00665913 0.01079063 -0.00264318
v 0.01230804 0.01158156 -0.00098947
v 0.00659009 0.01083498 -0.00209774
v 0.02269530 0.01211623 0.00281393
v 0.02351523 0.01216058 0.00281393
v 0.02105543 0.01198317 0.00281393
v 0.02187968 0.01205217 0.00281393
v 0.00803144 0.01084977 0.00286073
v 0.00655556 0.01084484 0.00199443
v 0.00663324 0.01079803 0.00252250
v 0.00713815 0.01065512 0.00306259
v 0.00780272 0.01072411 0.00316420
v 0.00652967 0.01087934 -0.00127957
v 0.00648652 0.01091383 -0.00046140
v 0.00648220 0.01091383 -0.00002291
v 0.00648220 0.01091137 0.00035676
v 0.00651241 0.01087934 0.00117627
v 0.02657919 0.01163576 0.00338211
v 0.02682949 0.01175403 0.00285270
v 0.02430064 0.01178113 0.00370964
v 0.02549170 0.01155938 0.00403584
v 0.02455094 0.01157909 0.00406658
v 0.02494796 0.01157909 0.00406658
v 0.02597503 0.01151749 0.00395161
v 0.02682949 0.01142633 0.00364814
v 0.02712294 0.01153967 0.00315083
v 0.02733871 0.01164069 0.00260672
v 0.02761490 0.01137705 0.00285270
v 0.02811118 0.01083745 0.00342890
v 0.02788677 0.01145343 0.00199443
v 0.02798171 0.01152242 0.00136209
v 0.02802918 0.01157416 0.00081531
v 0.02806371 0.01161112 0.00035676
v 0.02783499 0.01180331 -0.00002291
v 0.02761490 0.01193636 -0.00046140
v 0.02807665 0.01161851 -0.00002291
v 0.02806371 0.01159634 -0.00127957
v 0.02803350 0.01157416 -0.00173010
v 0.02796013 0.01148546 -0.00227688
v 0.03458002 0.00502504 -0.00418727
v 0.02679065 0.01139183 -0.00390920
v 0.02638932 0.01074628 -0.00496666
v 0.02597503 0.01146329 -0.00398273
v 0.02515510 0.01151749 -0.00405759
v 0.02734734 0.01087441 -0.00431962
v 0.02693306 0.01066005 -0.00486774
v 0.03391112 0.00506939 -0.00513377
v 0.03379029 0.00421441 -0.00663642
v 0.02433517 0.01119718 -0.00455624
v 0.02351523 0.01119718 -0.00455624
v 0.02269530 0.01153967 -0.00410037
v 0.02187968 0.01151010 -0.00404957
v 0.00796240 0.01016233 -0.00453218
v 0.01041788 0.01066005 -0.00393460
v 0.00714246 0.01041365 -0.00373674
v -0.00252843 0.00507432 -0.00748400
v -0.00305923 0.00497823 -0.00701208
v 0.02351523 0.01179099 0.00359601
v 0.01172114 0.01074136 0.00403049
v 0.00835079 0.01074875 0.00322837
v 0.01041788 0.01083745 0.00347034
v 0.01123781 0.01072164 0.00397701
v -0.00299450 0.00490678 -0.00619525
v 0.00658577 0.01010320 0.00348906
v 0.00674113 0.00992087 0.00403584
v 0.00728487 0.01004653 0.00424706
v 0.00767758 0.00988637 0.00479251
v 0.00795377 0.01013277 0.00449438
v -0.00393095 0.00419716 -0.00656423
v -0.00383170 0.00409861 -0.00601745
v -0.00469047 0.00331261 -0.00619525
v -0.00491487 0.00276809 -0.00570729
v 0.00877801 0.01029539 0.00445428
v 0.00877801 0.01061570 0.00368825
v 0.00877801 0.01001696 0.00497833
v 0.02519394 0.01131299 0.00438610
v 0.02576358 0.01079803 0.00491550
v 0.02600956 0.01106659 0.00452246
v 0.00959795 0.01004406 0.00501042
v 0.02430064 0.01131791 0.00438610
v 0.02433517 0.01085223 0.00495962
v 0.02679065 0.01100253 0.00435802
v 0.02742070 0.01087194 0.00420829
v 0.02766237 0.01102471 0.00367488
v 0.02818885 0.01094093 0.00281393
v 0.02797308 0.01070193 0.00397434
v 0.03460591 0.00585785 -0.00131032
v 0.02808960 0.01162591 -0.00046140
v 0.03458002 0.00583321 -0.00175550
v 0.03826972 -0.00094752 -0.00701208
v 0.03826972 -0.00125058 -0.00769923
v 0.02597503 0.01068961 -0.00503618
v 0.02597503 0.01075860 -0.00497870
v 0.02648857 0.01063048 -0.00503618
v 0.02678634 0.00974593 -0.00565515
v 0.02596640 0.00983217 -0.00572066
v 0.02515510 0.00987652 -0.00574873
v 0.02739481 0.01011305 -0.00511907
v 0.02723514 0.01029785 -0.00503618
v 0.02737755 0.00921618 -0.00586371
v 0.02681654 0.01050728 -0.00503618
v 0.03376440 0.00337914 -0.00742918
v 0.02515510 0.01078078 -0.00499608
v 0.02433517 0.01080049 -0.00501212
v 0.02351523 0.01079556 -0.00500677
v 0.00847162 0.00986666 -0.00503618
v 0.02269530 0.01114790 -0.00455624
v 0.00840689 0.00992580 -0.00496132
v 0.00796240 0.00991101 -0.00494260
v 0.00714246 0.01008102 -0.00439181
v 0.00760853 0.00909052 -0.00577948
v 0.00085055 0.00585292 -0.00745191
v -0.00187249 0.00513346 -0.00752678
v -0.00276147 0.00466777 -0.00755218
v -0.00325774 0.00444109 -0.00750004
v -0.00381012 0.00406904 -0.00718053
v -0.00352530 0.00449776 -0.00694925
v -0.00393095 0.00419716 -0.00663241
v 0.00673681 0.00908806 0.00485133
v 0.00716836 0.00928271 0.00518287
v 0.00725035 0.00937388 0.00518287
v 0.00736255 0.00944040 0.00518287
v 0.00792356 0.00970404 0.00518287
v 0.00799692 0.00972868 0.00518287
v 0.00822132 0.00997507 0.00492753
v -0.00501413 0.00290607 -0.00619525
v -0.00541978 0.00214225 -0.00615247
v -0.00551903 0.00132176 -0.00583697
v 0.00687491 0.00883674 0.00518287
v 0.00877801 0.00985434 0.00518287
v 0.02515510 0.01084484 0.00495560
v 0.02592325 0.01047032 0.00518287
v 0.02679065 0.01027567 0.00518287
v 0.02631164 0.01072657 0.00484464
v 0.00922682 0.00988145 0.00518287
v 0.00959795 0.00990362 0.00518287
v 0.02351523 0.01082759 0.00494090
v 0.01184197 0.01000957 0.00518287
v 0.01445281 0.01013030 0.00518287
v 0.02386047 0.01055410 0.00518287
v 0.02435243 0.01057135 0.00518287
v 0.02515510 0.01056642 0.00518287
v 0.02679065 0.01066497 0.00476711
v 0.02761490 0.01009827 0.00504384
v 0.02805939 0.00997507 0.00491283
v 0.03825677 -0.00094505 -0.00002425
v 0.03826972 -0.00093766 -0.00503618
v 0.03826972 -0.00093766 -0.00619659
v 0.03826972 -0.00194787 -0.00783158
v 0.03631482 -0.00065677 -0.00827943
v 0.03465769 0.00103595 -0.00830484
v 0.02433085 0.00990608 -0.00576879
v 0.02515510 0.01073643 -0.00503618
v 0.02671729 0.01036191 -0.00519126
v 0.02678634 0.00933692 -0.00595194
v 0.02664393 0.00838338 -0.00667519
v 0.02596640 0.00886384 -0.00642920
v 0.02515510 0.00946751 -0.00605221
v 0.02719199 0.00827743 -0.00659899
v 0.02683812 0.00704054 -0.00732357
v 0.02686401 0.00795219 -0.00687973
v 0.02433517 0.01077585 -0.00503618
v 0.02433085 0.01077585 -0.00503618
v 0.02351523 0.01076107 -0.00503618
v 0.00828605 0.00832424 -0.00663776
v 0.00878665 0.00916198 -0.00584365
v 0.00856224 0.00915459 -0.00583563
v 0.00815659 0.00984202 -0.00503618
v 0.00794945 0.00982477 -0.00503618
v 0.00815659 0.00913241 -0.00581825
v 0.00057868 0.00546116 -0.00753212
v 0.00878665 0.00787581 -0.00686636
v 0.00960658 0.00652065 -0.00737838
v 0.00960658 0.00610917 -0.00751875
v -0.00187249 0.00459878 -0.00764041
v -0.00269242 0.00377830 -0.00765378
v -0.00351235 0.00296027 -0.00765110
v -0.00352530 0.00379062 -0.00755886
v -0.00403452 0.00352451 -0.00749603
v -0.00478972 0.00262518 -0.00746662
v -0.00460847 0.00320420 -0.00701208
v -0.00414672 0.00379062 -0.00694925
v -0.00492350 0.00279519 -0.00701208
v -0.00562260 0.00187122 -0.00685700
v -0.00562260 0.00187122 -0.00639712
v -0.00567870 0.00132176 -0.00624471
v -0.00555356 0.00090043 -0.00578884
v 0.00683175 0.00869876 0.00518287
v 0.02691148 0.01023379 0.00518287
v 0.02762785 0.00992333 0.00518287
v 0.02741639 0.01004160 0.00518287
v 0.02786951 0.00977057 0.00518287
v 0.02813707 0.00942315 0.00518287
v 0.03012649 0.00609685 0.00518287
v 0.03503745 -0.00840582 0.00352649
v 0.03537837 -0.00840582 0.00325109
v 0.03825677 -0.00277575 -0.00002425
v 0.03826972 -0.00521504 -0.00503618
v 0.03826972 -0.00274618 -0.00752945
v 0.03744115 -0.00276589 -0.00769255
v 0.03662122 -0.00276589 -0.00784763
v 0.03615515 -0.00276589 -0.00792516
v 0.03744115 -0.00194541 -0.00796794
v 0.03618104 -0.00151176 -0.00823799
v 0.03631482 -0.00096969 -0.00827943
v 0.03498135 -0.00031675 -0.00843719
v 0.03495546 0.00045692 -0.00835697
v 0.03417005 0.00049881 -0.00845991
v 0.03417005 0.00117146 -0.00833692
v 0.02433085 0.00949461 -0.00605889
v 0.02351523 0.00989869 -0.00576344
v 0.02351523 0.01033481 -0.00539714
v 0.02596640 0.00787581 -0.00704416
v 0.02596640 0.00845483 -0.00671930
v 0.02515510 0.00887370 -0.00646129
v 0.02658351 0.00675226 -0.00744523
v 0.02596640 0.00714156 -0.00733828
v 0.00856224 0.00832917 -0.00664043
v -0.00105255 0.00459878 -0.00765378
v 0.01042651 0.00541927 -0.00765378
v 0.00878665 0.00832917 -0.00664310
v 0.02596640 0.00541927 -0.00771795
v 0.03417005 -0.00031675 -0.00847462
v -0.00433229 0.00132176 -0.00765512
v -0.00433229 0.00213979 -0.00762971
v -0.00431934 0.00292331 -0.00754014
v -0.00497529 0.00213979 -0.00751474
v -0.00565281 0.00116900 -0.00749870
v -0.00554492 0.00171353 -0.00740378
v -0.00536799 0.00214225 -0.00708293
v -0.00570460 0.00139568 -0.00708293
v -0.00581680 0.00050127 -0.00701208
v -0.00569165 0.00058998 -0.00611771
v -0.00569165 0.00057766 -0.00611504
v -0.00558376 0.00035590 -0.00576344
v 0.00683175 0.00857803 0.00518287
v -0.00560534 -0.00031182 -0.00573938
v 0.02872397 -0.00840582 0.00518287
v 0.02914688 -0.00840582 0.00512806
v 0.02987619 -0.00840582 0.00501175
v 0.03006607 -0.00840582 0.00497967
v 0.03088600 -0.00840582 0.00482459
v 0.03129597 -0.00840582 0.00474171
v 0.03193897 -0.00840582 0.00460668
v 0.03237051 -0.00840582 0.00449305
v 0.03317750 -0.00840582 0.00424439
v 0.03438582 -0.00840582 0.00379921
v 0.03470085 -0.00840582 0.00368023
v 0.03489504 -0.00840582 0.00359333
v 0.03500725 -0.00876556 0.00278185
v 0.03528775 -0.00888875 0.00228721
v 0.03566751 -0.00840582 0.00278853
v 0.03568477 -0.00840582 0.00270297
v 0.03826972 -0.00521257 -0.00537307
v 0.03586602 -0.00850438 0.00117627
v 0.03596527 -0.00850438 0.00035810
v 0.03600843 -0.00850438 -0.00002291
v 0.03605590 -0.00850438 -0.00046007
v 0.03826972 -0.00351246 -0.00719523
v 0.03683699 -0.00389684 -0.00738507
v 0.03659101 -0.00360609 -0.00754282
v 0.03615515 -0.00359377 -0.00762704
v 0.03580129 -0.00358392 -0.00769522
v 0.03498135 -0.00358392 -0.00784094
v 0.03580129 -0.00276589 -0.00797998
v 0.03662122 -0.00194541 -0.00808693
v 0.03615515 -0.00154625 -0.00823532
v 0.03586602 -0.00119637 -0.00831419
v 0.03498135 -0.00112738 -0.00838104
v 0.02678634 0.00459878 -0.00785565
v 0.02678634 0.00541927 -0.00771260
v 0.03417005 -0.00112738 -0.00840510
v 0.03335012 -0.00112738 -0.00841580
v 0.03253018 -0.00112738 -0.00840911
v -0.00187249 -0.00440687 -0.00765244
v -0.00351235 -0.00276836 -0.00765378
v -0.00433229 -0.00194787 -0.00765110
v -0.00433229 -0.00112738 -0.00765378
v -0.00514790 0.00050127 -0.00762704
v -0.00522127 0.00139568 -0.00756153
v -0.00565713 0.00058998 -0.00750940
v -0.00572617 -0.00031182 -0.00619525
v -0.00565713 0.00050127 -0.00751073
v -0.00560102 -0.00007036 -0.00746528
v -0.00568733 -0.00033153 -0.00704817
v -0.00562260 -0.00094752 -0.00679818
v -0.00562260 -0.00118405 -0.00613509
v 0.00684038 0.00797190 0.00518287
v -0.00558808 -0.00112738 -0.00575408
v 0.00717699 -0.01020203 0.00518154
v 0.01860427 -0.00981273 0.00518287
v 0.00878233 -0.01132311 0.00518154
v 0.00959795 -0.01120485 0.00518154
v 0.03137796 -0.00892818 0.00406525
v 0.03088600 -0.00864482 0.00451978
v 0.03191739 -0.00887151 0.00395028
v 0.03416573 -0.00882962 0.00303185
v 0.03474832 -0.00894789 0.00248907
v 0.03543879 -0.00894050 0.00174043
v 0.03416573 -0.00917703 0.00199577
v 0.03500725 -0.00900209 0.00200780
v 0.03569340 -0.00857091 0.00200780
v 0.03826972 -0.00500560 -0.00606691
v 0.03566751 -0.00902920 -0.00046007
v 0.03559414 -0.00899470 -0.00127957
v 0.03549489 -0.00897006 0.00117627
v 0.03826972 -0.00356174 -0.00716983
v 0.03629756 -0.00402989 -0.00743721
v 0.03826972 -0.00430092 -0.00678749
v 0.03580129 -0.00454239 -0.00730485
v 0.03498135 -0.00276589 -0.00809762
v 0.03580129 -0.00413091 -0.00748132
v 0.03498135 -0.00429846 -0.00754950
v 0.03450665 -0.00479617 -0.00741581
v 0.03417005 -0.00358392 -0.00793720
v 0.03586602 -0.00193555 -0.00818719
v 0.03563298 -0.00166205 -0.00826339
v 0.03498135 -0.00180496 -0.00828345
v 0.03441171 -0.00231500 -0.00823665
v 0.03415279 -0.00200208 -0.00828879
v 0.03335012 -0.00194541 -0.00831954
v 0.03253018 -0.00194541 -0.00832623
v 0.00960658 -0.00849699 -0.00733159
v -0.00187249 -0.00509923 -0.00753881
v -0.00274421 -0.00445861 -0.00756153
v -0.00351235 -0.00358885 -0.00763105
v -0.00433229 -0.00276836 -0.00761635
v -0.00556219 -0.00154132 -0.00578349
v -0.00483288 -0.00276836 -0.00750138
v -0.00477246 -0.00323897 -0.00745592
v -0.00555356 -0.00149451 -0.00636904
v -0.00556219 -0.00154132 -0.00582226
v 0.00722877 -0.01037204 0.00518154
v 0.00737550 -0.01079337 0.00518154
v 0.00730645 0.00709967 0.00518287
v 0.01859563 -0.00980533 0.00518287
v 0.00775525 -0.01115557 0.00518154
v 0.00795808 -0.01120731 0.00518154
v 0.00845436 -0.01132558 0.00518154
v 0.00774662 -0.01221013 0.00328184
v 0.00878233 -0.01141428 0.00497165
v 0.02797740 -0.00972649 0.00320965
v 0.03088600 -0.00916964 0.00363344
v 0.03088600 -0.00949488 0.00281527
v 0.03171025 -0.00936676 0.00281527
v 0.03166710 -0.00904152 0.00366018
v 0.03306961 -0.00894050 0.00328451
v 0.03252155 -0.00947517 0.00199577
v 0.03334149 -0.00932980 0.00199577
v 0.03416573 -0.00900209 0.00262143
v 0.03252155 -0.00922385 0.00281527
v 0.03088600 -0.00969199 0.00222705
v 0.03498135 -0.00911790 0.00117627
v 0.03193897 -0.00970185 0.00140621
v 0.03218926 -0.00975113 0.00085943
v 0.03416573 -0.00929777 0.00117627
v 0.03826972 -0.00470993 -0.00647867
v 0.03545173 -0.00894050 -0.00181833
v 0.03563730 -0.00836886 -0.00291724
v 0.03551215 -0.00822349 -0.00356295
v 0.03533090 -0.00806580 -0.00410839
v 0.03562004 -0.00901441 -0.00002291
v 0.03557688 -0.00900209 0.00035810
v 0.03498135 -0.00918196 0.00035810
v 0.03498135 -0.00922631 -0.00046007
v 0.03498135 -0.00915486 -0.00127957
v 0.03557688 -0.00573493 -0.00666984
v 0.03583581 -0.00527910 -0.00687706
v 0.03498135 -0.00521997 -0.00710031
v 0.03498135 -0.00470747 -0.00737705
v 0.03498135 -0.00221151 -0.00821660
v 0.03415279 -0.00269690 -0.00817917
v 0.03420889 -0.00516083 -0.00723935
v 0.03396291 -0.00485038 -0.00743988
v 0.03420889 -0.00447340 -0.00757624
v 0.03335012 -0.00440194 -0.00766046
v 0.00960658 -0.00932241 -0.00708293
v 0.03335012 -0.00358392 -0.00796393
v 0.03387229 -0.00237906 -0.00824601
v 0.03335012 -0.00239630 -0.00825002
v 0.03335012 -0.00280532 -0.00817115
v 0.00878665 -0.00932241 -0.00700406
v 0.00878665 -0.00996303 -0.00672866
v -0.00079794 -0.00564130 -0.00743453
v -0.00133737 -0.00561173 -0.00735165
v -0.00250254 -0.00494401 -0.00750004
v -0.00351235 -0.00420483 -0.00751742
v -0.00400863 -0.00405206 -0.00747196
v -0.00430208 -0.00354449 -0.00751742
v -0.00480698 -0.00330549 -0.00701208
v -0.00479835 -0.00328332 -0.00633429
v -0.00474225 -0.00317491 -0.00578750
v -0.00450922 -0.00371204 -0.00701208
v -0.00500549 -0.00276836 -0.00701208
v 0.00735823 -0.01081801 0.00513074
v 0.00756969 -0.01136500 0.00485668
v 0.00786746 0.00609685 0.00518287
v 0.00811775 -0.01141674 0.00497566
v 0.00751359 -0.01221013 0.00328184
v 0.00878233 -0.01196127 0.00363477
v 0.00878233 -0.01163357 0.00445428
v 0.00796240 -0.01231361 0.00199711
v 0.00799260 -0.01223969 0.00285404
v 0.00925271 -0.01219781 0.00244496
v 0.00828605 -0.01218302 0.00315350
v 0.02986756 -0.00975852 0.00247571
v 0.02924614 -0.00980041 0.00258132
v 0.03010922 -0.00961315 0.00277517
v 0.03040699 -0.00972402 0.00236608
v 0.03168436 -0.00963040 0.00195967
v 0.03138659 -0.00975113 0.00166021
v 0.03416573 -0.00936429 0.00035810
v 0.03168436 -0.00979055 0.00115087
v 0.03088600 -0.00990143 0.00117627
v 0.03088600 -0.00998767 0.00035810
v 0.03171025 -0.00986693 0.00035810
v 0.03227126 -0.00976345 0.00035810
v 0.03267691 -0.00968214 0.00035810
v 0.03334149 -0.00954169 0.00035810
v 0.03547763 -0.00655049 -0.00589980
v 0.03498135 -0.00666383 -0.00601210
v 0.03543016 -0.00731184 -0.00501345
v 0.03534816 -0.00733402 -0.00503484
v 0.03498135 -0.00899717 -0.00209506
v 0.03525322 -0.00887890 -0.00236377
v 0.03502019 -0.00843539 -0.00358567
v 0.03502882 -0.00833437 -0.00379690
v 0.03478284 -0.00816436 -0.00426748
v 0.03502882 -0.00787115 -0.00454689
v 0.03416573 -0.00939139 -0.00046007
v 0.03217200 -0.00974374 -0.00097476
v 0.03247840 -0.00965504 -0.00126219
v 0.03200802 -0.00971663 -0.00152288
v 0.03498135 -0.00624250 -0.00642252
v 0.03498135 -0.00583102 -0.00673668
v 0.03417005 -0.00590740 -0.00678749
v 0.00960658 -0.00994578 -0.00674471
v 0.00878665 -0.01036957 -0.00648535
v 0.00813933 -0.01072684 -0.00599606
v 0.00759990 -0.01135515 -0.00493859
v -0.00305060 -0.00476168 -0.00729550
v -0.00409494 -0.00412352 -0.00701208
v -0.00456532 -0.00356667 -0.00611504
v -0.00402158 -0.00408410 -0.00571665
v 0.00738413 -0.01154240 0.00431123
v -0.00410357 -0.00414569 -0.00619525
v 0.00726329 -0.01179865 0.00358665
v 0.00696553 -0.01203519 0.00199711
v 0.00688785 -0.01210418 0.00117760
v 0.00745317 -0.01223477 0.00281527
v 0.00796240 -0.01248855 -0.00046007
v 0.00796240 -0.01243435 0.00035810
v 0.00836373 -0.01232100 0.00157866
v 0.00878233 -0.01226433 0.00199711
v 0.01071565 -0.01218549 0.00149578
v 0.01205775 -0.01209432 0.00117760
v 0.01287336 -0.01200562 0.00117760
v 0.01123781 -0.01205244 0.00199711
v 0.02269530 -0.01089439 0.00117627
v 0.02106407 -0.01092396 0.00199577
v 0.02679065 -0.01024638 0.00199577
v 0.02376553 -0.01053219 0.00232063
v 0.03088600 -0.00978070 0.00181663
v 0.02761058 -0.01014782 0.00199577
v 0.02924614 -0.00994824 0.00199577
v 0.02602250 -0.01050016 0.00118028
v 0.02679065 -0.01040653 0.00117627
v 0.02843052 -0.01020449 0.00117627
v 0.02578084 -0.01057654 0.00090889
v 0.02761058 -0.01038682 0.00035810
v 0.03088600 -0.00998274 -0.00002291
v 0.03171025 -0.00985708 -0.00046007
v 0.03226263 -0.00976098 -0.00046007
v 0.03227126 -0.00976345 -0.00002291
v 0.03335012 -0.00955401 -0.00046007
v 0.03498135 -0.00742518 -0.00513645
v 0.03498135 -0.00707530 -0.00554687
v 0.03417005 -0.00755330 -0.00528083
v 0.03417005 -0.00718372 -0.00568991
v 0.03417005 -0.00677470 -0.00609632
v 0.03416573 -0.00915979 -0.00209774
v 0.03470948 -0.00894050 -0.00258837
v 0.03498135 -0.00876309 -0.00288382
v 0.03416573 -0.00859062 -0.00373674
v 0.03469653 -0.00843539 -0.00377284
v 0.03416573 -0.00843539 -0.00402684
v 0.03416573 -0.00824074 -0.00438512
v 0.03416573 -0.00796478 -0.00479554
v 0.03172320 -0.00979055 -0.00126219
v 0.03266828 -0.00968460 -0.00046007
v 0.03088600 -0.00990882 -0.00127957
v 0.03145996 -0.00976098 -0.00178357
v 0.03417005 -0.00631888 -0.00650540
v 0.03335012 -0.00638294 -0.00655487
v 0.00960658 -0.01035233 -0.00640380
v 0.03171025 -0.00742518 -0.00592654
v 0.00878665 -0.01077859 -0.00607627
v 0.00815228 -0.01142167 -0.00506960
v 0.00800123 -0.01140442 -0.00503618
v 0.00791061 -0.01157443 -0.00462175
v 0.00796240 -0.01195142 -0.00373674
v 0.00749633 -0.01222491 -0.00265789
v 0.00738413 -0.01149559 -0.00439315
v -0.00274421 -0.00501792 -0.00701876
v -0.00313259 -0.00483806 -0.00674872
v 0.00677997 -0.01215346 -0.00046007
v 0.00681449 -0.01215099 0.00035810
v 0.00722446 -0.01232593 0.00035810
v 0.00796240 -0.01245652 -0.00127957
v 0.00960658 -0.01235057 -0.00046007
v 0.01157010 -0.01218549 0.00035810
v 0.01042220 -0.01227665 0.00035810
v 0.00960226 -0.01233579 0.00035810
v 0.00718562 -0.01235550 -0.00046007
v 0.00725466 -0.01234318 -0.00127957
v 0.01104793 -0.01220274 0.00095033
v 0.01128528 -0.01216085 0.00120434
v 0.01205775 -0.01214114 0.00035810
v 0.01287336 -0.01205490 0.00035810
v 0.02269530 -0.01096584 0.00035810
v 0.02351955 -0.01079830 0.00117627
v 0.02480555 -0.01056176 0.00162144
v 0.02511195 -0.01060858 0.00118028
v 0.02515510 -0.01068003 0.00035810
v 0.02761058 -0.01037450 -0.00046007
v 0.02843052 -0.01027594 -0.00046007
v 0.03088600 -0.00997535 -0.00046007
v 0.03416573 -0.00776520 -0.00503484
v 0.03334149 -0.00792289 -0.00503484
v 0.03256902 -0.00782187 -0.00531960
v 0.03306961 -0.00729706 -0.00581424
v 0.03253018 -0.00735373 -0.00586504
v 0.03171888 -0.00963040 -0.00207367
v 0.03253018 -0.00923370 -0.00291724
v 0.03416573 -0.00899224 -0.00274077
v 0.03368241 -0.00889861 -0.00328488
v 0.03416573 -0.00884933 -0.00315119
v 0.03313435 -0.00895282 -0.00341188
v 0.03253018 -0.00881976 -0.00395331
v 0.03190876 -0.00887890 -0.00407497
v 0.03136070 -0.00892571 -0.00416187
v 0.03334149 -0.00803870 -0.00489848
v 0.03007470 -0.01000984 -0.00127957
v 0.03170162 -0.00937908 -0.00291724
v 0.02540108 -0.01053219 -0.00154293
v 0.02484870 -0.01056422 -0.00175015
v 0.02761058 -0.01016507 -0.00209774
v 0.03088600 -0.00980041 -0.00193063
v 0.03038110 -0.00972156 -0.00246270
v 0.03088600 -0.00968460 -0.00233971
v 0.03088600 -0.00951459 -0.00291724
v 0.03171025 -0.00783666 -0.00548403
v 0.00878665 -0.01118760 -0.00547468
v 0.03088169 -0.00823335 -0.00515249
v 0.03088600 -0.00843539 -0.00489715
v 0.03088600 -0.00864975 -0.00462041
v 0.03088600 -0.00896514 -0.00421133
v 0.00818680 -0.01143645 -0.00503618
v 0.00813070 -0.01143399 -0.00503618
v 0.00878233 -0.01143399 -0.00503618
v 0.00878233 -0.01164096 -0.00455624
v 0.00878233 -0.01194402 -0.00373674
v 0.00796240 -0.01214360 -0.00311911
v 0.00765600 -0.01236536 -0.00171138
v 0.00739276 -0.01227912 -0.00209774
v 0.00796240 -0.01222984 -0.00270869
v 0.00796240 -0.01233825 -0.00209774
v 0.00882548 -0.01225941 -0.00215923
v 0.01015895 -0.01220520 -0.00177689
v 0.00960658 -0.01230376 -0.00127957
v 0.01042220 -0.01227665 -0.00046007
v 0.01205775 -0.01210418 -0.00046007
v 0.02187105 -0.01105208 -0.00046007
v 0.02106407 -0.01114078 -0.00046007
v 0.02569453 -0.01056669 -0.00099749
v 0.03307824 -0.00797217 -0.00503484
v 0.03279343 -0.00802392 -0.00503484
v 0.03253018 -0.00900949 -0.00354156
v 0.03165847 -0.00905630 -0.00377685
v 0.03088600 -0.00920414 -0.00373674
v 0.03006607 -0.00932487 -0.00373674
v 0.03168436 -0.00843539 -0.00473806
v 0.03286247 -0.00808059 -0.00495062
v 0.02679065 -0.01040160 -0.00127957
v 0.02269962 -0.01088946 -0.00127957
v 0.02513352 -0.01047060 -0.00205362
v 0.02679065 -0.01026362 -0.00209774
v 0.02187105 -0.01098556 -0.00127957
v 0.01759014 -0.01139950 -0.00178223
v 0.02761058 -0.00996056 -0.00291724
v 0.02382595 -0.01053958 -0.00245334
v 0.02679065 -0.01006158 -0.00291724
v 0.02924614 -0.00968214 -0.00313916
v 0.03009196 -0.00964025 -0.00288649
v 0.03207275 -0.00814465 -0.00503618
v 0.00900242 -0.01140689 -0.00503484
v 0.03170162 -0.00820132 -0.00503618
v 0.00931313 -0.01138718 -0.00499474
v 0.02815864 -0.00975113 -0.00336776
v 0.02152582 -0.01055930 -0.00333835
v 0.02207388 -0.01052727 -0.00323675
v 0.02327357 -0.01057162 -0.00258302
v 0.01123781 -0.01188489 -0.00291724
v 0.01042220 -0.01197605 -0.00291724
v 0.00960226 -0.01206722 -0.00291724
v 0.00882548 -0.01214360 -0.00290521
v 0.00858813 -0.01221013 -0.00262580
v 0.01043083 -0.01213375 -0.00206966
v 0.01123781 -0.01205490 -0.00209774
v 0.01205775 -0.01197113 -0.00209774
v 0.01069838 -0.01218056 -0.00150684
v 0.00960226 -0.01216578 -0.00234372
v 0.01119466 -0.01214607 -0.00125283
v 0.01205775 -0.01205244 -0.00127957
v 0.02106407 -0.01107426 -0.00127957
v 0.01616173 -0.01160893 -0.00127957
v 0.02870671 -0.00971663 -0.00326616
v 0.02596640 -0.01036218 -0.00209774
v 0.01813388 -0.01136254 -0.00159641
f 1 2 3
f 1 3 4
f 1 4 5
f 1 5 6
f 1 6 7
f 1 7 8
f 1 8 9
f 1 9 10
f 1 10 11
f 1 11 2
f 2 12 13
f 2 13 3
f 2 11 14
f 2 14 12
f 3 13 15
f 3 15 16
f 3 16 4
f 4 16 17
f 4 17 5
f 5 17 6
f 6 18 7
f 6 17 19
f 6 19 20
f 6 20 18
f 7 18 8
f 8 18 21
f 8 21 22
f 8 22 23
f 8 23 9
f 9 23 24
f 9 24 25
f 9 25 26
f 9 26 27
f 9 27 10
f 10 27 11
f 11 28 14
f 11 27 29
f 11 29 28
f 12 30 13
f 12 14 31
f 12 31 32
f 12 32 30
f 13 33 34
f 13 34 15
f 13 30 33
f 14 28 35
f 14 35 31
f 15 34 36
f 15 36 37
f 15 37 16
f 16 37 38
f 16 38 39
f 16 39 40
f 16 40 17
f 17 40 19
f 18 41 21
f 18 20 42
f 18 42 41
f 19 43 44
f 19 44 20
f 19 40 45
f 19 45 43
f 20 44 42
f 21 41 46
f 21 46 22
f 22 46 47
f 22 47 23
f 23 47 48
f 23 48 24
f 24 49 50
f 24 50 25
f 24 48 51
f 24 51 49
f 25 50 26
f 26 50 52
f 26 52 53
f 26 53 54
f 26 54 27
f 27 54 29
f 28 29 55
f 28 55 56
f 28 56 35
f 29 56 55
f 29 54 53
f 29 53 57
f 29 57 58
f 29 58 56
f 30 32 59
f 30 59 33
f 31 35 32
f 32 35 60
f 32 60 61
f 32 61 59
f 33 62 34
f 33 59 63
f 33 63 64
f 33 64 62
f 34 62 65
f 34 65 66
f 34 66 36
f 35 56 60
f 36 66 67
f 36 67 68
f 36 68 37
f 37 68 38
f 38 69 39
f 38 68 70
f 38 70 71
f 38 71 69
f 39 69 72
f 39 72 40
f 40 72 73
f 40 73 74
f 40 74 75
f 40 75 45
f 41 76 77
f 41 77 46
f 41 42 76
f 42 78 76
f 42 44 78
f 43 45 79
f 43 79 80
f 43 80 44
f 44 81 78
f 44 80 82
f 44 82 81
f 45 75 83
f 45 83 84
f 45 84 85
f 45 85 86
f 45 86 80
f 45 80 79
f 46 77 87
f 46 87 47
f 47 87 48
f 48 87 51
f 49 51 88
f 49 88 52
f 49 52 50
f 51 87 89
f 51 89 90
f 51 90 91
f 51 91 88
f 52 88 92
f 52 92 93
f 52 93 94
f 52 94 95
f 52 95 53
f 53 95 96
f 53 96 97
f 53 97 58
f 53 58 98
f 53 98 57
f 56 61 60
f 56 58 99
f 56 99 100
f 56 100 61
f 57 98 58
f 58 97 99
f 59 61 101
f 59 101 102
f 59 102 103
f 59 103 63
f 61 100 104
f 61 104 101
f 62 105 65
f 62 64 106
f 62 106 107
f 62 107 105
f 63 103 64
f 64 103 106
f 65 105 108
f 65 108 109
f 65 109 66
f 66 109 110
f 66 110 111
f 66 111 67
f 67 111 112
f 67 112 113
f 67 113 68
f 68 114 115
f 68 115 70
f 68 113 112
f 68 112 114
f 69 116 72
f 69 71 116
f 70 115 71
f 71 115 117
f 71 117 83
f 71 83 116
f 72 116 73
f 73 116 74
f 74 116 83
f 74 83 75
f 76 118 119
f 76 119 89
f 76 89 77
f 76 78 118
f 77 89 87
f 78 120 121
f 78 121 118
f 78 81 82
f 78 82 122
f 78 122 120
f 80 86 123
f 80 123 124
f 80 124 82
f 82 125 126
f 82 126 122
f 82 124 125
f 83 117 127
f 83 127 128
f 83 128 129
f 83 129 130
f 83 130 84
f 84 130 85
f 85 130 131
f 85 131 123
f 85 123 86
f 88 91 132
f 88 132 133
f 88 133 92
f 89 119 134
f 89 134 90
f 90 135 91
f 90 134 136
f 90 136 137
f 90 137 135
f 91 138 139
f 91 139 132
f 91 135 138
f 92 133 140
f 92 140 141
f 92 141 93
f 93 141 142
f 93 142 143
f 93 143 144
f 93 144 94
f 94 144 145
f 94 145 146
f 94 146 147
f 94 147 95
f 95 148 149
f 95 149 96
f 95 147 150
f 95 150 148
f 96 149 97
f 97 149 151
f 97 151 152
f 97 152 99
f 99 152 100
f 100 152 153
f 100 153 154
f 100 154 104
f 101 104 155
f 101 155 156
f 101 156 157
f 101 157 158
f 101 158 107
f 101 107 102
f 102 107 103
f 103 107 106
f 104 159 160
f 104 160 156
f 104 156 155
f 104 154 161
f 104 161 162
f 104 162 159
f 105 107 108
f 107 163 108
f 107 158 156
f 107 156 163
f 108 164 165
f 108 165 109
f 108 163 164
f 109 165 110
f 110 165 166
f 110 166 111
f 111 166 167
f 111 167 168
f 111 168 112
f 112 168 167
f 112 167 169
f 112 169 114
f 114 169 115
f 115 169 170
f 115 170 171
f 115 171 117
f 117 171 127
f 118 172 134
f 118 134 119
f 118 121 173
f 118 173 172
f 120 122 174
f 120 174 175
f 120 175 176
f 120 176 121
f 121 176 173
f 122 126 174
f 123 131 171
f 123 171 177
f 123 177 124
f 124 178 179
f 124 179 180
f 124 180 181
f 124 181 182
f 124 182 125
f 124 177 183
f 124 183 184
f 124 184 185
f 124 185 186
f 124 186 178
f 125 182 126
f 126 182 187
f 126 187 188
f 126 188 174
f 127 171 128
f 128 171 129
f 129 171 130
f 130 171 131
f 132 139 140
f 132 140 133
f 134 172 189
f 134 189 136
f 135 137 190
f 135 190 191
f 135 191 192
f 135 192 138
f 136 189 193
f 136 193 194
f 136 194 195
f 136 195 137
f 137 195 190
f 138 192 196
f 138 196 139
f 139 197 140
f 139 196 197
f 140 197 198
f 140 198 141
f 141 198 142
f 142 198 143
f 143 199 144
f 143 198 200
f 143 200 201
f 143 201 199
f 144 199 201
f 144 201 145
f 145 201 146
f 146 201 147
f 147 201 150
f 148 150 202
f 148 202 149
f 149 202 151
f 150 201 202
f 151 202 201
f 151 201 203
f 151 203 152
f 152 203 153
f 153 203 154
f 154 203 204
f 154 204 205
f 154 205 162
f 154 162 161
f 156 206 207
f 156 207 163
f 156 158 157
f 156 160 208
f 156 208 209
f 156 209 210
f 156 210 211
f 156 211 206
f 159 212 160
f 159 162 212
f 160 213 214
f 160 214 215
f 160 215 208
f 160 212 213
f 162 205 216
f 162 216 212
f 163 207 217
f 163 217 218
f 163 218 164
f 164 218 219
f 164 219 220
f 164 220 221
f 164 221 165
f 165 221 220
f 165 220 222
f 165 222 223
f 165 223 166
f 166 223 167
f 167 223 224
f 167 224 169
f 169 224 170
f 170 225 226
f 170 226 227
f 170 227 228
f 170 228 229
f 170 229 171
f 170 224 223
f 170 223 225
f 171 229 230
f 171 230 231
f 171 231 232
f 171 232 183
f 171 183 177
f 172 173 189
f 173 176 187
f 173 187 189
f 174 188 176
f 174 176 175
f 176 188 187
f 178 186 179
f 179 233 234
f 179 234 235
f 179 235 236
f 179 236 181
f 179 181 180
f 179 186 233
f 181 236 237
f 181 237 238
f 181 238 239
f 181 239 182
f 182 239 187
f 183 232 185
f 183 185 184
f 185 232 240
f 185 240 186
f 186 240 241
f 186 241 242
f 186 242 243
f 186 243 233
f 187 239 189
f 189 239 244
f 189 244 193
f 190 245 191
f 190 195 245
f 191 245 246
f 191 246 247
f 191 247 248
f 191 248 192
f 192 248 196
f 193 244 249
f 193 249 250
f 193 250 251
f 193 251 194
f 194 251 195
f 195 251 250
f 195 250 252
f 195 252 253
f 195 253 254
f 195 254 255
f 195 255 256
f 195 256 245
f 196 248 257
f 196 257 197
f 197 258 259
f 197 259 200
f 197 200 198
f 197 257 258
f 200 259 201
f 201 260 261
f 201 261 262
f 201 262 204
f 201 204 203
f 201 259 260
f 204 262 261
f 204 261 312
f 204 312 368
f 204 368 417
f 204 417 471
f 204 471 423
f 204 423 421
f 204 421 373
f 204 373 313
f 204 313 263
f 204 263 205
f 205 263 264
f 205 264 265
f 205 265 216
f 206 211 266
f 206 266 207
f 207 266 267
f 207 267 217
f 208 268 209
f 208 215 268
f 209 269 270
f 209 270 210
f 209 268 214
f 209 214 269
f 210 270 271
f 210 271 272
f 210 272 211
f 211 272 266
f 212 214 213
f 212 216 214
f 214 273 269
f 214 268 215
f 214 216 273
f 216 265 274
f 216 274 275
f 216 275 273
f 217 267 276
f 217 276 218
f 218 276 277
f 218 277 219
f 219 277 278
f 219 278 279
f 219 279 280
f 219 280 220
f 220 280 281
f 220 281 282
f 220 282 223
f 220 223 222
f 223 283 225
f 223 282 281
f 223 281 283
f 225 283 284
f 225 284 279
f 225 279 226
f 226 285 227
f 226 279 286
f 226 286 287
f 226 287 288
f 226 288 285
f 227 285 289
f 227 289 228
f 228 289 290
f 228 290 291
f 228 291 292
f 228 292 229
f 229 292 293
f 229 293 230
f 230 293 294
f 230 294 295
f 230 295 296
f 230 296 232
f 230 232 231
f 232 296 295
f 232 295 297
f 232 297 240
f 233 243 234
f 234 243 302
f 234 302 350
f 234 350 402
f 234 402 449
f 234 449 511
f 234 511 450
f 234 450 405
f 234 405 352
f 234 352 308
f 234 308 307
f 234 307 306
f 234 306 304
f 234 304 305
f 234 305 303
f 234 303 247
f 234 247 246
f 234 246 256
f 234 256 255
f 234 255 254
f 234 254 253
f 234 253 252
f 234 252 250
f 234 250 249
f 234 249 244
f 234 244 238
f 234 238 237
f 234 237 236
f 234 236 235
f 238 244 239
f 240 297 298
f 240 298 299
f 240 299 241
f 241 299 242
f 242 299 300
f 242 300 301
f 242 301 302
f 242 302 243
f 245 256 246
f 247 257 248
f 247 303 257
f 257 303 258
f 258 304 259
f 258 303 305
f 258 305 304
f 259 304 306
f 259 306 307
f 259 307 308
f 259 308 260
f 260 309 310
f 260 310 311
f 260 311 312
f 260 312 261
f 260 308 309
f 263 313 314
f 263 314 315
f 263 315 316
f 263 316 317
f 263 317 318
f 263 318 319
f 263 319 264
f 264 319 320
f 264 320 321
f 264 321 265
f 265 321 322
f 265 322 323
f 265 323 274
f 266 277 276
f 266 276 267
f 266 272 324
f 266 324 325
f 266 325 326
f 266 326 277
f 269 273 270
f 270 327 328
f 270 328 271
f 270 273 275
f 270 275 327
f 271 328 272
f 272 328 329
f 272 329 324
f 274 330 331
f 274 331 327
f 274 327 275
f 274 323 330
f 277 326 278
f 278 326 279
f 279 284 281
f 279 281 280
f 279 326 325
f 279 325 332
f 279 332 286
f 281 284 283
f 285 333 289
f 285 288 334
f 285 334 333
f 286 332 335
f 286 335 327
f 286 327 331
f 286 331 287
f 287 331 288
f 288 331 330
f 288 330 336
f 288 336 334
f 289 333 322
f 289 322 290
f 290 322 337
f 290 337 291
f 291 337 338
f 291 338 339
f 291 339 292
f 292 339 340
f 292 340 293
f 293 340 294
f 294 340 341
f 294 341 342
f 294 342 343
f 294 343 295
f 295 343 297
f 297 343 344
f 297 344 298
f 298 344 343
f 298 343 345
f 298 345 299
f 299 345 346
f 299 346 300
f 300 346 347
f 300 347 301
f 301 347 348
f 301 348 349
f 301 349 302
f 302 349 351
f 302 351 350
f 308 352 353
f 308 353 354
f 308 354 355
f 308 355 356
f 308 356 357
f 308 357 358
f 308 358 359
f 308 359 360
f 308 360 361
f 308 361 362
f 308 362 363
f 308 363 309
f 309 363 364
f 309 364 310
f 310 364 365
f 310 365 366
f 310 366 311
f 311 366 367
f 311 367 312
f 312 367 369
f 312 369 370
f 312 370 371
f 312 371 372
f 312 372 368
f 313 373 374
f 313 374 314
f 314 374 375
f 314 375 315
f 315 375 376
f 315 376 377
f 315 377 378
f 315 378 316
f 316 379 317
f 316 378 379
f 317 379 380
f 317 380 381
f 317 381 318
f 318 381 382
f 318 382 319
f 319 382 320
f 320 383 337
f 320 337 322
f 320 322 321
f 320 382 383
f 322 384 385
f 322 385 323
f 322 333 334
f 322 334 384
f 323 385 330
f 324 335 332
f 324 332 325
f 324 329 335
f 327 335 328
f 328 335 329
f 330 385 336
f 334 336 384
f 336 385 384
f 337 386 387
f 337 387 388
f 337 388 389
f 337 389 390
f 337 390 391
f 337 391 392
f 337 392 338
f 337 383 386
f 338 392 393
f 338 393 339
f 339 393 394
f 339 394 340
f 340 394 341
f 341 394 342
f 342 395 346
f 342 346 345
f 342 345 343
f 342 394 393
f 342 393 395
f 346 396 348
f 346 348 347
f 346 395 397
f 346 397 398
f 346 398 399
f 346 399 400
f 346 400 401
f 346 401 396
f 348 396 351
f 348 351 349
f 350 351 402
f 351 396 403
f 351 403 404
f 351 404 402
f 352 405 406
f 352 406 407
f 352 407 353
f 353 407 354
f 354 407 355
f 355 407 406
f 355 406 408
f 355 408 409
f 355 409 356
f 356 409 408
f 356 408 357
f 357 408 358
f 358 408 359
f 359 408 360
f 360 408 361
f 361 408 362
f 362 408 410
f 362 410 363
f 363 410 411
f 363 411 364
f 364 412 365
f 364 411 412
f 365 413 366
f 365 412 414
f 365 414 415
f 365 415 413
f 366 416 367
f 366 413 416
f 367 416 369
f 368 372 418
f 368 418 419
f 368 419 417
f 369 416 413
f 369 413 420
f 369 420 418
f 369 418 370
f 370 418 371
f 371 418 372
f 373 421 374
f 374 422 375
f 374 421 423
f 374 423 424
f 374 424 422
f 375 422 376
f 376 422 377
f 377 422 378
f 378 425 379
f 378 422 426
f 378 426 427
f 378 427 428
f 378 428 429
f 378 429 425
f 379 425 380
f 380 425 430
f 380 430 381
f 381 430 431
f 381 431 382
f 382 431 383
f 383 432 433
f 383 433 434
f 383 434 386
f 383 431 432
f 386 434 435
f 386 435 387
f 387 435 436
f 387 436 388
f 388 436 389
f 389 437 438
f 389 438 439
f 389 439 440
f 389 440 390
f 389 436 437
f 390 440 391
f 391 441 393
f 391 393 392
f 391 440 441
f 393 397 395
f 393 441 397
f 396 401 442
f 396 442 403
f 397 441 443
f 397 443 398
f 398 400 399
f 398 443 444
f 398 444 400
f 400 444 445
f 400 445 401
f 401 445 446
f 401 446 442
f 402 404 447
f 402 447 448
f 402 448 449
f 403 442 404
f 404 442 447
f 405 450 451
f 405 451 452
f 405 452 453
f 405 453 406
f 406 453 454
f 406 454 455
f 406 455 408
f 408 456 457
f 408 457 458
f 408 458 459
f 408 459 460
f 408 460 461
f 408 461 410
f 408 455 456
f 410 461 411
f 411 461 412
f 412 462 463
f 412 463 414
f 412 461 464
f 412 464 465
f 412 465 459
f 412 459 466
f 412 466 462
f 413 415 467
f 413 467 420
f 414 463 468
f 414 468 469
f 414 469 470
f 414 470 415
f 415 470 467
f 417 419 472
f 417 472 473
f 417 473 474
f 417 474 475
f 417 475 471
f 418 420 476
f 418 476 477
f 418 477 478
f 418 478 479
f 418 479 419
f 419 479 480
f 419 480 472
f 420 477 476
f 420 467 478
f 420 478 477
f 422 424 426
f 423 471 481
f 423 481 482
f 423 482 424
f 424 482 483
f 424 483 484
f 424 484 426
f 425 485 430
f 425 429 486
f 425 486 485
f 426 484 427
f 427 484 428
f 428 487 488
f 428 488 489
f 428 489 429
f 428 484 483
f 428 483 487
f 429 490 491
f 429 491 437
f 429 437 492
f 429 492 486
f 429 489 490
f 430 485 431
f 431 485 432
f 432 485 433
f 433 485 486
f 433 486 493
f 433 493 434
f 434 493 435
f 435 494 436
f 435 493 494
f 436 494 437
f 437 491 438
f 437 494 495
f 437 495 486
f 437 486 492
f 438 491 496
f 438 496 497
f 438 497 498
f 438 498 499
f 438 499 500
f 438 500 439
f 439 500 501
f 439 501 440
f 440 501 502
f 440 502 503
f 440 503 441
f 441 503 444
f 441 444 443
f 442 446 504
f 442 504 505
f 442 505 506
f 442 506 448
f 442 448 447
f 444 507 504
f 444 504 508
f 444 508 445
f 444 503 502
f 444 502 507
f 445 508 504
f 445 504 446
f 448 509 510
f 448 510 451
f 448 451 450
f 448 450 511
f 448 511 449
f 448 506 509
f 451 510 512
f 451 512 452
f 452 512 453
f 453 512 513
f 453 513 454
f 454 514 515
f 454 515 455
f 454 513 516
f 454 516 517
f 454 517 518
f 454 518 519
f 454 519 520
f 454 520 521
f 454 521 514
f 455 515 456
f 456 521 522
f 456 522 458
f 456 458 457
f 456 515 514
f 456 514 521
f 458 522 520
f 458 520 523
f 458 523 459
f 459 465 460
f 459 523 466
f 460 465 461
f 461 465 464
f 462 524 525
f 462 525 463
f 462 466 524
f 463 525 468
f 466 523 525
f 466 525 524
f 467 470 526
f 467 526 478
f 468 525 527
f 468 527 469
f 469 527 528
f 469 528 529
f 469 529 530
f 469 530 531
f 469 531 532
f 469 532 533
f 469 533 526
f 469 526 470
f 471 534 535
f 471 535 481
f 471 475 536
f 471 536 537
f 471 537 534
f 472 474 473
f 472 480 538
f 472 538 539
f 472 539 474
f 474 539 475
f 475 539 540
f 475 540 541
f 475 541 542
f 475 542 543
f 475 543 536
f 478 526 479
f 479 526 533
f 479 533 532
f 479 532 544
f 479 544 480
f 480 544 545
f 480 545 546
f 480 546 547
f 480 547 538
f 481 535 548
f 481 548 549
f 481 549 483
f 481 483 482
f 483 549 487
f 486 495 493
f 487 549 550
f 487 550 551
f 487 551 488
f 488 490 489
f 488 551 491
f 488 491 490
f 491 551 497
f 491 497 496
f 493 495 494
f 497 551 552
f 497 552 499
f 497 499 498
f 499 552 553
f 499 553 554
f 499 554 500
f 500 555 502
f 500 502 501
f 500 554 555
f 502 555 556
f 502 556 507
f 504 507 505
f 505 507 557
f 505 557 506
f 506 557 558
f 506 558 559
f 506 559 510
f 506 510 509
f 507 556 560
f 507 560 557
f 510 559 513
f 510 513 512
f 513 559 561
f 513 561 558
f 513 558 560
f 513 560 562
f 513 562 563
f 513 563 564
f 513 564 565
f 513 565 566
f 513 566 516
f 516 566 567
f 516 567 568
f 516 568 517
f 517 568 518
f 518 569 570
f 518 570 571
f 518 571 572
f 518 572 519
f 518 568 569
f 519 572 573
f 519 573 574
f 519 574 575
f 519 575 576
f 519 576 523
f 519 523 520
f 520 522 521
f 523 577 525
f 523 576 575
f 523 575 578
f 523 578 579
f 523 579 577
f 525 577 579
f 525 579 580
f 525 580 581
f 525 581 582
f 525 582 528
f 525 528 527
f 528 582 583
f 528 583 529
f 529 584 585
f 529 585 586
f 529 586 530
f 529 583 584
f 530 586 587
f 530 587 588
f 530 588 531
f 531 589 544
f 531 544 532
f 531 588 589
f 534 537 590
f 534 590 591
f 534 591 535
f 535 591 592
f 535 592 593
f 535 593 594
f 535 594 548
f 536 543 537
f 537 543 590
f 538 547 595
f 538 595 596
f 538 596 539
f 539 596 597
f 539 597 540
f 540 597 598
f 540 598 599
f 540 599 541
f 541 599 542
f 542 599 598
f 542 598 600
f 542 600 601
f 542 601 602
f 542 602 543
f 543 602 590
f 544 589 545
f 545 587 586
f 545 586 603
f 545 603 547
f 545 547 546
f 545 589 604
f 545 604 587
f 547 603 605
f 547 605 606
f 547 606 596
f 547 596 595
f 548 594 607
f 548 607 549
f 549 607 550
f 550 607 608
f 550 608 551
f 551 609 552
f 551 608 607
f 551 607 610
f 551 610 609
f 552 609 611
f 552 611 553
f 553 611 612
f 553 612 613
f 553 613 554
f 554 614 615
f 554 615 616
f 554 616 617
f 554 617 555
f 554 613 614
f 555 618 619
f 555 619 556
f 555 617 616
f 555 616 618
f 556 619 560
f 557 560 558
f 558 561 559
f 560 619 620
f 560 620 621
f 560 621 563
f 560 563 562
f 563 621 564
f 564 621 622
f 564 622 565
f 565 623 624
f 565 624 625
f 565 625 626
f 565 626 627
f 565 627 566
f 565 622 628
f 565 628 629
f 565 629 623
f 566 627 567
f 567 627 569
f 567 569 568
f 569 627 630
f 569 630 631
f 569 631 570
f 570 632 633
f 570 633 571
f 570 631 630
f 570 630 632
f 571 633 634
f 571 634 583
f 571 583 573
f 571 573 572
f 573 635 636
f 573 636 574
f 573 583 635
f 574 636 575
f 575 636 578
f 578 636 580
f 578 580 579
f 580 636 637
f 580 637 583
f 580 583 581
f 581 583 582
f 583 637 635
f 583 634 638
f 583 638 584
f 584 639 640
f 584 640 585
f 584 638 639
f 585 641 586
f 585 640 641
f 586 641 603
f 587 604 588
f 588 604 589
f 590 602 642
f 590 642 591
f 591 642 592
f 592 642 643
f 592 643 644
f 592 644 645
f 592 645 593
f 593 645 594
f 594 645 646
f 594 646 607
f 596 606 647
f 596 647 648
f 596 648 649
f 596 649 650
f 596 650 651
f 596 651 597
f 597 651 598
f 598 651 650
f 598 650 652
f 598 652 653
f 598 653 600
f 600 653 601
f 601 653 654
f 601 654 655
f 601 655 602
f 602 655 656
f 602 656 642
f 603 641 605
f 605 641 657
f 605 657 606
f 606 658 647
f 606 657 659
f 606 659 660
f 606 660 661
f 606 661 662
f 606 662 663
f 606 663 664
f 606 664 665
f 606 665 658
f 607 646 610
f 609 610 666
f 609 666 611
f 610 646 666
f 611 667 612
f 611 666 668
f 611 668 669
f 611 669 670
f 611 670 671
f 611 671 667
f 612 672 615
f 612 615 673
f 612 673 613
f 612 667 674
f 612 674 672
f 613 673 614
f 614 673 615
f 615 672 675
f 615 675 676
f 615 676 677
f 615 677 616
f 616 678 679
f 616 679 619
f 616 619 618
f 616 677 680
f 616 680 681
f 616 681 623
f 616 623 678
f 619 679 629
f 619 629 620
f 620 629 628
f 620 628 621
f 621 628 622
f 623 681 682
f 623 682 683
f 623 683 684
f 623 684 685
f 623 685 624
f 623 629 678
f 624 685 625
f 625 632 630
f 625 630 626
f 625 685 632
f 626 630 627
f 629 679 678
f 632 685 686
f 632 686 633
f 633 687 634
f 633 686 688
f 633 688 687
f 634 687 638
f 635 637 636
f 638 687 639
f 639 687 689
f 639 689 640
f 640 657 641
f 640 689 657
f 642 656 643
f 643 656 690
f 643 690 644
f 644 646 645
f 644 690 691
f 644 691 666
f 644 666 646
f 647 658 648
f 648 658 652
f 648 652 650
f 648 650 649
f 652 658 692
f 652 692 653
f 653 692 654
f 654 692 693
f 654 693 694
f 654 694 655
f 655 694 695
f 655 695 671
f 655 671 696
f 655 696 697
f 655 697 656
f 656 697 691
f 656 691 690
f 657 689 698
f 657 698 659
f 658 665 692
f 659 698 699
f 659 699 660
f 660 700 701
f 660 701 661
f 660 699 702
f 660 702 703
f 660 703 700
f 661 704 662
f 661 701 705
f 661 705 706
f 661 706 704
f 662 704 663
f 663 707 708
f 663 708 664
f 663 704 707
f 664 708 665
f 665 708 707
f 665 707 694
f 665 694 692
f 666 691 709
f 666 709 668
f 667 710 674
f 667 671 710
f 668 709 711
f 668 711 669
f 669 711 709
f 669 709 670
f 670 709 696
f 670 696 671
f 671 695 710
f 672 674 675
f 674 710 712
f 674 712 675
f 675 712 713
f 675 713 676
f 676 713 714
f 676 714 715
f 676 715 716
f 676 716 717
f 676 717 718
f 676 718 719
f 676 719 720
f 676 720 677
f 677 720 680
f 680 720 721
f 680 721 681
f 681 721 682
f 682 721 683
f 683 722 723
f 683 723 724
f 683 724 725
f 683 725 684
f 683 721 726
f 683 726 722
f 684 725 685
f 685 725 727
f 685 727 686
f 686 728 688
f 686 727 728
f 687 688 729
f 687 729 702
f 687 702 689
f 688 728 730
f 688 730 729
f 689 702 699
f 689 699 698
f 691 697 709
f 692 694 693
f 694 707 731
f 694 731 695
f 695 731 713
f 695 713 712
f 695 712 710
f 696 709 697
f 700 732 701
f 700 703 705
f 700 705 732
f 701 732 705
f 702 729 733
f 702 733 703
f 703 733 724
f 703 724 705
f 704 731 707
f 704 706 731
f 705 724 717
f 705 717 716
f 705 716 706
f 706 713 731
f 706 716 715
f 706 715 713
f 713 715 714
f 717 724 718
f 718 724 719
f 719 724 723
f 719 723 720
f 720 723 726
f 720 726 721
f 722 726 723
f 724 733 725
f 725 733 730
f 725 730 728
f 725 728 727
f 729 730 733

