# https://github.com/mikedh/trimesh
v -0.00908888 0.00041482 0.00890804
v -0.00884825 0.00207192 0.00908837
v -0.00885589 0.00210311 0.00619359
v -0.00887117 0.00217329 -0.00117146
v -0.00908506 -0.00012716 0.00619359
v -0.00908506 -0.00012716 0.00619597
v -0.00896284 -0.00188173 0.00619597
v -0.00892082 -0.00199481 0.00853314
v -0.00842045 -0.00343746 0.00889854
v -0.00541062 -0.01204270 0.01108861
v -0.00780168 -0.00343746 0.00969817
v 0.01569259 0.00217329 0.01547347
v -0.00813017 0.00416961 0.00905277
v -0.00833642 0.00362375 0.00619359
v -0.00735479 -0.00343746 0.00999002
v -0.00900485 -0.00026752 -0.00094131
v -0.00779022 0.00453613 -0.00117621
v -0.00732805 0.00553429 -0.00118095
v 0.00977987 -0.00693102 -0.00748539
v -0.00557104 -0.01155141 -0.00330458
v -0.00906214 -0.00153862 -0.00082504
v -0.00896284 -0.00188173 0.00619359
v -0.00861143 -0.00289159 0.00552685
v -0.00547937 -0.01185554 0.00552685
v 0.01501271 -0.00569112 0.01435116
v 0.00998231 -0.00343746 0.01417320
v 0.01599434 0.00121412 0.01553754
v 0.00744229 -0.00343746 0.01378407
v -0.00545264 -0.01045578 0.01113132
v -0.00450156 -0.01298237 -0.00297002
v -0.00453975 -0.01298237 -0.00012507
v -0.00455503 -0.01298237 0.01102217
v -0.00448628 -0.01305645 0.01101742
v -0.00429530 -0.01298237 0.01105064
v 0.01528390 0.00325723 0.01514840
v -0.00674748 0.00610355 0.00903617
v 0.02672356 0.00668841 0.01573210
v 0.02992819 0.00920721 0.01568228
v -0.00790863 0.00455172 0.00619359
v -0.00800030 0.00432948 0.00552685
v 0.01431754 0.00453613 -0.00606173
v 0.01215184 -0.00283700 -0.00743793
v -0.00691172 0.00594369 0.00619597
v -0.00691172 0.00594369 0.00619359
v -0.00570855 0.00696134 0.00703118
v -0.00476893 0.00766318 -0.00096503
v -0.00516235 0.00733176 -0.00111689
v -0.00534569 0.00661043 -0.00133518
v 0.00913054 -0.00964087 -0.00735726
v 0.02060076 -0.00026752 -0.00793859
v 0.02993201 0.00346778 -0.00838941
v 0.02493217 -0.00026752 -0.00811892
v 0.00869129 -0.01212848 -0.00669763
v 0.00722839 -0.01225325 -0.00627528
v -0.00151082 -0.01298237 -0.00373405
v 0.01188828 -0.01127068 0.01301766
v 0.02993201 -0.00113701 0.01432980
v 0.02993201 0.00082422 0.01489452
v 0.02993201 0.00238384 0.01524094
v 0.02993201 0.00486365 0.01573448
v 0.01625789 0.00007560 0.01542602
v 0.02993201 0.00606456 0.01584600
v 0.02992819 0.00746432 0.01583176
v -0.00432204 -0.01321631 -0.00291544
v -0.00330985 -0.01366471 0.01086319
v 0.02992819 0.01075903 0.01529314
v -0.00222509 0.00668841 0.00989748
v -0.00605231 0.00668841 0.00900295
v 0.02992819 0.00799850 0.01580566
v 0.02993201 0.00668841 0.01583888
v 0.01434428 0.00460241 -0.00604987
v 0.02993201 0.01069275 -0.00725048
v 0.02993201 0.00633749 -0.00827552
v 0.02719719 0.00453613 -0.00817112
v -0.00532277 0.00729666 0.00896498
v -0.00513561 0.00742143 0.00552685
v -0.00355048 0.00827923 0.00838128
v -0.00383313 0.00813886 0.00552685
v -0.00376820 0.00819345 -0.00065420
v 0.02993201 0.01993743 -0.00186906
v 0.02993201 0.01925899 -0.00294155
v 0.02993201 0.01819845 -0.00394285
v 0.02993201 0.01812827 -0.00399980
v 0.02993201 0.01688446 -0.00475196
v 0.02993201 0.01456452 -0.00588614
v 0.02993201 0.01311407 -0.00644849
v 0.02993201 0.01295031 -0.00650544
v 0.02993201 0.00124142 -0.00817586
v 0.02993201 -0.00025972 -0.00777249
v 0.02993201 -0.00105513 -0.00754945
v 0.02843855 0.00453613 -0.00826603
v 0.02993201 0.00453613 -0.00835619
v 0.02993201 0.00269187 -0.00835619
v 0.00868365 -0.01225325 -0.00664306
v 0.02993201 -0.00210008 -0.00715320
v 0.00859580 -0.01298237 -0.00629901
v 0.01130389 -0.01298237 0.01225601
v 0.01150251 -0.01298237 0.01227024
v 0.02993201 -0.00252118 0.01375085
v 0.00850795 -0.01396104 -0.00583157
v 0.00837045 -0.01555185 -0.00464994
v 0.00832843 -0.01682295 -0.00315509
v 0.00833989 -0.01773923 -0.00151551
v 0.00841246 -0.01861652 0.00122740
v 0.00863400 -0.01893624 0.00372117
v 0.00865691 -0.01794198 0.00725422
v 0.01023822 -0.01667868 0.00938971
v 0.01073477 -0.01518924 0.01084421
v 0.02992819 0.01567575 0.01327867
v 0.02993201 0.02078353 0.00619359
v 0.02992819 0.01674410 0.01271158
v 0.02993201 0.00545241 -0.00832535
v -0.00288205 0.00831042 0.00892702
v -0.00285914 0.00848588 0.00863280
v 0.02992819 0.01734065 0.01229634
v 0.02992819 0.02076014 0.00636918
v 0.01223205 0.01421750 0.00703118
v 0.02993201 0.02089660 0.00459910
v 0.01688048 0.01597988 0.00552685
v 0.02993201 0.02089270 0.00176127
v 0.02993201 0.02083812 0.00099961
v 0.02993201 0.02052619 -0.00054980
v 0.02993201 0.01999982 -0.00174330
v 0.02993201 -0.00272393 -0.00684000
v 0.01485228 -0.01298237 0.01114555
v 0.02992819 -0.00422507 0.01276378
v 0.02993201 -0.00313333 0.01345188
v 0.02993201 -0.00410810 -0.00603563
v 0.02993201 -0.00578470 -0.00460248
v 0.02993201 -0.00618240 -0.00413505
v 0.02993201 -0.00457209 -0.00567497
v 0.01677735 -0.01298237 -0.00311001
v 0.01790413 -0.01298237 -0.00219412
v 0.01821734 -0.01298237 -0.00193787
v 0.02993201 -0.00791359 -0.00138501
v 0.01879410 -0.01298237 -0.00145145
v 0.02074208 -0.01298237 0.00123215
v 0.02132648 -0.01298237 0.00282190
v 0.02154420 -0.01298237 0.00374490
v 0.02155566 -0.01298237 0.00473909
v 0.00945521 -0.01856193 0.00525161
v 0.01061636 -0.01757157 0.00745116
v 0.01761766 -0.01298237 0.00978359
v 0.01579572 -0.01298237 0.01073744
v 0.01997817 -0.01298237 0.00794232
v 0.02992819 -0.00772253 0.00915006
v 0.01553599 -0.01298237 0.01087268
v 0.02993201 0.02086931 0.00552685
v 0.02992819 0.02078353 0.00619359
v 0.02992819 0.02074064 0.00646884
v 0.02992819 0.02062756 0.00703118
v 0.02992819 0.02056518 0.00730879
v 0.02992819 0.02031564 0.00812740
v 0.02992819 0.01995303 0.00901481
v 0.02992819 0.01962161 0.00964597
v 0.02992819 0.01956702 0.00974562
v 0.02992819 0.01884179 0.01083472
v 0.02992819 0.01800739 0.01172451
v 0.02984034 0.02083812 0.00552685
v 0.02992819 -0.00489961 0.01224651
v 0.02993201 -0.00343746 0.01325731
v 0.02993201 -0.00700121 -0.00303883
v 0.02993201 -0.00734042 -0.00243615
v 0.02993201 -0.00877528 0.00122977
v 0.02993201 -0.00893904 0.00220498
v 0.02993201 -0.00911060 0.00375439
v 0.02993201 -0.00911450 0.00438080
v 0.02993201 -0.00901702 0.00552685
v 0.02142197 -0.01298237 0.00542719
v 0.02078792 -0.01298237 0.00686746
v 0.02047853 -0.01298237 0.00743692
v 0.02992819 -0.00681795 0.01043372
v 0.02992819 -0.00636176 0.01095810
v 0.02992819 -0.00858033 0.00742031
v 0.02992819 -0.00809684 0.00846433
v 0.02993201 -0.00867780 0.00703118
v 0.02993201 -0.00884936 0.00634308
f 1 2 3
f 1 3 4
f 1 4 5
f 1 5 6
f 1 6 7
f 1 7 8
f 1 8 9
f 1 9 10
f 1 10 11
f 1 11 2
f 2 12 13
f 2 13 14
f 2 14 3
f 2 11 15
f 2 15 12
f 3 14 4
f 4 16 5
f 4 14 17
f 4 17 18
f 4 18 19
f 4 19 20
f 4 20 16
f 5 16 21
f 5 21 6
f 6 21 7
f 7 21 22
f 7 22 23
f 7 23 9
f 7 9 8
f 9 23 24
f 9 24 10
f 10 25 26
f 10 26 27
f 10 27 28
f 10 28 29
f 10 29 11
f 10 24 30
f 10 30 31
f 10 31 32
f 10 32 33
f 10 33 34
f 10 34 25
f 11 29 15
f 12 35 36
f 12 36 13
f 12 15 29
f 12 29 28
f 12 28 27
f 12 27 37
f 12 37 38
f 12 38 35
f 13 39 14
f 13 36 39
f 14 39 40
f 14 40 17
f 16 20 21
f 17 40 18
f 18 41 42
f 18 42 19
f 18 40 39
f 18 39 43
f 18 43 44
f 18 44 45
f 18 45 46
f 18 46 47
f 18 47 48
f 18 48 41
f 19 49 20
f 19 42 50
f 19 50 51
f 19 51 52
f 19 52 49
f 20 49 53
f 20 53 54
f 20 54 55
f 20 55 30
f 20 30 24
f 20 24 23
f 20 23 21
f 21 23 22
f 25 34 56
f 25 56 57
f 25 57 58
f 25 58 59
f 25 59 60
f 25 60 61
f 25 61 26
f 26 61 27
f 27 61 60
f 27 60 62
f 27 62 63
f 27 63 37
f 30 55 64
f 30 64 31
f 31 64 32
f 32 64 33
f 33 64 65
f 33 65 56
f 33 56 34
f 35 38 66
f 35 66 67
f 35 67 68
f 35 68 36
f 36 68 44
f 36 44 43
f 36 43 39
f 37 63 69
f 37 69 38
f 38 69 70
f 38 70 66
f 41 48 71
f 41 71 72
f 41 72 42
f 42 72 73
f 42 73 74
f 42 74 50
f 44 68 45
f 45 68 75
f 45 75 76
f 45 76 46
f 46 76 77
f 46 77 78
f 46 78 79
f 46 79 80
f 46 80 81
f 46 81 82
f 46 82 47
f 47 82 83
f 47 83 84
f 47 84 85
f 47 85 86
f 47 86 48
f 48 86 87
f 48 87 72
f 48 72 71
f 49 52 88
f 49 88 89
f 49 89 90
f 49 90 53
f 50 74 91
f 50 91 51
f 51 91 92
f 51 92 112
f 51 112 73
f 51 73 72
f 51 72 87
f 51 87 86
f 51 86 85
f 51 85 84
f 51 84 83
f 51 83 82
f 51 82 81
f 51 81 80
f 51 80 123
f 51 123 122
f 51 122 121
f 51 121 120
f 51 120 118
f 51 118 148
f 51 148 110
f 51 110 70
f 51 70 62
f 51 62 60
f 51 60 59
f 51 59 58
f 51 58 57
f 51 57 99
f 51 99 127
f 51 127 161
f 51 161 176
f 51 176 177
f 51 177 168
f 51 168 167
f 51 167 166
f 51 166 165
f 51 165 164
f 51 164 135
f 51 135 163
f 51 163 162
f 51 162 130
f 51 130 129
f 51 129 131
f 51 131 128
f 51 128 124
f 51 124 95
f 51 95 90
f 51 90 89
f 51 89 88
f 51 88 93
f 51 93 52
f 52 93 88
f 53 94 54
f 53 90 95
f 53 95 94
f 54 94 96
f 54 96 55
f 55 96 64
f 56 65 97
f 56 97 98
f 56 98 99
f 56 99 57
f 62 70 63
f 63 70 69
f 64 96 100
f 64 100 101
f 64 101 102
f 64 102 103
f 64 103 104
f 64 104 105
f 64 105 65
f 65 105 106
f 65 106 107
f 65 107 108
f 65 108 98
f 65 98 97
f 66 70 109
f 66 109 67
f 67 109 75
f 67 75 68
f 70 110 111
f 70 111 109
f 73 112 91
f 73 91 74
f 75 113 114
f 75 114 77
f 75 77 76
f 75 109 111
f 75 111 115
f 75 115 113
f 77 79 78
f 77 114 116
f 77 116 117
f 77 117 118
f 77 118 119
f 77 119 79
f 79 119 118
f 79 118 120
f 79 120 121
f 79 121 122
f 79 122 123
f 79 123 80
f 91 112 92
f 94 100 96
f 94 95 100
f 95 124 100
f 98 108 125
f 98 125 126
f 98 126 127
f 98 127 99
f 100 124 128
f 100 128 101
f 101 129 130
f 101 130 102
f 101 128 131
f 101 131 129
f 102 132 133
f 102 133 103
f 102 130 132
f 103 133 134
f 103 134 135
f 103 135 136
f 103 136 104
f 104 136 135
f 104 135 137
f 104 137 105
f 105 137 138
f 105 138 139
f 105 139 140
f 105 140 141
f 105 141 106
f 106 141 142
f 106 142 107
f 107 143 144
f 107 144 108
f 107 142 145
f 107 145 146
f 107 146 143
f 108 144 147
f 108 147 125
f 110 148 149
f 110 149 116
f 110 116 150
f 110 150 151
f 110 151 152
f 110 152 153
f 110 153 154
f 110 154 155
f 110 155 156
f 110 156 157
f 110 157 158
f 110 158 115
f 110 115 111
f 113 115 158
f 113 158 157
f 113 157 156
f 113 156 114
f 114 156 155
f 114 155 154
f 114 154 153
f 114 153 152
f 114 152 151
f 114 151 150
f 114 150 116
f 116 149 117
f 117 149 159
f 117 159 118
f 118 159 148
f 125 147 160
f 125 160 126
f 126 160 161
f 126 161 127
f 130 162 132
f 132 162 133
f 133 162 163
f 133 163 134
f 134 163 135
f 135 164 137
f 137 164 138
f 138 164 165
f 138 165 166
f 138 166 139
f 139 166 167
f 139 167 140
f 140 167 168
f 140 168 141
f 141 168 169
f 141 169 170
f 141 170 142
f 142 170 171
f 142 171 145
f 143 146 172
f 143 172 144
f 144 172 173
f 144 173 147
f 145 171 174
f 145 174 175
f 145 175 146
f 146 175 176
f 146 176 172
f 147 173 160
f 148 159 149
f 160 173 161
f 161 173 172
f 161 172 176
f 168 177 170
f 168 170 169
f 170 177 176
f 170 176 171
f 171 176 174
f 174 176 175

