# https://github.com/mikedh/trimesh
v 0.01506285 0.00284157 -0.00743205
v 0.01425803 0.00415987 -0.00724934
v 0.01474904 0.00376891 -0.00724934
v 0.02143866 0.00646963 0.00144967
v 0.03174259 0.00395970 0.01259476
v 0.03017725 -0.00875258 0.00733445
v 0.02154572 -0.00666019 -0.00194813
v 0.01425803 -0.00735296 -0.00676940
v 0.01354181 -0.00742021 -0.00724116
v 0.01270746 -0.00846171 -0.00724662
v 0.01214260 -0.00875102 -0.00725480
v 0.01189156 -0.00875102 -0.00726025
v 0.01141531 -0.00875102 -0.00726025
v -0.00227773 -0.00443019 -0.00720299
v -0.00352188 -0.00341214 -0.00720026
v -0.00449283 -0.00198594 -0.00719753
v -0.00488786 -0.00015940 -0.00720026
v -0.00467742 0.00136532 -0.00720026
v -0.00400181 0.00285564 -0.00720026
v -0.00299394 0.00390340 -0.00720299
v -0.00018814 0.00498556 -0.00721117
v 0.01368949 0.00450078 -0.00724662
v 0.01383347 0.00449452 -0.00724662
v 0.01425803 0.00460868 -0.00676122
v 0.02079259 0.00696536 0.00157511
v 0.03233697 0.00371418 0.01351102
v 0.03233697 -0.00875258 0.01017049
v 0.03174259 -0.00875258 0.00918878
v 0.02802121 -0.00875258 0.00492109
v 0.01368949 -0.00826154 -0.00666032
v 0.01639561 -0.00875258 -0.00412425
v 0.01368949 -0.00875102 -0.00612038
v 0.01425803 -0.00875258 -0.00569770
v 0.00950663 -0.00875102 -0.00700392
v -0.00201930 -0.00452558 0.00147966
v -0.00256200 -0.00422376 0.00147966
v 0.00499520 -0.00709962 0.00147966
v -0.00274659 -0.00408458 0.00720083
v -0.00317853 -0.00371239 0.00720083
v -0.00352188 -0.00341214 0.00147966
v -0.00389844 -0.00291954 0.00147966
v -0.00464419 -0.00150585 0.00147966
v -0.00414210 -0.00259270 0.00720083
v -0.00479925 -0.00078336 0.00147966
v -0.00485832 0.00035353 0.00720083
v -0.00478818 0.00075700 0.00147966
v -0.00468111 0.00136376 0.00147966
v -0.00432301 0.00218789 0.00147966
v -0.00405719 0.00277745 0.00147966
v -0.00317853 0.00370636 0.00720083
v -0.00317853 0.00371105 0.00464567
v -0.00299763 0.00390027 0.00147966
v -0.00213744 0.00445543 0.00147966
v -0.00213744 0.00445543 -0.00720026
v 0.01184726 0.00494803 -0.00703937
v -0.00117756 0.00482449 -0.00720026
v -0.00056471 0.00492457 0.00147966
v -0.00017338 0.00498713 0.00147966
v 0.01614825 0.00722339 0.00064248
v 0.01425803 0.00622411 -0.00273349
v 0.01368949 0.00452893 -0.00723026
v 0.01425803 0.00464934 -0.00670668
v 0.01820830 0.00350619 0.01447091
v 0.03282799 0.00315277 0.01560805
v 0.03270247 0.00344051 0.01453363
v 0.01425803 0.00549380 -0.00471872
v 0.03270247 -0.00875258 0.01126400
v 0.01425803 -0.00875258 0.01261930
v 0.00950663 -0.00875102 -0.00354340
v 0.00948448 -0.00874476 0.00147966
v -0.00188639 -0.00457406 0.00585098
v -0.00184947 -0.00458657 0.00720083
v 0.00946233 -0.00873694 0.00679724
v 0.00659746 -0.00685410 0.00996870
v 0.00629104 -0.00658982 0.01006687
v 0.01425434 -0.00875102 0.01261930
v -0.00317853 -0.00350910 0.00730718
v -0.00352188 -0.00340745 0.00720083
v 0.01470843 -0.00875258 0.01282928
v -0.00474018 -0.00118839 0.00720356
v -0.00317853 -0.00101794 0.00786075
v -0.00317853 -0.00289452 0.00749261
v 0.01425803 0.00023625 0.01507357
v -0.00317853 0.00139504 0.00783348
v -0.00468111 0.00136376 0.00720083
v 0.01425434 0.00079609 0.01516901
v 0.02565105 0.00199085 0.01994665
v -0.00409042 0.00272585 0.00720083
v -0.00299394 0.00389402 0.00720083
v 0.01425434 0.00227234 0.01506266
v 0.01425803 0.00274930 0.01487723
v 0.00344832 0.00346866 0.01006687
v -0.00213374 0.00445543 0.00720083
v -0.00117756 0.00482449 0.00147966
v 0.01368949 0.00536401 -0.00526957
v 0.01425803 0.00600674 -0.00332525
v -0.00016230 0.00498713 0.00720083
v 0.01425803 0.00531709 0.00771895
v 0.01425803 0.00431312 0.01145216
v 0.00647194 0.00474161 0.00896517
v 0.02670692 0.00189546 0.02030388
v 0.02782185 0.00186262 0.02042660
v 0.02892940 0.00189389 0.02030661
v 0.03048736 0.00205497 0.01970395
v 0.03172782 0.00234740 0.01861317
v 0.03255848 0.00272428 0.01720333
v 0.01425803 0.00382521 0.01290836
v 0.01425803 0.00331540 0.01432093
v 0.03267293 -0.00875258 0.01366100
v 0.03271723 -0.00875258 0.01338013
v 0.03282799 -0.00875258 0.01241751
v 0.01408820 -0.00875102 0.01253749
v 0.01368949 -0.00875102 0.01228116
v 0.01199862 -0.00875102 0.01006687
v 0.00953617 -0.00875102 0.00684087
v 0.00952878 -0.00875102 0.00682178
v 0.00433067 -0.00685410 0.00697995
v 0.01368949 -0.00874945 0.01228934
v 0.01425803 -0.00860402 0.01269566
v 0.01425803 -0.00850706 0.01272566
v 0.01544680 -0.00875258 0.01312379
v 0.01425803 -0.00640842 0.01329286
v 0.02557352 -0.00875258 0.01703698
v 0.02670692 -0.00875258 0.01744875
v 0.01425803 0.00319499 0.01453363
v -0.00117386 0.00482136 0.00720083
v 0.01368949 0.00474004 0.00985144
v 0.01368949 0.00468218 0.01006687
v 0.01368949 0.00442728 0.01101312
v 0.01342737 0.00447732 0.01081405
v 0.02755604 -0.00875258 0.01754965
v 0.02782185 -0.00875258 0.01757965
v 0.02892940 -0.00875258 0.01745148
v 0.02974530 -0.00875258 0.01715970
v 0.03009972 -0.00875258 0.01701244
v 0.03117774 -0.00875258 0.01623798
v 0.03144355 -0.00875258 0.01599256
v 0.03221514 -0.00875258 0.01484450
v 0.03236651 -0.00875258 0.01456363
f 1 2 3
f 1 3 4
f 1 4 5
f 1 5 6
f 1 6 7
f 1 7 8
f 1 8 9
f 1 9 10
f 1 10 11
f 1 11 12
f 1 12 13
f 1 13 14
f 1 14 15
f 1 15 16
f 1 16 17
f 1 17 18
f 1 18 19
f 1 19 20
f 1 20 21
f 1 21 22
f 1 22 23
f 1 23 2
f 2 24 4
f 2 4 3
f 2 23 24
f 4 24 25
f 4 25 5
f 5 26 27
f 5 27 28
f 5 28 6
f 5 25 26
f 6 28 27
f 6 27 67
f 6 67 111
f 6 111 110
f 6 110 109
f 6 109 139
f 6 139 138
f 6 138 137
f 6 137 136
f 6 136 135
f 6 135 134
f 6 134 133
f 6 133 132
f 6 132 131
f 6 131 124
f 6 124 123
f 6 123 121
f 6 121 79
f 6 79 68
f 6 68 33
f 6 33 31
f 6 31 29
f 6 29 7
f 7 29 30
f 7 30 8
f 8 30 10
f 8 10 9
f 10 30 31
f 10 31 32
f 10 32 11
f 11 32 33
f 11 33 12
f 12 33 13
f 13 33 34
f 13 34 14
f 14 35 36
f 14 36 15
f 14 34 37
f 14 37 35
f 15 36 38
f 15 38 39
f 15 39 40
f 15 40 41
f 15 41 16
f 16 42 17
f 16 41 43
f 16 43 42
f 17 42 44
f 17 44 45
f 17 45 46
f 17 46 18
f 18 46 47
f 18 47 48
f 18 48 49
f 18 49 19
f 19 49 50
f 19 50 51
f 19 51 52
f 19 52 20
f 20 52 53
f 20 53 54
f 20 54 21
f 21 55 22
f 21 54 56
f 21 56 57
f 21 57 58
f 21 58 59
f 21 59 60
f 21 60 55
f 22 55 23
f 23 55 61
f 23 61 62
f 23 62 24
f 24 62 25
f 25 59 63
f 25 63 64
f 25 64 65
f 25 65 26
f 25 62 66
f 25 66 59
f 26 65 67
f 26 67 27
f 29 31 30
f 31 33 32
f 33 68 69
f 33 69 34
f 34 69 70
f 34 70 37
f 35 37 71
f 35 71 36
f 36 71 72
f 36 72 38
f 37 70 73
f 37 73 71
f 38 72 74
f 38 74 75
f 38 75 76
f 38 76 39
f 39 77 78
f 39 78 40
f 39 76 79
f 39 79 77
f 40 78 41
f 41 78 43
f 42 43 80
f 42 80 44
f 43 81 80
f 43 78 77
f 43 77 82
f 43 82 83
f 43 83 81
f 44 80 45
f 45 84 85
f 45 85 46
f 45 80 81
f 45 81 86
f 45 86 87
f 45 87 84
f 46 85 47
f 47 85 88
f 47 88 48
f 48 88 49
f 49 88 50
f 50 89 51
f 50 88 90
f 50 90 87
f 50 87 91
f 50 91 92
f 50 92 89
f 51 89 52
f 52 89 93
f 52 93 53
f 53 93 94
f 53 94 56
f 53 56 54
f 55 95 62
f 55 62 61
f 55 60 96
f 55 96 95
f 56 94 57
f 57 94 97
f 57 97 58
f 58 97 59
f 59 98 99
f 59 99 63
f 59 66 96
f 59 96 60
f 59 97 100
f 59 100 98
f 62 95 66
f 63 87 101
f 63 101 102
f 63 102 103
f 63 103 104
f 63 104 105
f 63 105 106
f 63 106 64
f 63 99 107
f 63 107 108
f 63 108 87
f 64 106 109
f 64 109 110
f 64 110 111
f 64 111 67
f 64 67 65
f 66 95 96
f 68 76 112
f 68 112 113
f 68 113 114
f 68 114 115
f 68 115 116
f 68 116 69
f 68 79 76
f 69 116 70
f 70 116 73
f 71 73 117
f 71 117 72
f 72 117 73
f 72 73 74
f 73 116 115
f 73 115 118
f 73 118 74
f 74 118 112
f 74 112 75
f 75 112 76
f 77 79 119
f 77 119 120
f 77 120 82
f 79 121 119
f 81 83 86
f 82 120 121
f 82 121 122
f 82 122 83
f 83 122 87
f 83 87 86
f 84 88 85
f 84 87 90
f 84 90 88
f 87 122 123
f 87 123 124
f 87 124 101
f 87 108 125
f 87 125 93
f 87 93 91
f 89 92 93
f 91 93 92
f 93 126 94
f 93 125 126
f 94 126 97
f 97 126 125
f 97 125 108
f 97 108 107
f 97 107 100
f 98 100 127
f 98 127 128
f 98 128 99
f 99 128 129
f 99 129 100
f 99 100 107
f 100 129 130
f 100 130 127
f 101 124 131
f 101 131 102
f 102 131 132
f 102 132 133
f 102 133 103
f 103 133 134
f 103 134 104
f 104 134 135
f 104 135 136
f 104 136 137
f 104 137 105
f 105 137 138
f 105 138 106
f 106 138 139
f 106 139 109
f 112 118 113
f 113 118 114
f 114 118 115
f 119 121 120
f 121 123 122
f 127 130 128
f 128 130 129

