# https://github.com/mikedh/trimesh
v 0.02993201 -0.00862551 0.00727029
v 0.02993558 -0.00791936 -0.00138363
v 0.02993558 -0.00878818 0.00123484
v 0.02993558 -0.00895085 0.00220972
v 0.02993558 -0.00911722 0.00376268
v 0.02993558 -0.00912461 0.00438729
v 0.02993558 -0.00901740 0.00555323
v 0.02993558 -0.00885473 0.00634195
v 0.02993558 -0.00862551 0.00726784
v 0.02993201 -0.00858114 0.00742216
v 0.02993201 -0.00567523 0.00053185
v 0.02993558 -0.00734262 -0.00243934
v 0.04257838 -0.00126831 -0.00298067
v 0.04377157 -0.00162693 -0.00130034
v 0.03675176 -0.00567523 0.00123484
v 0.03692681 -0.00567523 0.00171493
v 0.03741266 -0.00567523 0.00377737
v 0.04408952 -0.00259556 0.00378962
v 0.03710543 -0.00567523 0.00565855
v 0.03698040 -0.00567523 0.00594024
v 0.04466111 -0.00176372 0.00726784
v 0.04497191 -0.00158256 0.00739766
v 0.04052781 -0.00290612 0.00901920
v 0.02993201 -0.00810052 0.00846318
v 0.02993558 0.00346396 -0.00838661
v 0.02993558 0.00269127 -0.00835477
v 0.02993558 0.00123831 -0.00817351
v 0.02993558 -0.00026270 -0.00777425
v 0.02993558 -0.00105388 -0.00754890
v 0.02993558 -0.00210385 -0.00715209
v 0.02993558 -0.00272496 -0.00684346
v 0.02993558 -0.00410767 -0.00603759
v 0.02993558 -0.00456611 -0.00567507
v 0.02993558 -0.00578984 -0.00460466
v 0.02993558 -0.00618173 -0.00413926
v 0.02993558 -0.00700618 -0.00304435
v 0.02993201 0.02072565 0.00041917
v 0.03978475 -0.00132746 -0.00458506
v 0.04643660 0.00022531 -0.00245649
v 0.04768338 -0.00016288 0.00053185
v 0.04365726 -0.00251423 0.00123729
v 0.04089577 -0.00390433 0.00571244
v 0.05028410 0.00082054 0.00175412
v 0.04500049 -0.00157147 0.00737562
v 0.04494333 -0.00161953 0.00727029
v 0.04500049 -0.00156777 0.00739521
v 0.04500049 -0.00153450 0.00745645
v 0.02993201 -0.00772342 0.00914902
v 0.04500049 0.00041017 0.01051827
v 0.04106011 -0.00124982 0.01102530
v 0.02993558 0.00546408 -0.00832537
v 0.04011341 0.00872121 -0.00884466
v 0.04084219 0.00693552 -0.00859971
v 0.04119228 0.00480970 -0.00799715
v 0.04185676 0.00352311 -0.00740683
v 0.03944894 0.00026968 -0.00613066
v 0.02993201 0.02083286 0.00100214
v 0.04879083 0.02791278 0.00192559
v 0.04686529 0.02692935 0.00053185
v 0.03046787 0.02072565 -0.00054591
v 0.02993558 0.02052600 -0.00054836
v 0.02993558 0.01999732 -0.00174859
v 0.02993558 0.01993447 -0.00187107
v 0.02993558 0.01925790 -0.00294393
v 0.02993558 0.01819314 -0.00394330
v 0.02993558 0.01812660 -0.00400209
v 0.02993558 0.01688068 -0.00475162
v 0.02993558 0.01456630 -0.00588817
v 0.02993558 0.01310965 -0.00644664
v 0.02993558 0.01295068 -0.00650543
v 0.02993558 0.01069176 -0.00725007
v 0.02993558 0.00634399 -0.00827639
v 0.04639016 0.00311274 -0.00550606
v 0.05056632 0.00356748 -0.00302966
v 0.05135940 0.00215149 0.00659179
v 0.04599719 -0.00098733 0.00726784
v 0.05407444 0.00484667 0.00053185
v 0.05371720 0.00375233 0.00439219
v 0.04600077 -0.00098363 0.00727029
v 0.04638301 0.00144165 0.01098366
v 0.02993201 -0.00681763 0.01043499
v 0.04500049 0.00073921 0.01099346
v 0.04100652 0.00103128 0.01306080
v 0.02993201 -0.00490254 0.01225003
v 0.02993201 -0.00636289 0.01095917
v 0.03901668 0.01103189 -0.00870259
v 0.04451821 0.01460327 -0.00862421
v 0.04725111 0.01274734 -0.00852133
v 0.04913021 0.00916856 -0.00735539
v 0.02993201 0.02088832 0.00176147
v 0.05199529 0.02800890 0.00698126
v 0.05385652 0.02864480 0.00161695
v 0.04896945 0.02755416 0.00053185
v 0.04535773 0.02669644 0.00286618
v 0.04617224 0.02697002 0.00413499
v 0.04625084 0.02684802 0.00539156
v 0.04934098 0.02679626 -0.00238055
v 0.04544347 0.02619733 -0.00050182
v 0.03200044 0.02072565 -0.00181473
v 0.03216120 0.02072565 -0.00192985
v 0.03325793 0.02072565 -0.00257406
v 0.03431894 0.02072565 -0.00319622
v 0.03835935 0.02072565 -0.00469529
v 0.04403593 0.02072565 -0.00621640
v 0.04249622 0.01715426 -0.00759299
v 0.04064213 0.01487686 -0.00807308
v 0.05189169 0.00789676 -0.00538603
v 0.05567489 0.00831823 -0.00231442
v 0.05513545 0.00598537 0.00018647
v 0.05309560 0.00414053 0.00726784
v 0.05242755 0.00656581 0.01147845
v 0.05502471 0.00580052 0.00053185
v 0.05893294 0.00939778 0.00455630
v 0.05926160 0.01050321 0.00726784
v 0.05955811 0.01154579 0.00978588
v 0.04500049 0.00225871 0.01220104
v 0.04946959 0.00799658 0.01437371
v 0.02993201 -0.00313534 0.01345516
v 0.02993201 -0.00422228 0.01276687
v 0.04264269 0.00364881 0.01426838
v 0.05115934 0.02085504 -0.00720842
v 0.05102359 0.02072565 -0.00723782
v 0.05211318 0.01784931 -0.00761993
v 0.05772546 0.01791956 -0.00618455
v 0.02993201 0.02088832 0.00460284
v 0.05287054 0.02790908 0.00727029
v 0.05707885 0.02774271 0.00727029
v 0.05694310 0.02861153 0.00342220
v 0.04636872 0.02661510 0.00664323
v 0.04954104 0.02687020 0.00886489
v 0.05162376 0.02783514 0.00727029
v 0.05268120 0.02687020 0.00945765
v 0.05449956 0.02826400 0.00052940
v 0.02993201 0.02086613 0.00552138
v 0.02993201 0.02076631 0.00636889
v 0.02993201 0.02057776 0.00727029
v 0.05573919 0.02751719 -0.00159673
v 0.05071636 0.02463716 -0.00531010
v 0.04662237 0.02482941 -0.00389431
v 0.04672239 0.02329512 -0.00538113
v 0.04662237 0.02268140 -0.00572406
v 0.04642231 0.02136524 -0.00646134
v 0.04581857 0.02072565 -0.00663525
v 0.05857570 0.01498777 -0.00449933
v 0.06405936 0.01908044 -0.00139342
v 0.06257681 0.01534639 0.00053185
v 0.05765758 0.00900589 0.00053185
v 0.05770402 0.01336845 0.01308040
v 0.06500963 0.01783822 0.00153612
v 0.06477027 0.01668843 0.00467632
v 0.06404507 0.01624478 0.00726784
v 0.06508108 0.01764598 0.00782142
v 0.06227673 0.01672170 0.01175524
v 0.04499692 0.00514613 0.01430512
v 0.04557565 0.00765645 0.01546616
v 0.04500049 0.00686528 0.01523102
v 0.05302772 0.01409308 0.01540248
v 0.02993201 -0.00251792 0.01375155
v 0.04970180 0.02173865 -0.00662545
v 0.05105574 0.02173865 -0.00676507
v 0.05250972 0.02173865 -0.00661076
v 0.05701097 0.02173865 -0.00591266
v 0.05774332 0.02173865 -0.00577305
v 0.05627863 0.02071825 -0.00625559
v 0.05788622 0.02072565 -0.00584408
v 0.06206952 0.02071825 -0.00403883
v 0.05712886 0.02742476 0.00866893
v 0.06642788 0.02240412 0.00468367
v 0.06612422 0.02293281 0.00106583
v 0.06566695 0.02304372 0.00053185
v 0.05980461 0.02624539 0.00053185
v 0.05624647 0.02798302 0.00052940
v 0.04905161 0.02664098 0.00923720
v 0.03091085 0.02092899 0.00726784
v 0.04499692 0.02594593 0.00727274
v 0.04644732 0.02646352 0.00726784
v 0.04960891 0.02687020 0.00887958
v 0.05325636 0.02592005 0.01151520
v 0.02993201 0.02056667 0.00730948
v 0.06294834 0.02363525 -0.00264509
v 0.05723961 0.02483680 -0.00450178
v 0.04814779 0.02268140 -0.00599840
v 0.06215883 0.02071825 -0.00397270
v 0.06232674 0.02071825 -0.00381838
v 0.06480957 0.02071825 -0.00051897
v 0.06468454 0.01826339 0.00053185
v 0.05599283 0.01701377 0.01487584
v 0.06632071 0.01933184 0.00541116
v 0.06537044 0.01803787 0.00726784
v 0.06503106 0.01748330 0.00726784
v 0.06484530 0.02116560 0.00954339
v 0.05980461 0.02033375 0.01346006
v 0.04500049 0.00740135 0.01544412
v 0.04500049 0.00733111 0.01542452
v 0.04505407 0.01133505 0.01617895
v 0.04296778 0.00945693 0.01602464
v 0.02993201 0.00239550 0.01524326
v 0.02993201 0.00082424 0.01489299
v 0.02993201 -0.00113521 0.01432962
v 0.05060205 0.01734651 0.01600749
v 0.05795052 0.02187914 -0.00570446
v 0.06221957 0.02082177 -0.00396290
v 0.05716816 0.02469632 0.01238965
v 0.06558836 0.02174604 0.00726784
v 0.06565981 0.02015260 0.00726784
v 0.06570982 0.02271468 0.00052940
v 0.04652591 0.02630454 0.00787286
v 0.04499692 0.02575738 0.00789735
v 0.04499692 0.02522500 0.00919066
v 0.04499692 0.02474438 0.01011411
v 0.04692245 0.02539506 0.01017289
v 0.04798703 0.02463716 0.01188506
v 0.02993201 0.02031527 0.00812760
v 0.05021623 0.02293650 0.01409692
v 0.05285624 0.02073304 0.01533389
v 0.04364297 0.01361615 0.01612262
v 0.02993201 0.00747899 0.01583358
v 0.02993201 0.00607410 0.01584583
v 0.02993201 0.00547887 0.01579194
v 0.02993201 0.00487625 0.01573315
v 0.04806205 0.01817466 0.01594381
v 0.04500049 0.01500995 0.01606873
v 0.02993201 0.01995665 0.00901675
v 0.02993201 0.01962761 0.00964871
v 0.02993201 0.01956846 0.00974914
v 0.04499692 0.02380162 0.01153234
v 0.04499692 0.02367962 0.01171360
v 0.04499692 0.02245958 0.01301426
v 0.04565424 0.02265183 0.01307060
v 0.04599005 0.02190871 0.01381523
v 0.04633657 0.02114342 0.01445699
v 0.04782985 0.01993077 0.01547106
v 0.02993201 0.00921293 0.01568172
v 0.02993201 0.00800768 0.01580419
v 0.04499692 0.01679934 0.01586542
v 0.02993201 0.01884383 0.01083670
v 0.02993201 0.01800829 0.01172830
v 0.02993201 0.01744633 0.01221084
v 0.04499692 0.02163513 0.01371725
v 0.04499692 0.02078480 0.01431492
v 0.02993201 0.01674758 0.01271543
v 0.02993201 0.01567913 0.01328125
v 0.02993201 0.01076200 0.01529470
v 0.02993201 0.01733912 0.01229902
f 1 2 3
f 1 3 4
f 1 4 5
f 1 5 6
f 1 6 7
f 1 7 8
f 1 8 9
f 1 9 10
f 1 10 24
f 1 24 48
f 1 48 81
f 1 81 85
f 1 85 84
f 1 84 119
f 1 119 118
f 1 118 158
f 1 158 199
f 1 199 198
f 1 198 197
f 1 197 220
f 1 220 219
f 1 219 218
f 1 218 217
f 1 217 234
f 1 234 233
f 1 233 243
f 1 243 242
f 1 242 241
f 1 241 244
f 1 244 238
f 1 238 237
f 1 237 236
f 1 236 225
f 1 225 224
f 1 224 223
f 1 223 213
f 1 213 179
f 1 179 136
f 1 136 135
f 1 135 134
f 1 134 125
f 1 125 90
f 1 90 57
f 1 57 37
f 1 37 11
f 1 11 2
f 2 11 12
f 2 12 13
f 2 13 14
f 2 14 15
f 2 15 3
f 3 15 4
f 4 15 16
f 4 16 17
f 4 17 5
f 5 17 6
f 6 17 18
f 6 18 19
f 6 19 7
f 7 19 20
f 7 20 8
f 8 20 9
f 9 20 21
f 9 21 22
f 9 22 10
f 10 23 24
f 10 22 23
f 11 25 26
f 11 26 27
f 11 27 28
f 11 28 29
f 11 29 30
f 11 30 31
f 11 31 32
f 11 32 33
f 11 33 34
f 11 34 35
f 11 35 36
f 11 36 12
f 11 37 25
f 12 36 13
f 13 36 35
f 13 35 38
f 13 38 39
f 13 39 14
f 14 39 40
f 14 40 41
f 14 41 15
f 15 41 16
f 16 41 18
f 16 18 17
f 18 42 19
f 18 41 43
f 18 43 44
f 18 44 45
f 18 45 21
f 18 21 42
f 19 42 20
f 20 42 21
f 21 45 22
f 22 45 44
f 22 44 46
f 22 46 47
f 22 47 23
f 23 48 24
f 23 47 49
f 23 49 50
f 23 50 48
f 25 51 52
f 25 52 26
f 25 37 51
f 26 52 27
f 27 52 53
f 27 53 28
f 28 53 54
f 28 54 29
f 29 54 55
f 29 55 30
f 30 55 31
f 31 55 32
f 32 55 56
f 32 56 33
f 33 56 34
f 34 56 38
f 34 38 35
f 37 57 58
f 37 58 59
f 37 59 60
f 37 60 61
f 37 61 62
f 37 62 63
f 37 63 64
f 37 64 65
f 37 65 66
f 37 66 67
f 37 67 68
f 37 68 69
f 37 69 70
f 37 70 71
f 37 71 72
f 37 72 51
f 38 56 73
f 38 73 39
f 39 43 40
f 39 73 74
f 39 74 43
f 40 43 41
f 43 75 76
f 43 76 44
f 43 74 77
f 43 77 78
f 43 78 75
f 44 76 46
f 46 76 47
f 47 76 79
f 47 79 75
f 47 75 80
f 47 80 49
f 48 50 81
f 49 80 82
f 49 82 50
f 50 82 83
f 50 83 84
f 50 84 85
f 50 85 81
f 51 72 86
f 51 86 52
f 52 86 87
f 52 87 88
f 52 88 53
f 53 88 89
f 53 89 54
f 54 89 55
f 55 89 73
f 55 73 56
f 57 90 58
f 58 91 92
f 58 92 93
f 58 93 59
f 58 90 94
f 58 94 95
f 58 95 96
f 58 96 91
f 59 93 97
f 59 97 98
f 59 98 60
f 60 99 62
f 60 62 61
f 60 98 97
f 60 97 99
f 62 99 63
f 63 99 100
f 63 100 64
f 64 100 101
f 64 101 102
f 64 102 65
f 65 102 103
f 65 103 66
f 66 103 104
f 66 104 67
f 67 104 68
f 68 104 105
f 68 105 106
f 68 106 69
f 69 106 70
f 70 106 71
f 71 106 72
f 72 106 86
f 73 89 107
f 73 107 74
f 74 107 108
f 74 108 109
f 74 109 77
f 75 79 76
f 75 78 110
f 75 110 111
f 75 111 80
f 77 112 78
f 77 109 112
f 78 112 113
f 78 113 114
f 78 114 115
f 78 115 110
f 80 116 83
f 80 83 82
f 80 111 117
f 80 117 116
f 83 118 119
f 83 119 84
f 83 116 120
f 83 120 118
f 86 106 87
f 87 106 105
f 87 105 121
f 87 121 122
f 87 122 123
f 87 123 88
f 88 123 124
f 88 124 89
f 89 124 107
f 90 125 94
f 91 126 127
f 91 127 128
f 91 128 92
f 91 96 129
f 91 129 130
f 91 130 131
f 91 131 132
f 91 132 126
f 92 128 133
f 92 133 97
f 92 97 93
f 94 125 134
f 94 134 95
f 95 134 135
f 95 135 96
f 96 135 136
f 96 136 129
f 97 133 137
f 97 137 138
f 97 138 139
f 97 139 102
f 97 102 101
f 97 101 100
f 97 100 99
f 102 139 140
f 102 140 103
f 103 140 104
f 104 140 141
f 104 141 142
f 104 142 143
f 104 143 105
f 105 143 121
f 107 124 144
f 107 144 108
f 108 144 145
f 108 145 146
f 108 146 147
f 108 147 109
f 109 147 113
f 109 113 112
f 110 115 111
f 111 115 148
f 111 148 117
f 113 147 149
f 113 149 150
f 113 150 151
f 113 151 114
f 114 151 115
f 115 151 152
f 115 152 153
f 115 153 148
f 116 117 154
f 116 154 120
f 117 155 156
f 117 156 154
f 117 148 157
f 117 157 155
f 118 120 158
f 120 154 156
f 120 156 158
f 121 143 142
f 121 142 159
f 121 159 160
f 121 160 161
f 121 161 162
f 121 162 163
f 121 163 164
f 121 164 123
f 121 123 122
f 123 164 124
f 124 164 163
f 124 163 165
f 124 165 166
f 124 166 144
f 126 167 127
f 126 132 167
f 127 167 168
f 127 168 128
f 128 169 170
f 128 170 171
f 128 171 172
f 128 172 133
f 128 168 169
f 129 173 130
f 129 136 174
f 129 174 175
f 129 175 176
f 129 176 173
f 130 173 177
f 130 177 131
f 131 177 132
f 132 177 178
f 132 178 167
f 133 172 137
f 136 179 174
f 137 172 171
f 137 171 180
f 137 180 181
f 137 181 138
f 138 181 161
f 138 161 160
f 138 160 159
f 138 159 182
f 138 182 140
f 138 140 139
f 140 182 141
f 141 182 142
f 142 182 159
f 144 166 183
f 144 183 184
f 144 184 145
f 145 184 185
f 145 185 169
f 145 169 186
f 145 186 146
f 146 186 149
f 146 149 147
f 148 153 187
f 148 187 157
f 149 186 169
f 149 169 188
f 149 188 150
f 150 188 189
f 150 189 190
f 150 190 151
f 151 190 152
f 152 190 189
f 152 189 191
f 152 191 153
f 153 191 192
f 153 192 187
f 155 193 194
f 155 194 156
f 155 157 195
f 155 195 196
f 155 196 197
f 155 197 198
f 155 198 193
f 156 194 199
f 156 199 158
f 157 187 200
f 157 200 195
f 161 181 162
f 162 181 201
f 162 201 163
f 163 201 165
f 165 201 166
f 166 201 202
f 166 202 183
f 167 178 203
f 167 203 191
f 167 191 204
f 167 204 168
f 168 188 169
f 168 204 205
f 168 205 188
f 169 206 170
f 169 185 206
f 170 206 180
f 170 180 171
f 173 176 207
f 173 207 208
f 173 208 209
f 173 209 210
f 173 210 211
f 173 211 212
f 173 212 178
f 173 178 177
f 174 179 213
f 174 213 208
f 174 208 175
f 175 208 176
f 176 208 207
f 178 212 214
f 178 214 203
f 180 201 181
f 180 206 202
f 180 202 201
f 183 202 184
f 184 202 206
f 184 206 185
f 187 192 215
f 187 215 200
f 188 205 189
f 189 205 191
f 191 205 204
f 191 203 192
f 192 203 215
f 193 198 194
f 194 198 199
f 195 216 217
f 195 217 218
f 195 218 219
f 195 219 196
f 195 200 216
f 196 219 220
f 196 220 197
f 200 215 221
f 200 221 222
f 200 222 216
f 203 214 215
f 208 213 223
f 208 223 209
f 209 223 210
f 210 223 224
f 210 224 225
f 210 225 226
f 210 226 211
f 211 226 212
f 212 226 227
f 212 227 228
f 212 228 229
f 212 229 214
f 214 229 230
f 214 230 231
f 214 231 232
f 214 232 215
f 215 232 221
f 216 233 234
f 216 234 217
f 216 222 233
f 221 232 235
f 221 235 233
f 221 233 222
f 225 236 226
f 226 236 227
f 227 236 237
f 227 237 228
f 228 237 238
f 228 238 239
f 228 239 229
f 229 239 230
f 230 239 231
f 231 239 240
f 231 240 232
f 232 240 241
f 232 241 242
f 232 242 243
f 232 243 235
f 233 235 243
f 238 244 239
f 239 244 241
f 239 241 240

