# https://github.com/mikedh/trimesh
v 0.03282437 -0.00875355 0.01241541
v 0.03282437 -0.01076043 0.01187404
v 0.03270112 -0.00875355 0.01126032
v 0.03277188 -0.00875290 0.01289940
v 0.03270568 -0.01103531 0.01289940
v 0.03270112 -0.01047294 0.01080128
v 0.03031138 -0.01081986 0.01069400
v 0.01965686 -0.00967672 0.00015099
v 0.02707942 -0.01004883 0.00592644
v 0.03237245 -0.00875355 0.01028485
v 0.03230626 -0.00875322 0.01012519
v 0.03271710 -0.00875290 0.01337840
v 0.03180640 -0.00875322 0.00929192
v 0.01157239 -0.00875290 -0.00726105
v 0.03264406 -0.01104371 0.01289940
v 0.03267373 -0.00875290 0.01366031
v 0.03269656 -0.01104888 0.01295179
v 0.03031138 -0.01008339 0.00812935
v 0.03233136 -0.01020032 0.00978090
v 0.03232680 -0.01132214 0.01396967
v 0.01965686 -0.00987699 0.00098425
v 0.01157467 -0.00903683 -0.00693423
v 0.01157467 -0.00902326 -0.00699411
v 0.01061148 -0.00893056 -0.00790471
v 0.01157467 -0.00890407 -0.00741573
v 0.01187368 -0.00889567 -0.00726105
v 0.01965686 -0.00939117 -0.00078206
v 0.03233136 -0.00875355 0.01017009
v 0.03174249 -0.00995580 0.00886282
v 0.03174249 -0.00875355 0.00918465
v 0.03031138 -0.00875355 0.00749567
v 0.03017215 -0.00875355 0.00733351
v 0.02801751 -0.00875355 0.00491855
v 0.01624459 -0.00875322 -0.00423486
v 0.01214985 -0.00875322 -0.00725357
v 0.01189650 -0.00875322 -0.00726105
v 0.01141947 -0.00875290 -0.00726105
v 0.03236788 -0.00875290 0.01456093
v 0.03031138 -0.01006401 0.00807945
v 0.03221267 -0.00875290 0.01484285
v 0.03144348 -0.00875290 0.01599045
v 0.03136816 -0.01167940 0.01529690
v 0.01965686 -0.00994934 0.00131357
v 0.01157467 -0.00905847 -0.00682696
v 0.01157467 -0.00911564 -0.00644026
v 0.02201921 -0.01121490 0.01045200
v 0.01624459 -0.01005981 0.00117386
v 0.02555017 -0.01192553 0.01617756
v 0.01157467 -0.00912372 -0.00635045
v 0.00952046 -0.00875775 -0.00700409
v 0.00950905 -0.00875290 -0.00700409
v 0.02539269 -0.01121490 0.01049691
v 0.01157467 -0.00909336 -0.00661739
v 0.02321522 -0.01121458 0.01009026
v 0.02320381 -0.01121490 0.01009275
v 0.01624459 -0.00875355 -0.00423486
v 0.02015444 -0.00904781 -0.00094423
v 0.01706627 -0.00875355 -0.00360368
v 0.02892593 -0.00904781 0.00587655
v 0.03031138 -0.00885885 0.00746573
v 0.01965458 -0.00875355 -0.00159038
v 0.01639979 -0.00875355 -0.00412010
v 0.03117872 -0.00875290 0.01623744
v 0.03010140 -0.00875290 0.01701083
v 0.02998728 -0.01192489 0.01621997
v 0.02784633 -0.01121490 0.01137009
v 0.02922265 -0.01139547 0.01289940
v 0.02670738 -0.01201953 0.01657174
v 0.01533389 -0.01001717 0.00909234
v 0.02670738 -0.00875290 0.01744991
v 0.02557300 -0.00875290 0.01703577
v 0.01545257 -0.00875290 0.01312144
v 0.01488881 -0.00875290 0.01289940
v 0.01471306 -0.00875322 0.01282955
v 0.01522433 -0.00906655 0.01289940
v 0.01555072 -0.00924937 0.01289940
v 0.01157239 -0.00875290 0.00950648
v 0.01157239 -0.00915538 0.00802706
v 0.00954100 -0.00875290 0.00684203
v 0.01157467 -0.00919704 0.00763039
v 0.00950677 -0.00875290 -0.00354879
v 0.02893050 -0.01202017 0.01657424
v 0.02415787 -0.01121458 0.01019005
v 0.02781894 -0.01205248 0.01669399
v 0.02974533 -0.00875290 0.01715802
v 0.02893050 -0.00875290 0.01745240
v 0.02781894 -0.00875290 0.01758213
v 0.01157467 -0.00919769 0.00762291
v 0.00953416 -0.00875290 0.00682457
v 0.01369964 -0.00875322 0.01229067
v 0.01409451 -0.00875322 0.01254015
f 1 2 3
f 1 3 4
f 1 4 5
f 1 5 2
f 2 6 3
f 2 5 7
f 2 7 8
f 2 8 9
f 2 9 6
f 3 6 10
f 3 10 11
f 3 11 4
f 4 12 5
f 4 11 13
f 4 13 14
f 4 14 37
f 4 37 51
f 4 51 81
f 4 81 89
f 4 89 79
f 4 79 77
f 4 77 73
f 4 73 72
f 4 72 71
f 4 71 70
f 4 70 87
f 4 87 86
f 4 86 85
f 4 85 64
f 4 64 63
f 4 63 41
f 4 41 40
f 4 40 38
f 4 38 16
f 4 16 12
f 5 15 7
f 5 12 16
f 5 16 17
f 5 17 15
f 6 18 19
f 6 19 10
f 6 9 18
f 7 15 20
f 7 20 21
f 7 21 22
f 7 22 23
f 7 23 8
f 8 23 24
f 8 24 25
f 8 25 9
f 9 25 26
f 9 26 27
f 9 27 18
f 10 19 28
f 10 28 11
f 11 28 19
f 11 19 29
f 11 29 30
f 11 30 13
f 13 30 31
f 13 31 32
f 13 32 33
f 13 33 14
f 14 33 34
f 14 34 35
f 14 35 36
f 14 36 24
f 14 24 37
f 15 17 20
f 16 20 17
f 16 38 20
f 18 27 19
f 19 27 39
f 19 39 29
f 20 38 40
f 20 40 41
f 20 41 42
f 20 42 43
f 20 43 22
f 20 22 21
f 22 44 24
f 22 24 23
f 22 43 44
f 24 45 46
f 24 46 47
f 24 47 48
f 24 48 49
f 24 49 50
f 24 50 51
f 24 51 37
f 24 36 35
f 24 35 25
f 24 44 52
f 24 52 53
f 24 53 54
f 24 54 55
f 24 55 45
f 25 35 26
f 26 35 56
f 26 56 57
f 26 57 29
f 26 29 27
f 27 29 39
f 29 57 58
f 29 58 59
f 29 59 60
f 29 60 30
f 30 60 31
f 31 60 32
f 32 60 33
f 33 60 59
f 33 59 61
f 33 61 34
f 34 61 58
f 34 58 62
f 34 62 56
f 34 56 35
f 41 63 42
f 42 63 64
f 42 64 65
f 42 65 52
f 42 52 66
f 42 66 67
f 42 67 43
f 43 67 44
f 44 67 66
f 44 66 52
f 45 55 68
f 45 68 46
f 46 68 48
f 46 48 47
f 48 69 50
f 48 50 49
f 48 68 70
f 48 70 71
f 48 71 72
f 48 72 73
f 48 73 74
f 48 74 75
f 48 75 76
f 48 76 77
f 48 77 78
f 48 78 79
f 48 79 80
f 48 80 69
f 50 81 51
f 50 69 81
f 52 65 82
f 52 82 83
f 52 83 53
f 53 83 54
f 54 83 82
f 54 82 84
f 54 84 55
f 55 84 68
f 56 62 57
f 57 62 58
f 58 61 59
f 64 85 65
f 65 85 86
f 65 86 82
f 68 84 87
f 68 87 70
f 69 80 88
f 69 88 89
f 69 89 81
f 73 77 90
f 73 90 91
f 73 91 74
f 74 91 75
f 75 91 76
f 76 91 90
f 76 90 77
f 77 79 78
f 79 89 80
f 80 89 88
f 82 86 87
f 82 87 84

